<?xml version="1.0" encoding="UTF-8"?>
<!DOCTYPE svg PUBLIC "-//W3C//DTD SVG 1.1//EN" "http://www.w3.org/Graphics/SVG/1.1/DTD/svg11.dtd">
<svg width="188mm" height="116mm" viewBox="0 0 18800 11600" version="1.1" xmlns="http://www.w3.org/2000/svg" stroke-width="28.222" stroke-linejoin="round" xml:space="preserve">
 <path fill="rgb(255,255,255)" stroke="none" d="M 9394,11581 L 0,11581 0,0 18787,0 18787,11581 9394,11581 Z"/>
 <path fill="none" stroke="rgb(179,179,179)" stroke-linejoin="round" d="M 7470,9721 L 2006,9721 2006,430 12934,430 12934,9721 7470,9721 Z"/>
 <path fill="none" stroke="rgb(179,179,179)" stroke-linejoin="round" d="M 12934,9720 L 2006,9720"/>
 <path fill="none" stroke="rgb(179,179,179)" stroke-linejoin="round" d="M 12934,8171 L 2006,8171"/>
 <path fill="none" stroke="rgb(179,179,179)" stroke-linejoin="round" d="M 12934,6622 L 2006,6622"/>
 <path fill="none" stroke="rgb(179,179,179)" stroke-linejoin="round" d="M 12934,5075 L 2006,5075"/>
 <path fill="none" stroke="rgb(179,179,179)" stroke-linejoin="round" d="M 12934,3526 L 2006,3526"/>
 <path fill="none" stroke="rgb(179,179,179)" stroke-linejoin="round" d="M 12934,1977 L 2006,1977"/>
 <path fill="none" stroke="rgb(179,179,179)" stroke-linejoin="round" d="M 12934,429 L 2006,429"/>
 <path fill="none" stroke="rgb(179,179,179)" stroke-linejoin="round" d="M 2006,9870 L 2006,9720"/>
 <path fill="none" stroke="rgb(179,179,179)" stroke-linejoin="round" d="M 2006,9870 L 2006,9720"/>
 <path fill="none" stroke="rgb(179,179,179)" stroke-linejoin="round" d="M 3372,9870 L 3372,9720"/>
 <path fill="none" stroke="rgb(179,179,179)" stroke-linejoin="round" d="M 3372,9870 L 3372,9720"/>
 <path fill="none" stroke="rgb(179,179,179)" stroke-linejoin="round" d="M 4738,9870 L 4738,9720"/>
 <path fill="none" stroke="rgb(179,179,179)" stroke-linejoin="round" d="M 4738,9870 L 4738,9720"/>
 <path fill="none" stroke="rgb(179,179,179)" stroke-linejoin="round" d="M 6104,9870 L 6104,9720"/>
 <path fill="none" stroke="rgb(179,179,179)" stroke-linejoin="round" d="M 6104,9870 L 6104,9720"/>
 <path fill="none" stroke="rgb(179,179,179)" stroke-linejoin="round" d="M 7470,9870 L 7470,9720"/>
 <path fill="none" stroke="rgb(179,179,179)" stroke-linejoin="round" d="M 7470,9870 L 7470,9720"/>
 <path fill="none" stroke="rgb(179,179,179)" stroke-linejoin="round" d="M 8836,9870 L 8836,9720"/>
 <path fill="none" stroke="rgb(179,179,179)" stroke-linejoin="round" d="M 8836,9870 L 8836,9720"/>
 <path fill="none" stroke="rgb(179,179,179)" stroke-linejoin="round" d="M 10201,9870 L 10201,9720"/>
 <path fill="none" stroke="rgb(179,179,179)" stroke-linejoin="round" d="M 10201,9870 L 10201,9720"/>
 <path fill="none" stroke="rgb(179,179,179)" stroke-linejoin="round" d="M 11567,9870 L 11567,9720"/>
 <path fill="none" stroke="rgb(179,179,179)" stroke-linejoin="round" d="M 11567,9870 L 11567,9720"/>
 <path fill="none" stroke="rgb(179,179,179)" stroke-linejoin="round" d="M 12934,9870 L 12934,9720"/>
 <path fill="none" stroke="rgb(179,179,179)" stroke-linejoin="round" d="M 12934,9870 L 12934,9720"/>
 <path fill="none" stroke="rgb(179,179,179)" stroke-linejoin="round" d="M 2006,9720 L 12934,9720"/>
 <path fill="none" stroke="rgb(179,179,179)" stroke-linejoin="round" d="M 1856,9720 L 2006,9720"/>
 <path fill="none" stroke="rgb(179,179,179)" stroke-linejoin="round" d="M 1856,9720 L 2006,9720"/>
 <path fill="none" stroke="rgb(179,179,179)" stroke-linejoin="round" d="M 1856,8171 L 2006,8171"/>
 <path fill="none" stroke="rgb(179,179,179)" stroke-linejoin="round" d="M 1856,8171 L 2006,8171"/>
 <path fill="none" stroke="rgb(179,179,179)" stroke-linejoin="round" d="M 1856,6622 L 2006,6622"/>
 <path fill="none" stroke="rgb(179,179,179)" stroke-linejoin="round" d="M 1856,6622 L 2006,6622"/>
 <path fill="none" stroke="rgb(179,179,179)" stroke-linejoin="round" d="M 1856,5075 L 2006,5075"/>
 <path fill="none" stroke="rgb(179,179,179)" stroke-linejoin="round" d="M 1856,5075 L 2006,5075"/>
 <path fill="none" stroke="rgb(179,179,179)" stroke-linejoin="round" d="M 1856,3526 L 2006,3526"/>
 <path fill="none" stroke="rgb(179,179,179)" stroke-linejoin="round" d="M 1856,3526 L 2006,3526"/>
 <path fill="none" stroke="rgb(179,179,179)" stroke-linejoin="round" d="M 1856,1977 L 2006,1977"/>
 <path fill="none" stroke="rgb(179,179,179)" stroke-linejoin="round" d="M 1856,1977 L 2006,1977"/>
 <path fill="none" stroke="rgb(179,179,179)" stroke-linejoin="round" d="M 1856,429 L 2006,429"/>
 <path fill="none" stroke="rgb(179,179,179)" stroke-linejoin="round" d="M 1856,429 L 2006,429"/>
 <path fill="none" stroke="rgb(179,179,179)" stroke-linejoin="round" d="M 2006,9720 L 2006,429"/>
 <path fill="none" stroke="rgb(87,157,28)" stroke-width="80" stroke-linejoin="round" stroke-dasharray="158,158" d="M 2006,2087 L 5421,2111 8836,2162 12250,2070"/>
 <path fill="rgb(87,157,28)" stroke="none" d="M 1881,2212 L 2131,2212 1881,1962 2131,1962 1881,2212 Z"/>
 <path fill="none" stroke="rgb(87,157,28)" stroke-linejoin="round" d="M 1881,2212 L 2131,2212 1881,1962 2131,1962 1881,2212 Z"/>
 <path fill="rgb(87,157,28)" stroke="none" d="M 5296,2236 L 5546,2236 5296,1986 5546,1986 5296,2236 Z"/>
 <path fill="none" stroke="rgb(87,157,28)" stroke-linejoin="round" d="M 5296,2236 L 5546,2236 5296,1986 5546,1986 5296,2236 Z"/>
 <path fill="rgb(87,157,28)" stroke="none" d="M 8711,2287 L 8961,2287 8711,2037 8961,2037 8711,2287 Z"/>
 <path fill="none" stroke="rgb(87,157,28)" stroke-linejoin="round" d="M 8711,2287 L 8961,2287 8711,2037 8961,2037 8711,2287 Z"/>
 <path fill="rgb(87,157,28)" stroke="none" d="M 12125,2195 L 12375,2195 12125,1945 12375,1945 12125,2195 Z"/>
 <path fill="none" stroke="rgb(87,157,28)" stroke-linejoin="round" d="M 12125,2195 L 12375,2195 12125,1945 12375,1945 12125,2195 Z"/>
 <path fill="none" stroke="rgb(255,211,32)" stroke-width="80" stroke-linejoin="round" stroke-dasharray="51,51,51,51" d="M 2006,3003 L 5421,3001 8836,2923 12250,2932"/>
 <path fill="rgb(255,211,32)" stroke="none" d="M 1881,2878 L 1881,3128 2131,2878 2131,3128 1881,2878 Z"/>
 <path fill="none" stroke="rgb(255,211,32)" stroke-linejoin="round" d="M 1881,2878 L 1881,3128 2131,2878 2131,3128 1881,2878 Z"/>
 <path fill="rgb(255,211,32)" stroke="none" d="M 5296,2876 L 5296,3126 5546,2876 5546,3126 5296,2876 Z"/>
 <path fill="none" stroke="rgb(255,211,32)" stroke-linejoin="round" d="M 5296,2876 L 5296,3126 5546,2876 5546,3126 5296,2876 Z"/>
 <path fill="rgb(255,211,32)" stroke="none" d="M 8711,2798 L 8711,3048 8961,2798 8961,3048 8711,2798 Z"/>
 <path fill="none" stroke="rgb(255,211,32)" stroke-linejoin="round" d="M 8711,2798 L 8711,3048 8961,2798 8961,3048 8711,2798 Z"/>
 <path fill="rgb(255,211,32)" stroke="none" d="M 12125,2807 L 12125,3057 12375,2807 12375,3057 12125,2807 Z"/>
 <path fill="none" stroke="rgb(255,211,32)" stroke-linejoin="round" d="M 12125,2807 L 12125,3057 12375,2807 12375,3057 12125,2807 Z"/>
 <path fill="none" stroke="rgb(255,66,14)" stroke-width="80" stroke-linejoin="round" stroke-dasharray="158,158" d="M 2006,6574 L 5421,6680 8836,6475 12250,6576"/>
 <path fill="rgb(255,66,14)" stroke="none" d="M 1881,6574 L 2131,6699 2131,6449 1881,6574 Z"/>
 <path fill="none" stroke="rgb(255,66,14)" stroke-linejoin="round" d="M 1881,6574 L 2131,6699 2131,6449 1881,6574 Z"/>
 <path fill="rgb(255,66,14)" stroke="none" d="M 5296,6680 L 5546,6805 5546,6555 5296,6680 Z"/>
 <path fill="none" stroke="rgb(255,66,14)" stroke-linejoin="round" d="M 5296,6680 L 5546,6805 5546,6555 5296,6680 Z"/>
 <path fill="rgb(255,66,14)" stroke="none" d="M 8711,6475 L 8961,6600 8961,6350 8711,6475 Z"/>
 <path fill="none" stroke="rgb(255,66,14)" stroke-linejoin="round" d="M 8711,6475 L 8961,6600 8961,6350 8711,6475 Z"/>
 <path fill="rgb(255,66,14)" stroke="none" d="M 12125,6576 L 12375,6701 12375,6451 12125,6576 Z"/>
 <path fill="none" stroke="rgb(255,66,14)" stroke-linejoin="round" d="M 12125,6576 L 12375,6701 12375,6451 12125,6576 Z"/>
 <path fill="none" stroke="rgb(131,202,255)" stroke-width="80" stroke-linejoin="round" stroke-dasharray="158,158" d="M 2006,9499 L 5421,9482 8836,9440 12250,9499"/>
 <path fill="rgb(131,202,255)" stroke="none" d="M 1881,9374 L 1881,9624 2131,9499 1881,9374 Z"/>
 <path fill="none" stroke="rgb(131,202,255)" stroke-linejoin="round" d="M 1881,9374 L 1881,9624 2131,9499 1881,9374 Z"/>
 <path fill="rgb(131,202,255)" stroke="none" d="M 5296,9357 L 5296,9607 5546,9482 5296,9357 Z"/>
 <path fill="none" stroke="rgb(131,202,255)" stroke-linejoin="round" d="M 5296,9357 L 5296,9607 5546,9482 5296,9357 Z"/>
 <path fill="rgb(131,202,255)" stroke="none" d="M 8711,9315 L 8711,9565 8961,9440 8711,9315 Z"/>
 <path fill="none" stroke="rgb(131,202,255)" stroke-linejoin="round" d="M 8711,9315 L 8711,9565 8961,9440 8711,9315 Z"/>
 <path fill="rgb(131,202,255)" stroke="none" d="M 12125,9374 L 12125,9624 12375,9499 12125,9374 Z"/>
 <path fill="none" stroke="rgb(131,202,255)" stroke-linejoin="round" d="M 12125,9374 L 12125,9624 12375,9499 12125,9374 Z"/>
 <path fill="none" stroke="rgb(87,157,28)" stroke-width="80" stroke-linejoin="round" d="M 2006,2540 L 5421,2301 8836,2090 12250,2038"/>
 <path fill="rgb(87,157,28)" stroke="none" d="M 1881,2665 L 2131,2665 2006,2415 1881,2665 Z"/>
 <path fill="none" stroke="rgb(87,157,28)" stroke-linejoin="round" d="M 1881,2665 L 2131,2665 2006,2415 1881,2665 Z"/>
 <path fill="rgb(87,157,28)" stroke="none" d="M 5296,2426 L 5546,2426 5421,2176 5296,2426 Z"/>
 <path fill="none" stroke="rgb(87,157,28)" stroke-linejoin="round" d="M 5296,2426 L 5546,2426 5421,2176 5296,2426 Z"/>
 <path fill="rgb(87,157,28)" stroke="none" d="M 8711,2215 L 8961,2215 8836,1965 8711,2215 Z"/>
 <path fill="none" stroke="rgb(87,157,28)" stroke-linejoin="round" d="M 8711,2215 L 8961,2215 8836,1965 8711,2215 Z"/>
 <path fill="rgb(87,157,28)" stroke="none" d="M 12125,2163 L 12375,2163 12250,1913 12125,2163 Z"/>
 <path fill="none" stroke="rgb(87,157,28)" stroke-linejoin="round" d="M 12125,2163 L 12375,2163 12250,1913 12125,2163 Z"/>
 <path fill="none" stroke="rgb(255,211,32)" stroke-width="80" stroke-linejoin="round" d="M 2006,4510 L 5421,3664 8836,2619 12250,2356"/>
 <path fill="rgb(255,211,32)" stroke="none" d="M 1881,4385 L 2006,4635 2131,4385 1881,4385 Z"/>
 <path fill="none" stroke="rgb(255,211,32)" stroke-linejoin="round" d="M 1881,4385 L 2006,4635 2131,4385 1881,4385 Z"/>
 <path fill="rgb(255,211,32)" stroke="none" d="M 5296,3539 L 5421,3789 5546,3539 5296,3539 Z"/>
 <path fill="none" stroke="rgb(255,211,32)" stroke-linejoin="round" d="M 5296,3539 L 5421,3789 5546,3539 5296,3539 Z"/>
 <path fill="rgb(255,211,32)" stroke="none" d="M 8711,2494 L 8836,2744 8961,2494 8711,2494 Z"/>
 <path fill="none" stroke="rgb(255,211,32)" stroke-linejoin="round" d="M 8711,2494 L 8836,2744 8961,2494 8711,2494 Z"/>
 <path fill="rgb(255,211,32)" stroke="none" d="M 12125,2231 L 12250,2481 12375,2231 12125,2231 Z"/>
 <path fill="none" stroke="rgb(255,211,32)" stroke-linejoin="round" d="M 12125,2231 L 12250,2481 12375,2231 12125,2231 Z"/>
 <path fill="none" stroke="rgb(255,66,14)" stroke-width="80" stroke-linejoin="round" d="M 2006,8409 L 5421,7808 8836,6396 12250,5258"/>
 <path fill="rgb(255,66,14)" stroke="none" d="M 1881,8409 L 2006,8534 2131,8409 2006,8284 1881,8409 Z"/>
 <path fill="none" stroke="rgb(255,66,14)" stroke-linejoin="round" d="M 1881,8409 L 2006,8534 2131,8409 2006,8284 1881,8409 Z"/>
 <path fill="rgb(255,66,14)" stroke="none" d="M 5296,7808 L 5421,7933 5546,7808 5421,7683 5296,7808 Z"/>
 <path fill="none" stroke="rgb(255,66,14)" stroke-linejoin="round" d="M 5296,7808 L 5421,7933 5546,7808 5421,7683 5296,7808 Z"/>
 <path fill="rgb(255,66,14)" stroke="none" d="M 8711,6396 L 8836,6521 8961,6396 8836,6271 8711,6396 Z"/>
 <path fill="none" stroke="rgb(255,66,14)" stroke-linejoin="round" d="M 8711,6396 L 8836,6521 8961,6396 8836,6271 8711,6396 Z"/>
 <path fill="rgb(255,66,14)" stroke="none" d="M 12125,5258 L 12250,5383 12375,5258 12250,5133 12125,5258 Z"/>
 <path fill="none" stroke="rgb(255,66,14)" stroke-linejoin="round" d="M 12125,5258 L 12250,5383 12375,5258 12250,5133 12125,5258 Z"/>
 <path fill="none" stroke="rgb(0,132,209)" stroke-width="80" stroke-linejoin="round" d="M 2006,9711 L 5421,9590 8836,9493 12250,9338"/>
 <path fill="rgb(0,132,209)" stroke="none" d="M 1881,9586 L 1881,9836 2131,9836 2131,9586 1881,9586 Z"/>
 <path fill="none" stroke="rgb(0,132,209)" stroke-linejoin="round" d="M 1881,9586 L 1881,9836 2131,9836 2131,9586 1881,9586 Z"/>
 <path fill="rgb(0,132,209)" stroke="none" d="M 5296,9465 L 5296,9715 5546,9715 5546,9465 5296,9465 Z"/>
 <path fill="none" stroke="rgb(0,132,209)" stroke-linejoin="round" d="M 5296,9465 L 5296,9715 5546,9715 5546,9465 5296,9465 Z"/>
 <path fill="rgb(0,132,209)" stroke="none" d="M 8711,9368 L 8711,9618 8961,9618 8961,9368 8711,9368 Z"/>
 <path fill="none" stroke="rgb(0,132,209)" stroke-linejoin="round" d="M 8711,9368 L 8711,9618 8961,9618 8961,9368 8711,9368 Z"/>
 <path fill="rgb(0,132,209)" stroke="none" d="M 12125,9213 L 12125,9463 12375,9463 12375,9213 12125,9213 Z"/>
 <path fill="none" stroke="rgb(0,132,209)" stroke-linejoin="round" d="M 12125,9213 L 12125,9463 12375,9463 12375,9213 12125,9213 Z"/>
 <text class="TextShape"><tspan class="TextParagraph" font-family="Liberation Sans, sans-serif" font-size="353px" font-weight="400"><tspan class="TextPosition" x="1913" y="10288"><tspan fill="rgb(0,0,0)" stroke="none">0</tspan></tspan></tspan></text>
 <text class="TextShape"><tspan class="TextParagraph" font-family="Liberation Sans, sans-serif" font-size="353px" font-weight="400"><tspan class="TextPosition" x="3187" y="10288"><tspan fill="rgb(0,0,0)" stroke="none">10</tspan></tspan></tspan></text>
 <text class="TextShape"><tspan class="TextParagraph" font-family="Liberation Sans, sans-serif" font-size="353px" font-weight="400"><tspan class="TextPosition" x="4553" y="10288"><tspan fill="rgb(0,0,0)" stroke="none">20</tspan></tspan></tspan></text>
 <text class="TextShape"><tspan class="TextParagraph" font-family="Liberation Sans, sans-serif" font-size="353px" font-weight="400"><tspan class="TextPosition" x="5919" y="10288"><tspan fill="rgb(0,0,0)" stroke="none">30</tspan></tspan></tspan></text>
 <text class="TextShape"><tspan class="TextParagraph" font-family="Liberation Sans, sans-serif" font-size="353px" font-weight="400"><tspan class="TextPosition" x="7285" y="10288"><tspan fill="rgb(0,0,0)" stroke="none">40</tspan></tspan></tspan></text>
 <text class="TextShape"><tspan class="TextParagraph" font-family="Liberation Sans, sans-serif" font-size="353px" font-weight="400"><tspan class="TextPosition" x="8651" y="10288"><tspan fill="rgb(0,0,0)" stroke="none">50</tspan></tspan></tspan></text>
 <text class="TextShape"><tspan class="TextParagraph" font-family="Liberation Sans, sans-serif" font-size="353px" font-weight="400"><tspan class="TextPosition" x="10017" y="10288"><tspan fill="rgb(0,0,0)" stroke="none">60</tspan></tspan></tspan></text>
 <text class="TextShape"><tspan class="TextParagraph" font-family="Liberation Sans, sans-serif" font-size="353px" font-weight="400"><tspan class="TextPosition" x="11383" y="10288"><tspan fill="rgb(0,0,0)" stroke="none">70</tspan></tspan></tspan></text>
 <text class="TextShape"><tspan class="TextParagraph" font-family="Liberation Sans, sans-serif" font-size="353px" font-weight="400"><tspan class="TextPosition" x="12750" y="10288"><tspan fill="rgb(0,0,0)" stroke="none">80</tspan></tspan></tspan></text>
 <text class="TextShape"><tspan class="TextParagraph" font-family="Liberation Sans, sans-serif" font-size="353px" font-weight="400"><tspan class="TextPosition" x="1571" y="9841"><tspan fill="rgb(0,0,0)" stroke="none">0</tspan></tspan></tspan></text>
 <text class="TextShape"><tspan class="TextParagraph" font-family="Liberation Sans, sans-serif" font-size="353px" font-weight="400"><tspan class="TextPosition" x="1386" y="8292"><tspan fill="rgb(0,0,0)" stroke="none">20</tspan></tspan></tspan></text>
 <text class="TextShape"><tspan class="TextParagraph" font-family="Liberation Sans, sans-serif" font-size="353px" font-weight="400"><tspan class="TextPosition" x="1386" y="6743"><tspan fill="rgb(0,0,0)" stroke="none">40</tspan></tspan></tspan></text>
 <text class="TextShape"><tspan class="TextParagraph" font-family="Liberation Sans, sans-serif" font-size="353px" font-weight="400"><tspan class="TextPosition" x="1386" y="5195"><tspan fill="rgb(0,0,0)" stroke="none">60</tspan></tspan></tspan></text>
 <text class="TextShape"><tspan class="TextParagraph" font-family="Liberation Sans, sans-serif" font-size="353px" font-weight="400"><tspan class="TextPosition" x="1386" y="3646"><tspan fill="rgb(0,0,0)" stroke="none">80</tspan></tspan></tspan></text>
 <text class="TextShape"><tspan class="TextParagraph" font-family="Liberation Sans, sans-serif" font-size="353px" font-weight="400"><tspan class="TextPosition" x="1200" y="2097"><tspan fill="rgb(0,0,0)" stroke="none">100</tspan></tspan></tspan></text>
 <text class="TextShape"><tspan class="TextParagraph" font-family="Liberation Sans, sans-serif" font-size="353px" font-weight="400"><tspan class="TextPosition" x="1200" y="549"><tspan fill="rgb(0,0,0)" stroke="none">120</tspan></tspan></tspan></text>
 <path fill="none" stroke="rgb(0,132,209)" stroke-width="80" stroke-linejoin="round" d="M 13754,4002 L 15354,4002"/>
 <path fill="rgb(0,132,209)" stroke="none" d="M 14448,3897 L 14448,4108 14659,4108 14659,3897 14448,3897 Z"/>
 <path fill="none" stroke="rgb(0,132,209)" stroke-linejoin="round" d="M 14448,3897 L 14448,4108 14659,4108 14659,3897 14448,3897 Z"/>
 <path fill="none" stroke="rgb(255,66,14)" stroke-width="80" stroke-linejoin="round" d="M 13754,4455 L 15354,4455"/>
 <path fill="rgb(255,66,14)" stroke="none" d="M 14448,4455 L 14554,4561 14659,4455 14554,4350 14448,4455 Z"/>
 <path fill="none" stroke="rgb(255,66,14)" stroke-linejoin="round" d="M 14448,4455 L 14554,4561 14659,4455 14554,4350 14448,4455 Z"/>
 <path fill="none" stroke="rgb(255,211,32)" stroke-width="80" stroke-linejoin="round" d="M 13754,4908 L 15354,4908"/>
 <path fill="rgb(255,211,32)" stroke="none" d="M 14448,4803 L 14554,5014 14659,4803 14448,4803 Z"/>
 <path fill="none" stroke="rgb(255,211,32)" stroke-linejoin="round" d="M 14448,4803 L 14554,5014 14659,4803 14448,4803 Z"/>
 <path fill="none" stroke="rgb(87,157,28)" stroke-width="80" stroke-linejoin="round" d="M 13754,5361 L 15354,5361"/>
 <path fill="rgb(87,157,28)" stroke="none" d="M 14448,5467 L 14659,5467 14554,5256 14448,5467 Z"/>
 <path fill="none" stroke="rgb(87,157,28)" stroke-linejoin="round" d="M 14448,5467 L 14659,5467 14554,5256 14448,5467 Z"/>
 <path fill="none" stroke="rgb(131,202,255)" stroke-width="80" stroke-linejoin="round" stroke-dasharray="158,158" d="M 13754,6210 L 15354,6210"/>
 <path fill="rgb(131,202,255)" stroke="none" d="M 14448,6105 L 14448,6316 14659,6210 14448,6105 Z"/>
 <path fill="none" stroke="rgb(131,202,255)" stroke-linejoin="round" d="M 14448,6105 L 14448,6316 14659,6210 14448,6105 Z"/>
 <path fill="none" stroke="rgb(255,66,14)" stroke-width="80" stroke-linejoin="round" stroke-dasharray="158,158" d="M 13754,6663 L 15354,6663"/>
 <path fill="rgb(255,66,14)" stroke="none" d="M 14448,6663 L 14659,6769 14659,6558 14448,6663 Z"/>
 <path fill="none" stroke="rgb(255,66,14)" stroke-linejoin="round" d="M 14448,6663 L 14659,6769 14659,6558 14448,6663 Z"/>
 <path fill="none" stroke="rgb(255,211,32)" stroke-width="80" stroke-linejoin="round" stroke-dasharray="51,51,51,51" d="M 13754,7116 L 15354,7116"/>
 <path fill="rgb(255,211,32)" stroke="none" d="M 14448,7011 L 14448,7222 14659,7011 14659,7222 14448,7011 Z"/>
 <path fill="none" stroke="rgb(255,211,32)" stroke-linejoin="round" d="M 14448,7011 L 14448,7222 14659,7011 14659,7222 14448,7011 Z"/>
 <path fill="none" stroke="rgb(87,157,28)" stroke-width="80" stroke-linejoin="round" stroke-dasharray="158,158" d="M 13754,7569 L 15354,7569"/>
 <path fill="rgb(87,157,28)" stroke="none" d="M 14448,7675 L 14659,7675 14448,7464 14659,7464 14448,7675 Z"/>
 <path fill="none" stroke="rgb(87,157,28)" stroke-linejoin="round" d="M 14448,7675 L 14659,7675 14448,7464 14659,7464 14448,7675 Z"/>
 <text class="TextShape"><tspan class="TextParagraph" font-family="Liberation Sans, sans-serif" font-size="353px" font-weight="400"><tspan class="TextPosition" x="15454" y="4122"><tspan fill="rgb(0,0,0)" stroke="none">3% robots between</tspan></tspan></tspan></text>
 <text class="TextShape"><tspan class="TextParagraph" font-family="Liberation Sans, sans-serif" font-size="353px" font-weight="400"><tspan class="TextPosition" x="15454" y="4575"><tspan fill="rgb(0,0,0)" stroke="none">6% robots between</tspan></tspan></tspan></text>
 <text class="TextShape"><tspan class="TextParagraph" font-family="Liberation Sans, sans-serif" font-size="353px" font-weight="400"><tspan class="TextPosition" x="15454" y="5028"><tspan fill="rgb(0,0,0)" stroke="none">9% robots between</tspan></tspan></tspan></text>
 <text class="TextShape"><tspan class="TextParagraph" font-family="Liberation Sans, sans-serif" font-size="353px" font-weight="400"><tspan class="TextPosition" x="15454" y="5481"><tspan fill="rgb(0,0,0)" stroke="none">11% robots </tspan></tspan><tspan class="TextPosition" x="15454" y="5877"><tspan fill="rgb(0,0,0)" stroke="none">between</tspan></tspan></tspan></text>
 <text class="TextShape"><tspan class="TextParagraph" font-family="Liberation Sans, sans-serif" font-size="353px" font-weight="400"><tspan class="TextPosition" x="15454" y="6330"><tspan fill="rgb(0,0,0)" stroke="none">3% robots random</tspan></tspan></tspan></text>
 <text class="TextShape"><tspan class="TextParagraph" font-family="Liberation Sans, sans-serif" font-size="353px" font-weight="400"><tspan class="TextPosition" x="15454" y="6783"><tspan fill="rgb(0,0,0)" stroke="none">6% robots random</tspan></tspan></tspan></text>
 <text class="TextShape"><tspan class="TextParagraph" font-family="Liberation Sans, sans-serif" font-size="353px" font-weight="400"><tspan class="TextPosition" x="15454" y="7236"><tspan fill="rgb(0,0,0)" stroke="none">9% robots random</tspan></tspan></tspan></text>
 <text class="TextShape"><tspan class="TextParagraph" font-family="Liberation Sans, sans-serif" font-size="353px" font-weight="400"><tspan class="TextPosition" x="15454" y="7689"><tspan fill="rgb(0,0,0)" stroke="none">11% robots random</tspan></tspan></tspan></text>
 <text class="TextShape"><tspan class="TextParagraph" font-family="Liberation Sans, sans-serif" font-size="318px" font-weight="400"><tspan class="TextPosition" x="5056" y="10986"><tspan fill="rgb(0,0,0)" stroke="none">Starting point in % of humans</tspan></tspan></tspan></text>
 <text class="TextShape" transform="translate(650,7350) rotate(-90) translate(-650,-7350)"><tspan class="TextParagraph" font-family="Liberation Sans, sans-serif" font-size="318px" font-weight="400"><tspan class="TextPosition" x="650" y="7350"><tspan fill="rgb(0,0,0)" stroke="none">% of humans use robot word</tspan></tspan></tspan></text>
</svg>