<?xml version="1.0" encoding="UTF-8" standalone="no"?>
<svg
   xmlns:dc="http://purl.org/dc/elements/1.1/"
   xmlns:cc="http://creativecommons.org/ns#"
   xmlns:rdf="http://www.w3.org/1999/02/22-rdf-syntax-ns#"
   xmlns:svg="http://www.w3.org/2000/svg"
   xmlns="http://www.w3.org/2000/svg"
   xmlns:sodipodi="http://sodipodi.sourceforge.net/DTD/sodipodi-0.dtd"
   xmlns:inkscape="http://www.inkscape.org/namespaces/inkscape"
   width="160mm"
   height="90mm"
   viewBox="0 0 16000 9000"
   version="1.1"
   stroke-width="28.222"
   stroke-linejoin="round"
   xml:space="preserve"
   id="svg2"
   inkscape:version="0.91 r13725"
   sodipodi:docname="class_steps_b.svg"
   inkscape:export-filename="/home/brandiatmuhkuh/Documents/development/NetEvilBot/realNamingGame/paperImages/pngs/class_steps_b.svg.png"
   inkscape:export-xdpi="300.03555"
   inkscape:export-ydpi="300.03555"><metadata
     id="metadata468"><rdf:RDF><cc:Work
         rdf:about=""><dc:format>image/svg+xml</dc:format><dc:type
           rdf:resource="http://purl.org/dc/dcmitype/StillImage" /></cc:Work></rdf:RDF></metadata><defs
     id="defs466"><marker
       inkscape:stockid="Arrow1Lend"
       orient="auto"
       refY="0.0"
       refX="0.0"
       id="Arrow1Lend"
       style="overflow:visible;"
       inkscape:isstock="true"><path
         id="path4620"
         d="M 0.0,0.0 L 5.0,-5.0 L -12.5,0.0 L 5.0,5.0 L 0.0,0.0 z "
         style="fill-rule:evenodd;stroke:#000000;stroke-width:1.0pt;"
         transform="scale(0.8) rotate(180) translate(12.5,0)" /></marker><marker
       inkscape:isstock="true"
       style="overflow:visible;"
       id="marker4903"
       refX="0.0"
       refY="0.0"
       orient="auto"
       inkscape:stockid="Arrow1Lend"><path
         transform="scale(0.8) rotate(180) translate(12.5,0)"
         style="fill-rule:evenodd;stroke:#000000;stroke-width:1pt;stroke-opacity:1;fill:#000000;fill-opacity:1"
         d="M 0.0,0.0 L 5.0,-5.0 L -12.5,0.0 L 5.0,5.0 L 0.0,0.0 z "
         id="path4905" /></marker></defs><sodipodi:namedview
     pagecolor="#ffffff"
     bordercolor="#666666"
     borderopacity="1"
     objecttolerance="10"
     gridtolerance="10"
     guidetolerance="10"
     inkscape:pageopacity="0"
     inkscape:pageshadow="2"
     inkscape:window-width="1631"
     inkscape:window-height="1026"
     id="namedview464"
     showgrid="false"
     inkscape:zoom="2.1025556"
     inkscape:cx="137.80313"
     inkscape:cy="249.78503"
     inkscape:window-x="49"
     inkscape:window-y="24"
     inkscape:window-maximized="1"
     inkscape:current-layer="svg2" /><path
     fill="rgb(255,255,255)"
     stroke="none"
     d="M 8060,8999 L 60,8999 60,0 16059,0 16059,8999 8060,8999 Z"
     id="path4" /><path
     fill="none"
     stroke="rgb(179,179,179)"
     stroke-linejoin="round"
     d="M 7608,7191 L 2568,7191 2568,379 12647,379 12647,7191 7608,7191 Z"
     id="path6" /><path
     fill="none"
     stroke="rgb(179,179,179)"
     stroke-linejoin="round"
     d="M 12647,7190 L 2568,7190"
     id="path8" /><path
     fill="none"
     stroke="rgb(179,179,179)"
     stroke-linejoin="round"
     d="M 12647,6433 L 2568,6433"
     id="path10" /><path
     fill="none"
     stroke="rgb(179,179,179)"
     stroke-linejoin="round"
     d="M 12647,5676 L 2568,5676"
     id="path12" /><path
     fill="none"
     stroke="rgb(179,179,179)"
     stroke-linejoin="round"
     d="M 12647,4919 L 2568,4919"
     id="path14" /><path
     fill="none"
     stroke="rgb(179,179,179)"
     stroke-linejoin="round"
     d="M 12647,4163 L 2568,4163"
     id="path16" /><path
     fill="none"
     stroke="rgb(179,179,179)"
     stroke-linejoin="round"
     d="M 12647,3406 L 2568,3406"
     id="path18" /><path
     fill="none"
     stroke="rgb(179,179,179)"
     stroke-linejoin="round"
     d="M 12647,2649 L 2568,2649"
     id="path20" /><path
     fill="none"
     stroke="rgb(179,179,179)"
     stroke-linejoin="round"
     d="M 12647,1892 L 2568,1892"
     id="path22" /><path
     fill="none"
     stroke="rgb(179,179,179)"
     stroke-linejoin="round"
     d="M 12647,1135 L 2568,1135"
     id="path24" /><path
     fill="none"
     stroke="rgb(179,179,179)"
     stroke-linejoin="round"
     d="M 12647,378 L 2568,378"
     id="path26" /><path
     fill="none"
     stroke="rgb(179,179,179)"
     stroke-linejoin="round"
     d="M 2568,7340 L 2568,7190"
     id="path28" /><path
     fill="none"
     stroke="rgb(179,179,179)"
     stroke-linejoin="round"
     d="M 2568,7340 L 2568,7190"
     id="path30" /><path
     fill="none"
     stroke="rgb(179,179,179)"
     stroke-linejoin="round"
     d="M 3688,7340 L 3688,7190"
     id="path32" /><path
     fill="none"
     stroke="rgb(179,179,179)"
     stroke-linejoin="round"
     d="M 3688,7340 L 3688,7190"
     id="path34" /><path
     fill="none"
     stroke="rgb(179,179,179)"
     stroke-linejoin="round"
     d="M 4808,7340 L 4808,7190"
     id="path36" /><path
     fill="none"
     stroke="rgb(179,179,179)"
     stroke-linejoin="round"
     d="M 4808,7340 L 4808,7190"
     id="path38" /><path
     fill="none"
     stroke="rgb(179,179,179)"
     stroke-linejoin="round"
     d="M 5928,7340 L 5928,7190"
     id="path40" /><path
     fill="none"
     stroke="rgb(179,179,179)"
     stroke-linejoin="round"
     d="M 5928,7340 L 5928,7190"
     id="path42" /><path
     fill="none"
     stroke="rgb(179,179,179)"
     stroke-linejoin="round"
     d="M 7048,7340 L 7048,7190"
     id="path44" /><path
     fill="none"
     stroke="rgb(179,179,179)"
     stroke-linejoin="round"
     d="M 7048,7340 L 7048,7190"
     id="path46" /><path
     fill="none"
     stroke="rgb(179,179,179)"
     stroke-linejoin="round"
     d="M 8167,7340 L 8167,7190"
     id="path48" /><path
     fill="none"
     stroke="rgb(179,179,179)"
     stroke-linejoin="round"
     d="M 8167,7340 L 8167,7190"
     id="path50" /><path
     fill="none"
     stroke="rgb(179,179,179)"
     stroke-linejoin="round"
     d="M 9287,7340 L 9287,7190"
     id="path52" /><path
     fill="none"
     stroke="rgb(179,179,179)"
     stroke-linejoin="round"
     d="M 9287,7340 L 9287,7190"
     id="path54" /><path
     fill="none"
     stroke="rgb(179,179,179)"
     stroke-linejoin="round"
     d="M 10407,7340 L 10407,7190"
     id="path56" /><path
     fill="none"
     stroke="rgb(179,179,179)"
     stroke-linejoin="round"
     d="M 10407,7340 L 10407,7190"
     id="path58" /><path
     fill="none"
     stroke="rgb(179,179,179)"
     stroke-linejoin="round"
     d="M 11527,7340 L 11527,7190"
     id="path60" /><path
     fill="none"
     stroke="rgb(179,179,179)"
     stroke-linejoin="round"
     d="M 11527,7340 L 11527,7190"
     id="path62" /><path
     fill="none"
     stroke="rgb(179,179,179)"
     stroke-linejoin="round"
     d="M 12647,7340 L 12647,7190"
     id="path64" /><path
     fill="none"
     stroke="rgb(179,179,179)"
     stroke-linejoin="round"
     d="M 12647,7340 L 12647,7190"
     id="path66" /><path
     fill="none"
     stroke="rgb(179,179,179)"
     stroke-linejoin="round"
     d="M 2568,7190 L 12647,7190"
     id="path68" /><path
     fill="none"
     stroke="rgb(179,179,179)"
     stroke-linejoin="round"
     d="M 2418,7190 L 2568,7190"
     id="path70" /><path
     fill="none"
     stroke="rgb(179,179,179)"
     stroke-linejoin="round"
     d="M 2418,7190 L 2568,7190"
     id="path72" /><path
     fill="none"
     stroke="rgb(179,179,179)"
     stroke-linejoin="round"
     d="M 2418,6433 L 2568,6433"
     id="path74" /><path
     fill="none"
     stroke="rgb(179,179,179)"
     stroke-linejoin="round"
     d="M 2418,6433 L 2568,6433"
     id="path76" /><path
     fill="none"
     stroke="rgb(179,179,179)"
     stroke-linejoin="round"
     d="M 2418,5676 L 2568,5676"
     id="path78" /><path
     fill="none"
     stroke="rgb(179,179,179)"
     stroke-linejoin="round"
     d="M 2418,5676 L 2568,5676"
     id="path80" /><path
     fill="none"
     stroke="rgb(179,179,179)"
     stroke-linejoin="round"
     d="M 2418,4919 L 2568,4919"
     id="path82" /><path
     fill="none"
     stroke="rgb(179,179,179)"
     stroke-linejoin="round"
     d="M 2418,4919 L 2568,4919"
     id="path84" /><path
     fill="none"
     stroke="rgb(179,179,179)"
     stroke-linejoin="round"
     d="M 2418,4163 L 2568,4163"
     id="path86" /><path
     fill="none"
     stroke="rgb(179,179,179)"
     stroke-linejoin="round"
     d="M 2418,4163 L 2568,4163"
     id="path88" /><path
     fill="none"
     stroke="rgb(179,179,179)"
     stroke-linejoin="round"
     d="M 2418,3406 L 2568,3406"
     id="path90" /><path
     fill="none"
     stroke="rgb(179,179,179)"
     stroke-linejoin="round"
     d="M 2418,3406 L 2568,3406"
     id="path92" /><path
     fill="none"
     stroke="rgb(179,179,179)"
     stroke-linejoin="round"
     d="M 2418,2648 L 2568,2648"
     id="path94" /><path
     fill="none"
     stroke="rgb(179,179,179)"
     stroke-linejoin="round"
     d="M 2418,2648 L 2568,2648"
     id="path96" /><path
     fill="none"
     stroke="rgb(179,179,179)"
     stroke-linejoin="round"
     d="M 2418,1892 L 2568,1892"
     id="path98" /><path
     fill="none"
     stroke="rgb(179,179,179)"
     stroke-linejoin="round"
     d="M 2418,1892 L 2568,1892"
     id="path100" /><path
     fill="none"
     stroke="rgb(179,179,179)"
     stroke-linejoin="round"
     d="M 2418,1135 L 2568,1135"
     id="path102" /><path
     fill="none"
     stroke="rgb(179,179,179)"
     stroke-linejoin="round"
     d="M 2418,1135 L 2568,1135"
     id="path104" /><path
     fill="none"
     stroke="rgb(179,179,179)"
     stroke-linejoin="round"
     d="M 2418,378 L 2568,378"
     id="path106" /><path
     fill="none"
     stroke="rgb(179,179,179)"
     stroke-linejoin="round"
     d="M 2418,378 L 2568,378"
     id="path108" /><path
     fill="none"
     stroke="rgb(179,179,179)"
     stroke-linejoin="round"
     d="M 2568,7190 L 2568,378"
     id="path110" /><path
     fill="none"
     stroke="rgb(87,157,28)"
     stroke-width="80"
     stroke-linejoin="round"
     d="M 2904,2134 L 3240,2460 3576,5900 3800,6551 5480,6801 7496,6839 12087,6907"
     id="path112" /><path
     fill="rgb(87,157,28)"
     stroke="none"
     d="M 2779,2259 L 3029,2259 2904,2009 2779,2259 Z"
     id="path114" /><path
     fill="none"
     stroke="rgb(87,157,28)"
     stroke-linejoin="round"
     d="M 2779,2259 L 3029,2259 2904,2009 2779,2259 Z"
     id="path116" /><path
     fill="rgb(87,157,28)"
     stroke="none"
     d="M 3115,2585 L 3365,2585 3240,2335 3115,2585 Z"
     id="path118" /><path
     fill="none"
     stroke="rgb(87,157,28)"
     stroke-linejoin="round"
     d="M 3115,2585 L 3365,2585 3240,2335 3115,2585 Z"
     id="path120" /><path
     fill="rgb(87,157,28)"
     stroke="none"
     d="M 3451,6025 L 3701,6025 3576,5775 3451,6025 Z"
     id="path122" /><path
     fill="none"
     stroke="rgb(87,157,28)"
     stroke-linejoin="round"
     d="M 3451,6025 L 3701,6025 3576,5775 3451,6025 Z"
     id="path124" /><path
     fill="rgb(87,157,28)"
     stroke="none"
     d="M 3675,6676 L 3925,6676 3800,6426 3675,6676 Z"
     id="path126" /><path
     fill="none"
     stroke="rgb(87,157,28)"
     stroke-linejoin="round"
     d="M 3675,6676 L 3925,6676 3800,6426 3675,6676 Z"
     id="path128" /><path
     fill="rgb(87,157,28)"
     stroke="none"
     d="M 5355,6926 L 5605,6926 5480,6676 5355,6926 Z"
     id="path130" /><path
     fill="none"
     stroke="rgb(87,157,28)"
     stroke-linejoin="round"
     d="M 5355,6926 L 5605,6926 5480,6676 5355,6926 Z"
     id="path132" /><path
     fill="rgb(87,157,28)"
     stroke="none"
     d="M 7371,6964 L 7621,6964 7496,6714 7371,6964 Z"
     id="path134" /><path
     fill="none"
     stroke="rgb(87,157,28)"
     stroke-linejoin="round"
     d="M 7371,6964 L 7621,6964 7496,6714 7371,6964 Z"
     id="path136" /><path
     fill="rgb(87,157,28)"
     stroke="none"
     d="M 11962,7032 L 12212,7032 12087,6782 11962,7032 Z"
     id="path138" /><path
     fill="none"
     stroke="rgb(87,157,28)"
     stroke-linejoin="round"
     d="M 11962,7032 L 12212,7032 12087,6782 11962,7032 Z"
     id="path140" /><path
     fill="none"
     stroke="rgb(255,211,32)"
     stroke-width="80"
     stroke-linejoin="round"
     d="M 2904,6031 L 3240,1378 3576,4598 3800,6100 5480,6725 7496,6741 12087,6803"
     id="path142" /><path
     fill="rgb(255,211,32)"
     stroke="none"
     d="M 2779,5906 L 2904,6156 3029,5906 2779,5906 Z"
     id="path144" /><path
     fill="none"
     stroke="rgb(255,211,32)"
     stroke-linejoin="round"
     d="M 2779,5906 L 2904,6156 3029,5906 2779,5906 Z"
     id="path146" /><path
     fill="rgb(255,211,32)"
     stroke="none"
     d="M 3115,1253 L 3240,1503 3365,1253 3115,1253 Z"
     id="path148" /><path
     fill="none"
     stroke="rgb(255,211,32)"
     stroke-linejoin="round"
     d="M 3115,1253 L 3240,1503 3365,1253 3115,1253 Z"
     id="path150" /><path
     fill="rgb(255,211,32)"
     stroke="none"
     d="M 3451,4474 L 3576,4723 3701,4474 3451,4474 Z"
     id="path152" /><path
     fill="none"
     stroke="rgb(255,211,32)"
     stroke-linejoin="round"
     d="M 3451,4474 L 3576,4723 3701,4474 3451,4474 Z"
     id="path154" /><path
     fill="rgb(255,211,32)"
     stroke="none"
     d="M 3675,5975 L 3800,6225 3925,5975 3675,5975 Z"
     id="path156" /><path
     fill="none"
     stroke="rgb(255,211,32)"
     stroke-linejoin="round"
     d="M 3675,5975 L 3800,6225 3925,5975 3675,5975 Z"
     id="path158" /><path
     fill="rgb(255,211,32)"
     stroke="none"
     d="M 5355,6600 L 5480,6850 5605,6600 5355,6600 Z"
     id="path160" /><path
     fill="none"
     stroke="rgb(255,211,32)"
     stroke-linejoin="round"
     d="M 5355,6600 L 5480,6850 5605,6600 5355,6600 Z"
     id="path162" /><path
     fill="rgb(255,211,32)"
     stroke="none"
     d="M 7371,6616 L 7496,6866 7621,6616 7371,6616 Z"
     id="path164" /><path
     fill="none"
     stroke="rgb(255,211,32)"
     stroke-linejoin="round"
     d="M 7371,6616 L 7496,6866 7621,6616 7371,6616 Z"
     id="path166" /><path
     fill="rgb(255,211,32)"
     stroke="none"
     d="M 11962,6678 L 12087,6928 12212,6678 11962,6678 Z"
     id="path168" /><path
     fill="none"
     stroke="rgb(255,211,32)"
     stroke-linejoin="round"
     d="M 11962,6678 L 12087,6928 12212,6678 11962,6678 Z"
     id="path170" /><path
     fill="none"
     stroke="rgb(255,66,14)"
     stroke-width="80"
     stroke-linejoin="round"
     d="M 2904,6038 L 3240,1273 3576,4613 3800,6084 5480,6726 7496,6741 12087,6790"
     id="path172" /><path
     fill="rgb(255,66,14)"
     stroke="none"
     d="M 2779,6038 L 2904,6163 3029,6038 2904,5913 2779,6038 Z"
     id="path174" /><path
     fill="none"
     stroke="rgb(255,66,14)"
     stroke-linejoin="round"
     d="M 2779,6038 L 2904,6163 3029,6038 2904,5913 2779,6038 Z"
     id="path176" /><path
     fill="rgb(255,66,14)"
     stroke="none"
     d="M 3115,1273 L 3240,1398 3365,1273 3240,1148 3115,1273 Z"
     id="path178" /><path
     fill="none"
     stroke="rgb(255,66,14)"
     stroke-linejoin="round"
     d="M 3115,1273 L 3240,1398 3365,1273 3240,1148 3115,1273 Z"
     id="path180" /><path
     fill="rgb(255,66,14)"
     stroke="none"
     d="M 3451,4613 L 3576,4738 3701,4613 3576,4489 3451,4613 Z"
     id="path182" /><path
     fill="none"
     stroke="rgb(255,66,14)"
     stroke-linejoin="round"
     d="M 3451,4613 L 3576,4738 3701,4613 3576,4489 3451,4613 Z"
     id="path184" /><path
     fill="rgb(255,66,14)"
     stroke="none"
     d="M 3675,6084 L 3800,6209 3925,6084 3800,5959 3675,6084 Z"
     id="path186" /><path
     fill="none"
     stroke="rgb(255,66,14)"
     stroke-linejoin="round"
     d="M 3675,6084 L 3800,6209 3925,6084 3800,5959 3675,6084 Z"
     id="path188" /><path
     fill="rgb(255,66,14)"
     stroke="none"
     d="M 5355,6726 L 5480,6851 5605,6726 5480,6601 5355,6726 Z"
     id="path190" /><path
     fill="none"
     stroke="rgb(255,66,14)"
     stroke-linejoin="round"
     d="M 5355,6726 L 5480,6851 5605,6726 5480,6601 5355,6726 Z"
     id="path192" /><path
     fill="rgb(255,66,14)"
     stroke="none"
     d="M 7371,6741 L 7496,6866 7621,6741 7496,6616 7371,6741 Z"
     id="path194" /><path
     fill="none"
     stroke="rgb(255,66,14)"
     stroke-linejoin="round"
     d="M 7371,6741 L 7496,6866 7621,6741 7496,6616 7371,6741 Z"
     id="path196" /><path
     fill="rgb(255,66,14)"
     stroke="none"
     d="M 11962,6790 L 12087,6915 12212,6790 12087,6665 11962,6790 Z"
     id="path198" /><path
     fill="none"
     stroke="rgb(255,66,14)"
     stroke-linejoin="round"
     d="M 11962,6790 L 12087,6915 12212,6790 12087,6665 11962,6790 Z"
     id="path200" /><path
     fill="none"
     stroke="rgb(0,69,134)"
     stroke-width="80"
     stroke-linejoin="round"
     d="M 2904,6056 L 3240,1380 3576,4610 3800,6175 5480,6737 7496,6758 12087,6807"
     id="path202" /><path
     fill="rgb(0,69,134)"
     stroke="none"
     d="M 2779,5931 L 2779,6181 3029,6181 3029,5931 2779,5931 Z"
     id="path204" /><path
     fill="none"
     stroke="rgb(0,69,134)"
     stroke-linejoin="round"
     d="M 2779,5931 L 2779,6181 3029,6181 3029,5931 2779,5931 Z"
     id="path206" /><path
     fill="rgb(0,69,134)"
     stroke="none"
     d="M 3115,1255 L 3115,1505 3365,1505 3365,1255 3115,1255 Z"
     id="path208" /><path
     fill="none"
     stroke="rgb(0,69,134)"
     stroke-linejoin="round"
     d="M 3115,1255 L 3115,1505 3365,1505 3365,1255 3115,1255 Z"
     id="path210" /><path
     fill="rgb(0,69,134)"
     stroke="none"
     d="M 3451,4486 L 3451,4735 3701,4735 3701,4486 3451,4486 Z"
     id="path212" /><path
     fill="none"
     stroke="rgb(0,69,134)"
     stroke-linejoin="round"
     d="M 3451,4486 L 3451,4735 3701,4735 3701,4486 3451,4486 Z"
     id="path214" /><path
     fill="rgb(0,69,134)"
     stroke="none"
     d="M 3675,6050 L 3675,6300 3925,6300 3925,6050 3675,6050 Z"
     id="path216" /><path
     fill="none"
     stroke="rgb(0,69,134)"
     stroke-linejoin="round"
     d="M 3675,6050 L 3675,6300 3925,6300 3925,6050 3675,6050 Z"
     id="path218" /><path
     fill="rgb(0,69,134)"
     stroke="none"
     d="M 5355,6612 L 5355,6862 5605,6862 5605,6612 5355,6612 Z"
     id="path220" /><path
     fill="none"
     stroke="rgb(0,69,134)"
     stroke-linejoin="round"
     d="M 5355,6612 L 5355,6862 5605,6862 5605,6612 5355,6612 Z"
     id="path222" /><path
     fill="rgb(0,69,134)"
     stroke="none"
     d="M 7371,6633 L 7371,6883 7621,6883 7621,6633 7371,6633 Z"
     id="path224" /><path
     fill="none"
     stroke="rgb(0,69,134)"
     stroke-linejoin="round"
     d="M 7371,6633 L 7371,6883 7621,6883 7621,6633 7371,6633 Z"
     id="path226" /><path
     fill="rgb(0,69,134)"
     stroke="none"
     d="M 11962,6682 L 11962,6932 12212,6932 12212,6682 11962,6682 Z"
     id="path228" /><path
     fill="none"
     stroke="rgb(0,69,134)"
     stroke-linejoin="round"
     d="M 11962,6682 L 11962,6932 12212,6932 12212,6682 11962,6682 Z"
     id="path230" /><text
     class="TextShape"
     id="text232"><tspan
       class="TextParagraph"
       font-family="Liberation Sans, sans-serif"
       font-size="353px"
       font-weight="400"
       id="tspan234"><tspan
         class="TextPosition"
         x="2475"
         y="7758"
         id="tspan236"><tspan
           fill="rgb(0,0,0)"
           stroke="none"
           id="tspan238">0</tspan></tspan></tspan></text>
<text
     class="TextShape"
     id="text240"><tspan
       class="TextParagraph"
       font-family="Liberation Sans, sans-serif"
       font-size="353px"
       font-weight="400"
       id="tspan242"><tspan
         class="TextPosition"
         x="3503"
         y="7758"
         id="tspan244"><tspan
           fill="rgb(0,0,0)"
           stroke="none"
           id="tspan246">10</tspan></tspan></tspan></text>
<text
     class="TextShape"
     id="text248"><tspan
       class="TextParagraph"
       font-family="Liberation Sans, sans-serif"
       font-size="353px"
       font-weight="400"
       id="tspan250"><tspan
         class="TextPosition"
         x="4623"
         y="7758"
         id="tspan252"><tspan
           fill="rgb(0,0,0)"
           stroke="none"
           id="tspan254">20</tspan></tspan></tspan></text>
<text
     class="TextShape"
     id="text256"><tspan
       class="TextParagraph"
       font-family="Liberation Sans, sans-serif"
       font-size="353px"
       font-weight="400"
       id="tspan258"><tspan
         class="TextPosition"
         x="5743"
         y="7758"
         id="tspan260"><tspan
           fill="rgb(0,0,0)"
           stroke="none"
           id="tspan262">30</tspan></tspan></tspan></text>
<text
     class="TextShape"
     id="text264"><tspan
       class="TextParagraph"
       font-family="Liberation Sans, sans-serif"
       font-size="353px"
       font-weight="400"
       id="tspan266"><tspan
         class="TextPosition"
         x="6863"
         y="7758"
         id="tspan268"><tspan
           fill="rgb(0,0,0)"
           stroke="none"
           id="tspan270">40</tspan></tspan></tspan></text>
<text
     class="TextShape"
     id="text272"><tspan
       class="TextParagraph"
       font-family="Liberation Sans, sans-serif"
       font-size="353px"
       font-weight="400"
       id="tspan274"><tspan
         class="TextPosition"
         x="7983"
         y="7758"
         id="tspan276"><tspan
           fill="rgb(0,0,0)"
           stroke="none"
           id="tspan278">50</tspan></tspan></tspan></text>
<text
     class="TextShape"
     id="text280"><tspan
       class="TextParagraph"
       font-family="Liberation Sans, sans-serif"
       font-size="353px"
       font-weight="400"
       id="tspan282"><tspan
         class="TextPosition"
         x="9103"
         y="7758"
         id="tspan284"><tspan
           fill="rgb(0,0,0)"
           stroke="none"
           id="tspan286">60</tspan></tspan></tspan></text>
<text
     class="TextShape"
     id="text288"><tspan
       class="TextParagraph"
       font-family="Liberation Sans, sans-serif"
       font-size="353px"
       font-weight="400"
       id="tspan290"><tspan
         class="TextPosition"
         x="10223"
         y="7758"
         id="tspan292"><tspan
           fill="rgb(0,0,0)"
           stroke="none"
           id="tspan294">70</tspan></tspan></tspan></text>
<text
     class="TextShape"
     id="text296"><tspan
       class="TextParagraph"
       font-family="Liberation Sans, sans-serif"
       font-size="353px"
       font-weight="400"
       id="tspan298"><tspan
         class="TextPosition"
         x="11343"
         y="7758"
         id="tspan300"><tspan
           fill="rgb(0,0,0)"
           stroke="none"
           id="tspan302">80</tspan></tspan></tspan></text>
<text
     class="TextShape"
     id="text304"><tspan
       class="TextParagraph"
       font-family="Liberation Sans, sans-serif"
       font-size="353px"
       font-weight="400"
       id="tspan306"><tspan
         class="TextPosition"
         x="12463"
         y="7758"
         id="tspan308"><tspan
           fill="rgb(0,0,0)"
           stroke="none"
           id="tspan310">90</tspan></tspan></tspan></text>
<text
     class="TextShape"
     id="text312"><tspan
       class="TextParagraph"
       font-family="Liberation Sans, sans-serif"
       font-size="353px"
       font-weight="400"
       id="tspan314"><tspan
         class="TextPosition"
         x="2133"
         y="7311"
         id="tspan316"><tspan
           fill="rgb(0,0,0)"
           stroke="none"
           id="tspan318">0</tspan></tspan></tspan></text>
<text
     class="TextShape"
     id="text320"><tspan
       class="TextParagraph"
       font-family="Liberation Sans, sans-serif"
       font-size="353px"
       font-weight="400"
       id="tspan322"><tspan
         class="TextPosition"
         x="1392"
         y="6554"
         id="tspan324"><tspan
           fill="rgb(0,0,0)"
           stroke="none"
           id="tspan326">10000</tspan></tspan></tspan></text>
<text
     class="TextShape"
     id="text328"><tspan
       class="TextParagraph"
       font-family="Liberation Sans, sans-serif"
       font-size="353px"
       font-weight="400"
       id="tspan330"><tspan
         class="TextPosition"
         x="1392"
         y="5797"
         id="tspan332"><tspan
           fill="rgb(0,0,0)"
           stroke="none"
           id="tspan334">20000</tspan></tspan></tspan></text>
<text
     class="TextShape"
     id="text336"><tspan
       class="TextParagraph"
       font-family="Liberation Sans, sans-serif"
       font-size="353px"
       font-weight="400"
       id="tspan338"><tspan
         class="TextPosition"
         x="1392"
         y="5040"
         id="tspan340"><tspan
           fill="rgb(0,0,0)"
           stroke="none"
           id="tspan342">30000</tspan></tspan></tspan></text>
<text
     class="TextShape"
     id="text344"><tspan
       class="TextParagraph"
       font-family="Liberation Sans, sans-serif"
       font-size="353px"
       font-weight="400"
       id="tspan346"><tspan
         class="TextPosition"
         x="1392"
         y="4283"
         id="tspan348"><tspan
           fill="rgb(0,0,0)"
           stroke="none"
           id="tspan350">40000</tspan></tspan></tspan></text>
<text
     class="TextShape"
     id="text352"><tspan
       class="TextParagraph"
       font-family="Liberation Sans, sans-serif"
       font-size="353px"
       font-weight="400"
       id="tspan354"><tspan
         class="TextPosition"
         x="1392"
         y="3526"
         id="tspan356"><tspan
           fill="rgb(0,0,0)"
           stroke="none"
           id="tspan358">50000</tspan></tspan></tspan></text>
<text
     class="TextShape"
     id="text360"><tspan
       class="TextParagraph"
       font-family="Liberation Sans, sans-serif"
       font-size="353px"
       font-weight="400"
       id="tspan362"><tspan
         class="TextPosition"
         x="1392"
         y="2768"
         id="tspan364"><tspan
           fill="rgb(0,0,0)"
           stroke="none"
           id="tspan366">60000</tspan></tspan></tspan></text>
<text
     class="TextShape"
     id="text368"><tspan
       class="TextParagraph"
       font-family="Liberation Sans, sans-serif"
       font-size="353px"
       font-weight="400"
       id="tspan370"><tspan
         class="TextPosition"
         x="1392"
         y="2012"
         id="tspan372"><tspan
           fill="rgb(0,0,0)"
           stroke="none"
           id="tspan374">70000</tspan></tspan></tspan></text>
<text
     class="TextShape"
     id="text376"><tspan
       class="TextParagraph"
       font-family="Liberation Sans, sans-serif"
       font-size="353px"
       font-weight="400"
       id="tspan378"><tspan
         class="TextPosition"
         x="1392"
         y="1255"
         id="tspan380"><tspan
           fill="rgb(0,0,0)"
           stroke="none"
           id="tspan382">80000</tspan></tspan></tspan></text>
<text
     class="TextShape"
     id="text384"><tspan
       class="TextParagraph"
       font-family="Liberation Sans, sans-serif"
       font-size="353px"
       font-weight="400"
       id="tspan386"><tspan
         class="TextPosition"
         x="1392"
         y="498"
         id="tspan388"><tspan
           fill="rgb(0,0,0)"
           stroke="none"
           id="tspan390">90000</tspan></tspan></tspan></text>
<path
     fill="none"
     stroke="rgb(0,69,134)"
     stroke-width="80"
     stroke-linejoin="round"
     d="M 13270,3752 L 14070,3752"
     id="path392" /><path
     fill="rgb(0,69,134)"
     stroke="none"
     d="M 13564,3647 L 13564,3858 13775,3858 13775,3647 13564,3647 Z"
     id="path394" /><path
     fill="none"
     stroke="rgb(0,69,134)"
     stroke-linejoin="round"
     d="M 13564,3647 L 13564,3858 13775,3858 13775,3647 13564,3647 Z"
     id="path396" /><path
     fill="none"
     stroke="rgb(255,66,14)"
     stroke-width="80"
     stroke-linejoin="round"
     d="M 13270,4250 L 14070,4250"
     id="path398" /><path
     fill="rgb(255,66,14)"
     stroke="none"
     d="M 13564,4250 L 13670,4356 13775,4250 13670,4145 13564,4250 Z"
     id="path400" /><path
     fill="none"
     stroke="rgb(255,66,14)"
     stroke-linejoin="round"
     d="M 13564,4250 L 13670,4356 13775,4250 13670,4145 13564,4250 Z"
     id="path402" /><path
     fill="none"
     stroke="rgb(255,211,32)"
     stroke-width="80"
     stroke-linejoin="round"
     d="M 13270,4747 L 14070,4747"
     id="path404" /><path
     fill="rgb(255,211,32)"
     stroke="none"
     d="M 13564,4642 L 13670,4853 13775,4642 13564,4642 Z"
     id="path406" /><path
     fill="none"
     stroke="rgb(255,211,32)"
     stroke-linejoin="round"
     d="M 13564,4642 L 13670,4853 13775,4642 13564,4642 Z"
     id="path408" /><path
     fill="none"
     stroke="rgb(87,157,28)"
     stroke-width="80"
     stroke-linejoin="round"
     d="M 13270,5245 L 14070,5245"
     id="path410" /><path
     fill="rgb(87,157,28)"
     stroke="none"
     d="M 13564,5351 L 13775,5351 13670,5140 13564,5351 Z"
     id="path412" /><path
     fill="none"
     stroke="rgb(87,157,28)"
     stroke-linejoin="round"
     d="M 13564,5351 L 13775,5351 13670,5140 13564,5351 Z"
     id="path414" /><text
     class="TextShape"
     id="text416"><tspan
       class="TextParagraph"
       font-family="Liberation Sans, sans-serif"
       font-size="353px"
       font-weight="400"
       id="tspan418"><tspan
         class="TextPosition"
         x="14170"
         y="3872"
         id="tspan420"><tspan
           fill="rgb(0,0,0)"
           stroke="none"
           id="tspan422">between</tspan></tspan></tspan></text>
<text
     class="TextShape"
     id="text424"><tspan
       class="TextParagraph"
       font-family="Liberation Sans, sans-serif"
       font-size="353px"
       font-weight="400"
       id="tspan426"><tspan
         class="TextPosition"
         x="14170"
         y="4370"
         id="tspan428"><tspan
           fill="rgb(0,0,0)"
           stroke="none"
           id="tspan430">closeness</tspan></tspan></tspan></text>
<text
     class="TextShape"
     id="text432"><tspan
       class="TextParagraph"
       font-family="Liberation Sans, sans-serif"
       font-size="353px"
       font-weight="400"
       id="tspan434"><tspan
         class="TextPosition"
         x="14170"
         y="4867"
         id="tspan436"><tspan
           fill="rgb(0,0,0)"
           stroke="none"
           id="tspan438">page</tspan></tspan></tspan></text>
<text
     class="TextShape"
     id="text440"><tspan
       class="TextParagraph"
       font-family="Liberation Sans, sans-serif"
       font-size="353px"
       font-weight="400"
       id="tspan442"><tspan
         class="TextPosition"
         x="14170"
         y="5365"
         id="tspan444"><tspan
           fill="rgb(0,0,0)"
           stroke="none"
           id="tspan446">random</tspan></tspan></tspan></text>
<text
     class="TextShape"
     id="text448"><tspan
       class="TextParagraph"
       font-family="Liberation Sans, sans-serif"
       font-size="318px"
       font-weight="400"
       id="tspan450"><tspan
         class="TextPosition"
         x="5287"
         y="8405"
         id="tspan452"><tspan
           fill="rgb(0,0,0)"
           stroke="none"
           id="tspan454">% of humans have robots</tspan></tspan></tspan></text>
<text
     class="TextShape"
     transform="translate(897,6191) rotate(-90) translate(-897,-6191)"
     id="text456"><tspan
       class="TextParagraph"
       font-family="Liberation Sans, sans-serif"
       font-size="318px"
       font-weight="400"
       id="tspan458"><tspan
         class="TextPosition"
         x="897"
         y="6191"
         id="tspan460"><tspan
           fill="rgb(0,0,0)"
           stroke="none"
           id="tspan462">% of humans using robot word</tspan></tspan></tspan></text>
<rect
     style="fill:#000000;fill-opacity:1;stroke:#000000;stroke-width:0;stroke-miterlimit:4;stroke-dasharray:none;stroke-opacity:0.94339624"
     id="rect4596"
     width="53.691273"
     height="7436.2407"
     x="3093.8779"
     y="150.43094"
     ry="26.845636" /><path
     style="fill:none;fill-rule:evenodd;stroke:#000000;stroke-width:28.22222137px;stroke-linecap:butt;stroke-linejoin:miter;stroke-opacity:1;marker-end:url(#marker4903)"
     d="m 6094.823,1741.6106 57.047,3.3557"
     id="path4895"
     inkscape:connector-curvature="0" /><rect
     style="fill:#000000;fill-opacity:1;stroke:#000000;stroke-width:0;stroke-miterlimit:4;stroke-dasharray:none;stroke-opacity:0.94339624"
     id="rect4596-6"
     width="53.691269"
     height="2738.2534"
     x="1701.3422"
     y="-5852.3486"
     ry="9.8853922"
     transform="matrix(0,1,-1,0,0,0)" /><text
     style="font-size:11.99999905px"
     y="-6834.9634"
     x="-1439.5717"
     class="TextShape"
     id="text448-7"><tspan
       style="font-weight:400;font-size:317.99996948px;font-family:'Liberation Sans', sans-serif"
       class="TextParagraph"
       font-size="318px"
       font-weight="400"
       id="tspan450-5"><tspan
         class="TextPosition"
         x="3847.4282"
         y="1570.0356"
         id="tspan452-3"><tspan
           style="fill:#000000;stroke:none"
           id="tspan454-5">Robot wins</tspan></tspan></tspan></text>
</svg>