<?xml version="1.0" encoding="UTF-8"?>
<!DOCTYPE svg PUBLIC "-//W3C//DTD SVG 1.1//EN" "http://www.w3.org/Graphics/SVG/1.1/DTD/svg11.dtd">
<svg width="160mm" height="90mm" viewBox="0 0 16000 9000" version="1.1" xmlns="http://www.w3.org/2000/svg" stroke-width="28.222" stroke-linejoin="round" xml:space="preserve">
 <path fill="rgb(255,255,255)" stroke="none" d="M 8000,8999 L 0,8999 0,0 15999,0 15999,8999 8000,8999 Z"/>
 <path fill="none" stroke="rgb(179,179,179)" stroke-linejoin="round" d="M 6764,8172 L 941,8172 941,379 12587,379 12587,8172 6764,8172 Z"/>
 <path fill="none" stroke="rgb(179,179,179)" stroke-linejoin="round" d="M 12587,8171 L 941,8171"/>
 <path fill="none" stroke="rgb(179,179,179)" stroke-linejoin="round" d="M 12587,7391 L 941,7391"/>
 <path fill="none" stroke="rgb(179,179,179)" stroke-linejoin="round" d="M 12587,6612 L 941,6612"/>
 <path fill="none" stroke="rgb(179,179,179)" stroke-linejoin="round" d="M 12587,5832 L 941,5832"/>
 <path fill="none" stroke="rgb(179,179,179)" stroke-linejoin="round" d="M 12587,5053 L 941,5053"/>
 <path fill="none" stroke="rgb(179,179,179)" stroke-linejoin="round" d="M 12587,4275 L 941,4275"/>
 <path fill="none" stroke="rgb(179,179,179)" stroke-linejoin="round" d="M 12587,3495 L 941,3495"/>
 <path fill="none" stroke="rgb(179,179,179)" stroke-linejoin="round" d="M 12587,2716 L 941,2716"/>
 <path fill="none" stroke="rgb(179,179,179)" stroke-linejoin="round" d="M 12587,1936 L 941,1936"/>
 <path fill="none" stroke="rgb(179,179,179)" stroke-linejoin="round" d="M 12587,1157 L 941,1157"/>
 <path fill="none" stroke="rgb(179,179,179)" stroke-linejoin="round" d="M 12587,378 L 941,378"/>
 <path fill="none" stroke="rgb(179,179,179)" stroke-linejoin="round" d="M 941,8321 L 941,8171"/>
 <path fill="none" stroke="rgb(179,179,179)" stroke-linejoin="round" d="M 941,8321 L 941,8171"/>
 <path fill="none" stroke="rgb(179,179,179)" stroke-linejoin="round" d="M 2105,8321 L 2105,8171"/>
 <path fill="none" stroke="rgb(179,179,179)" stroke-linejoin="round" d="M 2105,8321 L 2105,8171"/>
 <path fill="none" stroke="rgb(179,179,179)" stroke-linejoin="round" d="M 3270,8321 L 3270,8171"/>
 <path fill="none" stroke="rgb(179,179,179)" stroke-linejoin="round" d="M 3270,8321 L 3270,8171"/>
 <path fill="none" stroke="rgb(179,179,179)" stroke-linejoin="round" d="M 4435,8321 L 4435,8171"/>
 <path fill="none" stroke="rgb(179,179,179)" stroke-linejoin="round" d="M 4435,8321 L 4435,8171"/>
 <path fill="none" stroke="rgb(179,179,179)" stroke-linejoin="round" d="M 5599,8321 L 5599,8171"/>
 <path fill="none" stroke="rgb(179,179,179)" stroke-linejoin="round" d="M 5599,8321 L 5599,8171"/>
 <path fill="none" stroke="rgb(179,179,179)" stroke-linejoin="round" d="M 6764,8321 L 6764,8171"/>
 <path fill="none" stroke="rgb(179,179,179)" stroke-linejoin="round" d="M 6764,8321 L 6764,8171"/>
 <path fill="none" stroke="rgb(179,179,179)" stroke-linejoin="round" d="M 7929,8321 L 7929,8171"/>
 <path fill="none" stroke="rgb(179,179,179)" stroke-linejoin="round" d="M 7929,8321 L 7929,8171"/>
 <path fill="none" stroke="rgb(179,179,179)" stroke-linejoin="round" d="M 9092,8321 L 9092,8171"/>
 <path fill="none" stroke="rgb(179,179,179)" stroke-linejoin="round" d="M 9092,8321 L 9092,8171"/>
 <path fill="none" stroke="rgb(179,179,179)" stroke-linejoin="round" d="M 10257,8321 L 10257,8171"/>
 <path fill="none" stroke="rgb(179,179,179)" stroke-linejoin="round" d="M 10257,8321 L 10257,8171"/>
 <path fill="none" stroke="rgb(179,179,179)" stroke-linejoin="round" d="M 11422,8321 L 11422,8171"/>
 <path fill="none" stroke="rgb(179,179,179)" stroke-linejoin="round" d="M 11422,8321 L 11422,8171"/>
 <path fill="none" stroke="rgb(179,179,179)" stroke-linejoin="round" d="M 12587,8321 L 12587,8171"/>
 <path fill="none" stroke="rgb(179,179,179)" stroke-linejoin="round" d="M 12587,8321 L 12587,8171"/>
 <path fill="none" stroke="rgb(179,179,179)" stroke-linejoin="round" d="M 941,8171 L 12587,8171"/>
 <path fill="none" stroke="rgb(179,179,179)" stroke-linejoin="round" d="M 791,8171 L 941,8171"/>
 <path fill="none" stroke="rgb(179,179,179)" stroke-linejoin="round" d="M 791,8171 L 941,8171"/>
 <path fill="none" stroke="rgb(179,179,179)" stroke-linejoin="round" d="M 791,7391 L 941,7391"/>
 <path fill="none" stroke="rgb(179,179,179)" stroke-linejoin="round" d="M 791,7391 L 941,7391"/>
 <path fill="none" stroke="rgb(179,179,179)" stroke-linejoin="round" d="M 791,6612 L 941,6612"/>
 <path fill="none" stroke="rgb(179,179,179)" stroke-linejoin="round" d="M 791,6612 L 941,6612"/>
 <path fill="none" stroke="rgb(179,179,179)" stroke-linejoin="round" d="M 791,5832 L 941,5832"/>
 <path fill="none" stroke="rgb(179,179,179)" stroke-linejoin="round" d="M 791,5832 L 941,5832"/>
 <path fill="none" stroke="rgb(179,179,179)" stroke-linejoin="round" d="M 791,5053 L 941,5053"/>
 <path fill="none" stroke="rgb(179,179,179)" stroke-linejoin="round" d="M 791,5053 L 941,5053"/>
 <path fill="none" stroke="rgb(179,179,179)" stroke-linejoin="round" d="M 791,4275 L 941,4275"/>
 <path fill="none" stroke="rgb(179,179,179)" stroke-linejoin="round" d="M 791,4275 L 941,4275"/>
 <path fill="none" stroke="rgb(179,179,179)" stroke-linejoin="round" d="M 791,3495 L 941,3495"/>
 <path fill="none" stroke="rgb(179,179,179)" stroke-linejoin="round" d="M 791,3495 L 941,3495"/>
 <path fill="none" stroke="rgb(179,179,179)" stroke-linejoin="round" d="M 791,2716 L 941,2716"/>
 <path fill="none" stroke="rgb(179,179,179)" stroke-linejoin="round" d="M 791,2716 L 941,2716"/>
 <path fill="none" stroke="rgb(179,179,179)" stroke-linejoin="round" d="M 791,1936 L 941,1936"/>
 <path fill="none" stroke="rgb(179,179,179)" stroke-linejoin="round" d="M 791,1936 L 941,1936"/>
 <path fill="none" stroke="rgb(179,179,179)" stroke-linejoin="round" d="M 791,1157 L 941,1157"/>
 <path fill="none" stroke="rgb(179,179,179)" stroke-linejoin="round" d="M 791,1157 L 941,1157"/>
 <path fill="none" stroke="rgb(179,179,179)" stroke-linejoin="round" d="M 791,378 L 941,378"/>
 <path fill="none" stroke="rgb(179,179,179)" stroke-linejoin="round" d="M 791,378 L 941,378"/>
 <path fill="none" stroke="rgb(179,179,179)" stroke-linejoin="round" d="M 941,8171 L 941,378"/>
 <path fill="none" stroke="rgb(87,157,28)" stroke-width="80" stroke-linejoin="round" d="M 941,8171 L 4435,6340 7929,3815 11422,1038"/>
 <path fill="rgb(87,157,28)" stroke="none" d="M 816,8296 L 1066,8296 941,8046 816,8296 Z"/>
 <path fill="none" stroke="rgb(87,157,28)" stroke-linejoin="round" d="M 816,8296 L 1066,8296 941,8046 816,8296 Z"/>
 <path fill="rgb(87,157,28)" stroke="none" d="M 4310,6465 L 4560,6465 4435,6215 4310,6465 Z"/>
 <path fill="none" stroke="rgb(87,157,28)" stroke-linejoin="round" d="M 4310,6465 L 4560,6465 4435,6215 4310,6465 Z"/>
 <path fill="rgb(87,157,28)" stroke="none" d="M 7804,3940 L 8053,3940 7929,3690 7804,3940 Z"/>
 <path fill="none" stroke="rgb(87,157,28)" stroke-linejoin="round" d="M 7804,3940 L 8053,3940 7929,3690 7804,3940 Z"/>
 <path fill="rgb(87,157,28)" stroke="none" d="M 11297,1163 L 11547,1163 11422,913 11297,1163 Z"/>
 <path fill="none" stroke="rgb(87,157,28)" stroke-linejoin="round" d="M 11297,1163 L 11547,1163 11422,913 11297,1163 Z"/>
 <path fill="none" stroke="rgb(255,211,32)" stroke-width="80" stroke-linejoin="round" d="M 941,8171 L 4435,6866 7929,4900 11422,2615"/>
 <path fill="rgb(255,211,32)" stroke="none" d="M 816,8046 L 941,8296 1066,8046 816,8046 Z"/>
 <path fill="none" stroke="rgb(255,211,32)" stroke-linejoin="round" d="M 816,8046 L 941,8296 1066,8046 816,8046 Z"/>
 <path fill="rgb(255,211,32)" stroke="none" d="M 4310,6741 L 4435,6991 4560,6741 4310,6741 Z"/>
 <path fill="none" stroke="rgb(255,211,32)" stroke-linejoin="round" d="M 4310,6741 L 4435,6991 4560,6741 4310,6741 Z"/>
 <path fill="rgb(255,211,32)" stroke="none" d="M 7804,4775 L 7929,5025 8053,4775 7804,4775 Z"/>
 <path fill="none" stroke="rgb(255,211,32)" stroke-linejoin="round" d="M 7804,4775 L 7929,5025 8053,4775 7804,4775 Z"/>
 <path fill="rgb(255,211,32)" stroke="none" d="M 11297,2490 L 11422,2740 11547,2490 11297,2490 Z"/>
 <path fill="none" stroke="rgb(255,211,32)" stroke-linejoin="round" d="M 11297,2490 L 11422,2740 11547,2490 11297,2490 Z"/>
 <path fill="none" stroke="rgb(255,66,14)" stroke-width="80" stroke-linejoin="round" d="M 941,8171 L 4435,6849 7929,4890 11422,2600"/>
 <path fill="rgb(255,66,14)" stroke="none" d="M 816,8171 L 941,8296 1066,8171 941,8046 816,8171 Z"/>
 <path fill="none" stroke="rgb(255,66,14)" stroke-linejoin="round" d="M 816,8171 L 941,8296 1066,8171 941,8046 816,8171 Z"/>
 <path fill="rgb(255,66,14)" stroke="none" d="M 4310,6849 L 4435,6974 4560,6849 4435,6724 4310,6849 Z"/>
 <path fill="none" stroke="rgb(255,66,14)" stroke-linejoin="round" d="M 4310,6849 L 4435,6974 4560,6849 4435,6724 4310,6849 Z"/>
 <path fill="rgb(255,66,14)" stroke="none" d="M 7804,4890 L 7929,5015 8053,4890 7929,4765 7804,4890 Z"/>
 <path fill="none" stroke="rgb(255,66,14)" stroke-linejoin="round" d="M 7804,4890 L 7929,5015 8053,4890 7929,4765 7804,4890 Z"/>
 <path fill="rgb(255,66,14)" stroke="none" d="M 11297,2600 L 11422,2725 11547,2600 11422,2475 11297,2600 Z"/>
 <path fill="none" stroke="rgb(255,66,14)" stroke-linejoin="round" d="M 11297,2600 L 11422,2725 11547,2600 11422,2475 11297,2600 Z"/>
 <path fill="none" stroke="rgb(0,69,134)" stroke-width="80" stroke-linejoin="round" d="M 941,8171 L 4435,6850 7929,4900 11422,2618"/>
 <path fill="rgb(0,69,134)" stroke="none" d="M 816,8046 L 816,8296 1066,8296 1066,8046 816,8046 Z"/>
 <path fill="none" stroke="rgb(0,69,134)" stroke-linejoin="round" d="M 816,8046 L 816,8296 1066,8296 1066,8046 816,8046 Z"/>
 <path fill="rgb(0,69,134)" stroke="none" d="M 4310,6725 L 4310,6975 4560,6975 4560,6725 4310,6725 Z"/>
 <path fill="none" stroke="rgb(0,69,134)" stroke-linejoin="round" d="M 4310,6725 L 4310,6975 4560,6975 4560,6725 4310,6725 Z"/>
 <path fill="rgb(0,69,134)" stroke="none" d="M 7804,4775 L 7804,5025 8053,5025 8053,4775 7804,4775 Z"/>
 <path fill="none" stroke="rgb(0,69,134)" stroke-linejoin="round" d="M 7804,4775 L 7804,5025 8053,5025 8053,4775 7804,4775 Z"/>
 <path fill="rgb(0,69,134)" stroke="none" d="M 11297,2493 L 11297,2743 11547,2743 11547,2493 11297,2493 Z"/>
 <path fill="none" stroke="rgb(0,69,134)" stroke-linejoin="round" d="M 11297,2493 L 11297,2743 11547,2743 11547,2493 11297,2493 Z"/>
 <text class="TextShape"><tspan class="TextParagraph" font-family="Liberation Sans" font-size="353px" font-weight="400"><tspan class="TextPosition" x="848" y="8739"><tspan fill="rgb(0,0,0)" stroke="none">0</tspan></tspan></tspan></text>
 <text class="TextShape"><tspan class="TextParagraph" font-family="Liberation Sans" font-size="353px" font-weight="400"><tspan class="TextPosition" x="2012" y="8739"><tspan fill="rgb(0,0,0)" stroke="none">1</tspan></tspan></tspan></text>
 <text class="TextShape"><tspan class="TextParagraph" font-family="Liberation Sans" font-size="353px" font-weight="400"><tspan class="TextPosition" x="3177" y="8739"><tspan fill="rgb(0,0,0)" stroke="none">2</tspan></tspan></tspan></text>
 <text class="TextShape"><tspan class="TextParagraph" font-family="Liberation Sans" font-size="353px" font-weight="400"><tspan class="TextPosition" x="4342" y="8739"><tspan fill="rgb(0,0,0)" stroke="none">3</tspan></tspan></tspan></text>
 <text class="TextShape"><tspan class="TextParagraph" font-family="Liberation Sans" font-size="353px" font-weight="400"><tspan class="TextPosition" x="5506" y="8739"><tspan fill="rgb(0,0,0)" stroke="none">4</tspan></tspan></tspan></text>
 <text class="TextShape"><tspan class="TextParagraph" font-family="Liberation Sans" font-size="353px" font-weight="400"><tspan class="TextPosition" x="6671" y="8739"><tspan fill="rgb(0,0,0)" stroke="none">5</tspan></tspan></tspan></text>
 <text class="TextShape"><tspan class="TextParagraph" font-family="Liberation Sans" font-size="353px" font-weight="400"><tspan class="TextPosition" x="7836" y="8739"><tspan fill="rgb(0,0,0)" stroke="none">6</tspan></tspan></tspan></text>
 <text class="TextShape"><tspan class="TextParagraph" font-family="Liberation Sans" font-size="353px" font-weight="400"><tspan class="TextPosition" x="9000" y="8739"><tspan fill="rgb(0,0,0)" stroke="none">7</tspan></tspan></tspan></text>
 <text class="TextShape"><tspan class="TextParagraph" font-family="Liberation Sans" font-size="353px" font-weight="400"><tspan class="TextPosition" x="10165" y="8739"><tspan fill="rgb(0,0,0)" stroke="none">8</tspan></tspan></tspan></text>
 <text class="TextShape"><tspan class="TextParagraph" font-family="Liberation Sans" font-size="353px" font-weight="400"><tspan class="TextPosition" x="11330" y="8739"><tspan fill="rgb(0,0,0)" stroke="none">9</tspan></tspan></tspan></text>
 <text class="TextShape"><tspan class="TextParagraph" font-family="Liberation Sans" font-size="353px" font-weight="400"><tspan class="TextPosition" x="12403" y="8739"><tspan fill="rgb(0,0,0)" stroke="none">10</tspan></tspan></tspan></text>
 <text class="TextShape"><tspan class="TextParagraph" font-family="Liberation Sans" font-size="353px" font-weight="400"><tspan class="TextPosition" x="506" y="8292"><tspan fill="rgb(0,0,0)" stroke="none">0</tspan></tspan></tspan></text>
 <text class="TextShape"><tspan class="TextParagraph" font-family="Liberation Sans" font-size="353px" font-weight="400"><tspan class="TextPosition" x="506" y="7512"><tspan fill="rgb(0,0,0)" stroke="none">5</tspan></tspan></tspan></text>
 <text class="TextShape"><tspan class="TextParagraph" font-family="Liberation Sans" font-size="353px" font-weight="400"><tspan class="TextPosition" x="321" y="6733"><tspan fill="rgb(0,0,0)" stroke="none">10</tspan></tspan></tspan></text>
 <text class="TextShape"><tspan class="TextParagraph" font-family="Liberation Sans" font-size="353px" font-weight="400"><tspan class="TextPosition" x="321" y="5953"><tspan fill="rgb(0,0,0)" stroke="none">15</tspan></tspan></tspan></text>
 <text class="TextShape"><tspan class="TextParagraph" font-family="Liberation Sans" font-size="353px" font-weight="400"><tspan class="TextPosition" x="321" y="5174"><tspan fill="rgb(0,0,0)" stroke="none">20</tspan></tspan></tspan></text>
 <text class="TextShape"><tspan class="TextParagraph" font-family="Liberation Sans" font-size="353px" font-weight="400"><tspan class="TextPosition" x="321" y="4395"><tspan fill="rgb(0,0,0)" stroke="none">25</tspan></tspan></tspan></text>
 <text class="TextShape"><tspan class="TextParagraph" font-family="Liberation Sans" font-size="353px" font-weight="400"><tspan class="TextPosition" x="321" y="3615"><tspan fill="rgb(0,0,0)" stroke="none">30</tspan></tspan></tspan></text>
 <text class="TextShape"><tspan class="TextParagraph" font-family="Liberation Sans" font-size="353px" font-weight="400"><tspan class="TextPosition" x="321" y="2836"><tspan fill="rgb(0,0,0)" stroke="none">35</tspan></tspan></tspan></text>
 <text class="TextShape"><tspan class="TextParagraph" font-family="Liberation Sans" font-size="353px" font-weight="400"><tspan class="TextPosition" x="321" y="2056"><tspan fill="rgb(0,0,0)" stroke="none">40</tspan></tspan></tspan></text>
 <text class="TextShape"><tspan class="TextParagraph" font-family="Liberation Sans" font-size="353px" font-weight="400"><tspan class="TextPosition" x="321" y="1277"><tspan fill="rgb(0,0,0)" stroke="none">45</tspan></tspan></tspan></text>
 <text class="TextShape"><tspan class="TextParagraph" font-family="Liberation Sans" font-size="353px" font-weight="400"><tspan class="TextPosition" x="321" y="498"><tspan fill="rgb(0,0,0)" stroke="none">50</tspan></tspan></tspan></text>
 <path fill="none" stroke="rgb(0,69,134)" stroke-width="80" stroke-linejoin="round" d="M 13210,3752 L 14010,3752"/>
 <path fill="rgb(0,69,134)" stroke="none" d="M 13504,3647 L 13504,3858 13715,3858 13715,3647 13504,3647 Z"/>
 <path fill="none" stroke="rgb(0,69,134)" stroke-linejoin="round" d="M 13504,3647 L 13504,3858 13715,3858 13715,3647 13504,3647 Z"/>
 <path fill="none" stroke="rgb(255,66,14)" stroke-width="80" stroke-linejoin="round" d="M 13210,4250 L 14010,4250"/>
 <path fill="rgb(255,66,14)" stroke="none" d="M 13504,4250 L 13610,4356 13715,4250 13610,4145 13504,4250 Z"/>
 <path fill="none" stroke="rgb(255,66,14)" stroke-linejoin="round" d="M 13504,4250 L 13610,4356 13715,4250 13610,4145 13504,4250 Z"/>
 <path fill="none" stroke="rgb(255,211,32)" stroke-width="80" stroke-linejoin="round" d="M 13210,4747 L 14010,4747"/>
 <path fill="rgb(255,211,32)" stroke="none" d="M 13504,4642 L 13610,4853 13715,4642 13504,4642 Z"/>
 <path fill="none" stroke="rgb(255,211,32)" stroke-linejoin="round" d="M 13504,4642 L 13610,4853 13715,4642 13504,4642 Z"/>
 <path fill="none" stroke="rgb(87,157,28)" stroke-width="80" stroke-linejoin="round" d="M 13210,5245 L 14010,5245"/>
 <path fill="rgb(87,157,28)" stroke="none" d="M 13504,5351 L 13715,5351 13610,5140 13504,5351 Z"/>
 <path fill="none" stroke="rgb(87,157,28)" stroke-linejoin="round" d="M 13504,5351 L 13715,5351 13610,5140 13504,5351 Z"/>
 <text class="TextShape"><tspan class="TextParagraph" font-family="Liberation Sans" font-size="353px" font-weight="400"><tspan class="TextPosition" x="14110" y="3872"><tspan fill="rgb(0,0,0)" stroke="none">between</tspan></tspan></tspan></text>
 <text class="TextShape"><tspan class="TextParagraph" font-family="Liberation Sans" font-size="353px" font-weight="400"><tspan class="TextPosition" x="14110" y="4370"><tspan fill="rgb(0,0,0)" stroke="none">closeness</tspan></tspan></tspan></text>
 <text class="TextShape"><tspan class="TextParagraph" font-family="Liberation Sans" font-size="353px" font-weight="400"><tspan class="TextPosition" x="14110" y="4867"><tspan fill="rgb(0,0,0)" stroke="none">page</tspan></tspan></tspan></text>
 <text class="TextShape"><tspan class="TextParagraph" font-family="Liberation Sans" font-size="353px" font-weight="400"><tspan class="TextPosition" x="14110" y="5365"><tspan fill="rgb(0,0,0)" stroke="none">random</tspan></tspan></tspan></text>
</svg>