<?xml version="1.0" encoding="UTF-8"?>
<!DOCTYPE svg PUBLIC "-//W3C//DTD SVG 1.1//EN" "http://www.w3.org/Graphics/SVG/1.1/DTD/svg11.dtd">
<svg width="160mm" height="90mm" viewBox="0 0 16000 9000" version="1.1" xmlns="http://www.w3.org/2000/svg" stroke-width="28.222" stroke-linejoin="round" xml:space="preserve">
 <path fill="rgb(255,255,255)" stroke="none" d="M 8000,8999 L 0,8999 0,0 15999,0 15999,8999 8000,8999 Z"/>
 <path fill="none" stroke="rgb(179,179,179)" stroke-linejoin="round" d="M 6671,8172 L 941,8172 941,379 12401,379 12401,8172 6671,8172 Z"/>
 <path fill="none" stroke="rgb(179,179,179)" stroke-linejoin="round" d="M 12401,8171 L 941,8171"/>
 <path fill="none" stroke="rgb(179,179,179)" stroke-linejoin="round" d="M 12401,7391 L 941,7391"/>
 <path fill="none" stroke="rgb(179,179,179)" stroke-linejoin="round" d="M 12401,6612 L 941,6612"/>
 <path fill="none" stroke="rgb(179,179,179)" stroke-linejoin="round" d="M 12401,5832 L 941,5832"/>
 <path fill="none" stroke="rgb(179,179,179)" stroke-linejoin="round" d="M 12401,5053 L 941,5053"/>
 <path fill="none" stroke="rgb(179,179,179)" stroke-linejoin="round" d="M 12401,4275 L 941,4275"/>
 <path fill="none" stroke="rgb(179,179,179)" stroke-linejoin="round" d="M 12401,3495 L 941,3495"/>
 <path fill="none" stroke="rgb(179,179,179)" stroke-linejoin="round" d="M 12401,2716 L 941,2716"/>
 <path fill="none" stroke="rgb(179,179,179)" stroke-linejoin="round" d="M 12401,1936 L 941,1936"/>
 <path fill="none" stroke="rgb(179,179,179)" stroke-linejoin="round" d="M 12401,1157 L 941,1157"/>
 <path fill="none" stroke="rgb(179,179,179)" stroke-linejoin="round" d="M 12401,378 L 941,378"/>
 <path fill="none" stroke="rgb(179,179,179)" stroke-linejoin="round" d="M 941,8321 L 941,8171"/>
 <path fill="none" stroke="rgb(179,179,179)" stroke-linejoin="round" d="M 941,8321 L 941,8171"/>
 <path fill="none" stroke="rgb(179,179,179)" stroke-linejoin="round" d="M 2087,8321 L 2087,8171"/>
 <path fill="none" stroke="rgb(179,179,179)" stroke-linejoin="round" d="M 2087,8321 L 2087,8171"/>
 <path fill="none" stroke="rgb(179,179,179)" stroke-linejoin="round" d="M 3233,8321 L 3233,8171"/>
 <path fill="none" stroke="rgb(179,179,179)" stroke-linejoin="round" d="M 3233,8321 L 3233,8171"/>
 <path fill="none" stroke="rgb(179,179,179)" stroke-linejoin="round" d="M 4379,8321 L 4379,8171"/>
 <path fill="none" stroke="rgb(179,179,179)" stroke-linejoin="round" d="M 4379,8321 L 4379,8171"/>
 <path fill="none" stroke="rgb(179,179,179)" stroke-linejoin="round" d="M 5525,8321 L 5525,8171"/>
 <path fill="none" stroke="rgb(179,179,179)" stroke-linejoin="round" d="M 5525,8321 L 5525,8171"/>
 <path fill="none" stroke="rgb(179,179,179)" stroke-linejoin="round" d="M 6671,8321 L 6671,8171"/>
 <path fill="none" stroke="rgb(179,179,179)" stroke-linejoin="round" d="M 6671,8321 L 6671,8171"/>
 <path fill="none" stroke="rgb(179,179,179)" stroke-linejoin="round" d="M 7817,8321 L 7817,8171"/>
 <path fill="none" stroke="rgb(179,179,179)" stroke-linejoin="round" d="M 7817,8321 L 7817,8171"/>
 <path fill="none" stroke="rgb(179,179,179)" stroke-linejoin="round" d="M 8962,8321 L 8962,8171"/>
 <path fill="none" stroke="rgb(179,179,179)" stroke-linejoin="round" d="M 8962,8321 L 8962,8171"/>
 <path fill="none" stroke="rgb(179,179,179)" stroke-linejoin="round" d="M 10108,8321 L 10108,8171"/>
 <path fill="none" stroke="rgb(179,179,179)" stroke-linejoin="round" d="M 10108,8321 L 10108,8171"/>
 <path fill="none" stroke="rgb(179,179,179)" stroke-linejoin="round" d="M 11254,8321 L 11254,8171"/>
 <path fill="none" stroke="rgb(179,179,179)" stroke-linejoin="round" d="M 11254,8321 L 11254,8171"/>
 <path fill="none" stroke="rgb(179,179,179)" stroke-linejoin="round" d="M 12401,8321 L 12401,8171"/>
 <path fill="none" stroke="rgb(179,179,179)" stroke-linejoin="round" d="M 12401,8321 L 12401,8171"/>
 <path fill="none" stroke="rgb(179,179,179)" stroke-linejoin="round" d="M 941,8171 L 12401,8171"/>
 <path fill="none" stroke="rgb(179,179,179)" stroke-linejoin="round" d="M 791,8171 L 941,8171"/>
 <path fill="none" stroke="rgb(179,179,179)" stroke-linejoin="round" d="M 791,8171 L 941,8171"/>
 <path fill="none" stroke="rgb(179,179,179)" stroke-linejoin="round" d="M 791,7391 L 941,7391"/>
 <path fill="none" stroke="rgb(179,179,179)" stroke-linejoin="round" d="M 791,7391 L 941,7391"/>
 <path fill="none" stroke="rgb(179,179,179)" stroke-linejoin="round" d="M 791,6612 L 941,6612"/>
 <path fill="none" stroke="rgb(179,179,179)" stroke-linejoin="round" d="M 791,6612 L 941,6612"/>
 <path fill="none" stroke="rgb(179,179,179)" stroke-linejoin="round" d="M 791,5832 L 941,5832"/>
 <path fill="none" stroke="rgb(179,179,179)" stroke-linejoin="round" d="M 791,5832 L 941,5832"/>
 <path fill="none" stroke="rgb(179,179,179)" stroke-linejoin="round" d="M 791,5053 L 941,5053"/>
 <path fill="none" stroke="rgb(179,179,179)" stroke-linejoin="round" d="M 791,5053 L 941,5053"/>
 <path fill="none" stroke="rgb(179,179,179)" stroke-linejoin="round" d="M 791,4275 L 941,4275"/>
 <path fill="none" stroke="rgb(179,179,179)" stroke-linejoin="round" d="M 791,4275 L 941,4275"/>
 <path fill="none" stroke="rgb(179,179,179)" stroke-linejoin="round" d="M 791,3495 L 941,3495"/>
 <path fill="none" stroke="rgb(179,179,179)" stroke-linejoin="round" d="M 791,3495 L 941,3495"/>
 <path fill="none" stroke="rgb(179,179,179)" stroke-linejoin="round" d="M 791,2716 L 941,2716"/>
 <path fill="none" stroke="rgb(179,179,179)" stroke-linejoin="round" d="M 791,2716 L 941,2716"/>
 <path fill="none" stroke="rgb(179,179,179)" stroke-linejoin="round" d="M 791,1936 L 941,1936"/>
 <path fill="none" stroke="rgb(179,179,179)" stroke-linejoin="round" d="M 791,1936 L 941,1936"/>
 <path fill="none" stroke="rgb(179,179,179)" stroke-linejoin="round" d="M 791,1157 L 941,1157"/>
 <path fill="none" stroke="rgb(179,179,179)" stroke-linejoin="round" d="M 791,1157 L 941,1157"/>
 <path fill="none" stroke="rgb(179,179,179)" stroke-linejoin="round" d="M 791,378 L 941,378"/>
 <path fill="none" stroke="rgb(179,179,179)" stroke-linejoin="round" d="M 791,378 L 941,378"/>
 <path fill="none" stroke="rgb(179,179,179)" stroke-linejoin="round" d="M 941,8171 L 941,378"/>
 <path fill="none" stroke="rgb(87,157,28)" stroke-width="80" stroke-linejoin="round" d="M 941,8171 L 4379,7971 7817,4622 11254,1062"/>
 <path fill="rgb(87,157,28)" stroke="none" d="M 816,8296 L 1066,8296 941,8046 816,8296 Z"/>
 <path fill="none" stroke="rgb(87,157,28)" stroke-linejoin="round" d="M 816,8296 L 1066,8296 941,8046 816,8296 Z"/>
 <path fill="rgb(87,157,28)" stroke="none" d="M 4254,8096 L 4504,8096 4379,7846 4254,8096 Z"/>
 <path fill="none" stroke="rgb(87,157,28)" stroke-linejoin="round" d="M 4254,8096 L 4504,8096 4379,7846 4254,8096 Z"/>
 <path fill="rgb(87,157,28)" stroke="none" d="M 7692,4747 L 7942,4747 7817,4498 7692,4747 Z"/>
 <path fill="none" stroke="rgb(87,157,28)" stroke-linejoin="round" d="M 7692,4747 L 7942,4747 7817,4498 7692,4747 Z"/>
 <path fill="rgb(87,157,28)" stroke="none" d="M 11129,1187 L 11379,1187 11254,937 11129,1187 Z"/>
 <path fill="none" stroke="rgb(87,157,28)" stroke-linejoin="round" d="M 11129,1187 L 11379,1187 11254,937 11129,1187 Z"/>
 <path fill="none" stroke="rgb(255,211,32)" stroke-width="80" stroke-linejoin="round" d="M 941,8171 L 4379,8154 7817,6474 11254,2362"/>
 <path fill="rgb(255,211,32)" stroke="none" d="M 816,8046 L 941,8296 1066,8046 816,8046 Z"/>
 <path fill="none" stroke="rgb(255,211,32)" stroke-linejoin="round" d="M 816,8046 L 941,8296 1066,8046 816,8046 Z"/>
 <path fill="rgb(255,211,32)" stroke="none" d="M 4254,8029 L 4379,8279 4504,8029 4254,8029 Z"/>
 <path fill="none" stroke="rgb(255,211,32)" stroke-linejoin="round" d="M 4254,8029 L 4379,8279 4504,8029 4254,8029 Z"/>
 <path fill="rgb(255,211,32)" stroke="none" d="M 7692,6349 L 7817,6599 7942,6349 7692,6349 Z"/>
 <path fill="none" stroke="rgb(255,211,32)" stroke-linejoin="round" d="M 7692,6349 L 7817,6599 7942,6349 7692,6349 Z"/>
 <path fill="rgb(255,211,32)" stroke="none" d="M 11129,2237 L 11254,2487 11379,2237 11129,2237 Z"/>
 <path fill="none" stroke="rgb(255,211,32)" stroke-linejoin="round" d="M 11129,2237 L 11254,2487 11379,2237 11129,2237 Z"/>
 <path fill="none" stroke="rgb(255,66,14)" stroke-width="80" stroke-linejoin="round" d="M 941,8171 L 4379,8148 7817,6515 11254,2340"/>
 <path fill="rgb(255,66,14)" stroke="none" d="M 816,8171 L 941,8296 1066,8171 941,8046 816,8171 Z"/>
 <path fill="none" stroke="rgb(255,66,14)" stroke-linejoin="round" d="M 816,8171 L 941,8296 1066,8171 941,8046 816,8171 Z"/>
 <path fill="rgb(255,66,14)" stroke="none" d="M 4254,8148 L 4379,8273 4504,8148 4379,8023 4254,8148 Z"/>
 <path fill="none" stroke="rgb(255,66,14)" stroke-linejoin="round" d="M 4254,8148 L 4379,8273 4504,8148 4379,8023 4254,8148 Z"/>
 <path fill="rgb(255,66,14)" stroke="none" d="M 7692,6515 L 7817,6640 7942,6515 7817,6390 7692,6515 Z"/>
 <path fill="none" stroke="rgb(255,66,14)" stroke-linejoin="round" d="M 7692,6515 L 7817,6640 7942,6515 7817,6390 7692,6515 Z"/>
 <path fill="rgb(255,66,14)" stroke="none" d="M 11129,2340 L 11254,2465 11379,2340 11254,2215 11129,2340 Z"/>
 <path fill="none" stroke="rgb(255,66,14)" stroke-linejoin="round" d="M 11129,2340 L 11254,2465 11379,2340 11254,2215 11129,2340 Z"/>
 <path fill="none" stroke="rgb(0,69,134)" stroke-width="80" stroke-linejoin="round" d="M 941,8171 L 4379,8147 7817,6467 11254,2357"/>
 <path fill="rgb(0,69,134)" stroke="none" d="M 816,8046 L 816,8296 1066,8296 1066,8046 816,8046 Z"/>
 <path fill="none" stroke="rgb(0,69,134)" stroke-linejoin="round" d="M 816,8046 L 816,8296 1066,8296 1066,8046 816,8046 Z"/>
 <path fill="rgb(0,69,134)" stroke="none" d="M 4254,8022 L 4254,8272 4504,8272 4504,8022 4254,8022 Z"/>
 <path fill="none" stroke="rgb(0,69,134)" stroke-linejoin="round" d="M 4254,8022 L 4254,8272 4504,8272 4504,8022 4254,8022 Z"/>
 <path fill="rgb(0,69,134)" stroke="none" d="M 7692,6342 L 7692,6592 7942,6592 7942,6342 7692,6342 Z"/>
 <path fill="none" stroke="rgb(0,69,134)" stroke-linejoin="round" d="M 7692,6342 L 7692,6592 7942,6592 7942,6342 7692,6342 Z"/>
 <path fill="rgb(0,69,134)" stroke="none" d="M 11129,2232 L 11129,2482 11379,2482 11379,2232 11129,2232 Z"/>
 <path fill="none" stroke="rgb(0,69,134)" stroke-linejoin="round" d="M 11129,2232 L 11129,2482 11379,2482 11379,2232 11129,2232 Z"/>
 <text class="TextShape"><tspan class="TextParagraph" font-family="Liberation Sans" font-size="353px" font-weight="400"><tspan class="TextPosition" x="848" y="8739"><tspan fill="rgb(0,0,0)" stroke="none">0</tspan></tspan></tspan></text>
 <text class="TextShape"><tspan class="TextParagraph" font-family="Liberation Sans" font-size="353px" font-weight="400"><tspan class="TextPosition" x="1994" y="8739"><tspan fill="rgb(0,0,0)" stroke="none">1</tspan></tspan></tspan></text>
 <text class="TextShape"><tspan class="TextParagraph" font-family="Liberation Sans" font-size="353px" font-weight="400"><tspan class="TextPosition" x="3140" y="8739"><tspan fill="rgb(0,0,0)" stroke="none">2</tspan></tspan></tspan></text>
 <text class="TextShape"><tspan class="TextParagraph" font-family="Liberation Sans" font-size="353px" font-weight="400"><tspan class="TextPosition" x="4286" y="8739"><tspan fill="rgb(0,0,0)" stroke="none">3</tspan></tspan></tspan></text>
 <text class="TextShape"><tspan class="TextParagraph" font-family="Liberation Sans" font-size="353px" font-weight="400"><tspan class="TextPosition" x="5432" y="8739"><tspan fill="rgb(0,0,0)" stroke="none">4</tspan></tspan></tspan></text>
 <text class="TextShape"><tspan class="TextParagraph" font-family="Liberation Sans" font-size="353px" font-weight="400"><tspan class="TextPosition" x="6578" y="8739"><tspan fill="rgb(0,0,0)" stroke="none">5</tspan></tspan></tspan></text>
 <text class="TextShape"><tspan class="TextParagraph" font-family="Liberation Sans" font-size="353px" font-weight="400"><tspan class="TextPosition" x="7724" y="8739"><tspan fill="rgb(0,0,0)" stroke="none">6</tspan></tspan></tspan></text>
 <text class="TextShape"><tspan class="TextParagraph" font-family="Liberation Sans" font-size="353px" font-weight="400"><tspan class="TextPosition" x="8870" y="8739"><tspan fill="rgb(0,0,0)" stroke="none">7</tspan></tspan></tspan></text>
 <text class="TextShape"><tspan class="TextParagraph" font-family="Liberation Sans" font-size="353px" font-weight="400"><tspan class="TextPosition" x="10016" y="8739"><tspan fill="rgb(0,0,0)" stroke="none">8</tspan></tspan></tspan></text>
 <text class="TextShape"><tspan class="TextParagraph" font-family="Liberation Sans" font-size="353px" font-weight="400"><tspan class="TextPosition" x="11162" y="8739"><tspan fill="rgb(0,0,0)" stroke="none">9</tspan></tspan></tspan></text>
 <text class="TextShape"><tspan class="TextParagraph" font-family="Liberation Sans" font-size="353px" font-weight="400"><tspan class="TextPosition" x="12217" y="8739"><tspan fill="rgb(0,0,0)" stroke="none">10</tspan></tspan></tspan></text>
 <text class="TextShape"><tspan class="TextParagraph" font-family="Liberation Sans" font-size="353px" font-weight="400"><tspan class="TextPosition" x="506" y="8292"><tspan fill="rgb(0,0,0)" stroke="none">0</tspan></tspan></tspan></text>
 <text class="TextShape"><tspan class="TextParagraph" font-family="Liberation Sans" font-size="353px" font-weight="400"><tspan class="TextPosition" x="321" y="7512"><tspan fill="rgb(0,0,0)" stroke="none">10</tspan></tspan></tspan></text>
 <text class="TextShape"><tspan class="TextParagraph" font-family="Liberation Sans" font-size="353px" font-weight="400"><tspan class="TextPosition" x="321" y="6733"><tspan fill="rgb(0,0,0)" stroke="none">20</tspan></tspan></tspan></text>
 <text class="TextShape"><tspan class="TextParagraph" font-family="Liberation Sans" font-size="353px" font-weight="400"><tspan class="TextPosition" x="321" y="5953"><tspan fill="rgb(0,0,0)" stroke="none">30</tspan></tspan></tspan></text>
 <text class="TextShape"><tspan class="TextParagraph" font-family="Liberation Sans" font-size="353px" font-weight="400"><tspan class="TextPosition" x="321" y="5174"><tspan fill="rgb(0,0,0)" stroke="none">40</tspan></tspan></tspan></text>
 <text class="TextShape"><tspan class="TextParagraph" font-family="Liberation Sans" font-size="353px" font-weight="400"><tspan class="TextPosition" x="321" y="4395"><tspan fill="rgb(0,0,0)" stroke="none">50</tspan></tspan></tspan></text>
 <text class="TextShape"><tspan class="TextParagraph" font-family="Liberation Sans" font-size="353px" font-weight="400"><tspan class="TextPosition" x="321" y="3615"><tspan fill="rgb(0,0,0)" stroke="none">60</tspan></tspan></tspan></text>
 <text class="TextShape"><tspan class="TextParagraph" font-family="Liberation Sans" font-size="353px" font-weight="400"><tspan class="TextPosition" x="321" y="2836"><tspan fill="rgb(0,0,0)" stroke="none">70</tspan></tspan></tspan></text>
 <text class="TextShape"><tspan class="TextParagraph" font-family="Liberation Sans" font-size="353px" font-weight="400"><tspan class="TextPosition" x="321" y="2056"><tspan fill="rgb(0,0,0)" stroke="none">80</tspan></tspan></tspan></text>
 <text class="TextShape"><tspan class="TextParagraph" font-family="Liberation Sans" font-size="353px" font-weight="400"><tspan class="TextPosition" x="321" y="1277"><tspan fill="rgb(0,0,0)" stroke="none">90</tspan></tspan></tspan></text>
 <text class="TextShape"><tspan class="TextParagraph" font-family="Liberation Sans" font-size="353px" font-weight="400"><tspan class="TextPosition" x="135" y="498"><tspan fill="rgb(0,0,0)" stroke="none">100</tspan></tspan></tspan></text>
 <path fill="none" stroke="rgb(0,69,134)" stroke-width="80" stroke-linejoin="round" d="M 13210,3752 L 14010,3752"/>
 <path fill="rgb(0,69,134)" stroke="none" d="M 13504,3647 L 13504,3858 13715,3858 13715,3647 13504,3647 Z"/>
 <path fill="none" stroke="rgb(0,69,134)" stroke-linejoin="round" d="M 13504,3647 L 13504,3858 13715,3858 13715,3647 13504,3647 Z"/>
 <path fill="none" stroke="rgb(255,66,14)" stroke-width="80" stroke-linejoin="round" d="M 13210,4250 L 14010,4250"/>
 <path fill="rgb(255,66,14)" stroke="none" d="M 13504,4250 L 13610,4356 13715,4250 13610,4145 13504,4250 Z"/>
 <path fill="none" stroke="rgb(255,66,14)" stroke-linejoin="round" d="M 13504,4250 L 13610,4356 13715,4250 13610,4145 13504,4250 Z"/>
 <path fill="none" stroke="rgb(255,211,32)" stroke-width="80" stroke-linejoin="round" d="M 13210,4747 L 14010,4747"/>
 <path fill="rgb(255,211,32)" stroke="none" d="M 13504,4642 L 13610,4853 13715,4642 13504,4642 Z"/>
 <path fill="none" stroke="rgb(255,211,32)" stroke-linejoin="round" d="M 13504,4642 L 13610,4853 13715,4642 13504,4642 Z"/>
 <path fill="none" stroke="rgb(87,157,28)" stroke-width="80" stroke-linejoin="round" d="M 13210,5245 L 14010,5245"/>
 <path fill="rgb(87,157,28)" stroke="none" d="M 13504,5351 L 13715,5351 13610,5140 13504,5351 Z"/>
 <path fill="none" stroke="rgb(87,157,28)" stroke-linejoin="round" d="M 13504,5351 L 13715,5351 13610,5140 13504,5351 Z"/>
 <text class="TextShape"><tspan class="TextParagraph" font-family="Liberation Sans" font-size="353px" font-weight="400"><tspan class="TextPosition" x="14110" y="3872"><tspan fill="rgb(0,0,0)" stroke="none">between</tspan></tspan></tspan></text>
 <text class="TextShape"><tspan class="TextParagraph" font-family="Liberation Sans" font-size="353px" font-weight="400"><tspan class="TextPosition" x="14110" y="4370"><tspan fill="rgb(0,0,0)" stroke="none">closeness</tspan></tspan></tspan></text>
 <text class="TextShape"><tspan class="TextParagraph" font-family="Liberation Sans" font-size="353px" font-weight="400"><tspan class="TextPosition" x="14110" y="4867"><tspan fill="rgb(0,0,0)" stroke="none">page</tspan></tspan></tspan></text>
 <text class="TextShape"><tspan class="TextParagraph" font-family="Liberation Sans" font-size="353px" font-weight="400"><tspan class="TextPosition" x="14110" y="5365"><tspan fill="rgb(0,0,0)" stroke="none">random</tspan></tspan></tspan></text>
</svg>