<?xml version="1.0" encoding="UTF-8"?>
<!DOCTYPE svg PUBLIC "-//W3C//DTD SVG 1.1//EN" "http://www.w3.org/Graphics/SVG/1.1/DTD/svg11.dtd">
<svg width="160mm" height="90mm" viewBox="0 0 16000 9000" version="1.1" xmlns="http://www.w3.org/2000/svg" stroke-width="28.222" stroke-linejoin="round" xml:space="preserve">
 <path fill="rgb(255,255,255)" stroke="none" d="M 8000,8999 L 0,8999 0,0 15999,0 15999,8999 8000,8999 Z"/>
 <path fill="none" stroke="rgb(179,179,179)" stroke-linejoin="round" d="M 7042,8172 L 1497,8172 1497,379 12587,379 12587,8172 7042,8172 Z"/>
 <path fill="none" stroke="rgb(179,179,179)" stroke-linejoin="round" d="M 12587,8171 L 1497,8171"/>
 <path fill="none" stroke="rgb(179,179,179)" stroke-linejoin="round" d="M 12587,7305 L 1497,7305"/>
 <path fill="none" stroke="rgb(179,179,179)" stroke-linejoin="round" d="M 12587,6439 L 1497,6439"/>
 <path fill="none" stroke="rgb(179,179,179)" stroke-linejoin="round" d="M 12587,5573 L 1497,5573"/>
 <path fill="none" stroke="rgb(179,179,179)" stroke-linejoin="round" d="M 12587,4707 L 1497,4707"/>
 <path fill="none" stroke="rgb(179,179,179)" stroke-linejoin="round" d="M 12587,3842 L 1497,3842"/>
 <path fill="none" stroke="rgb(179,179,179)" stroke-linejoin="round" d="M 12587,2976 L 1497,2976"/>
 <path fill="none" stroke="rgb(179,179,179)" stroke-linejoin="round" d="M 12587,2110 L 1497,2110"/>
 <path fill="none" stroke="rgb(179,179,179)" stroke-linejoin="round" d="M 12587,1244 L 1497,1244"/>
 <path fill="none" stroke="rgb(179,179,179)" stroke-linejoin="round" d="M 12587,378 L 1497,378"/>
 <path fill="none" stroke="rgb(179,179,179)" stroke-linejoin="round" d="M 1497,8321 L 1497,8171"/>
 <path fill="none" stroke="rgb(179,179,179)" stroke-linejoin="round" d="M 1497,8321 L 1497,8171"/>
 <path fill="none" stroke="rgb(179,179,179)" stroke-linejoin="round" d="M 2606,8321 L 2606,8171"/>
 <path fill="none" stroke="rgb(179,179,179)" stroke-linejoin="round" d="M 2606,8321 L 2606,8171"/>
 <path fill="none" stroke="rgb(179,179,179)" stroke-linejoin="round" d="M 3715,8321 L 3715,8171"/>
 <path fill="none" stroke="rgb(179,179,179)" stroke-linejoin="round" d="M 3715,8321 L 3715,8171"/>
 <path fill="none" stroke="rgb(179,179,179)" stroke-linejoin="round" d="M 4824,8321 L 4824,8171"/>
 <path fill="none" stroke="rgb(179,179,179)" stroke-linejoin="round" d="M 4824,8321 L 4824,8171"/>
 <path fill="none" stroke="rgb(179,179,179)" stroke-linejoin="round" d="M 5933,8321 L 5933,8171"/>
 <path fill="none" stroke="rgb(179,179,179)" stroke-linejoin="round" d="M 5933,8321 L 5933,8171"/>
 <path fill="none" stroke="rgb(179,179,179)" stroke-linejoin="round" d="M 7042,8321 L 7042,8171"/>
 <path fill="none" stroke="rgb(179,179,179)" stroke-linejoin="round" d="M 7042,8321 L 7042,8171"/>
 <path fill="none" stroke="rgb(179,179,179)" stroke-linejoin="round" d="M 8150,8321 L 8150,8171"/>
 <path fill="none" stroke="rgb(179,179,179)" stroke-linejoin="round" d="M 8150,8321 L 8150,8171"/>
 <path fill="none" stroke="rgb(179,179,179)" stroke-linejoin="round" d="M 9259,8321 L 9259,8171"/>
 <path fill="none" stroke="rgb(179,179,179)" stroke-linejoin="round" d="M 9259,8321 L 9259,8171"/>
 <path fill="none" stroke="rgb(179,179,179)" stroke-linejoin="round" d="M 10368,8321 L 10368,8171"/>
 <path fill="none" stroke="rgb(179,179,179)" stroke-linejoin="round" d="M 10368,8321 L 10368,8171"/>
 <path fill="none" stroke="rgb(179,179,179)" stroke-linejoin="round" d="M 11477,8321 L 11477,8171"/>
 <path fill="none" stroke="rgb(179,179,179)" stroke-linejoin="round" d="M 11477,8321 L 11477,8171"/>
 <path fill="none" stroke="rgb(179,179,179)" stroke-linejoin="round" d="M 12587,8321 L 12587,8171"/>
 <path fill="none" stroke="rgb(179,179,179)" stroke-linejoin="round" d="M 12587,8321 L 12587,8171"/>
 <path fill="none" stroke="rgb(179,179,179)" stroke-linejoin="round" d="M 1497,8171 L 12587,8171"/>
 <path fill="none" stroke="rgb(179,179,179)" stroke-linejoin="round" d="M 1347,8171 L 1497,8171"/>
 <path fill="none" stroke="rgb(179,179,179)" stroke-linejoin="round" d="M 1347,8171 L 1497,8171"/>
 <path fill="none" stroke="rgb(179,179,179)" stroke-linejoin="round" d="M 1347,7305 L 1497,7305"/>
 <path fill="none" stroke="rgb(179,179,179)" stroke-linejoin="round" d="M 1347,7305 L 1497,7305"/>
 <path fill="none" stroke="rgb(179,179,179)" stroke-linejoin="round" d="M 1347,6439 L 1497,6439"/>
 <path fill="none" stroke="rgb(179,179,179)" stroke-linejoin="round" d="M 1347,6439 L 1497,6439"/>
 <path fill="none" stroke="rgb(179,179,179)" stroke-linejoin="round" d="M 1347,5573 L 1497,5573"/>
 <path fill="none" stroke="rgb(179,179,179)" stroke-linejoin="round" d="M 1347,5573 L 1497,5573"/>
 <path fill="none" stroke="rgb(179,179,179)" stroke-linejoin="round" d="M 1347,4707 L 1497,4707"/>
 <path fill="none" stroke="rgb(179,179,179)" stroke-linejoin="round" d="M 1347,4707 L 1497,4707"/>
 <path fill="none" stroke="rgb(179,179,179)" stroke-linejoin="round" d="M 1347,3842 L 1497,3842"/>
 <path fill="none" stroke="rgb(179,179,179)" stroke-linejoin="round" d="M 1347,3842 L 1497,3842"/>
 <path fill="none" stroke="rgb(179,179,179)" stroke-linejoin="round" d="M 1347,2975 L 1497,2975"/>
 <path fill="none" stroke="rgb(179,179,179)" stroke-linejoin="round" d="M 1347,2975 L 1497,2975"/>
 <path fill="none" stroke="rgb(179,179,179)" stroke-linejoin="round" d="M 1347,2110 L 1497,2110"/>
 <path fill="none" stroke="rgb(179,179,179)" stroke-linejoin="round" d="M 1347,2110 L 1497,2110"/>
 <path fill="none" stroke="rgb(179,179,179)" stroke-linejoin="round" d="M 1347,1243 L 1497,1243"/>
 <path fill="none" stroke="rgb(179,179,179)" stroke-linejoin="round" d="M 1347,1243 L 1497,1243"/>
 <path fill="none" stroke="rgb(179,179,179)" stroke-linejoin="round" d="M 1347,378 L 1497,378"/>
 <path fill="none" stroke="rgb(179,179,179)" stroke-linejoin="round" d="M 1347,378 L 1497,378"/>
 <path fill="none" stroke="rgb(179,179,179)" stroke-linejoin="round" d="M 1497,8171 L 1497,378"/>
 <path fill="none" stroke="rgb(87,157,28)" stroke-width="80" stroke-linejoin="round" d="M 1497,7453 L 1663,7140 1829,6827 1996,6515 2162,6207 2328,5902 2495,5602 2661,5307 2827,5019 2994,4737 3160,4465 3327,4202 3493,3948 3659,3705 3826,3474 3992,3255 4158,3051 4325,2860 4491,2686 4657,2527 4824,2386 4990,2263 5157,2158 5323,2070 5489,1999 5656,1944 5822,1905 5988,1881 6155,1872 6321,1878 6487,1898 6654,1931 6820,1977 6987,2036 7153,2106 7319,2189 7486,2283 7652,2387 7818,2501 7985,2626 8150,2759 8316,2902 8483,3053 8649,3211 8816,3378 8982,3551 9148,3731 9315,3917 9481,4108 9647,4306 9814,4506 9980,4713 10146,4923 10313,5137 10479,5354 10646,5573 10812,5795 10978,6019 11145,6244 11311,6469 11477,6695"/>
 <path fill="rgb(87,157,28)" stroke="none" d="M 1372,7578 L 1622,7578 1497,7328 1372,7578 Z"/>
 <path fill="none" stroke="rgb(87,157,28)" stroke-linejoin="round" d="M 1372,7578 L 1622,7578 1497,7328 1372,7578 Z"/>
 <path fill="rgb(87,157,28)" stroke="none" d="M 4699,2511 L 4949,2511 4824,2261 4699,2511 Z"/>
 <path fill="none" stroke="rgb(87,157,28)" stroke-linejoin="round" d="M 4699,2511 L 4949,2511 4824,2261 4699,2511 Z"/>
 <path fill="rgb(87,157,28)" stroke="none" d="M 8025,2884 L 8275,2884 8150,2634 8025,2884 Z"/>
 <path fill="none" stroke="rgb(87,157,28)" stroke-linejoin="round" d="M 8025,2884 L 8275,2884 8150,2634 8025,2884 Z"/>
 <path fill="rgb(87,157,28)" stroke="none" d="M 11352,6820 L 11602,6820 11477,6570 11352,6820 Z"/>
 <path fill="none" stroke="rgb(87,157,28)" stroke-linejoin="round" d="M 11352,6820 L 11602,6820 11477,6570 11352,6820 Z"/>
 <path fill="none" stroke="rgb(255,211,32)" stroke-width="80" stroke-linejoin="round" d="M 1497,7456 L 1663,7518 1829,7578 1996,7636 2162,7690 2328,7738 2495,7780 2661,7812 2827,7836 2994,7848 3160,7847 3327,7832 3493,7803 3659,7756 3826,7691 3992,7607 4158,7502 4325,7375 4491,7224 4657,7048 4824,6845 4990,6615 5157,6361 5323,6086 5489,5794 5656,5487 5822,5169 5988,4845 6155,4516 6321,4188 6487,3862 6654,3542 6820,3232 6987,2936 7153,2656 7319,2397 7486,2161 7652,1952 7818,1773 7985,1629 8150,1522 8316,1454 8483,1426 8649,1434 8816,1476 8982,1551 9148,1657 9315,1791 9481,1952 9647,2138 9814,2345 9980,2573 10146,2820 10313,3082 10479,3359 10646,3648 10812,3948 10978,4255 11145,4568 11311,4886 11477,5205"/>
 <path fill="rgb(255,211,32)" stroke="none" d="M 1372,7331 L 1497,7581 1622,7331 1372,7331 Z"/>
 <path fill="none" stroke="rgb(255,211,32)" stroke-linejoin="round" d="M 1372,7331 L 1497,7581 1622,7331 1372,7331 Z"/>
 <path fill="rgb(255,211,32)" stroke="none" d="M 4699,6720 L 4824,6970 4949,6720 4699,6720 Z"/>
 <path fill="none" stroke="rgb(255,211,32)" stroke-linejoin="round" d="M 4699,6720 L 4824,6970 4949,6720 4699,6720 Z"/>
 <path fill="rgb(255,211,32)" stroke="none" d="M 8025,1397 L 8150,1647 8275,1397 8025,1397 Z"/>
 <path fill="none" stroke="rgb(255,211,32)" stroke-linejoin="round" d="M 8025,1397 L 8150,1647 8275,1397 8025,1397 Z"/>
 <path fill="rgb(255,211,32)" stroke="none" d="M 11352,5080 L 11477,5330 11602,5080 11352,5080 Z"/>
 <path fill="none" stroke="rgb(255,211,32)" stroke-linejoin="round" d="M 11352,5080 L 11477,5330 11602,5080 11352,5080 Z"/>
 <path fill="none" stroke="rgb(255,66,14)" stroke-width="80" stroke-linejoin="round" d="M 1497,7456 L 1663,7522 1829,7585 1996,7646 2162,7703 2328,7754 2495,7798 2661,7833 2827,7858 2994,7871 3160,7872 3327,7858 3493,7829 3659,7782 3826,7717 3992,7632 4158,7525 4325,7395 4491,7241 4657,7061 4824,6854 4990,6619 5157,6358 5323,6077 5489,5777 5656,5462 5822,5137 5988,4804 6155,4468 6321,4130 6487,3796 6654,3469 6820,3151 6987,2847 7153,2561 7319,2295 7486,2054 7652,1840 7818,1658 7985,1510 8150,1402 8316,1334 8483,1306 8649,1315 8816,1361 8982,1439 9148,1550 9315,1690 9481,1857 9647,2049 9814,2264 9980,2500 10146,2755 10313,3027 10479,3314 10646,3613 10812,3923 10978,4241 11145,4564 11311,4893 11477,5223"/>
 <path fill="rgb(255,66,14)" stroke="none" d="M 1372,7456 L 1497,7581 1622,7456 1497,7331 1372,7456 Z"/>
 <path fill="none" stroke="rgb(255,66,14)" stroke-linejoin="round" d="M 1372,7456 L 1497,7581 1622,7456 1497,7331 1372,7456 Z"/>
 <path fill="rgb(255,66,14)" stroke="none" d="M 4699,6854 L 4824,6979 4949,6854 4824,6729 4699,6854 Z"/>
 <path fill="none" stroke="rgb(255,66,14)" stroke-linejoin="round" d="M 4699,6854 L 4824,6979 4949,6854 4824,6729 4699,6854 Z"/>
 <path fill="rgb(255,66,14)" stroke="none" d="M 8025,1402 L 8150,1527 8275,1402 8150,1277 8025,1402 Z"/>
 <path fill="none" stroke="rgb(255,66,14)" stroke-linejoin="round" d="M 8025,1402 L 8150,1527 8275,1402 8150,1277 8025,1402 Z"/>
 <path fill="rgb(255,66,14)" stroke="none" d="M 11352,5223 L 11477,5348 11602,5223 11477,5098 11352,5223 Z"/>
 <path fill="none" stroke="rgb(255,66,14)" stroke-linejoin="round" d="M 11352,5223 L 11477,5348 11602,5223 11477,5098 11352,5223 Z"/>
 <path fill="none" stroke="rgb(0,69,134)" stroke-width="80" stroke-linejoin="round" d="M 1497,7454 L 1663,7519 1829,7582 1996,7642 2162,7698 2328,7749 2495,7792 2661,7827 2827,7852 2994,7866 3160,7867 3327,7855 3493,7826 3659,7781 3826,7718 3992,7635 4158,7530 4325,7404 4491,7253 4657,7077 4824,6874 4990,6644 5157,6390 5323,6114 5489,5820 5656,5512 5822,5193 5988,4867 6155,4536 6321,4207 6487,3879 6654,3558 6820,3246 6987,2948 7153,2667 7319,2405 7486,2168 7652,1958 7818,1778 7985,1632 8150,1524 8316,1456 8483,1427 8649,1434 8816,1477 8982,1552 9148,1658 9315,1793 9481,1954 9647,2140 9814,2348 9980,2577 10146,2824 10313,3088 10479,3366 10646,3656 10812,3957 10978,4265 11145,4579 11311,4898 11477,5219"/>
 <path fill="rgb(0,69,134)" stroke="none" d="M 1372,7329 L 1372,7579 1622,7579 1622,7329 1372,7329 Z"/>
 <path fill="none" stroke="rgb(0,69,134)" stroke-linejoin="round" d="M 1372,7329 L 1372,7579 1622,7579 1622,7329 1372,7329 Z"/>
 <path fill="rgb(0,69,134)" stroke="none" d="M 4699,6749 L 4699,6999 4949,6999 4949,6749 4699,6749 Z"/>
 <path fill="none" stroke="rgb(0,69,134)" stroke-linejoin="round" d="M 4699,6749 L 4699,6999 4949,6999 4949,6749 4699,6749 Z"/>
 <path fill="rgb(0,69,134)" stroke="none" d="M 8025,1399 L 8025,1649 8275,1649 8275,1399 8025,1399 Z"/>
 <path fill="none" stroke="rgb(0,69,134)" stroke-linejoin="round" d="M 8025,1399 L 8025,1649 8275,1649 8275,1399 8025,1399 Z"/>
 <path fill="rgb(0,69,134)" stroke="none" d="M 11352,5094 L 11352,5344 11602,5344 11602,5094 11352,5094 Z"/>
 <path fill="none" stroke="rgb(0,69,134)" stroke-linejoin="round" d="M 11352,5094 L 11352,5344 11602,5344 11602,5094 11352,5094 Z"/>
 <text class="TextShape"><tspan class="TextParagraph" font-family="Liberation Sans" font-size="353px" font-weight="400"><tspan class="TextPosition" x="1404" y="8739"><tspan fill="rgb(0,0,0)" stroke="none">0</tspan></tspan></tspan></text>
 <text class="TextShape"><tspan class="TextParagraph" font-family="Liberation Sans" font-size="353px" font-weight="400"><tspan class="TextPosition" x="2513" y="8739"><tspan fill="rgb(0,0,0)" stroke="none">1</tspan></tspan></tspan></text>
 <text class="TextShape"><tspan class="TextParagraph" font-family="Liberation Sans" font-size="353px" font-weight="400"><tspan class="TextPosition" x="3622" y="8739"><tspan fill="rgb(0,0,0)" stroke="none">2</tspan></tspan></tspan></text>
 <text class="TextShape"><tspan class="TextParagraph" font-family="Liberation Sans" font-size="353px" font-weight="400"><tspan class="TextPosition" x="4731" y="8739"><tspan fill="rgb(0,0,0)" stroke="none">3</tspan></tspan></tspan></text>
 <text class="TextShape"><tspan class="TextParagraph" font-family="Liberation Sans" font-size="353px" font-weight="400"><tspan class="TextPosition" x="5840" y="8739"><tspan fill="rgb(0,0,0)" stroke="none">4</tspan></tspan></tspan></text>
 <text class="TextShape"><tspan class="TextParagraph" font-family="Liberation Sans" font-size="353px" font-weight="400"><tspan class="TextPosition" x="6949" y="8739"><tspan fill="rgb(0,0,0)" stroke="none">5</tspan></tspan></tspan></text>
 <text class="TextShape"><tspan class="TextParagraph" font-family="Liberation Sans" font-size="353px" font-weight="400"><tspan class="TextPosition" x="8058" y="8739"><tspan fill="rgb(0,0,0)" stroke="none">6</tspan></tspan></tspan></text>
 <text class="TextShape"><tspan class="TextParagraph" font-family="Liberation Sans" font-size="353px" font-weight="400"><tspan class="TextPosition" x="9167" y="8739"><tspan fill="rgb(0,0,0)" stroke="none">7</tspan></tspan></tspan></text>
 <text class="TextShape"><tspan class="TextParagraph" font-family="Liberation Sans" font-size="353px" font-weight="400"><tspan class="TextPosition" x="10276" y="8739"><tspan fill="rgb(0,0,0)" stroke="none">8</tspan></tspan></tspan></text>
 <text class="TextShape"><tspan class="TextParagraph" font-family="Liberation Sans" font-size="353px" font-weight="400"><tspan class="TextPosition" x="11385" y="8739"><tspan fill="rgb(0,0,0)" stroke="none">9</tspan></tspan></tspan></text>
 <text class="TextShape"><tspan class="TextParagraph" font-family="Liberation Sans" font-size="353px" font-weight="400"><tspan class="TextPosition" x="12403" y="8739"><tspan fill="rgb(0,0,0)" stroke="none">10</tspan></tspan></tspan></text>
 <text class="TextShape"><tspan class="TextParagraph" font-family="Liberation Sans" font-size="353px" font-weight="400"><tspan class="TextPosition" x="1062" y="8292"><tspan fill="rgb(0,0,0)" stroke="none">0</tspan></tspan></tspan></text>
 <text class="TextShape"><tspan class="TextParagraph" font-family="Liberation Sans" font-size="353px" font-weight="400"><tspan class="TextPosition" x="321" y="7426"><tspan fill="rgb(0,0,0)" stroke="none">10000</tspan></tspan></tspan></text>
 <text class="TextShape"><tspan class="TextParagraph" font-family="Liberation Sans" font-size="353px" font-weight="400"><tspan class="TextPosition" x="321" y="6560"><tspan fill="rgb(0,0,0)" stroke="none">20000</tspan></tspan></tspan></text>
 <text class="TextShape"><tspan class="TextParagraph" font-family="Liberation Sans" font-size="353px" font-weight="400"><tspan class="TextPosition" x="321" y="5694"><tspan fill="rgb(0,0,0)" stroke="none">30000</tspan></tspan></tspan></text>
 <text class="TextShape"><tspan class="TextParagraph" font-family="Liberation Sans" font-size="353px" font-weight="400"><tspan class="TextPosition" x="321" y="4828"><tspan fill="rgb(0,0,0)" stroke="none">40000</tspan></tspan></tspan></text>
 <text class="TextShape"><tspan class="TextParagraph" font-family="Liberation Sans" font-size="353px" font-weight="400"><tspan class="TextPosition" x="321" y="3962"><tspan fill="rgb(0,0,0)" stroke="none">50000</tspan></tspan></tspan></text>
 <text class="TextShape"><tspan class="TextParagraph" font-family="Liberation Sans" font-size="353px" font-weight="400"><tspan class="TextPosition" x="321" y="3095"><tspan fill="rgb(0,0,0)" stroke="none">60000</tspan></tspan></tspan></text>
 <text class="TextShape"><tspan class="TextParagraph" font-family="Liberation Sans" font-size="353px" font-weight="400"><tspan class="TextPosition" x="321" y="2230"><tspan fill="rgb(0,0,0)" stroke="none">70000</tspan></tspan></tspan></text>
 <text class="TextShape"><tspan class="TextParagraph" font-family="Liberation Sans" font-size="353px" font-weight="400"><tspan class="TextPosition" x="321" y="1363"><tspan fill="rgb(0,0,0)" stroke="none">80000</tspan></tspan></tspan></text>
 <text class="TextShape"><tspan class="TextParagraph" font-family="Liberation Sans" font-size="353px" font-weight="400"><tspan class="TextPosition" x="321" y="498"><tspan fill="rgb(0,0,0)" stroke="none">90000</tspan></tspan></tspan></text>
 <path fill="none" stroke="rgb(0,69,134)" stroke-width="80" stroke-linejoin="round" d="M 13210,3752 L 14010,3752"/>
 <path fill="rgb(0,69,134)" stroke="none" d="M 13504,3647 L 13504,3858 13715,3858 13715,3647 13504,3647 Z"/>
 <path fill="none" stroke="rgb(0,69,134)" stroke-linejoin="round" d="M 13504,3647 L 13504,3858 13715,3858 13715,3647 13504,3647 Z"/>
 <path fill="none" stroke="rgb(255,66,14)" stroke-width="80" stroke-linejoin="round" d="M 13210,4250 L 14010,4250"/>
 <path fill="rgb(255,66,14)" stroke="none" d="M 13504,4250 L 13610,4356 13715,4250 13610,4145 13504,4250 Z"/>
 <path fill="none" stroke="rgb(255,66,14)" stroke-linejoin="round" d="M 13504,4250 L 13610,4356 13715,4250 13610,4145 13504,4250 Z"/>
 <path fill="none" stroke="rgb(255,211,32)" stroke-width="80" stroke-linejoin="round" d="M 13210,4747 L 14010,4747"/>
 <path fill="rgb(255,211,32)" stroke="none" d="M 13504,4642 L 13610,4853 13715,4642 13504,4642 Z"/>
 <path fill="none" stroke="rgb(255,211,32)" stroke-linejoin="round" d="M 13504,4642 L 13610,4853 13715,4642 13504,4642 Z"/>
 <path fill="none" stroke="rgb(87,157,28)" stroke-width="80" stroke-linejoin="round" d="M 13210,5245 L 14010,5245"/>
 <path fill="rgb(87,157,28)" stroke="none" d="M 13504,5351 L 13715,5351 13610,5140 13504,5351 Z"/>
 <path fill="none" stroke="rgb(87,157,28)" stroke-linejoin="round" d="M 13504,5351 L 13715,5351 13610,5140 13504,5351 Z"/>
 <text class="TextShape"><tspan class="TextParagraph" font-family="Liberation Sans" font-size="353px" font-weight="400"><tspan class="TextPosition" x="14110" y="3872"><tspan fill="rgb(0,0,0)" stroke="none">between</tspan></tspan></tspan></text>
 <text class="TextShape"><tspan class="TextParagraph" font-family="Liberation Sans" font-size="353px" font-weight="400"><tspan class="TextPosition" x="14110" y="4370"><tspan fill="rgb(0,0,0)" stroke="none">closeness</tspan></tspan></tspan></text>
 <text class="TextShape"><tspan class="TextParagraph" font-family="Liberation Sans" font-size="353px" font-weight="400"><tspan class="TextPosition" x="14110" y="4867"><tspan fill="rgb(0,0,0)" stroke="none">page</tspan></tspan></tspan></text>
 <text class="TextShape"><tspan class="TextParagraph" font-family="Liberation Sans" font-size="353px" font-weight="400"><tspan class="TextPosition" x="14110" y="5365"><tspan fill="rgb(0,0,0)" stroke="none">random</tspan></tspan></tspan></text>
</svg>