<?xml version="1.0" encoding="UTF-8"?>
<!DOCTYPE svg PUBLIC "-//W3C//DTD SVG 1.1//EN" "http://www.w3.org/Graphics/SVG/1.1/DTD/svg11.dtd">
<svg width="160mm" height="90mm" viewBox="0 0 16000 9000" version="1.1" xmlns="http://www.w3.org/2000/svg" stroke-width="28.222" stroke-linejoin="round" xml:space="preserve">
 <path fill="rgb(255,255,255)" stroke="none" d="M 8000,8999 L 0,8999 0,0 15999,0 15999,8999 8000,8999 Z"/>
 <path fill="none" stroke="rgb(179,179,179)" stroke-linejoin="round" d="M 6671,8172 L 941,8172 941,379 12401,379 12401,8172 6671,8172 Z"/>
 <path fill="none" stroke="rgb(179,179,179)" stroke-linejoin="round" d="M 12401,8171 L 941,8171"/>
 <path fill="none" stroke="rgb(179,179,179)" stroke-linejoin="round" d="M 12401,6872 L 941,6872"/>
 <path fill="none" stroke="rgb(179,179,179)" stroke-linejoin="round" d="M 12401,5573 L 941,5573"/>
 <path fill="none" stroke="rgb(179,179,179)" stroke-linejoin="round" d="M 12401,4275 L 941,4275"/>
 <path fill="none" stroke="rgb(179,179,179)" stroke-linejoin="round" d="M 12401,2976 L 941,2976"/>
 <path fill="none" stroke="rgb(179,179,179)" stroke-linejoin="round" d="M 12401,1677 L 941,1677"/>
 <path fill="none" stroke="rgb(179,179,179)" stroke-linejoin="round" d="M 12401,378 L 941,378"/>
 <path fill="none" stroke="rgb(179,179,179)" stroke-linejoin="round" d="M 941,8321 L 941,8171"/>
 <path fill="none" stroke="rgb(179,179,179)" stroke-linejoin="round" d="M 941,8321 L 941,8171"/>
 <path fill="none" stroke="rgb(179,179,179)" stroke-linejoin="round" d="M 2214,8321 L 2214,8171"/>
 <path fill="none" stroke="rgb(179,179,179)" stroke-linejoin="round" d="M 2214,8321 L 2214,8171"/>
 <path fill="none" stroke="rgb(179,179,179)" stroke-linejoin="round" d="M 3487,8321 L 3487,8171"/>
 <path fill="none" stroke="rgb(179,179,179)" stroke-linejoin="round" d="M 3487,8321 L 3487,8171"/>
 <path fill="none" stroke="rgb(179,179,179)" stroke-linejoin="round" d="M 4761,8321 L 4761,8171"/>
 <path fill="none" stroke="rgb(179,179,179)" stroke-linejoin="round" d="M 4761,8321 L 4761,8171"/>
 <path fill="none" stroke="rgb(179,179,179)" stroke-linejoin="round" d="M 6034,8321 L 6034,8171"/>
 <path fill="none" stroke="rgb(179,179,179)" stroke-linejoin="round" d="M 6034,8321 L 6034,8171"/>
 <path fill="none" stroke="rgb(179,179,179)" stroke-linejoin="round" d="M 7308,8321 L 7308,8171"/>
 <path fill="none" stroke="rgb(179,179,179)" stroke-linejoin="round" d="M 7308,8321 L 7308,8171"/>
 <path fill="none" stroke="rgb(179,179,179)" stroke-linejoin="round" d="M 8580,8321 L 8580,8171"/>
 <path fill="none" stroke="rgb(179,179,179)" stroke-linejoin="round" d="M 8580,8321 L 8580,8171"/>
 <path fill="none" stroke="rgb(179,179,179)" stroke-linejoin="round" d="M 9854,8321 L 9854,8171"/>
 <path fill="none" stroke="rgb(179,179,179)" stroke-linejoin="round" d="M 9854,8321 L 9854,8171"/>
 <path fill="none" stroke="rgb(179,179,179)" stroke-linejoin="round" d="M 11127,8321 L 11127,8171"/>
 <path fill="none" stroke="rgb(179,179,179)" stroke-linejoin="round" d="M 11127,8321 L 11127,8171"/>
 <path fill="none" stroke="rgb(179,179,179)" stroke-linejoin="round" d="M 12401,8321 L 12401,8171"/>
 <path fill="none" stroke="rgb(179,179,179)" stroke-linejoin="round" d="M 12401,8321 L 12401,8171"/>
 <path fill="none" stroke="rgb(179,179,179)" stroke-linejoin="round" d="M 941,8171 L 12401,8171"/>
 <path fill="none" stroke="rgb(179,179,179)" stroke-linejoin="round" d="M 791,8171 L 941,8171"/>
 <path fill="none" stroke="rgb(179,179,179)" stroke-linejoin="round" d="M 791,8171 L 941,8171"/>
 <path fill="none" stroke="rgb(179,179,179)" stroke-linejoin="round" d="M 791,6872 L 941,6872"/>
 <path fill="none" stroke="rgb(179,179,179)" stroke-linejoin="round" d="M 791,6872 L 941,6872"/>
 <path fill="none" stroke="rgb(179,179,179)" stroke-linejoin="round" d="M 791,5573 L 941,5573"/>
 <path fill="none" stroke="rgb(179,179,179)" stroke-linejoin="round" d="M 791,5573 L 941,5573"/>
 <path fill="none" stroke="rgb(179,179,179)" stroke-linejoin="round" d="M 791,4275 L 941,4275"/>
 <path fill="none" stroke="rgb(179,179,179)" stroke-linejoin="round" d="M 791,4275 L 941,4275"/>
 <path fill="none" stroke="rgb(179,179,179)" stroke-linejoin="round" d="M 791,2976 L 941,2976"/>
 <path fill="none" stroke="rgb(179,179,179)" stroke-linejoin="round" d="M 791,2976 L 941,2976"/>
 <path fill="none" stroke="rgb(179,179,179)" stroke-linejoin="round" d="M 791,1677 L 941,1677"/>
 <path fill="none" stroke="rgb(179,179,179)" stroke-linejoin="round" d="M 791,1677 L 941,1677"/>
 <path fill="none" stroke="rgb(179,179,179)" stroke-linejoin="round" d="M 791,378 L 941,378"/>
 <path fill="none" stroke="rgb(179,179,179)" stroke-linejoin="round" d="M 791,378 L 941,378"/>
 <path fill="none" stroke="rgb(179,179,179)" stroke-linejoin="round" d="M 941,8171 L 941,378"/>
 <path fill="none" stroke="rgb(87,157,28)" stroke-width="80" stroke-linejoin="round" d="M 941,8171 L 960,8135 980,8099 999,8064 1019,8028 1039,7992 1058,7956 1078,7920 1097,7883 1117,7846 1136,7809 1155,7771 1174,7733 1193,7694 1212,7655 1231,7616 1249,7575 1268,7534 1286,7493 1304,7451 1323,7408 1340,7364 1358,7319 1376,7274 1393,7228 1411,7180 1429,7132 1446,7083 1464,7034 1482,6983 1501,6931 1519,6878 1538,6824 1557,6770 1577,6714 1597,6657 1617,6599 1638,6540 1660,6479 1682,6418 1705,6355 1728,6291 1752,6227 1776,6161 1801,6096 1825,6030 1850,5964 1874,5898 1898,5834 1921,5770 1943,5707 1964,5645 1984,5586 2003,5528 2021,5472 2037,5419 2051,5368 2063,5321 2073,5276 2081,5235 2087,5198 2090,5165 2091,5135 2090,5108 2088,5082 2086,5059 2084,5036 2082,5013 2082,4990 2083,4966 2085,4940 2091,4911 2100,4880 2112,4845 2128,4806 2149,4762 2175,4712 2207,4656 2245,4593 2289,4523 2341,4446 2401,4359 2467,4265 2540,4163 2619,4056 2704,3943 2794,3827 2888,3706 2985,3584 3086,3460 3190,3336 3296,3211 3403,3088 3511,2968 3620,2850 3729,2736 3837,2627 3944,2523 4049,2427 4152,2338 4251,2257 4348,2185 4442,2123 4534,2068 4625,2021 4715,1982 4806,1949 4898,1922 4991,1900 5088,1884 5188,1872 5292,1864 5401,1859 5516,1857 5637,1858 5765,1860 5902,1863 6047,1867 6202,1871 6367,1875 6544,1878 6732,1879 6931,1879 7141,1877 7360,1874 7590,1870 7828,1865 8074,1858 8328,1851 8589,1842 8857,1833 9131,1823 9410,1813 9694,1801 9982,1790 10273,1777 10568,1765 10865,1752 11163,1738 11463,1725 11764,1712"/>
 <path fill="rgb(87,157,28)" stroke="none" d="M 816,8296 L 1066,8296 941,8046 816,8296 Z"/>
 <path fill="none" stroke="rgb(87,157,28)" stroke-linejoin="round" d="M 816,8296 L 1066,8296 941,8046 816,8296 Z"/>
 <path fill="rgb(87,157,28)" stroke="none" d="M 1198,7533 L 1448,7533 1323,7283 1198,7533 Z"/>
 <path fill="none" stroke="rgb(87,157,28)" stroke-linejoin="round" d="M 1198,7533 L 1448,7533 1323,7283 1198,7533 Z"/>
 <path fill="rgb(87,157,28)" stroke="none" d="M 1580,6480 L 1830,6480 1705,6230 1580,6480 Z"/>
 <path fill="none" stroke="rgb(87,157,28)" stroke-linejoin="round" d="M 1580,6480 L 1830,6480 1705,6230 1580,6480 Z"/>
 <path fill="rgb(87,157,28)" stroke="none" d="M 1962,5323 L 2212,5323 2087,5073 1962,5323 Z"/>
 <path fill="none" stroke="rgb(87,157,28)" stroke-linejoin="round" d="M 1962,5323 L 2212,5323 2087,5073 1962,5323 Z"/>
 <path fill="rgb(87,157,28)" stroke="none" d="M 2216,4570 L 2466,4570 2341,4321 2216,4570 Z"/>
 <path fill="none" stroke="rgb(87,157,28)" stroke-linejoin="round" d="M 2216,4570 L 2466,4570 2341,4321 2216,4570 Z"/>
 <path fill="rgb(87,157,28)" stroke="none" d="M 4126,2382 L 4376,2382 4251,2132 4126,2382 Z"/>
 <path fill="none" stroke="rgb(87,157,28)" stroke-linejoin="round" d="M 4126,2382 L 4376,2382 4251,2132 4126,2382 Z"/>
 <path fill="rgb(87,157,28)" stroke="none" d="M 6419,2003 L 6669,2003 6544,1753 6419,2003 Z"/>
 <path fill="none" stroke="rgb(87,157,28)" stroke-linejoin="round" d="M 6419,2003 L 6669,2003 6544,1753 6419,2003 Z"/>
 <path fill="rgb(87,157,28)" stroke="none" d="M 11639,1837 L 11889,1837 11764,1587 11639,1837 Z"/>
 <path fill="none" stroke="rgb(87,157,28)" stroke-linejoin="round" d="M 11639,1837 L 11889,1837 11764,1587 11639,1837 Z"/>
 <path fill="none" stroke="rgb(255,211,32)" stroke-width="80" stroke-linejoin="round" d="M 941,8171 L 960,8146 980,8121 999,8096 1019,8071 1039,8046 1058,8020 1078,7995 1097,7969 1117,7943 1136,7917 1155,7890 1174,7863 1193,7835 1212,7807 1231,7778 1249,7749 1268,7720 1286,7689 1304,7658 1323,7627 1340,7595 1358,7561 1376,7528 1393,7493 1411,7457 1429,7421 1446,7384 1464,7346 1482,7307 1501,7267 1519,7226 1538,7184 1557,7141 1577,7097 1597,7051 1617,7005 1638,6957 1660,6909 1682,6859 1705,6808 1728,6755 1752,6702 1776,6648 1801,6593 1825,6538 1850,6483 1874,6429 1898,6375 1921,6321 1943,6269 1964,6218 1984,6168 2003,6120 2021,6074 2037,6031 2051,5990 2063,5951 2073,5916 2081,5884 2087,5855 2090,5830 2091,5809 2090,5789 2088,5772 2086,5755 2084,5739 2082,5723 2082,5707 2083,5688 2085,5668 2091,5645 2100,5618 2112,5587 2128,5552 2149,5511 2175,5464 2207,5410 2245,5349 2289,5281 2341,5203 2401,5116 2467,5021 2540,4918 2619,4809 2704,4695 2794,4575 2888,4453 2985,4327 3086,4198 3190,4069 3296,3940 3403,3812 3511,3685 3620,3561 3729,3440 3837,3324 3944,3214 4049,3109 4152,3012 4251,2924 4348,2844 4442,2772 4534,2709 4625,2653 4715,2604 4806,2561 4898,2524 4991,2493 5088,2466 5188,2443 5292,2423 5401,2407 5516,2393 5637,2382 5765,2371 5902,2361 6047,2352 6202,2342 6367,2332 6544,2320 6732,2306 6931,2291 7141,2274 7360,2255 7590,2234 7828,2212 8074,2189 8328,2164 8589,2139 8857,2112 9131,2084 9410,2056 9694,2026 9982,1996 10273,1965 10568,1934 10865,1903 11163,1871 11463,1839 11764,1807"/>
 <path fill="rgb(255,211,32)" stroke="none" d="M 816,8046 L 941,8296 1066,8046 816,8046 Z"/>
 <path fill="none" stroke="rgb(255,211,32)" stroke-linejoin="round" d="M 816,8046 L 941,8296 1066,8046 816,8046 Z"/>
 <path fill="rgb(255,211,32)" stroke="none" d="M 1198,7502 L 1323,7752 1448,7502 1198,7502 Z"/>
 <path fill="none" stroke="rgb(255,211,32)" stroke-linejoin="round" d="M 1198,7502 L 1323,7752 1448,7502 1198,7502 Z"/>
 <path fill="rgb(255,211,32)" stroke="none" d="M 1580,6683 L 1705,6933 1830,6683 1580,6683 Z"/>
 <path fill="none" stroke="rgb(255,211,32)" stroke-linejoin="round" d="M 1580,6683 L 1705,6933 1830,6683 1580,6683 Z"/>
 <path fill="rgb(255,211,32)" stroke="none" d="M 1962,5730 L 2087,5980 2212,5730 1962,5730 Z"/>
 <path fill="none" stroke="rgb(255,211,32)" stroke-linejoin="round" d="M 1962,5730 L 2087,5980 2212,5730 1962,5730 Z"/>
 <path fill="rgb(255,211,32)" stroke="none" d="M 2216,5078 L 2341,5328 2466,5078 2216,5078 Z"/>
 <path fill="none" stroke="rgb(255,211,32)" stroke-linejoin="round" d="M 2216,5078 L 2341,5328 2466,5078 2216,5078 Z"/>
 <path fill="rgb(255,211,32)" stroke="none" d="M 4126,2799 L 4251,3049 4376,2799 4126,2799 Z"/>
 <path fill="none" stroke="rgb(255,211,32)" stroke-linejoin="round" d="M 4126,2799 L 4251,3049 4376,2799 4126,2799 Z"/>
 <path fill="rgb(255,211,32)" stroke="none" d="M 6419,2195 L 6544,2445 6669,2195 6419,2195 Z"/>
 <path fill="none" stroke="rgb(255,211,32)" stroke-linejoin="round" d="M 6419,2195 L 6544,2445 6669,2195 6419,2195 Z"/>
 <path fill="rgb(255,211,32)" stroke="none" d="M 11639,1682 L 11764,1932 11889,1682 11639,1682 Z"/>
 <path fill="none" stroke="rgb(255,211,32)" stroke-linejoin="round" d="M 11639,1682 L 11764,1932 11889,1682 11639,1682 Z"/>
 <path fill="none" stroke="rgb(255,66,14)" stroke-width="80" stroke-linejoin="round" d="M 941,8171 L 960,8145 980,8120 999,8094 1019,8069 1039,8043 1058,8018 1078,7992 1097,7965 1117,7939 1136,7912 1155,7885 1174,7857 1193,7829 1212,7801 1231,7772 1249,7743 1268,7713 1286,7683 1304,7652 1323,7620 1340,7588 1358,7555 1376,7521 1393,7486 1411,7451 1429,7415 1446,7378 1464,7340 1482,7301 1501,7261 1519,7220 1538,7179 1557,7136 1577,7092 1597,7047 1617,7001 1638,6953 1660,6905 1682,6855 1705,6804 1728,6751 1752,6698 1776,6643 1801,6589 1825,6534 1850,6478 1874,6424 1898,6369 1921,6316 1943,6263 1964,6212 1984,6162 2003,6114 2021,6068 2037,6024 2051,5983 2063,5945 2073,5909 2081,5878 2087,5849 2090,5825 2091,5803 2090,5784 2088,5767 2086,5751 2084,5736 2082,5721 2082,5704 2083,5687 2085,5667 2091,5644 2100,5618 2112,5588 2128,5554 2149,5513 2175,5467 2207,5414 2245,5354 2289,5285 2341,5208 2401,5122 2467,5027 2540,4925 2619,4816 2704,4701 2794,4582 2888,4460 2985,4334 3086,4206 3190,4077 3296,3947 3403,3819 3511,3692 3620,3568 3729,3448 3837,3332 3944,3222 4049,3118 4152,3021 4251,2932 4348,2853 4442,2782 4534,2719 4625,2663 4715,2615 4806,2572 4898,2536 4991,2505 5088,2478 5188,2456 5292,2437 5401,2422 5516,2408 5637,2397 5765,2387 5902,2378 6047,2369 6202,2360 6367,2350 6544,2338 6732,2325 6931,2309 7141,2292 7360,2274 7590,2253 7828,2231 8074,2208 8328,2184 8589,2158 8857,2131 9131,2104 9410,2075 9694,2045 9982,2015 10273,1985 10568,1953 10865,1922 11163,1890 11463,1858 11764,1826"/>
 <path fill="rgb(255,66,14)" stroke="none" d="M 816,8171 L 941,8296 1066,8171 941,8046 816,8171 Z"/>
 <path fill="none" stroke="rgb(255,66,14)" stroke-linejoin="round" d="M 816,8171 L 941,8296 1066,8171 941,8046 816,8171 Z"/>
 <path fill="rgb(255,66,14)" stroke="none" d="M 1198,7620 L 1323,7745 1448,7620 1323,7495 1198,7620 Z"/>
 <path fill="none" stroke="rgb(255,66,14)" stroke-linejoin="round" d="M 1198,7620 L 1323,7745 1448,7620 1323,7495 1198,7620 Z"/>
 <path fill="rgb(255,66,14)" stroke="none" d="M 1580,6804 L 1705,6929 1830,6804 1705,6679 1580,6804 Z"/>
 <path fill="none" stroke="rgb(255,66,14)" stroke-linejoin="round" d="M 1580,6804 L 1705,6929 1830,6804 1705,6679 1580,6804 Z"/>
 <path fill="rgb(255,66,14)" stroke="none" d="M 1962,5849 L 2087,5974 2212,5849 2087,5724 1962,5849 Z"/>
 <path fill="none" stroke="rgb(255,66,14)" stroke-linejoin="round" d="M 1962,5849 L 2087,5974 2212,5849 2087,5724 1962,5849 Z"/>
 <path fill="rgb(255,66,14)" stroke="none" d="M 2216,5208 L 2341,5333 2466,5208 2341,5083 2216,5208 Z"/>
 <path fill="none" stroke="rgb(255,66,14)" stroke-linejoin="round" d="M 2216,5208 L 2341,5333 2466,5208 2341,5083 2216,5208 Z"/>
 <path fill="rgb(255,66,14)" stroke="none" d="M 4126,2932 L 4251,3057 4376,2932 4251,2807 4126,2932 Z"/>
 <path fill="none" stroke="rgb(255,66,14)" stroke-linejoin="round" d="M 4126,2932 L 4251,3057 4376,2932 4251,2807 4126,2932 Z"/>
 <path fill="rgb(255,66,14)" stroke="none" d="M 6419,2338 L 6544,2463 6669,2338 6544,2213 6419,2338 Z"/>
 <path fill="none" stroke="rgb(255,66,14)" stroke-linejoin="round" d="M 6419,2338 L 6544,2463 6669,2338 6544,2213 6419,2338 Z"/>
 <path fill="rgb(255,66,14)" stroke="none" d="M 11639,1826 L 11764,1951 11889,1826 11764,1701 11639,1826 Z"/>
 <path fill="none" stroke="rgb(255,66,14)" stroke-linejoin="round" d="M 11639,1826 L 11764,1951 11889,1826 11764,1701 11639,1826 Z"/>
 <path fill="none" stroke="rgb(0,69,134)" stroke-width="80" stroke-linejoin="round" d="M 941,8171 L 960,8145 980,8120 999,8094 1019,8069 1039,8043 1058,8018 1078,7992 1097,7965 1117,7939 1136,7912 1155,7885 1174,7857 1193,7829 1212,7801 1231,7772 1249,7743 1268,7713 1286,7683 1304,7652 1323,7620 1340,7588 1358,7555 1376,7521 1393,7487 1411,7451 1429,7415 1446,7378 1464,7341 1482,7302 1501,7262 1519,7222 1538,7180 1557,7138 1577,7094 1597,7049 1617,7003 1638,6956 1660,6908 1682,6859 1705,6808 1728,6756 1752,6703 1776,6649 1801,6595 1825,6541 1850,6486 1874,6432 1898,6378 1921,6325 1943,6273 1964,6222 1984,6172 2003,6124 2021,6078 2037,6034 2051,5993 2063,5954 2073,5919 2081,5886 2087,5857 2090,5831 2091,5808 2090,5788 2088,5769 2086,5751 2084,5734 2082,5717 2082,5698 2083,5678 2085,5655 2091,5630 2100,5601 2112,5568 2128,5530 2149,5487 2175,5437 2207,5380 2245,5316 2289,5244 2341,5163 2401,5072 2467,4973 2540,4867 2619,4754 2704,4635 2794,4511 2888,4385 2985,4255 3086,4123 3190,3989 3296,3856 3403,3724 3511,3594 3620,3466 3729,3342 3837,3223 3944,3110 4049,3003 4152,2904 4251,2813 4348,2732 4442,2659 4534,2595 4625,2538 4715,2489 4806,2446 4898,2409 4991,2378 5088,2352 5188,2330 5292,2312 5401,2298 5516,2286 5637,2276 5765,2268 5902,2260 6047,2254 6202,2247 6367,2239 6544,2231 6732,2220 6931,2208 7141,2195 7360,2179 7590,2163 7828,2145 8074,2126 8328,2105 8589,2084 8857,2062 9131,2038 9410,2014 9694,1989 9982,1964 10273,1938 10568,1912 10865,1885 11163,1858 11463,1831 11764,1804"/>
 <path fill="rgb(0,69,134)" stroke="none" d="M 816,8046 L 816,8296 1066,8296 1066,8046 816,8046 Z"/>
 <path fill="none" stroke="rgb(0,69,134)" stroke-linejoin="round" d="M 816,8046 L 816,8296 1066,8296 1066,8046 816,8046 Z"/>
 <path fill="rgb(0,69,134)" stroke="none" d="M 1198,7495 L 1198,7745 1448,7745 1448,7495 1198,7495 Z"/>
 <path fill="none" stroke="rgb(0,69,134)" stroke-linejoin="round" d="M 1198,7495 L 1198,7745 1448,7745 1448,7495 1198,7495 Z"/>
 <path fill="rgb(0,69,134)" stroke="none" d="M 1580,6683 L 1580,6933 1830,6933 1830,6683 1580,6683 Z"/>
 <path fill="none" stroke="rgb(0,69,134)" stroke-linejoin="round" d="M 1580,6683 L 1580,6933 1830,6933 1830,6683 1580,6683 Z"/>
 <path fill="rgb(0,69,134)" stroke="none" d="M 1962,5732 L 1962,5982 2212,5982 2212,5732 1962,5732 Z"/>
 <path fill="none" stroke="rgb(0,69,134)" stroke-linejoin="round" d="M 1962,5732 L 1962,5982 2212,5982 2212,5732 1962,5732 Z"/>
 <path fill="rgb(0,69,134)" stroke="none" d="M 2216,5038 L 2216,5288 2466,5288 2466,5038 2216,5038 Z"/>
 <path fill="none" stroke="rgb(0,69,134)" stroke-linejoin="round" d="M 2216,5038 L 2216,5288 2466,5288 2466,5038 2216,5038 Z"/>
 <path fill="rgb(0,69,134)" stroke="none" d="M 4126,2688 L 4126,2938 4376,2938 4376,2688 4126,2688 Z"/>
 <path fill="none" stroke="rgb(0,69,134)" stroke-linejoin="round" d="M 4126,2688 L 4126,2938 4376,2938 4376,2688 4126,2688 Z"/>
 <path fill="rgb(0,69,134)" stroke="none" d="M 6419,2106 L 6419,2356 6669,2356 6669,2106 6419,2106 Z"/>
 <path fill="none" stroke="rgb(0,69,134)" stroke-linejoin="round" d="M 6419,2106 L 6419,2356 6669,2356 6669,2106 6419,2106 Z"/>
 <path fill="rgb(0,69,134)" stroke="none" d="M 11639,1679 L 11639,1929 11889,1929 11889,1679 11639,1679 Z"/>
 <path fill="none" stroke="rgb(0,69,134)" stroke-linejoin="round" d="M 11639,1679 L 11639,1929 11889,1929 11889,1679 11639,1679 Z"/>
 <text class="TextShape"><tspan class="TextParagraph" font-family="Liberation Sans, sans-serif" font-size="353px" font-weight="400"><tspan class="TextPosition" x="848" y="8739"><tspan fill="rgb(0,0,0)" stroke="none">0</tspan></tspan></tspan></text>
 <text class="TextShape"><tspan class="TextParagraph" font-family="Liberation Sans, sans-serif" font-size="353px" font-weight="400"><tspan class="TextPosition" x="2029" y="8739"><tspan fill="rgb(0,0,0)" stroke="none">10</tspan></tspan></tspan></text>
 <text class="TextShape"><tspan class="TextParagraph" font-family="Liberation Sans, sans-serif" font-size="353px" font-weight="400"><tspan class="TextPosition" x="3302" y="8739"><tspan fill="rgb(0,0,0)" stroke="none">20</tspan></tspan></tspan></text>
 <text class="TextShape"><tspan class="TextParagraph" font-family="Liberation Sans, sans-serif" font-size="353px" font-weight="400"><tspan class="TextPosition" x="4576" y="8739"><tspan fill="rgb(0,0,0)" stroke="none">30</tspan></tspan></tspan></text>
 <text class="TextShape"><tspan class="TextParagraph" font-family="Liberation Sans, sans-serif" font-size="353px" font-weight="400"><tspan class="TextPosition" x="5849" y="8739"><tspan fill="rgb(0,0,0)" stroke="none">40</tspan></tspan></tspan></text>
 <text class="TextShape"><tspan class="TextParagraph" font-family="Liberation Sans, sans-serif" font-size="353px" font-weight="400"><tspan class="TextPosition" x="7123" y="8739"><tspan fill="rgb(0,0,0)" stroke="none">50</tspan></tspan></tspan></text>
 <text class="TextShape"><tspan class="TextParagraph" font-family="Liberation Sans, sans-serif" font-size="353px" font-weight="400"><tspan class="TextPosition" x="8396" y="8739"><tspan fill="rgb(0,0,0)" stroke="none">60</tspan></tspan></tspan></text>
 <text class="TextShape"><tspan class="TextParagraph" font-family="Liberation Sans, sans-serif" font-size="353px" font-weight="400"><tspan class="TextPosition" x="9670" y="8739"><tspan fill="rgb(0,0,0)" stroke="none">70</tspan></tspan></tspan></text>
 <text class="TextShape"><tspan class="TextParagraph" font-family="Liberation Sans, sans-serif" font-size="353px" font-weight="400"><tspan class="TextPosition" x="10943" y="8739"><tspan fill="rgb(0,0,0)" stroke="none">80</tspan></tspan></tspan></text>
 <text class="TextShape"><tspan class="TextParagraph" font-family="Liberation Sans, sans-serif" font-size="353px" font-weight="400"><tspan class="TextPosition" x="12217" y="8739"><tspan fill="rgb(0,0,0)" stroke="none">90</tspan></tspan></tspan></text>
 <text class="TextShape"><tspan class="TextParagraph" font-family="Liberation Sans, sans-serif" font-size="353px" font-weight="400"><tspan class="TextPosition" x="506" y="8292"><tspan fill="rgb(0,0,0)" stroke="none">0</tspan></tspan></tspan></text>
 <text class="TextShape"><tspan class="TextParagraph" font-family="Liberation Sans, sans-serif" font-size="353px" font-weight="400"><tspan class="TextPosition" x="321" y="6993"><tspan fill="rgb(0,0,0)" stroke="none">20</tspan></tspan></tspan></text>
 <text class="TextShape"><tspan class="TextParagraph" font-family="Liberation Sans, sans-serif" font-size="353px" font-weight="400"><tspan class="TextPosition" x="321" y="5694"><tspan fill="rgb(0,0,0)" stroke="none">40</tspan></tspan></tspan></text>
 <text class="TextShape"><tspan class="TextParagraph" font-family="Liberation Sans, sans-serif" font-size="353px" font-weight="400"><tspan class="TextPosition" x="321" y="4395"><tspan fill="rgb(0,0,0)" stroke="none">60</tspan></tspan></tspan></text>
 <text class="TextShape"><tspan class="TextParagraph" font-family="Liberation Sans, sans-serif" font-size="353px" font-weight="400"><tspan class="TextPosition" x="321" y="3096"><tspan fill="rgb(0,0,0)" stroke="none">80</tspan></tspan></tspan></text>
 <text class="TextShape"><tspan class="TextParagraph" font-family="Liberation Sans, sans-serif" font-size="353px" font-weight="400"><tspan class="TextPosition" x="135" y="1797"><tspan fill="rgb(0,0,0)" stroke="none">100</tspan></tspan></tspan></text>
 <text class="TextShape"><tspan class="TextParagraph" font-family="Liberation Sans, sans-serif" font-size="353px" font-weight="400"><tspan class="TextPosition" x="135" y="498"><tspan fill="rgb(0,0,0)" stroke="none">120</tspan></tspan></tspan></text>
 <path fill="none" stroke="rgb(0,69,134)" stroke-width="80" stroke-linejoin="round" d="M 13210,3752 L 14010,3752"/>
 <path fill="rgb(0,69,134)" stroke="none" d="M 13504,3647 L 13504,3858 13715,3858 13715,3647 13504,3647 Z"/>
 <path fill="none" stroke="rgb(0,69,134)" stroke-linejoin="round" d="M 13504,3647 L 13504,3858 13715,3858 13715,3647 13504,3647 Z"/>
 <path fill="none" stroke="rgb(255,66,14)" stroke-width="80" stroke-linejoin="round" d="M 13210,4250 L 14010,4250"/>
 <path fill="rgb(255,66,14)" stroke="none" d="M 13504,4250 L 13610,4356 13715,4250 13610,4145 13504,4250 Z"/>
 <path fill="none" stroke="rgb(255,66,14)" stroke-linejoin="round" d="M 13504,4250 L 13610,4356 13715,4250 13610,4145 13504,4250 Z"/>
 <path fill="none" stroke="rgb(255,211,32)" stroke-width="80" stroke-linejoin="round" d="M 13210,4747 L 14010,4747"/>
 <path fill="rgb(255,211,32)" stroke="none" d="M 13504,4642 L 13610,4853 13715,4642 13504,4642 Z"/>
 <path fill="none" stroke="rgb(255,211,32)" stroke-linejoin="round" d="M 13504,4642 L 13610,4853 13715,4642 13504,4642 Z"/>
 <path fill="none" stroke="rgb(87,157,28)" stroke-width="80" stroke-linejoin="round" d="M 13210,5245 L 14010,5245"/>
 <path fill="rgb(87,157,28)" stroke="none" d="M 13504,5351 L 13715,5351 13610,5140 13504,5351 Z"/>
 <path fill="none" stroke="rgb(87,157,28)" stroke-linejoin="round" d="M 13504,5351 L 13715,5351 13610,5140 13504,5351 Z"/>
 <text class="TextShape"><tspan class="TextParagraph" font-family="Liberation Sans, sans-serif" font-size="353px" font-weight="400"><tspan class="TextPosition" x="14110" y="3872"><tspan fill="rgb(0,0,0)" stroke="none">between</tspan></tspan></tspan></text>
 <text class="TextShape"><tspan class="TextParagraph" font-family="Liberation Sans, sans-serif" font-size="353px" font-weight="400"><tspan class="TextPosition" x="14110" y="4370"><tspan fill="rgb(0,0,0)" stroke="none">closeness</tspan></tspan></tspan></text>
 <text class="TextShape"><tspan class="TextParagraph" font-family="Liberation Sans, sans-serif" font-size="353px" font-weight="400"><tspan class="TextPosition" x="14110" y="4867"><tspan fill="rgb(0,0,0)" stroke="none">page</tspan></tspan></tspan></text>
 <text class="TextShape"><tspan class="TextParagraph" font-family="Liberation Sans, sans-serif" font-size="353px" font-weight="400"><tspan class="TextPosition" x="14110" y="5365"><tspan fill="rgb(0,0,0)" stroke="none">random</tspan></tspan></tspan></text>
</svg>