<?xml version="1.0" encoding="UTF-8"?>
<!DOCTYPE svg PUBLIC "-//W3C//DTD SVG 1.1//EN" "http://www.w3.org/Graphics/SVG/1.1/DTD/svg11.dtd">
<svg width="160mm" height="90mm" viewBox="0 0 16000 9000" version="1.1" xmlns="http://www.w3.org/2000/svg" stroke-width="28.222" stroke-linejoin="round" xml:space="preserve">
 <path fill="rgb(255,255,255)" stroke="none" d="M 8000,8999 L 0,8999 0,0 15999,0 15999,8999 8000,8999 Z"/>
 <path fill="none" stroke="rgb(179,179,179)" stroke-linejoin="round" d="M 6671,8172 L 941,8172 941,379 12401,379 12401,8172 6671,8172 Z"/>
 <path fill="none" stroke="rgb(179,179,179)" stroke-linejoin="round" d="M 12401,8171 L 941,8171"/>
 <path fill="none" stroke="rgb(179,179,179)" stroke-linejoin="round" d="M 12401,7391 L 941,7391"/>
 <path fill="none" stroke="rgb(179,179,179)" stroke-linejoin="round" d="M 12401,6612 L 941,6612"/>
 <path fill="none" stroke="rgb(179,179,179)" stroke-linejoin="round" d="M 12401,5832 L 941,5832"/>
 <path fill="none" stroke="rgb(179,179,179)" stroke-linejoin="round" d="M 12401,5053 L 941,5053"/>
 <path fill="none" stroke="rgb(179,179,179)" stroke-linejoin="round" d="M 12401,4275 L 941,4275"/>
 <path fill="none" stroke="rgb(179,179,179)" stroke-linejoin="round" d="M 12401,3495 L 941,3495"/>
 <path fill="none" stroke="rgb(179,179,179)" stroke-linejoin="round" d="M 12401,2716 L 941,2716"/>
 <path fill="none" stroke="rgb(179,179,179)" stroke-linejoin="round" d="M 12401,1936 L 941,1936"/>
 <path fill="none" stroke="rgb(179,179,179)" stroke-linejoin="round" d="M 12401,1157 L 941,1157"/>
 <path fill="none" stroke="rgb(179,179,179)" stroke-linejoin="round" d="M 12401,378 L 941,378"/>
 <path fill="none" stroke="rgb(179,179,179)" stroke-linejoin="round" d="M 941,8321 L 941,8171"/>
 <path fill="none" stroke="rgb(179,179,179)" stroke-linejoin="round" d="M 941,8321 L 941,8171"/>
 <path fill="none" stroke="rgb(179,179,179)" stroke-linejoin="round" d="M 2214,8321 L 2214,8171"/>
 <path fill="none" stroke="rgb(179,179,179)" stroke-linejoin="round" d="M 2214,8321 L 2214,8171"/>
 <path fill="none" stroke="rgb(179,179,179)" stroke-linejoin="round" d="M 3487,8321 L 3487,8171"/>
 <path fill="none" stroke="rgb(179,179,179)" stroke-linejoin="round" d="M 3487,8321 L 3487,8171"/>
 <path fill="none" stroke="rgb(179,179,179)" stroke-linejoin="round" d="M 4761,8321 L 4761,8171"/>
 <path fill="none" stroke="rgb(179,179,179)" stroke-linejoin="round" d="M 4761,8321 L 4761,8171"/>
 <path fill="none" stroke="rgb(179,179,179)" stroke-linejoin="round" d="M 6034,8321 L 6034,8171"/>
 <path fill="none" stroke="rgb(179,179,179)" stroke-linejoin="round" d="M 6034,8321 L 6034,8171"/>
 <path fill="none" stroke="rgb(179,179,179)" stroke-linejoin="round" d="M 7308,8321 L 7308,8171"/>
 <path fill="none" stroke="rgb(179,179,179)" stroke-linejoin="round" d="M 7308,8321 L 7308,8171"/>
 <path fill="none" stroke="rgb(179,179,179)" stroke-linejoin="round" d="M 8580,8321 L 8580,8171"/>
 <path fill="none" stroke="rgb(179,179,179)" stroke-linejoin="round" d="M 8580,8321 L 8580,8171"/>
 <path fill="none" stroke="rgb(179,179,179)" stroke-linejoin="round" d="M 9854,8321 L 9854,8171"/>
 <path fill="none" stroke="rgb(179,179,179)" stroke-linejoin="round" d="M 9854,8321 L 9854,8171"/>
 <path fill="none" stroke="rgb(179,179,179)" stroke-linejoin="round" d="M 11127,8321 L 11127,8171"/>
 <path fill="none" stroke="rgb(179,179,179)" stroke-linejoin="round" d="M 11127,8321 L 11127,8171"/>
 <path fill="none" stroke="rgb(179,179,179)" stroke-linejoin="round" d="M 12401,8321 L 12401,8171"/>
 <path fill="none" stroke="rgb(179,179,179)" stroke-linejoin="round" d="M 12401,8321 L 12401,8171"/>
 <path fill="none" stroke="rgb(179,179,179)" stroke-linejoin="round" d="M 941,8171 L 12401,8171"/>
 <path fill="none" stroke="rgb(179,179,179)" stroke-linejoin="round" d="M 791,8171 L 941,8171"/>
 <path fill="none" stroke="rgb(179,179,179)" stroke-linejoin="round" d="M 791,8171 L 941,8171"/>
 <path fill="none" stroke="rgb(179,179,179)" stroke-linejoin="round" d="M 791,7391 L 941,7391"/>
 <path fill="none" stroke="rgb(179,179,179)" stroke-linejoin="round" d="M 791,7391 L 941,7391"/>
 <path fill="none" stroke="rgb(179,179,179)" stroke-linejoin="round" d="M 791,6612 L 941,6612"/>
 <path fill="none" stroke="rgb(179,179,179)" stroke-linejoin="round" d="M 791,6612 L 941,6612"/>
 <path fill="none" stroke="rgb(179,179,179)" stroke-linejoin="round" d="M 791,5832 L 941,5832"/>
 <path fill="none" stroke="rgb(179,179,179)" stroke-linejoin="round" d="M 791,5832 L 941,5832"/>
 <path fill="none" stroke="rgb(179,179,179)" stroke-linejoin="round" d="M 791,5053 L 941,5053"/>
 <path fill="none" stroke="rgb(179,179,179)" stroke-linejoin="round" d="M 791,5053 L 941,5053"/>
 <path fill="none" stroke="rgb(179,179,179)" stroke-linejoin="round" d="M 791,4275 L 941,4275"/>
 <path fill="none" stroke="rgb(179,179,179)" stroke-linejoin="round" d="M 791,4275 L 941,4275"/>
 <path fill="none" stroke="rgb(179,179,179)" stroke-linejoin="round" d="M 791,3495 L 941,3495"/>
 <path fill="none" stroke="rgb(179,179,179)" stroke-linejoin="round" d="M 791,3495 L 941,3495"/>
 <path fill="none" stroke="rgb(179,179,179)" stroke-linejoin="round" d="M 791,2716 L 941,2716"/>
 <path fill="none" stroke="rgb(179,179,179)" stroke-linejoin="round" d="M 791,2716 L 941,2716"/>
 <path fill="none" stroke="rgb(179,179,179)" stroke-linejoin="round" d="M 791,1936 L 941,1936"/>
 <path fill="none" stroke="rgb(179,179,179)" stroke-linejoin="round" d="M 791,1936 L 941,1936"/>
 <path fill="none" stroke="rgb(179,179,179)" stroke-linejoin="round" d="M 791,1157 L 941,1157"/>
 <path fill="none" stroke="rgb(179,179,179)" stroke-linejoin="round" d="M 791,1157 L 941,1157"/>
 <path fill="none" stroke="rgb(179,179,179)" stroke-linejoin="round" d="M 791,378 L 941,378"/>
 <path fill="none" stroke="rgb(179,179,179)" stroke-linejoin="round" d="M 791,378 L 941,378"/>
 <path fill="none" stroke="rgb(179,179,179)" stroke-linejoin="round" d="M 941,8171 L 941,378"/>
 <path fill="none" stroke="rgb(87,157,28)" stroke-width="80" stroke-linejoin="round" d="M 941,8171 L 960,8138 980,8106 999,8074 1019,8042 1039,8010 1058,7978 1078,7946 1097,7914 1117,7882 1136,7851 1155,7819 1174,7788 1193,7757 1212,7726 1231,7695 1249,7665 1268,7635 1286,7605 1304,7575 1323,7546 1340,7517 1358,7488 1376,7460 1393,7431 1411,7403 1429,7375 1446,7346 1464,7318 1482,7290 1501,7261 1519,7232 1538,7203 1557,7174 1577,7144 1597,7114 1617,7084 1638,7053 1660,7022 1682,6990 1705,6957 1728,6923 1752,6890 1776,6855 1801,6821 1825,6787 1850,6752 1874,6719 1898,6685 1921,6653 1943,6621 1964,6591 1984,6562 2003,6534 2021,6508 2037,6483 2051,6461 2063,6440 2073,6423 2081,6407 2087,6394 2090,6384 2091,6377 2090,6371 2088,6366 2086,6362 2084,6358 2082,6354 2082,6349 2083,6342 2085,6333 2091,6322 2100,6308 2112,6289 2128,6267 2149,6240 2175,6208 2207,6170 2245,6125 2289,6074 2341,6015 2401,5948 2467,5874 2540,5793 2619,5706 2704,5614 2794,5516 2888,5415 2985,5310 3086,5202 3190,5092 3296,4980 3403,4868 3511,4754 3620,4642 3729,4530 3837,4420 3944,4312 4049,4207 4152,4105 4251,4007 4348,3914 4442,3825 4534,3740 4625,3659 4715,3581 4806,3507 4898,3436 4991,3367 5088,3300 5188,3235 5292,3172 5401,3109 5516,3048 5637,2988 5765,2927 5902,2867 6047,2806 6202,2745 6367,2683 6544,2619 6732,2554 6931,2488 7141,2420 7360,2350 7590,2279 7828,2207 8074,2134 8328,2060 8589,1985 8857,1909 9131,1833 9410,1755 9694,1677 9982,1598 10273,1519 10568,1440 10865,1360 11163,1280 11463,1199 11764,1119"/>
 <path fill="rgb(87,157,28)" stroke="none" d="M 816,8296 L 1066,8296 941,8046 816,8296 Z"/>
 <path fill="none" stroke="rgb(87,157,28)" stroke-linejoin="round" d="M 816,8296 L 1066,8296 941,8046 816,8296 Z"/>
 <path fill="rgb(87,157,28)" stroke="none" d="M 1198,7671 L 1448,7671 1323,7421 1198,7671 Z"/>
 <path fill="none" stroke="rgb(87,157,28)" stroke-linejoin="round" d="M 1198,7671 L 1448,7671 1323,7421 1198,7671 Z"/>
 <path fill="rgb(87,157,28)" stroke="none" d="M 1580,7082 L 1830,7082 1705,6832 1580,7082 Z"/>
 <path fill="none" stroke="rgb(87,157,28)" stroke-linejoin="round" d="M 1580,7082 L 1830,7082 1705,6832 1580,7082 Z"/>
 <path fill="rgb(87,157,28)" stroke="none" d="M 1962,6519 L 2212,6519 2087,6269 1962,6519 Z"/>
 <path fill="none" stroke="rgb(87,157,28)" stroke-linejoin="round" d="M 1962,6519 L 2212,6519 2087,6269 1962,6519 Z"/>
 <path fill="rgb(87,157,28)" stroke="none" d="M 2216,6140 L 2466,6140 2341,5890 2216,6140 Z"/>
 <path fill="none" stroke="rgb(87,157,28)" stroke-linejoin="round" d="M 2216,6140 L 2466,6140 2341,5890 2216,6140 Z"/>
 <path fill="rgb(87,157,28)" stroke="none" d="M 4126,4132 L 4376,4132 4251,3882 4126,4132 Z"/>
 <path fill="none" stroke="rgb(87,157,28)" stroke-linejoin="round" d="M 4126,4132 L 4376,4132 4251,3882 4126,4132 Z"/>
 <path fill="rgb(87,157,28)" stroke="none" d="M 6419,2744 L 6669,2744 6544,2494 6419,2744 Z"/>
 <path fill="none" stroke="rgb(87,157,28)" stroke-linejoin="round" d="M 6419,2744 L 6669,2744 6544,2494 6419,2744 Z"/>
 <path fill="rgb(87,157,28)" stroke="none" d="M 11639,1244 L 11889,1244 11764,994 11639,1244 Z"/>
 <path fill="none" stroke="rgb(87,157,28)" stroke-linejoin="round" d="M 11639,1244 L 11889,1244 11764,994 11639,1244 Z"/>
 <path fill="none" stroke="rgb(255,211,32)" stroke-width="80" stroke-linejoin="round" d="M 941,8171 L 960,8145 980,8119 999,8093 1019,8068 1039,8042 1058,8016 1078,7991 1097,7965 1117,7939 1136,7914 1155,7889 1174,7863 1193,7838 1212,7813 1231,7788 1249,7763 1268,7738 1286,7713 1304,7688 1323,7664 1340,7639 1358,7615 1376,7590 1393,7566 1411,7542 1429,7518 1446,7493 1464,7468 1482,7444 1501,7419 1519,7394 1538,7368 1557,7342 1577,7316 1597,7290 1617,7263 1638,7236 1660,7208 1682,7179 1705,7151 1728,7121 1752,7091 1776,7061 1801,7031 1825,7001 1850,6970 1874,6941 1898,6912 1921,6883 1943,6855 1964,6828 1984,6803 2003,6778 2021,6755 2037,6734 2051,6714 2063,6696 2073,6680 2081,6667 2087,6655 2090,6646 2091,6640 2090,6634 2088,6630 2086,6627 2084,6623 2082,6619 2082,6615 2083,6609 2085,6601 2091,6591 2100,6578 2112,6562 2128,6543 2149,6519 2175,6491 2207,6457 2245,6418 2289,6373 2341,6321 2401,6263 2467,6198 2540,6127 2619,6051 2704,5970 2794,5885 2888,5797 2985,5705 3086,5611 3190,5515 3296,5418 3403,5320 3511,5222 3620,5125 3729,5028 3837,4934 3944,4841 4049,4751 4152,4664 4251,4581 4348,4503 4442,4429 4534,4358 4625,4290 4715,4225 4806,4163 4898,4102 4991,4044 5088,3986 5188,3929 5292,3872 5401,3816 5516,3759 5637,3701 5765,3641 5902,3581 6047,3518 6202,3452 6367,3384 6544,3312 6732,3237 6931,3158 7141,3076 7360,2991 7590,2902 7828,2811 8074,2718 8328,2621 8589,2523 8857,2423 9131,2321 9410,2217 9694,2111 9982,2005 10273,1897 10568,1788 10865,1679 11163,1569 11463,1458 11764,1348"/>
 <path fill="rgb(255,211,32)" stroke="none" d="M 816,8046 L 941,8296 1066,8046 816,8046 Z"/>
 <path fill="none" stroke="rgb(255,211,32)" stroke-linejoin="round" d="M 816,8046 L 941,8296 1066,8046 816,8046 Z"/>
 <path fill="rgb(255,211,32)" stroke="none" d="M 1198,7539 L 1323,7789 1448,7539 1198,7539 Z"/>
 <path fill="none" stroke="rgb(255,211,32)" stroke-linejoin="round" d="M 1198,7539 L 1323,7789 1448,7539 1198,7539 Z"/>
 <path fill="rgb(255,211,32)" stroke="none" d="M 1580,7026 L 1705,7276 1830,7026 1580,7026 Z"/>
 <path fill="none" stroke="rgb(255,211,32)" stroke-linejoin="round" d="M 1580,7026 L 1705,7276 1830,7026 1580,7026 Z"/>
 <path fill="rgb(255,211,32)" stroke="none" d="M 1962,6530 L 2087,6780 2212,6530 1962,6530 Z"/>
 <path fill="none" stroke="rgb(255,211,32)" stroke-linejoin="round" d="M 1962,6530 L 2087,6780 2212,6530 1962,6530 Z"/>
 <path fill="rgb(255,211,32)" stroke="none" d="M 2216,6196 L 2341,6446 2466,6196 2216,6196 Z"/>
 <path fill="none" stroke="rgb(255,211,32)" stroke-linejoin="round" d="M 2216,6196 L 2341,6446 2466,6196 2216,6196 Z"/>
 <path fill="rgb(255,211,32)" stroke="none" d="M 4126,4457 L 4251,4706 4376,4457 4126,4457 Z"/>
 <path fill="none" stroke="rgb(255,211,32)" stroke-linejoin="round" d="M 4126,4457 L 4251,4706 4376,4457 4126,4457 Z"/>
 <path fill="rgb(255,211,32)" stroke="none" d="M 6419,3187 L 6544,3437 6669,3187 6419,3187 Z"/>
 <path fill="none" stroke="rgb(255,211,32)" stroke-linejoin="round" d="M 6419,3187 L 6544,3437 6669,3187 6419,3187 Z"/>
 <path fill="rgb(255,211,32)" stroke="none" d="M 11639,1223 L 11764,1473 11889,1223 11639,1223 Z"/>
 <path fill="none" stroke="rgb(255,211,32)" stroke-linejoin="round" d="M 11639,1223 L 11764,1473 11889,1223 11639,1223 Z"/>
 <path fill="none" stroke="rgb(255,66,14)" stroke-width="80" stroke-linejoin="round" d="M 941,8171 L 960,8144 980,8118 999,8092 1019,8066 1039,8039 1058,8013 1078,7987 1097,7961 1117,7935 1136,7909 1155,7884 1174,7858 1193,7832 1212,7807 1231,7782 1249,7757 1268,7732 1286,7707 1304,7682 1323,7658 1340,7633 1358,7609 1376,7585 1393,7561 1411,7537 1429,7513 1446,7489 1464,7465 1482,7441 1501,7416 1519,7392 1538,7367 1557,7341 1577,7315 1597,7289 1617,7263 1638,7236 1660,7208 1682,7180 1705,7151 1728,7122 1752,7092 1776,7062 1801,7031 1825,7001 1850,6970 1874,6940 1898,6911 1921,6882 1943,6854 1964,6827 1984,6801 2003,6776 2021,6752 2037,6731 2051,6711 2063,6693 2073,6677 2081,6663 2087,6652 2090,6643 2091,6636 2090,6631 2088,6627 2084,6620 2082,6617 2082,6612 2083,6607 2085,6599 2091,6589 2100,6577 2112,6561 2128,6542 2149,6518 2175,6490 2207,6457 2245,6418 2289,6373 2341,6321 2401,6263 2467,6197 2540,6126 2619,6050 2704,5969 2794,5884 2888,5795 2985,5703 3086,5609 3190,5513 3296,5416 3403,5318 3511,5219 3620,5122 3729,5025 3837,4931 3944,4838 4049,4748 4152,4662 4251,4579 4348,4502 4442,4429 4534,4359 4625,4292 4715,4228 4806,4167 4898,4107 4991,4050 5088,3993 5188,3938 5292,3883 5401,3827 5516,3772 5637,3715 5765,3657 5902,3598 6047,3536 6202,3472 6367,3404 6544,3334 6732,3260 6931,3182 7141,3100 7360,3016 7590,2928 7828,2838 8074,2745 8328,2649 8589,2551 8857,2451 9131,2350 9410,2246 9694,2141 9982,2035 10273,1927 10568,1819 10865,1709 11163,1600 11463,1489 11764,1379"/>
 <path fill="rgb(255,66,14)" stroke="none" d="M 816,8171 L 941,8296 1066,8171 941,8046 816,8171 Z"/>
 <path fill="none" stroke="rgb(255,66,14)" stroke-linejoin="round" d="M 816,8171 L 941,8296 1066,8171 941,8046 816,8171 Z"/>
 <path fill="rgb(255,66,14)" stroke="none" d="M 1198,7658 L 1323,7783 1448,7658 1323,7533 1198,7658 Z"/>
 <path fill="none" stroke="rgb(255,66,14)" stroke-linejoin="round" d="M 1198,7658 L 1323,7783 1448,7658 1323,7533 1198,7658 Z"/>
 <path fill="rgb(255,66,14)" stroke="none" d="M 1580,7151 L 1705,7276 1830,7151 1705,7026 1580,7151 Z"/>
 <path fill="none" stroke="rgb(255,66,14)" stroke-linejoin="round" d="M 1580,7151 L 1705,7276 1830,7151 1705,7026 1580,7151 Z"/>
 <path fill="rgb(255,66,14)" stroke="none" d="M 1962,6652 L 2087,6777 2212,6652 2087,6527 1962,6652 Z"/>
 <path fill="none" stroke="rgb(255,66,14)" stroke-linejoin="round" d="M 1962,6652 L 2087,6777 2212,6652 2087,6527 1962,6652 Z"/>
 <path fill="rgb(255,66,14)" stroke="none" d="M 2216,6321 L 2341,6446 2466,6321 2341,6196 2216,6321 Z"/>
 <path fill="none" stroke="rgb(255,66,14)" stroke-linejoin="round" d="M 2216,6321 L 2341,6446 2466,6321 2341,6196 2216,6321 Z"/>
 <path fill="rgb(255,66,14)" stroke="none" d="M 4126,4579 L 4251,4704 4376,4579 4251,4455 4126,4579 Z"/>
 <path fill="none" stroke="rgb(255,66,14)" stroke-linejoin="round" d="M 4126,4579 L 4251,4704 4376,4579 4251,4455 4126,4579 Z"/>
 <path fill="rgb(255,66,14)" stroke="none" d="M 6419,3334 L 6544,3459 6669,3334 6544,3209 6419,3334 Z"/>
 <path fill="none" stroke="rgb(255,66,14)" stroke-linejoin="round" d="M 6419,3334 L 6544,3459 6669,3334 6544,3209 6419,3334 Z"/>
 <path fill="rgb(255,66,14)" stroke="none" d="M 11639,1379 L 11764,1504 11889,1379 11764,1254 11639,1379 Z"/>
 <path fill="none" stroke="rgb(255,66,14)" stroke-linejoin="round" d="M 11639,1379 L 11764,1504 11889,1379 11764,1254 11639,1379 Z"/>
 <path fill="none" stroke="rgb(0,69,134)" stroke-width="80" stroke-linejoin="round" d="M 941,8171 L 960,8145 980,8119 999,8093 1019,8067 1039,8041 1058,8015 1078,7989 1097,7963 1117,7938 1136,7912 1155,7887 1174,7861 1193,7836 1212,7810 1231,7785 1249,7760 1268,7735 1286,7710 1304,7686 1323,7661 1340,7637 1358,7612 1376,7588 1393,7564 1411,7540 1429,7515 1446,7491 1464,7466 1482,7442 1501,7417 1519,7392 1538,7367 1557,7341 1577,7315 1597,7289 1617,7262 1638,7235 1660,7207 1682,7179 1705,7150 1728,7121 1752,7091 1776,7061 1801,7031 1825,7000 1850,6970 1874,6941 1898,6911 1921,6883 1943,6855 1964,6828 1984,6803 2003,6778 2021,6755 2037,6734 2051,6714 2063,6696 2073,6680 2081,6667 2087,6656 2090,6647 2091,6640 2090,6635 2088,6631 2084,6624 2082,6620 2082,6615 2083,6609 2085,6601 2091,6590 2100,6577 2112,6561 2128,6541 2149,6516 2175,6487 2207,6452 2245,6412 2289,6365 2341,6312 2401,6252 2467,6185 2540,6112 2619,6034 2704,5951 2794,5863 2888,5772 2985,5678 3086,5581 3190,5483 3296,5383 3403,5282 3511,5181 3620,5080 3729,4981 3837,4883 3944,4787 4049,4694 4152,4604 4251,4518 4348,4437 4442,4360 4534,4286 4625,4216 4715,4148 4806,4083 4898,4020 4991,3959 5088,3900 5188,3841 5292,3783 5401,3725 5516,3667 5637,3608 5765,3548 5902,3487 6047,3424 6202,3359 6367,3292 6544,3222 6732,3148 6931,3071 7141,2992 7360,2909 7590,2824 7828,2736 8074,2646 8328,2554 8589,2460 8857,2364 9131,2267 9410,2168 9694,2067 9982,1966 10273,1863 10568,1760 10865,1656 11163,1552 11463,1447 11764,1342"/>
 <path fill="rgb(0,69,134)" stroke="none" d="M 816,8046 L 816,8296 1066,8296 1066,8046 816,8046 Z"/>
 <path fill="none" stroke="rgb(0,69,134)" stroke-linejoin="round" d="M 816,8046 L 816,8296 1066,8296 1066,8046 816,8046 Z"/>
 <path fill="rgb(0,69,134)" stroke="none" d="M 1198,7536 L 1198,7786 1448,7786 1448,7536 1198,7536 Z"/>
 <path fill="none" stroke="rgb(0,69,134)" stroke-linejoin="round" d="M 1198,7536 L 1198,7786 1448,7786 1448,7536 1198,7536 Z"/>
 <path fill="rgb(0,69,134)" stroke="none" d="M 1580,7025 L 1580,7275 1830,7275 1830,7025 1580,7025 Z"/>
 <path fill="none" stroke="rgb(0,69,134)" stroke-linejoin="round" d="M 1580,7025 L 1580,7275 1830,7275 1830,7025 1580,7025 Z"/>
 <path fill="rgb(0,69,134)" stroke="none" d="M 1962,6531 L 1962,6781 2212,6781 2212,6531 1962,6531 Z"/>
 <path fill="none" stroke="rgb(0,69,134)" stroke-linejoin="round" d="M 1962,6531 L 1962,6781 2212,6781 2212,6531 1962,6531 Z"/>
 <path fill="rgb(0,69,134)" stroke="none" d="M 2216,6187 L 2216,6437 2466,6437 2466,6187 2216,6187 Z"/>
 <path fill="none" stroke="rgb(0,69,134)" stroke-linejoin="round" d="M 2216,6187 L 2216,6437 2466,6437 2466,6187 2216,6187 Z"/>
 <path fill="rgb(0,69,134)" stroke="none" d="M 4126,4394 L 4126,4643 4376,4643 4376,4394 4126,4394 Z"/>
 <path fill="none" stroke="rgb(0,69,134)" stroke-linejoin="round" d="M 4126,4394 L 4126,4643 4376,4643 4376,4394 4126,4394 Z"/>
 <path fill="rgb(0,69,134)" stroke="none" d="M 6419,3097 L 6419,3347 6669,3347 6669,3097 6419,3097 Z"/>
 <path fill="none" stroke="rgb(0,69,134)" stroke-linejoin="round" d="M 6419,3097 L 6419,3347 6669,3347 6669,3097 6419,3097 Z"/>
 <path fill="rgb(0,69,134)" stroke="none" d="M 11639,1217 L 11639,1467 11889,1467 11889,1217 11639,1217 Z"/>
 <path fill="none" stroke="rgb(0,69,134)" stroke-linejoin="round" d="M 11639,1217 L 11639,1467 11889,1467 11889,1217 11639,1217 Z"/>
 <text class="TextShape"><tspan class="TextParagraph" font-family="Liberation Sans, sans-serif" font-size="353px" font-weight="400"><tspan class="TextPosition" x="848" y="8739"><tspan fill="rgb(0,0,0)" stroke="none">0</tspan></tspan></tspan></text>
 <text class="TextShape"><tspan class="TextParagraph" font-family="Liberation Sans, sans-serif" font-size="353px" font-weight="400"><tspan class="TextPosition" x="2029" y="8739"><tspan fill="rgb(0,0,0)" stroke="none">10</tspan></tspan></tspan></text>
 <text class="TextShape"><tspan class="TextParagraph" font-family="Liberation Sans, sans-serif" font-size="353px" font-weight="400"><tspan class="TextPosition" x="3302" y="8739"><tspan fill="rgb(0,0,0)" stroke="none">20</tspan></tspan></tspan></text>
 <text class="TextShape"><tspan class="TextParagraph" font-family="Liberation Sans, sans-serif" font-size="353px" font-weight="400"><tspan class="TextPosition" x="4576" y="8739"><tspan fill="rgb(0,0,0)" stroke="none">30</tspan></tspan></tspan></text>
 <text class="TextShape"><tspan class="TextParagraph" font-family="Liberation Sans, sans-serif" font-size="353px" font-weight="400"><tspan class="TextPosition" x="5849" y="8739"><tspan fill="rgb(0,0,0)" stroke="none">40</tspan></tspan></tspan></text>
 <text class="TextShape"><tspan class="TextParagraph" font-family="Liberation Sans, sans-serif" font-size="353px" font-weight="400"><tspan class="TextPosition" x="7123" y="8739"><tspan fill="rgb(0,0,0)" stroke="none">50</tspan></tspan></tspan></text>
 <text class="TextShape"><tspan class="TextParagraph" font-family="Liberation Sans, sans-serif" font-size="353px" font-weight="400"><tspan class="TextPosition" x="8396" y="8739"><tspan fill="rgb(0,0,0)" stroke="none">60</tspan></tspan></tspan></text>
 <text class="TextShape"><tspan class="TextParagraph" font-family="Liberation Sans, sans-serif" font-size="353px" font-weight="400"><tspan class="TextPosition" x="9670" y="8739"><tspan fill="rgb(0,0,0)" stroke="none">70</tspan></tspan></tspan></text>
 <text class="TextShape"><tspan class="TextParagraph" font-family="Liberation Sans, sans-serif" font-size="353px" font-weight="400"><tspan class="TextPosition" x="10943" y="8739"><tspan fill="rgb(0,0,0)" stroke="none">80</tspan></tspan></tspan></text>
 <text class="TextShape"><tspan class="TextParagraph" font-family="Liberation Sans, sans-serif" font-size="353px" font-weight="400"><tspan class="TextPosition" x="12217" y="8739"><tspan fill="rgb(0,0,0)" stroke="none">90</tspan></tspan></tspan></text>
 <text class="TextShape"><tspan class="TextParagraph" font-family="Liberation Sans, sans-serif" font-size="353px" font-weight="400"><tspan class="TextPosition" x="506" y="8292"><tspan fill="rgb(0,0,0)" stroke="none">0</tspan></tspan></tspan></text>
 <text class="TextShape"><tspan class="TextParagraph" font-family="Liberation Sans, sans-serif" font-size="353px" font-weight="400"><tspan class="TextPosition" x="321" y="7512"><tspan fill="rgb(0,0,0)" stroke="none">10</tspan></tspan></tspan></text>
 <text class="TextShape"><tspan class="TextParagraph" font-family="Liberation Sans, sans-serif" font-size="353px" font-weight="400"><tspan class="TextPosition" x="321" y="6733"><tspan fill="rgb(0,0,0)" stroke="none">20</tspan></tspan></tspan></text>
 <text class="TextShape"><tspan class="TextParagraph" font-family="Liberation Sans, sans-serif" font-size="353px" font-weight="400"><tspan class="TextPosition" x="321" y="5953"><tspan fill="rgb(0,0,0)" stroke="none">30</tspan></tspan></tspan></text>
 <text class="TextShape"><tspan class="TextParagraph" font-family="Liberation Sans, sans-serif" font-size="353px" font-weight="400"><tspan class="TextPosition" x="321" y="5174"><tspan fill="rgb(0,0,0)" stroke="none">40</tspan></tspan></tspan></text>
 <text class="TextShape"><tspan class="TextParagraph" font-family="Liberation Sans, sans-serif" font-size="353px" font-weight="400"><tspan class="TextPosition" x="321" y="4395"><tspan fill="rgb(0,0,0)" stroke="none">50</tspan></tspan></tspan></text>
 <text class="TextShape"><tspan class="TextParagraph" font-family="Liberation Sans, sans-serif" font-size="353px" font-weight="400"><tspan class="TextPosition" x="321" y="3615"><tspan fill="rgb(0,0,0)" stroke="none">60</tspan></tspan></tspan></text>
 <text class="TextShape"><tspan class="TextParagraph" font-family="Liberation Sans, sans-serif" font-size="353px" font-weight="400"><tspan class="TextPosition" x="321" y="2836"><tspan fill="rgb(0,0,0)" stroke="none">70</tspan></tspan></tspan></text>
 <text class="TextShape"><tspan class="TextParagraph" font-family="Liberation Sans, sans-serif" font-size="353px" font-weight="400"><tspan class="TextPosition" x="321" y="2056"><tspan fill="rgb(0,0,0)" stroke="none">80</tspan></tspan></tspan></text>
 <text class="TextShape"><tspan class="TextParagraph" font-family="Liberation Sans, sans-serif" font-size="353px" font-weight="400"><tspan class="TextPosition" x="321" y="1277"><tspan fill="rgb(0,0,0)" stroke="none">90</tspan></tspan></tspan></text>
 <text class="TextShape"><tspan class="TextParagraph" font-family="Liberation Sans, sans-serif" font-size="353px" font-weight="400"><tspan class="TextPosition" x="135" y="498"><tspan fill="rgb(0,0,0)" stroke="none">100</tspan></tspan></tspan></text>
 <path fill="none" stroke="rgb(0,69,134)" stroke-width="80" stroke-linejoin="round" d="M 13210,3752 L 14010,3752"/>
 <path fill="rgb(0,69,134)" stroke="none" d="M 13504,3647 L 13504,3858 13715,3858 13715,3647 13504,3647 Z"/>
 <path fill="none" stroke="rgb(0,69,134)" stroke-linejoin="round" d="M 13504,3647 L 13504,3858 13715,3858 13715,3647 13504,3647 Z"/>
 <path fill="none" stroke="rgb(255,66,14)" stroke-width="80" stroke-linejoin="round" d="M 13210,4250 L 14010,4250"/>
 <path fill="rgb(255,66,14)" stroke="none" d="M 13504,4250 L 13610,4356 13715,4250 13610,4145 13504,4250 Z"/>
 <path fill="none" stroke="rgb(255,66,14)" stroke-linejoin="round" d="M 13504,4250 L 13610,4356 13715,4250 13610,4145 13504,4250 Z"/>
 <path fill="none" stroke="rgb(255,211,32)" stroke-width="80" stroke-linejoin="round" d="M 13210,4747 L 14010,4747"/>
 <path fill="rgb(255,211,32)" stroke="none" d="M 13504,4642 L 13610,4853 13715,4642 13504,4642 Z"/>
 <path fill="none" stroke="rgb(255,211,32)" stroke-linejoin="round" d="M 13504,4642 L 13610,4853 13715,4642 13504,4642 Z"/>
 <path fill="none" stroke="rgb(87,157,28)" stroke-width="80" stroke-linejoin="round" d="M 13210,5245 L 14010,5245"/>
 <path fill="rgb(87,157,28)" stroke="none" d="M 13504,5351 L 13715,5351 13610,5140 13504,5351 Z"/>
 <path fill="none" stroke="rgb(87,157,28)" stroke-linejoin="round" d="M 13504,5351 L 13715,5351 13610,5140 13504,5351 Z"/>
 <text class="TextShape"><tspan class="TextParagraph" font-family="Liberation Sans, sans-serif" font-size="353px" font-weight="400"><tspan class="TextPosition" x="14110" y="3872"><tspan fill="rgb(0,0,0)" stroke="none">between</tspan></tspan></tspan></text>
 <text class="TextShape"><tspan class="TextParagraph" font-family="Liberation Sans, sans-serif" font-size="353px" font-weight="400"><tspan class="TextPosition" x="14110" y="4370"><tspan fill="rgb(0,0,0)" stroke="none">closeness</tspan></tspan></tspan></text>
 <text class="TextShape"><tspan class="TextParagraph" font-family="Liberation Sans, sans-serif" font-size="353px" font-weight="400"><tspan class="TextPosition" x="14110" y="4867"><tspan fill="rgb(0,0,0)" stroke="none">page</tspan></tspan></tspan></text>
 <text class="TextShape"><tspan class="TextParagraph" font-family="Liberation Sans, sans-serif" font-size="353px" font-weight="400"><tspan class="TextPosition" x="14110" y="5365"><tspan fill="rgb(0,0,0)" stroke="none">random</tspan></tspan></tspan></text>
</svg>