<?xml version="1.0" encoding="UTF-8"?>
<!DOCTYPE svg PUBLIC "-//W3C//DTD SVG 1.1//EN" "http://www.w3.org/Graphics/SVG/1.1/DTD/svg11.dtd">
<svg width="160mm" height="90mm" viewBox="0 0 16000 9000" version="1.1" xmlns="http://www.w3.org/2000/svg" stroke-width="28.222" stroke-linejoin="round" xml:space="preserve">
 <path fill="rgb(255,255,255)" stroke="none" d="M 8000,8999 L 0,8999 0,0 15999,0 15999,8999 8000,8999 Z"/>
 <path fill="none" stroke="rgb(179,179,179)" stroke-linejoin="round" d="M 7042,8172 L 1497,8172 1497,379 12587,379 12587,8172 7042,8172 Z"/>
 <path fill="none" stroke="rgb(179,179,179)" stroke-linejoin="round" d="M 12587,8171 L 1497,8171"/>
 <path fill="none" stroke="rgb(179,179,179)" stroke-linejoin="round" d="M 12587,7305 L 1497,7305"/>
 <path fill="none" stroke="rgb(179,179,179)" stroke-linejoin="round" d="M 12587,6439 L 1497,6439"/>
 <path fill="none" stroke="rgb(179,179,179)" stroke-linejoin="round" d="M 12587,5573 L 1497,5573"/>
 <path fill="none" stroke="rgb(179,179,179)" stroke-linejoin="round" d="M 12587,4707 L 1497,4707"/>
 <path fill="none" stroke="rgb(179,179,179)" stroke-linejoin="round" d="M 12587,3842 L 1497,3842"/>
 <path fill="none" stroke="rgb(179,179,179)" stroke-linejoin="round" d="M 12587,2976 L 1497,2976"/>
 <path fill="none" stroke="rgb(179,179,179)" stroke-linejoin="round" d="M 12587,2110 L 1497,2110"/>
 <path fill="none" stroke="rgb(179,179,179)" stroke-linejoin="round" d="M 12587,1244 L 1497,1244"/>
 <path fill="none" stroke="rgb(179,179,179)" stroke-linejoin="round" d="M 12587,378 L 1497,378"/>
 <path fill="none" stroke="rgb(179,179,179)" stroke-linejoin="round" d="M 1497,8321 L 1497,8171"/>
 <path fill="none" stroke="rgb(179,179,179)" stroke-linejoin="round" d="M 1497,8321 L 1497,8171"/>
 <path fill="none" stroke="rgb(179,179,179)" stroke-linejoin="round" d="M 2729,8321 L 2729,8171"/>
 <path fill="none" stroke="rgb(179,179,179)" stroke-linejoin="round" d="M 2729,8321 L 2729,8171"/>
 <path fill="none" stroke="rgb(179,179,179)" stroke-linejoin="round" d="M 3961,8321 L 3961,8171"/>
 <path fill="none" stroke="rgb(179,179,179)" stroke-linejoin="round" d="M 3961,8321 L 3961,8171"/>
 <path fill="none" stroke="rgb(179,179,179)" stroke-linejoin="round" d="M 5194,8321 L 5194,8171"/>
 <path fill="none" stroke="rgb(179,179,179)" stroke-linejoin="round" d="M 5194,8321 L 5194,8171"/>
 <path fill="none" stroke="rgb(179,179,179)" stroke-linejoin="round" d="M 6426,8321 L 6426,8171"/>
 <path fill="none" stroke="rgb(179,179,179)" stroke-linejoin="round" d="M 6426,8321 L 6426,8171"/>
 <path fill="none" stroke="rgb(179,179,179)" stroke-linejoin="round" d="M 7658,8321 L 7658,8171"/>
 <path fill="none" stroke="rgb(179,179,179)" stroke-linejoin="round" d="M 7658,8321 L 7658,8171"/>
 <path fill="none" stroke="rgb(179,179,179)" stroke-linejoin="round" d="M 8890,8321 L 8890,8171"/>
 <path fill="none" stroke="rgb(179,179,179)" stroke-linejoin="round" d="M 8890,8321 L 8890,8171"/>
 <path fill="none" stroke="rgb(179,179,179)" stroke-linejoin="round" d="M 10122,8321 L 10122,8171"/>
 <path fill="none" stroke="rgb(179,179,179)" stroke-linejoin="round" d="M 10122,8321 L 10122,8171"/>
 <path fill="none" stroke="rgb(179,179,179)" stroke-linejoin="round" d="M 11354,8321 L 11354,8171"/>
 <path fill="none" stroke="rgb(179,179,179)" stroke-linejoin="round" d="M 11354,8321 L 11354,8171"/>
 <path fill="none" stroke="rgb(179,179,179)" stroke-linejoin="round" d="M 12587,8321 L 12587,8171"/>
 <path fill="none" stroke="rgb(179,179,179)" stroke-linejoin="round" d="M 12587,8321 L 12587,8171"/>
 <path fill="none" stroke="rgb(179,179,179)" stroke-linejoin="round" d="M 1497,8171 L 12587,8171"/>
 <path fill="none" stroke="rgb(179,179,179)" stroke-linejoin="round" d="M 1347,8171 L 1497,8171"/>
 <path fill="none" stroke="rgb(179,179,179)" stroke-linejoin="round" d="M 1347,8171 L 1497,8171"/>
 <path fill="none" stroke="rgb(179,179,179)" stroke-linejoin="round" d="M 1347,7305 L 1497,7305"/>
 <path fill="none" stroke="rgb(179,179,179)" stroke-linejoin="round" d="M 1347,7305 L 1497,7305"/>
 <path fill="none" stroke="rgb(179,179,179)" stroke-linejoin="round" d="M 1347,6439 L 1497,6439"/>
 <path fill="none" stroke="rgb(179,179,179)" stroke-linejoin="round" d="M 1347,6439 L 1497,6439"/>
 <path fill="none" stroke="rgb(179,179,179)" stroke-linejoin="round" d="M 1347,5573 L 1497,5573"/>
 <path fill="none" stroke="rgb(179,179,179)" stroke-linejoin="round" d="M 1347,5573 L 1497,5573"/>
 <path fill="none" stroke="rgb(179,179,179)" stroke-linejoin="round" d="M 1347,4707 L 1497,4707"/>
 <path fill="none" stroke="rgb(179,179,179)" stroke-linejoin="round" d="M 1347,4707 L 1497,4707"/>
 <path fill="none" stroke="rgb(179,179,179)" stroke-linejoin="round" d="M 1347,3842 L 1497,3842"/>
 <path fill="none" stroke="rgb(179,179,179)" stroke-linejoin="round" d="M 1347,3842 L 1497,3842"/>
 <path fill="none" stroke="rgb(179,179,179)" stroke-linejoin="round" d="M 1347,2975 L 1497,2975"/>
 <path fill="none" stroke="rgb(179,179,179)" stroke-linejoin="round" d="M 1347,2975 L 1497,2975"/>
 <path fill="none" stroke="rgb(179,179,179)" stroke-linejoin="round" d="M 1347,2110 L 1497,2110"/>
 <path fill="none" stroke="rgb(179,179,179)" stroke-linejoin="round" d="M 1347,2110 L 1497,2110"/>
 <path fill="none" stroke="rgb(179,179,179)" stroke-linejoin="round" d="M 1347,1243 L 1497,1243"/>
 <path fill="none" stroke="rgb(179,179,179)" stroke-linejoin="round" d="M 1347,1243 L 1497,1243"/>
 <path fill="none" stroke="rgb(179,179,179)" stroke-linejoin="round" d="M 1347,378 L 1497,378"/>
 <path fill="none" stroke="rgb(179,179,179)" stroke-linejoin="round" d="M 1347,378 L 1497,378"/>
 <path fill="none" stroke="rgb(179,179,179)" stroke-linejoin="round" d="M 1497,8171 L 1497,378"/>
 <path fill="none" stroke="rgb(87,157,28)" stroke-width="80" stroke-linejoin="round" d="M 1497,7453 L 1516,7143 1535,6834 1554,6526 1573,6220 1592,5919 1610,5621 1629,5329 1648,5042 1667,4763 1686,4492 1704,4229 1723,3975 1741,3731 1759,3499 1777,3278 1795,3071 1813,2877 1831,2698 1849,2534 1866,2386 1883,2256 1901,2142 1918,2045 1935,1965 1952,1901 1969,1853 1986,1821 2003,1804 2021,1803 2039,1818 2056,1848 2075,1892 2093,1951 2112,2025 2132,2113 2151,2215 2172,2331 2192,2460 2214,2603 2236,2759 2259,2928 2282,3109 2305,3300 2329,3500 2353,3707 2376,3919 2400,4136 2423,4356 2445,4577 2467,4798 2487,5018 2507,5235 2525,5448 2542,5655 2557,5855 2571,6046 2583,6227 2593,6397 2600,6553 2606,6695 2609,6822 2609,6933 2609,7031 2607,7115 2605,7187 2603,7248 2601,7299 2601,7340 2602,7373 2605,7398 2610,7417 2618,7430 2630,7438 2646,7442 2666,7444 2691,7443 2722,7441 2759,7440 2802,7439 2852,7440 2910,7443 2974,7449 3045,7458 3121,7468 3203,7480 3290,7493 3381,7508 3475,7524 3573,7541 3673,7559 3776,7577 3880,7596 3984,7614 4090,7633 4195,7651 4300,7668 4403,7684 4505,7700 4604,7714 4701,7727 4794,7737 4885,7747 4974,7755 5062,7761 5149,7766 5237,7770 5326,7773 5417,7775 5510,7776 5607,7777 5707,7777 5813,7776 5924,7775 6041,7774 6166,7773 6298,7772 6438,7771 6588,7770 6748,7769 6919,7769 7101,7770 7293,7770 7496,7772 7709,7774 7931,7776 8161,7779 8399,7782 8645,7786 8898,7790 9157,7794 9422,7799 9692,7803 9967,7808 10246,7814 10528,7819 10813,7825 11100,7830 11389,7836 11680,7842 11970,7847"/>
 <path fill="rgb(87,157,28)" stroke="none" d="M 1372,7578 L 1622,7578 1497,7328 1372,7578 Z"/>
 <path fill="none" stroke="rgb(87,157,28)" stroke-linejoin="round" d="M 1372,7578 L 1622,7578 1497,7328 1372,7578 Z"/>
 <path fill="rgb(87,157,28)" stroke="none" d="M 1741,2511 L 1991,2511 1866,2261 1741,2511 Z"/>
 <path fill="none" stroke="rgb(87,157,28)" stroke-linejoin="round" d="M 1741,2511 L 1991,2511 1866,2261 1741,2511 Z"/>
 <path fill="rgb(87,157,28)" stroke="none" d="M 2111,2884 L 2361,2884 2236,2634 2111,2884 Z"/>
 <path fill="none" stroke="rgb(87,157,28)" stroke-linejoin="round" d="M 2111,2884 L 2361,2884 2236,2634 2111,2884 Z"/>
 <path fill="rgb(87,157,28)" stroke="none" d="M 2481,6820 L 2731,6820 2606,6570 2481,6820 Z"/>
 <path fill="none" stroke="rgb(87,157,28)" stroke-linejoin="round" d="M 2481,6820 L 2731,6820 2606,6570 2481,6820 Z"/>
 <path fill="rgb(87,157,28)" stroke="none" d="M 2727,7565 L 2977,7565 2852,7315 2727,7565 Z"/>
 <path fill="none" stroke="rgb(87,157,28)" stroke-linejoin="round" d="M 2727,7565 L 2977,7565 2852,7315 2727,7565 Z"/>
 <path fill="rgb(87,157,28)" stroke="none" d="M 4576,7852 L 4826,7852 4701,7602 4576,7852 Z"/>
 <path fill="none" stroke="rgb(87,157,28)" stroke-linejoin="round" d="M 4576,7852 L 4826,7852 4701,7602 4576,7852 Z"/>
 <path fill="rgb(87,157,28)" stroke="none" d="M 6794,7894 L 7044,7894 6919,7644 6794,7894 Z"/>
 <path fill="none" stroke="rgb(87,157,28)" stroke-linejoin="round" d="M 6794,7894 L 7044,7894 6919,7644 6794,7894 Z"/>
 <path fill="rgb(87,157,28)" stroke="none" d="M 11845,7972 L 12095,7972 11970,7722 11845,7972 Z"/>
 <path fill="none" stroke="rgb(87,157,28)" stroke-linejoin="round" d="M 11845,7972 L 12095,7972 11970,7722 11845,7972 Z"/>
 <path fill="none" stroke="rgb(255,211,32)" stroke-width="80" stroke-linejoin="round" d="M 1497,7456 L 1516,7522 1535,7587 1554,7649 1573,7707 1592,7758 1610,7803 1629,7839 1648,7864 1667,7878 1686,7879 1704,7865 1723,7836 1741,7788 1759,7722 1777,7635 1795,7527 1813,7395 1831,7239 1849,7056 1866,6845 1883,6606 1901,6342 1918,6056 1935,5752 1952,5434 1969,5106 1986,4771 2003,4434 2021,4097 2039,3765 2056,3441 2075,3129 2093,2833 2112,2557 2132,2304 2151,2078 2172,1883 2192,1723 2214,1601 2236,1522 2259,1487 2282,1494 2305,1541 2329,1625 2353,1741 2376,1886 2400,2058 2423,2253 2445,2468 2467,2700 2487,2944 2507,3199 2525,3460 2542,3725 2557,3991 2571,4253 2583,4508 2593,4754 2600,4988 2606,5205 2609,5404 2609,5585 2609,5748 2607,5896 2605,6028 2603,6146 2601,6252 2601,6345 2602,6427 2605,6500 2610,6564 2618,6621 2630,6671 2646,6715 2666,6755 2691,6791 2722,6825 2759,6858 2802,6891 2852,6924 2910,6959 2974,6996 3045,7034 3121,7073 3203,7114 3290,7154 3381,7195 3475,7236 3573,7277 3673,7318 3776,7358 3880,7396 3984,7434 4090,7470 4195,7504 4300,7536 4403,7566 4505,7593 4604,7618 4701,7639 4794,7657 4885,7672 4974,7685 5062,7694 5149,7701 5237,7706 5326,7708 5417,7709 5510,7708 5607,7706 5707,7703 5813,7699 5924,7694 6041,7688 6166,7683 6298,7677 6438,7671 6588,7666 6748,7661 6919,7657 7101,7655 7293,7653 7496,7652 7709,7652 7931,7652 8161,7654 8399,7656 8645,7659 8898,7663 9157,7667 9422,7671 9692,7677 9967,7682 10246,7688 10528,7694 10813,7701 11100,7707 11389,7714 11680,7721 11970,7728"/>
 <path fill="rgb(255,211,32)" stroke="none" d="M 1372,7331 L 1497,7581 1622,7331 1372,7331 Z"/>
 <path fill="none" stroke="rgb(255,211,32)" stroke-linejoin="round" d="M 1372,7331 L 1497,7581 1622,7331 1372,7331 Z"/>
 <path fill="rgb(255,211,32)" stroke="none" d="M 1741,6720 L 1866,6970 1991,6720 1741,6720 Z"/>
 <path fill="none" stroke="rgb(255,211,32)" stroke-linejoin="round" d="M 1741,6720 L 1866,6970 1991,6720 1741,6720 Z"/>
 <path fill="rgb(255,211,32)" stroke="none" d="M 2111,1397 L 2236,1647 2361,1397 2111,1397 Z"/>
 <path fill="none" stroke="rgb(255,211,32)" stroke-linejoin="round" d="M 2111,1397 L 2236,1647 2361,1397 2111,1397 Z"/>
 <path fill="rgb(255,211,32)" stroke="none" d="M 2481,5080 L 2606,5330 2731,5080 2481,5080 Z"/>
 <path fill="none" stroke="rgb(255,211,32)" stroke-linejoin="round" d="M 2481,5080 L 2606,5330 2731,5080 2481,5080 Z"/>
 <path fill="rgb(255,211,32)" stroke="none" d="M 2727,6799 L 2852,7049 2977,6799 2727,6799 Z"/>
 <path fill="none" stroke="rgb(255,211,32)" stroke-linejoin="round" d="M 2727,6799 L 2852,7049 2977,6799 2727,6799 Z"/>
 <path fill="rgb(255,211,32)" stroke="none" d="M 4576,7514 L 4701,7764 4826,7514 4576,7514 Z"/>
 <path fill="none" stroke="rgb(255,211,32)" stroke-linejoin="round" d="M 4576,7514 L 4701,7764 4826,7514 4576,7514 Z"/>
 <path fill="rgb(255,211,32)" stroke="none" d="M 6794,7532 L 6919,7782 7044,7532 6794,7532 Z"/>
 <path fill="none" stroke="rgb(255,211,32)" stroke-linejoin="round" d="M 6794,7532 L 6919,7782 7044,7532 6794,7532 Z"/>
 <path fill="rgb(255,211,32)" stroke="none" d="M 11845,7603 L 11970,7853 12095,7603 11845,7603 Z"/>
 <path fill="none" stroke="rgb(255,211,32)" stroke-linejoin="round" d="M 11845,7603 L 11970,7853 12095,7603 11845,7603 Z"/>
 <path fill="none" stroke="rgb(255,66,14)" stroke-width="80" stroke-linejoin="round" d="M 1497,7456 L 1516,7526 1535,7594 1554,7660 1573,7720 1592,7775 1610,7822 1629,7861 1648,7888 1667,7904 1686,7906 1704,7893 1723,7864 1741,7816 1759,7750 1777,7662 1795,7551 1813,7417 1831,7256 1849,7069 1866,6854 1883,6609 1901,6338 1918,6045 1935,5733 1952,5407 1969,5070 1986,4726 2003,4380 2021,4035 2039,3694 2056,3362 2075,3042 2093,2739 2112,2456 2132,2197 2151,1966 2172,1768 2192,1605 2214,1481 2236,1402 2259,1368 2282,1378 2305,1430 2329,1518 2353,1640 2376,1793 2400,1972 2423,2176 2445,2399 2467,2640 2487,2894 2507,3158 2525,3428 2542,3702 2557,3976 2571,4246 2583,4508 2593,4762 2600,5001 2606,5223 2609,5426 2609,5609 2609,5774 2607,5922 2605,6054 2603,6171 2601,6275 2601,6366 2602,6446 2605,6516 2610,6576 2618,6629 2630,6675 2646,6716 2666,6752 2691,6785 2722,6815 2759,6845 2802,6875 2852,6906 2910,6940 2974,6975 3045,7012 3121,7051 3203,7092 3290,7133 3381,7174 3475,7217 3573,7259 3673,7301 3776,7342 3880,7383 3984,7422 4090,7460 4195,7496 4300,7530 4403,7562 4505,7591 4604,7617 4701,7640 4794,7659 4885,7675 4974,7688 5062,7699 5149,7706 5237,7711 5326,7714 5417,7715 5510,7714 5607,7712 5707,7708 5813,7704 5924,7698 6041,7692 6166,7686 6298,7680 6438,7674 6588,7668 6748,7662 6919,7658 7101,7654 7293,7652 7496,7650 7709,7649 7931,7649 8161,7650 8399,7652 8645,7654 8898,7657 9157,7660 9422,7664 9692,7668 9967,7673 10246,7678 10528,7684 10813,7689 11100,7695 11389,7702 11680,7708 11970,7714"/>
 <path fill="rgb(255,66,14)" stroke="none" d="M 1372,7456 L 1497,7581 1622,7456 1497,7331 1372,7456 Z"/>
 <path fill="none" stroke="rgb(255,66,14)" stroke-linejoin="round" d="M 1372,7456 L 1497,7581 1622,7456 1497,7331 1372,7456 Z"/>
 <path fill="rgb(255,66,14)" stroke="none" d="M 1741,6854 L 1866,6979 1991,6854 1866,6729 1741,6854 Z"/>
 <path fill="none" stroke="rgb(255,66,14)" stroke-linejoin="round" d="M 1741,6854 L 1866,6979 1991,6854 1866,6729 1741,6854 Z"/>
 <path fill="rgb(255,66,14)" stroke="none" d="M 2111,1402 L 2236,1527 2361,1402 2236,1277 2111,1402 Z"/>
 <path fill="none" stroke="rgb(255,66,14)" stroke-linejoin="round" d="M 2111,1402 L 2236,1527 2361,1402 2236,1277 2111,1402 Z"/>
 <path fill="rgb(255,66,14)" stroke="none" d="M 2481,5223 L 2606,5348 2731,5223 2606,5098 2481,5223 Z"/>
 <path fill="none" stroke="rgb(255,66,14)" stroke-linejoin="round" d="M 2481,5223 L 2606,5348 2731,5223 2606,5098 2481,5223 Z"/>
 <path fill="rgb(255,66,14)" stroke="none" d="M 2727,6906 L 2852,7031 2977,6906 2852,6781 2727,6906 Z"/>
 <path fill="none" stroke="rgb(255,66,14)" stroke-linejoin="round" d="M 2727,6906 L 2852,7031 2977,6906 2852,6781 2727,6906 Z"/>
 <path fill="rgb(255,66,14)" stroke="none" d="M 4576,7640 L 4701,7765 4826,7640 4701,7515 4576,7640 Z"/>
 <path fill="none" stroke="rgb(255,66,14)" stroke-linejoin="round" d="M 4576,7640 L 4701,7765 4826,7640 4701,7515 4576,7640 Z"/>
 <path fill="rgb(255,66,14)" stroke="none" d="M 6794,7658 L 6919,7783 7044,7658 6919,7533 6794,7658 Z"/>
 <path fill="none" stroke="rgb(255,66,14)" stroke-linejoin="round" d="M 6794,7658 L 6919,7783 7044,7658 6919,7533 6794,7658 Z"/>
 <path fill="rgb(255,66,14)" stroke="none" d="M 11845,7714 L 11970,7839 12095,7714 11970,7589 11845,7714 Z"/>
 <path fill="none" stroke="rgb(255,66,14)" stroke-linejoin="round" d="M 11845,7714 L 11970,7839 12095,7714 11970,7589 11845,7714 Z"/>
 <path fill="none" stroke="rgb(0,69,134)" stroke-width="80" stroke-linejoin="round" d="M 1497,7454 L 1516,7523 1535,7590 1554,7654 1573,7714 1592,7768 1610,7815 1629,7853 1648,7881 1667,7896 1686,7899 1704,7887 1723,7859 1741,7813 1759,7748 1777,7662 1795,7555 1813,7424 1831,7267 1849,7085 1866,6874 1883,6635 1901,6371 1918,6084 1935,5780 1952,5461 1969,5131 1986,4795 2003,4457 2021,4118 2039,3784 2056,3459 2075,3145 2093,2847 2112,2569 2132,2315 2151,2087 2172,1891 2192,1729 2214,1605 2236,1524 2259,1488 2282,1494 2305,1540 2329,1622 2353,1737 2376,1882 2400,2054 2423,2249 2445,2464 2467,2695 2487,2940 2507,3196 2525,3458 2542,3725 2557,3991 2571,4256 2583,4513 2593,4762 2600,4998 2606,5219 2609,5422 2609,5607 2609,5774 2607,5926 2605,6063 2603,6186 2601,6297 2601,6395 2602,6482 2605,6560 2610,6628 2618,6689 2630,6743 2646,6790 2666,6833 2691,6872 2722,6909 2759,6943 2802,6976 2852,7010 2910,7045 2974,7080 3045,7116 3121,7153 3203,7190 3290,7227 3381,7264 3475,7301 3573,7338 3673,7373 3776,7408 3880,7442 3984,7475 4090,7506 4195,7536 4300,7564 4403,7590 4505,7613 4604,7634 4701,7653 4794,7669 4885,7682 4974,7693 5062,7701 5149,7708 5237,7712 5326,7715 5417,7716 5510,7716 5607,7715 5707,7712 5813,7709 5924,7705 6041,7701 6166,7697 6298,7692 6438,7688 6588,7684 6748,7680 6919,7677 7101,7675 7293,7673 7496,7672 7709,7672 7931,7673 8161,7674 8399,7676 8645,7678 8898,7681 9157,7684 9422,7688 9692,7692 9967,7696 10246,7701 10528,7706 10813,7711 11100,7716 11389,7721 11680,7727 11970,7732"/>
 <path fill="rgb(0,69,134)" stroke="none" d="M 1372,7329 L 1372,7579 1622,7579 1622,7329 1372,7329 Z"/>
 <path fill="none" stroke="rgb(0,69,134)" stroke-linejoin="round" d="M 1372,7329 L 1372,7579 1622,7579 1622,7329 1372,7329 Z"/>
 <path fill="rgb(0,69,134)" stroke="none" d="M 1741,6749 L 1741,6999 1991,6999 1991,6749 1741,6749 Z"/>
 <path fill="none" stroke="rgb(0,69,134)" stroke-linejoin="round" d="M 1741,6749 L 1741,6999 1991,6999 1991,6749 1741,6749 Z"/>
 <path fill="rgb(0,69,134)" stroke="none" d="M 2111,1399 L 2111,1649 2361,1649 2361,1399 2111,1399 Z"/>
 <path fill="none" stroke="rgb(0,69,134)" stroke-linejoin="round" d="M 2111,1399 L 2111,1649 2361,1649 2361,1399 2111,1399 Z"/>
 <path fill="rgb(0,69,134)" stroke="none" d="M 2481,5094 L 2481,5344 2731,5344 2731,5094 2481,5094 Z"/>
 <path fill="none" stroke="rgb(0,69,134)" stroke-linejoin="round" d="M 2481,5094 L 2481,5344 2731,5344 2731,5094 2481,5094 Z"/>
 <path fill="rgb(0,69,134)" stroke="none" d="M 2727,6885 L 2727,7135 2977,7135 2977,6885 2727,6885 Z"/>
 <path fill="none" stroke="rgb(0,69,134)" stroke-linejoin="round" d="M 2727,6885 L 2727,7135 2977,7135 2977,6885 2727,6885 Z"/>
 <path fill="rgb(0,69,134)" stroke="none" d="M 4576,7528 L 4576,7778 4826,7778 4826,7528 4576,7528 Z"/>
 <path fill="none" stroke="rgb(0,69,134)" stroke-linejoin="round" d="M 4576,7528 L 4576,7778 4826,7778 4826,7528 4576,7528 Z"/>
 <path fill="rgb(0,69,134)" stroke="none" d="M 6794,7552 L 6794,7802 7044,7802 7044,7552 6794,7552 Z"/>
 <path fill="none" stroke="rgb(0,69,134)" stroke-linejoin="round" d="M 6794,7552 L 6794,7802 7044,7802 7044,7552 6794,7552 Z"/>
 <path fill="rgb(0,69,134)" stroke="none" d="M 11845,7607 L 11845,7857 12095,7857 12095,7607 11845,7607 Z"/>
 <path fill="none" stroke="rgb(0,69,134)" stroke-linejoin="round" d="M 11845,7607 L 11845,7857 12095,7857 12095,7607 11845,7607 Z"/>
 <text class="TextShape"><tspan class="TextParagraph" font-family="Liberation Sans, sans-serif" font-size="353px" font-weight="400"><tspan class="TextPosition" x="1404" y="8739"><tspan fill="rgb(0,0,0)" stroke="none">0</tspan></tspan></tspan></text>
 <text class="TextShape"><tspan class="TextParagraph" font-family="Liberation Sans, sans-serif" font-size="353px" font-weight="400"><tspan class="TextPosition" x="2544" y="8739"><tspan fill="rgb(0,0,0)" stroke="none">10</tspan></tspan></tspan></text>
 <text class="TextShape"><tspan class="TextParagraph" font-family="Liberation Sans, sans-serif" font-size="353px" font-weight="400"><tspan class="TextPosition" x="3776" y="8739"><tspan fill="rgb(0,0,0)" stroke="none">20</tspan></tspan></tspan></text>
 <text class="TextShape"><tspan class="TextParagraph" font-family="Liberation Sans, sans-serif" font-size="353px" font-weight="400"><tspan class="TextPosition" x="5009" y="8739"><tspan fill="rgb(0,0,0)" stroke="none">30</tspan></tspan></tspan></text>
 <text class="TextShape"><tspan class="TextParagraph" font-family="Liberation Sans, sans-serif" font-size="353px" font-weight="400"><tspan class="TextPosition" x="6241" y="8739"><tspan fill="rgb(0,0,0)" stroke="none">40</tspan></tspan></tspan></text>
 <text class="TextShape"><tspan class="TextParagraph" font-family="Liberation Sans, sans-serif" font-size="353px" font-weight="400"><tspan class="TextPosition" x="7473" y="8739"><tspan fill="rgb(0,0,0)" stroke="none">50</tspan></tspan></tspan></text>
 <text class="TextShape"><tspan class="TextParagraph" font-family="Liberation Sans, sans-serif" font-size="353px" font-weight="400"><tspan class="TextPosition" x="8706" y="8739"><tspan fill="rgb(0,0,0)" stroke="none">60</tspan></tspan></tspan></text>
 <text class="TextShape"><tspan class="TextParagraph" font-family="Liberation Sans, sans-serif" font-size="353px" font-weight="400"><tspan class="TextPosition" x="9938" y="8739"><tspan fill="rgb(0,0,0)" stroke="none">70</tspan></tspan></tspan></text>
 <text class="TextShape"><tspan class="TextParagraph" font-family="Liberation Sans, sans-serif" font-size="353px" font-weight="400"><tspan class="TextPosition" x="11170" y="8739"><tspan fill="rgb(0,0,0)" stroke="none">80</tspan></tspan></tspan></text>
 <text class="TextShape"><tspan class="TextParagraph" font-family="Liberation Sans, sans-serif" font-size="353px" font-weight="400"><tspan class="TextPosition" x="12403" y="8739"><tspan fill="rgb(0,0,0)" stroke="none">90</tspan></tspan></tspan></text>
 <text class="TextShape"><tspan class="TextParagraph" font-family="Liberation Sans, sans-serif" font-size="353px" font-weight="400"><tspan class="TextPosition" x="1062" y="8292"><tspan fill="rgb(0,0,0)" stroke="none">0</tspan></tspan></tspan></text>
 <text class="TextShape"><tspan class="TextParagraph" font-family="Liberation Sans, sans-serif" font-size="353px" font-weight="400"><tspan class="TextPosition" x="321" y="7426"><tspan fill="rgb(0,0,0)" stroke="none">10000</tspan></tspan></tspan></text>
 <text class="TextShape"><tspan class="TextParagraph" font-family="Liberation Sans, sans-serif" font-size="353px" font-weight="400"><tspan class="TextPosition" x="321" y="6560"><tspan fill="rgb(0,0,0)" stroke="none">20000</tspan></tspan></tspan></text>
 <text class="TextShape"><tspan class="TextParagraph" font-family="Liberation Sans, sans-serif" font-size="353px" font-weight="400"><tspan class="TextPosition" x="321" y="5694"><tspan fill="rgb(0,0,0)" stroke="none">30000</tspan></tspan></tspan></text>
 <text class="TextShape"><tspan class="TextParagraph" font-family="Liberation Sans, sans-serif" font-size="353px" font-weight="400"><tspan class="TextPosition" x="321" y="4828"><tspan fill="rgb(0,0,0)" stroke="none">40000</tspan></tspan></tspan></text>
 <text class="TextShape"><tspan class="TextParagraph" font-family="Liberation Sans, sans-serif" font-size="353px" font-weight="400"><tspan class="TextPosition" x="321" y="3962"><tspan fill="rgb(0,0,0)" stroke="none">50000</tspan></tspan></tspan></text>
 <text class="TextShape"><tspan class="TextParagraph" font-family="Liberation Sans, sans-serif" font-size="353px" font-weight="400"><tspan class="TextPosition" x="321" y="3095"><tspan fill="rgb(0,0,0)" stroke="none">60000</tspan></tspan></tspan></text>
 <text class="TextShape"><tspan class="TextParagraph" font-family="Liberation Sans, sans-serif" font-size="353px" font-weight="400"><tspan class="TextPosition" x="321" y="2230"><tspan fill="rgb(0,0,0)" stroke="none">70000</tspan></tspan></tspan></text>
 <text class="TextShape"><tspan class="TextParagraph" font-family="Liberation Sans, sans-serif" font-size="353px" font-weight="400"><tspan class="TextPosition" x="321" y="1363"><tspan fill="rgb(0,0,0)" stroke="none">80000</tspan></tspan></tspan></text>
 <text class="TextShape"><tspan class="TextParagraph" font-family="Liberation Sans, sans-serif" font-size="353px" font-weight="400"><tspan class="TextPosition" x="321" y="498"><tspan fill="rgb(0,0,0)" stroke="none">90000</tspan></tspan></tspan></text>
 <path fill="none" stroke="rgb(0,69,134)" stroke-width="80" stroke-linejoin="round" d="M 13210,3752 L 14010,3752"/>
 <path fill="rgb(0,69,134)" stroke="none" d="M 13504,3647 L 13504,3858 13715,3858 13715,3647 13504,3647 Z"/>
 <path fill="none" stroke="rgb(0,69,134)" stroke-linejoin="round" d="M 13504,3647 L 13504,3858 13715,3858 13715,3647 13504,3647 Z"/>
 <path fill="none" stroke="rgb(255,66,14)" stroke-width="80" stroke-linejoin="round" d="M 13210,4250 L 14010,4250"/>
 <path fill="rgb(255,66,14)" stroke="none" d="M 13504,4250 L 13610,4356 13715,4250 13610,4145 13504,4250 Z"/>
 <path fill="none" stroke="rgb(255,66,14)" stroke-linejoin="round" d="M 13504,4250 L 13610,4356 13715,4250 13610,4145 13504,4250 Z"/>
 <path fill="none" stroke="rgb(255,211,32)" stroke-width="80" stroke-linejoin="round" d="M 13210,4747 L 14010,4747"/>
 <path fill="rgb(255,211,32)" stroke="none" d="M 13504,4642 L 13610,4853 13715,4642 13504,4642 Z"/>
 <path fill="none" stroke="rgb(255,211,32)" stroke-linejoin="round" d="M 13504,4642 L 13610,4853 13715,4642 13504,4642 Z"/>
 <path fill="none" stroke="rgb(87,157,28)" stroke-width="80" stroke-linejoin="round" d="M 13210,5245 L 14010,5245"/>
 <path fill="rgb(87,157,28)" stroke="none" d="M 13504,5351 L 13715,5351 13610,5140 13504,5351 Z"/>
 <path fill="none" stroke="rgb(87,157,28)" stroke-linejoin="round" d="M 13504,5351 L 13715,5351 13610,5140 13504,5351 Z"/>
 <text class="TextShape"><tspan class="TextParagraph" font-family="Liberation Sans, sans-serif" font-size="353px" font-weight="400"><tspan class="TextPosition" x="14110" y="3872"><tspan fill="rgb(0,0,0)" stroke="none">between</tspan></tspan></tspan></text>
 <text class="TextShape"><tspan class="TextParagraph" font-family="Liberation Sans, sans-serif" font-size="353px" font-weight="400"><tspan class="TextPosition" x="14110" y="4370"><tspan fill="rgb(0,0,0)" stroke="none">closeness</tspan></tspan></tspan></text>
 <text class="TextShape"><tspan class="TextParagraph" font-family="Liberation Sans, sans-serif" font-size="353px" font-weight="400"><tspan class="TextPosition" x="14110" y="4867"><tspan fill="rgb(0,0,0)" stroke="none">page</tspan></tspan></tspan></text>
 <text class="TextShape"><tspan class="TextParagraph" font-family="Liberation Sans, sans-serif" font-size="353px" font-weight="400"><tspan class="TextPosition" x="14110" y="5365"><tspan fill="rgb(0,0,0)" stroke="none">random</tspan></tspan></tspan></text>
</svg>