<?xml version="1.0" encoding="UTF-8"?>
<!DOCTYPE svg PUBLIC "-//W3C//DTD SVG 1.1//EN" "http://www.w3.org/Graphics/SVG/1.1/DTD/svg11.dtd">
<svg width="160mm" height="90mm" viewBox="0 0 16000 9000" version="1.1" xmlns="http://www.w3.org/2000/svg" stroke-width="28.222" stroke-linejoin="round" xml:space="preserve">
 <path fill="rgb(255,255,255)" stroke="none" d="M 8000,8999 L 0,8999 0,0 15999,0 15999,8999 8000,8999 Z"/>
 <path fill="none" stroke="rgb(179,179,179)" stroke-linejoin="round" d="M 6671,8172 L 941,8172 941,379 12401,379 12401,8172 6671,8172 Z"/>
 <path fill="none" stroke="rgb(179,179,179)" stroke-linejoin="round" d="M 12401,8171 L 941,8171"/>
 <path fill="none" stroke="rgb(179,179,179)" stroke-linejoin="round" d="M 12401,6872 L 941,6872"/>
 <path fill="none" stroke="rgb(179,179,179)" stroke-linejoin="round" d="M 12401,5573 L 941,5573"/>
 <path fill="none" stroke="rgb(179,179,179)" stroke-linejoin="round" d="M 12401,4275 L 941,4275"/>
 <path fill="none" stroke="rgb(179,179,179)" stroke-linejoin="round" d="M 12401,2976 L 941,2976"/>
 <path fill="none" stroke="rgb(179,179,179)" stroke-linejoin="round" d="M 12401,1677 L 941,1677"/>
 <path fill="none" stroke="rgb(179,179,179)" stroke-linejoin="round" d="M 12401,378 L 941,378"/>
 <path fill="none" stroke="rgb(179,179,179)" stroke-linejoin="round" d="M 941,8321 L 941,8171"/>
 <path fill="none" stroke="rgb(179,179,179)" stroke-linejoin="round" d="M 941,8321 L 941,8171"/>
 <path fill="none" stroke="rgb(179,179,179)" stroke-linejoin="round" d="M 2214,8321 L 2214,8171"/>
 <path fill="none" stroke="rgb(179,179,179)" stroke-linejoin="round" d="M 2214,8321 L 2214,8171"/>
 <path fill="none" stroke="rgb(179,179,179)" stroke-linejoin="round" d="M 3487,8321 L 3487,8171"/>
 <path fill="none" stroke="rgb(179,179,179)" stroke-linejoin="round" d="M 3487,8321 L 3487,8171"/>
 <path fill="none" stroke="rgb(179,179,179)" stroke-linejoin="round" d="M 4761,8321 L 4761,8171"/>
 <path fill="none" stroke="rgb(179,179,179)" stroke-linejoin="round" d="M 4761,8321 L 4761,8171"/>
 <path fill="none" stroke="rgb(179,179,179)" stroke-linejoin="round" d="M 6034,8321 L 6034,8171"/>
 <path fill="none" stroke="rgb(179,179,179)" stroke-linejoin="round" d="M 6034,8321 L 6034,8171"/>
 <path fill="none" stroke="rgb(179,179,179)" stroke-linejoin="round" d="M 7308,8321 L 7308,8171"/>
 <path fill="none" stroke="rgb(179,179,179)" stroke-linejoin="round" d="M 7308,8321 L 7308,8171"/>
 <path fill="none" stroke="rgb(179,179,179)" stroke-linejoin="round" d="M 8580,8321 L 8580,8171"/>
 <path fill="none" stroke="rgb(179,179,179)" stroke-linejoin="round" d="M 8580,8321 L 8580,8171"/>
 <path fill="none" stroke="rgb(179,179,179)" stroke-linejoin="round" d="M 9854,8321 L 9854,8171"/>
 <path fill="none" stroke="rgb(179,179,179)" stroke-linejoin="round" d="M 9854,8321 L 9854,8171"/>
 <path fill="none" stroke="rgb(179,179,179)" stroke-linejoin="round" d="M 11127,8321 L 11127,8171"/>
 <path fill="none" stroke="rgb(179,179,179)" stroke-linejoin="round" d="M 11127,8321 L 11127,8171"/>
 <path fill="none" stroke="rgb(179,179,179)" stroke-linejoin="round" d="M 12401,8321 L 12401,8171"/>
 <path fill="none" stroke="rgb(179,179,179)" stroke-linejoin="round" d="M 12401,8321 L 12401,8171"/>
 <path fill="none" stroke="rgb(179,179,179)" stroke-linejoin="round" d="M 941,8171 L 12401,8171"/>
 <path fill="none" stroke="rgb(179,179,179)" stroke-linejoin="round" d="M 791,8171 L 941,8171"/>
 <path fill="none" stroke="rgb(179,179,179)" stroke-linejoin="round" d="M 791,8171 L 941,8171"/>
 <path fill="none" stroke="rgb(179,179,179)" stroke-linejoin="round" d="M 791,6872 L 941,6872"/>
 <path fill="none" stroke="rgb(179,179,179)" stroke-linejoin="round" d="M 791,6872 L 941,6872"/>
 <path fill="none" stroke="rgb(179,179,179)" stroke-linejoin="round" d="M 791,5573 L 941,5573"/>
 <path fill="none" stroke="rgb(179,179,179)" stroke-linejoin="round" d="M 791,5573 L 941,5573"/>
 <path fill="none" stroke="rgb(179,179,179)" stroke-linejoin="round" d="M 791,4275 L 941,4275"/>
 <path fill="none" stroke="rgb(179,179,179)" stroke-linejoin="round" d="M 791,4275 L 941,4275"/>
 <path fill="none" stroke="rgb(179,179,179)" stroke-linejoin="round" d="M 791,2976 L 941,2976"/>
 <path fill="none" stroke="rgb(179,179,179)" stroke-linejoin="round" d="M 791,2976 L 941,2976"/>
 <path fill="none" stroke="rgb(179,179,179)" stroke-linejoin="round" d="M 791,1677 L 941,1677"/>
 <path fill="none" stroke="rgb(179,179,179)" stroke-linejoin="round" d="M 791,1677 L 941,1677"/>
 <path fill="none" stroke="rgb(179,179,179)" stroke-linejoin="round" d="M 791,378 L 941,378"/>
 <path fill="none" stroke="rgb(179,179,179)" stroke-linejoin="round" d="M 791,378 L 941,378"/>
 <path fill="none" stroke="rgb(179,179,179)" stroke-linejoin="round" d="M 941,8171 L 941,378"/>
 <path fill="none" stroke="rgb(87,157,28)" stroke-width="80" stroke-linejoin="round" d="M 941,8171 L 960,8159 980,8147 999,8135 1019,8121 1039,8107 1058,8091 1078,8074 1097,8055 1117,8034 1136,8010 1155,7983 1174,7954 1193,7921 1212,7885 1231,7845 1249,7800 1268,7752 1286,7699 1304,7641 1323,7578 1340,7509 1358,7435 1376,7356 1393,7273 1411,7184 1429,7091 1446,6994 1464,6893 1482,6788 1501,6679 1519,6566 1538,6450 1557,6331 1577,6209 1597,6084 1617,5957 1638,5827 1660,5695 1682,5561 1705,5425 1728,5287 1752,5148 1776,5008 1801,4868 1825,4728 1850,4589 1874,4451 1898,4314 1921,4179 1943,4045 1964,3915 1984,3787 2003,3663 2021,3543 2037,3428 2051,3317 2063,3211 2073,3111 2081,3017 2087,2930 2090,2850 2091,2776 2090,2708 2088,2646 2086,2590 2084,2538 2082,2492 2082,2449 2083,2410 2085,2375 2091,2343 2100,2313 2112,2286 2128,2260 2149,2236 2175,2214 2207,2191 2245,2170 2289,2148 2341,2125 2401,2102 2467,2078 2540,2054 2619,2029 2704,2004 2794,1979 2888,1953 2985,1928 3086,1903 3190,1879 3296,1855 3403,1831 3511,1809 3620,1787 3729,1767 3837,1748 3944,1730 4049,1714 4152,1699 4251,1687 4348,1676 4442,1667 4534,1660 4625,1654 4715,1650 4806,1647 4898,1645 4991,1645 5088,1645 5188,1647 5292,1649 5401,1651 5516,1655 5637,1658 5765,1662 5902,1666 6047,1670 6202,1674 6367,1677 6544,1680 6732,1683 6931,1686 7141,1687 7360,1689 7590,1690 7828,1691 8074,1691 8328,1691 8589,1691 8857,1691 9131,1690 9410,1689 9694,1688 9982,1687 10273,1686 10568,1684 10865,1683 11163,1681 11463,1679 11764,1678"/>
 <path fill="rgb(87,157,28)" stroke="none" d="M 816,8296 L 1066,8296 941,8046 816,8296 Z"/>
 <path fill="none" stroke="rgb(87,157,28)" stroke-linejoin="round" d="M 816,8296 L 1066,8296 941,8046 816,8296 Z"/>
 <path fill="rgb(87,157,28)" stroke="none" d="M 1198,7703 L 1448,7703 1323,7453 1198,7703 Z"/>
 <path fill="none" stroke="rgb(87,157,28)" stroke-linejoin="round" d="M 1198,7703 L 1448,7703 1323,7453 1198,7703 Z"/>
 <path fill="rgb(87,157,28)" stroke="none" d="M 1580,5550 L 1830,5550 1705,5300 1580,5550 Z"/>
 <path fill="none" stroke="rgb(87,157,28)" stroke-linejoin="round" d="M 1580,5550 L 1830,5550 1705,5300 1580,5550 Z"/>
 <path fill="rgb(87,157,28)" stroke="none" d="M 1962,3055 L 2212,3055 2087,2805 1962,3055 Z"/>
 <path fill="none" stroke="rgb(87,157,28)" stroke-linejoin="round" d="M 1962,3055 L 2212,3055 2087,2805 1962,3055 Z"/>
 <path fill="rgb(87,157,28)" stroke="none" d="M 2216,2250 L 2466,2250 2341,2000 2216,2250 Z"/>
 <path fill="none" stroke="rgb(87,157,28)" stroke-linejoin="round" d="M 2216,2250 L 2466,2250 2341,2000 2216,2250 Z"/>
 <path fill="rgb(87,157,28)" stroke="none" d="M 4126,1812 L 4376,1812 4251,1562 4126,1812 Z"/>
 <path fill="none" stroke="rgb(87,157,28)" stroke-linejoin="round" d="M 4126,1812 L 4376,1812 4251,1562 4126,1812 Z"/>
 <path fill="rgb(87,157,28)" stroke="none" d="M 6419,1805 L 6669,1805 6544,1555 6419,1805 Z"/>
 <path fill="none" stroke="rgb(87,157,28)" stroke-linejoin="round" d="M 6419,1805 L 6669,1805 6544,1555 6419,1805 Z"/>
 <path fill="rgb(87,157,28)" stroke="none" d="M 11639,1803 L 11889,1803 11764,1553 11639,1803 Z"/>
 <path fill="none" stroke="rgb(87,157,28)" stroke-linejoin="round" d="M 11639,1803 L 11889,1803 11764,1553 11639,1803 Z"/>
 <path fill="none" stroke="rgb(255,211,32)" stroke-width="80" stroke-linejoin="round" d="M 941,8171 L 960,8161 980,8152 999,8142 1019,8132 1039,8121 1058,8110 1078,8099 1097,8086 1117,8073 1136,8059 1155,8043 1174,8027 1193,8009 1212,7989 1231,7969 1249,7946 1268,7922 1286,7896 1304,7868 1323,7838 1340,7805 1358,7771 1376,7734 1393,7694 1411,7652 1429,7606 1446,7558 1464,7506 1482,7451 1501,7392 1519,7330 1538,7264 1557,7194 1577,7120 1597,7041 1617,6959 1638,6871 1660,6779 1682,6682 1705,6580 1728,6473 1752,6361 1776,6246 1801,6127 1825,6005 1850,5880 1874,5754 1898,5626 1921,5498 1943,5370 1964,5242 1984,5115 2003,4989 2021,4865 2037,4745 2051,4627 2063,4513 2073,4404 2081,4300 2087,4200 2090,4107 2091,4019 2090,3936 2088,3858 2086,3784 2084,3714 2082,3647 2082,3584 2083,3523 2085,3464 2091,3407 2100,3352 2112,3298 2128,3244 2149,3190 2175,3136 2207,3081 2245,3025 2289,2968 2341,2909 2401,2847 2467,2784 2540,2719 2619,2652 2704,2585 2794,2518 2888,2450 2985,2382 3086,2316 3190,2250 3296,2186 3403,2123 3511,2063 3620,2006 3729,1951 3837,1899 3944,1852 4049,1808 4152,1769 4251,1735 4348,1705 4442,1681 4534,1661 4625,1646 4715,1634 4806,1626 4898,1621 4991,1619 5088,1620 5188,1623 5292,1628 5401,1635 5516,1643 5637,1652 5765,1661 5902,1671 6047,1681 6202,1691 6367,1700 6544,1708 6732,1715 6931,1720 7141,1725 7360,1728 7590,1731 7828,1732 8074,1732 8328,1732 8589,1731 8857,1729 9131,1726 9410,1723 9694,1720 9982,1715 10273,1711 10568,1706 10865,1701 11163,1696 11463,1691 11764,1685"/>
 <path fill="rgb(255,211,32)" stroke="none" d="M 816,8046 L 941,8296 1066,8046 816,8046 Z"/>
 <path fill="none" stroke="rgb(255,211,32)" stroke-linejoin="round" d="M 816,8046 L 941,8296 1066,8046 816,8046 Z"/>
 <path fill="rgb(255,211,32)" stroke="none" d="M 1198,7713 L 1323,7963 1448,7713 1198,7713 Z"/>
 <path fill="none" stroke="rgb(255,211,32)" stroke-linejoin="round" d="M 1198,7713 L 1323,7963 1448,7713 1198,7713 Z"/>
 <path fill="rgb(255,211,32)" stroke="none" d="M 1580,6455 L 1705,6705 1830,6455 1580,6455 Z"/>
 <path fill="none" stroke="rgb(255,211,32)" stroke-linejoin="round" d="M 1580,6455 L 1705,6705 1830,6455 1580,6455 Z"/>
 <path fill="rgb(255,211,32)" stroke="none" d="M 1962,4075 L 2087,4325 2212,4075 1962,4075 Z"/>
 <path fill="none" stroke="rgb(255,211,32)" stroke-linejoin="round" d="M 1962,4075 L 2087,4325 2212,4075 1962,4075 Z"/>
 <path fill="rgb(255,211,32)" stroke="none" d="M 2216,2784 L 2341,3034 2466,2784 2216,2784 Z"/>
 <path fill="none" stroke="rgb(255,211,32)" stroke-linejoin="round" d="M 2216,2784 L 2341,3034 2466,2784 2216,2784 Z"/>
 <path fill="rgb(255,211,32)" stroke="none" d="M 4126,1610 L 4251,1860 4376,1610 4126,1610 Z"/>
 <path fill="none" stroke="rgb(255,211,32)" stroke-linejoin="round" d="M 4126,1610 L 4251,1860 4376,1610 4126,1610 Z"/>
 <path fill="rgb(255,211,32)" stroke="none" d="M 6419,1583 L 6544,1833 6669,1583 6419,1583 Z"/>
 <path fill="none" stroke="rgb(255,211,32)" stroke-linejoin="round" d="M 6419,1583 L 6544,1833 6669,1583 6419,1583 Z"/>
 <path fill="rgb(255,211,32)" stroke="none" d="M 11639,1560 L 11764,1810 11889,1560 11639,1560 Z"/>
 <path fill="none" stroke="rgb(255,211,32)" stroke-linejoin="round" d="M 11639,1560 L 11764,1810 11889,1560 11639,1560 Z"/>
 <path fill="none" stroke="rgb(255,66,14)" stroke-width="80" stroke-linejoin="round" d="M 941,8171 L 960,8161 980,8152 999,8143 1019,8133 1039,8123 1058,8112 1078,8101 1097,8089 1117,8076 1136,8062 1155,8046 1174,8030 1193,8012 1212,7993 1231,7972 1249,7950 1268,7926 1286,7899 1304,7871 1323,7841 1340,7808 1358,7773 1376,7736 1393,7696 1411,7653 1429,7607 1446,7558 1464,7506 1482,7450 1501,7391 1519,7328 1538,7262 1557,7192 1577,7117 1597,7038 1617,6955 1638,6868 1660,6776 1682,6679 1705,6577 1728,6470 1752,6359 1776,6244 1801,6125 1825,6004 1850,5880 1874,5755 1898,5628 1921,5501 1943,5373 1964,5246 1984,5121 2003,4996 2021,4874 2037,4754 2051,4638 2063,4525 2073,4418 2081,4314 2087,4216 2090,4124 2091,4037 2090,3956 2088,3879 2086,3806 2084,3738 2082,3672 2082,3610 2083,3550 2085,3492 2091,3436 2100,3381 2112,3327 2128,3274 2149,3220 2175,3166 2207,3111 2245,3055 2289,2998 2341,2938 2401,2875 2467,2811 2540,2744 2619,2677 2704,2608 2794,2539 2888,2470 2985,2400 3086,2332 3190,2264 3296,2198 3403,2134 3511,2072 3620,2013 3729,1956 3837,1903 3944,1854 4049,1809 4152,1769 4251,1733 4348,1703 4442,1678 4534,1658 4625,1642 4715,1630 4806,1622 4898,1617 4991,1616 5088,1617 5188,1620 5292,1625 5401,1633 5516,1641 5637,1650 5765,1661 5902,1671 6047,1681 6202,1692 6367,1701 6544,1710 6732,1717 6931,1723 7141,1727 7360,1731 7590,1733 7828,1735 8074,1735 8328,1735 8589,1734 8857,1732 9131,1729 9410,1726 9694,1722 9982,1718 10273,1713 10568,1708 10865,1703 11163,1698 11463,1692 11764,1687"/>
 <path fill="rgb(255,66,14)" stroke="none" d="M 816,8171 L 941,8296 1066,8171 941,8046 816,8171 Z"/>
 <path fill="none" stroke="rgb(255,66,14)" stroke-linejoin="round" d="M 816,8171 L 941,8296 1066,8171 941,8046 816,8171 Z"/>
 <path fill="rgb(255,66,14)" stroke="none" d="M 1198,7841 L 1323,7966 1448,7841 1323,7716 1198,7841 Z"/>
 <path fill="none" stroke="rgb(255,66,14)" stroke-linejoin="round" d="M 1198,7841 L 1323,7966 1448,7841 1323,7716 1198,7841 Z"/>
 <path fill="rgb(255,66,14)" stroke="none" d="M 1580,6577 L 1705,6702 1830,6577 1705,6452 1580,6577 Z"/>
 <path fill="none" stroke="rgb(255,66,14)" stroke-linejoin="round" d="M 1580,6577 L 1705,6702 1830,6577 1705,6452 1580,6577 Z"/>
 <path fill="rgb(255,66,14)" stroke="none" d="M 1962,4216 L 2087,4341 2212,4216 2087,4091 1962,4216 Z"/>
 <path fill="none" stroke="rgb(255,66,14)" stroke-linejoin="round" d="M 1962,4216 L 2087,4341 2212,4216 2087,4091 1962,4216 Z"/>
 <path fill="rgb(255,66,14)" stroke="none" d="M 2216,2938 L 2341,3063 2466,2938 2341,2813 2216,2938 Z"/>
 <path fill="none" stroke="rgb(255,66,14)" stroke-linejoin="round" d="M 2216,2938 L 2341,3063 2466,2938 2341,2813 2216,2938 Z"/>
 <path fill="rgb(255,66,14)" stroke="none" d="M 4126,1733 L 4251,1858 4376,1733 4251,1608 4126,1733 Z"/>
 <path fill="none" stroke="rgb(255,66,14)" stroke-linejoin="round" d="M 4126,1733 L 4251,1858 4376,1733 4251,1608 4126,1733 Z"/>
 <path fill="rgb(255,66,14)" stroke="none" d="M 6419,1710 L 6544,1835 6669,1710 6544,1585 6419,1710 Z"/>
 <path fill="none" stroke="rgb(255,66,14)" stroke-linejoin="round" d="M 6419,1710 L 6544,1835 6669,1710 6544,1585 6419,1710 Z"/>
 <path fill="rgb(255,66,14)" stroke="none" d="M 11639,1687 L 11764,1812 11889,1687 11764,1562 11639,1687 Z"/>
 <path fill="none" stroke="rgb(255,66,14)" stroke-linejoin="round" d="M 11639,1687 L 11764,1812 11889,1687 11764,1562 11639,1687 Z"/>
 <path fill="none" stroke="rgb(0,69,134)" stroke-width="80" stroke-linejoin="round" d="M 941,8171 L 960,8161 980,8151 999,8141 1019,8130 1039,8119 1058,8108 1078,8096 1097,8083 1117,8069 1136,8054 1155,8038 1174,8021 1193,8003 1212,7983 1231,7961 1249,7938 1268,7913 1286,7887 1304,7858 1323,7827 1340,7794 1358,7758 1376,7721 1393,7680 1411,7637 1429,7590 1446,7541 1464,7489 1482,7433 1501,7373 1519,7310 1538,7243 1557,7173 1577,7098 1597,7019 1617,6935 1638,6847 1660,6755 1682,6657 1705,6555 1728,6448 1752,6336 1776,6220 1801,6101 1825,5979 1850,5854 1874,5728 1898,5600 1921,5471 1943,5342 1964,5214 1984,5086 2003,4960 2021,4836 2037,4714 2051,4595 2063,4481 2073,4370 2081,4263 2087,4162 2090,4066 2091,3975 2090,3890 2088,3809 2086,3732 2084,3659 2082,3589 2082,3523 2083,3459 2085,3398 2091,3338 2100,3280 2112,3223 2128,3168 2149,3112 2175,3057 2207,3001 2245,2945 2289,2888 2341,2829 2401,2769 2467,2707 2540,2644 2619,2580 2704,2516 2794,2452 2888,2388 2985,2324 3086,2261 3190,2200 3296,2140 3403,2081 3511,2025 3620,1972 3729,1921 3837,1874 3944,1830 4049,1789 4152,1753 4251,1722 4348,1695 4442,1672 4534,1654 4625,1640 4715,1629 4806,1622 4898,1617 4991,1616 5088,1616 5188,1619 5292,1624 5401,1630 5516,1638 5637,1646 5765,1655 5902,1664 6047,1674 6202,1683 6367,1691 6544,1699 6732,1706 6931,1711 7141,1715 7360,1719 7590,1721 7828,1723 8074,1724 8328,1724 8589,1723 8857,1721 9131,1720 9410,1717 9694,1714 9982,1711 10273,1707 10568,1703 10865,1699 11163,1695 11463,1690 11764,1686"/>
 <path fill="rgb(0,69,134)" stroke="none" d="M 816,8046 L 816,8296 1066,8296 1066,8046 816,8046 Z"/>
 <path fill="none" stroke="rgb(0,69,134)" stroke-linejoin="round" d="M 816,8046 L 816,8296 1066,8296 1066,8046 816,8046 Z"/>
 <path fill="rgb(0,69,134)" stroke="none" d="M 1198,7702 L 1198,7952 1448,7952 1448,7702 1198,7702 Z"/>
 <path fill="none" stroke="rgb(0,69,134)" stroke-linejoin="round" d="M 1198,7702 L 1198,7952 1448,7952 1448,7702 1198,7702 Z"/>
 <path fill="rgb(0,69,134)" stroke="none" d="M 1580,6430 L 1580,6680 1830,6680 1830,6430 1580,6430 Z"/>
 <path fill="none" stroke="rgb(0,69,134)" stroke-linejoin="round" d="M 1580,6430 L 1580,6680 1830,6680 1830,6430 1580,6430 Z"/>
 <path fill="rgb(0,69,134)" stroke="none" d="M 1962,4037 L 1962,4287 2212,4287 2212,4037 1962,4037 Z"/>
 <path fill="none" stroke="rgb(0,69,134)" stroke-linejoin="round" d="M 1962,4037 L 1962,4287 2212,4287 2212,4037 1962,4037 Z"/>
 <path fill="rgb(0,69,134)" stroke="none" d="M 2216,2704 L 2216,2954 2466,2954 2466,2704 2216,2704 Z"/>
 <path fill="none" stroke="rgb(0,69,134)" stroke-linejoin="round" d="M 2216,2704 L 2216,2954 2466,2954 2466,2704 2216,2704 Z"/>
 <path fill="rgb(0,69,134)" stroke="none" d="M 4126,1597 L 4126,1847 4376,1847 4376,1597 4126,1597 Z"/>
 <path fill="none" stroke="rgb(0,69,134)" stroke-linejoin="round" d="M 4126,1597 L 4126,1847 4376,1847 4376,1597 4126,1597 Z"/>
 <path fill="rgb(0,69,134)" stroke="none" d="M 6419,1574 L 6419,1824 6669,1824 6669,1574 6419,1574 Z"/>
 <path fill="none" stroke="rgb(0,69,134)" stroke-linejoin="round" d="M 6419,1574 L 6419,1824 6669,1824 6669,1574 6419,1574 Z"/>
 <path fill="rgb(0,69,134)" stroke="none" d="M 11639,1561 L 11639,1811 11889,1811 11889,1561 11639,1561 Z"/>
 <path fill="none" stroke="rgb(0,69,134)" stroke-linejoin="round" d="M 11639,1561 L 11639,1811 11889,1811 11889,1561 11639,1561 Z"/>
 <text class="TextShape"><tspan class="TextParagraph" font-family="Liberation Sans, sans-serif" font-size="353px" font-weight="400"><tspan class="TextPosition" x="848" y="8739"><tspan fill="rgb(0,0,0)" stroke="none">0</tspan></tspan></tspan></text>
 <text class="TextShape"><tspan class="TextParagraph" font-family="Liberation Sans, sans-serif" font-size="353px" font-weight="400"><tspan class="TextPosition" x="2029" y="8739"><tspan fill="rgb(0,0,0)" stroke="none">10</tspan></tspan></tspan></text>
 <text class="TextShape"><tspan class="TextParagraph" font-family="Liberation Sans, sans-serif" font-size="353px" font-weight="400"><tspan class="TextPosition" x="3302" y="8739"><tspan fill="rgb(0,0,0)" stroke="none">20</tspan></tspan></tspan></text>
 <text class="TextShape"><tspan class="TextParagraph" font-family="Liberation Sans, sans-serif" font-size="353px" font-weight="400"><tspan class="TextPosition" x="4576" y="8739"><tspan fill="rgb(0,0,0)" stroke="none">30</tspan></tspan></tspan></text>
 <text class="TextShape"><tspan class="TextParagraph" font-family="Liberation Sans, sans-serif" font-size="353px" font-weight="400"><tspan class="TextPosition" x="5849" y="8739"><tspan fill="rgb(0,0,0)" stroke="none">40</tspan></tspan></tspan></text>
 <text class="TextShape"><tspan class="TextParagraph" font-family="Liberation Sans, sans-serif" font-size="353px" font-weight="400"><tspan class="TextPosition" x="7123" y="8739"><tspan fill="rgb(0,0,0)" stroke="none">50</tspan></tspan></tspan></text>
 <text class="TextShape"><tspan class="TextParagraph" font-family="Liberation Sans, sans-serif" font-size="353px" font-weight="400"><tspan class="TextPosition" x="8396" y="8739"><tspan fill="rgb(0,0,0)" stroke="none">60</tspan></tspan></tspan></text>
 <text class="TextShape"><tspan class="TextParagraph" font-family="Liberation Sans, sans-serif" font-size="353px" font-weight="400"><tspan class="TextPosition" x="9670" y="8739"><tspan fill="rgb(0,0,0)" stroke="none">70</tspan></tspan></tspan></text>
 <text class="TextShape"><tspan class="TextParagraph" font-family="Liberation Sans, sans-serif" font-size="353px" font-weight="400"><tspan class="TextPosition" x="10943" y="8739"><tspan fill="rgb(0,0,0)" stroke="none">80</tspan></tspan></tspan></text>
 <text class="TextShape"><tspan class="TextParagraph" font-family="Liberation Sans, sans-serif" font-size="353px" font-weight="400"><tspan class="TextPosition" x="12217" y="8739"><tspan fill="rgb(0,0,0)" stroke="none">90</tspan></tspan></tspan></text>
 <text class="TextShape"><tspan class="TextParagraph" font-family="Liberation Sans, sans-serif" font-size="353px" font-weight="400"><tspan class="TextPosition" x="506" y="8292"><tspan fill="rgb(0,0,0)" stroke="none">0</tspan></tspan></tspan></text>
 <text class="TextShape"><tspan class="TextParagraph" font-family="Liberation Sans, sans-serif" font-size="353px" font-weight="400"><tspan class="TextPosition" x="321" y="6993"><tspan fill="rgb(0,0,0)" stroke="none">20</tspan></tspan></tspan></text>
 <text class="TextShape"><tspan class="TextParagraph" font-family="Liberation Sans, sans-serif" font-size="353px" font-weight="400"><tspan class="TextPosition" x="321" y="5694"><tspan fill="rgb(0,0,0)" stroke="none">40</tspan></tspan></tspan></text>
 <text class="TextShape"><tspan class="TextParagraph" font-family="Liberation Sans, sans-serif" font-size="353px" font-weight="400"><tspan class="TextPosition" x="321" y="4395"><tspan fill="rgb(0,0,0)" stroke="none">60</tspan></tspan></tspan></text>
 <text class="TextShape"><tspan class="TextParagraph" font-family="Liberation Sans, sans-serif" font-size="353px" font-weight="400"><tspan class="TextPosition" x="321" y="3096"><tspan fill="rgb(0,0,0)" stroke="none">80</tspan></tspan></tspan></text>
 <text class="TextShape"><tspan class="TextParagraph" font-family="Liberation Sans, sans-serif" font-size="353px" font-weight="400"><tspan class="TextPosition" x="135" y="1797"><tspan fill="rgb(0,0,0)" stroke="none">100</tspan></tspan></tspan></text>
 <text class="TextShape"><tspan class="TextParagraph" font-family="Liberation Sans, sans-serif" font-size="353px" font-weight="400"><tspan class="TextPosition" x="135" y="498"><tspan fill="rgb(0,0,0)" stroke="none">120</tspan></tspan></tspan></text>
 <path fill="none" stroke="rgb(0,69,134)" stroke-width="80" stroke-linejoin="round" d="M 13210,3752 L 14010,3752"/>
 <path fill="rgb(0,69,134)" stroke="none" d="M 13504,3647 L 13504,3858 13715,3858 13715,3647 13504,3647 Z"/>
 <path fill="none" stroke="rgb(0,69,134)" stroke-linejoin="round" d="M 13504,3647 L 13504,3858 13715,3858 13715,3647 13504,3647 Z"/>
 <path fill="none" stroke="rgb(255,66,14)" stroke-width="80" stroke-linejoin="round" d="M 13210,4250 L 14010,4250"/>
 <path fill="rgb(255,66,14)" stroke="none" d="M 13504,4250 L 13610,4356 13715,4250 13610,4145 13504,4250 Z"/>
 <path fill="none" stroke="rgb(255,66,14)" stroke-linejoin="round" d="M 13504,4250 L 13610,4356 13715,4250 13610,4145 13504,4250 Z"/>
 <path fill="none" stroke="rgb(255,211,32)" stroke-width="80" stroke-linejoin="round" d="M 13210,4747 L 14010,4747"/>
 <path fill="rgb(255,211,32)" stroke="none" d="M 13504,4642 L 13610,4853 13715,4642 13504,4642 Z"/>
 <path fill="none" stroke="rgb(255,211,32)" stroke-linejoin="round" d="M 13504,4642 L 13610,4853 13715,4642 13504,4642 Z"/>
 <path fill="none" stroke="rgb(87,157,28)" stroke-width="80" stroke-linejoin="round" d="M 13210,5245 L 14010,5245"/>
 <path fill="rgb(87,157,28)" stroke="none" d="M 13504,5351 L 13715,5351 13610,5140 13504,5351 Z"/>
 <path fill="none" stroke="rgb(87,157,28)" stroke-linejoin="round" d="M 13504,5351 L 13715,5351 13610,5140 13504,5351 Z"/>
 <text class="TextShape"><tspan class="TextParagraph" font-family="Liberation Sans, sans-serif" font-size="353px" font-weight="400"><tspan class="TextPosition" x="14110" y="3872"><tspan fill="rgb(0,0,0)" stroke="none">between</tspan></tspan></tspan></text>
 <text class="TextShape"><tspan class="TextParagraph" font-family="Liberation Sans, sans-serif" font-size="353px" font-weight="400"><tspan class="TextPosition" x="14110" y="4370"><tspan fill="rgb(0,0,0)" stroke="none">closeness</tspan></tspan></tspan></text>
 <text class="TextShape"><tspan class="TextParagraph" font-family="Liberation Sans, sans-serif" font-size="353px" font-weight="400"><tspan class="TextPosition" x="14110" y="4867"><tspan fill="rgb(0,0,0)" stroke="none">page</tspan></tspan></tspan></text>
 <text class="TextShape"><tspan class="TextParagraph" font-family="Liberation Sans, sans-serif" font-size="353px" font-weight="400"><tspan class="TextPosition" x="14110" y="5365"><tspan fill="rgb(0,0,0)" stroke="none">random</tspan></tspan></tspan></text>
</svg>