<?xml version="1.0" encoding="UTF-8"?>
<!DOCTYPE svg PUBLIC "-//W3C//DTD SVG 1.1//EN" "http://www.w3.org/Graphics/SVG/1.1/DTD/svg11.dtd">
<svg width="160mm" height="90mm" viewBox="0 0 16000 9000" version="1.1" xmlns="http://www.w3.org/2000/svg" stroke-width="28.222" stroke-linejoin="round" xml:space="preserve">
 <path fill="rgb(255,255,255)" stroke="none" d="M 8000,8999 L 0,8999 0,0 15999,0 15999,8999 8000,8999 Z"/>
 <path fill="none" stroke="rgb(179,179,179)" stroke-linejoin="round" d="M 7042,8172 L 1497,8172 1497,379 12587,379 12587,8172 7042,8172 Z"/>
 <path fill="none" stroke="rgb(179,179,179)" stroke-linejoin="round" d="M 12587,8171 L 1497,8171"/>
 <path fill="none" stroke="rgb(179,179,179)" stroke-linejoin="round" d="M 12587,7305 L 1497,7305"/>
 <path fill="none" stroke="rgb(179,179,179)" stroke-linejoin="round" d="M 12587,6439 L 1497,6439"/>
 <path fill="none" stroke="rgb(179,179,179)" stroke-linejoin="round" d="M 12587,5573 L 1497,5573"/>
 <path fill="none" stroke="rgb(179,179,179)" stroke-linejoin="round" d="M 12587,4707 L 1497,4707"/>
 <path fill="none" stroke="rgb(179,179,179)" stroke-linejoin="round" d="M 12587,3842 L 1497,3842"/>
 <path fill="none" stroke="rgb(179,179,179)" stroke-linejoin="round" d="M 12587,2976 L 1497,2976"/>
 <path fill="none" stroke="rgb(179,179,179)" stroke-linejoin="round" d="M 12587,2110 L 1497,2110"/>
 <path fill="none" stroke="rgb(179,179,179)" stroke-linejoin="round" d="M 12587,1244 L 1497,1244"/>
 <path fill="none" stroke="rgb(179,179,179)" stroke-linejoin="round" d="M 12587,378 L 1497,378"/>
 <path fill="none" stroke="rgb(179,179,179)" stroke-linejoin="round" d="M 1497,8321 L 1497,8171"/>
 <path fill="none" stroke="rgb(179,179,179)" stroke-linejoin="round" d="M 1497,8321 L 1497,8171"/>
 <path fill="none" stroke="rgb(179,179,179)" stroke-linejoin="round" d="M 2729,8321 L 2729,8171"/>
 <path fill="none" stroke="rgb(179,179,179)" stroke-linejoin="round" d="M 2729,8321 L 2729,8171"/>
 <path fill="none" stroke="rgb(179,179,179)" stroke-linejoin="round" d="M 3961,8321 L 3961,8171"/>
 <path fill="none" stroke="rgb(179,179,179)" stroke-linejoin="round" d="M 3961,8321 L 3961,8171"/>
 <path fill="none" stroke="rgb(179,179,179)" stroke-linejoin="round" d="M 5194,8321 L 5194,8171"/>
 <path fill="none" stroke="rgb(179,179,179)" stroke-linejoin="round" d="M 5194,8321 L 5194,8171"/>
 <path fill="none" stroke="rgb(179,179,179)" stroke-linejoin="round" d="M 6426,8321 L 6426,8171"/>
 <path fill="none" stroke="rgb(179,179,179)" stroke-linejoin="round" d="M 6426,8321 L 6426,8171"/>
 <path fill="none" stroke="rgb(179,179,179)" stroke-linejoin="round" d="M 7658,8321 L 7658,8171"/>
 <path fill="none" stroke="rgb(179,179,179)" stroke-linejoin="round" d="M 7658,8321 L 7658,8171"/>
 <path fill="none" stroke="rgb(179,179,179)" stroke-linejoin="round" d="M 8890,8321 L 8890,8171"/>
 <path fill="none" stroke="rgb(179,179,179)" stroke-linejoin="round" d="M 8890,8321 L 8890,8171"/>
 <path fill="none" stroke="rgb(179,179,179)" stroke-linejoin="round" d="M 10122,8321 L 10122,8171"/>
 <path fill="none" stroke="rgb(179,179,179)" stroke-linejoin="round" d="M 10122,8321 L 10122,8171"/>
 <path fill="none" stroke="rgb(179,179,179)" stroke-linejoin="round" d="M 11354,8321 L 11354,8171"/>
 <path fill="none" stroke="rgb(179,179,179)" stroke-linejoin="round" d="M 11354,8321 L 11354,8171"/>
 <path fill="none" stroke="rgb(179,179,179)" stroke-linejoin="round" d="M 12587,8321 L 12587,8171"/>
 <path fill="none" stroke="rgb(179,179,179)" stroke-linejoin="round" d="M 12587,8321 L 12587,8171"/>
 <path fill="none" stroke="rgb(179,179,179)" stroke-linejoin="round" d="M 1497,8171 L 12587,8171"/>
 <path fill="none" stroke="rgb(179,179,179)" stroke-linejoin="round" d="M 1347,8171 L 1497,8171"/>
 <path fill="none" stroke="rgb(179,179,179)" stroke-linejoin="round" d="M 1347,8171 L 1497,8171"/>
 <path fill="none" stroke="rgb(179,179,179)" stroke-linejoin="round" d="M 1347,7305 L 1497,7305"/>
 <path fill="none" stroke="rgb(179,179,179)" stroke-linejoin="round" d="M 1347,7305 L 1497,7305"/>
 <path fill="none" stroke="rgb(179,179,179)" stroke-linejoin="round" d="M 1347,6439 L 1497,6439"/>
 <path fill="none" stroke="rgb(179,179,179)" stroke-linejoin="round" d="M 1347,6439 L 1497,6439"/>
 <path fill="none" stroke="rgb(179,179,179)" stroke-linejoin="round" d="M 1347,5573 L 1497,5573"/>
 <path fill="none" stroke="rgb(179,179,179)" stroke-linejoin="round" d="M 1347,5573 L 1497,5573"/>
 <path fill="none" stroke="rgb(179,179,179)" stroke-linejoin="round" d="M 1347,4707 L 1497,4707"/>
 <path fill="none" stroke="rgb(179,179,179)" stroke-linejoin="round" d="M 1347,4707 L 1497,4707"/>
 <path fill="none" stroke="rgb(179,179,179)" stroke-linejoin="round" d="M 1347,3842 L 1497,3842"/>
 <path fill="none" stroke="rgb(179,179,179)" stroke-linejoin="round" d="M 1347,3842 L 1497,3842"/>
 <path fill="none" stroke="rgb(179,179,179)" stroke-linejoin="round" d="M 1347,2975 L 1497,2975"/>
 <path fill="none" stroke="rgb(179,179,179)" stroke-linejoin="round" d="M 1347,2975 L 1497,2975"/>
 <path fill="none" stroke="rgb(179,179,179)" stroke-linejoin="round" d="M 1347,2110 L 1497,2110"/>
 <path fill="none" stroke="rgb(179,179,179)" stroke-linejoin="round" d="M 1347,2110 L 1497,2110"/>
 <path fill="none" stroke="rgb(179,179,179)" stroke-linejoin="round" d="M 1347,1243 L 1497,1243"/>
 <path fill="none" stroke="rgb(179,179,179)" stroke-linejoin="round" d="M 1347,1243 L 1497,1243"/>
 <path fill="none" stroke="rgb(179,179,179)" stroke-linejoin="round" d="M 1347,378 L 1497,378"/>
 <path fill="none" stroke="rgb(179,179,179)" stroke-linejoin="round" d="M 1347,378 L 1497,378"/>
 <path fill="none" stroke="rgb(179,179,179)" stroke-linejoin="round" d="M 1497,8171 L 1497,378"/>
 <path fill="none" stroke="rgb(87,157,28)" stroke-width="80" stroke-linejoin="round" d="M 1497,7453 L 1866,2386 2236,2759 2606,6695 2852,7440 4701,7727 6919,7769 11970,7847"/>
 <path fill="rgb(87,157,28)" stroke="none" d="M 1372,7578 L 1622,7578 1497,7328 1372,7578 Z"/>
 <path fill="none" stroke="rgb(87,157,28)" stroke-linejoin="round" d="M 1372,7578 L 1622,7578 1497,7328 1372,7578 Z"/>
 <path fill="rgb(87,157,28)" stroke="none" d="M 1741,2511 L 1991,2511 1866,2261 1741,2511 Z"/>
 <path fill="none" stroke="rgb(87,157,28)" stroke-linejoin="round" d="M 1741,2511 L 1991,2511 1866,2261 1741,2511 Z"/>
 <path fill="rgb(87,157,28)" stroke="none" d="M 2111,2884 L 2361,2884 2236,2634 2111,2884 Z"/>
 <path fill="none" stroke="rgb(87,157,28)" stroke-linejoin="round" d="M 2111,2884 L 2361,2884 2236,2634 2111,2884 Z"/>
 <path fill="rgb(87,157,28)" stroke="none" d="M 2481,6820 L 2731,6820 2606,6570 2481,6820 Z"/>
 <path fill="none" stroke="rgb(87,157,28)" stroke-linejoin="round" d="M 2481,6820 L 2731,6820 2606,6570 2481,6820 Z"/>
 <path fill="rgb(87,157,28)" stroke="none" d="M 2727,7565 L 2977,7565 2852,7315 2727,7565 Z"/>
 <path fill="none" stroke="rgb(87,157,28)" stroke-linejoin="round" d="M 2727,7565 L 2977,7565 2852,7315 2727,7565 Z"/>
 <path fill="rgb(87,157,28)" stroke="none" d="M 4576,7852 L 4826,7852 4701,7602 4576,7852 Z"/>
 <path fill="none" stroke="rgb(87,157,28)" stroke-linejoin="round" d="M 4576,7852 L 4826,7852 4701,7602 4576,7852 Z"/>
 <path fill="rgb(87,157,28)" stroke="none" d="M 6794,7894 L 7044,7894 6919,7644 6794,7894 Z"/>
 <path fill="none" stroke="rgb(87,157,28)" stroke-linejoin="round" d="M 6794,7894 L 7044,7894 6919,7644 6794,7894 Z"/>
 <path fill="rgb(87,157,28)" stroke="none" d="M 11845,7972 L 12095,7972 11970,7722 11845,7972 Z"/>
 <path fill="none" stroke="rgb(87,157,28)" stroke-linejoin="round" d="M 11845,7972 L 12095,7972 11970,7722 11845,7972 Z"/>
 <path fill="none" stroke="rgb(255,211,32)" stroke-width="80" stroke-linejoin="round" d="M 1497,7456 L 1866,6845 2236,1522 2606,5205 2852,6924 4701,7639 6919,7657 11970,7728"/>
 <path fill="rgb(255,211,32)" stroke="none" d="M 1372,7331 L 1497,7581 1622,7331 1372,7331 Z"/>
 <path fill="none" stroke="rgb(255,211,32)" stroke-linejoin="round" d="M 1372,7331 L 1497,7581 1622,7331 1372,7331 Z"/>
 <path fill="rgb(255,211,32)" stroke="none" d="M 1741,6720 L 1866,6970 1991,6720 1741,6720 Z"/>
 <path fill="none" stroke="rgb(255,211,32)" stroke-linejoin="round" d="M 1741,6720 L 1866,6970 1991,6720 1741,6720 Z"/>
 <path fill="rgb(255,211,32)" stroke="none" d="M 2111,1397 L 2236,1647 2361,1397 2111,1397 Z"/>
 <path fill="none" stroke="rgb(255,211,32)" stroke-linejoin="round" d="M 2111,1397 L 2236,1647 2361,1397 2111,1397 Z"/>
 <path fill="rgb(255,211,32)" stroke="none" d="M 2481,5080 L 2606,5330 2731,5080 2481,5080 Z"/>
 <path fill="none" stroke="rgb(255,211,32)" stroke-linejoin="round" d="M 2481,5080 L 2606,5330 2731,5080 2481,5080 Z"/>
 <path fill="rgb(255,211,32)" stroke="none" d="M 2727,6799 L 2852,7049 2977,6799 2727,6799 Z"/>
 <path fill="none" stroke="rgb(255,211,32)" stroke-linejoin="round" d="M 2727,6799 L 2852,7049 2977,6799 2727,6799 Z"/>
 <path fill="rgb(255,211,32)" stroke="none" d="M 4576,7514 L 4701,7764 4826,7514 4576,7514 Z"/>
 <path fill="none" stroke="rgb(255,211,32)" stroke-linejoin="round" d="M 4576,7514 L 4701,7764 4826,7514 4576,7514 Z"/>
 <path fill="rgb(255,211,32)" stroke="none" d="M 6794,7532 L 6919,7782 7044,7532 6794,7532 Z"/>
 <path fill="none" stroke="rgb(255,211,32)" stroke-linejoin="round" d="M 6794,7532 L 6919,7782 7044,7532 6794,7532 Z"/>
 <path fill="rgb(255,211,32)" stroke="none" d="M 11845,7603 L 11970,7853 12095,7603 11845,7603 Z"/>
 <path fill="none" stroke="rgb(255,211,32)" stroke-linejoin="round" d="M 11845,7603 L 11970,7853 12095,7603 11845,7603 Z"/>
 <path fill="none" stroke="rgb(255,66,14)" stroke-width="80" stroke-linejoin="round" d="M 1497,7456 L 1866,6854 2236,1402 2606,5223 2852,6906 4701,7640 6919,7658 11970,7714"/>
 <path fill="rgb(255,66,14)" stroke="none" d="M 1372,7456 L 1497,7581 1622,7456 1497,7331 1372,7456 Z"/>
 <path fill="none" stroke="rgb(255,66,14)" stroke-linejoin="round" d="M 1372,7456 L 1497,7581 1622,7456 1497,7331 1372,7456 Z"/>
 <path fill="rgb(255,66,14)" stroke="none" d="M 1741,6854 L 1866,6979 1991,6854 1866,6729 1741,6854 Z"/>
 <path fill="none" stroke="rgb(255,66,14)" stroke-linejoin="round" d="M 1741,6854 L 1866,6979 1991,6854 1866,6729 1741,6854 Z"/>
 <path fill="rgb(255,66,14)" stroke="none" d="M 2111,1402 L 2236,1527 2361,1402 2236,1277 2111,1402 Z"/>
 <path fill="none" stroke="rgb(255,66,14)" stroke-linejoin="round" d="M 2111,1402 L 2236,1527 2361,1402 2236,1277 2111,1402 Z"/>
 <path fill="rgb(255,66,14)" stroke="none" d="M 2481,5223 L 2606,5348 2731,5223 2606,5098 2481,5223 Z"/>
 <path fill="none" stroke="rgb(255,66,14)" stroke-linejoin="round" d="M 2481,5223 L 2606,5348 2731,5223 2606,5098 2481,5223 Z"/>
 <path fill="rgb(255,66,14)" stroke="none" d="M 2727,6906 L 2852,7031 2977,6906 2852,6781 2727,6906 Z"/>
 <path fill="none" stroke="rgb(255,66,14)" stroke-linejoin="round" d="M 2727,6906 L 2852,7031 2977,6906 2852,6781 2727,6906 Z"/>
 <path fill="rgb(255,66,14)" stroke="none" d="M 4576,7640 L 4701,7765 4826,7640 4701,7515 4576,7640 Z"/>
 <path fill="none" stroke="rgb(255,66,14)" stroke-linejoin="round" d="M 4576,7640 L 4701,7765 4826,7640 4701,7515 4576,7640 Z"/>
 <path fill="rgb(255,66,14)" stroke="none" d="M 6794,7658 L 6919,7783 7044,7658 6919,7533 6794,7658 Z"/>
 <path fill="none" stroke="rgb(255,66,14)" stroke-linejoin="round" d="M 6794,7658 L 6919,7783 7044,7658 6919,7533 6794,7658 Z"/>
 <path fill="rgb(255,66,14)" stroke="none" d="M 11845,7714 L 11970,7839 12095,7714 11970,7589 11845,7714 Z"/>
 <path fill="none" stroke="rgb(255,66,14)" stroke-linejoin="round" d="M 11845,7714 L 11970,7839 12095,7714 11970,7589 11845,7714 Z"/>
 <path fill="none" stroke="rgb(0,69,134)" stroke-width="80" stroke-linejoin="round" d="M 1497,7454 L 1866,6874 2236,1524 2606,5219 2852,7010 4701,7653 6919,7677 11970,7732"/>
 <path fill="rgb(0,69,134)" stroke="none" d="M 1372,7329 L 1372,7579 1622,7579 1622,7329 1372,7329 Z"/>
 <path fill="none" stroke="rgb(0,69,134)" stroke-linejoin="round" d="M 1372,7329 L 1372,7579 1622,7579 1622,7329 1372,7329 Z"/>
 <path fill="rgb(0,69,134)" stroke="none" d="M 1741,6749 L 1741,6999 1991,6999 1991,6749 1741,6749 Z"/>
 <path fill="none" stroke="rgb(0,69,134)" stroke-linejoin="round" d="M 1741,6749 L 1741,6999 1991,6999 1991,6749 1741,6749 Z"/>
 <path fill="rgb(0,69,134)" stroke="none" d="M 2111,1399 L 2111,1649 2361,1649 2361,1399 2111,1399 Z"/>
 <path fill="none" stroke="rgb(0,69,134)" stroke-linejoin="round" d="M 2111,1399 L 2111,1649 2361,1649 2361,1399 2111,1399 Z"/>
 <path fill="rgb(0,69,134)" stroke="none" d="M 2481,5094 L 2481,5344 2731,5344 2731,5094 2481,5094 Z"/>
 <path fill="none" stroke="rgb(0,69,134)" stroke-linejoin="round" d="M 2481,5094 L 2481,5344 2731,5344 2731,5094 2481,5094 Z"/>
 <path fill="rgb(0,69,134)" stroke="none" d="M 2727,6885 L 2727,7135 2977,7135 2977,6885 2727,6885 Z"/>
 <path fill="none" stroke="rgb(0,69,134)" stroke-linejoin="round" d="M 2727,6885 L 2727,7135 2977,7135 2977,6885 2727,6885 Z"/>
 <path fill="rgb(0,69,134)" stroke="none" d="M 4576,7528 L 4576,7778 4826,7778 4826,7528 4576,7528 Z"/>
 <path fill="none" stroke="rgb(0,69,134)" stroke-linejoin="round" d="M 4576,7528 L 4576,7778 4826,7778 4826,7528 4576,7528 Z"/>
 <path fill="rgb(0,69,134)" stroke="none" d="M 6794,7552 L 6794,7802 7044,7802 7044,7552 6794,7552 Z"/>
 <path fill="none" stroke="rgb(0,69,134)" stroke-linejoin="round" d="M 6794,7552 L 6794,7802 7044,7802 7044,7552 6794,7552 Z"/>
 <path fill="rgb(0,69,134)" stroke="none" d="M 11845,7607 L 11845,7857 12095,7857 12095,7607 11845,7607 Z"/>
 <path fill="none" stroke="rgb(0,69,134)" stroke-linejoin="round" d="M 11845,7607 L 11845,7857 12095,7857 12095,7607 11845,7607 Z"/>
 <text class="TextShape"><tspan class="TextParagraph" font-family="Liberation Sans" font-size="353px" font-weight="400"><tspan class="TextPosition" x="1404" y="8739"><tspan fill="rgb(0,0,0)" stroke="none">0</tspan></tspan></tspan></text>
 <text class="TextShape"><tspan class="TextParagraph" font-family="Liberation Sans" font-size="353px" font-weight="400"><tspan class="TextPosition" x="2544" y="8739"><tspan fill="rgb(0,0,0)" stroke="none">10</tspan></tspan></tspan></text>
 <text class="TextShape"><tspan class="TextParagraph" font-family="Liberation Sans" font-size="353px" font-weight="400"><tspan class="TextPosition" x="3776" y="8739"><tspan fill="rgb(0,0,0)" stroke="none">20</tspan></tspan></tspan></text>
 <text class="TextShape"><tspan class="TextParagraph" font-family="Liberation Sans" font-size="353px" font-weight="400"><tspan class="TextPosition" x="5009" y="8739"><tspan fill="rgb(0,0,0)" stroke="none">30</tspan></tspan></tspan></text>
 <text class="TextShape"><tspan class="TextParagraph" font-family="Liberation Sans" font-size="353px" font-weight="400"><tspan class="TextPosition" x="6241" y="8739"><tspan fill="rgb(0,0,0)" stroke="none">40</tspan></tspan></tspan></text>
 <text class="TextShape"><tspan class="TextParagraph" font-family="Liberation Sans" font-size="353px" font-weight="400"><tspan class="TextPosition" x="7473" y="8739"><tspan fill="rgb(0,0,0)" stroke="none">50</tspan></tspan></tspan></text>
 <text class="TextShape"><tspan class="TextParagraph" font-family="Liberation Sans" font-size="353px" font-weight="400"><tspan class="TextPosition" x="8706" y="8739"><tspan fill="rgb(0,0,0)" stroke="none">60</tspan></tspan></tspan></text>
 <text class="TextShape"><tspan class="TextParagraph" font-family="Liberation Sans" font-size="353px" font-weight="400"><tspan class="TextPosition" x="9938" y="8739"><tspan fill="rgb(0,0,0)" stroke="none">70</tspan></tspan></tspan></text>
 <text class="TextShape"><tspan class="TextParagraph" font-family="Liberation Sans" font-size="353px" font-weight="400"><tspan class="TextPosition" x="11170" y="8739"><tspan fill="rgb(0,0,0)" stroke="none">80</tspan></tspan></tspan></text>
 <text class="TextShape"><tspan class="TextParagraph" font-family="Liberation Sans" font-size="353px" font-weight="400"><tspan class="TextPosition" x="12403" y="8739"><tspan fill="rgb(0,0,0)" stroke="none">90</tspan></tspan></tspan></text>
 <text class="TextShape"><tspan class="TextParagraph" font-family="Liberation Sans" font-size="353px" font-weight="400"><tspan class="TextPosition" x="1062" y="8292"><tspan fill="rgb(0,0,0)" stroke="none">0</tspan></tspan></tspan></text>
 <text class="TextShape"><tspan class="TextParagraph" font-family="Liberation Sans" font-size="353px" font-weight="400"><tspan class="TextPosition" x="321" y="7426"><tspan fill="rgb(0,0,0)" stroke="none">10000</tspan></tspan></tspan></text>
 <text class="TextShape"><tspan class="TextParagraph" font-family="Liberation Sans" font-size="353px" font-weight="400"><tspan class="TextPosition" x="321" y="6560"><tspan fill="rgb(0,0,0)" stroke="none">20000</tspan></tspan></tspan></text>
 <text class="TextShape"><tspan class="TextParagraph" font-family="Liberation Sans" font-size="353px" font-weight="400"><tspan class="TextPosition" x="321" y="5694"><tspan fill="rgb(0,0,0)" stroke="none">30000</tspan></tspan></tspan></text>
 <text class="TextShape"><tspan class="TextParagraph" font-family="Liberation Sans" font-size="353px" font-weight="400"><tspan class="TextPosition" x="321" y="4828"><tspan fill="rgb(0,0,0)" stroke="none">40000</tspan></tspan></tspan></text>
 <text class="TextShape"><tspan class="TextParagraph" font-family="Liberation Sans" font-size="353px" font-weight="400"><tspan class="TextPosition" x="321" y="3962"><tspan fill="rgb(0,0,0)" stroke="none">50000</tspan></tspan></tspan></text>
 <text class="TextShape"><tspan class="TextParagraph" font-family="Liberation Sans" font-size="353px" font-weight="400"><tspan class="TextPosition" x="321" y="3095"><tspan fill="rgb(0,0,0)" stroke="none">60000</tspan></tspan></tspan></text>
 <text class="TextShape"><tspan class="TextParagraph" font-family="Liberation Sans" font-size="353px" font-weight="400"><tspan class="TextPosition" x="321" y="2230"><tspan fill="rgb(0,0,0)" stroke="none">70000</tspan></tspan></tspan></text>
 <text class="TextShape"><tspan class="TextParagraph" font-family="Liberation Sans" font-size="353px" font-weight="400"><tspan class="TextPosition" x="321" y="1363"><tspan fill="rgb(0,0,0)" stroke="none">80000</tspan></tspan></tspan></text>
 <text class="TextShape"><tspan class="TextParagraph" font-family="Liberation Sans" font-size="353px" font-weight="400"><tspan class="TextPosition" x="321" y="498"><tspan fill="rgb(0,0,0)" stroke="none">90000</tspan></tspan></tspan></text>
 <path fill="none" stroke="rgb(0,69,134)" stroke-width="80" stroke-linejoin="round" d="M 13210,3752 L 14010,3752"/>
 <path fill="rgb(0,69,134)" stroke="none" d="M 13504,3647 L 13504,3858 13715,3858 13715,3647 13504,3647 Z"/>
 <path fill="none" stroke="rgb(0,69,134)" stroke-linejoin="round" d="M 13504,3647 L 13504,3858 13715,3858 13715,3647 13504,3647 Z"/>
 <path fill="none" stroke="rgb(255,66,14)" stroke-width="80" stroke-linejoin="round" d="M 13210,4250 L 14010,4250"/>
 <path fill="rgb(255,66,14)" stroke="none" d="M 13504,4250 L 13610,4356 13715,4250 13610,4145 13504,4250 Z"/>
 <path fill="none" stroke="rgb(255,66,14)" stroke-linejoin="round" d="M 13504,4250 L 13610,4356 13715,4250 13610,4145 13504,4250 Z"/>
 <path fill="none" stroke="rgb(255,211,32)" stroke-width="80" stroke-linejoin="round" d="M 13210,4747 L 14010,4747"/>
 <path fill="rgb(255,211,32)" stroke="none" d="M 13504,4642 L 13610,4853 13715,4642 13504,4642 Z"/>
 <path fill="none" stroke="rgb(255,211,32)" stroke-linejoin="round" d="M 13504,4642 L 13610,4853 13715,4642 13504,4642 Z"/>
 <path fill="none" stroke="rgb(87,157,28)" stroke-width="80" stroke-linejoin="round" d="M 13210,5245 L 14010,5245"/>
 <path fill="rgb(87,157,28)" stroke="none" d="M 13504,5351 L 13715,5351 13610,5140 13504,5351 Z"/>
 <path fill="none" stroke="rgb(87,157,28)" stroke-linejoin="round" d="M 13504,5351 L 13715,5351 13610,5140 13504,5351 Z"/>
 <text class="TextShape"><tspan class="TextParagraph" font-family="Liberation Sans" font-size="353px" font-weight="400"><tspan class="TextPosition" x="14110" y="3872"><tspan fill="rgb(0,0,0)" stroke="none">between</tspan></tspan></tspan></text>
 <text class="TextShape"><tspan class="TextParagraph" font-family="Liberation Sans" font-size="353px" font-weight="400"><tspan class="TextPosition" x="14110" y="4370"><tspan fill="rgb(0,0,0)" stroke="none">closeness</tspan></tspan></tspan></text>
 <text class="TextShape"><tspan class="TextParagraph" font-family="Liberation Sans" font-size="353px" font-weight="400"><tspan class="TextPosition" x="14110" y="4867"><tspan fill="rgb(0,0,0)" stroke="none">page</tspan></tspan></tspan></text>
 <text class="TextShape"><tspan class="TextParagraph" font-family="Liberation Sans" font-size="353px" font-weight="400"><tspan class="TextPosition" x="14110" y="5365"><tspan fill="rgb(0,0,0)" stroke="none">random</tspan></tspan></tspan></text>
</svg>