<?xml version="1.0" encoding="UTF-8"?>
<!DOCTYPE svg PUBLIC "-//W3C//DTD SVG 1.1//EN" "http://www.w3.org/Graphics/SVG/1.1/DTD/svg11.dtd">
<svg width="160mm" height="90mm" viewBox="0 0 16000 9000" version="1.1" xmlns="http://www.w3.org/2000/svg" stroke-width="28.222" stroke-linejoin="round" xml:space="preserve">
 <path fill="rgb(255,255,255)" stroke="none" d="M 8000,8999 L 0,8999 0,0 15999,0 15999,8999 8000,8999 Z"/>
 <path fill="none" stroke="rgb(179,179,179)" stroke-linejoin="round" d="M 7177,7191 L 1952,7191 1952,379 12401,379 12401,7191 7177,7191 Z"/>
 <path fill="none" stroke="rgb(179,179,179)" stroke-linejoin="round" d="M 12401,7190 L 1952,7190"/>
 <path fill="none" stroke="rgb(179,179,179)" stroke-linejoin="round" d="M 12401,6508 L 1952,6508"/>
 <path fill="none" stroke="rgb(179,179,179)" stroke-linejoin="round" d="M 12401,5827 L 1952,5827"/>
 <path fill="none" stroke="rgb(179,179,179)" stroke-linejoin="round" d="M 12401,5146 L 1952,5146"/>
 <path fill="none" stroke="rgb(179,179,179)" stroke-linejoin="round" d="M 12401,4465 L 1952,4465"/>
 <path fill="none" stroke="rgb(179,179,179)" stroke-linejoin="round" d="M 12401,3784 L 1952,3784"/>
 <path fill="none" stroke="rgb(179,179,179)" stroke-linejoin="round" d="M 12401,3103 L 1952,3103"/>
 <path fill="none" stroke="rgb(179,179,179)" stroke-linejoin="round" d="M 12401,2421 L 1952,2421"/>
 <path fill="none" stroke="rgb(179,179,179)" stroke-linejoin="round" d="M 12401,1740 L 1952,1740"/>
 <path fill="none" stroke="rgb(179,179,179)" stroke-linejoin="round" d="M 12401,1059 L 1952,1059"/>
 <path fill="none" stroke="rgb(179,179,179)" stroke-linejoin="round" d="M 12401,378 L 1952,378"/>
 <path fill="none" stroke="rgb(179,179,179)" stroke-linejoin="round" d="M 1952,7340 L 1952,7190"/>
 <path fill="none" stroke="rgb(179,179,179)" stroke-linejoin="round" d="M 1952,7340 L 1952,7190"/>
 <path fill="none" stroke="rgb(179,179,179)" stroke-linejoin="round" d="M 2997,7340 L 2997,7190"/>
 <path fill="none" stroke="rgb(179,179,179)" stroke-linejoin="round" d="M 2997,7340 L 2997,7190"/>
 <path fill="none" stroke="rgb(179,179,179)" stroke-linejoin="round" d="M 4042,7340 L 4042,7190"/>
 <path fill="none" stroke="rgb(179,179,179)" stroke-linejoin="round" d="M 4042,7340 L 4042,7190"/>
 <path fill="none" stroke="rgb(179,179,179)" stroke-linejoin="round" d="M 5087,7340 L 5087,7190"/>
 <path fill="none" stroke="rgb(179,179,179)" stroke-linejoin="round" d="M 5087,7340 L 5087,7190"/>
 <path fill="none" stroke="rgb(179,179,179)" stroke-linejoin="round" d="M 6132,7340 L 6132,7190"/>
 <path fill="none" stroke="rgb(179,179,179)" stroke-linejoin="round" d="M 6132,7340 L 6132,7190"/>
 <path fill="none" stroke="rgb(179,179,179)" stroke-linejoin="round" d="M 7177,7340 L 7177,7190"/>
 <path fill="none" stroke="rgb(179,179,179)" stroke-linejoin="round" d="M 7177,7340 L 7177,7190"/>
 <path fill="none" stroke="rgb(179,179,179)" stroke-linejoin="round" d="M 8221,7340 L 8221,7190"/>
 <path fill="none" stroke="rgb(179,179,179)" stroke-linejoin="round" d="M 8221,7340 L 8221,7190"/>
 <path fill="none" stroke="rgb(179,179,179)" stroke-linejoin="round" d="M 9266,7340 L 9266,7190"/>
 <path fill="none" stroke="rgb(179,179,179)" stroke-linejoin="round" d="M 9266,7340 L 9266,7190"/>
 <path fill="none" stroke="rgb(179,179,179)" stroke-linejoin="round" d="M 10311,7340 L 10311,7190"/>
 <path fill="none" stroke="rgb(179,179,179)" stroke-linejoin="round" d="M 10311,7340 L 10311,7190"/>
 <path fill="none" stroke="rgb(179,179,179)" stroke-linejoin="round" d="M 11356,7340 L 11356,7190"/>
 <path fill="none" stroke="rgb(179,179,179)" stroke-linejoin="round" d="M 11356,7340 L 11356,7190"/>
 <path fill="none" stroke="rgb(179,179,179)" stroke-linejoin="round" d="M 12401,7340 L 12401,7190"/>
 <path fill="none" stroke="rgb(179,179,179)" stroke-linejoin="round" d="M 12401,7340 L 12401,7190"/>
 <path fill="none" stroke="rgb(179,179,179)" stroke-linejoin="round" d="M 1952,7190 L 12401,7190"/>
 <path fill="none" stroke="rgb(179,179,179)" stroke-linejoin="round" d="M 1802,7190 L 1952,7190"/>
 <path fill="none" stroke="rgb(179,179,179)" stroke-linejoin="round" d="M 1802,7190 L 1952,7190"/>
 <path fill="none" stroke="rgb(179,179,179)" stroke-linejoin="round" d="M 1802,6508 L 1952,6508"/>
 <path fill="none" stroke="rgb(179,179,179)" stroke-linejoin="round" d="M 1802,6508 L 1952,6508"/>
 <path fill="none" stroke="rgb(179,179,179)" stroke-linejoin="round" d="M 1802,5827 L 1952,5827"/>
 <path fill="none" stroke="rgb(179,179,179)" stroke-linejoin="round" d="M 1802,5827 L 1952,5827"/>
 <path fill="none" stroke="rgb(179,179,179)" stroke-linejoin="round" d="M 1802,5146 L 1952,5146"/>
 <path fill="none" stroke="rgb(179,179,179)" stroke-linejoin="round" d="M 1802,5146 L 1952,5146"/>
 <path fill="none" stroke="rgb(179,179,179)" stroke-linejoin="round" d="M 1802,4465 L 1952,4465"/>
 <path fill="none" stroke="rgb(179,179,179)" stroke-linejoin="round" d="M 1802,4465 L 1952,4465"/>
 <path fill="none" stroke="rgb(179,179,179)" stroke-linejoin="round" d="M 1802,3784 L 1952,3784"/>
 <path fill="none" stroke="rgb(179,179,179)" stroke-linejoin="round" d="M 1802,3784 L 1952,3784"/>
 <path fill="none" stroke="rgb(179,179,179)" stroke-linejoin="round" d="M 1802,3103 L 1952,3103"/>
 <path fill="none" stroke="rgb(179,179,179)" stroke-linejoin="round" d="M 1802,3103 L 1952,3103"/>
 <path fill="none" stroke="rgb(179,179,179)" stroke-linejoin="round" d="M 1802,2421 L 1952,2421"/>
 <path fill="none" stroke="rgb(179,179,179)" stroke-linejoin="round" d="M 1802,2421 L 1952,2421"/>
 <path fill="none" stroke="rgb(179,179,179)" stroke-linejoin="round" d="M 1802,1740 L 1952,1740"/>
 <path fill="none" stroke="rgb(179,179,179)" stroke-linejoin="round" d="M 1802,1740 L 1952,1740"/>
 <path fill="none" stroke="rgb(179,179,179)" stroke-linejoin="round" d="M 1802,1059 L 1952,1059"/>
 <path fill="none" stroke="rgb(179,179,179)" stroke-linejoin="round" d="M 1802,1059 L 1952,1059"/>
 <path fill="none" stroke="rgb(179,179,179)" stroke-linejoin="round" d="M 1802,378 L 1952,378"/>
 <path fill="none" stroke="rgb(179,179,179)" stroke-linejoin="round" d="M 1802,378 L 1952,378"/>
 <path fill="none" stroke="rgb(179,179,179)" stroke-linejoin="round" d="M 1952,7190 L 1952,378"/>
 <path fill="none" stroke="rgb(87,157,28)" stroke-width="80" stroke-linejoin="round" d="M 1952,7190 L 5087,7015 8221,4089 11356,976"/>
 <path fill="rgb(87,157,28)" stroke="none" d="M 1827,7315 L 2077,7315 1952,7065 1827,7315 Z"/>
 <path fill="none" stroke="rgb(87,157,28)" stroke-linejoin="round" d="M 1827,7315 L 2077,7315 1952,7065 1827,7315 Z"/>
 <path fill="rgb(87,157,28)" stroke="none" d="M 4962,7140 L 5212,7140 5087,6890 4962,7140 Z"/>
 <path fill="none" stroke="rgb(87,157,28)" stroke-linejoin="round" d="M 4962,7140 L 5212,7140 5087,6890 4962,7140 Z"/>
 <path fill="rgb(87,157,28)" stroke="none" d="M 8096,4214 L 8346,4214 8221,3964 8096,4214 Z"/>
 <path fill="none" stroke="rgb(87,157,28)" stroke-linejoin="round" d="M 8096,4214 L 8346,4214 8221,3964 8096,4214 Z"/>
 <path fill="rgb(87,157,28)" stroke="none" d="M 11231,1101 L 11481,1101 11356,851 11231,1101 Z"/>
 <path fill="none" stroke="rgb(87,157,28)" stroke-linejoin="round" d="M 11231,1101 L 11481,1101 11356,851 11231,1101 Z"/>
 <path fill="none" stroke="rgb(255,211,32)" stroke-width="80" stroke-linejoin="round" d="M 1952,7190 L 5087,7175 8221,5706 11356,2112"/>
 <path fill="rgb(255,211,32)" stroke="none" d="M 1827,7065 L 1952,7315 2077,7065 1827,7065 Z"/>
 <path fill="none" stroke="rgb(255,211,32)" stroke-linejoin="round" d="M 1827,7065 L 1952,7315 2077,7065 1827,7065 Z"/>
 <path fill="rgb(255,211,32)" stroke="none" d="M 4962,7050 L 5087,7300 5212,7050 4962,7050 Z"/>
 <path fill="none" stroke="rgb(255,211,32)" stroke-linejoin="round" d="M 4962,7050 L 5087,7300 5212,7050 4962,7050 Z"/>
 <path fill="rgb(255,211,32)" stroke="none" d="M 8096,5581 L 8221,5831 8346,5581 8096,5581 Z"/>
 <path fill="none" stroke="rgb(255,211,32)" stroke-linejoin="round" d="M 8096,5581 L 8221,5831 8346,5581 8096,5581 Z"/>
 <path fill="rgb(255,211,32)" stroke="none" d="M 11231,1987 L 11356,2237 11481,1987 11231,1987 Z"/>
 <path fill="none" stroke="rgb(255,211,32)" stroke-linejoin="round" d="M 11231,1987 L 11356,2237 11481,1987 11231,1987 Z"/>
 <path fill="none" stroke="rgb(255,66,14)" stroke-width="80" stroke-linejoin="round" d="M 1952,7190 L 5087,7170 8221,5742 11356,2093"/>
 <path fill="rgb(255,66,14)" stroke="none" d="M 1827,7190 L 1952,7315 2077,7190 1952,7065 1827,7190 Z"/>
 <path fill="none" stroke="rgb(255,66,14)" stroke-linejoin="round" d="M 1827,7190 L 1952,7315 2077,7190 1952,7065 1827,7190 Z"/>
 <path fill="rgb(255,66,14)" stroke="none" d="M 4962,7170 L 5087,7295 5212,7170 5087,7045 4962,7170 Z"/>
 <path fill="none" stroke="rgb(255,66,14)" stroke-linejoin="round" d="M 4962,7170 L 5087,7295 5212,7170 5087,7045 4962,7170 Z"/>
 <path fill="rgb(255,66,14)" stroke="none" d="M 8096,5742 L 8221,5867 8346,5742 8221,5617 8096,5742 Z"/>
 <path fill="none" stroke="rgb(255,66,14)" stroke-linejoin="round" d="M 8096,5742 L 8221,5867 8346,5742 8221,5617 8096,5742 Z"/>
 <path fill="rgb(255,66,14)" stroke="none" d="M 11231,2093 L 11356,2218 11481,2093 11356,1968 11231,2093 Z"/>
 <path fill="none" stroke="rgb(255,66,14)" stroke-linejoin="round" d="M 11231,2093 L 11356,2218 11481,2093 11356,1968 11231,2093 Z"/>
 <path fill="none" stroke="rgb(0,69,134)" stroke-width="80" stroke-linejoin="round" d="M 1952,7190 L 5087,7169 8221,5701 11356,2107"/>
 <path fill="rgb(0,69,134)" stroke="none" d="M 1827,7065 L 1827,7315 2077,7315 2077,7065 1827,7065 Z"/>
 <path fill="none" stroke="rgb(0,69,134)" stroke-linejoin="round" d="M 1827,7065 L 1827,7315 2077,7315 2077,7065 1827,7065 Z"/>
 <path fill="rgb(0,69,134)" stroke="none" d="M 4962,7044 L 4962,7294 5212,7294 5212,7044 4962,7044 Z"/>
 <path fill="none" stroke="rgb(0,69,134)" stroke-linejoin="round" d="M 4962,7044 L 4962,7294 5212,7294 5212,7044 4962,7044 Z"/>
 <path fill="rgb(0,69,134)" stroke="none" d="M 8096,5576 L 8096,5826 8346,5826 8346,5576 8096,5576 Z"/>
 <path fill="none" stroke="rgb(0,69,134)" stroke-linejoin="round" d="M 8096,5576 L 8096,5826 8346,5826 8346,5576 8096,5576 Z"/>
 <path fill="rgb(0,69,134)" stroke="none" d="M 11231,1982 L 11231,2232 11481,2232 11481,1982 11231,1982 Z"/>
 <path fill="none" stroke="rgb(0,69,134)" stroke-linejoin="round" d="M 11231,1982 L 11231,2232 11481,2232 11481,1982 11231,1982 Z"/>
 <text class="TextShape"><tspan class="TextParagraph" font-family="Liberation Sans" font-size="353px" font-weight="400"><tspan class="TextPosition" x="1859" y="7758"><tspan fill="rgb(0,0,0)" stroke="none">0</tspan></tspan></tspan></text>
 <text class="TextShape"><tspan class="TextParagraph" font-family="Liberation Sans" font-size="353px" font-weight="400"><tspan class="TextPosition" x="2904" y="7758"><tspan fill="rgb(0,0,0)" stroke="none">1</tspan></tspan></tspan></text>
 <text class="TextShape"><tspan class="TextParagraph" font-family="Liberation Sans" font-size="353px" font-weight="400"><tspan class="TextPosition" x="3949" y="7758"><tspan fill="rgb(0,0,0)" stroke="none">2</tspan></tspan></tspan></text>
 <text class="TextShape"><tspan class="TextParagraph" font-family="Liberation Sans" font-size="353px" font-weight="400"><tspan class="TextPosition" x="4994" y="7758"><tspan fill="rgb(0,0,0)" stroke="none">3</tspan></tspan></tspan></text>
 <text class="TextShape"><tspan class="TextParagraph" font-family="Liberation Sans" font-size="353px" font-weight="400"><tspan class="TextPosition" x="6039" y="7758"><tspan fill="rgb(0,0,0)" stroke="none">4</tspan></tspan></tspan></text>
 <text class="TextShape"><tspan class="TextParagraph" font-family="Liberation Sans" font-size="353px" font-weight="400"><tspan class="TextPosition" x="7084" y="7758"><tspan fill="rgb(0,0,0)" stroke="none">5</tspan></tspan></tspan></text>
 <text class="TextShape"><tspan class="TextParagraph" font-family="Liberation Sans" font-size="353px" font-weight="400"><tspan class="TextPosition" x="8129" y="7758"><tspan fill="rgb(0,0,0)" stroke="none">6</tspan></tspan></tspan></text>
 <text class="TextShape"><tspan class="TextParagraph" font-family="Liberation Sans" font-size="353px" font-weight="400"><tspan class="TextPosition" x="9174" y="7758"><tspan fill="rgb(0,0,0)" stroke="none">7</tspan></tspan></tspan></text>
 <text class="TextShape"><tspan class="TextParagraph" font-family="Liberation Sans" font-size="353px" font-weight="400"><tspan class="TextPosition" x="10219" y="7758"><tspan fill="rgb(0,0,0)" stroke="none">8</tspan></tspan></tspan></text>
 <text class="TextShape"><tspan class="TextParagraph" font-family="Liberation Sans" font-size="353px" font-weight="400"><tspan class="TextPosition" x="11264" y="7758"><tspan fill="rgb(0,0,0)" stroke="none">9</tspan></tspan></tspan></text>
 <text class="TextShape"><tspan class="TextParagraph" font-family="Liberation Sans" font-size="353px" font-weight="400"><tspan class="TextPosition" x="12217" y="7758"><tspan fill="rgb(0,0,0)" stroke="none">10</tspan></tspan></tspan></text>
 <text class="TextShape"><tspan class="TextParagraph" font-family="Liberation Sans" font-size="353px" font-weight="400"><tspan class="TextPosition" x="1517" y="7311"><tspan fill="rgb(0,0,0)" stroke="none">0</tspan></tspan></tspan></text>
 <text class="TextShape"><tspan class="TextParagraph" font-family="Liberation Sans" font-size="353px" font-weight="400"><tspan class="TextPosition" x="1332" y="6629"><tspan fill="rgb(0,0,0)" stroke="none">10</tspan></tspan></tspan></text>
 <text class="TextShape"><tspan class="TextParagraph" font-family="Liberation Sans" font-size="353px" font-weight="400"><tspan class="TextPosition" x="1332" y="5948"><tspan fill="rgb(0,0,0)" stroke="none">20</tspan></tspan></tspan></text>
 <text class="TextShape"><tspan class="TextParagraph" font-family="Liberation Sans" font-size="353px" font-weight="400"><tspan class="TextPosition" x="1332" y="5267"><tspan fill="rgb(0,0,0)" stroke="none">30</tspan></tspan></tspan></text>
 <text class="TextShape"><tspan class="TextParagraph" font-family="Liberation Sans" font-size="353px" font-weight="400"><tspan class="TextPosition" x="1332" y="4585"><tspan fill="rgb(0,0,0)" stroke="none">40</tspan></tspan></tspan></text>
 <text class="TextShape"><tspan class="TextParagraph" font-family="Liberation Sans" font-size="353px" font-weight="400"><tspan class="TextPosition" x="1332" y="3904"><tspan fill="rgb(0,0,0)" stroke="none">50</tspan></tspan></tspan></text>
 <text class="TextShape"><tspan class="TextParagraph" font-family="Liberation Sans" font-size="353px" font-weight="400"><tspan class="TextPosition" x="1332" y="3223"><tspan fill="rgb(0,0,0)" stroke="none">60</tspan></tspan></tspan></text>
 <text class="TextShape"><tspan class="TextParagraph" font-family="Liberation Sans" font-size="353px" font-weight="400"><tspan class="TextPosition" x="1332" y="2541"><tspan fill="rgb(0,0,0)" stroke="none">70</tspan></tspan></tspan></text>
 <text class="TextShape"><tspan class="TextParagraph" font-family="Liberation Sans" font-size="353px" font-weight="400"><tspan class="TextPosition" x="1332" y="1860"><tspan fill="rgb(0,0,0)" stroke="none">80</tspan></tspan></tspan></text>
 <text class="TextShape"><tspan class="TextParagraph" font-family="Liberation Sans" font-size="353px" font-weight="400"><tspan class="TextPosition" x="1332" y="1179"><tspan fill="rgb(0,0,0)" stroke="none">90</tspan></tspan></tspan></text>
 <text class="TextShape"><tspan class="TextParagraph" font-family="Liberation Sans" font-size="353px" font-weight="400"><tspan class="TextPosition" x="1146" y="498"><tspan fill="rgb(0,0,0)" stroke="none">100</tspan></tspan></tspan></text>
 <path fill="none" stroke="rgb(0,69,134)" stroke-width="80" stroke-linejoin="round" d="M 13210,3752 L 14010,3752"/>
 <path fill="rgb(0,69,134)" stroke="none" d="M 13504,3647 L 13504,3858 13715,3858 13715,3647 13504,3647 Z"/>
 <path fill="none" stroke="rgb(0,69,134)" stroke-linejoin="round" d="M 13504,3647 L 13504,3858 13715,3858 13715,3647 13504,3647 Z"/>
 <path fill="none" stroke="rgb(255,66,14)" stroke-width="80" stroke-linejoin="round" d="M 13210,4250 L 14010,4250"/>
 <path fill="rgb(255,66,14)" stroke="none" d="M 13504,4250 L 13610,4356 13715,4250 13610,4145 13504,4250 Z"/>
 <path fill="none" stroke="rgb(255,66,14)" stroke-linejoin="round" d="M 13504,4250 L 13610,4356 13715,4250 13610,4145 13504,4250 Z"/>
 <path fill="none" stroke="rgb(255,211,32)" stroke-width="80" stroke-linejoin="round" d="M 13210,4747 L 14010,4747"/>
 <path fill="rgb(255,211,32)" stroke="none" d="M 13504,4642 L 13610,4853 13715,4642 13504,4642 Z"/>
 <path fill="none" stroke="rgb(255,211,32)" stroke-linejoin="round" d="M 13504,4642 L 13610,4853 13715,4642 13504,4642 Z"/>
 <path fill="none" stroke="rgb(87,157,28)" stroke-width="80" stroke-linejoin="round" d="M 13210,5245 L 14010,5245"/>
 <path fill="rgb(87,157,28)" stroke="none" d="M 13504,5351 L 13715,5351 13610,5140 13504,5351 Z"/>
 <path fill="none" stroke="rgb(87,157,28)" stroke-linejoin="round" d="M 13504,5351 L 13715,5351 13610,5140 13504,5351 Z"/>
 <text class="TextShape"><tspan class="TextParagraph" font-family="Liberation Sans" font-size="353px" font-weight="400"><tspan class="TextPosition" x="14110" y="3872"><tspan fill="rgb(0,0,0)" stroke="none">between</tspan></tspan></tspan></text>
 <text class="TextShape"><tspan class="TextParagraph" font-family="Liberation Sans" font-size="353px" font-weight="400"><tspan class="TextPosition" x="14110" y="4370"><tspan fill="rgb(0,0,0)" stroke="none">closeness</tspan></tspan></tspan></text>
 <text class="TextShape"><tspan class="TextParagraph" font-family="Liberation Sans" font-size="353px" font-weight="400"><tspan class="TextPosition" x="14110" y="4867"><tspan fill="rgb(0,0,0)" stroke="none">page</tspan></tspan></tspan></text>
 <text class="TextShape"><tspan class="TextParagraph" font-family="Liberation Sans" font-size="353px" font-weight="400"><tspan class="TextPosition" x="14110" y="5365"><tspan fill="rgb(0,0,0)" stroke="none">random</tspan></tspan></tspan></text>
 <text class="TextShape"><tspan class="TextParagraph" font-family="Liberation Sans" font-size="318px" font-weight="400"><tspan class="TextPosition" x="5227" y="8405"><tspan fill="rgb(0,0,0)" stroke="none">% of humans have robots</tspan></tspan></tspan></text>
 <text class="TextShape" transform="translate(837,6191) rotate(-90) translate(-837,-6191)"><tspan class="TextParagraph" font-family="Liberation Sans" font-size="318px" font-weight="400"><tspan class="TextPosition" x="837" y="6191"><tspan fill="rgb(0,0,0)" stroke="none">% of humans using robot word</tspan></tspan></tspan></text>
</svg>