<?xml version="1.0" encoding="UTF-8"?>
<!DOCTYPE svg PUBLIC "-//W3C//DTD SVG 1.1//EN" "http://www.w3.org/Graphics/SVG/1.1/DTD/svg11.dtd">
<svg width="160mm" height="90mm" viewBox="0 0 16000 9000" version="1.1" xmlns="http://www.w3.org/2000/svg" stroke-width="28.222" stroke-linejoin="round" xml:space="preserve">
 <path fill="rgb(255,255,255)" stroke="none" d="M 8000,8999 L 0,8999 0,0 15999,0 15999,8999 8000,8999 Z"/>
 <path fill="none" stroke="rgb(179,179,179)" stroke-linejoin="round" d="M 6671,8172 L 941,8172 941,379 12401,379 12401,8172 6671,8172 Z"/>
 <path fill="none" stroke="rgb(179,179,179)" stroke-linejoin="round" d="M 12401,8171 L 941,8171"/>
 <path fill="none" stroke="rgb(179,179,179)" stroke-linejoin="round" d="M 12401,6872 L 941,6872"/>
 <path fill="none" stroke="rgb(179,179,179)" stroke-linejoin="round" d="M 12401,5573 L 941,5573"/>
 <path fill="none" stroke="rgb(179,179,179)" stroke-linejoin="round" d="M 12401,4275 L 941,4275"/>
 <path fill="none" stroke="rgb(179,179,179)" stroke-linejoin="round" d="M 12401,2976 L 941,2976"/>
 <path fill="none" stroke="rgb(179,179,179)" stroke-linejoin="round" d="M 12401,1677 L 941,1677"/>
 <path fill="none" stroke="rgb(179,179,179)" stroke-linejoin="round" d="M 12401,378 L 941,378"/>
 <path fill="none" stroke="rgb(179,179,179)" stroke-linejoin="round" d="M 941,8321 L 941,8171"/>
 <path fill="none" stroke="rgb(179,179,179)" stroke-linejoin="round" d="M 941,8321 L 941,8171"/>
 <path fill="none" stroke="rgb(179,179,179)" stroke-linejoin="round" d="M 2214,8321 L 2214,8171"/>
 <path fill="none" stroke="rgb(179,179,179)" stroke-linejoin="round" d="M 2214,8321 L 2214,8171"/>
 <path fill="none" stroke="rgb(179,179,179)" stroke-linejoin="round" d="M 3487,8321 L 3487,8171"/>
 <path fill="none" stroke="rgb(179,179,179)" stroke-linejoin="round" d="M 3487,8321 L 3487,8171"/>
 <path fill="none" stroke="rgb(179,179,179)" stroke-linejoin="round" d="M 4761,8321 L 4761,8171"/>
 <path fill="none" stroke="rgb(179,179,179)" stroke-linejoin="round" d="M 4761,8321 L 4761,8171"/>
 <path fill="none" stroke="rgb(179,179,179)" stroke-linejoin="round" d="M 6034,8321 L 6034,8171"/>
 <path fill="none" stroke="rgb(179,179,179)" stroke-linejoin="round" d="M 6034,8321 L 6034,8171"/>
 <path fill="none" stroke="rgb(179,179,179)" stroke-linejoin="round" d="M 7308,8321 L 7308,8171"/>
 <path fill="none" stroke="rgb(179,179,179)" stroke-linejoin="round" d="M 7308,8321 L 7308,8171"/>
 <path fill="none" stroke="rgb(179,179,179)" stroke-linejoin="round" d="M 8580,8321 L 8580,8171"/>
 <path fill="none" stroke="rgb(179,179,179)" stroke-linejoin="round" d="M 8580,8321 L 8580,8171"/>
 <path fill="none" stroke="rgb(179,179,179)" stroke-linejoin="round" d="M 9854,8321 L 9854,8171"/>
 <path fill="none" stroke="rgb(179,179,179)" stroke-linejoin="round" d="M 9854,8321 L 9854,8171"/>
 <path fill="none" stroke="rgb(179,179,179)" stroke-linejoin="round" d="M 11127,8321 L 11127,8171"/>
 <path fill="none" stroke="rgb(179,179,179)" stroke-linejoin="round" d="M 11127,8321 L 11127,8171"/>
 <path fill="none" stroke="rgb(179,179,179)" stroke-linejoin="round" d="M 12401,8321 L 12401,8171"/>
 <path fill="none" stroke="rgb(179,179,179)" stroke-linejoin="round" d="M 12401,8321 L 12401,8171"/>
 <path fill="none" stroke="rgb(179,179,179)" stroke-linejoin="round" d="M 941,8171 L 12401,8171"/>
 <path fill="none" stroke="rgb(179,179,179)" stroke-linejoin="round" d="M 791,8171 L 941,8171"/>
 <path fill="none" stroke="rgb(179,179,179)" stroke-linejoin="round" d="M 791,8171 L 941,8171"/>
 <path fill="none" stroke="rgb(179,179,179)" stroke-linejoin="round" d="M 791,6872 L 941,6872"/>
 <path fill="none" stroke="rgb(179,179,179)" stroke-linejoin="round" d="M 791,6872 L 941,6872"/>
 <path fill="none" stroke="rgb(179,179,179)" stroke-linejoin="round" d="M 791,5573 L 941,5573"/>
 <path fill="none" stroke="rgb(179,179,179)" stroke-linejoin="round" d="M 791,5573 L 941,5573"/>
 <path fill="none" stroke="rgb(179,179,179)" stroke-linejoin="round" d="M 791,4275 L 941,4275"/>
 <path fill="none" stroke="rgb(179,179,179)" stroke-linejoin="round" d="M 791,4275 L 941,4275"/>
 <path fill="none" stroke="rgb(179,179,179)" stroke-linejoin="round" d="M 791,2976 L 941,2976"/>
 <path fill="none" stroke="rgb(179,179,179)" stroke-linejoin="round" d="M 791,2976 L 941,2976"/>
 <path fill="none" stroke="rgb(179,179,179)" stroke-linejoin="round" d="M 791,1677 L 941,1677"/>
 <path fill="none" stroke="rgb(179,179,179)" stroke-linejoin="round" d="M 791,1677 L 941,1677"/>
 <path fill="none" stroke="rgb(179,179,179)" stroke-linejoin="round" d="M 791,378 L 941,378"/>
 <path fill="none" stroke="rgb(179,179,179)" stroke-linejoin="round" d="M 791,378 L 941,378"/>
 <path fill="none" stroke="rgb(179,179,179)" stroke-linejoin="round" d="M 941,8171 L 941,378"/>
 <path fill="none" stroke="rgb(87,157,28)" stroke-width="80" stroke-linejoin="round" d=""/>
 <path fill="none" stroke="rgb(87,157,28)" stroke-width="80" stroke-linejoin="round" d="M 1272,8171 L 1286,8131 1304,8073 1323,8005 1340,7927 1358,7840 1376,7745 1393,7641 1411,7529 1429,7410 1446,7284 1464,7151 1482,7012 1501,6868 1519,6719 1538,6564 1557,6406 1577,6243 1597,6078 1617,5909 1638,5738 1660,5564 1682,5390 1705,5214 1728,5037 1752,4860 1776,4684 1801,4508 1825,4335 1850,4163 1874,3993 1898,3826 1921,3663 1943,3504 1964,3349 1984,3199 2003,3055 2021,2917 2037,2786 2051,2662 2063,2545 2073,2437 2081,2337 2087,2247 2090,2166 2091,2095 2090,2032 2088,1977 2086,1930 2084,1890 2082,1857 2082,1829 2083,1807 2085,1790 2091,1777 2100,1768 2112,1762 2128,1759 2149,1757 2175,1758 2207,1759 2245,1762 2289,1764 2341,1765 2401,1765 2467,1765 2540,1763 2619,1761 2704,1757 2794,1753 2888,1749 2985,1744 3086,1738 3190,1733 3296,1727 3403,1720 3511,1714 3620,1708 3729,1702 3837,1696 3944,1691 4049,1685 4152,1681 4251,1677 4348,1673 4442,1670 4534,1668 4625,1666 4715,1665 4806,1664 4898,1663 4991,1663 5088,1664 5188,1664 5292,1665 5401,1666 5516,1667 5637,1668 5765,1670 5902,1671 6047,1673 6202,1674 6367,1675 6544,1677 6732,1678 6931,1678 7141,1679 7360,1680 7590,1680 7828,1680 8074,1681 8328,1681 8589,1681 8857,1681 9131,1680 9410,1680 9694,1680 9982,1679 10273,1679 10568,1679 10865,1678 11163,1678 11463,1677 11764,1677"/>
 <path fill="rgb(87,157,28)" stroke="none" d="M 816,8296 L 1066,8296 941,8046 816,8296 Z"/>
 <path fill="none" stroke="rgb(87,157,28)" stroke-linejoin="round" d="M 816,8296 L 1066,8296 941,8046 816,8296 Z"/>
 <path fill="rgb(87,157,28)" stroke="none" d="M 1198,8130 L 1448,8130 1323,7880 1198,8130 Z"/>
 <path fill="none" stroke="rgb(87,157,28)" stroke-linejoin="round" d="M 1198,8130 L 1448,8130 1323,7880 1198,8130 Z"/>
 <path fill="rgb(87,157,28)" stroke="none" d="M 1580,5339 L 1830,5339 1705,5089 1580,5339 Z"/>
 <path fill="none" stroke="rgb(87,157,28)" stroke-linejoin="round" d="M 1580,5339 L 1830,5339 1705,5089 1580,5339 Z"/>
 <path fill="rgb(87,157,28)" stroke="none" d="M 1962,2372 L 2212,2372 2087,2122 1962,2372 Z"/>
 <path fill="none" stroke="rgb(87,157,28)" stroke-linejoin="round" d="M 1962,2372 L 2212,2372 2087,2122 1962,2372 Z"/>
 <path fill="rgb(87,157,28)" stroke="none" d="M 2216,1890 L 2466,1890 2341,1640 2216,1890 Z"/>
 <path fill="none" stroke="rgb(87,157,28)" stroke-linejoin="round" d="M 2216,1890 L 2466,1890 2341,1640 2216,1890 Z"/>
 <path fill="rgb(87,157,28)" stroke="none" d="M 4126,1802 L 4376,1802 4251,1552 4126,1802 Z"/>
 <path fill="none" stroke="rgb(87,157,28)" stroke-linejoin="round" d="M 4126,1802 L 4376,1802 4251,1552 4126,1802 Z"/>
 <path fill="rgb(87,157,28)" stroke="none" d="M 6419,1802 L 6669,1802 6544,1552 6419,1802 Z"/>
 <path fill="none" stroke="rgb(87,157,28)" stroke-linejoin="round" d="M 6419,1802 L 6669,1802 6544,1552 6419,1802 Z"/>
 <path fill="rgb(87,157,28)" stroke="none" d="M 11639,1802 L 11889,1802 11764,1552 11639,1802 Z"/>
 <path fill="none" stroke="rgb(87,157,28)" stroke-linejoin="round" d="M 11639,1802 L 11889,1802 11764,1552 11639,1802 Z"/>
 <path fill="none" stroke="rgb(255,211,32)" stroke-width="80" stroke-linejoin="round" d=""/>
 <path fill="none" stroke="rgb(255,211,32)" stroke-width="80" stroke-linejoin="round" d="M 1309,8171 L 1323,8156 1340,8135 1358,8111 1376,8084 1393,8052 1411,8017 1429,7977 1446,7932 1464,7882 1482,7826 1501,7765 1519,7697 1538,7623 1557,7542 1577,7454 1597,7359 1617,7255 1638,7144 1660,7024 1682,6895 1705,6757 1728,6609 1752,6453 1776,6290 1801,6120 1825,5945 1850,5765 1874,5581 1898,5395 1921,5208 1943,5020 1964,4832 1984,4646 2003,4463 2021,4283 2037,4107 2051,3937 2063,3773 2073,3617 2081,3469 2087,3330 2090,3202 2091,3084 2090,2975 2088,2875 2086,2783 2084,2700 2082,2623 2082,2554 2083,2491 2085,2434 2091,2382 2100,2335 2112,2292 2128,2253 2149,2218 2175,2185 2207,2155 2245,2126 2289,2099 2341,2072 2401,2046 2467,2020 2540,1994 2619,1969 2704,1944 2794,1920 2888,1897 2985,1874 3086,1852 3190,1831 3296,1810 3403,1791 3511,1773 3620,1755 3729,1739 3837,1724 3944,1711 4049,1698 4152,1687 4251,1678 4348,1669 4442,1663 4534,1657 4625,1653 4715,1650 4806,1648 4898,1647 4991,1647 5088,1648 5188,1649 5292,1651 5401,1653 5516,1655 5637,1658 5765,1661 5902,1665 6047,1668 6202,1671 6367,1674 6544,1677 6732,1679 6931,1681 7141,1682 7360,1684 7590,1685 7828,1685 8074,1686 8328,1686 8589,1686 8857,1686 9131,1685 9410,1685 9694,1684 9982,1683 10273,1682 10568,1681 10865,1680 11163,1679 11463,1678 11764,1677"/>
 <path fill="rgb(255,211,32)" stroke="none" d="M 816,8046 L 941,8296 1066,8046 816,8046 Z"/>
 <path fill="none" stroke="rgb(255,211,32)" stroke-linejoin="round" d="M 816,8046 L 941,8296 1066,8046 816,8046 Z"/>
 <path fill="rgb(255,211,32)" stroke="none" d="M 1198,8031 L 1323,8281 1448,8031 1198,8031 Z"/>
 <path fill="none" stroke="rgb(255,211,32)" stroke-linejoin="round" d="M 1198,8031 L 1323,8281 1448,8031 1198,8031 Z"/>
 <path fill="rgb(255,211,32)" stroke="none" d="M 1580,6632 L 1705,6882 1830,6632 1580,6632 Z"/>
 <path fill="none" stroke="rgb(255,211,32)" stroke-linejoin="round" d="M 1580,6632 L 1705,6882 1830,6632 1580,6632 Z"/>
 <path fill="rgb(255,211,32)" stroke="none" d="M 1962,3205 L 2087,3455 2212,3205 1962,3205 Z"/>
 <path fill="none" stroke="rgb(255,211,32)" stroke-linejoin="round" d="M 1962,3205 L 2087,3455 2212,3205 1962,3205 Z"/>
 <path fill="rgb(255,211,32)" stroke="none" d="M 2216,1947 L 2341,2197 2466,1947 2216,1947 Z"/>
 <path fill="none" stroke="rgb(255,211,32)" stroke-linejoin="round" d="M 2216,1947 L 2341,2197 2466,1947 2216,1947 Z"/>
 <path fill="rgb(255,211,32)" stroke="none" d="M 4126,1553 L 4251,1803 4376,1553 4126,1553 Z"/>
 <path fill="none" stroke="rgb(255,211,32)" stroke-linejoin="round" d="M 4126,1553 L 4251,1803 4376,1553 4126,1553 Z"/>
 <path fill="rgb(255,211,32)" stroke="none" d="M 6419,1552 L 6544,1802 6669,1552 6419,1552 Z"/>
 <path fill="none" stroke="rgb(255,211,32)" stroke-linejoin="round" d="M 6419,1552 L 6544,1802 6669,1552 6419,1552 Z"/>
 <path fill="rgb(255,211,32)" stroke="none" d="M 11639,1552 L 11764,1802 11889,1552 11639,1552 Z"/>
 <path fill="none" stroke="rgb(255,211,32)" stroke-linejoin="round" d="M 11639,1552 L 11764,1802 11889,1552 11639,1552 Z"/>
 <path fill="none" stroke="rgb(255,66,14)" stroke-width="80" stroke-linejoin="round" d=""/>
 <path fill="none" stroke="rgb(255,66,14)" stroke-width="80" stroke-linejoin="round" d="M 1302,8171 L 1304,8169 1323,8152 1340,8133 1358,8111 1376,8086 1393,8057 1411,8024 1429,7987 1446,7945 1464,7897 1482,7844 1501,7786 1519,7721 1538,7649 1557,7570 1577,7484 1597,7390 1617,7288 1638,7178 1660,7058 1682,6929 1705,6791 1728,6642 1752,6485 1776,6320 1801,6148 1825,5969 1850,5787 1874,5600 1898,5411 1921,5220 1943,5028 1964,4837 1984,4648 2003,4462 2021,4278 2037,4099 2051,3926 2063,3760 2073,3601 2081,3452 2087,3312 2090,3183 2091,3064 2090,2955 2088,2855 2086,2765 2084,2682 2082,2607 2082,2539 2083,2478 2085,2422 2091,2373 2100,2328 2112,2287 2128,2250 2149,2217 2175,2186 2207,2157 2245,2130 2289,2104 2341,2079 2401,2054 2467,2028 2540,2003 2619,1978 2704,1954 2794,1929 2888,1906 2985,1882 3086,1860 3190,1838 3296,1817 3403,1797 3511,1777 3620,1759 3729,1742 3837,1726 3944,1712 4049,1698 4152,1687 4251,1677 4348,1668 4442,1661 4534,1655 4625,1651 4715,1647 4806,1645 4898,1644 4991,1644 5088,1645 5188,1646 5292,1648 5401,1651 5516,1654 5637,1657 5765,1660 5902,1664 6047,1667 6202,1670 6367,1674 6544,1677 6732,1679 6931,1681 7141,1683 7360,1684 7590,1685 7828,1686 8074,1687 8328,1687 8589,1687 8857,1687 9131,1686 9410,1686 9694,1685 9982,1684 10273,1683 10568,1682 10865,1680 11163,1679 11463,1678 11764,1677"/>
 <path fill="rgb(255,66,14)" stroke="none" d="M 816,8171 L 941,8296 1066,8171 941,8046 816,8171 Z"/>
 <path fill="none" stroke="rgb(255,66,14)" stroke-linejoin="round" d="M 816,8171 L 941,8296 1066,8171 941,8046 816,8171 Z"/>
 <path fill="rgb(255,66,14)" stroke="none" d="M 1198,8152 L 1323,8277 1448,8152 1323,8027 1198,8152 Z"/>
 <path fill="none" stroke="rgb(255,66,14)" stroke-linejoin="round" d="M 1198,8152 L 1323,8277 1448,8152 1323,8027 1198,8152 Z"/>
 <path fill="rgb(255,66,14)" stroke="none" d="M 1580,6791 L 1705,6916 1830,6791 1705,6666 1580,6791 Z"/>
 <path fill="none" stroke="rgb(255,66,14)" stroke-linejoin="round" d="M 1580,6791 L 1705,6916 1830,6791 1705,6666 1580,6791 Z"/>
 <path fill="rgb(255,66,14)" stroke="none" d="M 1962,3312 L 2087,3437 2212,3312 2087,3187 1962,3312 Z"/>
 <path fill="none" stroke="rgb(255,66,14)" stroke-linejoin="round" d="M 1962,3312 L 2087,3437 2212,3312 2087,3187 1962,3312 Z"/>
 <path fill="rgb(255,66,14)" stroke="none" d="M 2216,2079 L 2341,2204 2466,2079 2341,1954 2216,2079 Z"/>
 <path fill="none" stroke="rgb(255,66,14)" stroke-linejoin="round" d="M 2216,2079 L 2341,2204 2466,2079 2341,1954 2216,2079 Z"/>
 <path fill="rgb(255,66,14)" stroke="none" d="M 4126,1677 L 4251,1802 4376,1677 4251,1552 4126,1677 Z"/>
 <path fill="none" stroke="rgb(255,66,14)" stroke-linejoin="round" d="M 4126,1677 L 4251,1802 4376,1677 4251,1552 4126,1677 Z"/>
 <path fill="rgb(255,66,14)" stroke="none" d="M 6419,1677 L 6544,1802 6669,1677 6544,1552 6419,1677 Z"/>
 <path fill="none" stroke="rgb(255,66,14)" stroke-linejoin="round" d="M 6419,1677 L 6544,1802 6669,1677 6544,1552 6419,1677 Z"/>
 <path fill="rgb(255,66,14)" stroke="none" d="M 11639,1677 L 11764,1802 11889,1677 11764,1552 11639,1677 Z"/>
 <path fill="none" stroke="rgb(255,66,14)" stroke-linejoin="round" d="M 11639,1677 L 11764,1802 11889,1677 11764,1552 11639,1677 Z"/>
 <path fill="none" stroke="rgb(0,69,134)" stroke-width="80" stroke-linejoin="round" d=""/>
 <path fill="none" stroke="rgb(0,69,134)" stroke-width="80" stroke-linejoin="round" d="M 1303,8171 L 1304,8169 1323,8151 1340,8130 1358,8105 1376,8077 1393,8046 1411,8010 1429,7970 1446,7924 1464,7874 1482,7818 1501,7757 1519,7689 1538,7615 1557,7534 1577,7446 1597,7351 1617,7248 1638,7137 1660,7017 1682,6889 1705,6751 1728,6604 1752,6449 1776,6287 1801,6118 1825,5943 1850,5764 1874,5581 1898,5396 1921,5209 1943,5021 1964,4834 1984,4648 2003,4466 2021,4285 2037,4109 2051,3938 2063,3773 2073,3616 2081,3466 2087,3326 2090,3195 2091,3074 2090,2962 2088,2859 2086,2764 2084,2677 2082,2597 2082,2524 2083,2458 2085,2397 2091,2342 2100,2292 2112,2246 2128,2204 2149,2166 2175,2132 2207,2099 2245,2069 2289,2041 2341,2015 2401,1989 2467,1964 2540,1939 2619,1916 2704,1894 2794,1872 2888,1852 2985,1832 3086,1814 3190,1796 3296,1780 3403,1764 3511,1749 3620,1736 3729,1723 3837,1712 3944,1701 4049,1692 4152,1684 4251,1677 4348,1670 4442,1666 4534,1662 4625,1658 4715,1656 4806,1655 4898,1654 4991,1654 5088,1654 5188,1655 5292,1657 5401,1658 5516,1660 5637,1663 5765,1665 5902,1667 6047,1670 6202,1672 6367,1674 6544,1677 6732,1678 6931,1680 7141,1681 7360,1682 7590,1683 7828,1683 8074,1684 8328,1684 8589,1684 8857,1684 9131,1684 9410,1683 9694,1683 9982,1682 10273,1682 10568,1681 10865,1680 11163,1679 11463,1678 11764,1678"/>
 <path fill="rgb(0,69,134)" stroke="none" d="M 816,8046 L 816,8296 1066,8296 1066,8046 816,8046 Z"/>
 <path fill="none" stroke="rgb(0,69,134)" stroke-linejoin="round" d="M 816,8046 L 816,8296 1066,8296 1066,8046 816,8046 Z"/>
 <path fill="rgb(0,69,134)" stroke="none" d="M 1198,8026 L 1198,8276 1448,8276 1448,8026 1198,8026 Z"/>
 <path fill="none" stroke="rgb(0,69,134)" stroke-linejoin="round" d="M 1198,8026 L 1198,8276 1448,8276 1448,8026 1198,8026 Z"/>
 <path fill="rgb(0,69,134)" stroke="none" d="M 1580,6626 L 1580,6876 1830,6876 1830,6626 1580,6626 Z"/>
 <path fill="none" stroke="rgb(0,69,134)" stroke-linejoin="round" d="M 1580,6626 L 1580,6876 1830,6876 1830,6626 1580,6626 Z"/>
 <path fill="rgb(0,69,134)" stroke="none" d="M 1962,3201 L 1962,3451 2212,3451 2212,3201 1962,3201 Z"/>
 <path fill="none" stroke="rgb(0,69,134)" stroke-linejoin="round" d="M 1962,3201 L 1962,3451 2212,3451 2212,3201 1962,3201 Z"/>
 <path fill="rgb(0,69,134)" stroke="none" d="M 2216,1890 L 2216,2140 2466,2140 2466,1890 2216,1890 Z"/>
 <path fill="none" stroke="rgb(0,69,134)" stroke-linejoin="round" d="M 2216,1890 L 2216,2140 2466,2140 2466,1890 2216,1890 Z"/>
 <path fill="rgb(0,69,134)" stroke="none" d="M 4126,1552 L 4126,1802 4376,1802 4376,1552 4126,1552 Z"/>
 <path fill="none" stroke="rgb(0,69,134)" stroke-linejoin="round" d="M 4126,1552 L 4126,1802 4376,1802 4376,1552 4126,1552 Z"/>
 <path fill="rgb(0,69,134)" stroke="none" d="M 6419,1552 L 6419,1802 6669,1802 6669,1552 6419,1552 Z"/>
 <path fill="none" stroke="rgb(0,69,134)" stroke-linejoin="round" d="M 6419,1552 L 6419,1802 6669,1802 6669,1552 6419,1552 Z"/>
 <path fill="rgb(0,69,134)" stroke="none" d="M 11639,1553 L 11639,1803 11889,1803 11889,1553 11639,1553 Z"/>
 <path fill="none" stroke="rgb(0,69,134)" stroke-linejoin="round" d="M 11639,1553 L 11639,1803 11889,1803 11889,1553 11639,1553 Z"/>
 <text class="TextShape"><tspan class="TextParagraph" font-family="Liberation Sans, sans-serif" font-size="353px" font-weight="400"><tspan class="TextPosition" x="848" y="8739"><tspan fill="rgb(0,0,0)" stroke="none">0</tspan></tspan></tspan></text>
 <text class="TextShape"><tspan class="TextParagraph" font-family="Liberation Sans, sans-serif" font-size="353px" font-weight="400"><tspan class="TextPosition" x="2029" y="8739"><tspan fill="rgb(0,0,0)" stroke="none">10</tspan></tspan></tspan></text>
 <text class="TextShape"><tspan class="TextParagraph" font-family="Liberation Sans, sans-serif" font-size="353px" font-weight="400"><tspan class="TextPosition" x="3302" y="8739"><tspan fill="rgb(0,0,0)" stroke="none">20</tspan></tspan></tspan></text>
 <text class="TextShape"><tspan class="TextParagraph" font-family="Liberation Sans, sans-serif" font-size="353px" font-weight="400"><tspan class="TextPosition" x="4576" y="8739"><tspan fill="rgb(0,0,0)" stroke="none">30</tspan></tspan></tspan></text>
 <text class="TextShape"><tspan class="TextParagraph" font-family="Liberation Sans, sans-serif" font-size="353px" font-weight="400"><tspan class="TextPosition" x="5849" y="8739"><tspan fill="rgb(0,0,0)" stroke="none">40</tspan></tspan></tspan></text>
 <text class="TextShape"><tspan class="TextParagraph" font-family="Liberation Sans, sans-serif" font-size="353px" font-weight="400"><tspan class="TextPosition" x="7123" y="8739"><tspan fill="rgb(0,0,0)" stroke="none">50</tspan></tspan></tspan></text>
 <text class="TextShape"><tspan class="TextParagraph" font-family="Liberation Sans, sans-serif" font-size="353px" font-weight="400"><tspan class="TextPosition" x="8396" y="8739"><tspan fill="rgb(0,0,0)" stroke="none">60</tspan></tspan></tspan></text>
 <text class="TextShape"><tspan class="TextParagraph" font-family="Liberation Sans, sans-serif" font-size="353px" font-weight="400"><tspan class="TextPosition" x="9670" y="8739"><tspan fill="rgb(0,0,0)" stroke="none">70</tspan></tspan></tspan></text>
 <text class="TextShape"><tspan class="TextParagraph" font-family="Liberation Sans, sans-serif" font-size="353px" font-weight="400"><tspan class="TextPosition" x="10943" y="8739"><tspan fill="rgb(0,0,0)" stroke="none">80</tspan></tspan></tspan></text>
 <text class="TextShape"><tspan class="TextParagraph" font-family="Liberation Sans, sans-serif" font-size="353px" font-weight="400"><tspan class="TextPosition" x="12217" y="8739"><tspan fill="rgb(0,0,0)" stroke="none">90</tspan></tspan></tspan></text>
 <text class="TextShape"><tspan class="TextParagraph" font-family="Liberation Sans, sans-serif" font-size="353px" font-weight="400"><tspan class="TextPosition" x="506" y="8292"><tspan fill="rgb(0,0,0)" stroke="none">0</tspan></tspan></tspan></text>
 <text class="TextShape"><tspan class="TextParagraph" font-family="Liberation Sans, sans-serif" font-size="353px" font-weight="400"><tspan class="TextPosition" x="321" y="6993"><tspan fill="rgb(0,0,0)" stroke="none">20</tspan></tspan></tspan></text>
 <text class="TextShape"><tspan class="TextParagraph" font-family="Liberation Sans, sans-serif" font-size="353px" font-weight="400"><tspan class="TextPosition" x="321" y="5694"><tspan fill="rgb(0,0,0)" stroke="none">40</tspan></tspan></tspan></text>
 <text class="TextShape"><tspan class="TextParagraph" font-family="Liberation Sans, sans-serif" font-size="353px" font-weight="400"><tspan class="TextPosition" x="321" y="4395"><tspan fill="rgb(0,0,0)" stroke="none">60</tspan></tspan></tspan></text>
 <text class="TextShape"><tspan class="TextParagraph" font-family="Liberation Sans, sans-serif" font-size="353px" font-weight="400"><tspan class="TextPosition" x="321" y="3096"><tspan fill="rgb(0,0,0)" stroke="none">80</tspan></tspan></tspan></text>
 <text class="TextShape"><tspan class="TextParagraph" font-family="Liberation Sans, sans-serif" font-size="353px" font-weight="400"><tspan class="TextPosition" x="135" y="1797"><tspan fill="rgb(0,0,0)" stroke="none">100</tspan></tspan></tspan></text>
 <text class="TextShape"><tspan class="TextParagraph" font-family="Liberation Sans, sans-serif" font-size="353px" font-weight="400"><tspan class="TextPosition" x="135" y="498"><tspan fill="rgb(0,0,0)" stroke="none">120</tspan></tspan></tspan></text>
 <path fill="none" stroke="rgb(0,69,134)" stroke-width="80" stroke-linejoin="round" d="M 13210,3752 L 14010,3752"/>
 <path fill="rgb(0,69,134)" stroke="none" d="M 13504,3647 L 13504,3858 13715,3858 13715,3647 13504,3647 Z"/>
 <path fill="none" stroke="rgb(0,69,134)" stroke-linejoin="round" d="M 13504,3647 L 13504,3858 13715,3858 13715,3647 13504,3647 Z"/>
 <path fill="none" stroke="rgb(255,66,14)" stroke-width="80" stroke-linejoin="round" d="M 13210,4250 L 14010,4250"/>
 <path fill="rgb(255,66,14)" stroke="none" d="M 13504,4250 L 13610,4356 13715,4250 13610,4145 13504,4250 Z"/>
 <path fill="none" stroke="rgb(255,66,14)" stroke-linejoin="round" d="M 13504,4250 L 13610,4356 13715,4250 13610,4145 13504,4250 Z"/>
 <path fill="none" stroke="rgb(255,211,32)" stroke-width="80" stroke-linejoin="round" d="M 13210,4747 L 14010,4747"/>
 <path fill="rgb(255,211,32)" stroke="none" d="M 13504,4642 L 13610,4853 13715,4642 13504,4642 Z"/>
 <path fill="none" stroke="rgb(255,211,32)" stroke-linejoin="round" d="M 13504,4642 L 13610,4853 13715,4642 13504,4642 Z"/>
 <path fill="none" stroke="rgb(87,157,28)" stroke-width="80" stroke-linejoin="round" d="M 13210,5245 L 14010,5245"/>
 <path fill="rgb(87,157,28)" stroke="none" d="M 13504,5351 L 13715,5351 13610,5140 13504,5351 Z"/>
 <path fill="none" stroke="rgb(87,157,28)" stroke-linejoin="round" d="M 13504,5351 L 13715,5351 13610,5140 13504,5351 Z"/>
 <text class="TextShape"><tspan class="TextParagraph" font-family="Liberation Sans, sans-serif" font-size="353px" font-weight="400"><tspan class="TextPosition" x="14110" y="3872"><tspan fill="rgb(0,0,0)" stroke="none">between</tspan></tspan></tspan></text>
 <text class="TextShape"><tspan class="TextParagraph" font-family="Liberation Sans, sans-serif" font-size="353px" font-weight="400"><tspan class="TextPosition" x="14110" y="4370"><tspan fill="rgb(0,0,0)" stroke="none">closeness</tspan></tspan></tspan></text>
 <text class="TextShape"><tspan class="TextParagraph" font-family="Liberation Sans, sans-serif" font-size="353px" font-weight="400"><tspan class="TextPosition" x="14110" y="4867"><tspan fill="rgb(0,0,0)" stroke="none">page</tspan></tspan></tspan></text>
 <text class="TextShape"><tspan class="TextParagraph" font-family="Liberation Sans, sans-serif" font-size="353px" font-weight="400"><tspan class="TextPosition" x="14110" y="5365"><tspan fill="rgb(0,0,0)" stroke="none">random</tspan></tspan></tspan></text>
</svg>