<?xml version="1.0" encoding="UTF-8"?>
<!DOCTYPE svg PUBLIC "-//W3C//DTD SVG 1.1//EN" "http://www.w3.org/Graphics/SVG/1.1/DTD/svg11.dtd">
<svg width="160mm" height="90mm" viewBox="0 0 16000 9000" version="1.1" xmlns="http://www.w3.org/2000/svg" stroke-width="28.222" stroke-linejoin="round" xml:space="preserve">
 <path fill="rgb(255,255,255)" stroke="none" d="M 8000,8999 L 0,8999 0,0 15999,0 15999,8999 8000,8999 Z"/>
 <path fill="none" stroke="rgb(179,179,179)" stroke-linejoin="round" d="M 7177,7191 L 1952,7191 1952,379 12401,379 12401,7191 7177,7191 Z"/>
 <path fill="none" stroke="rgb(179,179,179)" stroke-linejoin="round" d="M 12400,7190 L 1952,7190"/>
 <path fill="none" stroke="rgb(179,179,179)" stroke-linejoin="round" d="M 12400,6054 L 1952,6054"/>
 <path fill="none" stroke="rgb(179,179,179)" stroke-linejoin="round" d="M 12400,4919 L 1952,4919"/>
 <path fill="none" stroke="rgb(179,179,179)" stroke-linejoin="round" d="M 12400,3784 L 1952,3784"/>
 <path fill="none" stroke="rgb(179,179,179)" stroke-linejoin="round" d="M 12400,2649 L 1952,2649"/>
 <path fill="none" stroke="rgb(179,179,179)" stroke-linejoin="round" d="M 12400,1513 L 1952,1513"/>
 <path fill="none" stroke="rgb(179,179,179)" stroke-linejoin="round" d="M 12400,378 L 1952,378"/>
 <path fill="none" stroke="rgb(179,179,179)" stroke-linejoin="round" d="M 1952,7340 L 1952,7190"/>
 <path fill="none" stroke="rgb(179,179,179)" stroke-linejoin="round" d="M 1952,7340 L 1952,7190"/>
 <path fill="none" stroke="rgb(179,179,179)" stroke-linejoin="round" d="M 3113,7340 L 3113,7190"/>
 <path fill="none" stroke="rgb(179,179,179)" stroke-linejoin="round" d="M 3113,7340 L 3113,7190"/>
 <path fill="none" stroke="rgb(179,179,179)" stroke-linejoin="round" d="M 4274,7340 L 4274,7190"/>
 <path fill="none" stroke="rgb(179,179,179)" stroke-linejoin="round" d="M 4274,7340 L 4274,7190"/>
 <path fill="none" stroke="rgb(179,179,179)" stroke-linejoin="round" d="M 5435,7340 L 5435,7190"/>
 <path fill="none" stroke="rgb(179,179,179)" stroke-linejoin="round" d="M 5435,7340 L 5435,7190"/>
 <path fill="none" stroke="rgb(179,179,179)" stroke-linejoin="round" d="M 6596,7340 L 6596,7190"/>
 <path fill="none" stroke="rgb(179,179,179)" stroke-linejoin="round" d="M 6596,7340 L 6596,7190"/>
 <path fill="none" stroke="rgb(179,179,179)" stroke-linejoin="round" d="M 7757,7340 L 7757,7190"/>
 <path fill="none" stroke="rgb(179,179,179)" stroke-linejoin="round" d="M 7757,7340 L 7757,7190"/>
 <path fill="none" stroke="rgb(179,179,179)" stroke-linejoin="round" d="M 8917,7340 L 8917,7190"/>
 <path fill="none" stroke="rgb(179,179,179)" stroke-linejoin="round" d="M 8917,7340 L 8917,7190"/>
 <path fill="none" stroke="rgb(179,179,179)" stroke-linejoin="round" d="M 10078,7340 L 10078,7190"/>
 <path fill="none" stroke="rgb(179,179,179)" stroke-linejoin="round" d="M 10078,7340 L 10078,7190"/>
 <path fill="none" stroke="rgb(179,179,179)" stroke-linejoin="round" d="M 11239,7340 L 11239,7190"/>
 <path fill="none" stroke="rgb(179,179,179)" stroke-linejoin="round" d="M 11239,7340 L 11239,7190"/>
 <path fill="none" stroke="rgb(179,179,179)" stroke-linejoin="round" d="M 12400,7340 L 12400,7190"/>
 <path fill="none" stroke="rgb(179,179,179)" stroke-linejoin="round" d="M 12400,7340 L 12400,7190"/>
 <path fill="none" stroke="rgb(179,179,179)" stroke-linejoin="round" d="M 1952,7190 L 12400,7190"/>
 <path fill="none" stroke="rgb(179,179,179)" stroke-linejoin="round" d="M 1802,7190 L 1952,7190"/>
 <path fill="none" stroke="rgb(179,179,179)" stroke-linejoin="round" d="M 1802,7190 L 1952,7190"/>
 <path fill="none" stroke="rgb(179,179,179)" stroke-linejoin="round" d="M 1802,6054 L 1952,6054"/>
 <path fill="none" stroke="rgb(179,179,179)" stroke-linejoin="round" d="M 1802,6054 L 1952,6054"/>
 <path fill="none" stroke="rgb(179,179,179)" stroke-linejoin="round" d="M 1802,4919 L 1952,4919"/>
 <path fill="none" stroke="rgb(179,179,179)" stroke-linejoin="round" d="M 1802,4919 L 1952,4919"/>
 <path fill="none" stroke="rgb(179,179,179)" stroke-linejoin="round" d="M 1802,3784 L 1952,3784"/>
 <path fill="none" stroke="rgb(179,179,179)" stroke-linejoin="round" d="M 1802,3784 L 1952,3784"/>
 <path fill="none" stroke="rgb(179,179,179)" stroke-linejoin="round" d="M 1802,2649 L 1952,2649"/>
 <path fill="none" stroke="rgb(179,179,179)" stroke-linejoin="round" d="M 1802,2649 L 1952,2649"/>
 <path fill="none" stroke="rgb(179,179,179)" stroke-linejoin="round" d="M 1802,1513 L 1952,1513"/>
 <path fill="none" stroke="rgb(179,179,179)" stroke-linejoin="round" d="M 1802,1513 L 1952,1513"/>
 <path fill="none" stroke="rgb(179,179,179)" stroke-linejoin="round" d="M 1802,378 L 1952,378"/>
 <path fill="none" stroke="rgb(179,179,179)" stroke-linejoin="round" d="M 1802,378 L 1952,378"/>
 <path fill="none" stroke="rgb(179,179,179)" stroke-linejoin="round" d="M 1952,7190 L 1952,378"/>
 <path fill="none" stroke="rgb(87,157,28)" stroke-width="80" stroke-linejoin="round" d="M 1952,7190 L 2300,6614 2648,5717 2997,4674 3229,3753 4970,1843 7060,1591 11820,1529"/>
 <path fill="rgb(87,157,28)" stroke="none" d="M 1827,7315 L 2077,7315 1952,7065 1827,7315 Z"/>
 <path fill="none" stroke="rgb(87,157,28)" stroke-linejoin="round" d="M 1827,7315 L 2077,7315 1952,7065 1827,7315 Z"/>
 <path fill="rgb(87,157,28)" stroke="none" d="M 2175,6739 L 2425,6739 2300,6489 2175,6739 Z"/>
 <path fill="none" stroke="rgb(87,157,28)" stroke-linejoin="round" d="M 2175,6739 L 2425,6739 2300,6489 2175,6739 Z"/>
 <path fill="rgb(87,157,28)" stroke="none" d="M 2523,5842 L 2773,5842 2648,5592 2523,5842 Z"/>
 <path fill="none" stroke="rgb(87,157,28)" stroke-linejoin="round" d="M 2523,5842 L 2773,5842 2648,5592 2523,5842 Z"/>
 <path fill="rgb(87,157,28)" stroke="none" d="M 2872,4799 L 3122,4799 2997,4549 2872,4799 Z"/>
 <path fill="none" stroke="rgb(87,157,28)" stroke-linejoin="round" d="M 2872,4799 L 3122,4799 2997,4549 2872,4799 Z"/>
 <path fill="rgb(87,157,28)" stroke="none" d="M 3104,3878 L 3354,3878 3229,3628 3104,3878 Z"/>
 <path fill="none" stroke="rgb(87,157,28)" stroke-linejoin="round" d="M 3104,3878 L 3354,3878 3229,3628 3104,3878 Z"/>
 <path fill="rgb(87,157,28)" stroke="none" d="M 4845,1968 L 5095,1968 4970,1718 4845,1968 Z"/>
 <path fill="none" stroke="rgb(87,157,28)" stroke-linejoin="round" d="M 4845,1968 L 5095,1968 4970,1718 4845,1968 Z"/>
 <path fill="rgb(87,157,28)" stroke="none" d="M 6935,1716 L 7185,1716 7060,1466 6935,1716 Z"/>
 <path fill="none" stroke="rgb(87,157,28)" stroke-linejoin="round" d="M 6935,1716 L 7185,1716 7060,1466 6935,1716 Z"/>
 <path fill="rgb(87,157,28)" stroke="none" d="M 11695,1654 L 11945,1654 11820,1404 11695,1654 Z"/>
 <path fill="none" stroke="rgb(87,157,28)" stroke-linejoin="round" d="M 11695,1654 L 11945,1654 11820,1404 11695,1654 Z"/>
 <path fill="none" stroke="rgb(255,211,32)" stroke-width="80" stroke-linejoin="round" d="M 1952,7190 L 2300,6864 2648,6280 2997,4864 3229,3524 4970,2087 7060,1559 11820,1565"/>
 <path fill="rgb(255,211,32)" stroke="none" d="M 1827,7065 L 1952,7315 2077,7065 1827,7065 Z"/>
 <path fill="none" stroke="rgb(255,211,32)" stroke-linejoin="round" d="M 1827,7065 L 1952,7315 2077,7065 1827,7065 Z"/>
 <path fill="rgb(255,211,32)" stroke="none" d="M 2175,6739 L 2300,6989 2425,6739 2175,6739 Z"/>
 <path fill="none" stroke="rgb(255,211,32)" stroke-linejoin="round" d="M 2175,6739 L 2300,6989 2425,6739 2175,6739 Z"/>
 <path fill="rgb(255,211,32)" stroke="none" d="M 2523,6155 L 2648,6405 2773,6155 2523,6155 Z"/>
 <path fill="none" stroke="rgb(255,211,32)" stroke-linejoin="round" d="M 2523,6155 L 2648,6405 2773,6155 2523,6155 Z"/>
 <path fill="rgb(255,211,32)" stroke="none" d="M 2872,4739 L 2997,4989 3122,4739 2872,4739 Z"/>
 <path fill="none" stroke="rgb(255,211,32)" stroke-linejoin="round" d="M 2872,4739 L 2997,4989 3122,4739 2872,4739 Z"/>
 <path fill="rgb(255,211,32)" stroke="none" d="M 3104,3399 L 3229,3649 3354,3399 3104,3399 Z"/>
 <path fill="none" stroke="rgb(255,211,32)" stroke-linejoin="round" d="M 3104,3399 L 3229,3649 3354,3399 3104,3399 Z"/>
 <path fill="rgb(255,211,32)" stroke="none" d="M 4845,1962 L 4970,2212 5095,1962 4845,1962 Z"/>
 <path fill="none" stroke="rgb(255,211,32)" stroke-linejoin="round" d="M 4845,1962 L 4970,2212 5095,1962 4845,1962 Z"/>
 <path fill="rgb(255,211,32)" stroke="none" d="M 6935,1434 L 7060,1684 7185,1434 6935,1434 Z"/>
 <path fill="none" stroke="rgb(255,211,32)" stroke-linejoin="round" d="M 6935,1434 L 7060,1684 7185,1434 6935,1434 Z"/>
 <path fill="rgb(255,211,32)" stroke="none" d="M 11695,1440 L 11820,1690 11945,1440 11695,1440 Z"/>
 <path fill="none" stroke="rgb(255,211,32)" stroke-linejoin="round" d="M 11695,1440 L 11820,1690 11945,1440 11695,1440 Z"/>
 <path fill="none" stroke="rgb(255,66,14)" stroke-width="80" stroke-linejoin="round" d="M 1952,7190 L 2300,6824 2648,5830 2997,4833 3229,3526 4970,2157 7060,2116 11820,1555"/>
 <path fill="rgb(255,66,14)" stroke="none" d="M 1827,7190 L 1952,7315 2077,7190 1952,7065 1827,7190 Z"/>
 <path fill="none" stroke="rgb(255,66,14)" stroke-linejoin="round" d="M 1827,7190 L 1952,7315 2077,7190 1952,7065 1827,7190 Z"/>
 <path fill="rgb(255,66,14)" stroke="none" d="M 2175,6824 L 2300,6949 2425,6824 2300,6699 2175,6824 Z"/>
 <path fill="none" stroke="rgb(255,66,14)" stroke-linejoin="round" d="M 2175,6824 L 2300,6949 2425,6824 2300,6699 2175,6824 Z"/>
 <path fill="rgb(255,66,14)" stroke="none" d="M 2523,5830 L 2648,5955 2773,5830 2648,5705 2523,5830 Z"/>
 <path fill="none" stroke="rgb(255,66,14)" stroke-linejoin="round" d="M 2523,5830 L 2648,5955 2773,5830 2648,5705 2523,5830 Z"/>
 <path fill="rgb(255,66,14)" stroke="none" d="M 2872,4833 L 2997,4958 3122,4833 2997,4708 2872,4833 Z"/>
 <path fill="none" stroke="rgb(255,66,14)" stroke-linejoin="round" d="M 2872,4833 L 2997,4958 3122,4833 2997,4708 2872,4833 Z"/>
 <path fill="rgb(255,66,14)" stroke="none" d="M 3104,3526 L 3229,3651 3354,3526 3229,3401 3104,3526 Z"/>
 <path fill="none" stroke="rgb(255,66,14)" stroke-linejoin="round" d="M 3104,3526 L 3229,3651 3354,3526 3229,3401 3104,3526 Z"/>
 <path fill="rgb(255,66,14)" stroke="none" d="M 4845,2157 L 4970,2282 5095,2157 4970,2032 4845,2157 Z"/>
 <path fill="none" stroke="rgb(255,66,14)" stroke-linejoin="round" d="M 4845,2157 L 4970,2282 5095,2157 4970,2032 4845,2157 Z"/>
 <path fill="rgb(255,66,14)" stroke="none" d="M 6935,2116 L 7060,2241 7185,2116 7060,1991 6935,2116 Z"/>
 <path fill="none" stroke="rgb(255,66,14)" stroke-linejoin="round" d="M 6935,2116 L 7060,2241 7185,2116 7060,1991 6935,2116 Z"/>
 <path fill="rgb(255,66,14)" stroke="none" d="M 11695,1555 L 11820,1680 11945,1555 11820,1430 11695,1555 Z"/>
 <path fill="none" stroke="rgb(255,66,14)" stroke-linejoin="round" d="M 11695,1555 L 11820,1680 11945,1555 11820,1430 11695,1555 Z"/>
 <path fill="none" stroke="rgb(0,69,134)" stroke-width="80" stroke-linejoin="round" d="M 1952,7190 L 2300,6827 2648,6296 2997,4900 3229,3543 4970,2152 7060,1571 11820,1541"/>
 <path fill="rgb(0,69,134)" stroke="none" d="M 1827,7065 L 1827,7315 2077,7315 2077,7065 1827,7065 Z"/>
 <path fill="none" stroke="rgb(0,69,134)" stroke-linejoin="round" d="M 1827,7065 L 1827,7315 2077,7315 2077,7065 1827,7065 Z"/>
 <path fill="rgb(0,69,134)" stroke="none" d="M 2175,6702 L 2175,6952 2425,6952 2425,6702 2175,6702 Z"/>
 <path fill="none" stroke="rgb(0,69,134)" stroke-linejoin="round" d="M 2175,6702 L 2175,6952 2425,6952 2425,6702 2175,6702 Z"/>
 <path fill="rgb(0,69,134)" stroke="none" d="M 2523,6171 L 2523,6421 2773,6421 2773,6171 2523,6171 Z"/>
 <path fill="none" stroke="rgb(0,69,134)" stroke-linejoin="round" d="M 2523,6171 L 2523,6421 2773,6421 2773,6171 2523,6171 Z"/>
 <path fill="rgb(0,69,134)" stroke="none" d="M 2872,4775 L 2872,5025 3122,5025 3122,4775 2872,4775 Z"/>
 <path fill="none" stroke="rgb(0,69,134)" stroke-linejoin="round" d="M 2872,4775 L 2872,5025 3122,5025 3122,4775 2872,4775 Z"/>
 <path fill="rgb(0,69,134)" stroke="none" d="M 3104,3418 L 3104,3668 3354,3668 3354,3418 3104,3418 Z"/>
 <path fill="none" stroke="rgb(0,69,134)" stroke-linejoin="round" d="M 3104,3418 L 3104,3668 3354,3668 3354,3418 3104,3418 Z"/>
 <path fill="rgb(0,69,134)" stroke="none" d="M 4845,2027 L 4845,2277 5095,2277 5095,2027 4845,2027 Z"/>
 <path fill="none" stroke="rgb(0,69,134)" stroke-linejoin="round" d="M 4845,2027 L 4845,2277 5095,2277 5095,2027 4845,2027 Z"/>
 <path fill="rgb(0,69,134)" stroke="none" d="M 6935,1446 L 6935,1696 7185,1696 7185,1446 6935,1446 Z"/>
 <path fill="none" stroke="rgb(0,69,134)" stroke-linejoin="round" d="M 6935,1446 L 6935,1696 7185,1696 7185,1446 6935,1446 Z"/>
 <path fill="rgb(0,69,134)" stroke="none" d="M 11695,1416 L 11695,1666 11945,1666 11945,1416 11695,1416 Z"/>
 <path fill="none" stroke="rgb(0,69,134)" stroke-linejoin="round" d="M 11695,1416 L 11695,1666 11945,1666 11945,1416 11695,1416 Z"/>
 <text class="TextShape"><tspan class="TextParagraph" font-family="Liberation Sans" font-size="353px" font-weight="400"><tspan class="TextPosition" x="1859" y="7758"><tspan fill="rgb(0,0,0)" stroke="none">0</tspan></tspan></tspan></text>
 <text class="TextShape"><tspan class="TextParagraph" font-family="Liberation Sans" font-size="353px" font-weight="400"><tspan class="TextPosition" x="2928" y="7758"><tspan fill="rgb(0,0,0)" stroke="none">10</tspan></tspan></tspan></text>
 <text class="TextShape"><tspan class="TextParagraph" font-family="Liberation Sans" font-size="353px" font-weight="400"><tspan class="TextPosition" x="4089" y="7758"><tspan fill="rgb(0,0,0)" stroke="none">20</tspan></tspan></tspan></text>
 <text class="TextShape"><tspan class="TextParagraph" font-family="Liberation Sans" font-size="353px" font-weight="400"><tspan class="TextPosition" x="5250" y="7758"><tspan fill="rgb(0,0,0)" stroke="none">30</tspan></tspan></tspan></text>
 <text class="TextShape"><tspan class="TextParagraph" font-family="Liberation Sans" font-size="353px" font-weight="400"><tspan class="TextPosition" x="6411" y="7758"><tspan fill="rgb(0,0,0)" stroke="none">40</tspan></tspan></tspan></text>
 <text class="TextShape"><tspan class="TextParagraph" font-family="Liberation Sans" font-size="353px" font-weight="400"><tspan class="TextPosition" x="7572" y="7758"><tspan fill="rgb(0,0,0)" stroke="none">50</tspan></tspan></tspan></text>
 <text class="TextShape"><tspan class="TextParagraph" font-family="Liberation Sans" font-size="353px" font-weight="400"><tspan class="TextPosition" x="8733" y="7758"><tspan fill="rgb(0,0,0)" stroke="none">60</tspan></tspan></tspan></text>
 <text class="TextShape"><tspan class="TextParagraph" font-family="Liberation Sans" font-size="353px" font-weight="400"><tspan class="TextPosition" x="9894" y="7758"><tspan fill="rgb(0,0,0)" stroke="none">70</tspan></tspan></tspan></text>
 <text class="TextShape"><tspan class="TextParagraph" font-family="Liberation Sans" font-size="353px" font-weight="400"><tspan class="TextPosition" x="11055" y="7758"><tspan fill="rgb(0,0,0)" stroke="none">80</tspan></tspan></tspan></text>
 <text class="TextShape"><tspan class="TextParagraph" font-family="Liberation Sans" font-size="353px" font-weight="400"><tspan class="TextPosition" x="12216" y="7758"><tspan fill="rgb(0,0,0)" stroke="none">90</tspan></tspan></tspan></text>
 <text class="TextShape"><tspan class="TextParagraph" font-family="Liberation Sans" font-size="353px" font-weight="400"><tspan class="TextPosition" x="1517" y="7311"><tspan fill="rgb(0,0,0)" stroke="none">0</tspan></tspan></tspan></text>
 <text class="TextShape"><tspan class="TextParagraph" font-family="Liberation Sans" font-size="353px" font-weight="400"><tspan class="TextPosition" x="1332" y="6175"><tspan fill="rgb(0,0,0)" stroke="none">20</tspan></tspan></tspan></text>
 <text class="TextShape"><tspan class="TextParagraph" font-family="Liberation Sans" font-size="353px" font-weight="400"><tspan class="TextPosition" x="1332" y="5040"><tspan fill="rgb(0,0,0)" stroke="none">40</tspan></tspan></tspan></text>
 <text class="TextShape"><tspan class="TextParagraph" font-family="Liberation Sans" font-size="353px" font-weight="400"><tspan class="TextPosition" x="1332" y="3904"><tspan fill="rgb(0,0,0)" stroke="none">60</tspan></tspan></tspan></text>
 <text class="TextShape"><tspan class="TextParagraph" font-family="Liberation Sans" font-size="353px" font-weight="400"><tspan class="TextPosition" x="1332" y="2769"><tspan fill="rgb(0,0,0)" stroke="none">80</tspan></tspan></tspan></text>
 <text class="TextShape"><tspan class="TextParagraph" font-family="Liberation Sans" font-size="353px" font-weight="400"><tspan class="TextPosition" x="1146" y="1633"><tspan fill="rgb(0,0,0)" stroke="none">100</tspan></tspan></tspan></text>
 <text class="TextShape"><tspan class="TextParagraph" font-family="Liberation Sans" font-size="353px" font-weight="400"><tspan class="TextPosition" x="1146" y="498"><tspan fill="rgb(0,0,0)" stroke="none">120</tspan></tspan></tspan></text>
 <path fill="none" stroke="rgb(0,69,134)" stroke-width="80" stroke-linejoin="round" d="M 13210,3752 L 14010,3752"/>
 <path fill="rgb(0,69,134)" stroke="none" d="M 13504,3647 L 13504,3858 13715,3858 13715,3647 13504,3647 Z"/>
 <path fill="none" stroke="rgb(0,69,134)" stroke-linejoin="round" d="M 13504,3647 L 13504,3858 13715,3858 13715,3647 13504,3647 Z"/>
 <path fill="none" stroke="rgb(255,66,14)" stroke-width="80" stroke-linejoin="round" d="M 13210,4250 L 14010,4250"/>
 <path fill="rgb(255,66,14)" stroke="none" d="M 13504,4250 L 13610,4356 13715,4250 13610,4145 13504,4250 Z"/>
 <path fill="none" stroke="rgb(255,66,14)" stroke-linejoin="round" d="M 13504,4250 L 13610,4356 13715,4250 13610,4145 13504,4250 Z"/>
 <path fill="none" stroke="rgb(255,211,32)" stroke-width="80" stroke-linejoin="round" d="M 13210,4747 L 14010,4747"/>
 <path fill="rgb(255,211,32)" stroke="none" d="M 13504,4642 L 13610,4853 13715,4642 13504,4642 Z"/>
 <path fill="none" stroke="rgb(255,211,32)" stroke-linejoin="round" d="M 13504,4642 L 13610,4853 13715,4642 13504,4642 Z"/>
 <path fill="none" stroke="rgb(87,157,28)" stroke-width="80" stroke-linejoin="round" d="M 13210,5245 L 14010,5245"/>
 <path fill="rgb(87,157,28)" stroke="none" d="M 13504,5351 L 13715,5351 13610,5140 13504,5351 Z"/>
 <path fill="none" stroke="rgb(87,157,28)" stroke-linejoin="round" d="M 13504,5351 L 13715,5351 13610,5140 13504,5351 Z"/>
 <text class="TextShape"><tspan class="TextParagraph" font-family="Liberation Sans" font-size="353px" font-weight="400"><tspan class="TextPosition" x="14110" y="3872"><tspan fill="rgb(0,0,0)" stroke="none">between</tspan></tspan></tspan></text>
 <text class="TextShape"><tspan class="TextParagraph" font-family="Liberation Sans" font-size="353px" font-weight="400"><tspan class="TextPosition" x="14110" y="4370"><tspan fill="rgb(0,0,0)" stroke="none">closeness</tspan></tspan></tspan></text>
 <text class="TextShape"><tspan class="TextParagraph" font-family="Liberation Sans" font-size="353px" font-weight="400"><tspan class="TextPosition" x="14110" y="4867"><tspan fill="rgb(0,0,0)" stroke="none">page</tspan></tspan></tspan></text>
 <text class="TextShape"><tspan class="TextParagraph" font-family="Liberation Sans" font-size="353px" font-weight="400"><tspan class="TextPosition" x="14110" y="5365"><tspan fill="rgb(0,0,0)" stroke="none">random</tspan></tspan></tspan></text>
 <text class="TextShape"><tspan class="TextParagraph" font-family="Liberation Sans" font-size="318px" font-weight="400"><tspan class="TextPosition" x="5227" y="8405"><tspan fill="rgb(0,0,0)" stroke="none">% of humans have robots</tspan></tspan></tspan></text>
 <text class="TextShape" transform="translate(837,6191) rotate(-90) translate(-837,-6191)"><tspan class="TextParagraph" font-family="Liberation Sans" font-size="318px" font-weight="400"><tspan class="TextPosition" x="837" y="6191"><tspan fill="rgb(0,0,0)" stroke="none">% of humans using robot word</tspan></tspan></tspan></text>
</svg>