<?xml version="1.0" encoding="UTF-8"?>
<!DOCTYPE svg PUBLIC "-//W3C//DTD SVG 1.1//EN" "http://www.w3.org/Graphics/SVG/1.1/DTD/svg11.dtd">
<svg width="160mm" height="90mm" viewBox="0 0 16000 9000" version="1.1" xmlns="http://www.w3.org/2000/svg" stroke-width="28.222" stroke-linejoin="round" xml:space="preserve">
 <path fill="rgb(255,255,255)" stroke="none" d="M 8000,8999 L 0,8999 0,0 15999,0 15999,8999 8000,8999 Z"/>
 <path fill="none" stroke="rgb(179,179,179)" stroke-linejoin="round" d="M 6671,8172 L 941,8172 941,379 12401,379 12401,8172 6671,8172 Z"/>
 <path fill="none" stroke="rgb(179,179,179)" stroke-linejoin="round" d="M 12401,8171 L 941,8171"/>
 <path fill="none" stroke="rgb(179,179,179)" stroke-linejoin="round" d="M 12401,6872 L 941,6872"/>
 <path fill="none" stroke="rgb(179,179,179)" stroke-linejoin="round" d="M 12401,5573 L 941,5573"/>
 <path fill="none" stroke="rgb(179,179,179)" stroke-linejoin="round" d="M 12401,4275 L 941,4275"/>
 <path fill="none" stroke="rgb(179,179,179)" stroke-linejoin="round" d="M 12401,2976 L 941,2976"/>
 <path fill="none" stroke="rgb(179,179,179)" stroke-linejoin="round" d="M 12401,1677 L 941,1677"/>
 <path fill="none" stroke="rgb(179,179,179)" stroke-linejoin="round" d="M 12401,378 L 941,378"/>
 <path fill="none" stroke="rgb(179,179,179)" stroke-linejoin="round" d="M 941,8321 L 941,8171"/>
 <path fill="none" stroke="rgb(179,179,179)" stroke-linejoin="round" d="M 941,8321 L 941,8171"/>
 <path fill="none" stroke="rgb(179,179,179)" stroke-linejoin="round" d="M 2214,8321 L 2214,8171"/>
 <path fill="none" stroke="rgb(179,179,179)" stroke-linejoin="round" d="M 2214,8321 L 2214,8171"/>
 <path fill="none" stroke="rgb(179,179,179)" stroke-linejoin="round" d="M 3487,8321 L 3487,8171"/>
 <path fill="none" stroke="rgb(179,179,179)" stroke-linejoin="round" d="M 3487,8321 L 3487,8171"/>
 <path fill="none" stroke="rgb(179,179,179)" stroke-linejoin="round" d="M 4761,8321 L 4761,8171"/>
 <path fill="none" stroke="rgb(179,179,179)" stroke-linejoin="round" d="M 4761,8321 L 4761,8171"/>
 <path fill="none" stroke="rgb(179,179,179)" stroke-linejoin="round" d="M 6034,8321 L 6034,8171"/>
 <path fill="none" stroke="rgb(179,179,179)" stroke-linejoin="round" d="M 6034,8321 L 6034,8171"/>
 <path fill="none" stroke="rgb(179,179,179)" stroke-linejoin="round" d="M 7308,8321 L 7308,8171"/>
 <path fill="none" stroke="rgb(179,179,179)" stroke-linejoin="round" d="M 7308,8321 L 7308,8171"/>
 <path fill="none" stroke="rgb(179,179,179)" stroke-linejoin="round" d="M 8580,8321 L 8580,8171"/>
 <path fill="none" stroke="rgb(179,179,179)" stroke-linejoin="round" d="M 8580,8321 L 8580,8171"/>
 <path fill="none" stroke="rgb(179,179,179)" stroke-linejoin="round" d="M 9854,8321 L 9854,8171"/>
 <path fill="none" stroke="rgb(179,179,179)" stroke-linejoin="round" d="M 9854,8321 L 9854,8171"/>
 <path fill="none" stroke="rgb(179,179,179)" stroke-linejoin="round" d="M 11127,8321 L 11127,8171"/>
 <path fill="none" stroke="rgb(179,179,179)" stroke-linejoin="round" d="M 11127,8321 L 11127,8171"/>
 <path fill="none" stroke="rgb(179,179,179)" stroke-linejoin="round" d="M 12401,8321 L 12401,8171"/>
 <path fill="none" stroke="rgb(179,179,179)" stroke-linejoin="round" d="M 12401,8321 L 12401,8171"/>
 <path fill="none" stroke="rgb(179,179,179)" stroke-linejoin="round" d="M 941,8171 L 12401,8171"/>
 <path fill="none" stroke="rgb(179,179,179)" stroke-linejoin="round" d="M 791,8171 L 941,8171"/>
 <path fill="none" stroke="rgb(179,179,179)" stroke-linejoin="round" d="M 791,8171 L 941,8171"/>
 <path fill="none" stroke="rgb(179,179,179)" stroke-linejoin="round" d="M 791,6872 L 941,6872"/>
 <path fill="none" stroke="rgb(179,179,179)" stroke-linejoin="round" d="M 791,6872 L 941,6872"/>
 <path fill="none" stroke="rgb(179,179,179)" stroke-linejoin="round" d="M 791,5573 L 941,5573"/>
 <path fill="none" stroke="rgb(179,179,179)" stroke-linejoin="round" d="M 791,5573 L 941,5573"/>
 <path fill="none" stroke="rgb(179,179,179)" stroke-linejoin="round" d="M 791,4275 L 941,4275"/>
 <path fill="none" stroke="rgb(179,179,179)" stroke-linejoin="round" d="M 791,4275 L 941,4275"/>
 <path fill="none" stroke="rgb(179,179,179)" stroke-linejoin="round" d="M 791,2976 L 941,2976"/>
 <path fill="none" stroke="rgb(179,179,179)" stroke-linejoin="round" d="M 791,2976 L 941,2976"/>
 <path fill="none" stroke="rgb(179,179,179)" stroke-linejoin="round" d="M 791,1677 L 941,1677"/>
 <path fill="none" stroke="rgb(179,179,179)" stroke-linejoin="round" d="M 791,1677 L 941,1677"/>
 <path fill="none" stroke="rgb(179,179,179)" stroke-linejoin="round" d="M 791,378 L 941,378"/>
 <path fill="none" stroke="rgb(179,179,179)" stroke-linejoin="round" d="M 791,378 L 941,378"/>
 <path fill="none" stroke="rgb(179,179,179)" stroke-linejoin="round" d="M 941,8171 L 941,378"/>
 <path fill="none" stroke="rgb(87,157,28)" stroke-width="80" stroke-linejoin="round" d="M 941,8171 L 960,8157 980,8143 999,8129 1019,8114 1039,8098 1058,8081 1078,8063 1097,8043 1117,8022 1136,7998 1155,7973 1174,7945 1193,7914 1212,7880 1231,7844 1249,7804 1268,7760 1286,7713 1304,7662 1323,7606 1340,7547 1358,7483 1376,7414 1393,7341 1411,7264 1429,7181 1446,7095 1464,7004 1482,6908 1501,6808 1519,6703 1538,6593 1557,6479 1577,6360 1597,6236 1617,6108 1638,5975 1660,5837 1682,5694 1705,5546 1728,5394 1752,5238 1776,5078 1801,4915 1825,4750 1850,4585 1874,4419 1898,4253 1921,4087 1943,3923 1964,3762 1984,3603 2003,3448 2021,3297 2037,3152 2051,3012 2063,2879 2073,2753 2081,2635 2087,2526 2090,2426 2091,2335 2090,2253 2088,2178 2086,2112 2084,2052 2082,1999 2082,1953 2083,1912 2085,1877 2091,1846 2100,1820 2112,1799 2128,1780 2149,1765 2175,1753 2207,1743 2245,1735 2289,1728 2341,1723 2401,1718 2467,1713 2540,1709 2619,1705 2704,1702 2794,1699 2888,1696 2985,1694 3086,1692 3190,1690 3296,1689 3403,1688 3511,1687 3620,1686 3729,1686 3837,1685 3944,1685 4049,1685 4152,1685 4251,1685 4348,1685 4442,1685 4534,1685 4625,1685 4715,1685 4806,1685 4898,1685 4991,1685 5088,1685 5188,1686 5292,1686 5401,1686 5516,1686 5637,1686 5765,1686 5902,1686 6047,1687 6202,1687 6367,1687 6544,1687 6732,1687 6931,1687 7141,1687 7360,1687 7590,1687 7828,1687 8074,1687 8328,1687 8589,1687 8857,1687 9131,1687 9410,1687 9694,1687 9982,1687 10273,1687 10568,1687 10865,1687 11163,1687 11463,1687 11764,1687"/>
 <path fill="rgb(87,157,28)" stroke="none" d="M 816,8296 L 1066,8296 941,8046 816,8296 Z"/>
 <path fill="none" stroke="rgb(87,157,28)" stroke-linejoin="round" d="M 816,8296 L 1066,8296 941,8046 816,8296 Z"/>
 <path fill="rgb(87,157,28)" stroke="none" d="M 1198,7731 L 1448,7731 1323,7481 1198,7731 Z"/>
 <path fill="none" stroke="rgb(87,157,28)" stroke-linejoin="round" d="M 1198,7731 L 1448,7731 1323,7481 1198,7731 Z"/>
 <path fill="rgb(87,157,28)" stroke="none" d="M 1580,5671 L 1830,5671 1705,5421 1580,5671 Z"/>
 <path fill="none" stroke="rgb(87,157,28)" stroke-linejoin="round" d="M 1580,5671 L 1830,5671 1705,5421 1580,5671 Z"/>
 <path fill="rgb(87,157,28)" stroke="none" d="M 1962,2651 L 2212,2651 2087,2401 1962,2651 Z"/>
 <path fill="none" stroke="rgb(87,157,28)" stroke-linejoin="round" d="M 1962,2651 L 2212,2651 2087,2401 1962,2651 Z"/>
 <path fill="rgb(87,157,28)" stroke="none" d="M 2216,1848 L 2466,1848 2341,1598 2216,1848 Z"/>
 <path fill="none" stroke="rgb(87,157,28)" stroke-linejoin="round" d="M 2216,1848 L 2466,1848 2341,1598 2216,1848 Z"/>
 <path fill="rgb(87,157,28)" stroke="none" d="M 4126,1810 L 4376,1810 4251,1560 4126,1810 Z"/>
 <path fill="none" stroke="rgb(87,157,28)" stroke-linejoin="round" d="M 4126,1810 L 4376,1810 4251,1560 4126,1810 Z"/>
 <path fill="rgb(87,157,28)" stroke="none" d="M 6419,1812 L 6669,1812 6544,1562 6419,1812 Z"/>
 <path fill="none" stroke="rgb(87,157,28)" stroke-linejoin="round" d="M 6419,1812 L 6669,1812 6544,1562 6419,1812 Z"/>
 <path fill="rgb(87,157,28)" stroke="none" d="M 11639,1812 L 11889,1812 11764,1562 11639,1812 Z"/>
 <path fill="none" stroke="rgb(87,157,28)" stroke-linejoin="round" d="M 11639,1812 L 11889,1812 11764,1562 11639,1812 Z"/>
 <path fill="none" stroke="rgb(255,211,32)" stroke-width="80" stroke-linejoin="round" d="M 941,8171 L 960,8149 980,8127 999,8105 1019,8082 1039,8060 1058,8038 1078,8015 1097,7992 1117,7968 1136,7944 1155,7920 1174,7895 1193,7870 1212,7844 1231,7817 1249,7790 1268,7762 1286,7733 1304,7704 1323,7674 1340,7642 1358,7610 1376,7576 1393,7540 1411,7502 1429,7461 1446,7418 1464,7371 1482,7321 1501,7267 1519,7208 1538,7146 1557,7078 1577,7005 1597,6927 1617,6842 1638,6752 1660,6655 1682,6552 1705,6441 1728,6322 1752,6197 1776,6066 1801,5930 1825,5788 1850,5643 1874,5494 1898,5342 1921,5189 1943,5034 1964,4878 1984,4722 2003,4567 2021,4415 2037,4263 2051,4114 2063,3968 2073,3827 2081,3690 2087,3559 2090,3434 2091,3314 2090,3201 2088,3093 2086,2991 2084,2893 2082,2802 2082,2715 2083,2633 2085,2555 2091,2482 2100,2414 2112,2350 2128,2289 2149,2233 2175,2181 2207,2132 2245,2086 2289,2044 2341,2004 2401,1968 2467,1935 2540,1904 2619,1876 2704,1850 2794,1827 2888,1806 2985,1787 3086,1770 3190,1754 3296,1741 3403,1729 3511,1719 3620,1710 3729,1702 3837,1696 3944,1690 4049,1686 4152,1682 4251,1679 4348,1676 4442,1674 4534,1672 4625,1671 4715,1670 4806,1670 4898,1670 4991,1670 5088,1671 5188,1672 5292,1673 5401,1674 5516,1675 5637,1676 5765,1678 5902,1679 6047,1681 6202,1682 6367,1684 6544,1685 6732,1686 6931,1687 7141,1688 7360,1688 7590,1689 7828,1690 8074,1690 8328,1690 8589,1690 8857,1691 9131,1691 9410,1691 9694,1690 9982,1690 10273,1690 10568,1690 10865,1690 11163,1689 11463,1689 11764,1689"/>
 <path fill="rgb(255,211,32)" stroke="none" d="M 816,8046 L 941,8296 1066,8046 816,8046 Z"/>
 <path fill="none" stroke="rgb(255,211,32)" stroke-linejoin="round" d="M 816,8046 L 941,8296 1066,8046 816,8046 Z"/>
 <path fill="rgb(255,211,32)" stroke="none" d="M 1198,7549 L 1323,7799 1448,7549 1198,7549 Z"/>
 <path fill="none" stroke="rgb(255,211,32)" stroke-linejoin="round" d="M 1198,7549 L 1323,7799 1448,7549 1198,7549 Z"/>
 <path fill="rgb(255,211,32)" stroke="none" d="M 1580,6316 L 1705,6566 1830,6316 1580,6316 Z"/>
 <path fill="none" stroke="rgb(255,211,32)" stroke-linejoin="round" d="M 1580,6316 L 1705,6566 1830,6316 1580,6316 Z"/>
 <path fill="rgb(255,211,32)" stroke="none" d="M 1962,3434 L 2087,3684 2212,3434 1962,3434 Z"/>
 <path fill="none" stroke="rgb(255,211,32)" stroke-linejoin="round" d="M 1962,3434 L 2087,3684 2212,3434 1962,3434 Z"/>
 <path fill="rgb(255,211,32)" stroke="none" d="M 2216,1879 L 2341,2129 2466,1879 2216,1879 Z"/>
 <path fill="none" stroke="rgb(255,211,32)" stroke-linejoin="round" d="M 2216,1879 L 2341,2129 2466,1879 2216,1879 Z"/>
 <path fill="rgb(255,211,32)" stroke="none" d="M 4126,1554 L 4251,1804 4376,1554 4126,1554 Z"/>
 <path fill="none" stroke="rgb(255,211,32)" stroke-linejoin="round" d="M 4126,1554 L 4251,1804 4376,1554 4126,1554 Z"/>
 <path fill="rgb(255,211,32)" stroke="none" d="M 6419,1560 L 6544,1810 6669,1560 6419,1560 Z"/>
 <path fill="none" stroke="rgb(255,211,32)" stroke-linejoin="round" d="M 6419,1560 L 6544,1810 6669,1560 6419,1560 Z"/>
 <path fill="rgb(255,211,32)" stroke="none" d="M 11639,1564 L 11764,1814 11889,1564 11639,1564 Z"/>
 <path fill="none" stroke="rgb(255,211,32)" stroke-linejoin="round" d="M 11639,1564 L 11764,1814 11889,1564 11639,1564 Z"/>
 <path fill="none" stroke="rgb(255,66,14)" stroke-width="80" stroke-linejoin="round" d=""/>
 <path fill="none" stroke="rgb(255,66,14)" stroke-width="80" stroke-linejoin="round" d="M 1189,8171 L 1193,8165 1212,8132 1231,8092 1249,8044 1268,7988 1286,7923 1304,7849 1323,7765 1340,7670 1358,7567 1376,7455 1393,7335 1411,7208 1429,7074 1446,6936 1464,6793 1482,6647 1501,6497 1519,6346 1538,6193 1557,6040 1577,5888 1597,5737 1617,5589 1638,5443 1660,5301 1682,5164 1705,5032 1728,4907 1752,4788 1776,4674 1801,4565 1825,4463 1850,4364 1874,4269 1898,4178 1921,4091 1943,4006 1964,3925 1984,3846 2003,3769 2021,3693 2037,3619 2051,3546 2063,3473 2073,3401 2081,3329 2087,3256 2090,3182 2091,3108 2090,3033 2088,2959 2086,2884 2084,2810 2082,2737 2082,2664 2083,2593 2085,2522 2091,2454 2100,2387 2112,2323 2128,2261 2149,2201 2175,2145 2207,2091 2245,2041 2289,1994 2341,1951 2401,1913 2467,1878 2540,1846 2619,1819 2704,1794 2794,1773 2888,1754 2985,1738 3086,1725 3190,1714 3296,1705 3403,1698 3511,1692 3620,1688 3729,1685 3837,1683 3944,1682 4049,1681 4152,1681 4251,1682 4348,1682 4442,1682 4534,1683 4625,1683 4715,1683 4806,1684 4898,1684 4991,1684 5088,1685 5188,1685 5292,1685 5401,1686 5516,1686 5637,1686 5765,1687 5902,1687 6047,1687 6202,1688 6367,1688 6544,1688 6732,1688 6931,1688 7141,1688 7360,1688 7590,1688 7828,1688 8074,1688 8328,1688 8589,1688 8857,1688 9131,1688 9410,1688 9694,1688 9982,1688 10273,1688 10568,1688 10865,1687 11163,1687 11463,1687 11764,1687"/>
 <path fill="rgb(255,66,14)" stroke="none" d="M 816,8171 L 941,8296 1066,8171 941,8046 816,8171 Z"/>
 <path fill="none" stroke="rgb(255,66,14)" stroke-linejoin="round" d="M 816,8171 L 941,8296 1066,8171 941,8046 816,8171 Z"/>
 <path fill="rgb(255,66,14)" stroke="none" d="M 1198,7765 L 1323,7890 1448,7765 1323,7640 1198,7765 Z"/>
 <path fill="none" stroke="rgb(255,66,14)" stroke-linejoin="round" d="M 1198,7765 L 1323,7890 1448,7765 1323,7640 1198,7765 Z"/>
 <path fill="rgb(255,66,14)" stroke="none" d="M 1580,5032 L 1705,5157 1830,5032 1705,4907 1580,5032 Z"/>
 <path fill="none" stroke="rgb(255,66,14)" stroke-linejoin="round" d="M 1580,5032 L 1705,5157 1830,5032 1705,4907 1580,5032 Z"/>
 <path fill="rgb(255,66,14)" stroke="none" d="M 1962,3256 L 2087,3381 2212,3256 2087,3131 1962,3256 Z"/>
 <path fill="none" stroke="rgb(255,66,14)" stroke-linejoin="round" d="M 1962,3256 L 2087,3381 2212,3256 2087,3131 1962,3256 Z"/>
 <path fill="rgb(255,66,14)" stroke="none" d="M 2216,1951 L 2341,2076 2466,1951 2341,1826 2216,1951 Z"/>
 <path fill="none" stroke="rgb(255,66,14)" stroke-linejoin="round" d="M 2216,1951 L 2341,2076 2466,1951 2341,1826 2216,1951 Z"/>
 <path fill="rgb(255,66,14)" stroke="none" d="M 4126,1682 L 4251,1807 4376,1682 4251,1557 4126,1682 Z"/>
 <path fill="none" stroke="rgb(255,66,14)" stroke-linejoin="round" d="M 4126,1682 L 4251,1807 4376,1682 4251,1557 4126,1682 Z"/>
 <path fill="rgb(255,66,14)" stroke="none" d="M 6419,1688 L 6544,1813 6669,1688 6544,1563 6419,1688 Z"/>
 <path fill="none" stroke="rgb(255,66,14)" stroke-linejoin="round" d="M 6419,1688 L 6544,1813 6669,1688 6544,1563 6419,1688 Z"/>
 <path fill="rgb(255,66,14)" stroke="none" d="M 11639,1687 L 11764,1812 11889,1687 11764,1562 11639,1687 Z"/>
 <path fill="none" stroke="rgb(255,66,14)" stroke-linejoin="round" d="M 11639,1687 L 11764,1812 11889,1687 11764,1562 11639,1687 Z"/>
 <path fill="none" stroke="rgb(0,69,134)" stroke-width="80" stroke-linejoin="round" d="M 941,8171 L 960,8152 980,8134 999,8116 1019,8097 1039,8078 1058,8059 1078,8039 1097,8019 1117,7999 1136,7978 1155,7956 1174,7934 1193,7911 1212,7887 1231,7863 1249,7837 1268,7811 1286,7783 1304,7754 1323,7724 1340,7693 1358,7661 1376,7626 1393,7590 1411,7551 1429,7509 1446,7464 1464,7416 1482,7364 1501,7308 1519,7248 1538,7184 1557,7114 1577,7040 1597,6960 1617,6874 1638,6782 1660,6684 1682,6579 1705,6467 1728,6348 1752,6222 1776,6090 1801,5953 1825,5812 1850,5666 1874,5517 1898,5366 1921,5213 1943,5058 1964,4903 1984,4748 2003,4593 2021,4441 2037,4290 2051,4142 2063,3997 2073,3856 2081,3720 2087,3589 2090,3465 2091,3346 2090,3233 2088,3125 2086,3023 2084,2926 2082,2834 2082,2747 2083,2665 2085,2588 2091,2515 2100,2446 2112,2382 2128,2321 2149,2264 2175,2211 2207,2161 2245,2115 2289,2072 2341,2032 2401,1994 2467,1960 2540,1928 2619,1898 2704,1871 2794,1846 2888,1824 2985,1803 3086,1784 3190,1768 3296,1753 3403,1739 3511,1728 3620,1717 3729,1708 3837,1700 3944,1693 4049,1688 4152,1683 4251,1679 4348,1675 4442,1672 4534,1670 4625,1668 4715,1667 4806,1666 4898,1666 4991,1666 5088,1666 5188,1667 5292,1668 5401,1669 5516,1670 5637,1672 5765,1673 5902,1675 6047,1676 6202,1678 6367,1679 6544,1681 6732,1682 6931,1683 7141,1684 7360,1685 7590,1686 7828,1686 8074,1687 8328,1687 8589,1687 8857,1688 9131,1688 9410,1688 9694,1688 9982,1688 10273,1688 10568,1688 10865,1687 11163,1687 11463,1687 11764,1687"/>
 <path fill="rgb(0,69,134)" stroke="none" d="M 816,8046 L 816,8296 1066,8296 1066,8046 816,8046 Z"/>
 <path fill="none" stroke="rgb(0,69,134)" stroke-linejoin="round" d="M 816,8046 L 816,8296 1066,8296 1066,8046 816,8046 Z"/>
 <path fill="rgb(0,69,134)" stroke="none" d="M 1198,7599 L 1198,7849 1448,7849 1448,7599 1198,7599 Z"/>
 <path fill="none" stroke="rgb(0,69,134)" stroke-linejoin="round" d="M 1198,7599 L 1198,7849 1448,7849 1448,7599 1198,7599 Z"/>
 <path fill="rgb(0,69,134)" stroke="none" d="M 1580,6342 L 1580,6592 1830,6592 1830,6342 1580,6342 Z"/>
 <path fill="none" stroke="rgb(0,69,134)" stroke-linejoin="round" d="M 1580,6342 L 1580,6592 1830,6592 1830,6342 1580,6342 Z"/>
 <path fill="rgb(0,69,134)" stroke="none" d="M 1962,3464 L 1962,3714 2212,3714 2212,3464 1962,3464 Z"/>
 <path fill="none" stroke="rgb(0,69,134)" stroke-linejoin="round" d="M 1962,3464 L 1962,3714 2212,3714 2212,3464 1962,3464 Z"/>
 <path fill="rgb(0,69,134)" stroke="none" d="M 2216,1907 L 2216,2157 2466,2157 2466,1907 2216,1907 Z"/>
 <path fill="none" stroke="rgb(0,69,134)" stroke-linejoin="round" d="M 2216,1907 L 2216,2157 2466,2157 2466,1907 2216,1907 Z"/>
 <path fill="rgb(0,69,134)" stroke="none" d="M 4126,1554 L 4126,1804 4376,1804 4376,1554 4126,1554 Z"/>
 <path fill="none" stroke="rgb(0,69,134)" stroke-linejoin="round" d="M 4126,1554 L 4126,1804 4376,1804 4376,1554 4126,1554 Z"/>
 <path fill="rgb(0,69,134)" stroke="none" d="M 6419,1556 L 6419,1806 6669,1806 6669,1556 6419,1556 Z"/>
 <path fill="none" stroke="rgb(0,69,134)" stroke-linejoin="round" d="M 6419,1556 L 6419,1806 6669,1806 6669,1556 6419,1556 Z"/>
 <path fill="rgb(0,69,134)" stroke="none" d="M 11639,1562 L 11639,1812 11889,1812 11889,1562 11639,1562 Z"/>
 <path fill="none" stroke="rgb(0,69,134)" stroke-linejoin="round" d="M 11639,1562 L 11639,1812 11889,1812 11889,1562 11639,1562 Z"/>
 <text class="TextShape"><tspan class="TextParagraph" font-family="Liberation Sans, sans-serif" font-size="353px" font-weight="400"><tspan class="TextPosition" x="848" y="8739"><tspan fill="rgb(0,0,0)" stroke="none">0</tspan></tspan></tspan></text>
 <text class="TextShape"><tspan class="TextParagraph" font-family="Liberation Sans, sans-serif" font-size="353px" font-weight="400"><tspan class="TextPosition" x="2029" y="8739"><tspan fill="rgb(0,0,0)" stroke="none">10</tspan></tspan></tspan></text>
 <text class="TextShape"><tspan class="TextParagraph" font-family="Liberation Sans, sans-serif" font-size="353px" font-weight="400"><tspan class="TextPosition" x="3302" y="8739"><tspan fill="rgb(0,0,0)" stroke="none">20</tspan></tspan></tspan></text>
 <text class="TextShape"><tspan class="TextParagraph" font-family="Liberation Sans, sans-serif" font-size="353px" font-weight="400"><tspan class="TextPosition" x="4576" y="8739"><tspan fill="rgb(0,0,0)" stroke="none">30</tspan></tspan></tspan></text>
 <text class="TextShape"><tspan class="TextParagraph" font-family="Liberation Sans, sans-serif" font-size="353px" font-weight="400"><tspan class="TextPosition" x="5849" y="8739"><tspan fill="rgb(0,0,0)" stroke="none">40</tspan></tspan></tspan></text>
 <text class="TextShape"><tspan class="TextParagraph" font-family="Liberation Sans, sans-serif" font-size="353px" font-weight="400"><tspan class="TextPosition" x="7123" y="8739"><tspan fill="rgb(0,0,0)" stroke="none">50</tspan></tspan></tspan></text>
 <text class="TextShape"><tspan class="TextParagraph" font-family="Liberation Sans, sans-serif" font-size="353px" font-weight="400"><tspan class="TextPosition" x="8396" y="8739"><tspan fill="rgb(0,0,0)" stroke="none">60</tspan></tspan></tspan></text>
 <text class="TextShape"><tspan class="TextParagraph" font-family="Liberation Sans, sans-serif" font-size="353px" font-weight="400"><tspan class="TextPosition" x="9670" y="8739"><tspan fill="rgb(0,0,0)" stroke="none">70</tspan></tspan></tspan></text>
 <text class="TextShape"><tspan class="TextParagraph" font-family="Liberation Sans, sans-serif" font-size="353px" font-weight="400"><tspan class="TextPosition" x="10943" y="8739"><tspan fill="rgb(0,0,0)" stroke="none">80</tspan></tspan></tspan></text>
 <text class="TextShape"><tspan class="TextParagraph" font-family="Liberation Sans, sans-serif" font-size="353px" font-weight="400"><tspan class="TextPosition" x="12217" y="8739"><tspan fill="rgb(0,0,0)" stroke="none">90</tspan></tspan></tspan></text>
 <text class="TextShape"><tspan class="TextParagraph" font-family="Liberation Sans, sans-serif" font-size="353px" font-weight="400"><tspan class="TextPosition" x="506" y="8292"><tspan fill="rgb(0,0,0)" stroke="none">0</tspan></tspan></tspan></text>
 <text class="TextShape"><tspan class="TextParagraph" font-family="Liberation Sans, sans-serif" font-size="353px" font-weight="400"><tspan class="TextPosition" x="321" y="6993"><tspan fill="rgb(0,0,0)" stroke="none">20</tspan></tspan></tspan></text>
 <text class="TextShape"><tspan class="TextParagraph" font-family="Liberation Sans, sans-serif" font-size="353px" font-weight="400"><tspan class="TextPosition" x="321" y="5694"><tspan fill="rgb(0,0,0)" stroke="none">40</tspan></tspan></tspan></text>
 <text class="TextShape"><tspan class="TextParagraph" font-family="Liberation Sans, sans-serif" font-size="353px" font-weight="400"><tspan class="TextPosition" x="321" y="4395"><tspan fill="rgb(0,0,0)" stroke="none">60</tspan></tspan></tspan></text>
 <text class="TextShape"><tspan class="TextParagraph" font-family="Liberation Sans, sans-serif" font-size="353px" font-weight="400"><tspan class="TextPosition" x="321" y="3096"><tspan fill="rgb(0,0,0)" stroke="none">80</tspan></tspan></tspan></text>
 <text class="TextShape"><tspan class="TextParagraph" font-family="Liberation Sans, sans-serif" font-size="353px" font-weight="400"><tspan class="TextPosition" x="135" y="1797"><tspan fill="rgb(0,0,0)" stroke="none">100</tspan></tspan></tspan></text>
 <text class="TextShape"><tspan class="TextParagraph" font-family="Liberation Sans, sans-serif" font-size="353px" font-weight="400"><tspan class="TextPosition" x="135" y="498"><tspan fill="rgb(0,0,0)" stroke="none">120</tspan></tspan></tspan></text>
 <path fill="none" stroke="rgb(0,69,134)" stroke-width="80" stroke-linejoin="round" d="M 13210,3752 L 14010,3752"/>
 <path fill="rgb(0,69,134)" stroke="none" d="M 13504,3647 L 13504,3858 13715,3858 13715,3647 13504,3647 Z"/>
 <path fill="none" stroke="rgb(0,69,134)" stroke-linejoin="round" d="M 13504,3647 L 13504,3858 13715,3858 13715,3647 13504,3647 Z"/>
 <path fill="none" stroke="rgb(255,66,14)" stroke-width="80" stroke-linejoin="round" d="M 13210,4250 L 14010,4250"/>
 <path fill="rgb(255,66,14)" stroke="none" d="M 13504,4250 L 13610,4356 13715,4250 13610,4145 13504,4250 Z"/>
 <path fill="none" stroke="rgb(255,66,14)" stroke-linejoin="round" d="M 13504,4250 L 13610,4356 13715,4250 13610,4145 13504,4250 Z"/>
 <path fill="none" stroke="rgb(255,211,32)" stroke-width="80" stroke-linejoin="round" d="M 13210,4747 L 14010,4747"/>
 <path fill="rgb(255,211,32)" stroke="none" d="M 13504,4642 L 13610,4853 13715,4642 13504,4642 Z"/>
 <path fill="none" stroke="rgb(255,211,32)" stroke-linejoin="round" d="M 13504,4642 L 13610,4853 13715,4642 13504,4642 Z"/>
 <path fill="none" stroke="rgb(87,157,28)" stroke-width="80" stroke-linejoin="round" d="M 13210,5245 L 14010,5245"/>
 <path fill="rgb(87,157,28)" stroke="none" d="M 13504,5351 L 13715,5351 13610,5140 13504,5351 Z"/>
 <path fill="none" stroke="rgb(87,157,28)" stroke-linejoin="round" d="M 13504,5351 L 13715,5351 13610,5140 13504,5351 Z"/>
 <text class="TextShape"><tspan class="TextParagraph" font-family="Liberation Sans, sans-serif" font-size="353px" font-weight="400"><tspan class="TextPosition" x="14110" y="3872"><tspan fill="rgb(0,0,0)" stroke="none">between</tspan></tspan></tspan></text>
 <text class="TextShape"><tspan class="TextParagraph" font-family="Liberation Sans, sans-serif" font-size="353px" font-weight="400"><tspan class="TextPosition" x="14110" y="4370"><tspan fill="rgb(0,0,0)" stroke="none">closeness</tspan></tspan></tspan></text>
 <text class="TextShape"><tspan class="TextParagraph" font-family="Liberation Sans, sans-serif" font-size="353px" font-weight="400"><tspan class="TextPosition" x="14110" y="4867"><tspan fill="rgb(0,0,0)" stroke="none">page</tspan></tspan></tspan></text>
 <text class="TextShape"><tspan class="TextParagraph" font-family="Liberation Sans, sans-serif" font-size="353px" font-weight="400"><tspan class="TextPosition" x="14110" y="5365"><tspan fill="rgb(0,0,0)" stroke="none">random</tspan></tspan></tspan></text>
</svg>