<?xml version="1.0" encoding="UTF-8"?>
<!DOCTYPE svg PUBLIC "-//W3C//DTD SVG 1.1//EN" "http://www.w3.org/Graphics/SVG/1.1/DTD/svg11.dtd">
<svg width="160mm" height="90mm" viewBox="0 0 16000 9000" version="1.1" xmlns="http://www.w3.org/2000/svg" stroke-width="28.222" stroke-linejoin="round" xml:space="preserve">
 <path fill="rgb(255,255,255)" stroke="none" d="M 8000,8999 L 0,8999 0,0 15999,0 15999,8999 8000,8999 Z"/>
 <path fill="none" stroke="rgb(179,179,179)" stroke-linejoin="round" d="M 6857,8172 L 1312,8172 1312,379 12402,379 12402,8172 6857,8172 Z"/>
 <path fill="none" stroke="rgb(179,179,179)" stroke-linejoin="round" d="M 12402,8171 L 1312,8171"/>
 <path fill="none" stroke="rgb(179,179,179)" stroke-linejoin="round" d="M 12402,7196 L 1312,7196"/>
 <path fill="none" stroke="rgb(179,179,179)" stroke-linejoin="round" d="M 12402,6222 L 1312,6222"/>
 <path fill="none" stroke="rgb(179,179,179)" stroke-linejoin="round" d="M 12402,5248 L 1312,5248"/>
 <path fill="none" stroke="rgb(179,179,179)" stroke-linejoin="round" d="M 12402,4275 L 1312,4275"/>
 <path fill="none" stroke="rgb(179,179,179)" stroke-linejoin="round" d="M 12402,3300 L 1312,3300"/>
 <path fill="none" stroke="rgb(179,179,179)" stroke-linejoin="round" d="M 12402,2326 L 1312,2326"/>
 <path fill="none" stroke="rgb(179,179,179)" stroke-linejoin="round" d="M 12402,1352 L 1312,1352"/>
 <path fill="none" stroke="rgb(179,179,179)" stroke-linejoin="round" d="M 12402,378 L 1312,378"/>
 <path fill="none" stroke="rgb(179,179,179)" stroke-linejoin="round" d="M 1312,8321 L 1312,8171"/>
 <path fill="none" stroke="rgb(179,179,179)" stroke-linejoin="round" d="M 1312,8321 L 1312,8171"/>
 <path fill="none" stroke="rgb(179,179,179)" stroke-linejoin="round" d="M 2421,8321 L 2421,8171"/>
 <path fill="none" stroke="rgb(179,179,179)" stroke-linejoin="round" d="M 2421,8321 L 2421,8171"/>
 <path fill="none" stroke="rgb(179,179,179)" stroke-linejoin="round" d="M 3530,8321 L 3530,8171"/>
 <path fill="none" stroke="rgb(179,179,179)" stroke-linejoin="round" d="M 3530,8321 L 3530,8171"/>
 <path fill="none" stroke="rgb(179,179,179)" stroke-linejoin="round" d="M 4639,8321 L 4639,8171"/>
 <path fill="none" stroke="rgb(179,179,179)" stroke-linejoin="round" d="M 4639,8321 L 4639,8171"/>
 <path fill="none" stroke="rgb(179,179,179)" stroke-linejoin="round" d="M 5748,8321 L 5748,8171"/>
 <path fill="none" stroke="rgb(179,179,179)" stroke-linejoin="round" d="M 5748,8321 L 5748,8171"/>
 <path fill="none" stroke="rgb(179,179,179)" stroke-linejoin="round" d="M 6857,8321 L 6857,8171"/>
 <path fill="none" stroke="rgb(179,179,179)" stroke-linejoin="round" d="M 6857,8321 L 6857,8171"/>
 <path fill="none" stroke="rgb(179,179,179)" stroke-linejoin="round" d="M 7966,8321 L 7966,8171"/>
 <path fill="none" stroke="rgb(179,179,179)" stroke-linejoin="round" d="M 7966,8321 L 7966,8171"/>
 <path fill="none" stroke="rgb(179,179,179)" stroke-linejoin="round" d="M 9074,8321 L 9074,8171"/>
 <path fill="none" stroke="rgb(179,179,179)" stroke-linejoin="round" d="M 9074,8321 L 9074,8171"/>
 <path fill="none" stroke="rgb(179,179,179)" stroke-linejoin="round" d="M 10183,8321 L 10183,8171"/>
 <path fill="none" stroke="rgb(179,179,179)" stroke-linejoin="round" d="M 10183,8321 L 10183,8171"/>
 <path fill="none" stroke="rgb(179,179,179)" stroke-linejoin="round" d="M 11292,8321 L 11292,8171"/>
 <path fill="none" stroke="rgb(179,179,179)" stroke-linejoin="round" d="M 11292,8321 L 11292,8171"/>
 <path fill="none" stroke="rgb(179,179,179)" stroke-linejoin="round" d="M 12402,8321 L 12402,8171"/>
 <path fill="none" stroke="rgb(179,179,179)" stroke-linejoin="round" d="M 12402,8321 L 12402,8171"/>
 <path fill="none" stroke="rgb(179,179,179)" stroke-linejoin="round" d="M 1312,8171 L 12402,8171"/>
 <path fill="none" stroke="rgb(179,179,179)" stroke-linejoin="round" d="M 1162,8171 L 1312,8171"/>
 <path fill="none" stroke="rgb(179,179,179)" stroke-linejoin="round" d="M 1162,8171 L 1312,8171"/>
 <path fill="none" stroke="rgb(179,179,179)" stroke-linejoin="round" d="M 1162,7196 L 1312,7196"/>
 <path fill="none" stroke="rgb(179,179,179)" stroke-linejoin="round" d="M 1162,7196 L 1312,7196"/>
 <path fill="none" stroke="rgb(179,179,179)" stroke-linejoin="round" d="M 1162,6222 L 1312,6222"/>
 <path fill="none" stroke="rgb(179,179,179)" stroke-linejoin="round" d="M 1162,6222 L 1312,6222"/>
 <path fill="none" stroke="rgb(179,179,179)" stroke-linejoin="round" d="M 1162,5248 L 1312,5248"/>
 <path fill="none" stroke="rgb(179,179,179)" stroke-linejoin="round" d="M 1162,5248 L 1312,5248"/>
 <path fill="none" stroke="rgb(179,179,179)" stroke-linejoin="round" d="M 1162,4275 L 1312,4275"/>
 <path fill="none" stroke="rgb(179,179,179)" stroke-linejoin="round" d="M 1162,4275 L 1312,4275"/>
 <path fill="none" stroke="rgb(179,179,179)" stroke-linejoin="round" d="M 1162,3300 L 1312,3300"/>
 <path fill="none" stroke="rgb(179,179,179)" stroke-linejoin="round" d="M 1162,3300 L 1312,3300"/>
 <path fill="none" stroke="rgb(179,179,179)" stroke-linejoin="round" d="M 1162,2326 L 1312,2326"/>
 <path fill="none" stroke="rgb(179,179,179)" stroke-linejoin="round" d="M 1162,2326 L 1312,2326"/>
 <path fill="none" stroke="rgb(179,179,179)" stroke-linejoin="round" d="M 1162,1352 L 1312,1352"/>
 <path fill="none" stroke="rgb(179,179,179)" stroke-linejoin="round" d="M 1162,1352 L 1312,1352"/>
 <path fill="none" stroke="rgb(179,179,179)" stroke-linejoin="round" d="M 1162,378 L 1312,378"/>
 <path fill="none" stroke="rgb(179,179,179)" stroke-linejoin="round" d="M 1162,378 L 1312,378"/>
 <path fill="none" stroke="rgb(179,179,179)" stroke-linejoin="round" d="M 1312,8171 L 1312,378"/>
 <path fill="none" stroke="rgb(87,157,28)" stroke-width="80" stroke-linejoin="round" d="M 1312,5084 L 4639,4168 7966,1654 11292,906"/>
 <path fill="rgb(87,157,28)" stroke="none" d="M 1187,5209 L 1437,5209 1312,4959 1187,5209 Z"/>
 <path fill="none" stroke="rgb(87,157,28)" stroke-linejoin="round" d="M 1187,5209 L 1437,5209 1312,4959 1187,5209 Z"/>
 <path fill="rgb(87,157,28)" stroke="none" d="M 4514,4293 L 4764,4293 4639,4043 4514,4293 Z"/>
 <path fill="none" stroke="rgb(87,157,28)" stroke-linejoin="round" d="M 4514,4293 L 4764,4293 4639,4043 4514,4293 Z"/>
 <path fill="rgb(87,157,28)" stroke="none" d="M 7841,1779 L 8090,1779 7966,1529 7841,1779 Z"/>
 <path fill="none" stroke="rgb(87,157,28)" stroke-linejoin="round" d="M 7841,1779 L 8090,1779 7966,1529 7841,1779 Z"/>
 <path fill="rgb(87,157,28)" stroke="none" d="M 11167,1031 L 11417,1031 11292,781 11167,1031 Z"/>
 <path fill="none" stroke="rgb(87,157,28)" stroke-linejoin="round" d="M 11167,1031 L 11417,1031 11292,781 11167,1031 Z"/>
 <path fill="none" stroke="rgb(255,211,32)" stroke-width="80" stroke-linejoin="round" d="M 1312,5136 L 4639,4749 7966,4259 11292,4581"/>
 <path fill="rgb(255,211,32)" stroke="none" d="M 1187,5011 L 1312,5261 1437,5011 1187,5011 Z"/>
 <path fill="none" stroke="rgb(255,211,32)" stroke-linejoin="round" d="M 1187,5011 L 1312,5261 1437,5011 1187,5011 Z"/>
 <path fill="rgb(255,211,32)" stroke="none" d="M 4514,4624 L 4639,4874 4764,4624 4514,4624 Z"/>
 <path fill="none" stroke="rgb(255,211,32)" stroke-linejoin="round" d="M 4514,4624 L 4639,4874 4764,4624 4514,4624 Z"/>
 <path fill="rgb(255,211,32)" stroke="none" d="M 7841,4134 L 7966,4384 8090,4134 7841,4134 Z"/>
 <path fill="none" stroke="rgb(255,211,32)" stroke-linejoin="round" d="M 7841,4134 L 7966,4384 8090,4134 7841,4134 Z"/>
 <path fill="rgb(255,211,32)" stroke="none" d="M 11167,4457 L 11292,4706 11417,4457 11167,4457 Z"/>
 <path fill="none" stroke="rgb(255,211,32)" stroke-linejoin="round" d="M 11167,4457 L 11292,4706 11417,4457 11167,4457 Z"/>
 <path fill="none" stroke="rgb(255,66,14)" stroke-width="80" stroke-linejoin="round" d="M 1312,5136 L 4639,4129 7966,3138 11292,4499"/>
 <path fill="rgb(255,66,14)" stroke="none" d="M 1187,5136 L 1312,5261 1437,5136 1312,5011 1187,5136 Z"/>
 <path fill="none" stroke="rgb(255,66,14)" stroke-linejoin="round" d="M 1187,5136 L 1312,5261 1437,5136 1312,5011 1187,5136 Z"/>
 <path fill="rgb(255,66,14)" stroke="none" d="M 4514,4129 L 4639,4254 4764,4129 4639,4004 4514,4129 Z"/>
 <path fill="none" stroke="rgb(255,66,14)" stroke-linejoin="round" d="M 4514,4129 L 4639,4254 4764,4129 4639,4004 4514,4129 Z"/>
 <path fill="rgb(255,66,14)" stroke="none" d="M 7841,3138 L 7966,3263 8090,3138 7966,3013 7841,3138 Z"/>
 <path fill="none" stroke="rgb(255,66,14)" stroke-linejoin="round" d="M 7841,3138 L 7966,3263 8090,3138 7966,3013 7841,3138 Z"/>
 <path fill="rgb(255,66,14)" stroke="none" d="M 11167,4500 L 11292,4624 11417,4500 11292,4375 11167,4500 Z"/>
 <path fill="none" stroke="rgb(255,66,14)" stroke-linejoin="round" d="M 11167,4500 L 11292,4624 11417,4500 11292,4375 11167,4500 Z"/>
 <path fill="none" stroke="rgb(0,69,134)" stroke-width="80" stroke-linejoin="round" d="M 1312,5085 L 4639,4021 7966,4187 11292,4545"/>
 <path fill="rgb(0,69,134)" stroke="none" d="M 1187,4960 L 1187,5210 1437,5210 1437,4960 1187,4960 Z"/>
 <path fill="none" stroke="rgb(0,69,134)" stroke-linejoin="round" d="M 1187,4960 L 1187,5210 1437,5210 1437,4960 1187,4960 Z"/>
 <path fill="rgb(0,69,134)" stroke="none" d="M 4514,3896 L 4514,4146 4764,4146 4764,3896 4514,3896 Z"/>
 <path fill="none" stroke="rgb(0,69,134)" stroke-linejoin="round" d="M 4514,3896 L 4514,4146 4764,4146 4764,3896 4514,3896 Z"/>
 <path fill="rgb(0,69,134)" stroke="none" d="M 7841,4062 L 7841,4312 8090,4312 8090,4062 7841,4062 Z"/>
 <path fill="none" stroke="rgb(0,69,134)" stroke-linejoin="round" d="M 7841,4062 L 7841,4312 8090,4312 8090,4062 7841,4062 Z"/>
 <path fill="rgb(0,69,134)" stroke="none" d="M 11167,4421 L 11167,4670 11417,4670 11417,4421 11167,4421 Z"/>
 <path fill="none" stroke="rgb(0,69,134)" stroke-linejoin="round" d="M 11167,4421 L 11167,4670 11417,4670 11417,4421 11167,4421 Z"/>
 <text class="TextShape"><tspan class="TextParagraph" font-family="Liberation Sans" font-size="353px" font-weight="400"><tspan class="TextPosition" x="1219" y="8739"><tspan fill="rgb(0,0,0)" stroke="none">0</tspan></tspan></tspan></text>
 <text class="TextShape"><tspan class="TextParagraph" font-family="Liberation Sans" font-size="353px" font-weight="400"><tspan class="TextPosition" x="2328" y="8739"><tspan fill="rgb(0,0,0)" stroke="none">1</tspan></tspan></tspan></text>
 <text class="TextShape"><tspan class="TextParagraph" font-family="Liberation Sans" font-size="353px" font-weight="400"><tspan class="TextPosition" x="3437" y="8739"><tspan fill="rgb(0,0,0)" stroke="none">2</tspan></tspan></tspan></text>
 <text class="TextShape"><tspan class="TextParagraph" font-family="Liberation Sans" font-size="353px" font-weight="400"><tspan class="TextPosition" x="4546" y="8739"><tspan fill="rgb(0,0,0)" stroke="none">3</tspan></tspan></tspan></text>
 <text class="TextShape"><tspan class="TextParagraph" font-family="Liberation Sans" font-size="353px" font-weight="400"><tspan class="TextPosition" x="5655" y="8739"><tspan fill="rgb(0,0,0)" stroke="none">4</tspan></tspan></tspan></text>
 <text class="TextShape"><tspan class="TextParagraph" font-family="Liberation Sans" font-size="353px" font-weight="400"><tspan class="TextPosition" x="6764" y="8739"><tspan fill="rgb(0,0,0)" stroke="none">5</tspan></tspan></tspan></text>
 <text class="TextShape"><tspan class="TextParagraph" font-family="Liberation Sans" font-size="353px" font-weight="400"><tspan class="TextPosition" x="7873" y="8739"><tspan fill="rgb(0,0,0)" stroke="none">6</tspan></tspan></tspan></text>
 <text class="TextShape"><tspan class="TextParagraph" font-family="Liberation Sans" font-size="353px" font-weight="400"><tspan class="TextPosition" x="8982" y="8739"><tspan fill="rgb(0,0,0)" stroke="none">7</tspan></tspan></tspan></text>
 <text class="TextShape"><tspan class="TextParagraph" font-family="Liberation Sans" font-size="353px" font-weight="400"><tspan class="TextPosition" x="10091" y="8739"><tspan fill="rgb(0,0,0)" stroke="none">8</tspan></tspan></tspan></text>
 <text class="TextShape"><tspan class="TextParagraph" font-family="Liberation Sans" font-size="353px" font-weight="400"><tspan class="TextPosition" x="11200" y="8739"><tspan fill="rgb(0,0,0)" stroke="none">9</tspan></tspan></tspan></text>
 <text class="TextShape"><tspan class="TextParagraph" font-family="Liberation Sans" font-size="353px" font-weight="400"><tspan class="TextPosition" x="12218" y="8739"><tspan fill="rgb(0,0,0)" stroke="none">10</tspan></tspan></tspan></text>
 <text class="TextShape"><tspan class="TextParagraph" font-family="Liberation Sans" font-size="353px" font-weight="400"><tspan class="TextPosition" x="877" y="8292"><tspan fill="rgb(0,0,0)" stroke="none">0</tspan></tspan></tspan></text>
 <text class="TextShape"><tspan class="TextParagraph" font-family="Liberation Sans" font-size="353px" font-weight="400"><tspan class="TextPosition" x="321" y="7317"><tspan fill="rgb(0,0,0)" stroke="none">2000</tspan></tspan></tspan></text>
 <text class="TextShape"><tspan class="TextParagraph" font-family="Liberation Sans" font-size="353px" font-weight="400"><tspan class="TextPosition" x="321" y="6343"><tspan fill="rgb(0,0,0)" stroke="none">4000</tspan></tspan></tspan></text>
 <text class="TextShape"><tspan class="TextParagraph" font-family="Liberation Sans" font-size="353px" font-weight="400"><tspan class="TextPosition" x="321" y="5369"><tspan fill="rgb(0,0,0)" stroke="none">6000</tspan></tspan></tspan></text>
 <text class="TextShape"><tspan class="TextParagraph" font-family="Liberation Sans" font-size="353px" font-weight="400"><tspan class="TextPosition" x="321" y="4395"><tspan fill="rgb(0,0,0)" stroke="none">8000</tspan></tspan></tspan></text>
 <text class="TextShape"><tspan class="TextParagraph" font-family="Liberation Sans" font-size="353px" font-weight="400"><tspan class="TextPosition" x="136" y="3420"><tspan fill="rgb(0,0,0)" stroke="none">10000</tspan></tspan></tspan></text>
 <text class="TextShape"><tspan class="TextParagraph" font-family="Liberation Sans" font-size="353px" font-weight="400"><tspan class="TextPosition" x="136" y="2446"><tspan fill="rgb(0,0,0)" stroke="none">12000</tspan></tspan></tspan></text>
 <text class="TextShape"><tspan class="TextParagraph" font-family="Liberation Sans" font-size="353px" font-weight="400"><tspan class="TextPosition" x="136" y="1472"><tspan fill="rgb(0,0,0)" stroke="none">14000</tspan></tspan></tspan></text>
 <text class="TextShape"><tspan class="TextParagraph" font-family="Liberation Sans" font-size="353px" font-weight="400"><tspan class="TextPosition" x="136" y="498"><tspan fill="rgb(0,0,0)" stroke="none">16000</tspan></tspan></tspan></text>
 <path fill="none" stroke="rgb(0,69,134)" stroke-width="80" stroke-linejoin="round" d="M 13210,3752 L 14010,3752"/>
 <path fill="rgb(0,69,134)" stroke="none" d="M 13504,3647 L 13504,3858 13715,3858 13715,3647 13504,3647 Z"/>
 <path fill="none" stroke="rgb(0,69,134)" stroke-linejoin="round" d="M 13504,3647 L 13504,3858 13715,3858 13715,3647 13504,3647 Z"/>
 <path fill="none" stroke="rgb(255,66,14)" stroke-width="80" stroke-linejoin="round" d="M 13210,4250 L 14010,4250"/>
 <path fill="rgb(255,66,14)" stroke="none" d="M 13504,4250 L 13610,4356 13715,4250 13610,4145 13504,4250 Z"/>
 <path fill="none" stroke="rgb(255,66,14)" stroke-linejoin="round" d="M 13504,4250 L 13610,4356 13715,4250 13610,4145 13504,4250 Z"/>
 <path fill="none" stroke="rgb(255,211,32)" stroke-width="80" stroke-linejoin="round" d="M 13210,4747 L 14010,4747"/>
 <path fill="rgb(255,211,32)" stroke="none" d="M 13504,4642 L 13610,4853 13715,4642 13504,4642 Z"/>
 <path fill="none" stroke="rgb(255,211,32)" stroke-linejoin="round" d="M 13504,4642 L 13610,4853 13715,4642 13504,4642 Z"/>
 <path fill="none" stroke="rgb(87,157,28)" stroke-width="80" stroke-linejoin="round" d="M 13210,5245 L 14010,5245"/>
 <path fill="rgb(87,157,28)" stroke="none" d="M 13504,5351 L 13715,5351 13610,5140 13504,5351 Z"/>
 <path fill="none" stroke="rgb(87,157,28)" stroke-linejoin="round" d="M 13504,5351 L 13715,5351 13610,5140 13504,5351 Z"/>
 <text class="TextShape"><tspan class="TextParagraph" font-family="Liberation Sans" font-size="353px" font-weight="400"><tspan class="TextPosition" x="14110" y="3872"><tspan fill="rgb(0,0,0)" stroke="none">between</tspan></tspan></tspan></text>
 <text class="TextShape"><tspan class="TextParagraph" font-family="Liberation Sans" font-size="353px" font-weight="400"><tspan class="TextPosition" x="14110" y="4370"><tspan fill="rgb(0,0,0)" stroke="none">closeness</tspan></tspan></tspan></text>
 <text class="TextShape"><tspan class="TextParagraph" font-family="Liberation Sans" font-size="353px" font-weight="400"><tspan class="TextPosition" x="14110" y="4867"><tspan fill="rgb(0,0,0)" stroke="none">page</tspan></tspan></tspan></text>
 <text class="TextShape"><tspan class="TextParagraph" font-family="Liberation Sans" font-size="353px" font-weight="400"><tspan class="TextPosition" x="14110" y="5365"><tspan fill="rgb(0,0,0)" stroke="none">random</tspan></tspan></tspan></text>
</svg>