<?xml version="1.0" encoding="UTF-8"?>
<!DOCTYPE svg PUBLIC "-//W3C//DTD SVG 1.1//EN" "http://www.w3.org/Graphics/SVG/1.1/DTD/svg11.dtd">
<svg width="160mm" height="90mm" viewBox="0 0 16000 9000" version="1.1" xmlns="http://www.w3.org/2000/svg" stroke-width="28.222" stroke-linejoin="round" xml:space="preserve">
 <path fill="rgb(255,255,255)" stroke="none" d="M 8000,8999 L 0,8999 0,0 15999,0 15999,8999 8000,8999 Z"/>
 <path fill="none" stroke="rgb(179,179,179)" stroke-linejoin="round" d="M 7177,7191 L 1952,7191 1952,379 12401,379 12401,7191 7177,7191 Z"/>
 <path fill="none" stroke="rgb(179,179,179)" stroke-linejoin="round" d="M 12400,7190 L 1952,7190"/>
 <path fill="none" stroke="rgb(179,179,179)" stroke-linejoin="round" d="M 12400,6054 L 1952,6054"/>
 <path fill="none" stroke="rgb(179,179,179)" stroke-linejoin="round" d="M 12400,4919 L 1952,4919"/>
 <path fill="none" stroke="rgb(179,179,179)" stroke-linejoin="round" d="M 12400,3784 L 1952,3784"/>
 <path fill="none" stroke="rgb(179,179,179)" stroke-linejoin="round" d="M 12400,2649 L 1952,2649"/>
 <path fill="none" stroke="rgb(179,179,179)" stroke-linejoin="round" d="M 12400,1513 L 1952,1513"/>
 <path fill="none" stroke="rgb(179,179,179)" stroke-linejoin="round" d="M 12400,378 L 1952,378"/>
 <path fill="none" stroke="rgb(179,179,179)" stroke-linejoin="round" d="M 1952,7340 L 1952,7190"/>
 <path fill="none" stroke="rgb(179,179,179)" stroke-linejoin="round" d="M 1952,7340 L 1952,7190"/>
 <path fill="none" stroke="rgb(179,179,179)" stroke-linejoin="round" d="M 3113,7340 L 3113,7190"/>
 <path fill="none" stroke="rgb(179,179,179)" stroke-linejoin="round" d="M 3113,7340 L 3113,7190"/>
 <path fill="none" stroke="rgb(179,179,179)" stroke-linejoin="round" d="M 4274,7340 L 4274,7190"/>
 <path fill="none" stroke="rgb(179,179,179)" stroke-linejoin="round" d="M 4274,7340 L 4274,7190"/>
 <path fill="none" stroke="rgb(179,179,179)" stroke-linejoin="round" d="M 5435,7340 L 5435,7190"/>
 <path fill="none" stroke="rgb(179,179,179)" stroke-linejoin="round" d="M 5435,7340 L 5435,7190"/>
 <path fill="none" stroke="rgb(179,179,179)" stroke-linejoin="round" d="M 6596,7340 L 6596,7190"/>
 <path fill="none" stroke="rgb(179,179,179)" stroke-linejoin="round" d="M 6596,7340 L 6596,7190"/>
 <path fill="none" stroke="rgb(179,179,179)" stroke-linejoin="round" d="M 7757,7340 L 7757,7190"/>
 <path fill="none" stroke="rgb(179,179,179)" stroke-linejoin="round" d="M 7757,7340 L 7757,7190"/>
 <path fill="none" stroke="rgb(179,179,179)" stroke-linejoin="round" d="M 8917,7340 L 8917,7190"/>
 <path fill="none" stroke="rgb(179,179,179)" stroke-linejoin="round" d="M 8917,7340 L 8917,7190"/>
 <path fill="none" stroke="rgb(179,179,179)" stroke-linejoin="round" d="M 10078,7340 L 10078,7190"/>
 <path fill="none" stroke="rgb(179,179,179)" stroke-linejoin="round" d="M 10078,7340 L 10078,7190"/>
 <path fill="none" stroke="rgb(179,179,179)" stroke-linejoin="round" d="M 11239,7340 L 11239,7190"/>
 <path fill="none" stroke="rgb(179,179,179)" stroke-linejoin="round" d="M 11239,7340 L 11239,7190"/>
 <path fill="none" stroke="rgb(179,179,179)" stroke-linejoin="round" d="M 12400,7340 L 12400,7190"/>
 <path fill="none" stroke="rgb(179,179,179)" stroke-linejoin="round" d="M 12400,7340 L 12400,7190"/>
 <path fill="none" stroke="rgb(179,179,179)" stroke-linejoin="round" d="M 1952,7190 L 12400,7190"/>
 <path fill="none" stroke="rgb(179,179,179)" stroke-linejoin="round" d="M 1802,7190 L 1952,7190"/>
 <path fill="none" stroke="rgb(179,179,179)" stroke-linejoin="round" d="M 1802,7190 L 1952,7190"/>
 <path fill="none" stroke="rgb(179,179,179)" stroke-linejoin="round" d="M 1802,6054 L 1952,6054"/>
 <path fill="none" stroke="rgb(179,179,179)" stroke-linejoin="round" d="M 1802,6054 L 1952,6054"/>
 <path fill="none" stroke="rgb(179,179,179)" stroke-linejoin="round" d="M 1802,4919 L 1952,4919"/>
 <path fill="none" stroke="rgb(179,179,179)" stroke-linejoin="round" d="M 1802,4919 L 1952,4919"/>
 <path fill="none" stroke="rgb(179,179,179)" stroke-linejoin="round" d="M 1802,3784 L 1952,3784"/>
 <path fill="none" stroke="rgb(179,179,179)" stroke-linejoin="round" d="M 1802,3784 L 1952,3784"/>
 <path fill="none" stroke="rgb(179,179,179)" stroke-linejoin="round" d="M 1802,2649 L 1952,2649"/>
 <path fill="none" stroke="rgb(179,179,179)" stroke-linejoin="round" d="M 1802,2649 L 1952,2649"/>
 <path fill="none" stroke="rgb(179,179,179)" stroke-linejoin="round" d="M 1802,1513 L 1952,1513"/>
 <path fill="none" stroke="rgb(179,179,179)" stroke-linejoin="round" d="M 1802,1513 L 1952,1513"/>
 <path fill="none" stroke="rgb(179,179,179)" stroke-linejoin="round" d="M 1802,378 L 1952,378"/>
 <path fill="none" stroke="rgb(179,179,179)" stroke-linejoin="round" d="M 1802,378 L 1952,378"/>
 <path fill="none" stroke="rgb(179,179,179)" stroke-linejoin="round" d="M 1952,7190 L 1952,378"/>
 <path fill="none" stroke="rgb(87,157,28)" stroke-width="80" stroke-linejoin="round" d="M 1952,7190 L 2300,6700 2648,6142 2997,5504 3229,4906 4970,2826 7060,2014 11820,1590"/>
 <path fill="rgb(87,157,28)" stroke="none" d="M 1827,7315 L 2077,7315 1952,7065 1827,7315 Z"/>
 <path fill="none" stroke="rgb(87,157,28)" stroke-linejoin="round" d="M 1827,7315 L 2077,7315 1952,7065 1827,7315 Z"/>
 <path fill="rgb(87,157,28)" stroke="none" d="M 2175,6825 L 2425,6825 2300,6575 2175,6825 Z"/>
 <path fill="none" stroke="rgb(87,157,28)" stroke-linejoin="round" d="M 2175,6825 L 2425,6825 2300,6575 2175,6825 Z"/>
 <path fill="rgb(87,157,28)" stroke="none" d="M 2523,6267 L 2773,6267 2648,6017 2523,6267 Z"/>
 <path fill="none" stroke="rgb(87,157,28)" stroke-linejoin="round" d="M 2523,6267 L 2773,6267 2648,6017 2523,6267 Z"/>
 <path fill="rgb(87,157,28)" stroke="none" d="M 2872,5629 L 3122,5629 2997,5379 2872,5629 Z"/>
 <path fill="none" stroke="rgb(87,157,28)" stroke-linejoin="round" d="M 2872,5629 L 3122,5629 2997,5379 2872,5629 Z"/>
 <path fill="rgb(87,157,28)" stroke="none" d="M 3104,5031 L 3354,5031 3229,4781 3104,5031 Z"/>
 <path fill="none" stroke="rgb(87,157,28)" stroke-linejoin="round" d="M 3104,5031 L 3354,5031 3229,4781 3104,5031 Z"/>
 <path fill="rgb(87,157,28)" stroke="none" d="M 4845,2951 L 5095,2951 4970,2701 4845,2951 Z"/>
 <path fill="none" stroke="rgb(87,157,28)" stroke-linejoin="round" d="M 4845,2951 L 5095,2951 4970,2701 4845,2951 Z"/>
 <path fill="rgb(87,157,28)" stroke="none" d="M 6935,2139 L 7185,2139 7060,1889 6935,2139 Z"/>
 <path fill="none" stroke="rgb(87,157,28)" stroke-linejoin="round" d="M 6935,2139 L 7185,2139 7060,1889 6935,2139 Z"/>
 <path fill="rgb(87,157,28)" stroke="none" d="M 11695,1715 L 11945,1715 11820,1465 11695,1715 Z"/>
 <path fill="none" stroke="rgb(87,157,28)" stroke-linejoin="round" d="M 11695,1715 L 11945,1715 11820,1465 11695,1715 Z"/>
 <path fill="none" stroke="rgb(255,211,32)" stroke-width="80" stroke-linejoin="round" d="M 1952,7190 L 2300,6903 2648,6577 2997,5857 3229,5030 4970,2909 7060,2031 11820,1767"/>
 <path fill="rgb(255,211,32)" stroke="none" d="M 1827,7065 L 1952,7315 2077,7065 1827,7065 Z"/>
 <path fill="none" stroke="rgb(255,211,32)" stroke-linejoin="round" d="M 1827,7065 L 1952,7315 2077,7065 1827,7065 Z"/>
 <path fill="rgb(255,211,32)" stroke="none" d="M 2175,6778 L 2300,7028 2425,6778 2175,6778 Z"/>
 <path fill="none" stroke="rgb(255,211,32)" stroke-linejoin="round" d="M 2175,6778 L 2300,7028 2425,6778 2175,6778 Z"/>
 <path fill="rgb(255,211,32)" stroke="none" d="M 2523,6452 L 2648,6702 2773,6452 2523,6452 Z"/>
 <path fill="none" stroke="rgb(255,211,32)" stroke-linejoin="round" d="M 2523,6452 L 2648,6702 2773,6452 2523,6452 Z"/>
 <path fill="rgb(255,211,32)" stroke="none" d="M 2872,5732 L 2997,5982 3122,5732 2872,5732 Z"/>
 <path fill="none" stroke="rgb(255,211,32)" stroke-linejoin="round" d="M 2872,5732 L 2997,5982 3122,5732 2872,5732 Z"/>
 <path fill="rgb(255,211,32)" stroke="none" d="M 3104,4905 L 3229,5155 3354,4905 3104,4905 Z"/>
 <path fill="none" stroke="rgb(255,211,32)" stroke-linejoin="round" d="M 3104,4905 L 3229,5155 3354,4905 3104,4905 Z"/>
 <path fill="rgb(255,211,32)" stroke="none" d="M 4845,2784 L 4970,3034 5095,2784 4845,2784 Z"/>
 <path fill="none" stroke="rgb(255,211,32)" stroke-linejoin="round" d="M 4845,2784 L 4970,3034 5095,2784 4845,2784 Z"/>
 <path fill="rgb(255,211,32)" stroke="none" d="M 6935,1906 L 7060,2156 7185,1906 6935,1906 Z"/>
 <path fill="none" stroke="rgb(255,211,32)" stroke-linejoin="round" d="M 6935,1906 L 7060,2156 7185,1906 6935,1906 Z"/>
 <path fill="rgb(255,211,32)" stroke="none" d="M 11695,1642 L 11820,1892 11945,1642 11695,1642 Z"/>
 <path fill="none" stroke="rgb(255,211,32)" stroke-linejoin="round" d="M 11695,1642 L 11820,1892 11945,1642 11695,1642 Z"/>
 <path fill="none" stroke="rgb(255,66,14)" stroke-width="80" stroke-linejoin="round" d="M 1952,7190 L 2300,6914 2648,6293 2997,5792 3229,4953 4970,3231 7060,2826 11820,1697"/>
 <path fill="rgb(255,66,14)" stroke="none" d="M 1827,7190 L 1952,7315 2077,7190 1952,7065 1827,7190 Z"/>
 <path fill="none" stroke="rgb(255,66,14)" stroke-linejoin="round" d="M 1827,7190 L 1952,7315 2077,7190 1952,7065 1827,7190 Z"/>
 <path fill="rgb(255,66,14)" stroke="none" d="M 2175,6914 L 2300,7039 2425,6914 2300,6789 2175,6914 Z"/>
 <path fill="none" stroke="rgb(255,66,14)" stroke-linejoin="round" d="M 2175,6914 L 2300,7039 2425,6914 2300,6789 2175,6914 Z"/>
 <path fill="rgb(255,66,14)" stroke="none" d="M 2523,6293 L 2648,6418 2773,6293 2648,6168 2523,6293 Z"/>
 <path fill="none" stroke="rgb(255,66,14)" stroke-linejoin="round" d="M 2523,6293 L 2648,6418 2773,6293 2648,6168 2523,6293 Z"/>
 <path fill="rgb(255,66,14)" stroke="none" d="M 2872,5792 L 2997,5917 3122,5792 2997,5667 2872,5792 Z"/>
 <path fill="none" stroke="rgb(255,66,14)" stroke-linejoin="round" d="M 2872,5792 L 2997,5917 3122,5792 2997,5667 2872,5792 Z"/>
 <path fill="rgb(255,66,14)" stroke="none" d="M 3104,4953 L 3229,5078 3354,4953 3229,4828 3104,4953 Z"/>
 <path fill="none" stroke="rgb(255,66,14)" stroke-linejoin="round" d="M 3104,4953 L 3229,5078 3354,4953 3229,4828 3104,4953 Z"/>
 <path fill="rgb(255,66,14)" stroke="none" d="M 4845,3231 L 4970,3356 5095,3231 4970,3106 4845,3231 Z"/>
 <path fill="none" stroke="rgb(255,66,14)" stroke-linejoin="round" d="M 4845,3231 L 4970,3356 5095,3231 4970,3106 4845,3231 Z"/>
 <path fill="rgb(255,66,14)" stroke="none" d="M 6935,2826 L 7060,2951 7185,2826 7060,2701 6935,2826 Z"/>
 <path fill="none" stroke="rgb(255,66,14)" stroke-linejoin="round" d="M 6935,2826 L 7060,2951 7185,2826 7060,2701 6935,2826 Z"/>
 <path fill="rgb(255,66,14)" stroke="none" d="M 11695,1697 L 11820,1822 11945,1697 11820,1572 11695,1697 Z"/>
 <path fill="none" stroke="rgb(255,66,14)" stroke-linejoin="round" d="M 11695,1697 L 11820,1822 11945,1697 11820,1572 11695,1697 Z"/>
 <path fill="none" stroke="rgb(0,69,134)" stroke-width="80" stroke-linejoin="round" d="M 1952,7190 L 2300,6916 2648,6575 2997,5842 3229,5065 4970,3210 7060,2110 11820,1680"/>
 <path fill="rgb(0,69,134)" stroke="none" d="M 1827,7065 L 1827,7315 2077,7315 2077,7065 1827,7065 Z"/>
 <path fill="none" stroke="rgb(0,69,134)" stroke-linejoin="round" d="M 1827,7065 L 1827,7315 2077,7315 2077,7065 1827,7065 Z"/>
 <path fill="rgb(0,69,134)" stroke="none" d="M 2175,6791 L 2175,7041 2425,7041 2425,6791 2175,6791 Z"/>
 <path fill="none" stroke="rgb(0,69,134)" stroke-linejoin="round" d="M 2175,6791 L 2175,7041 2425,7041 2425,6791 2175,6791 Z"/>
 <path fill="rgb(0,69,134)" stroke="none" d="M 2523,6450 L 2523,6700 2773,6700 2773,6450 2523,6450 Z"/>
 <path fill="none" stroke="rgb(0,69,134)" stroke-linejoin="round" d="M 2523,6450 L 2523,6700 2773,6700 2773,6450 2523,6450 Z"/>
 <path fill="rgb(0,69,134)" stroke="none" d="M 2872,5717 L 2872,5967 3122,5967 3122,5717 2872,5717 Z"/>
 <path fill="none" stroke="rgb(0,69,134)" stroke-linejoin="round" d="M 2872,5717 L 2872,5967 3122,5967 3122,5717 2872,5717 Z"/>
 <path fill="rgb(0,69,134)" stroke="none" d="M 3104,4940 L 3104,5190 3354,5190 3354,4940 3104,4940 Z"/>
 <path fill="none" stroke="rgb(0,69,134)" stroke-linejoin="round" d="M 3104,4940 L 3104,5190 3354,5190 3354,4940 3104,4940 Z"/>
 <path fill="rgb(0,69,134)" stroke="none" d="M 4845,3085 L 4845,3335 5095,3335 5095,3085 4845,3085 Z"/>
 <path fill="none" stroke="rgb(0,69,134)" stroke-linejoin="round" d="M 4845,3085 L 4845,3335 5095,3335 5095,3085 4845,3085 Z"/>
 <path fill="rgb(0,69,134)" stroke="none" d="M 6935,1985 L 6935,2235 7185,2235 7185,1985 6935,1985 Z"/>
 <path fill="none" stroke="rgb(0,69,134)" stroke-linejoin="round" d="M 6935,1985 L 6935,2235 7185,2235 7185,1985 6935,1985 Z"/>
 <path fill="rgb(0,69,134)" stroke="none" d="M 11695,1555 L 11695,1805 11945,1805 11945,1555 11695,1555 Z"/>
 <path fill="none" stroke="rgb(0,69,134)" stroke-linejoin="round" d="M 11695,1555 L 11695,1805 11945,1805 11945,1555 11695,1555 Z"/>
 <text class="TextShape"><tspan class="TextParagraph" font-family="Liberation Sans, sans-serif" font-size="353px" font-weight="400"><tspan class="TextPosition" x="1859" y="7758"><tspan fill="rgb(0,0,0)" stroke="none">0</tspan></tspan></tspan></text>
 <text class="TextShape"><tspan class="TextParagraph" font-family="Liberation Sans, sans-serif" font-size="353px" font-weight="400"><tspan class="TextPosition" x="2928" y="7758"><tspan fill="rgb(0,0,0)" stroke="none">10</tspan></tspan></tspan></text>
 <text class="TextShape"><tspan class="TextParagraph" font-family="Liberation Sans, sans-serif" font-size="353px" font-weight="400"><tspan class="TextPosition" x="4089" y="7758"><tspan fill="rgb(0,0,0)" stroke="none">20</tspan></tspan></tspan></text>
 <text class="TextShape"><tspan class="TextParagraph" font-family="Liberation Sans, sans-serif" font-size="353px" font-weight="400"><tspan class="TextPosition" x="5250" y="7758"><tspan fill="rgb(0,0,0)" stroke="none">30</tspan></tspan></tspan></text>
 <text class="TextShape"><tspan class="TextParagraph" font-family="Liberation Sans, sans-serif" font-size="353px" font-weight="400"><tspan class="TextPosition" x="6411" y="7758"><tspan fill="rgb(0,0,0)" stroke="none">40</tspan></tspan></tspan></text>
 <text class="TextShape"><tspan class="TextParagraph" font-family="Liberation Sans, sans-serif" font-size="353px" font-weight="400"><tspan class="TextPosition" x="7572" y="7758"><tspan fill="rgb(0,0,0)" stroke="none">50</tspan></tspan></tspan></text>
 <text class="TextShape"><tspan class="TextParagraph" font-family="Liberation Sans, sans-serif" font-size="353px" font-weight="400"><tspan class="TextPosition" x="8733" y="7758"><tspan fill="rgb(0,0,0)" stroke="none">60</tspan></tspan></tspan></text>
 <text class="TextShape"><tspan class="TextParagraph" font-family="Liberation Sans, sans-serif" font-size="353px" font-weight="400"><tspan class="TextPosition" x="9894" y="7758"><tspan fill="rgb(0,0,0)" stroke="none">70</tspan></tspan></tspan></text>
 <text class="TextShape"><tspan class="TextParagraph" font-family="Liberation Sans, sans-serif" font-size="353px" font-weight="400"><tspan class="TextPosition" x="11055" y="7758"><tspan fill="rgb(0,0,0)" stroke="none">80</tspan></tspan></tspan></text>
 <text class="TextShape"><tspan class="TextParagraph" font-family="Liberation Sans, sans-serif" font-size="353px" font-weight="400"><tspan class="TextPosition" x="12216" y="7758"><tspan fill="rgb(0,0,0)" stroke="none">90</tspan></tspan></tspan></text>
 <text class="TextShape"><tspan class="TextParagraph" font-family="Liberation Sans, sans-serif" font-size="353px" font-weight="400"><tspan class="TextPosition" x="1517" y="7311"><tspan fill="rgb(0,0,0)" stroke="none">0</tspan></tspan></tspan></text>
 <text class="TextShape"><tspan class="TextParagraph" font-family="Liberation Sans, sans-serif" font-size="353px" font-weight="400"><tspan class="TextPosition" x="1332" y="6175"><tspan fill="rgb(0,0,0)" stroke="none">20</tspan></tspan></tspan></text>
 <text class="TextShape"><tspan class="TextParagraph" font-family="Liberation Sans, sans-serif" font-size="353px" font-weight="400"><tspan class="TextPosition" x="1332" y="5040"><tspan fill="rgb(0,0,0)" stroke="none">40</tspan></tspan></tspan></text>
 <text class="TextShape"><tspan class="TextParagraph" font-family="Liberation Sans, sans-serif" font-size="353px" font-weight="400"><tspan class="TextPosition" x="1332" y="3904"><tspan fill="rgb(0,0,0)" stroke="none">60</tspan></tspan></tspan></text>
 <text class="TextShape"><tspan class="TextParagraph" font-family="Liberation Sans, sans-serif" font-size="353px" font-weight="400"><tspan class="TextPosition" x="1332" y="2769"><tspan fill="rgb(0,0,0)" stroke="none">80</tspan></tspan></tspan></text>
 <text class="TextShape"><tspan class="TextParagraph" font-family="Liberation Sans, sans-serif" font-size="353px" font-weight="400"><tspan class="TextPosition" x="1146" y="1633"><tspan fill="rgb(0,0,0)" stroke="none">100</tspan></tspan></tspan></text>
 <text class="TextShape"><tspan class="TextParagraph" font-family="Liberation Sans, sans-serif" font-size="353px" font-weight="400"><tspan class="TextPosition" x="1146" y="498"><tspan fill="rgb(0,0,0)" stroke="none">120</tspan></tspan></tspan></text>
 <path fill="none" stroke="rgb(0,69,134)" stroke-width="80" stroke-linejoin="round" d="M 13210,3752 L 14010,3752"/>
 <path fill="rgb(0,69,134)" stroke="none" d="M 13504,3647 L 13504,3858 13715,3858 13715,3647 13504,3647 Z"/>
 <path fill="none" stroke="rgb(0,69,134)" stroke-linejoin="round" d="M 13504,3647 L 13504,3858 13715,3858 13715,3647 13504,3647 Z"/>
 <path fill="none" stroke="rgb(255,66,14)" stroke-width="80" stroke-linejoin="round" d="M 13210,4250 L 14010,4250"/>
 <path fill="rgb(255,66,14)" stroke="none" d="M 13504,4250 L 13610,4356 13715,4250 13610,4145 13504,4250 Z"/>
 <path fill="none" stroke="rgb(255,66,14)" stroke-linejoin="round" d="M 13504,4250 L 13610,4356 13715,4250 13610,4145 13504,4250 Z"/>
 <path fill="none" stroke="rgb(255,211,32)" stroke-width="80" stroke-linejoin="round" d="M 13210,4747 L 14010,4747"/>
 <path fill="rgb(255,211,32)" stroke="none" d="M 13504,4642 L 13610,4853 13715,4642 13504,4642 Z"/>
 <path fill="none" stroke="rgb(255,211,32)" stroke-linejoin="round" d="M 13504,4642 L 13610,4853 13715,4642 13504,4642 Z"/>
 <path fill="none" stroke="rgb(87,157,28)" stroke-width="80" stroke-linejoin="round" d="M 13210,5245 L 14010,5245"/>
 <path fill="rgb(87,157,28)" stroke="none" d="M 13504,5351 L 13715,5351 13610,5140 13504,5351 Z"/>
 <path fill="none" stroke="rgb(87,157,28)" stroke-linejoin="round" d="M 13504,5351 L 13715,5351 13610,5140 13504,5351 Z"/>
 <text class="TextShape"><tspan class="TextParagraph" font-family="Liberation Sans, sans-serif" font-size="353px" font-weight="400"><tspan class="TextPosition" x="14110" y="3872"><tspan fill="rgb(0,0,0)" stroke="none">between</tspan></tspan></tspan></text>
 <text class="TextShape"><tspan class="TextParagraph" font-family="Liberation Sans, sans-serif" font-size="353px" font-weight="400"><tspan class="TextPosition" x="14110" y="4370"><tspan fill="rgb(0,0,0)" stroke="none">closeness</tspan></tspan></tspan></text>
 <text class="TextShape"><tspan class="TextParagraph" font-family="Liberation Sans, sans-serif" font-size="353px" font-weight="400"><tspan class="TextPosition" x="14110" y="4867"><tspan fill="rgb(0,0,0)" stroke="none">page</tspan></tspan></tspan></text>
 <text class="TextShape"><tspan class="TextParagraph" font-family="Liberation Sans, sans-serif" font-size="353px" font-weight="400"><tspan class="TextPosition" x="14110" y="5365"><tspan fill="rgb(0,0,0)" stroke="none">random</tspan></tspan></tspan></text>
 <text class="TextShape"><tspan class="TextParagraph" font-family="Liberation Sans, sans-serif" font-size="318px" font-weight="400"><tspan class="TextPosition" x="5227" y="8405"><tspan fill="rgb(0,0,0)" stroke="none">% of humans have robots</tspan></tspan></tspan></text>
 <text class="TextShape" transform="translate(837,6191) rotate(-90) translate(-837,-6191)"><tspan class="TextParagraph" font-family="Liberation Sans, sans-serif" font-size="318px" font-weight="400"><tspan class="TextPosition" x="837" y="6191"><tspan fill="rgb(0,0,0)" stroke="none">% of humans using robot word</tspan></tspan></tspan></text>
</svg>