<?xml version="1.0" encoding="UTF-8"?>
<!DOCTYPE svg PUBLIC "-//W3C//DTD SVG 1.1//EN" "http://www.w3.org/Graphics/SVG/1.1/DTD/svg11.dtd">
<svg width="160mm" height="90mm" viewBox="0 0 16000 9000" version="1.1" xmlns="http://www.w3.org/2000/svg" stroke-width="28.222" stroke-linejoin="round" xml:space="preserve">
 <path fill="rgb(255,255,255)" stroke="none" d="M 8000,8999 L 0,8999 0,0 15999,0 15999,8999 8000,8999 Z"/>
 <path fill="none" stroke="rgb(179,179,179)" stroke-linejoin="round" d="M 6671,8172 L 941,8172 941,379 12401,379 12401,8172 6671,8172 Z"/>
 <path fill="none" stroke="rgb(179,179,179)" stroke-linejoin="round" d="M 12401,8171 L 941,8171"/>
 <path fill="none" stroke="rgb(179,179,179)" stroke-linejoin="round" d="M 12401,6872 L 941,6872"/>
 <path fill="none" stroke="rgb(179,179,179)" stroke-linejoin="round" d="M 12401,5573 L 941,5573"/>
 <path fill="none" stroke="rgb(179,179,179)" stroke-linejoin="round" d="M 12401,4275 L 941,4275"/>
 <path fill="none" stroke="rgb(179,179,179)" stroke-linejoin="round" d="M 12401,2976 L 941,2976"/>
 <path fill="none" stroke="rgb(179,179,179)" stroke-linejoin="round" d="M 12401,1677 L 941,1677"/>
 <path fill="none" stroke="rgb(179,179,179)" stroke-linejoin="round" d="M 12401,378 L 941,378"/>
 <path fill="none" stroke="rgb(179,179,179)" stroke-linejoin="round" d="M 941,8321 L 941,8171"/>
 <path fill="none" stroke="rgb(179,179,179)" stroke-linejoin="round" d="M 941,8321 L 941,8171"/>
 <path fill="none" stroke="rgb(179,179,179)" stroke-linejoin="round" d="M 2214,8321 L 2214,8171"/>
 <path fill="none" stroke="rgb(179,179,179)" stroke-linejoin="round" d="M 2214,8321 L 2214,8171"/>
 <path fill="none" stroke="rgb(179,179,179)" stroke-linejoin="round" d="M 3487,8321 L 3487,8171"/>
 <path fill="none" stroke="rgb(179,179,179)" stroke-linejoin="round" d="M 3487,8321 L 3487,8171"/>
 <path fill="none" stroke="rgb(179,179,179)" stroke-linejoin="round" d="M 4761,8321 L 4761,8171"/>
 <path fill="none" stroke="rgb(179,179,179)" stroke-linejoin="round" d="M 4761,8321 L 4761,8171"/>
 <path fill="none" stroke="rgb(179,179,179)" stroke-linejoin="round" d="M 6034,8321 L 6034,8171"/>
 <path fill="none" stroke="rgb(179,179,179)" stroke-linejoin="round" d="M 6034,8321 L 6034,8171"/>
 <path fill="none" stroke="rgb(179,179,179)" stroke-linejoin="round" d="M 7308,8321 L 7308,8171"/>
 <path fill="none" stroke="rgb(179,179,179)" stroke-linejoin="round" d="M 7308,8321 L 7308,8171"/>
 <path fill="none" stroke="rgb(179,179,179)" stroke-linejoin="round" d="M 8580,8321 L 8580,8171"/>
 <path fill="none" stroke="rgb(179,179,179)" stroke-linejoin="round" d="M 8580,8321 L 8580,8171"/>
 <path fill="none" stroke="rgb(179,179,179)" stroke-linejoin="round" d="M 9854,8321 L 9854,8171"/>
 <path fill="none" stroke="rgb(179,179,179)" stroke-linejoin="round" d="M 9854,8321 L 9854,8171"/>
 <path fill="none" stroke="rgb(179,179,179)" stroke-linejoin="round" d="M 11127,8321 L 11127,8171"/>
 <path fill="none" stroke="rgb(179,179,179)" stroke-linejoin="round" d="M 11127,8321 L 11127,8171"/>
 <path fill="none" stroke="rgb(179,179,179)" stroke-linejoin="round" d="M 12401,8321 L 12401,8171"/>
 <path fill="none" stroke="rgb(179,179,179)" stroke-linejoin="round" d="M 12401,8321 L 12401,8171"/>
 <path fill="none" stroke="rgb(179,179,179)" stroke-linejoin="round" d="M 941,8171 L 12401,8171"/>
 <path fill="none" stroke="rgb(179,179,179)" stroke-linejoin="round" d="M 791,8171 L 941,8171"/>
 <path fill="none" stroke="rgb(179,179,179)" stroke-linejoin="round" d="M 791,8171 L 941,8171"/>
 <path fill="none" stroke="rgb(179,179,179)" stroke-linejoin="round" d="M 791,6872 L 941,6872"/>
 <path fill="none" stroke="rgb(179,179,179)" stroke-linejoin="round" d="M 791,6872 L 941,6872"/>
 <path fill="none" stroke="rgb(179,179,179)" stroke-linejoin="round" d="M 791,5573 L 941,5573"/>
 <path fill="none" stroke="rgb(179,179,179)" stroke-linejoin="round" d="M 791,5573 L 941,5573"/>
 <path fill="none" stroke="rgb(179,179,179)" stroke-linejoin="round" d="M 791,4275 L 941,4275"/>
 <path fill="none" stroke="rgb(179,179,179)" stroke-linejoin="round" d="M 791,4275 L 941,4275"/>
 <path fill="none" stroke="rgb(179,179,179)" stroke-linejoin="round" d="M 791,2976 L 941,2976"/>
 <path fill="none" stroke="rgb(179,179,179)" stroke-linejoin="round" d="M 791,2976 L 941,2976"/>
 <path fill="none" stroke="rgb(179,179,179)" stroke-linejoin="round" d="M 791,1677 L 941,1677"/>
 <path fill="none" stroke="rgb(179,179,179)" stroke-linejoin="round" d="M 791,1677 L 941,1677"/>
 <path fill="none" stroke="rgb(179,179,179)" stroke-linejoin="round" d="M 791,378 L 941,378"/>
 <path fill="none" stroke="rgb(179,179,179)" stroke-linejoin="round" d="M 791,378 L 941,378"/>
 <path fill="none" stroke="rgb(179,179,179)" stroke-linejoin="round" d="M 941,8171 L 941,378"/>
 <path fill="none" stroke="rgb(87,157,28)" stroke-width="80" stroke-linejoin="round" d="M 941,8171 L 960,8145 980,8120 999,8095 1019,8069 1039,8042 1058,8015 1078,7988 1097,7959 1117,7930 1136,7899 1155,7867 1174,7834 1193,7799 1212,7763 1231,7725 1249,7686 1268,7644 1286,7600 1304,7555 1323,7506 1340,7456 1358,7403 1376,7348 1393,7290 1411,7231 1429,7169 1446,7106 1464,7040 1482,6973 1501,6904 1519,6834 1538,6761 1557,6688 1577,6612 1597,6536 1617,6458 1638,6379 1660,6299 1682,6217 1705,6135 1728,6052 1752,5968 1776,5883 1801,5798 1825,5713 1850,5627 1874,5542 1898,5456 1921,5371 1943,5287 1964,5203 1984,5120 2003,5038 2021,4957 2037,4878 2051,4800 2063,4723 2073,4648 2081,4575 2087,4505 2090,4437 2091,4370 2090,4306 2088,4242 2086,4180 2084,4119 2082,4058 2082,3998 2083,3939 2085,3879 2091,3819 2100,3759 2112,3698 2128,3636 2149,3572 2175,3508 2207,3441 2245,3372 2289,3302 2341,3228 2401,3153 2467,3075 2540,2995 2619,2913 2704,2831 2794,2748 2888,2665 2985,2583 3086,2501 3190,2421 3296,2342 3403,2266 3511,2192 3620,2121 3729,2053 3837,1990 3944,1930 4049,1876 4152,1827 4251,1783 4348,1746 4442,1714 4534,1688 4625,1666 4715,1650 4806,1637 4898,1629 4991,1624 5088,1622 5188,1623 5292,1626 5401,1631 5516,1638 5637,1647 5765,1656 5902,1666 6047,1676 6202,1686 6367,1695 6544,1703 6732,1711 6931,1717 7141,1721 7360,1725 7590,1728 7828,1729 8074,1730 8328,1730 8589,1729 8857,1728 9131,1726 9410,1723 9694,1720 9982,1716 10273,1712 10568,1707 10865,1703 11163,1698 11463,1693 11764,1688"/>
 <path fill="rgb(87,157,28)" stroke="none" d="M 816,8296 L 1066,8296 941,8046 816,8296 Z"/>
 <path fill="none" stroke="rgb(87,157,28)" stroke-linejoin="round" d="M 816,8296 L 1066,8296 941,8046 816,8296 Z"/>
 <path fill="rgb(87,157,28)" stroke="none" d="M 1198,7631 L 1448,7631 1323,7381 1198,7631 Z"/>
 <path fill="none" stroke="rgb(87,157,28)" stroke-linejoin="round" d="M 1198,7631 L 1448,7631 1323,7381 1198,7631 Z"/>
 <path fill="rgb(87,157,28)" stroke="none" d="M 1580,6260 L 1830,6260 1705,6010 1580,6260 Z"/>
 <path fill="none" stroke="rgb(87,157,28)" stroke-linejoin="round" d="M 1580,6260 L 1830,6260 1705,6010 1580,6260 Z"/>
 <path fill="rgb(87,157,28)" stroke="none" d="M 1962,4630 L 2212,4630 2087,4381 1962,4630 Z"/>
 <path fill="none" stroke="rgb(87,157,28)" stroke-linejoin="round" d="M 1962,4630 L 2212,4630 2087,4381 1962,4630 Z"/>
 <path fill="rgb(87,157,28)" stroke="none" d="M 2216,3353 L 2466,3353 2341,3103 2216,3353 Z"/>
 <path fill="none" stroke="rgb(87,157,28)" stroke-linejoin="round" d="M 2216,3353 L 2466,3353 2341,3103 2216,3353 Z"/>
 <path fill="rgb(87,157,28)" stroke="none" d="M 4126,1908 L 4376,1908 4251,1658 4126,1908 Z"/>
 <path fill="none" stroke="rgb(87,157,28)" stroke-linejoin="round" d="M 4126,1908 L 4376,1908 4251,1658 4126,1908 Z"/>
 <path fill="rgb(87,157,28)" stroke="none" d="M 6419,1828 L 6669,1828 6544,1578 6419,1828 Z"/>
 <path fill="none" stroke="rgb(87,157,28)" stroke-linejoin="round" d="M 6419,1828 L 6669,1828 6544,1578 6419,1828 Z"/>
 <path fill="rgb(87,157,28)" stroke="none" d="M 11639,1813 L 11889,1813 11764,1563 11639,1813 Z"/>
 <path fill="none" stroke="rgb(87,157,28)" stroke-linejoin="round" d="M 11639,1813 L 11889,1813 11764,1563 11639,1813 Z"/>
 <path fill="none" stroke="rgb(255,211,32)" stroke-width="80" stroke-linejoin="round" d="M 941,8171 L 960,8152 980,8133 999,8115 1019,8096 1039,8077 1058,8058 1078,8039 1097,8020 1117,8000 1136,7980 1155,7960 1174,7940 1193,7920 1212,7899 1231,7877 1249,7856 1268,7834 1286,7811 1304,7788 1323,7765 1340,7741 1358,7716 1376,7690 1393,7663 1411,7635 1429,7604 1446,7572 1464,7537 1482,7500 1501,7460 1519,7417 1538,7371 1557,7321 1577,7267 1597,7210 1617,7148 1638,7081 1660,7010 1682,6934 1705,6852 1728,6765 1752,6672 1776,6575 1801,6474 1825,6369 1850,6260 1874,6148 1898,6033 1921,5916 1943,5798 1964,5677 1984,5556 2003,5434 2021,5311 2037,5189 2051,5068 2063,4947 2073,4828 2081,4710 2087,4595 2090,4483 2091,4373 2090,4265 2088,4160 2086,4058 2084,3958 2082,3860 2082,3766 2083,3673 2085,3584 2091,3497 2100,3412 2112,3331 2128,3251 2149,3175 2175,3101 2207,3029 2245,2960 2289,2894 2341,2830 2401,2768 2467,2710 2540,2653 2619,2599 2704,2547 2794,2498 2888,2450 2985,2405 3086,2361 3190,2320 3296,2280 3403,2242 3511,2206 3620,2172 3729,2138 3837,2107 3944,2077 4049,2048 4152,2020 4251,1994 4348,1969 4442,1945 4534,1922 4625,1900 4715,1879 4806,1859 4898,1840 4991,1822 5088,1806 5188,1790 5292,1775 5401,1762 5516,1749 5637,1737 5765,1727 5902,1717 6047,1708 6202,1700 6367,1693 6544,1687 6732,1682 6931,1677 7141,1674 7360,1671 7590,1669 7828,1668 8074,1667 8328,1667 8589,1667 8857,1668 9131,1669 9410,1671 9694,1673 9982,1675 10273,1678 10568,1681 10865,1684 11163,1687 11463,1691 11764,1694"/>
 <path fill="rgb(255,211,32)" stroke="none" d="M 816,8046 L 941,8296 1066,8046 816,8046 Z"/>
 <path fill="none" stroke="rgb(255,211,32)" stroke-linejoin="round" d="M 816,8046 L 941,8296 1066,8046 816,8046 Z"/>
 <path fill="rgb(255,211,32)" stroke="none" d="M 1198,7640 L 1323,7890 1448,7640 1198,7640 Z"/>
 <path fill="none" stroke="rgb(255,211,32)" stroke-linejoin="round" d="M 1198,7640 L 1323,7890 1448,7640 1198,7640 Z"/>
 <path fill="rgb(255,211,32)" stroke="none" d="M 1580,6727 L 1705,6977 1830,6727 1580,6727 Z"/>
 <path fill="none" stroke="rgb(255,211,32)" stroke-linejoin="round" d="M 1580,6727 L 1705,6977 1830,6727 1580,6727 Z"/>
 <path fill="rgb(255,211,32)" stroke="none" d="M 1962,4471 L 2087,4720 2212,4471 1962,4471 Z"/>
 <path fill="none" stroke="rgb(255,211,32)" stroke-linejoin="round" d="M 1962,4471 L 2087,4720 2212,4471 1962,4471 Z"/>
 <path fill="rgb(255,211,32)" stroke="none" d="M 2216,2705 L 2341,2955 2466,2705 2216,2705 Z"/>
 <path fill="none" stroke="rgb(255,211,32)" stroke-linejoin="round" d="M 2216,2705 L 2341,2955 2466,2705 2216,2705 Z"/>
 <path fill="rgb(255,211,32)" stroke="none" d="M 4126,1869 L 4251,2119 4376,1869 4126,1869 Z"/>
 <path fill="none" stroke="rgb(255,211,32)" stroke-linejoin="round" d="M 4126,1869 L 4251,2119 4376,1869 4126,1869 Z"/>
 <path fill="rgb(255,211,32)" stroke="none" d="M 6419,1562 L 6544,1812 6669,1562 6419,1562 Z"/>
 <path fill="none" stroke="rgb(255,211,32)" stroke-linejoin="round" d="M 6419,1562 L 6544,1812 6669,1562 6419,1562 Z"/>
 <path fill="rgb(255,211,32)" stroke="none" d="M 11639,1569 L 11764,1819 11889,1569 11639,1569 Z"/>
 <path fill="none" stroke="rgb(255,211,32)" stroke-linejoin="round" d="M 11639,1569 L 11764,1819 11889,1569 11639,1569 Z"/>
 <path fill="none" stroke="rgb(255,66,14)" stroke-width="80" stroke-linejoin="round" d="M 941,8171 L 960,8161 980,8152 999,8142 1019,8131 1039,8120 1058,8108 1078,8094 1097,8078 1117,8061 1136,8042 1155,8021 1174,7998 1193,7972 1212,7943 1231,7911 1249,7876 1268,7837 1286,7795 1304,7748 1323,7698 1340,7643 1358,7585 1376,7522 1393,7456 1411,7387 1429,7315 1446,7240 1464,7163 1482,7083 1501,7002 1519,6919 1538,6834 1557,6749 1577,6662 1597,6575 1617,6488 1638,6401 1660,6314 1682,6227 1705,6142 1728,6057 1752,5973 1776,5890 1801,5808 1825,5726 1850,5645 1874,5564 1898,5484 1921,5403 1943,5323 1964,5242 1984,5162 2003,5081 2021,4999 2037,4918 2051,4835 2063,4752 2073,4668 2081,4583 2087,4497 2090,4410 2091,4322 2090,4233 2088,4143 2086,4053 2084,3963 2082,3872 2082,3783 2083,3693 2085,3604 2091,3516 2100,3429 2112,3344 2128,3260 2149,3177 2175,3097 2207,3018 2245,2942 2289,2869 2341,2798 2401,2730 2467,2665 2540,2603 2619,2544 2704,2488 2794,2434 2888,2384 2985,2337 3086,2292 3190,2251 3296,2212 3403,2177 3511,2144 3620,2115 3729,2088 3837,2064 3944,2043 4049,2026 4152,2011 4251,1999 4348,1990 4442,1984 4534,1980 4625,1978 4715,1979 4806,1981 4898,1984 4991,1989 5088,1994 5188,2001 5292,2007 5401,2014 5516,2020 5637,2026 5765,2032 5902,2037 6047,2040 6202,2042 6367,2042 6544,2041 6732,2037 6931,2031 7141,2023 7360,2013 7590,2002 7828,1988 8074,1974 8328,1958 8589,1940 8857,1921 9131,1902 9410,1881 9694,1859 9982,1837 10273,1814 10568,1790 10865,1766 11163,1742 11463,1717 11764,1692"/>
 <path fill="rgb(255,66,14)" stroke="none" d="M 816,8171 L 941,8296 1066,8171 941,8046 816,8171 Z"/>
 <path fill="none" stroke="rgb(255,66,14)" stroke-linejoin="round" d="M 816,8171 L 941,8296 1066,8171 941,8046 816,8171 Z"/>
 <path fill="rgb(255,66,14)" stroke="none" d="M 1198,7698 L 1323,7823 1448,7698 1323,7573 1198,7698 Z"/>
 <path fill="none" stroke="rgb(255,66,14)" stroke-linejoin="round" d="M 1198,7698 L 1323,7823 1448,7698 1323,7573 1198,7698 Z"/>
 <path fill="rgb(255,66,14)" stroke="none" d="M 1580,6142 L 1705,6267 1830,6142 1705,6017 1580,6142 Z"/>
 <path fill="none" stroke="rgb(255,66,14)" stroke-linejoin="round" d="M 1580,6142 L 1705,6267 1830,6142 1705,6017 1580,6142 Z"/>
 <path fill="rgb(255,66,14)" stroke="none" d="M 1962,4497 L 2087,4621 2212,4497 2087,4372 1962,4497 Z"/>
 <path fill="none" stroke="rgb(255,66,14)" stroke-linejoin="round" d="M 1962,4497 L 2087,4621 2212,4497 2087,4372 1962,4497 Z"/>
 <path fill="rgb(255,66,14)" stroke="none" d="M 2216,2798 L 2341,2923 2466,2798 2341,2673 2216,2798 Z"/>
 <path fill="none" stroke="rgb(255,66,14)" stroke-linejoin="round" d="M 2216,2798 L 2341,2923 2466,2798 2341,2673 2216,2798 Z"/>
 <path fill="rgb(255,66,14)" stroke="none" d="M 4126,1999 L 4251,2124 4376,1999 4251,1874 4126,1999 Z"/>
 <path fill="none" stroke="rgb(255,66,14)" stroke-linejoin="round" d="M 4126,1999 L 4251,2124 4376,1999 4251,1874 4126,1999 Z"/>
 <path fill="rgb(255,66,14)" stroke="none" d="M 6419,2041 L 6544,2166 6669,2041 6544,1916 6419,2041 Z"/>
 <path fill="none" stroke="rgb(255,66,14)" stroke-linejoin="round" d="M 6419,2041 L 6544,2166 6669,2041 6544,1916 6419,2041 Z"/>
 <path fill="rgb(255,66,14)" stroke="none" d="M 11639,1692 L 11764,1817 11889,1692 11764,1567 11639,1692 Z"/>
 <path fill="none" stroke="rgb(255,66,14)" stroke-linejoin="round" d="M 11639,1692 L 11764,1817 11889,1692 11764,1567 11639,1692 Z"/>
 <path fill="none" stroke="rgb(0,69,134)" stroke-width="80" stroke-linejoin="round" d="M 941,8171 L 960,8144 980,8118 999,8092 1019,8066 1039,8040 1058,8014 1078,7989 1097,7963 1117,7938 1136,7913 1155,7888 1174,7863 1193,7839 1212,7815 1231,7791 1249,7768 1268,7745 1286,7723 1304,7700 1323,7679 1340,7658 1358,7636 1376,7615 1393,7593 1411,7570 1429,7546 1446,7521 1464,7493 1482,7463 1501,7431 1519,7395 1538,7356 1557,7314 1577,7267 1597,7217 1617,7161 1638,7100 1660,7034 1682,6963 1705,6885 1728,6801 1752,6710 1776,6615 1801,6514 1825,6409 1850,6300 1874,6187 1898,6071 1921,5952 1943,5831 1964,5708 1984,5584 2003,5459 2021,5334 2037,5209 2051,5084 2063,4960 2073,4838 2081,4718 2087,4601 2090,4487 2091,4375 2090,4266 2088,4160 2086,4057 2084,3956 2082,3859 2082,3764 2083,3672 2085,3582 2091,3496 2100,3412 2112,3331 2128,3252 2149,3176 2175,3103 2207,3032 2245,2964 2289,2898 2341,2835 2401,2774 2467,2716 2540,2661 2619,2607 2704,2556 2794,2507 2888,2460 2985,2415 3086,2372 3190,2331 3296,2291 3403,2253 3511,2217 3620,2183 3729,2150 3837,2118 3944,2088 4049,2059 4152,2031 4251,2004 4348,1979 4442,1954 4534,1930 4625,1908 4715,1886 4806,1866 4898,1846 4991,1828 5088,1810 5188,1794 5292,1778 5401,1764 5516,1750 5637,1738 5765,1726 5902,1716 6047,1706 6202,1698 6367,1690 6544,1684 6732,1678 6931,1673 7141,1669 7360,1666 7590,1664 7828,1662 8074,1661 8328,1661 8589,1662 8857,1662 9131,1664 9410,1665 9694,1668 9982,1670 10273,1673 10568,1676 10865,1679 11163,1682 11463,1686 11764,1689"/>
 <path fill="rgb(0,69,134)" stroke="none" d="M 816,8046 L 816,8296 1066,8296 1066,8046 816,8046 Z"/>
 <path fill="none" stroke="rgb(0,69,134)" stroke-linejoin="round" d="M 816,8046 L 816,8296 1066,8296 1066,8046 816,8046 Z"/>
 <path fill="rgb(0,69,134)" stroke="none" d="M 1198,7554 L 1198,7804 1448,7804 1448,7554 1198,7554 Z"/>
 <path fill="none" stroke="rgb(0,69,134)" stroke-linejoin="round" d="M 1198,7554 L 1198,7804 1448,7804 1448,7554 1198,7554 Z"/>
 <path fill="rgb(0,69,134)" stroke="none" d="M 1580,6760 L 1580,7010 1830,7010 1830,6760 1580,6760 Z"/>
 <path fill="none" stroke="rgb(0,69,134)" stroke-linejoin="round" d="M 1580,6760 L 1580,7010 1830,7010 1830,6760 1580,6760 Z"/>
 <path fill="rgb(0,69,134)" stroke="none" d="M 1962,4477 L 1962,4726 2212,4726 2212,4477 1962,4477 Z"/>
 <path fill="none" stroke="rgb(0,69,134)" stroke-linejoin="round" d="M 1962,4477 L 1962,4726 2212,4726 2212,4477 1962,4477 Z"/>
 <path fill="rgb(0,69,134)" stroke="none" d="M 2216,2710 L 2216,2960 2466,2960 2466,2710 2216,2710 Z"/>
 <path fill="none" stroke="rgb(0,69,134)" stroke-linejoin="round" d="M 2216,2710 L 2216,2960 2466,2960 2466,2710 2216,2710 Z"/>
 <path fill="rgb(0,69,134)" stroke="none" d="M 4126,1879 L 4126,2129 4376,2129 4376,1879 4126,1879 Z"/>
 <path fill="none" stroke="rgb(0,69,134)" stroke-linejoin="round" d="M 4126,1879 L 4126,2129 4376,2129 4376,1879 4126,1879 Z"/>
 <path fill="rgb(0,69,134)" stroke="none" d="M 6419,1559 L 6419,1809 6669,1809 6669,1559 6419,1559 Z"/>
 <path fill="none" stroke="rgb(0,69,134)" stroke-linejoin="round" d="M 6419,1559 L 6419,1809 6669,1809 6669,1559 6419,1559 Z"/>
 <path fill="rgb(0,69,134)" stroke="none" d="M 11639,1564 L 11639,1814 11889,1814 11889,1564 11639,1564 Z"/>
 <path fill="none" stroke="rgb(0,69,134)" stroke-linejoin="round" d="M 11639,1564 L 11639,1814 11889,1814 11889,1564 11639,1564 Z"/>
 <text class="TextShape"><tspan class="TextParagraph" font-family="Liberation Sans, sans-serif" font-size="353px" font-weight="400"><tspan class="TextPosition" x="848" y="8739"><tspan fill="rgb(0,0,0)" stroke="none">0</tspan></tspan></tspan></text>
 <text class="TextShape"><tspan class="TextParagraph" font-family="Liberation Sans, sans-serif" font-size="353px" font-weight="400"><tspan class="TextPosition" x="2029" y="8739"><tspan fill="rgb(0,0,0)" stroke="none">10</tspan></tspan></tspan></text>
 <text class="TextShape"><tspan class="TextParagraph" font-family="Liberation Sans, sans-serif" font-size="353px" font-weight="400"><tspan class="TextPosition" x="3302" y="8739"><tspan fill="rgb(0,0,0)" stroke="none">20</tspan></tspan></tspan></text>
 <text class="TextShape"><tspan class="TextParagraph" font-family="Liberation Sans, sans-serif" font-size="353px" font-weight="400"><tspan class="TextPosition" x="4576" y="8739"><tspan fill="rgb(0,0,0)" stroke="none">30</tspan></tspan></tspan></text>
 <text class="TextShape"><tspan class="TextParagraph" font-family="Liberation Sans, sans-serif" font-size="353px" font-weight="400"><tspan class="TextPosition" x="5849" y="8739"><tspan fill="rgb(0,0,0)" stroke="none">40</tspan></tspan></tspan></text>
 <text class="TextShape"><tspan class="TextParagraph" font-family="Liberation Sans, sans-serif" font-size="353px" font-weight="400"><tspan class="TextPosition" x="7123" y="8739"><tspan fill="rgb(0,0,0)" stroke="none">50</tspan></tspan></tspan></text>
 <text class="TextShape"><tspan class="TextParagraph" font-family="Liberation Sans, sans-serif" font-size="353px" font-weight="400"><tspan class="TextPosition" x="8396" y="8739"><tspan fill="rgb(0,0,0)" stroke="none">60</tspan></tspan></tspan></text>
 <text class="TextShape"><tspan class="TextParagraph" font-family="Liberation Sans, sans-serif" font-size="353px" font-weight="400"><tspan class="TextPosition" x="9670" y="8739"><tspan fill="rgb(0,0,0)" stroke="none">70</tspan></tspan></tspan></text>
 <text class="TextShape"><tspan class="TextParagraph" font-family="Liberation Sans, sans-serif" font-size="353px" font-weight="400"><tspan class="TextPosition" x="10943" y="8739"><tspan fill="rgb(0,0,0)" stroke="none">80</tspan></tspan></tspan></text>
 <text class="TextShape"><tspan class="TextParagraph" font-family="Liberation Sans, sans-serif" font-size="353px" font-weight="400"><tspan class="TextPosition" x="12217" y="8739"><tspan fill="rgb(0,0,0)" stroke="none">90</tspan></tspan></tspan></text>
 <text class="TextShape"><tspan class="TextParagraph" font-family="Liberation Sans, sans-serif" font-size="353px" font-weight="400"><tspan class="TextPosition" x="506" y="8292"><tspan fill="rgb(0,0,0)" stroke="none">0</tspan></tspan></tspan></text>
 <text class="TextShape"><tspan class="TextParagraph" font-family="Liberation Sans, sans-serif" font-size="353px" font-weight="400"><tspan class="TextPosition" x="321" y="6993"><tspan fill="rgb(0,0,0)" stroke="none">20</tspan></tspan></tspan></text>
 <text class="TextShape"><tspan class="TextParagraph" font-family="Liberation Sans, sans-serif" font-size="353px" font-weight="400"><tspan class="TextPosition" x="321" y="5694"><tspan fill="rgb(0,0,0)" stroke="none">40</tspan></tspan></tspan></text>
 <text class="TextShape"><tspan class="TextParagraph" font-family="Liberation Sans, sans-serif" font-size="353px" font-weight="400"><tspan class="TextPosition" x="321" y="4395"><tspan fill="rgb(0,0,0)" stroke="none">60</tspan></tspan></tspan></text>
 <text class="TextShape"><tspan class="TextParagraph" font-family="Liberation Sans, sans-serif" font-size="353px" font-weight="400"><tspan class="TextPosition" x="321" y="3096"><tspan fill="rgb(0,0,0)" stroke="none">80</tspan></tspan></tspan></text>
 <text class="TextShape"><tspan class="TextParagraph" font-family="Liberation Sans, sans-serif" font-size="353px" font-weight="400"><tspan class="TextPosition" x="135" y="1797"><tspan fill="rgb(0,0,0)" stroke="none">100</tspan></tspan></tspan></text>
 <text class="TextShape"><tspan class="TextParagraph" font-family="Liberation Sans, sans-serif" font-size="353px" font-weight="400"><tspan class="TextPosition" x="135" y="498"><tspan fill="rgb(0,0,0)" stroke="none">120</tspan></tspan></tspan></text>
 <path fill="none" stroke="rgb(0,69,134)" stroke-width="80" stroke-linejoin="round" d="M 13210,3752 L 14010,3752"/>
 <path fill="rgb(0,69,134)" stroke="none" d="M 13504,3647 L 13504,3858 13715,3858 13715,3647 13504,3647 Z"/>
 <path fill="none" stroke="rgb(0,69,134)" stroke-linejoin="round" d="M 13504,3647 L 13504,3858 13715,3858 13715,3647 13504,3647 Z"/>
 <path fill="none" stroke="rgb(255,66,14)" stroke-width="80" stroke-linejoin="round" d="M 13210,4250 L 14010,4250"/>
 <path fill="rgb(255,66,14)" stroke="none" d="M 13504,4250 L 13610,4356 13715,4250 13610,4145 13504,4250 Z"/>
 <path fill="none" stroke="rgb(255,66,14)" stroke-linejoin="round" d="M 13504,4250 L 13610,4356 13715,4250 13610,4145 13504,4250 Z"/>
 <path fill="none" stroke="rgb(255,211,32)" stroke-width="80" stroke-linejoin="round" d="M 13210,4747 L 14010,4747"/>
 <path fill="rgb(255,211,32)" stroke="none" d="M 13504,4642 L 13610,4853 13715,4642 13504,4642 Z"/>
 <path fill="none" stroke="rgb(255,211,32)" stroke-linejoin="round" d="M 13504,4642 L 13610,4853 13715,4642 13504,4642 Z"/>
 <path fill="none" stroke="rgb(87,157,28)" stroke-width="80" stroke-linejoin="round" d="M 13210,5245 L 14010,5245"/>
 <path fill="rgb(87,157,28)" stroke="none" d="M 13504,5351 L 13715,5351 13610,5140 13504,5351 Z"/>
 <path fill="none" stroke="rgb(87,157,28)" stroke-linejoin="round" d="M 13504,5351 L 13715,5351 13610,5140 13504,5351 Z"/>
 <text class="TextShape"><tspan class="TextParagraph" font-family="Liberation Sans, sans-serif" font-size="353px" font-weight="400"><tspan class="TextPosition" x="14110" y="3872"><tspan fill="rgb(0,0,0)" stroke="none">between</tspan></tspan></tspan></text>
 <text class="TextShape"><tspan class="TextParagraph" font-family="Liberation Sans, sans-serif" font-size="353px" font-weight="400"><tspan class="TextPosition" x="14110" y="4370"><tspan fill="rgb(0,0,0)" stroke="none">closeness</tspan></tspan></tspan></text>
 <text class="TextShape"><tspan class="TextParagraph" font-family="Liberation Sans, sans-serif" font-size="353px" font-weight="400"><tspan class="TextPosition" x="14110" y="4867"><tspan fill="rgb(0,0,0)" stroke="none">page</tspan></tspan></tspan></text>
 <text class="TextShape"><tspan class="TextParagraph" font-family="Liberation Sans, sans-serif" font-size="353px" font-weight="400"><tspan class="TextPosition" x="14110" y="5365"><tspan fill="rgb(0,0,0)" stroke="none">random</tspan></tspan></tspan></text>
</svg>