<?xml version="1.0" encoding="UTF-8"?>
<!DOCTYPE svg PUBLIC "-//W3C//DTD SVG 1.1//EN" "http://www.w3.org/Graphics/SVG/1.1/DTD/svg11.dtd">
<svg width="160mm" height="90mm" viewBox="0 0 16000 9000" version="1.1" xmlns="http://www.w3.org/2000/svg" stroke-width="28.222" stroke-linejoin="round" xml:space="preserve">
 <path fill="rgb(255,255,255)" stroke="none" d="M 8000,8999 L 0,8999 0,0 15999,0 15999,8999 8000,8999 Z"/>
 <path fill="none" stroke="rgb(179,179,179)" stroke-linejoin="round" d="M 6764,8172 L 941,8172 941,379 12587,379 12587,8172 6764,8172 Z"/>
 <path fill="none" stroke="rgb(179,179,179)" stroke-linejoin="round" d="M 12587,8171 L 941,8171"/>
 <path fill="none" stroke="rgb(179,179,179)" stroke-linejoin="round" d="M 12587,6872 L 941,6872"/>
 <path fill="none" stroke="rgb(179,179,179)" stroke-linejoin="round" d="M 12587,5573 L 941,5573"/>
 <path fill="none" stroke="rgb(179,179,179)" stroke-linejoin="round" d="M 12587,4275 L 941,4275"/>
 <path fill="none" stroke="rgb(179,179,179)" stroke-linejoin="round" d="M 12587,2976 L 941,2976"/>
 <path fill="none" stroke="rgb(179,179,179)" stroke-linejoin="round" d="M 12587,1677 L 941,1677"/>
 <path fill="none" stroke="rgb(179,179,179)" stroke-linejoin="round" d="M 12587,378 L 941,378"/>
 <path fill="none" stroke="rgb(179,179,179)" stroke-linejoin="round" d="M 941,8321 L 941,8171"/>
 <path fill="none" stroke="rgb(179,179,179)" stroke-linejoin="round" d="M 941,8321 L 941,8171"/>
 <path fill="none" stroke="rgb(179,179,179)" stroke-linejoin="round" d="M 2105,8321 L 2105,8171"/>
 <path fill="none" stroke="rgb(179,179,179)" stroke-linejoin="round" d="M 2105,8321 L 2105,8171"/>
 <path fill="none" stroke="rgb(179,179,179)" stroke-linejoin="round" d="M 3270,8321 L 3270,8171"/>
 <path fill="none" stroke="rgb(179,179,179)" stroke-linejoin="round" d="M 3270,8321 L 3270,8171"/>
 <path fill="none" stroke="rgb(179,179,179)" stroke-linejoin="round" d="M 4435,8321 L 4435,8171"/>
 <path fill="none" stroke="rgb(179,179,179)" stroke-linejoin="round" d="M 4435,8321 L 4435,8171"/>
 <path fill="none" stroke="rgb(179,179,179)" stroke-linejoin="round" d="M 5599,8321 L 5599,8171"/>
 <path fill="none" stroke="rgb(179,179,179)" stroke-linejoin="round" d="M 5599,8321 L 5599,8171"/>
 <path fill="none" stroke="rgb(179,179,179)" stroke-linejoin="round" d="M 6764,8321 L 6764,8171"/>
 <path fill="none" stroke="rgb(179,179,179)" stroke-linejoin="round" d="M 6764,8321 L 6764,8171"/>
 <path fill="none" stroke="rgb(179,179,179)" stroke-linejoin="round" d="M 7929,8321 L 7929,8171"/>
 <path fill="none" stroke="rgb(179,179,179)" stroke-linejoin="round" d="M 7929,8321 L 7929,8171"/>
 <path fill="none" stroke="rgb(179,179,179)" stroke-linejoin="round" d="M 9092,8321 L 9092,8171"/>
 <path fill="none" stroke="rgb(179,179,179)" stroke-linejoin="round" d="M 9092,8321 L 9092,8171"/>
 <path fill="none" stroke="rgb(179,179,179)" stroke-linejoin="round" d="M 10257,8321 L 10257,8171"/>
 <path fill="none" stroke="rgb(179,179,179)" stroke-linejoin="round" d="M 10257,8321 L 10257,8171"/>
 <path fill="none" stroke="rgb(179,179,179)" stroke-linejoin="round" d="M 11422,8321 L 11422,8171"/>
 <path fill="none" stroke="rgb(179,179,179)" stroke-linejoin="round" d="M 11422,8321 L 11422,8171"/>
 <path fill="none" stroke="rgb(179,179,179)" stroke-linejoin="round" d="M 12587,8321 L 12587,8171"/>
 <path fill="none" stroke="rgb(179,179,179)" stroke-linejoin="round" d="M 12587,8321 L 12587,8171"/>
 <path fill="none" stroke="rgb(179,179,179)" stroke-linejoin="round" d="M 941,8171 L 12587,8171"/>
 <path fill="none" stroke="rgb(179,179,179)" stroke-linejoin="round" d="M 791,8171 L 941,8171"/>
 <path fill="none" stroke="rgb(179,179,179)" stroke-linejoin="round" d="M 791,8171 L 941,8171"/>
 <path fill="none" stroke="rgb(179,179,179)" stroke-linejoin="round" d="M 791,6872 L 941,6872"/>
 <path fill="none" stroke="rgb(179,179,179)" stroke-linejoin="round" d="M 791,6872 L 941,6872"/>
 <path fill="none" stroke="rgb(179,179,179)" stroke-linejoin="round" d="M 791,5573 L 941,5573"/>
 <path fill="none" stroke="rgb(179,179,179)" stroke-linejoin="round" d="M 791,5573 L 941,5573"/>
 <path fill="none" stroke="rgb(179,179,179)" stroke-linejoin="round" d="M 791,4275 L 941,4275"/>
 <path fill="none" stroke="rgb(179,179,179)" stroke-linejoin="round" d="M 791,4275 L 941,4275"/>
 <path fill="none" stroke="rgb(179,179,179)" stroke-linejoin="round" d="M 791,2976 L 941,2976"/>
 <path fill="none" stroke="rgb(179,179,179)" stroke-linejoin="round" d="M 791,2976 L 941,2976"/>
 <path fill="none" stroke="rgb(179,179,179)" stroke-linejoin="round" d="M 791,1677 L 941,1677"/>
 <path fill="none" stroke="rgb(179,179,179)" stroke-linejoin="round" d="M 791,1677 L 941,1677"/>
 <path fill="none" stroke="rgb(179,179,179)" stroke-linejoin="round" d="M 791,378 L 941,378"/>
 <path fill="none" stroke="rgb(179,179,179)" stroke-linejoin="round" d="M 791,378 L 941,378"/>
 <path fill="none" stroke="rgb(179,179,179)" stroke-linejoin="round" d="M 941,8171 L 941,378"/>
 <path fill="none" stroke="rgb(87,157,28)" stroke-width="80" stroke-linejoin="round" d="M 941,8171 L 4435,6842 7929,4100 11422,840"/>
 <path fill="rgb(87,157,28)" stroke="none" d="M 816,8296 L 1066,8296 941,8046 816,8296 Z"/>
 <path fill="none" stroke="rgb(87,157,28)" stroke-linejoin="round" d="M 816,8296 L 1066,8296 941,8046 816,8296 Z"/>
 <path fill="rgb(87,157,28)" stroke="none" d="M 4310,6967 L 4560,6967 4435,6717 4310,6967 Z"/>
 <path fill="none" stroke="rgb(87,157,28)" stroke-linejoin="round" d="M 4310,6967 L 4560,6967 4435,6717 4310,6967 Z"/>
 <path fill="rgb(87,157,28)" stroke="none" d="M 7804,4225 L 8053,4225 7929,3975 7804,4225 Z"/>
 <path fill="none" stroke="rgb(87,157,28)" stroke-linejoin="round" d="M 7804,4225 L 8053,4225 7929,3975 7804,4225 Z"/>
 <path fill="rgb(87,157,28)" stroke="none" d="M 11297,965 L 11547,965 11422,715 11297,965 Z"/>
 <path fill="none" stroke="rgb(87,157,28)" stroke-linejoin="round" d="M 11297,965 L 11547,965 11422,715 11297,965 Z"/>
 <path fill="none" stroke="rgb(255,211,32)" stroke-width="80" stroke-linejoin="round" d="M 941,8171 L 4435,7359 7929,5533 11422,1020"/>
 <path fill="rgb(255,211,32)" stroke="none" d="M 816,8046 L 941,8296 1066,8046 816,8046 Z"/>
 <path fill="none" stroke="rgb(255,211,32)" stroke-linejoin="round" d="M 816,8046 L 941,8296 1066,8046 816,8046 Z"/>
 <path fill="rgb(255,211,32)" stroke="none" d="M 4310,7234 L 4435,7484 4560,7234 4310,7234 Z"/>
 <path fill="none" stroke="rgb(255,211,32)" stroke-linejoin="round" d="M 4310,7234 L 4435,7484 4560,7234 4310,7234 Z"/>
 <path fill="rgb(255,211,32)" stroke="none" d="M 7804,5408 L 7929,5658 8053,5408 7804,5408 Z"/>
 <path fill="none" stroke="rgb(255,211,32)" stroke-linejoin="round" d="M 7804,5408 L 7929,5658 8053,5408 7804,5408 Z"/>
 <path fill="rgb(255,211,32)" stroke="none" d="M 11297,895 L 11422,1145 11547,895 11297,895 Z"/>
 <path fill="none" stroke="rgb(255,211,32)" stroke-linejoin="round" d="M 11297,895 L 11422,1145 11547,895 11297,895 Z"/>
 <path fill="none" stroke="rgb(255,66,14)" stroke-width="80" stroke-linejoin="round" d="M 941,8171 L 4435,7226 7929,4114 11422,823"/>
 <path fill="rgb(255,66,14)" stroke="none" d="M 816,8171 L 941,8296 1066,8171 941,8046 816,8171 Z"/>
 <path fill="none" stroke="rgb(255,66,14)" stroke-linejoin="round" d="M 816,8171 L 941,8296 1066,8171 941,8046 816,8171 Z"/>
 <path fill="rgb(255,66,14)" stroke="none" d="M 4310,7226 L 4435,7351 4560,7226 4435,7101 4310,7226 Z"/>
 <path fill="none" stroke="rgb(255,66,14)" stroke-linejoin="round" d="M 4310,7226 L 4435,7351 4560,7226 4435,7101 4310,7226 Z"/>
 <path fill="rgb(255,66,14)" stroke="none" d="M 7804,4114 L 7929,4239 8053,4114 7929,3989 7804,4114 Z"/>
 <path fill="none" stroke="rgb(255,66,14)" stroke-linejoin="round" d="M 7804,4114 L 7929,4239 8053,4114 7929,3989 7804,4114 Z"/>
 <path fill="rgb(255,66,14)" stroke="none" d="M 11297,823 L 11422,948 11547,823 11422,698 11297,823 Z"/>
 <path fill="none" stroke="rgb(255,66,14)" stroke-linejoin="round" d="M 11297,823 L 11422,948 11547,823 11422,698 11297,823 Z"/>
 <path fill="none" stroke="rgb(0,69,134)" stroke-width="80" stroke-linejoin="round" d="M 941,8171 L 4435,7187 7929,5599 11422,1032"/>
 <path fill="rgb(0,69,134)" stroke="none" d="M 816,8046 L 816,8296 1066,8296 1066,8046 816,8046 Z"/>
 <path fill="none" stroke="rgb(0,69,134)" stroke-linejoin="round" d="M 816,8046 L 816,8296 1066,8296 1066,8046 816,8046 Z"/>
 <path fill="rgb(0,69,134)" stroke="none" d="M 4310,7062 L 4310,7312 4560,7312 4560,7062 4310,7062 Z"/>
 <path fill="none" stroke="rgb(0,69,134)" stroke-linejoin="round" d="M 4310,7062 L 4310,7312 4560,7312 4560,7062 4310,7062 Z"/>
 <path fill="rgb(0,69,134)" stroke="none" d="M 7804,5474 L 7804,5724 8053,5724 8053,5474 7804,5474 Z"/>
 <path fill="none" stroke="rgb(0,69,134)" stroke-linejoin="round" d="M 7804,5474 L 7804,5724 8053,5724 8053,5474 7804,5474 Z"/>
 <path fill="rgb(0,69,134)" stroke="none" d="M 11297,907 L 11297,1157 11547,1157 11547,907 11297,907 Z"/>
 <path fill="none" stroke="rgb(0,69,134)" stroke-linejoin="round" d="M 11297,907 L 11297,1157 11547,1157 11547,907 11297,907 Z"/>
 <text class="TextShape"><tspan class="TextParagraph" font-family="Liberation Sans" font-size="353px" font-weight="400"><tspan class="TextPosition" x="848" y="8739"><tspan fill="rgb(0,0,0)" stroke="none">0</tspan></tspan></tspan></text>
 <text class="TextShape"><tspan class="TextParagraph" font-family="Liberation Sans" font-size="353px" font-weight="400"><tspan class="TextPosition" x="2012" y="8739"><tspan fill="rgb(0,0,0)" stroke="none">1</tspan></tspan></tspan></text>
 <text class="TextShape"><tspan class="TextParagraph" font-family="Liberation Sans" font-size="353px" font-weight="400"><tspan class="TextPosition" x="3177" y="8739"><tspan fill="rgb(0,0,0)" stroke="none">2</tspan></tspan></tspan></text>
 <text class="TextShape"><tspan class="TextParagraph" font-family="Liberation Sans" font-size="353px" font-weight="400"><tspan class="TextPosition" x="4342" y="8739"><tspan fill="rgb(0,0,0)" stroke="none">3</tspan></tspan></tspan></text>
 <text class="TextShape"><tspan class="TextParagraph" font-family="Liberation Sans" font-size="353px" font-weight="400"><tspan class="TextPosition" x="5506" y="8739"><tspan fill="rgb(0,0,0)" stroke="none">4</tspan></tspan></tspan></text>
 <text class="TextShape"><tspan class="TextParagraph" font-family="Liberation Sans" font-size="353px" font-weight="400"><tspan class="TextPosition" x="6671" y="8739"><tspan fill="rgb(0,0,0)" stroke="none">5</tspan></tspan></tspan></text>
 <text class="TextShape"><tspan class="TextParagraph" font-family="Liberation Sans" font-size="353px" font-weight="400"><tspan class="TextPosition" x="7836" y="8739"><tspan fill="rgb(0,0,0)" stroke="none">6</tspan></tspan></tspan></text>
 <text class="TextShape"><tspan class="TextParagraph" font-family="Liberation Sans" font-size="353px" font-weight="400"><tspan class="TextPosition" x="9000" y="8739"><tspan fill="rgb(0,0,0)" stroke="none">7</tspan></tspan></tspan></text>
 <text class="TextShape"><tspan class="TextParagraph" font-family="Liberation Sans" font-size="353px" font-weight="400"><tspan class="TextPosition" x="10165" y="8739"><tspan fill="rgb(0,0,0)" stroke="none">8</tspan></tspan></tspan></text>
 <text class="TextShape"><tspan class="TextParagraph" font-family="Liberation Sans" font-size="353px" font-weight="400"><tspan class="TextPosition" x="11330" y="8739"><tspan fill="rgb(0,0,0)" stroke="none">9</tspan></tspan></tspan></text>
 <text class="TextShape"><tspan class="TextParagraph" font-family="Liberation Sans" font-size="353px" font-weight="400"><tspan class="TextPosition" x="12403" y="8739"><tspan fill="rgb(0,0,0)" stroke="none">10</tspan></tspan></tspan></text>
 <text class="TextShape"><tspan class="TextParagraph" font-family="Liberation Sans" font-size="353px" font-weight="400"><tspan class="TextPosition" x="506" y="8292"><tspan fill="rgb(0,0,0)" stroke="none">0</tspan></tspan></tspan></text>
 <text class="TextShape"><tspan class="TextParagraph" font-family="Liberation Sans" font-size="353px" font-weight="400"><tspan class="TextPosition" x="321" y="6993"><tspan fill="rgb(0,0,0)" stroke="none">10</tspan></tspan></tspan></text>
 <text class="TextShape"><tspan class="TextParagraph" font-family="Liberation Sans" font-size="353px" font-weight="400"><tspan class="TextPosition" x="321" y="5694"><tspan fill="rgb(0,0,0)" stroke="none">20</tspan></tspan></tspan></text>
 <text class="TextShape"><tspan class="TextParagraph" font-family="Liberation Sans" font-size="353px" font-weight="400"><tspan class="TextPosition" x="321" y="4395"><tspan fill="rgb(0,0,0)" stroke="none">30</tspan></tspan></tspan></text>
 <text class="TextShape"><tspan class="TextParagraph" font-family="Liberation Sans" font-size="353px" font-weight="400"><tspan class="TextPosition" x="321" y="3096"><tspan fill="rgb(0,0,0)" stroke="none">40</tspan></tspan></tspan></text>
 <text class="TextShape"><tspan class="TextParagraph" font-family="Liberation Sans" font-size="353px" font-weight="400"><tspan class="TextPosition" x="321" y="1797"><tspan fill="rgb(0,0,0)" stroke="none">50</tspan></tspan></tspan></text>
 <text class="TextShape"><tspan class="TextParagraph" font-family="Liberation Sans" font-size="353px" font-weight="400"><tspan class="TextPosition" x="321" y="498"><tspan fill="rgb(0,0,0)" stroke="none">60</tspan></tspan></tspan></text>
 <path fill="none" stroke="rgb(0,69,134)" stroke-width="80" stroke-linejoin="round" d="M 13210,3752 L 14010,3752"/>
 <path fill="rgb(0,69,134)" stroke="none" d="M 13504,3647 L 13504,3858 13715,3858 13715,3647 13504,3647 Z"/>
 <path fill="none" stroke="rgb(0,69,134)" stroke-linejoin="round" d="M 13504,3647 L 13504,3858 13715,3858 13715,3647 13504,3647 Z"/>
 <path fill="none" stroke="rgb(255,66,14)" stroke-width="80" stroke-linejoin="round" d="M 13210,4250 L 14010,4250"/>
 <path fill="rgb(255,66,14)" stroke="none" d="M 13504,4250 L 13610,4356 13715,4250 13610,4145 13504,4250 Z"/>
 <path fill="none" stroke="rgb(255,66,14)" stroke-linejoin="round" d="M 13504,4250 L 13610,4356 13715,4250 13610,4145 13504,4250 Z"/>
 <path fill="none" stroke="rgb(255,211,32)" stroke-width="80" stroke-linejoin="round" d="M 13210,4747 L 14010,4747"/>
 <path fill="rgb(255,211,32)" stroke="none" d="M 13504,4642 L 13610,4853 13715,4642 13504,4642 Z"/>
 <path fill="none" stroke="rgb(255,211,32)" stroke-linejoin="round" d="M 13504,4642 L 13610,4853 13715,4642 13504,4642 Z"/>
 <path fill="none" stroke="rgb(87,157,28)" stroke-width="80" stroke-linejoin="round" d="M 13210,5245 L 14010,5245"/>
 <path fill="rgb(87,157,28)" stroke="none" d="M 13504,5351 L 13715,5351 13610,5140 13504,5351 Z"/>
 <path fill="none" stroke="rgb(87,157,28)" stroke-linejoin="round" d="M 13504,5351 L 13715,5351 13610,5140 13504,5351 Z"/>
 <text class="TextShape"><tspan class="TextParagraph" font-family="Liberation Sans" font-size="353px" font-weight="400"><tspan class="TextPosition" x="14110" y="3872"><tspan fill="rgb(0,0,0)" stroke="none">between</tspan></tspan></tspan></text>
 <text class="TextShape"><tspan class="TextParagraph" font-family="Liberation Sans" font-size="353px" font-weight="400"><tspan class="TextPosition" x="14110" y="4370"><tspan fill="rgb(0,0,0)" stroke="none">closeness</tspan></tspan></tspan></text>
 <text class="TextShape"><tspan class="TextParagraph" font-family="Liberation Sans" font-size="353px" font-weight="400"><tspan class="TextPosition" x="14110" y="4867"><tspan fill="rgb(0,0,0)" stroke="none">page</tspan></tspan></tspan></text>
 <text class="TextShape"><tspan class="TextParagraph" font-family="Liberation Sans" font-size="353px" font-weight="400"><tspan class="TextPosition" x="14110" y="5365"><tspan fill="rgb(0,0,0)" stroke="none">random</tspan></tspan></tspan></text>
</svg>