<?xml version="1.0" encoding="UTF-8"?>
<!DOCTYPE svg PUBLIC "-//W3C//DTD SVG 1.1//EN" "http://www.w3.org/Graphics/SVG/1.1/DTD/svg11.dtd">
<svg width="160mm" height="90mm" viewBox="0 0 16000 9000" version="1.1" xmlns="http://www.w3.org/2000/svg" stroke-width="28.222" stroke-linejoin="round" xml:space="preserve">
 <path fill="rgb(255,255,255)" stroke="none" d="M 8000,8999 L 0,8999 0,0 15999,0 15999,8999 8000,8999 Z"/>
 <path fill="none" stroke="rgb(179,179,179)" stroke-linejoin="round" d="M 6857,8172 L 1312,8172 1312,379 12402,379 12402,8172 6857,8172 Z"/>
 <path fill="none" stroke="rgb(179,179,179)" stroke-linejoin="round" d="M 12402,8171 L 1312,8171"/>
 <path fill="none" stroke="rgb(179,179,179)" stroke-linejoin="round" d="M 12402,7196 L 1312,7196"/>
 <path fill="none" stroke="rgb(179,179,179)" stroke-linejoin="round" d="M 12402,6222 L 1312,6222"/>
 <path fill="none" stroke="rgb(179,179,179)" stroke-linejoin="round" d="M 12402,5248 L 1312,5248"/>
 <path fill="none" stroke="rgb(179,179,179)" stroke-linejoin="round" d="M 12402,4275 L 1312,4275"/>
 <path fill="none" stroke="rgb(179,179,179)" stroke-linejoin="round" d="M 12402,3300 L 1312,3300"/>
 <path fill="none" stroke="rgb(179,179,179)" stroke-linejoin="round" d="M 12402,2326 L 1312,2326"/>
 <path fill="none" stroke="rgb(179,179,179)" stroke-linejoin="round" d="M 12402,1352 L 1312,1352"/>
 <path fill="none" stroke="rgb(179,179,179)" stroke-linejoin="round" d="M 12402,378 L 1312,378"/>
 <path fill="none" stroke="rgb(179,179,179)" stroke-linejoin="round" d="M 1312,8321 L 1312,8171"/>
 <path fill="none" stroke="rgb(179,179,179)" stroke-linejoin="round" d="M 1312,8321 L 1312,8171"/>
 <path fill="none" stroke="rgb(179,179,179)" stroke-linejoin="round" d="M 2421,8321 L 2421,8171"/>
 <path fill="none" stroke="rgb(179,179,179)" stroke-linejoin="round" d="M 2421,8321 L 2421,8171"/>
 <path fill="none" stroke="rgb(179,179,179)" stroke-linejoin="round" d="M 3530,8321 L 3530,8171"/>
 <path fill="none" stroke="rgb(179,179,179)" stroke-linejoin="round" d="M 3530,8321 L 3530,8171"/>
 <path fill="none" stroke="rgb(179,179,179)" stroke-linejoin="round" d="M 4639,8321 L 4639,8171"/>
 <path fill="none" stroke="rgb(179,179,179)" stroke-linejoin="round" d="M 4639,8321 L 4639,8171"/>
 <path fill="none" stroke="rgb(179,179,179)" stroke-linejoin="round" d="M 5748,8321 L 5748,8171"/>
 <path fill="none" stroke="rgb(179,179,179)" stroke-linejoin="round" d="M 5748,8321 L 5748,8171"/>
 <path fill="none" stroke="rgb(179,179,179)" stroke-linejoin="round" d="M 6857,8321 L 6857,8171"/>
 <path fill="none" stroke="rgb(179,179,179)" stroke-linejoin="round" d="M 6857,8321 L 6857,8171"/>
 <path fill="none" stroke="rgb(179,179,179)" stroke-linejoin="round" d="M 7966,8321 L 7966,8171"/>
 <path fill="none" stroke="rgb(179,179,179)" stroke-linejoin="round" d="M 7966,8321 L 7966,8171"/>
 <path fill="none" stroke="rgb(179,179,179)" stroke-linejoin="round" d="M 9074,8321 L 9074,8171"/>
 <path fill="none" stroke="rgb(179,179,179)" stroke-linejoin="round" d="M 9074,8321 L 9074,8171"/>
 <path fill="none" stroke="rgb(179,179,179)" stroke-linejoin="round" d="M 10183,8321 L 10183,8171"/>
 <path fill="none" stroke="rgb(179,179,179)" stroke-linejoin="round" d="M 10183,8321 L 10183,8171"/>
 <path fill="none" stroke="rgb(179,179,179)" stroke-linejoin="round" d="M 11292,8321 L 11292,8171"/>
 <path fill="none" stroke="rgb(179,179,179)" stroke-linejoin="round" d="M 11292,8321 L 11292,8171"/>
 <path fill="none" stroke="rgb(179,179,179)" stroke-linejoin="round" d="M 12402,8321 L 12402,8171"/>
 <path fill="none" stroke="rgb(179,179,179)" stroke-linejoin="round" d="M 12402,8321 L 12402,8171"/>
 <path fill="none" stroke="rgb(179,179,179)" stroke-linejoin="round" d="M 1312,8171 L 12402,8171"/>
 <path fill="none" stroke="rgb(179,179,179)" stroke-linejoin="round" d="M 1162,8171 L 1312,8171"/>
 <path fill="none" stroke="rgb(179,179,179)" stroke-linejoin="round" d="M 1162,8171 L 1312,8171"/>
 <path fill="none" stroke="rgb(179,179,179)" stroke-linejoin="round" d="M 1162,7196 L 1312,7196"/>
 <path fill="none" stroke="rgb(179,179,179)" stroke-linejoin="round" d="M 1162,7196 L 1312,7196"/>
 <path fill="none" stroke="rgb(179,179,179)" stroke-linejoin="round" d="M 1162,6222 L 1312,6222"/>
 <path fill="none" stroke="rgb(179,179,179)" stroke-linejoin="round" d="M 1162,6222 L 1312,6222"/>
 <path fill="none" stroke="rgb(179,179,179)" stroke-linejoin="round" d="M 1162,5248 L 1312,5248"/>
 <path fill="none" stroke="rgb(179,179,179)" stroke-linejoin="round" d="M 1162,5248 L 1312,5248"/>
 <path fill="none" stroke="rgb(179,179,179)" stroke-linejoin="round" d="M 1162,4275 L 1312,4275"/>
 <path fill="none" stroke="rgb(179,179,179)" stroke-linejoin="round" d="M 1162,4275 L 1312,4275"/>
 <path fill="none" stroke="rgb(179,179,179)" stroke-linejoin="round" d="M 1162,3300 L 1312,3300"/>
 <path fill="none" stroke="rgb(179,179,179)" stroke-linejoin="round" d="M 1162,3300 L 1312,3300"/>
 <path fill="none" stroke="rgb(179,179,179)" stroke-linejoin="round" d="M 1162,2326 L 1312,2326"/>
 <path fill="none" stroke="rgb(179,179,179)" stroke-linejoin="round" d="M 1162,2326 L 1312,2326"/>
 <path fill="none" stroke="rgb(179,179,179)" stroke-linejoin="round" d="M 1162,1352 L 1312,1352"/>
 <path fill="none" stroke="rgb(179,179,179)" stroke-linejoin="round" d="M 1162,1352 L 1312,1352"/>
 <path fill="none" stroke="rgb(179,179,179)" stroke-linejoin="round" d="M 1162,378 L 1312,378"/>
 <path fill="none" stroke="rgb(179,179,179)" stroke-linejoin="round" d="M 1162,378 L 1312,378"/>
 <path fill="none" stroke="rgb(179,179,179)" stroke-linejoin="round" d="M 1312,8171 L 1312,378"/>
 <path fill="none" stroke="rgb(87,157,28)" stroke-width="80" stroke-linejoin="round" d="M 1312,5084 L 1478,5065 1644,5046 1811,5026 1977,5005 2143,4982 2310,4957 2476,4930 2642,4900 2809,4867 2975,4829 3142,4788 3308,4743 3474,4692 3641,4636 3807,4575 3973,4507 4140,4434 4306,4353 4472,4264 4639,4168 4805,4064 4972,3953 5138,3835 5304,3711 5471,3583 5637,3450 5803,3315 5970,3177 6136,3038 6302,2898 6469,2759 6635,2621 6802,2484 6968,2351 7134,2221 7301,2095 7467,1975 7633,1861 7800,1753 7966,1654 8131,1563 8298,1480 8464,1406 8631,1338 8797,1277 8963,1223 9130,1175 9296,1133 9462,1096 9629,1063 9795,1035 9961,1011 10128,990 10294,972 10461,957 10627,944 10793,933 10960,923 11126,914 11292,906"/>
 <path fill="rgb(87,157,28)" stroke="none" d="M 1187,5209 L 1437,5209 1312,4959 1187,5209 Z"/>
 <path fill="none" stroke="rgb(87,157,28)" stroke-linejoin="round" d="M 1187,5209 L 1437,5209 1312,4959 1187,5209 Z"/>
 <path fill="rgb(87,157,28)" stroke="none" d="M 4514,4293 L 4764,4293 4639,4043 4514,4293 Z"/>
 <path fill="none" stroke="rgb(87,157,28)" stroke-linejoin="round" d="M 4514,4293 L 4764,4293 4639,4043 4514,4293 Z"/>
 <path fill="rgb(87,157,28)" stroke="none" d="M 7841,1779 L 8090,1779 7966,1529 7841,1779 Z"/>
 <path fill="none" stroke="rgb(87,157,28)" stroke-linejoin="round" d="M 7841,1779 L 8090,1779 7966,1529 7841,1779 Z"/>
 <path fill="rgb(87,157,28)" stroke="none" d="M 11167,1031 L 11417,1031 11292,781 11167,1031 Z"/>
 <path fill="none" stroke="rgb(87,157,28)" stroke-linejoin="round" d="M 11167,1031 L 11417,1031 11292,781 11167,1031 Z"/>
 <path fill="none" stroke="rgb(255,211,32)" stroke-width="80" stroke-linejoin="round" d="M 1312,5136 L 1478,5121 1644,5105 1811,5090 1977,5074 2143,5058 2310,5042 2476,5026 2642,5009 2809,4991 2975,4973 3142,4955 3308,4936 3474,4915 3641,4895 3807,4873 3973,4850 4140,4827 4306,4802 4472,4776 4639,4749 4805,4721 4972,4692 5138,4662 5304,4632 5471,4601 5637,4570 5803,4539 5970,4509 6136,4480 6302,4451 6469,4423 6635,4397 6802,4372 6968,4348 7134,4327 7301,4308 7467,4291 7633,4278 7800,4266 7966,4259 8131,4254 8298,4253 8464,4254 8631,4259 8797,4266 8963,4275 9130,4287 9296,4302 9462,4318 9629,4336 9795,4356 9961,4377 10128,4400 10294,4423 10461,4448 10627,4474 10793,4500 10960,4526 11126,4553 11292,4581"/>
 <path fill="rgb(255,211,32)" stroke="none" d="M 1187,5011 L 1312,5261 1437,5011 1187,5011 Z"/>
 <path fill="none" stroke="rgb(255,211,32)" stroke-linejoin="round" d="M 1187,5011 L 1312,5261 1437,5011 1187,5011 Z"/>
 <path fill="rgb(255,211,32)" stroke="none" d="M 4514,4624 L 4639,4874 4764,4624 4514,4624 Z"/>
 <path fill="none" stroke="rgb(255,211,32)" stroke-linejoin="round" d="M 4514,4624 L 4639,4874 4764,4624 4514,4624 Z"/>
 <path fill="rgb(255,211,32)" stroke="none" d="M 7841,4134 L 7966,4384 8090,4134 7841,4134 Z"/>
 <path fill="none" stroke="rgb(255,211,32)" stroke-linejoin="round" d="M 7841,4134 L 7966,4384 8090,4134 7841,4134 Z"/>
 <path fill="rgb(255,211,32)" stroke="none" d="M 11167,4457 L 11292,4706 11417,4457 11167,4457 Z"/>
 <path fill="none" stroke="rgb(255,211,32)" stroke-linejoin="round" d="M 11167,4457 L 11292,4706 11417,4457 11167,4457 Z"/>
 <path fill="none" stroke="rgb(255,66,14)" stroke-width="80" stroke-linejoin="round" d="M 1312,5136 L 1478,5093 1644,5050 1811,5007 1977,4963 2143,4919 2310,4875 2476,4829 2642,4783 2809,4737 2975,4689 3142,4640 3308,4589 3474,4537 3641,4485 3807,4430 3973,4374 4140,4316 4306,4255 4472,4193 4639,4129 4805,4062 4972,3994 5138,3924 5304,3854 5471,3784 5637,3715 5803,3647 5970,3580 6136,3516 6302,3456 6469,3398 6635,3345 6802,3296 6968,3253 7134,3216 7301,3185 7467,3161 7633,3145 7800,3137 7966,3138 8131,3148 8298,3167 8464,3195 8631,3230 8797,3273 8963,3323 9130,3380 9296,3443 9462,3511 9629,3584 9795,3663 9961,3745 10128,3831 10294,3921 10461,4013 10627,4108 10793,4204 10960,4302 11126,4401 11292,4500"/>
 <path fill="rgb(255,66,14)" stroke="none" d="M 1187,5136 L 1312,5261 1437,5136 1312,5011 1187,5136 Z"/>
 <path fill="none" stroke="rgb(255,66,14)" stroke-linejoin="round" d="M 1187,5136 L 1312,5261 1437,5136 1312,5011 1187,5136 Z"/>
 <path fill="rgb(255,66,14)" stroke="none" d="M 4514,4129 L 4639,4254 4764,4129 4639,4004 4514,4129 Z"/>
 <path fill="none" stroke="rgb(255,66,14)" stroke-linejoin="round" d="M 4514,4129 L 4639,4254 4764,4129 4639,4004 4514,4129 Z"/>
 <path fill="rgb(255,66,14)" stroke="none" d="M 7841,3138 L 7966,3263 8090,3138 7966,3013 7841,3138 Z"/>
 <path fill="none" stroke="rgb(255,66,14)" stroke-linejoin="round" d="M 7841,3138 L 7966,3263 8090,3138 7966,3013 7841,3138 Z"/>
 <path fill="rgb(255,66,14)" stroke="none" d="M 11167,4500 L 11292,4624 11417,4500 11292,4375 11167,4500 Z"/>
 <path fill="none" stroke="rgb(255,66,14)" stroke-linejoin="round" d="M 11167,4500 L 11292,4624 11417,4500 11292,4375 11167,4500 Z"/>
 <path fill="none" stroke="rgb(0,69,134)" stroke-width="80" stroke-linejoin="round" d="M 1312,5085 L 1478,5016 1644,4947 1811,4879 1977,4811 2143,4745 2310,4679 2476,4615 2642,4553 2809,4494 2975,4435 3142,4379 3308,4326 3474,4275 3641,4228 3807,4184 3973,4143 4140,4106 4306,4074 4472,4045 4639,4021 4805,4002 4972,3987 5138,3976 5304,3969 5471,3966 5637,3967 5803,3970 5970,3976 6136,3986 6302,3997 6469,4011 6635,4026 6802,4043 6968,4062 7134,4081 7301,4102 7467,4123 7633,4144 7800,4166 7966,4187 8131,4208 8298,4228 8464,4248 8631,4267 8797,4287 8963,4306 9130,4324 9296,4342 9462,4360 9629,4378 9795,4395 9961,4413 10128,4430 10294,4447 10461,4464 10627,4480 10793,4497 10960,4512 11126,4529 11292,4545"/>
 <path fill="rgb(0,69,134)" stroke="none" d="M 1187,4960 L 1187,5210 1437,5210 1437,4960 1187,4960 Z"/>
 <path fill="none" stroke="rgb(0,69,134)" stroke-linejoin="round" d="M 1187,4960 L 1187,5210 1437,5210 1437,4960 1187,4960 Z"/>
 <path fill="rgb(0,69,134)" stroke="none" d="M 4514,3896 L 4514,4146 4764,4146 4764,3896 4514,3896 Z"/>
 <path fill="none" stroke="rgb(0,69,134)" stroke-linejoin="round" d="M 4514,3896 L 4514,4146 4764,4146 4764,3896 4514,3896 Z"/>
 <path fill="rgb(0,69,134)" stroke="none" d="M 7841,4062 L 7841,4312 8090,4312 8090,4062 7841,4062 Z"/>
 <path fill="none" stroke="rgb(0,69,134)" stroke-linejoin="round" d="M 7841,4062 L 7841,4312 8090,4312 8090,4062 7841,4062 Z"/>
 <path fill="rgb(0,69,134)" stroke="none" d="M 11167,4421 L 11167,4670 11417,4670 11417,4421 11167,4421 Z"/>
 <path fill="none" stroke="rgb(0,69,134)" stroke-linejoin="round" d="M 11167,4421 L 11167,4670 11417,4670 11417,4421 11167,4421 Z"/>
 <text class="TextShape"><tspan class="TextParagraph" font-family="Liberation Sans" font-size="353px" font-weight="400"><tspan class="TextPosition" x="1219" y="8739"><tspan fill="rgb(0,0,0)" stroke="none">0</tspan></tspan></tspan></text>
 <text class="TextShape"><tspan class="TextParagraph" font-family="Liberation Sans" font-size="353px" font-weight="400"><tspan class="TextPosition" x="2328" y="8739"><tspan fill="rgb(0,0,0)" stroke="none">1</tspan></tspan></tspan></text>
 <text class="TextShape"><tspan class="TextParagraph" font-family="Liberation Sans" font-size="353px" font-weight="400"><tspan class="TextPosition" x="3437" y="8739"><tspan fill="rgb(0,0,0)" stroke="none">2</tspan></tspan></tspan></text>
 <text class="TextShape"><tspan class="TextParagraph" font-family="Liberation Sans" font-size="353px" font-weight="400"><tspan class="TextPosition" x="4546" y="8739"><tspan fill="rgb(0,0,0)" stroke="none">3</tspan></tspan></tspan></text>
 <text class="TextShape"><tspan class="TextParagraph" font-family="Liberation Sans" font-size="353px" font-weight="400"><tspan class="TextPosition" x="5655" y="8739"><tspan fill="rgb(0,0,0)" stroke="none">4</tspan></tspan></tspan></text>
 <text class="TextShape"><tspan class="TextParagraph" font-family="Liberation Sans" font-size="353px" font-weight="400"><tspan class="TextPosition" x="6764" y="8739"><tspan fill="rgb(0,0,0)" stroke="none">5</tspan></tspan></tspan></text>
 <text class="TextShape"><tspan class="TextParagraph" font-family="Liberation Sans" font-size="353px" font-weight="400"><tspan class="TextPosition" x="7873" y="8739"><tspan fill="rgb(0,0,0)" stroke="none">6</tspan></tspan></tspan></text>
 <text class="TextShape"><tspan class="TextParagraph" font-family="Liberation Sans" font-size="353px" font-weight="400"><tspan class="TextPosition" x="8982" y="8739"><tspan fill="rgb(0,0,0)" stroke="none">7</tspan></tspan></tspan></text>
 <text class="TextShape"><tspan class="TextParagraph" font-family="Liberation Sans" font-size="353px" font-weight="400"><tspan class="TextPosition" x="10091" y="8739"><tspan fill="rgb(0,0,0)" stroke="none">8</tspan></tspan></tspan></text>
 <text class="TextShape"><tspan class="TextParagraph" font-family="Liberation Sans" font-size="353px" font-weight="400"><tspan class="TextPosition" x="11200" y="8739"><tspan fill="rgb(0,0,0)" stroke="none">9</tspan></tspan></tspan></text>
 <text class="TextShape"><tspan class="TextParagraph" font-family="Liberation Sans" font-size="353px" font-weight="400"><tspan class="TextPosition" x="12218" y="8739"><tspan fill="rgb(0,0,0)" stroke="none">10</tspan></tspan></tspan></text>
 <text class="TextShape"><tspan class="TextParagraph" font-family="Liberation Sans" font-size="353px" font-weight="400"><tspan class="TextPosition" x="877" y="8292"><tspan fill="rgb(0,0,0)" stroke="none">0</tspan></tspan></tspan></text>
 <text class="TextShape"><tspan class="TextParagraph" font-family="Liberation Sans" font-size="353px" font-weight="400"><tspan class="TextPosition" x="321" y="7317"><tspan fill="rgb(0,0,0)" stroke="none">2000</tspan></tspan></tspan></text>
 <text class="TextShape"><tspan class="TextParagraph" font-family="Liberation Sans" font-size="353px" font-weight="400"><tspan class="TextPosition" x="321" y="6343"><tspan fill="rgb(0,0,0)" stroke="none">4000</tspan></tspan></tspan></text>
 <text class="TextShape"><tspan class="TextParagraph" font-family="Liberation Sans" font-size="353px" font-weight="400"><tspan class="TextPosition" x="321" y="5369"><tspan fill="rgb(0,0,0)" stroke="none">6000</tspan></tspan></tspan></text>
 <text class="TextShape"><tspan class="TextParagraph" font-family="Liberation Sans" font-size="353px" font-weight="400"><tspan class="TextPosition" x="321" y="4395"><tspan fill="rgb(0,0,0)" stroke="none">8000</tspan></tspan></tspan></text>
 <text class="TextShape"><tspan class="TextParagraph" font-family="Liberation Sans" font-size="353px" font-weight="400"><tspan class="TextPosition" x="136" y="3420"><tspan fill="rgb(0,0,0)" stroke="none">10000</tspan></tspan></tspan></text>
 <text class="TextShape"><tspan class="TextParagraph" font-family="Liberation Sans" font-size="353px" font-weight="400"><tspan class="TextPosition" x="136" y="2446"><tspan fill="rgb(0,0,0)" stroke="none">12000</tspan></tspan></tspan></text>
 <text class="TextShape"><tspan class="TextParagraph" font-family="Liberation Sans" font-size="353px" font-weight="400"><tspan class="TextPosition" x="136" y="1472"><tspan fill="rgb(0,0,0)" stroke="none">14000</tspan></tspan></tspan></text>
 <text class="TextShape"><tspan class="TextParagraph" font-family="Liberation Sans" font-size="353px" font-weight="400"><tspan class="TextPosition" x="136" y="498"><tspan fill="rgb(0,0,0)" stroke="none">16000</tspan></tspan></tspan></text>
 <path fill="none" stroke="rgb(0,69,134)" stroke-width="80" stroke-linejoin="round" d="M 13210,3752 L 14010,3752"/>
 <path fill="rgb(0,69,134)" stroke="none" d="M 13504,3647 L 13504,3858 13715,3858 13715,3647 13504,3647 Z"/>
 <path fill="none" stroke="rgb(0,69,134)" stroke-linejoin="round" d="M 13504,3647 L 13504,3858 13715,3858 13715,3647 13504,3647 Z"/>
 <path fill="none" stroke="rgb(255,66,14)" stroke-width="80" stroke-linejoin="round" d="M 13210,4250 L 14010,4250"/>
 <path fill="rgb(255,66,14)" stroke="none" d="M 13504,4250 L 13610,4356 13715,4250 13610,4145 13504,4250 Z"/>
 <path fill="none" stroke="rgb(255,66,14)" stroke-linejoin="round" d="M 13504,4250 L 13610,4356 13715,4250 13610,4145 13504,4250 Z"/>
 <path fill="none" stroke="rgb(255,211,32)" stroke-width="80" stroke-linejoin="round" d="M 13210,4747 L 14010,4747"/>
 <path fill="rgb(255,211,32)" stroke="none" d="M 13504,4642 L 13610,4853 13715,4642 13504,4642 Z"/>
 <path fill="none" stroke="rgb(255,211,32)" stroke-linejoin="round" d="M 13504,4642 L 13610,4853 13715,4642 13504,4642 Z"/>
 <path fill="none" stroke="rgb(87,157,28)" stroke-width="80" stroke-linejoin="round" d="M 13210,5245 L 14010,5245"/>
 <path fill="rgb(87,157,28)" stroke="none" d="M 13504,5351 L 13715,5351 13610,5140 13504,5351 Z"/>
 <path fill="none" stroke="rgb(87,157,28)" stroke-linejoin="round" d="M 13504,5351 L 13715,5351 13610,5140 13504,5351 Z"/>
 <text class="TextShape"><tspan class="TextParagraph" font-family="Liberation Sans" font-size="353px" font-weight="400"><tspan class="TextPosition" x="14110" y="3872"><tspan fill="rgb(0,0,0)" stroke="none">between</tspan></tspan></tspan></text>
 <text class="TextShape"><tspan class="TextParagraph" font-family="Liberation Sans" font-size="353px" font-weight="400"><tspan class="TextPosition" x="14110" y="4370"><tspan fill="rgb(0,0,0)" stroke="none">closeness</tspan></tspan></tspan></text>
 <text class="TextShape"><tspan class="TextParagraph" font-family="Liberation Sans" font-size="353px" font-weight="400"><tspan class="TextPosition" x="14110" y="4867"><tspan fill="rgb(0,0,0)" stroke="none">page</tspan></tspan></tspan></text>
 <text class="TextShape"><tspan class="TextParagraph" font-family="Liberation Sans" font-size="353px" font-weight="400"><tspan class="TextPosition" x="14110" y="5365"><tspan fill="rgb(0,0,0)" stroke="none">random</tspan></tspan></tspan></text>
</svg>