<?xml version="1.0" encoding="UTF-8"?>
<!DOCTYPE svg PUBLIC "-//W3C//DTD SVG 1.1//EN" "http://www.w3.org/Graphics/SVG/1.1/DTD/svg11.dtd">
<svg width="160mm" height="90mm" viewBox="0 0 16000 9000" version="1.1" xmlns="http://www.w3.org/2000/svg" stroke-width="28.222" stroke-linejoin="round" xml:space="preserve">
 <path fill="rgb(255,255,255)" stroke="none" d="M 8000,8999 L 0,8999 0,0 15999,0 15999,8999 8000,8999 Z"/>
 <path fill="none" stroke="rgb(179,179,179)" stroke-linejoin="round" d="M 6671,8172 L 941,8172 941,379 12401,379 12401,8172 6671,8172 Z"/>
 <path fill="none" stroke="rgb(179,179,179)" stroke-linejoin="round" d="M 12401,8171 L 941,8171"/>
 <path fill="none" stroke="rgb(179,179,179)" stroke-linejoin="round" d="M 12401,6872 L 941,6872"/>
 <path fill="none" stroke="rgb(179,179,179)" stroke-linejoin="round" d="M 12401,5573 L 941,5573"/>
 <path fill="none" stroke="rgb(179,179,179)" stroke-linejoin="round" d="M 12401,4275 L 941,4275"/>
 <path fill="none" stroke="rgb(179,179,179)" stroke-linejoin="round" d="M 12401,2976 L 941,2976"/>
 <path fill="none" stroke="rgb(179,179,179)" stroke-linejoin="round" d="M 12401,1677 L 941,1677"/>
 <path fill="none" stroke="rgb(179,179,179)" stroke-linejoin="round" d="M 12401,378 L 941,378"/>
 <path fill="none" stroke="rgb(179,179,179)" stroke-linejoin="round" d="M 941,8321 L 941,8171"/>
 <path fill="none" stroke="rgb(179,179,179)" stroke-linejoin="round" d="M 941,8321 L 941,8171"/>
 <path fill="none" stroke="rgb(179,179,179)" stroke-linejoin="round" d="M 2214,8321 L 2214,8171"/>
 <path fill="none" stroke="rgb(179,179,179)" stroke-linejoin="round" d="M 2214,8321 L 2214,8171"/>
 <path fill="none" stroke="rgb(179,179,179)" stroke-linejoin="round" d="M 3487,8321 L 3487,8171"/>
 <path fill="none" stroke="rgb(179,179,179)" stroke-linejoin="round" d="M 3487,8321 L 3487,8171"/>
 <path fill="none" stroke="rgb(179,179,179)" stroke-linejoin="round" d="M 4761,8321 L 4761,8171"/>
 <path fill="none" stroke="rgb(179,179,179)" stroke-linejoin="round" d="M 4761,8321 L 4761,8171"/>
 <path fill="none" stroke="rgb(179,179,179)" stroke-linejoin="round" d="M 6034,8321 L 6034,8171"/>
 <path fill="none" stroke="rgb(179,179,179)" stroke-linejoin="round" d="M 6034,8321 L 6034,8171"/>
 <path fill="none" stroke="rgb(179,179,179)" stroke-linejoin="round" d="M 7308,8321 L 7308,8171"/>
 <path fill="none" stroke="rgb(179,179,179)" stroke-linejoin="round" d="M 7308,8321 L 7308,8171"/>
 <path fill="none" stroke="rgb(179,179,179)" stroke-linejoin="round" d="M 8580,8321 L 8580,8171"/>
 <path fill="none" stroke="rgb(179,179,179)" stroke-linejoin="round" d="M 8580,8321 L 8580,8171"/>
 <path fill="none" stroke="rgb(179,179,179)" stroke-linejoin="round" d="M 9854,8321 L 9854,8171"/>
 <path fill="none" stroke="rgb(179,179,179)" stroke-linejoin="round" d="M 9854,8321 L 9854,8171"/>
 <path fill="none" stroke="rgb(179,179,179)" stroke-linejoin="round" d="M 11127,8321 L 11127,8171"/>
 <path fill="none" stroke="rgb(179,179,179)" stroke-linejoin="round" d="M 11127,8321 L 11127,8171"/>
 <path fill="none" stroke="rgb(179,179,179)" stroke-linejoin="round" d="M 12401,8321 L 12401,8171"/>
 <path fill="none" stroke="rgb(179,179,179)" stroke-linejoin="round" d="M 12401,8321 L 12401,8171"/>
 <path fill="none" stroke="rgb(179,179,179)" stroke-linejoin="round" d="M 941,8171 L 12401,8171"/>
 <path fill="none" stroke="rgb(179,179,179)" stroke-linejoin="round" d="M 791,8171 L 941,8171"/>
 <path fill="none" stroke="rgb(179,179,179)" stroke-linejoin="round" d="M 791,8171 L 941,8171"/>
 <path fill="none" stroke="rgb(179,179,179)" stroke-linejoin="round" d="M 791,6872 L 941,6872"/>
 <path fill="none" stroke="rgb(179,179,179)" stroke-linejoin="round" d="M 791,6872 L 941,6872"/>
 <path fill="none" stroke="rgb(179,179,179)" stroke-linejoin="round" d="M 791,5573 L 941,5573"/>
 <path fill="none" stroke="rgb(179,179,179)" stroke-linejoin="round" d="M 791,5573 L 941,5573"/>
 <path fill="none" stroke="rgb(179,179,179)" stroke-linejoin="round" d="M 791,4275 L 941,4275"/>
 <path fill="none" stroke="rgb(179,179,179)" stroke-linejoin="round" d="M 791,4275 L 941,4275"/>
 <path fill="none" stroke="rgb(179,179,179)" stroke-linejoin="round" d="M 791,2976 L 941,2976"/>
 <path fill="none" stroke="rgb(179,179,179)" stroke-linejoin="round" d="M 791,2976 L 941,2976"/>
 <path fill="none" stroke="rgb(179,179,179)" stroke-linejoin="round" d="M 791,1677 L 941,1677"/>
 <path fill="none" stroke="rgb(179,179,179)" stroke-linejoin="round" d="M 791,1677 L 941,1677"/>
 <path fill="none" stroke="rgb(179,179,179)" stroke-linejoin="round" d="M 791,378 L 941,378"/>
 <path fill="none" stroke="rgb(179,179,179)" stroke-linejoin="round" d="M 791,378 L 941,378"/>
 <path fill="none" stroke="rgb(179,179,179)" stroke-linejoin="round" d="M 941,8171 L 941,378"/>
 <path fill="none" stroke="rgb(87,157,28)" stroke-width="80" stroke-linejoin="round" d="M 941,8171 L 1323,7512 1705,6486 2087,5293 2341,4239 4251,2054 6544,1765 11764,1695"/>
 <path fill="rgb(87,157,28)" stroke="none" d="M 816,8296 L 1066,8296 941,8046 816,8296 Z"/>
 <path fill="none" stroke="rgb(87,157,28)" stroke-linejoin="round" d="M 816,8296 L 1066,8296 941,8046 816,8296 Z"/>
 <path fill="rgb(87,157,28)" stroke="none" d="M 1198,7637 L 1448,7637 1323,7387 1198,7637 Z"/>
 <path fill="none" stroke="rgb(87,157,28)" stroke-linejoin="round" d="M 1198,7637 L 1448,7637 1323,7387 1198,7637 Z"/>
 <path fill="rgb(87,157,28)" stroke="none" d="M 1580,6611 L 1830,6611 1705,6361 1580,6611 Z"/>
 <path fill="none" stroke="rgb(87,157,28)" stroke-linejoin="round" d="M 1580,6611 L 1830,6611 1705,6361 1580,6611 Z"/>
 <path fill="rgb(87,157,28)" stroke="none" d="M 1962,5418 L 2212,5418 2087,5168 1962,5418 Z"/>
 <path fill="none" stroke="rgb(87,157,28)" stroke-linejoin="round" d="M 1962,5418 L 2212,5418 2087,5168 1962,5418 Z"/>
 <path fill="rgb(87,157,28)" stroke="none" d="M 2216,4364 L 2466,4364 2341,4114 2216,4364 Z"/>
 <path fill="none" stroke="rgb(87,157,28)" stroke-linejoin="round" d="M 2216,4364 L 2466,4364 2341,4114 2216,4364 Z"/>
 <path fill="rgb(87,157,28)" stroke="none" d="M 4126,2179 L 4376,2179 4251,1929 4126,2179 Z"/>
 <path fill="none" stroke="rgb(87,157,28)" stroke-linejoin="round" d="M 4126,2179 L 4376,2179 4251,1929 4126,2179 Z"/>
 <path fill="rgb(87,157,28)" stroke="none" d="M 6419,1890 L 6669,1890 6544,1640 6419,1890 Z"/>
 <path fill="none" stroke="rgb(87,157,28)" stroke-linejoin="round" d="M 6419,1890 L 6669,1890 6544,1640 6419,1890 Z"/>
 <path fill="rgb(87,157,28)" stroke="none" d="M 11639,1820 L 11889,1820 11764,1570 11639,1820 Z"/>
 <path fill="none" stroke="rgb(87,157,28)" stroke-linejoin="round" d="M 11639,1820 L 11889,1820 11764,1570 11639,1820 Z"/>
 <path fill="none" stroke="rgb(255,211,32)" stroke-width="80" stroke-linejoin="round" d="M 941,8171 L 1323,7799 1705,7131 2087,5510 2341,3977 4251,2333 6544,1730 11764,1736"/>
 <path fill="rgb(255,211,32)" stroke="none" d="M 816,8046 L 941,8296 1066,8046 816,8046 Z"/>
 <path fill="none" stroke="rgb(255,211,32)" stroke-linejoin="round" d="M 816,8046 L 941,8296 1066,8046 816,8046 Z"/>
 <path fill="rgb(255,211,32)" stroke="none" d="M 1198,7674 L 1323,7924 1448,7674 1198,7674 Z"/>
 <path fill="none" stroke="rgb(255,211,32)" stroke-linejoin="round" d="M 1198,7674 L 1323,7924 1448,7674 1198,7674 Z"/>
 <path fill="rgb(255,211,32)" stroke="none" d="M 1580,7006 L 1705,7256 1830,7006 1580,7006 Z"/>
 <path fill="none" stroke="rgb(255,211,32)" stroke-linejoin="round" d="M 1580,7006 L 1705,7256 1830,7006 1580,7006 Z"/>
 <path fill="rgb(255,211,32)" stroke="none" d="M 1962,5385 L 2087,5635 2212,5385 1962,5385 Z"/>
 <path fill="none" stroke="rgb(255,211,32)" stroke-linejoin="round" d="M 1962,5385 L 2087,5635 2212,5385 1962,5385 Z"/>
 <path fill="rgb(255,211,32)" stroke="none" d="M 2216,3852 L 2341,4102 2466,3852 2216,3852 Z"/>
 <path fill="none" stroke="rgb(255,211,32)" stroke-linejoin="round" d="M 2216,3852 L 2341,4102 2466,3852 2216,3852 Z"/>
 <path fill="rgb(255,211,32)" stroke="none" d="M 4126,2208 L 4251,2458 4376,2208 4126,2208 Z"/>
 <path fill="none" stroke="rgb(255,211,32)" stroke-linejoin="round" d="M 4126,2208 L 4251,2458 4376,2208 4126,2208 Z"/>
 <path fill="rgb(255,211,32)" stroke="none" d="M 6419,1605 L 6544,1855 6669,1605 6419,1605 Z"/>
 <path fill="none" stroke="rgb(255,211,32)" stroke-linejoin="round" d="M 6419,1605 L 6544,1855 6669,1605 6419,1605 Z"/>
 <path fill="rgb(255,211,32)" stroke="none" d="M 11639,1611 L 11764,1861 11889,1611 11639,1611 Z"/>
 <path fill="none" stroke="rgb(255,211,32)" stroke-linejoin="round" d="M 11639,1611 L 11764,1861 11889,1611 11639,1611 Z"/>
 <path fill="none" stroke="rgb(255,66,14)" stroke-width="80" stroke-linejoin="round" d="M 941,8171 L 1323,7753 1705,6615 2087,5475 2341,3979 4251,2413 6544,2367 11764,1725"/>
 <path fill="rgb(255,66,14)" stroke="none" d="M 816,8171 L 941,8296 1066,8171 941,8046 816,8171 Z"/>
 <path fill="none" stroke="rgb(255,66,14)" stroke-linejoin="round" d="M 816,8171 L 941,8296 1066,8171 941,8046 816,8171 Z"/>
 <path fill="rgb(255,66,14)" stroke="none" d="M 1198,7753 L 1323,7878 1448,7753 1323,7628 1198,7753 Z"/>
 <path fill="none" stroke="rgb(255,66,14)" stroke-linejoin="round" d="M 1198,7753 L 1323,7878 1448,7753 1323,7628 1198,7753 Z"/>
 <path fill="rgb(255,66,14)" stroke="none" d="M 1580,6615 L 1705,6740 1830,6615 1705,6490 1580,6615 Z"/>
 <path fill="none" stroke="rgb(255,66,14)" stroke-linejoin="round" d="M 1580,6615 L 1705,6740 1830,6615 1705,6490 1580,6615 Z"/>
 <path fill="rgb(255,66,14)" stroke="none" d="M 1962,5475 L 2087,5600 2212,5475 2087,5350 1962,5475 Z"/>
 <path fill="none" stroke="rgb(255,66,14)" stroke-linejoin="round" d="M 1962,5475 L 2087,5600 2212,5475 2087,5350 1962,5475 Z"/>
 <path fill="rgb(255,66,14)" stroke="none" d="M 2216,3979 L 2341,4104 2466,3979 2341,3854 2216,3979 Z"/>
 <path fill="none" stroke="rgb(255,66,14)" stroke-linejoin="round" d="M 2216,3979 L 2341,4104 2466,3979 2341,3854 2216,3979 Z"/>
 <path fill="rgb(255,66,14)" stroke="none" d="M 4126,2413 L 4251,2538 4376,2413 4251,2288 4126,2413 Z"/>
 <path fill="none" stroke="rgb(255,66,14)" stroke-linejoin="round" d="M 4126,2413 L 4251,2538 4376,2413 4251,2288 4126,2413 Z"/>
 <path fill="rgb(255,66,14)" stroke="none" d="M 6419,2367 L 6544,2492 6669,2367 6544,2242 6419,2367 Z"/>
 <path fill="none" stroke="rgb(255,66,14)" stroke-linejoin="round" d="M 6419,2367 L 6544,2492 6669,2367 6544,2242 6419,2367 Z"/>
 <path fill="rgb(255,66,14)" stroke="none" d="M 11639,1725 L 11764,1850 11889,1725 11764,1600 11639,1725 Z"/>
 <path fill="none" stroke="rgb(255,66,14)" stroke-linejoin="round" d="M 11639,1725 L 11764,1850 11889,1725 11764,1600 11639,1725 Z"/>
 <path fill="none" stroke="rgb(0,69,134)" stroke-width="80" stroke-linejoin="round" d="M 941,8171 L 1323,7756 1705,7148 2087,5552 2341,3998 4251,2408 6544,1743 11764,1709"/>
 <path fill="rgb(0,69,134)" stroke="none" d="M 816,8046 L 816,8296 1066,8296 1066,8046 816,8046 Z"/>
 <path fill="none" stroke="rgb(0,69,134)" stroke-linejoin="round" d="M 816,8046 L 816,8296 1066,8296 1066,8046 816,8046 Z"/>
 <path fill="rgb(0,69,134)" stroke="none" d="M 1198,7631 L 1198,7881 1448,7881 1448,7631 1198,7631 Z"/>
 <path fill="none" stroke="rgb(0,69,134)" stroke-linejoin="round" d="M 1198,7631 L 1198,7881 1448,7881 1448,7631 1198,7631 Z"/>
 <path fill="rgb(0,69,134)" stroke="none" d="M 1580,7023 L 1580,7273 1830,7273 1830,7023 1580,7023 Z"/>
 <path fill="none" stroke="rgb(0,69,134)" stroke-linejoin="round" d="M 1580,7023 L 1580,7273 1830,7273 1830,7023 1580,7023 Z"/>
 <path fill="rgb(0,69,134)" stroke="none" d="M 1962,5427 L 1962,5677 2212,5677 2212,5427 1962,5427 Z"/>
 <path fill="none" stroke="rgb(0,69,134)" stroke-linejoin="round" d="M 1962,5427 L 1962,5677 2212,5677 2212,5427 1962,5427 Z"/>
 <path fill="rgb(0,69,134)" stroke="none" d="M 2216,3873 L 2216,4123 2466,4123 2466,3873 2216,3873 Z"/>
 <path fill="none" stroke="rgb(0,69,134)" stroke-linejoin="round" d="M 2216,3873 L 2216,4123 2466,4123 2466,3873 2216,3873 Z"/>
 <path fill="rgb(0,69,134)" stroke="none" d="M 4126,2283 L 4126,2533 4376,2533 4376,2283 4126,2283 Z"/>
 <path fill="none" stroke="rgb(0,69,134)" stroke-linejoin="round" d="M 4126,2283 L 4126,2533 4376,2533 4376,2283 4126,2283 Z"/>
 <path fill="rgb(0,69,134)" stroke="none" d="M 6419,1618 L 6419,1868 6669,1868 6669,1618 6419,1618 Z"/>
 <path fill="none" stroke="rgb(0,69,134)" stroke-linejoin="round" d="M 6419,1618 L 6419,1868 6669,1868 6669,1618 6419,1618 Z"/>
 <path fill="rgb(0,69,134)" stroke="none" d="M 11639,1584 L 11639,1834 11889,1834 11889,1584 11639,1584 Z"/>
 <path fill="none" stroke="rgb(0,69,134)" stroke-linejoin="round" d="M 11639,1584 L 11639,1834 11889,1834 11889,1584 11639,1584 Z"/>
 <text class="TextShape"><tspan class="TextParagraph" font-family="Liberation Sans" font-size="353px" font-weight="400"><tspan class="TextPosition" x="848" y="8739"><tspan fill="rgb(0,0,0)" stroke="none">0</tspan></tspan></tspan></text>
 <text class="TextShape"><tspan class="TextParagraph" font-family="Liberation Sans" font-size="353px" font-weight="400"><tspan class="TextPosition" x="2029" y="8739"><tspan fill="rgb(0,0,0)" stroke="none">10</tspan></tspan></tspan></text>
 <text class="TextShape"><tspan class="TextParagraph" font-family="Liberation Sans" font-size="353px" font-weight="400"><tspan class="TextPosition" x="3302" y="8739"><tspan fill="rgb(0,0,0)" stroke="none">20</tspan></tspan></tspan></text>
 <text class="TextShape"><tspan class="TextParagraph" font-family="Liberation Sans" font-size="353px" font-weight="400"><tspan class="TextPosition" x="4576" y="8739"><tspan fill="rgb(0,0,0)" stroke="none">30</tspan></tspan></tspan></text>
 <text class="TextShape"><tspan class="TextParagraph" font-family="Liberation Sans" font-size="353px" font-weight="400"><tspan class="TextPosition" x="5849" y="8739"><tspan fill="rgb(0,0,0)" stroke="none">40</tspan></tspan></tspan></text>
 <text class="TextShape"><tspan class="TextParagraph" font-family="Liberation Sans" font-size="353px" font-weight="400"><tspan class="TextPosition" x="7123" y="8739"><tspan fill="rgb(0,0,0)" stroke="none">50</tspan></tspan></tspan></text>
 <text class="TextShape"><tspan class="TextParagraph" font-family="Liberation Sans" font-size="353px" font-weight="400"><tspan class="TextPosition" x="8396" y="8739"><tspan fill="rgb(0,0,0)" stroke="none">60</tspan></tspan></tspan></text>
 <text class="TextShape"><tspan class="TextParagraph" font-family="Liberation Sans" font-size="353px" font-weight="400"><tspan class="TextPosition" x="9670" y="8739"><tspan fill="rgb(0,0,0)" stroke="none">70</tspan></tspan></tspan></text>
 <text class="TextShape"><tspan class="TextParagraph" font-family="Liberation Sans" font-size="353px" font-weight="400"><tspan class="TextPosition" x="10943" y="8739"><tspan fill="rgb(0,0,0)" stroke="none">80</tspan></tspan></tspan></text>
 <text class="TextShape"><tspan class="TextParagraph" font-family="Liberation Sans" font-size="353px" font-weight="400"><tspan class="TextPosition" x="12217" y="8739"><tspan fill="rgb(0,0,0)" stroke="none">90</tspan></tspan></tspan></text>
 <text class="TextShape"><tspan class="TextParagraph" font-family="Liberation Sans" font-size="353px" font-weight="400"><tspan class="TextPosition" x="506" y="8292"><tspan fill="rgb(0,0,0)" stroke="none">0</tspan></tspan></tspan></text>
 <text class="TextShape"><tspan class="TextParagraph" font-family="Liberation Sans" font-size="353px" font-weight="400"><tspan class="TextPosition" x="321" y="6993"><tspan fill="rgb(0,0,0)" stroke="none">20</tspan></tspan></tspan></text>
 <text class="TextShape"><tspan class="TextParagraph" font-family="Liberation Sans" font-size="353px" font-weight="400"><tspan class="TextPosition" x="321" y="5694"><tspan fill="rgb(0,0,0)" stroke="none">40</tspan></tspan></tspan></text>
 <text class="TextShape"><tspan class="TextParagraph" font-family="Liberation Sans" font-size="353px" font-weight="400"><tspan class="TextPosition" x="321" y="4395"><tspan fill="rgb(0,0,0)" stroke="none">60</tspan></tspan></tspan></text>
 <text class="TextShape"><tspan class="TextParagraph" font-family="Liberation Sans" font-size="353px" font-weight="400"><tspan class="TextPosition" x="321" y="3096"><tspan fill="rgb(0,0,0)" stroke="none">80</tspan></tspan></tspan></text>
 <text class="TextShape"><tspan class="TextParagraph" font-family="Liberation Sans" font-size="353px" font-weight="400"><tspan class="TextPosition" x="135" y="1797"><tspan fill="rgb(0,0,0)" stroke="none">100</tspan></tspan></tspan></text>
 <text class="TextShape"><tspan class="TextParagraph" font-family="Liberation Sans" font-size="353px" font-weight="400"><tspan class="TextPosition" x="135" y="498"><tspan fill="rgb(0,0,0)" stroke="none">120</tspan></tspan></tspan></text>
 <path fill="none" stroke="rgb(0,69,134)" stroke-width="80" stroke-linejoin="round" d="M 13210,3752 L 14010,3752"/>
 <path fill="rgb(0,69,134)" stroke="none" d="M 13504,3647 L 13504,3858 13715,3858 13715,3647 13504,3647 Z"/>
 <path fill="none" stroke="rgb(0,69,134)" stroke-linejoin="round" d="M 13504,3647 L 13504,3858 13715,3858 13715,3647 13504,3647 Z"/>
 <path fill="none" stroke="rgb(255,66,14)" stroke-width="80" stroke-linejoin="round" d="M 13210,4250 L 14010,4250"/>
 <path fill="rgb(255,66,14)" stroke="none" d="M 13504,4250 L 13610,4356 13715,4250 13610,4145 13504,4250 Z"/>
 <path fill="none" stroke="rgb(255,66,14)" stroke-linejoin="round" d="M 13504,4250 L 13610,4356 13715,4250 13610,4145 13504,4250 Z"/>
 <path fill="none" stroke="rgb(255,211,32)" stroke-width="80" stroke-linejoin="round" d="M 13210,4747 L 14010,4747"/>
 <path fill="rgb(255,211,32)" stroke="none" d="M 13504,4642 L 13610,4853 13715,4642 13504,4642 Z"/>
 <path fill="none" stroke="rgb(255,211,32)" stroke-linejoin="round" d="M 13504,4642 L 13610,4853 13715,4642 13504,4642 Z"/>
 <path fill="none" stroke="rgb(87,157,28)" stroke-width="80" stroke-linejoin="round" d="M 13210,5245 L 14010,5245"/>
 <path fill="rgb(87,157,28)" stroke="none" d="M 13504,5351 L 13715,5351 13610,5140 13504,5351 Z"/>
 <path fill="none" stroke="rgb(87,157,28)" stroke-linejoin="round" d="M 13504,5351 L 13715,5351 13610,5140 13504,5351 Z"/>
 <text class="TextShape"><tspan class="TextParagraph" font-family="Liberation Sans" font-size="353px" font-weight="400"><tspan class="TextPosition" x="14110" y="3872"><tspan fill="rgb(0,0,0)" stroke="none">between</tspan></tspan></tspan></text>
 <text class="TextShape"><tspan class="TextParagraph" font-family="Liberation Sans" font-size="353px" font-weight="400"><tspan class="TextPosition" x="14110" y="4370"><tspan fill="rgb(0,0,0)" stroke="none">closeness</tspan></tspan></tspan></text>
 <text class="TextShape"><tspan class="TextParagraph" font-family="Liberation Sans" font-size="353px" font-weight="400"><tspan class="TextPosition" x="14110" y="4867"><tspan fill="rgb(0,0,0)" stroke="none">page</tspan></tspan></tspan></text>
 <text class="TextShape"><tspan class="TextParagraph" font-family="Liberation Sans" font-size="353px" font-weight="400"><tspan class="TextPosition" x="14110" y="5365"><tspan fill="rgb(0,0,0)" stroke="none">random</tspan></tspan></tspan></text>
</svg>