<?xml version="1.0" encoding="UTF-8"?>
<!DOCTYPE svg PUBLIC "-//W3C//DTD SVG 1.1//EN" "http://www.w3.org/Graphics/SVG/1.1/DTD/svg11.dtd">
<svg width="160mm" height="90mm" viewBox="0 0 16000 9000" version="1.1" xmlns="http://www.w3.org/2000/svg" stroke-width="28.222" stroke-linejoin="round" xml:space="preserve">
 <path fill="rgb(255,255,255)" stroke="none" d="M 8000,8999 L 0,8999 0,0 15999,0 15999,8999 8000,8999 Z"/>
 <path fill="none" stroke="rgb(179,179,179)" stroke-linejoin="round" d="M 7363,7191 L 2323,7191 2323,379 12403,379 12403,7191 7363,7191 Z"/>
 <path fill="none" stroke="rgb(179,179,179)" stroke-linejoin="round" d="M 12403,7190 L 2323,7190"/>
 <path fill="none" stroke="rgb(179,179,179)" stroke-linejoin="round" d="M 12403,6338 L 2323,6338"/>
 <path fill="none" stroke="rgb(179,179,179)" stroke-linejoin="round" d="M 12403,5486 L 2323,5486"/>
 <path fill="none" stroke="rgb(179,179,179)" stroke-linejoin="round" d="M 12403,4635 L 2323,4635"/>
 <path fill="none" stroke="rgb(179,179,179)" stroke-linejoin="round" d="M 12403,3784 L 2323,3784"/>
 <path fill="none" stroke="rgb(179,179,179)" stroke-linejoin="round" d="M 12403,2932 L 2323,2932"/>
 <path fill="none" stroke="rgb(179,179,179)" stroke-linejoin="round" d="M 12403,2081 L 2323,2081"/>
 <path fill="none" stroke="rgb(179,179,179)" stroke-linejoin="round" d="M 12403,1229 L 2323,1229"/>
 <path fill="none" stroke="rgb(179,179,179)" stroke-linejoin="round" d="M 12403,377 L 2323,377"/>
 <path fill="none" stroke="rgb(179,179,179)" stroke-linejoin="round" d="M 2323,7340 L 2323,7190"/>
 <path fill="none" stroke="rgb(179,179,179)" stroke-linejoin="round" d="M 2323,7340 L 2323,7190"/>
 <path fill="none" stroke="rgb(179,179,179)" stroke-linejoin="round" d="M 3331,7340 L 3331,7190"/>
 <path fill="none" stroke="rgb(179,179,179)" stroke-linejoin="round" d="M 3331,7340 L 3331,7190"/>
 <path fill="none" stroke="rgb(179,179,179)" stroke-linejoin="round" d="M 4339,7340 L 4339,7190"/>
 <path fill="none" stroke="rgb(179,179,179)" stroke-linejoin="round" d="M 4339,7340 L 4339,7190"/>
 <path fill="none" stroke="rgb(179,179,179)" stroke-linejoin="round" d="M 5347,7340 L 5347,7190"/>
 <path fill="none" stroke="rgb(179,179,179)" stroke-linejoin="round" d="M 5347,7340 L 5347,7190"/>
 <path fill="none" stroke="rgb(179,179,179)" stroke-linejoin="round" d="M 6355,7340 L 6355,7190"/>
 <path fill="none" stroke="rgb(179,179,179)" stroke-linejoin="round" d="M 6355,7340 L 6355,7190"/>
 <path fill="none" stroke="rgb(179,179,179)" stroke-linejoin="round" d="M 7363,7340 L 7363,7190"/>
 <path fill="none" stroke="rgb(179,179,179)" stroke-linejoin="round" d="M 7363,7340 L 7363,7190"/>
 <path fill="none" stroke="rgb(179,179,179)" stroke-linejoin="round" d="M 8370,7340 L 8370,7190"/>
 <path fill="none" stroke="rgb(179,179,179)" stroke-linejoin="round" d="M 8370,7340 L 8370,7190"/>
 <path fill="none" stroke="rgb(179,179,179)" stroke-linejoin="round" d="M 9378,7340 L 9378,7190"/>
 <path fill="none" stroke="rgb(179,179,179)" stroke-linejoin="round" d="M 9378,7340 L 9378,7190"/>
 <path fill="none" stroke="rgb(179,179,179)" stroke-linejoin="round" d="M 10386,7340 L 10386,7190"/>
 <path fill="none" stroke="rgb(179,179,179)" stroke-linejoin="round" d="M 10386,7340 L 10386,7190"/>
 <path fill="none" stroke="rgb(179,179,179)" stroke-linejoin="round" d="M 11394,7340 L 11394,7190"/>
 <path fill="none" stroke="rgb(179,179,179)" stroke-linejoin="round" d="M 11394,7340 L 11394,7190"/>
 <path fill="none" stroke="rgb(179,179,179)" stroke-linejoin="round" d="M 12403,7340 L 12403,7190"/>
 <path fill="none" stroke="rgb(179,179,179)" stroke-linejoin="round" d="M 12403,7340 L 12403,7190"/>
 <path fill="none" stroke="rgb(179,179,179)" stroke-linejoin="round" d="M 2323,7190 L 12403,7190"/>
 <path fill="none" stroke="rgb(179,179,179)" stroke-linejoin="round" d="M 2173,7190 L 2323,7190"/>
 <path fill="none" stroke="rgb(179,179,179)" stroke-linejoin="round" d="M 2173,7190 L 2323,7190"/>
 <path fill="none" stroke="rgb(179,179,179)" stroke-linejoin="round" d="M 2173,6338 L 2323,6338"/>
 <path fill="none" stroke="rgb(179,179,179)" stroke-linejoin="round" d="M 2173,6338 L 2323,6338"/>
 <path fill="none" stroke="rgb(179,179,179)" stroke-linejoin="round" d="M 2173,5486 L 2323,5486"/>
 <path fill="none" stroke="rgb(179,179,179)" stroke-linejoin="round" d="M 2173,5486 L 2323,5486"/>
 <path fill="none" stroke="rgb(179,179,179)" stroke-linejoin="round" d="M 2173,4635 L 2323,4635"/>
 <path fill="none" stroke="rgb(179,179,179)" stroke-linejoin="round" d="M 2173,4635 L 2323,4635"/>
 <path fill="none" stroke="rgb(179,179,179)" stroke-linejoin="round" d="M 2173,3784 L 2323,3784"/>
 <path fill="none" stroke="rgb(179,179,179)" stroke-linejoin="round" d="M 2173,3784 L 2323,3784"/>
 <path fill="none" stroke="rgb(179,179,179)" stroke-linejoin="round" d="M 2173,2932 L 2323,2932"/>
 <path fill="none" stroke="rgb(179,179,179)" stroke-linejoin="round" d="M 2173,2932 L 2323,2932"/>
 <path fill="none" stroke="rgb(179,179,179)" stroke-linejoin="round" d="M 2173,2081 L 2323,2081"/>
 <path fill="none" stroke="rgb(179,179,179)" stroke-linejoin="round" d="M 2173,2081 L 2323,2081"/>
 <path fill="none" stroke="rgb(179,179,179)" stroke-linejoin="round" d="M 2173,1229 L 2323,1229"/>
 <path fill="none" stroke="rgb(179,179,179)" stroke-linejoin="round" d="M 2173,1229 L 2323,1229"/>
 <path fill="none" stroke="rgb(179,179,179)" stroke-linejoin="round" d="M 2173,377 L 2323,377"/>
 <path fill="none" stroke="rgb(179,179,179)" stroke-linejoin="round" d="M 2173,377 L 2323,377"/>
 <path fill="none" stroke="rgb(179,179,179)" stroke-linejoin="round" d="M 2323,7190 L 2323,377"/>
 <path fill="none" stroke="rgb(87,157,28)" stroke-width="80" stroke-linejoin="round" d="M 2323,4492 L 5347,3691 8370,1493 11394,839"/>
 <path fill="rgb(87,157,28)" stroke="none" d="M 2198,4616 L 2448,4616 2323,4367 2198,4616 Z"/>
 <path fill="none" stroke="rgb(87,157,28)" stroke-linejoin="round" d="M 2198,4616 L 2448,4616 2323,4367 2198,4616 Z"/>
 <path fill="rgb(87,157,28)" stroke="none" d="M 5222,3816 L 5472,3816 5347,3566 5222,3816 Z"/>
 <path fill="none" stroke="rgb(87,157,28)" stroke-linejoin="round" d="M 5222,3816 L 5472,3816 5347,3566 5222,3816 Z"/>
 <path fill="rgb(87,157,28)" stroke="none" d="M 8245,1618 L 8495,1618 8370,1368 8245,1618 Z"/>
 <path fill="none" stroke="rgb(87,157,28)" stroke-linejoin="round" d="M 8245,1618 L 8495,1618 8370,1368 8245,1618 Z"/>
 <path fill="rgb(87,157,28)" stroke="none" d="M 11269,964 L 11519,964 11394,714 11269,964 Z"/>
 <path fill="none" stroke="rgb(87,157,28)" stroke-linejoin="round" d="M 11269,964 L 11519,964 11394,714 11269,964 Z"/>
 <path fill="none" stroke="rgb(255,211,32)" stroke-width="80" stroke-linejoin="round" d="M 2323,4537 L 5347,4200 8370,3770 11394,4052"/>
 <path fill="rgb(255,211,32)" stroke="none" d="M 2198,4413 L 2323,4662 2448,4413 2198,4413 Z"/>
 <path fill="none" stroke="rgb(255,211,32)" stroke-linejoin="round" d="M 2198,4413 L 2323,4662 2448,4413 2198,4413 Z"/>
 <path fill="rgb(255,211,32)" stroke="none" d="M 5222,4075 L 5347,4325 5472,4075 5222,4075 Z"/>
 <path fill="none" stroke="rgb(255,211,32)" stroke-linejoin="round" d="M 5222,4075 L 5347,4325 5472,4075 5222,4075 Z"/>
 <path fill="rgb(255,211,32)" stroke="none" d="M 8245,3645 L 8370,3895 8495,3645 8245,3645 Z"/>
 <path fill="none" stroke="rgb(255,211,32)" stroke-linejoin="round" d="M 8245,3645 L 8370,3895 8495,3645 8245,3645 Z"/>
 <path fill="rgb(255,211,32)" stroke="none" d="M 11269,3927 L 11394,4177 11519,3927 11269,3927 Z"/>
 <path fill="none" stroke="rgb(255,211,32)" stroke-linejoin="round" d="M 11269,3927 L 11394,4177 11519,3927 11269,3927 Z"/>
 <path fill="none" stroke="rgb(255,66,14)" stroke-width="80" stroke-linejoin="round" d="M 2323,4537 L 5347,3656 8370,2791 11394,3981"/>
 <path fill="rgb(255,66,14)" stroke="none" d="M 2198,4537 L 2323,4662 2448,4537 2323,4413 2198,4537 Z"/>
 <path fill="none" stroke="rgb(255,66,14)" stroke-linejoin="round" d="M 2198,4537 L 2323,4662 2448,4537 2323,4413 2198,4537 Z"/>
 <path fill="rgb(255,66,14)" stroke="none" d="M 5222,3656 L 5347,3781 5472,3656 5347,3531 5222,3656 Z"/>
 <path fill="none" stroke="rgb(255,66,14)" stroke-linejoin="round" d="M 5222,3656 L 5347,3781 5472,3656 5347,3531 5222,3656 Z"/>
 <path fill="rgb(255,66,14)" stroke="none" d="M 8245,2791 L 8370,2916 8495,2791 8370,2666 8245,2791 Z"/>
 <path fill="none" stroke="rgb(255,66,14)" stroke-linejoin="round" d="M 8245,2791 L 8370,2916 8495,2791 8370,2666 8245,2791 Z"/>
 <path fill="rgb(255,66,14)" stroke="none" d="M 11269,3981 L 11394,4106 11519,3981 11394,3856 11269,3981 Z"/>
 <path fill="none" stroke="rgb(255,66,14)" stroke-linejoin="round" d="M 11269,3981 L 11394,4106 11519,3981 11394,3856 11269,3981 Z"/>
 <path fill="none" stroke="rgb(0,69,134)" stroke-width="80" stroke-linejoin="round" d="M 2323,4493 L 5347,3562 8370,3707 11394,4022"/>
 <path fill="rgb(0,69,134)" stroke="none" d="M 2198,4368 L 2198,4617 2448,4617 2448,4368 2198,4368 Z"/>
 <path fill="none" stroke="rgb(0,69,134)" stroke-linejoin="round" d="M 2198,4368 L 2198,4617 2448,4617 2448,4368 2198,4368 Z"/>
 <path fill="rgb(0,69,134)" stroke="none" d="M 5222,3437 L 5222,3687 5472,3687 5472,3437 5222,3437 Z"/>
 <path fill="none" stroke="rgb(0,69,134)" stroke-linejoin="round" d="M 5222,3437 L 5222,3687 5472,3687 5472,3437 5222,3437 Z"/>
 <path fill="rgb(0,69,134)" stroke="none" d="M 8245,3582 L 8245,3832 8495,3832 8495,3582 8245,3582 Z"/>
 <path fill="none" stroke="rgb(0,69,134)" stroke-linejoin="round" d="M 8245,3582 L 8245,3832 8495,3832 8495,3582 8245,3582 Z"/>
 <path fill="rgb(0,69,134)" stroke="none" d="M 11269,3897 L 11269,4147 11519,4147 11519,3897 11269,3897 Z"/>
 <path fill="none" stroke="rgb(0,69,134)" stroke-linejoin="round" d="M 11269,3897 L 11269,4147 11519,4147 11519,3897 11269,3897 Z"/>
 <text class="TextShape"><tspan class="TextParagraph" font-family="Liberation Sans" font-size="353px" font-weight="400"><tspan class="TextPosition" x="2230" y="7758"><tspan fill="rgb(0,0,0)" stroke="none">0</tspan></tspan></tspan></text>
 <text class="TextShape"><tspan class="TextParagraph" font-family="Liberation Sans" font-size="353px" font-weight="400"><tspan class="TextPosition" x="3238" y="7758"><tspan fill="rgb(0,0,0)" stroke="none">1</tspan></tspan></tspan></text>
 <text class="TextShape"><tspan class="TextParagraph" font-family="Liberation Sans" font-size="353px" font-weight="400"><tspan class="TextPosition" x="4246" y="7758"><tspan fill="rgb(0,0,0)" stroke="none">2</tspan></tspan></tspan></text>
 <text class="TextShape"><tspan class="TextParagraph" font-family="Liberation Sans" font-size="353px" font-weight="400"><tspan class="TextPosition" x="5254" y="7758"><tspan fill="rgb(0,0,0)" stroke="none">3</tspan></tspan></tspan></text>
 <text class="TextShape"><tspan class="TextParagraph" font-family="Liberation Sans" font-size="353px" font-weight="400"><tspan class="TextPosition" x="6262" y="7758"><tspan fill="rgb(0,0,0)" stroke="none">4</tspan></tspan></tspan></text>
 <text class="TextShape"><tspan class="TextParagraph" font-family="Liberation Sans" font-size="353px" font-weight="400"><tspan class="TextPosition" x="7270" y="7758"><tspan fill="rgb(0,0,0)" stroke="none">5</tspan></tspan></tspan></text>
 <text class="TextShape"><tspan class="TextParagraph" font-family="Liberation Sans" font-size="353px" font-weight="400"><tspan class="TextPosition" x="8278" y="7758"><tspan fill="rgb(0,0,0)" stroke="none">6</tspan></tspan></tspan></text>
 <text class="TextShape"><tspan class="TextParagraph" font-family="Liberation Sans" font-size="353px" font-weight="400"><tspan class="TextPosition" x="9286" y="7758"><tspan fill="rgb(0,0,0)" stroke="none">7</tspan></tspan></tspan></text>
 <text class="TextShape"><tspan class="TextParagraph" font-family="Liberation Sans" font-size="353px" font-weight="400"><tspan class="TextPosition" x="10294" y="7758"><tspan fill="rgb(0,0,0)" stroke="none">8</tspan></tspan></tspan></text>
 <text class="TextShape"><tspan class="TextParagraph" font-family="Liberation Sans" font-size="353px" font-weight="400"><tspan class="TextPosition" x="11302" y="7758"><tspan fill="rgb(0,0,0)" stroke="none">9</tspan></tspan></tspan></text>
 <text class="TextShape"><tspan class="TextParagraph" font-family="Liberation Sans" font-size="353px" font-weight="400"><tspan class="TextPosition" x="12219" y="7758"><tspan fill="rgb(0,0,0)" stroke="none">10</tspan></tspan></tspan></text>
 <text class="TextShape"><tspan class="TextParagraph" font-family="Liberation Sans" font-size="353px" font-weight="400"><tspan class="TextPosition" x="1888" y="7311"><tspan fill="rgb(0,0,0)" stroke="none">0</tspan></tspan></tspan></text>
 <text class="TextShape"><tspan class="TextParagraph" font-family="Liberation Sans" font-size="353px" font-weight="400"><tspan class="TextPosition" x="1332" y="6459"><tspan fill="rgb(0,0,0)" stroke="none">2000</tspan></tspan></tspan></text>
 <text class="TextShape"><tspan class="TextParagraph" font-family="Liberation Sans" font-size="353px" font-weight="400"><tspan class="TextPosition" x="1332" y="5607"><tspan fill="rgb(0,0,0)" stroke="none">4000</tspan></tspan></tspan></text>
 <text class="TextShape"><tspan class="TextParagraph" font-family="Liberation Sans" font-size="353px" font-weight="400"><tspan class="TextPosition" x="1332" y="4756"><tspan fill="rgb(0,0,0)" stroke="none">6000</tspan></tspan></tspan></text>
 <text class="TextShape"><tspan class="TextParagraph" font-family="Liberation Sans" font-size="353px" font-weight="400"><tspan class="TextPosition" x="1332" y="3904"><tspan fill="rgb(0,0,0)" stroke="none">8000</tspan></tspan></tspan></text>
 <text class="TextShape"><tspan class="TextParagraph" font-family="Liberation Sans" font-size="353px" font-weight="400"><tspan class="TextPosition" x="1147" y="3052"><tspan fill="rgb(0,0,0)" stroke="none">10000</tspan></tspan></tspan></text>
 <text class="TextShape"><tspan class="TextParagraph" font-family="Liberation Sans" font-size="353px" font-weight="400"><tspan class="TextPosition" x="1147" y="2201"><tspan fill="rgb(0,0,0)" stroke="none">12000</tspan></tspan></tspan></text>
 <text class="TextShape"><tspan class="TextParagraph" font-family="Liberation Sans" font-size="353px" font-weight="400"><tspan class="TextPosition" x="1147" y="1349"><tspan fill="rgb(0,0,0)" stroke="none">14000</tspan></tspan></tspan></text>
 <text class="TextShape"><tspan class="TextParagraph" font-family="Liberation Sans" font-size="353px" font-weight="400"><tspan class="TextPosition" x="1147" y="497"><tspan fill="rgb(0,0,0)" stroke="none">16000</tspan></tspan></tspan></text>
 <path fill="none" stroke="rgb(0,69,134)" stroke-width="80" stroke-linejoin="round" d="M 13210,3752 L 14010,3752"/>
 <path fill="rgb(0,69,134)" stroke="none" d="M 13504,3647 L 13504,3858 13715,3858 13715,3647 13504,3647 Z"/>
 <path fill="none" stroke="rgb(0,69,134)" stroke-linejoin="round" d="M 13504,3647 L 13504,3858 13715,3858 13715,3647 13504,3647 Z"/>
 <path fill="none" stroke="rgb(255,66,14)" stroke-width="80" stroke-linejoin="round" d="M 13210,4250 L 14010,4250"/>
 <path fill="rgb(255,66,14)" stroke="none" d="M 13504,4250 L 13610,4356 13715,4250 13610,4145 13504,4250 Z"/>
 <path fill="none" stroke="rgb(255,66,14)" stroke-linejoin="round" d="M 13504,4250 L 13610,4356 13715,4250 13610,4145 13504,4250 Z"/>
 <path fill="none" stroke="rgb(255,211,32)" stroke-width="80" stroke-linejoin="round" d="M 13210,4747 L 14010,4747"/>
 <path fill="rgb(255,211,32)" stroke="none" d="M 13504,4642 L 13610,4853 13715,4642 13504,4642 Z"/>
 <path fill="none" stroke="rgb(255,211,32)" stroke-linejoin="round" d="M 13504,4642 L 13610,4853 13715,4642 13504,4642 Z"/>
 <path fill="none" stroke="rgb(87,157,28)" stroke-width="80" stroke-linejoin="round" d="M 13210,5245 L 14010,5245"/>
 <path fill="rgb(87,157,28)" stroke="none" d="M 13504,5351 L 13715,5351 13610,5140 13504,5351 Z"/>
 <path fill="none" stroke="rgb(87,157,28)" stroke-linejoin="round" d="M 13504,5351 L 13715,5351 13610,5140 13504,5351 Z"/>
 <text class="TextShape"><tspan class="TextParagraph" font-family="Liberation Sans" font-size="353px" font-weight="400"><tspan class="TextPosition" x="14110" y="3872"><tspan fill="rgb(0,0,0)" stroke="none">between</tspan></tspan></tspan></text>
 <text class="TextShape"><tspan class="TextParagraph" font-family="Liberation Sans" font-size="353px" font-weight="400"><tspan class="TextPosition" x="14110" y="4370"><tspan fill="rgb(0,0,0)" stroke="none">closeness</tspan></tspan></tspan></text>
 <text class="TextShape"><tspan class="TextParagraph" font-family="Liberation Sans" font-size="353px" font-weight="400"><tspan class="TextPosition" x="14110" y="4867"><tspan fill="rgb(0,0,0)" stroke="none">page</tspan></tspan></tspan></text>
 <text class="TextShape"><tspan class="TextParagraph" font-family="Liberation Sans" font-size="353px" font-weight="400"><tspan class="TextPosition" x="14110" y="5365"><tspan fill="rgb(0,0,0)" stroke="none">random</tspan></tspan></tspan></text>
 <text class="TextShape"><tspan class="TextParagraph" font-family="Liberation Sans" font-size="318px" font-weight="400"><tspan class="TextPosition" x="5227" y="8405"><tspan fill="rgb(0,0,0)" stroke="none">% of humans have robots</tspan></tspan></tspan></text>
 <text class="TextShape" transform="translate(837,6191) rotate(-90) translate(-837,-6191)"><tspan class="TextParagraph" font-family="Liberation Sans" font-size="318px" font-weight="400"><tspan class="TextPosition" x="837" y="6191"><tspan fill="rgb(0,0,0)" stroke="none">% of humans using robot word</tspan></tspan></tspan></text>
</svg>