<?xml version="1.0" encoding="UTF-8"?>
<!DOCTYPE svg PUBLIC "-//W3C//DTD SVG 1.1//EN" "http://www.w3.org/Graphics/SVG/1.1/DTD/svg11.dtd">
<svg width="160mm" height="90mm" viewBox="0 0 16000 9000" version="1.1" xmlns="http://www.w3.org/2000/svg" stroke-width="28.222" stroke-linejoin="round" xml:space="preserve">
 <path fill="rgb(255,255,255)" stroke="none" d="M 8000,8999 L 0,8999 0,0 15999,0 15999,8999 8000,8999 Z"/>
 <path fill="none" stroke="rgb(179,179,179)" stroke-linejoin="round" d="M 6671,8172 L 941,8172 941,379 12401,379 12401,8172 6671,8172 Z"/>
 <path fill="none" stroke="rgb(179,179,179)" stroke-linejoin="round" d="M 12401,8171 L 941,8171"/>
 <path fill="none" stroke="rgb(179,179,179)" stroke-linejoin="round" d="M 12401,6872 L 941,6872"/>
 <path fill="none" stroke="rgb(179,179,179)" stroke-linejoin="round" d="M 12401,5573 L 941,5573"/>
 <path fill="none" stroke="rgb(179,179,179)" stroke-linejoin="round" d="M 12401,4275 L 941,4275"/>
 <path fill="none" stroke="rgb(179,179,179)" stroke-linejoin="round" d="M 12401,2976 L 941,2976"/>
 <path fill="none" stroke="rgb(179,179,179)" stroke-linejoin="round" d="M 12401,1677 L 941,1677"/>
 <path fill="none" stroke="rgb(179,179,179)" stroke-linejoin="round" d="M 12401,378 L 941,378"/>
 <path fill="none" stroke="rgb(179,179,179)" stroke-linejoin="round" d="M 941,8321 L 941,8171"/>
 <path fill="none" stroke="rgb(179,179,179)" stroke-linejoin="round" d="M 941,8321 L 941,8171"/>
 <path fill="none" stroke="rgb(179,179,179)" stroke-linejoin="round" d="M 2214,8321 L 2214,8171"/>
 <path fill="none" stroke="rgb(179,179,179)" stroke-linejoin="round" d="M 2214,8321 L 2214,8171"/>
 <path fill="none" stroke="rgb(179,179,179)" stroke-linejoin="round" d="M 3487,8321 L 3487,8171"/>
 <path fill="none" stroke="rgb(179,179,179)" stroke-linejoin="round" d="M 3487,8321 L 3487,8171"/>
 <path fill="none" stroke="rgb(179,179,179)" stroke-linejoin="round" d="M 4761,8321 L 4761,8171"/>
 <path fill="none" stroke="rgb(179,179,179)" stroke-linejoin="round" d="M 4761,8321 L 4761,8171"/>
 <path fill="none" stroke="rgb(179,179,179)" stroke-linejoin="round" d="M 6034,8321 L 6034,8171"/>
 <path fill="none" stroke="rgb(179,179,179)" stroke-linejoin="round" d="M 6034,8321 L 6034,8171"/>
 <path fill="none" stroke="rgb(179,179,179)" stroke-linejoin="round" d="M 7308,8321 L 7308,8171"/>
 <path fill="none" stroke="rgb(179,179,179)" stroke-linejoin="round" d="M 7308,8321 L 7308,8171"/>
 <path fill="none" stroke="rgb(179,179,179)" stroke-linejoin="round" d="M 8580,8321 L 8580,8171"/>
 <path fill="none" stroke="rgb(179,179,179)" stroke-linejoin="round" d="M 8580,8321 L 8580,8171"/>
 <path fill="none" stroke="rgb(179,179,179)" stroke-linejoin="round" d="M 9854,8321 L 9854,8171"/>
 <path fill="none" stroke="rgb(179,179,179)" stroke-linejoin="round" d="M 9854,8321 L 9854,8171"/>
 <path fill="none" stroke="rgb(179,179,179)" stroke-linejoin="round" d="M 11127,8321 L 11127,8171"/>
 <path fill="none" stroke="rgb(179,179,179)" stroke-linejoin="round" d="M 11127,8321 L 11127,8171"/>
 <path fill="none" stroke="rgb(179,179,179)" stroke-linejoin="round" d="M 12401,8321 L 12401,8171"/>
 <path fill="none" stroke="rgb(179,179,179)" stroke-linejoin="round" d="M 12401,8321 L 12401,8171"/>
 <path fill="none" stroke="rgb(179,179,179)" stroke-linejoin="round" d="M 941,8171 L 12401,8171"/>
 <path fill="none" stroke="rgb(179,179,179)" stroke-linejoin="round" d="M 791,8171 L 941,8171"/>
 <path fill="none" stroke="rgb(179,179,179)" stroke-linejoin="round" d="M 791,8171 L 941,8171"/>
 <path fill="none" stroke="rgb(179,179,179)" stroke-linejoin="round" d="M 791,6872 L 941,6872"/>
 <path fill="none" stroke="rgb(179,179,179)" stroke-linejoin="round" d="M 791,6872 L 941,6872"/>
 <path fill="none" stroke="rgb(179,179,179)" stroke-linejoin="round" d="M 791,5573 L 941,5573"/>
 <path fill="none" stroke="rgb(179,179,179)" stroke-linejoin="round" d="M 791,5573 L 941,5573"/>
 <path fill="none" stroke="rgb(179,179,179)" stroke-linejoin="round" d="M 791,4275 L 941,4275"/>
 <path fill="none" stroke="rgb(179,179,179)" stroke-linejoin="round" d="M 791,4275 L 941,4275"/>
 <path fill="none" stroke="rgb(179,179,179)" stroke-linejoin="round" d="M 791,2976 L 941,2976"/>
 <path fill="none" stroke="rgb(179,179,179)" stroke-linejoin="round" d="M 791,2976 L 941,2976"/>
 <path fill="none" stroke="rgb(179,179,179)" stroke-linejoin="round" d="M 791,1677 L 941,1677"/>
 <path fill="none" stroke="rgb(179,179,179)" stroke-linejoin="round" d="M 791,1677 L 941,1677"/>
 <path fill="none" stroke="rgb(179,179,179)" stroke-linejoin="round" d="M 791,378 L 941,378"/>
 <path fill="none" stroke="rgb(179,179,179)" stroke-linejoin="round" d="M 791,378 L 941,378"/>
 <path fill="none" stroke="rgb(179,179,179)" stroke-linejoin="round" d="M 941,8171 L 941,378"/>
 <path fill="none" stroke="rgb(87,157,28)" stroke-width="80" stroke-linejoin="round" d="M 941,8171 L 960,8141 980,8112 999,8083 1019,8053 1039,8024 1058,7993 1078,7963 1097,7932 1117,7901 1136,7869 1155,7837 1174,7804 1193,7771 1212,7736 1231,7701 1249,7665 1268,7628 1286,7591 1304,7552 1323,7512 1340,7471 1358,7429 1376,7385 1393,7341 1411,7296 1429,7249 1446,7201 1464,7153 1482,7103 1501,7052 1519,7000 1538,6947 1557,6893 1577,6838 1597,6782 1617,6725 1638,6666 1660,6607 1682,6547 1705,6486 1728,6424 1752,6361 1776,6297 1801,6233 1825,6169 1850,6105 1874,6041 1898,5977 1921,5913 1943,5850 1964,5788 1984,5727 2003,5666 2021,5608 2037,5550 2051,5495 2063,5441 2073,5389 2081,5340 2087,5293 2090,5248 2091,5206 2090,5165 2088,5125 2086,5086 2084,5047 2082,5007 2082,4967 2083,4925 2085,4882 2091,4836 2100,4787 2112,4735 2128,4680 2149,4620 2175,4555 2207,4486 2245,4410 2289,4328 2341,4239 2401,4144 2467,4042 2540,3934 2619,3822 2704,3705 2794,3586 2888,3464 2985,3341 3086,3218 3190,3094 3296,2972 3403,2851 3511,2734 3620,2619 3729,2509 3837,2405 3944,2306 4049,2214 4152,2129 4251,2054 4348,1987 4442,1929 4534,1879 4625,1837 4715,1802 4806,1773 4898,1751 4991,1734 5088,1722 5188,1715 5292,1711 5401,1711 5516,1714 5637,1719 5765,1725 5902,1733 6047,1741 6202,1750 6367,1758 6544,1765 6732,1771 6931,1776 7141,1779 7360,1780 7590,1781 7828,1780 8074,1778 8328,1776 8589,1772 8857,1768 9131,1763 9410,1757 9694,1750 9982,1744 10273,1736 10568,1728 10865,1720 11163,1712 11463,1704 11764,1695"/>
 <path fill="rgb(87,157,28)" stroke="none" d="M 816,8296 L 1066,8296 941,8046 816,8296 Z"/>
 <path fill="none" stroke="rgb(87,157,28)" stroke-linejoin="round" d="M 816,8296 L 1066,8296 941,8046 816,8296 Z"/>
 <path fill="rgb(87,157,28)" stroke="none" d="M 1198,7637 L 1448,7637 1323,7387 1198,7637 Z"/>
 <path fill="none" stroke="rgb(87,157,28)" stroke-linejoin="round" d="M 1198,7637 L 1448,7637 1323,7387 1198,7637 Z"/>
 <path fill="rgb(87,157,28)" stroke="none" d="M 1580,6611 L 1830,6611 1705,6361 1580,6611 Z"/>
 <path fill="none" stroke="rgb(87,157,28)" stroke-linejoin="round" d="M 1580,6611 L 1830,6611 1705,6361 1580,6611 Z"/>
 <path fill="rgb(87,157,28)" stroke="none" d="M 1962,5418 L 2212,5418 2087,5168 1962,5418 Z"/>
 <path fill="none" stroke="rgb(87,157,28)" stroke-linejoin="round" d="M 1962,5418 L 2212,5418 2087,5168 1962,5418 Z"/>
 <path fill="rgb(87,157,28)" stroke="none" d="M 2216,4364 L 2466,4364 2341,4114 2216,4364 Z"/>
 <path fill="none" stroke="rgb(87,157,28)" stroke-linejoin="round" d="M 2216,4364 L 2466,4364 2341,4114 2216,4364 Z"/>
 <path fill="rgb(87,157,28)" stroke="none" d="M 4126,2179 L 4376,2179 4251,1929 4126,2179 Z"/>
 <path fill="none" stroke="rgb(87,157,28)" stroke-linejoin="round" d="M 4126,2179 L 4376,2179 4251,1929 4126,2179 Z"/>
 <path fill="rgb(87,157,28)" stroke="none" d="M 6419,1890 L 6669,1890 6544,1640 6419,1890 Z"/>
 <path fill="none" stroke="rgb(87,157,28)" stroke-linejoin="round" d="M 6419,1890 L 6669,1890 6544,1640 6419,1890 Z"/>
 <path fill="rgb(87,157,28)" stroke="none" d="M 11639,1820 L 11889,1820 11764,1570 11639,1820 Z"/>
 <path fill="none" stroke="rgb(87,157,28)" stroke-linejoin="round" d="M 11639,1820 L 11889,1820 11764,1570 11639,1820 Z"/>
 <path fill="none" stroke="rgb(255,211,32)" stroke-width="80" stroke-linejoin="round" d="M 941,8171 L 960,8152 980,8134 999,8116 1019,8098 1039,8079 1058,8061 1078,8043 1097,8024 1117,8006 1136,7987 1155,7969 1174,7950 1193,7932 1212,7913 1231,7894 1249,7875 1268,7856 1286,7837 1304,7818 1323,7799 1340,7779 1358,7759 1376,7739 1393,7718 1411,7696 1429,7673 1446,7649 1464,7624 1482,7596 1501,7567 1519,7536 1538,7502 1557,7467 1577,7428 1597,7387 1617,7342 1638,7295 1660,7244 1682,7189 1705,7131 1728,7068 1752,7002 1776,6933 1801,6860 1825,6785 1850,6707 1874,6627 1898,6544 1921,6461 1943,6375 1964,6289 1984,6202 2003,6114 2021,6026 2037,5938 2051,5851 2063,5764 2073,5678 2081,5593 2087,5510 2090,5429 2091,5349 2090,5270 2088,5193 2086,5117 2084,5041 2082,4967 2082,4893 2083,4819 2085,4745 2091,4672 2100,4598 2112,4523 2128,4449 2149,4374 2175,4297 2207,4219 2245,4140 2289,4059 2341,3977 2401,3893 2467,3807 2540,3720 2619,3632 2704,3544 2794,3455 2888,3366 2985,3277 3086,3188 3190,3100 3296,3014 3403,2929 3511,2845 3620,2764 3729,2684 3837,2608 3944,2534 4049,2463 4152,2396 4251,2333 4348,2273 4442,2218 4534,2166 4625,2118 4715,2073 4806,2032 4898,1994 4991,1959 5088,1927 5188,1898 5292,1872 5401,1848 5516,1826 5637,1807 5765,1789 5902,1774 6047,1760 6202,1749 6367,1738 6544,1730 6732,1722 6931,1716 7141,1711 7360,1707 7590,1703 7828,1701 8074,1700 8328,1700 8589,1700 8857,1701 9131,1703 9410,1705 9694,1708 9982,1711 10273,1715 10568,1718 10865,1723 11163,1727 11463,1731 11764,1736"/>
 <path fill="rgb(255,211,32)" stroke="none" d="M 816,8046 L 941,8296 1066,8046 816,8046 Z"/>
 <path fill="none" stroke="rgb(255,211,32)" stroke-linejoin="round" d="M 816,8046 L 941,8296 1066,8046 816,8046 Z"/>
 <path fill="rgb(255,211,32)" stroke="none" d="M 1198,7674 L 1323,7924 1448,7674 1198,7674 Z"/>
 <path fill="none" stroke="rgb(255,211,32)" stroke-linejoin="round" d="M 1198,7674 L 1323,7924 1448,7674 1198,7674 Z"/>
 <path fill="rgb(255,211,32)" stroke="none" d="M 1580,7006 L 1705,7256 1830,7006 1580,7006 Z"/>
 <path fill="none" stroke="rgb(255,211,32)" stroke-linejoin="round" d="M 1580,7006 L 1705,7256 1830,7006 1580,7006 Z"/>
 <path fill="rgb(255,211,32)" stroke="none" d="M 1962,5385 L 2087,5635 2212,5385 1962,5385 Z"/>
 <path fill="none" stroke="rgb(255,211,32)" stroke-linejoin="round" d="M 1962,5385 L 2087,5635 2212,5385 1962,5385 Z"/>
 <path fill="rgb(255,211,32)" stroke="none" d="M 2216,3852 L 2341,4102 2466,3852 2216,3852 Z"/>
 <path fill="none" stroke="rgb(255,211,32)" stroke-linejoin="round" d="M 2216,3852 L 2341,4102 2466,3852 2216,3852 Z"/>
 <path fill="rgb(255,211,32)" stroke="none" d="M 4126,2208 L 4251,2458 4376,2208 4126,2208 Z"/>
 <path fill="none" stroke="rgb(255,211,32)" stroke-linejoin="round" d="M 4126,2208 L 4251,2458 4376,2208 4126,2208 Z"/>
 <path fill="rgb(255,211,32)" stroke="none" d="M 6419,1605 L 6544,1855 6669,1605 6419,1605 Z"/>
 <path fill="none" stroke="rgb(255,211,32)" stroke-linejoin="round" d="M 6419,1605 L 6544,1855 6669,1605 6419,1605 Z"/>
 <path fill="rgb(255,211,32)" stroke="none" d="M 11639,1611 L 11764,1861 11889,1611 11639,1611 Z"/>
 <path fill="none" stroke="rgb(255,211,32)" stroke-linejoin="round" d="M 11639,1611 L 11764,1861 11889,1611 11639,1611 Z"/>
 <path fill="none" stroke="rgb(255,66,14)" stroke-width="80" stroke-linejoin="round" d="M 941,8171 L 960,8159 980,8148 999,8137 1019,8125 1039,8112 1058,8099 1078,8085 1097,8070 1117,8053 1136,8036 1155,8016 1174,7996 1193,7973 1212,7949 1231,7922 1249,7893 1268,7862 1286,7828 1304,7792 1323,7753 1340,7711 1358,7666 1376,7619 1393,7569 1411,7517 1429,7463 1446,7408 1464,7350 1482,7292 1501,7232 1519,7172 1538,7110 1557,7048 1577,6986 1597,6923 1617,6861 1638,6798 1660,6736 1682,6675 1705,6615 1728,6555 1752,6497 1776,6439 1801,6382 1825,6326 1850,6270 1874,6214 1898,6159 1921,6103 1943,6048 1964,5993 1984,5938 2003,5882 2021,5826 2037,5769 2051,5712 2063,5654 2073,5596 2081,5536 2087,5475 2090,5413 2091,5350 2090,5286 2088,5220 2086,5154 2084,5086 2082,5016 2082,4945 2083,4873 2085,4800 2091,4725 2100,4648 2112,4570 2128,4491 2149,4410 2175,4327 2207,4243 2245,4157 2289,4069 2341,3979 2401,3888 2467,3796 2540,3702 2619,3609 2704,3515 2794,3421 2888,3329 2985,3238 3086,3149 3190,3062 3296,2977 3403,2896 3511,2819 3620,2745 3729,2676 3837,2612 3944,2553 4049,2500 4152,2453 4251,2413 4348,2380 4442,2354 4534,2333 4625,2318 4715,2308 4806,2302 4898,2300 4991,2302 5088,2306 5188,2312 5292,2319 5401,2328 5516,2337 5637,2346 5765,2354 5902,2362 6047,2367 6202,2370 6367,2370 6544,2367 6732,2359 6931,2348 7141,2333 7360,2315 7590,2294 7828,2270 8074,2243 8328,2213 8589,2181 8857,2146 9131,2110 9410,2072 9694,2032 9982,1991 10273,1948 10568,1905 10865,1861 11163,1816 11463,1771 11764,1725"/>
 <path fill="rgb(255,66,14)" stroke="none" d="M 816,8171 L 941,8296 1066,8171 941,8046 816,8171 Z"/>
 <path fill="none" stroke="rgb(255,66,14)" stroke-linejoin="round" d="M 816,8171 L 941,8296 1066,8171 941,8046 816,8171 Z"/>
 <path fill="rgb(255,66,14)" stroke="none" d="M 1198,7753 L 1323,7878 1448,7753 1323,7628 1198,7753 Z"/>
 <path fill="none" stroke="rgb(255,66,14)" stroke-linejoin="round" d="M 1198,7753 L 1323,7878 1448,7753 1323,7628 1198,7753 Z"/>
 <path fill="rgb(255,66,14)" stroke="none" d="M 1580,6615 L 1705,6740 1830,6615 1705,6490 1580,6615 Z"/>
 <path fill="none" stroke="rgb(255,66,14)" stroke-linejoin="round" d="M 1580,6615 L 1705,6740 1830,6615 1705,6490 1580,6615 Z"/>
 <path fill="rgb(255,66,14)" stroke="none" d="M 1962,5475 L 2087,5600 2212,5475 2087,5350 1962,5475 Z"/>
 <path fill="none" stroke="rgb(255,66,14)" stroke-linejoin="round" d="M 1962,5475 L 2087,5600 2212,5475 2087,5350 1962,5475 Z"/>
 <path fill="rgb(255,66,14)" stroke="none" d="M 2216,3979 L 2341,4104 2466,3979 2341,3854 2216,3979 Z"/>
 <path fill="none" stroke="rgb(255,66,14)" stroke-linejoin="round" d="M 2216,3979 L 2341,4104 2466,3979 2341,3854 2216,3979 Z"/>
 <path fill="rgb(255,66,14)" stroke="none" d="M 4126,2413 L 4251,2538 4376,2413 4251,2288 4126,2413 Z"/>
 <path fill="none" stroke="rgb(255,66,14)" stroke-linejoin="round" d="M 4126,2413 L 4251,2538 4376,2413 4251,2288 4126,2413 Z"/>
 <path fill="rgb(255,66,14)" stroke="none" d="M 6419,2367 L 6544,2492 6669,2367 6544,2242 6419,2367 Z"/>
 <path fill="none" stroke="rgb(255,66,14)" stroke-linejoin="round" d="M 6419,2367 L 6544,2492 6669,2367 6544,2242 6419,2367 Z"/>
 <path fill="rgb(255,66,14)" stroke="none" d="M 11639,1725 L 11764,1850 11889,1725 11764,1600 11639,1725 Z"/>
 <path fill="none" stroke="rgb(255,66,14)" stroke-linejoin="round" d="M 11639,1725 L 11764,1850 11889,1725 11764,1600 11639,1725 Z"/>
 <path fill="none" stroke="rgb(0,69,134)" stroke-width="80" stroke-linejoin="round" d="M 941,8171 L 960,8149 980,8127 999,8105 1019,8083 1039,8062 1058,8040 1078,8019 1097,7997 1117,7976 1136,7955 1155,7934 1174,7914 1193,7893 1212,7873 1231,7853 1249,7833 1268,7813 1286,7794 1304,7775 1323,7756 1340,7737 1358,7719 1376,7700 1393,7682 1411,7662 1429,7642 1446,7621 1464,7598 1482,7574 1501,7548 1519,7521 1538,7491 1557,7459 1577,7424 1597,7386 1617,7346 1638,7302 1660,7254 1682,7203 1705,7148 1728,7089 1752,7026 1776,6959 1801,6889 1825,6816 1850,6740 1874,6662 1898,6582 1921,6500 1943,6416 1964,6331 1984,6244 2003,6157 2021,6070 2037,5982 2051,5895 2063,5808 2073,5721 2081,5636 2087,5552 2090,5469 2091,5388 2090,5308 2088,5229 2086,5151 2084,5074 2082,4997 2082,4921 2083,4846 2085,4770 2091,4695 2100,4620 2112,4544 2128,4469 2149,4393 2175,4316 2207,4238 2245,4159 2289,4079 2341,3998 2401,3916 2467,3832 2540,3748 2619,3663 2704,3577 2794,3491 2888,3406 2985,3320 3086,3236 3190,3152 3296,3069 3403,2987 3511,2907 3620,2828 3729,2752 3837,2678 3944,2606 4049,2537 4152,2471 4251,2408 4348,2348 4442,2292 4534,2239 4625,2190 4715,2143 4806,2099 4898,2058 4991,2020 5088,1985 5188,1952 5292,1921 5401,1893 5516,1867 5637,1844 5765,1822 5902,1803 6047,1785 6202,1769 6367,1755 6544,1743 6732,1732 6931,1722 7141,1714 7360,1707 7590,1701 7828,1697 8074,1693 8328,1691 8589,1689 8857,1688 9131,1688 9410,1689 9694,1690 9982,1692 10273,1694 10568,1696 10865,1699 11163,1702 11463,1706 11764,1709"/>
 <path fill="rgb(0,69,134)" stroke="none" d="M 816,8046 L 816,8296 1066,8296 1066,8046 816,8046 Z"/>
 <path fill="none" stroke="rgb(0,69,134)" stroke-linejoin="round" d="M 816,8046 L 816,8296 1066,8296 1066,8046 816,8046 Z"/>
 <path fill="rgb(0,69,134)" stroke="none" d="M 1198,7631 L 1198,7881 1448,7881 1448,7631 1198,7631 Z"/>
 <path fill="none" stroke="rgb(0,69,134)" stroke-linejoin="round" d="M 1198,7631 L 1198,7881 1448,7881 1448,7631 1198,7631 Z"/>
 <path fill="rgb(0,69,134)" stroke="none" d="M 1580,7023 L 1580,7273 1830,7273 1830,7023 1580,7023 Z"/>
 <path fill="none" stroke="rgb(0,69,134)" stroke-linejoin="round" d="M 1580,7023 L 1580,7273 1830,7273 1830,7023 1580,7023 Z"/>
 <path fill="rgb(0,69,134)" stroke="none" d="M 1962,5427 L 1962,5677 2212,5677 2212,5427 1962,5427 Z"/>
 <path fill="none" stroke="rgb(0,69,134)" stroke-linejoin="round" d="M 1962,5427 L 1962,5677 2212,5677 2212,5427 1962,5427 Z"/>
 <path fill="rgb(0,69,134)" stroke="none" d="M 2216,3873 L 2216,4123 2466,4123 2466,3873 2216,3873 Z"/>
 <path fill="none" stroke="rgb(0,69,134)" stroke-linejoin="round" d="M 2216,3873 L 2216,4123 2466,4123 2466,3873 2216,3873 Z"/>
 <path fill="rgb(0,69,134)" stroke="none" d="M 4126,2283 L 4126,2533 4376,2533 4376,2283 4126,2283 Z"/>
 <path fill="none" stroke="rgb(0,69,134)" stroke-linejoin="round" d="M 4126,2283 L 4126,2533 4376,2533 4376,2283 4126,2283 Z"/>
 <path fill="rgb(0,69,134)" stroke="none" d="M 6419,1618 L 6419,1868 6669,1868 6669,1618 6419,1618 Z"/>
 <path fill="none" stroke="rgb(0,69,134)" stroke-linejoin="round" d="M 6419,1618 L 6419,1868 6669,1868 6669,1618 6419,1618 Z"/>
 <path fill="rgb(0,69,134)" stroke="none" d="M 11639,1584 L 11639,1834 11889,1834 11889,1584 11639,1584 Z"/>
 <path fill="none" stroke="rgb(0,69,134)" stroke-linejoin="round" d="M 11639,1584 L 11639,1834 11889,1834 11889,1584 11639,1584 Z"/>
 <text class="TextShape"><tspan class="TextParagraph" font-family="Liberation Sans, sans-serif" font-size="353px" font-weight="400"><tspan class="TextPosition" x="848" y="8739"><tspan fill="rgb(0,0,0)" stroke="none">0</tspan></tspan></tspan></text>
 <text class="TextShape"><tspan class="TextParagraph" font-family="Liberation Sans, sans-serif" font-size="353px" font-weight="400"><tspan class="TextPosition" x="2029" y="8739"><tspan fill="rgb(0,0,0)" stroke="none">10</tspan></tspan></tspan></text>
 <text class="TextShape"><tspan class="TextParagraph" font-family="Liberation Sans, sans-serif" font-size="353px" font-weight="400"><tspan class="TextPosition" x="3302" y="8739"><tspan fill="rgb(0,0,0)" stroke="none">20</tspan></tspan></tspan></text>
 <text class="TextShape"><tspan class="TextParagraph" font-family="Liberation Sans, sans-serif" font-size="353px" font-weight="400"><tspan class="TextPosition" x="4576" y="8739"><tspan fill="rgb(0,0,0)" stroke="none">30</tspan></tspan></tspan></text>
 <text class="TextShape"><tspan class="TextParagraph" font-family="Liberation Sans, sans-serif" font-size="353px" font-weight="400"><tspan class="TextPosition" x="5849" y="8739"><tspan fill="rgb(0,0,0)" stroke="none">40</tspan></tspan></tspan></text>
 <text class="TextShape"><tspan class="TextParagraph" font-family="Liberation Sans, sans-serif" font-size="353px" font-weight="400"><tspan class="TextPosition" x="7123" y="8739"><tspan fill="rgb(0,0,0)" stroke="none">50</tspan></tspan></tspan></text>
 <text class="TextShape"><tspan class="TextParagraph" font-family="Liberation Sans, sans-serif" font-size="353px" font-weight="400"><tspan class="TextPosition" x="8396" y="8739"><tspan fill="rgb(0,0,0)" stroke="none">60</tspan></tspan></tspan></text>
 <text class="TextShape"><tspan class="TextParagraph" font-family="Liberation Sans, sans-serif" font-size="353px" font-weight="400"><tspan class="TextPosition" x="9670" y="8739"><tspan fill="rgb(0,0,0)" stroke="none">70</tspan></tspan></tspan></text>
 <text class="TextShape"><tspan class="TextParagraph" font-family="Liberation Sans, sans-serif" font-size="353px" font-weight="400"><tspan class="TextPosition" x="10943" y="8739"><tspan fill="rgb(0,0,0)" stroke="none">80</tspan></tspan></tspan></text>
 <text class="TextShape"><tspan class="TextParagraph" font-family="Liberation Sans, sans-serif" font-size="353px" font-weight="400"><tspan class="TextPosition" x="12217" y="8739"><tspan fill="rgb(0,0,0)" stroke="none">90</tspan></tspan></tspan></text>
 <text class="TextShape"><tspan class="TextParagraph" font-family="Liberation Sans, sans-serif" font-size="353px" font-weight="400"><tspan class="TextPosition" x="506" y="8292"><tspan fill="rgb(0,0,0)" stroke="none">0</tspan></tspan></tspan></text>
 <text class="TextShape"><tspan class="TextParagraph" font-family="Liberation Sans, sans-serif" font-size="353px" font-weight="400"><tspan class="TextPosition" x="321" y="6993"><tspan fill="rgb(0,0,0)" stroke="none">20</tspan></tspan></tspan></text>
 <text class="TextShape"><tspan class="TextParagraph" font-family="Liberation Sans, sans-serif" font-size="353px" font-weight="400"><tspan class="TextPosition" x="321" y="5694"><tspan fill="rgb(0,0,0)" stroke="none">40</tspan></tspan></tspan></text>
 <text class="TextShape"><tspan class="TextParagraph" font-family="Liberation Sans, sans-serif" font-size="353px" font-weight="400"><tspan class="TextPosition" x="321" y="4395"><tspan fill="rgb(0,0,0)" stroke="none">60</tspan></tspan></tspan></text>
 <text class="TextShape"><tspan class="TextParagraph" font-family="Liberation Sans, sans-serif" font-size="353px" font-weight="400"><tspan class="TextPosition" x="321" y="3096"><tspan fill="rgb(0,0,0)" stroke="none">80</tspan></tspan></tspan></text>
 <text class="TextShape"><tspan class="TextParagraph" font-family="Liberation Sans, sans-serif" font-size="353px" font-weight="400"><tspan class="TextPosition" x="135" y="1797"><tspan fill="rgb(0,0,0)" stroke="none">100</tspan></tspan></tspan></text>
 <text class="TextShape"><tspan class="TextParagraph" font-family="Liberation Sans, sans-serif" font-size="353px" font-weight="400"><tspan class="TextPosition" x="135" y="498"><tspan fill="rgb(0,0,0)" stroke="none">120</tspan></tspan></tspan></text>
 <path fill="none" stroke="rgb(0,69,134)" stroke-width="80" stroke-linejoin="round" d="M 13210,3752 L 14010,3752"/>
 <path fill="rgb(0,69,134)" stroke="none" d="M 13504,3647 L 13504,3858 13715,3858 13715,3647 13504,3647 Z"/>
 <path fill="none" stroke="rgb(0,69,134)" stroke-linejoin="round" d="M 13504,3647 L 13504,3858 13715,3858 13715,3647 13504,3647 Z"/>
 <path fill="none" stroke="rgb(255,66,14)" stroke-width="80" stroke-linejoin="round" d="M 13210,4250 L 14010,4250"/>
 <path fill="rgb(255,66,14)" stroke="none" d="M 13504,4250 L 13610,4356 13715,4250 13610,4145 13504,4250 Z"/>
 <path fill="none" stroke="rgb(255,66,14)" stroke-linejoin="round" d="M 13504,4250 L 13610,4356 13715,4250 13610,4145 13504,4250 Z"/>
 <path fill="none" stroke="rgb(255,211,32)" stroke-width="80" stroke-linejoin="round" d="M 13210,4747 L 14010,4747"/>
 <path fill="rgb(255,211,32)" stroke="none" d="M 13504,4642 L 13610,4853 13715,4642 13504,4642 Z"/>
 <path fill="none" stroke="rgb(255,211,32)" stroke-linejoin="round" d="M 13504,4642 L 13610,4853 13715,4642 13504,4642 Z"/>
 <path fill="none" stroke="rgb(87,157,28)" stroke-width="80" stroke-linejoin="round" d="M 13210,5245 L 14010,5245"/>
 <path fill="rgb(87,157,28)" stroke="none" d="M 13504,5351 L 13715,5351 13610,5140 13504,5351 Z"/>
 <path fill="none" stroke="rgb(87,157,28)" stroke-linejoin="round" d="M 13504,5351 L 13715,5351 13610,5140 13504,5351 Z"/>
 <text class="TextShape"><tspan class="TextParagraph" font-family="Liberation Sans, sans-serif" font-size="353px" font-weight="400"><tspan class="TextPosition" x="14110" y="3872"><tspan fill="rgb(0,0,0)" stroke="none">between</tspan></tspan></tspan></text>
 <text class="TextShape"><tspan class="TextParagraph" font-family="Liberation Sans, sans-serif" font-size="353px" font-weight="400"><tspan class="TextPosition" x="14110" y="4370"><tspan fill="rgb(0,0,0)" stroke="none">closeness</tspan></tspan></tspan></text>
 <text class="TextShape"><tspan class="TextParagraph" font-family="Liberation Sans, sans-serif" font-size="353px" font-weight="400"><tspan class="TextPosition" x="14110" y="4867"><tspan fill="rgb(0,0,0)" stroke="none">page</tspan></tspan></tspan></text>
 <text class="TextShape"><tspan class="TextParagraph" font-family="Liberation Sans, sans-serif" font-size="353px" font-weight="400"><tspan class="TextPosition" x="14110" y="5365"><tspan fill="rgb(0,0,0)" stroke="none">random</tspan></tspan></tspan></text>
</svg>