<?xml version="1.0" encoding="UTF-8"?>
<!DOCTYPE svg PUBLIC "-//W3C//DTD SVG 1.1//EN" "http://www.w3.org/Graphics/SVG/1.1/DTD/svg11.dtd">
<svg width="160mm" height="90mm" viewBox="0 0 16000 9000" version="1.1" xmlns="http://www.w3.org/2000/svg" stroke-width="28.222" stroke-linejoin="round" xml:space="preserve">
 <path fill="rgb(255,255,255)" stroke="none" d="M 8000,8999 L 0,8999 0,0 15999,0 15999,8999 8000,8999 Z"/>
 <path fill="none" stroke="rgb(179,179,179)" stroke-linejoin="round" d="M 6857,8172 L 1312,8172 1312,379 12402,379 12402,8172 6857,8172 Z"/>
 <path fill="none" stroke="rgb(179,179,179)" stroke-linejoin="round" d="M 12402,8171 L 1312,8171"/>
 <path fill="none" stroke="rgb(179,179,179)" stroke-linejoin="round" d="M 12402,7196 L 1312,7196"/>
 <path fill="none" stroke="rgb(179,179,179)" stroke-linejoin="round" d="M 12402,6222 L 1312,6222"/>
 <path fill="none" stroke="rgb(179,179,179)" stroke-linejoin="round" d="M 12402,5248 L 1312,5248"/>
 <path fill="none" stroke="rgb(179,179,179)" stroke-linejoin="round" d="M 12402,4275 L 1312,4275"/>
 <path fill="none" stroke="rgb(179,179,179)" stroke-linejoin="round" d="M 12402,3300 L 1312,3300"/>
 <path fill="none" stroke="rgb(179,179,179)" stroke-linejoin="round" d="M 12402,2326 L 1312,2326"/>
 <path fill="none" stroke="rgb(179,179,179)" stroke-linejoin="round" d="M 12402,1352 L 1312,1352"/>
 <path fill="none" stroke="rgb(179,179,179)" stroke-linejoin="round" d="M 12402,378 L 1312,378"/>
 <path fill="none" stroke="rgb(179,179,179)" stroke-linejoin="round" d="M 1312,8321 L 1312,8171"/>
 <path fill="none" stroke="rgb(179,179,179)" stroke-linejoin="round" d="M 1312,8321 L 1312,8171"/>
 <path fill="none" stroke="rgb(179,179,179)" stroke-linejoin="round" d="M 2544,8321 L 2544,8171"/>
 <path fill="none" stroke="rgb(179,179,179)" stroke-linejoin="round" d="M 2544,8321 L 2544,8171"/>
 <path fill="none" stroke="rgb(179,179,179)" stroke-linejoin="round" d="M 3776,8321 L 3776,8171"/>
 <path fill="none" stroke="rgb(179,179,179)" stroke-linejoin="round" d="M 3776,8321 L 3776,8171"/>
 <path fill="none" stroke="rgb(179,179,179)" stroke-linejoin="round" d="M 5009,8321 L 5009,8171"/>
 <path fill="none" stroke="rgb(179,179,179)" stroke-linejoin="round" d="M 5009,8321 L 5009,8171"/>
 <path fill="none" stroke="rgb(179,179,179)" stroke-linejoin="round" d="M 6241,8321 L 6241,8171"/>
 <path fill="none" stroke="rgb(179,179,179)" stroke-linejoin="round" d="M 6241,8321 L 6241,8171"/>
 <path fill="none" stroke="rgb(179,179,179)" stroke-linejoin="round" d="M 7473,8321 L 7473,8171"/>
 <path fill="none" stroke="rgb(179,179,179)" stroke-linejoin="round" d="M 7473,8321 L 7473,8171"/>
 <path fill="none" stroke="rgb(179,179,179)" stroke-linejoin="round" d="M 8705,8321 L 8705,8171"/>
 <path fill="none" stroke="rgb(179,179,179)" stroke-linejoin="round" d="M 8705,8321 L 8705,8171"/>
 <path fill="none" stroke="rgb(179,179,179)" stroke-linejoin="round" d="M 9937,8321 L 9937,8171"/>
 <path fill="none" stroke="rgb(179,179,179)" stroke-linejoin="round" d="M 9937,8321 L 9937,8171"/>
 <path fill="none" stroke="rgb(179,179,179)" stroke-linejoin="round" d="M 11169,8321 L 11169,8171"/>
 <path fill="none" stroke="rgb(179,179,179)" stroke-linejoin="round" d="M 11169,8321 L 11169,8171"/>
 <path fill="none" stroke="rgb(179,179,179)" stroke-linejoin="round" d="M 12402,8321 L 12402,8171"/>
 <path fill="none" stroke="rgb(179,179,179)" stroke-linejoin="round" d="M 12402,8321 L 12402,8171"/>
 <path fill="none" stroke="rgb(179,179,179)" stroke-linejoin="round" d="M 1312,8171 L 12402,8171"/>
 <path fill="none" stroke="rgb(179,179,179)" stroke-linejoin="round" d="M 1162,8171 L 1312,8171"/>
 <path fill="none" stroke="rgb(179,179,179)" stroke-linejoin="round" d="M 1162,8171 L 1312,8171"/>
 <path fill="none" stroke="rgb(179,179,179)" stroke-linejoin="round" d="M 1162,7196 L 1312,7196"/>
 <path fill="none" stroke="rgb(179,179,179)" stroke-linejoin="round" d="M 1162,7196 L 1312,7196"/>
 <path fill="none" stroke="rgb(179,179,179)" stroke-linejoin="round" d="M 1162,6222 L 1312,6222"/>
 <path fill="none" stroke="rgb(179,179,179)" stroke-linejoin="round" d="M 1162,6222 L 1312,6222"/>
 <path fill="none" stroke="rgb(179,179,179)" stroke-linejoin="round" d="M 1162,5248 L 1312,5248"/>
 <path fill="none" stroke="rgb(179,179,179)" stroke-linejoin="round" d="M 1162,5248 L 1312,5248"/>
 <path fill="none" stroke="rgb(179,179,179)" stroke-linejoin="round" d="M 1162,4275 L 1312,4275"/>
 <path fill="none" stroke="rgb(179,179,179)" stroke-linejoin="round" d="M 1162,4275 L 1312,4275"/>
 <path fill="none" stroke="rgb(179,179,179)" stroke-linejoin="round" d="M 1162,3300 L 1312,3300"/>
 <path fill="none" stroke="rgb(179,179,179)" stroke-linejoin="round" d="M 1162,3300 L 1312,3300"/>
 <path fill="none" stroke="rgb(179,179,179)" stroke-linejoin="round" d="M 1162,2326 L 1312,2326"/>
 <path fill="none" stroke="rgb(179,179,179)" stroke-linejoin="round" d="M 1162,2326 L 1312,2326"/>
 <path fill="none" stroke="rgb(179,179,179)" stroke-linejoin="round" d="M 1162,1352 L 1312,1352"/>
 <path fill="none" stroke="rgb(179,179,179)" stroke-linejoin="round" d="M 1162,1352 L 1312,1352"/>
 <path fill="none" stroke="rgb(179,179,179)" stroke-linejoin="round" d="M 1162,378 L 1312,378"/>
 <path fill="none" stroke="rgb(179,179,179)" stroke-linejoin="round" d="M 1162,378 L 1312,378"/>
 <path fill="none" stroke="rgb(179,179,179)" stroke-linejoin="round" d="M 1312,8171 L 1312,378"/>
 <path fill="none" stroke="rgb(87,157,28)" stroke-width="80" stroke-linejoin="round" d="M 1312,5084 L 1681,4168 2051,1654 2421,906 2667,3739 4516,6708 6734,7211 11785,7679"/>
 <path fill="rgb(87,157,28)" stroke="none" d="M 1187,5209 L 1437,5209 1312,4959 1187,5209 Z"/>
 <path fill="none" stroke="rgb(87,157,28)" stroke-linejoin="round" d="M 1187,5209 L 1437,5209 1312,4959 1187,5209 Z"/>
 <path fill="rgb(87,157,28)" stroke="none" d="M 1556,4293 L 1806,4293 1681,4043 1556,4293 Z"/>
 <path fill="none" stroke="rgb(87,157,28)" stroke-linejoin="round" d="M 1556,4293 L 1806,4293 1681,4043 1556,4293 Z"/>
 <path fill="rgb(87,157,28)" stroke="none" d="M 1926,1779 L 2176,1779 2051,1529 1926,1779 Z"/>
 <path fill="none" stroke="rgb(87,157,28)" stroke-linejoin="round" d="M 1926,1779 L 2176,1779 2051,1529 1926,1779 Z"/>
 <path fill="rgb(87,157,28)" stroke="none" d="M 2296,1031 L 2546,1031 2421,781 2296,1031 Z"/>
 <path fill="none" stroke="rgb(87,157,28)" stroke-linejoin="round" d="M 2296,1031 L 2546,1031 2421,781 2296,1031 Z"/>
 <path fill="rgb(87,157,28)" stroke="none" d="M 2542,3864 L 2792,3864 2667,3614 2542,3864 Z"/>
 <path fill="none" stroke="rgb(87,157,28)" stroke-linejoin="round" d="M 2542,3864 L 2792,3864 2667,3614 2542,3864 Z"/>
 <path fill="rgb(87,157,28)" stroke="none" d="M 4391,6833 L 4641,6833 4516,6583 4391,6833 Z"/>
 <path fill="none" stroke="rgb(87,157,28)" stroke-linejoin="round" d="M 4391,6833 L 4641,6833 4516,6583 4391,6833 Z"/>
 <path fill="rgb(87,157,28)" stroke="none" d="M 6609,7336 L 6859,7336 6734,7086 6609,7336 Z"/>
 <path fill="none" stroke="rgb(87,157,28)" stroke-linejoin="round" d="M 6609,7336 L 6859,7336 6734,7086 6609,7336 Z"/>
 <path fill="rgb(87,157,28)" stroke="none" d="M 11660,7804 L 11910,7804 11785,7554 11660,7804 Z"/>
 <path fill="none" stroke="rgb(87,157,28)" stroke-linejoin="round" d="M 11660,7804 L 11910,7804 11785,7554 11660,7804 Z"/>
 <path fill="none" stroke="rgb(255,211,32)" stroke-width="80" stroke-linejoin="round" d="M 1312,5136 L 1681,4749 2051,4259 2421,4581 2667,5055 4516,5729 6734,7198 11785,7193"/>
 <path fill="rgb(255,211,32)" stroke="none" d="M 1187,5011 L 1312,5261 1437,5011 1187,5011 Z"/>
 <path fill="none" stroke="rgb(255,211,32)" stroke-linejoin="round" d="M 1187,5011 L 1312,5261 1437,5011 1187,5011 Z"/>
 <path fill="rgb(255,211,32)" stroke="none" d="M 1556,4624 L 1681,4874 1806,4624 1556,4624 Z"/>
 <path fill="none" stroke="rgb(255,211,32)" stroke-linejoin="round" d="M 1556,4624 L 1681,4874 1806,4624 1556,4624 Z"/>
 <path fill="rgb(255,211,32)" stroke="none" d="M 1926,4134 L 2051,4384 2176,4134 1926,4134 Z"/>
 <path fill="none" stroke="rgb(255,211,32)" stroke-linejoin="round" d="M 1926,4134 L 2051,4384 2176,4134 1926,4134 Z"/>
 <path fill="rgb(255,211,32)" stroke="none" d="M 2296,4457 L 2421,4706 2546,4457 2296,4457 Z"/>
 <path fill="none" stroke="rgb(255,211,32)" stroke-linejoin="round" d="M 2296,4457 L 2421,4706 2546,4457 2296,4457 Z"/>
 <path fill="rgb(255,211,32)" stroke="none" d="M 2542,4930 L 2667,5180 2792,4930 2542,4930 Z"/>
 <path fill="none" stroke="rgb(255,211,32)" stroke-linejoin="round" d="M 2542,4930 L 2667,5180 2792,4930 2542,4930 Z"/>
 <path fill="rgb(255,211,32)" stroke="none" d="M 4391,5604 L 4516,5854 4641,5604 4391,5604 Z"/>
 <path fill="none" stroke="rgb(255,211,32)" stroke-linejoin="round" d="M 4391,5604 L 4516,5854 4641,5604 4391,5604 Z"/>
 <path fill="rgb(255,211,32)" stroke="none" d="M 6609,7073 L 6734,7323 6859,7073 6609,7073 Z"/>
 <path fill="none" stroke="rgb(255,211,32)" stroke-linejoin="round" d="M 6609,7073 L 6734,7323 6859,7073 6609,7073 Z"/>
 <path fill="rgb(255,211,32)" stroke="none" d="M 11660,7068 L 11785,7318 11910,7068 11660,7068 Z"/>
 <path fill="none" stroke="rgb(255,211,32)" stroke-linejoin="round" d="M 11660,7068 L 11785,7318 11910,7068 11660,7068 Z"/>
 <path fill="none" stroke="rgb(255,66,14)" stroke-width="80" stroke-linejoin="round" d="M 1312,5136 L 1681,4129 2051,3138 2421,4500 2667,5027 4516,5675 6734,5469 11785,7273"/>
 <path fill="rgb(255,66,14)" stroke="none" d="M 1187,5136 L 1312,5261 1437,5136 1312,5011 1187,5136 Z"/>
 <path fill="none" stroke="rgb(255,66,14)" stroke-linejoin="round" d="M 1187,5136 L 1312,5261 1437,5136 1312,5011 1187,5136 Z"/>
 <path fill="rgb(255,66,14)" stroke="none" d="M 1556,4129 L 1681,4254 1806,4129 1681,4004 1556,4129 Z"/>
 <path fill="none" stroke="rgb(255,66,14)" stroke-linejoin="round" d="M 1556,4129 L 1681,4254 1806,4129 1681,4004 1556,4129 Z"/>
 <path fill="rgb(255,66,14)" stroke="none" d="M 1926,3138 L 2051,3263 2176,3138 2051,3013 1926,3138 Z"/>
 <path fill="none" stroke="rgb(255,66,14)" stroke-linejoin="round" d="M 1926,3138 L 2051,3263 2176,3138 2051,3013 1926,3138 Z"/>
 <path fill="rgb(255,66,14)" stroke="none" d="M 2296,4500 L 2421,4624 2546,4500 2421,4375 2296,4500 Z"/>
 <path fill="none" stroke="rgb(255,66,14)" stroke-linejoin="round" d="M 2296,4500 L 2421,4624 2546,4500 2421,4375 2296,4500 Z"/>
 <path fill="rgb(255,66,14)" stroke="none" d="M 2542,5027 L 2667,5152 2792,5027 2667,4902 2542,5027 Z"/>
 <path fill="none" stroke="rgb(255,66,14)" stroke-linejoin="round" d="M 2542,5027 L 2667,5152 2792,5027 2667,4902 2542,5027 Z"/>
 <path fill="rgb(255,66,14)" stroke="none" d="M 4391,5675 L 4516,5800 4641,5675 4516,5550 4391,5675 Z"/>
 <path fill="none" stroke="rgb(255,66,14)" stroke-linejoin="round" d="M 4391,5675 L 4516,5800 4641,5675 4516,5550 4391,5675 Z"/>
 <path fill="rgb(255,66,14)" stroke="none" d="M 6609,5469 L 6734,5594 6859,5469 6734,5344 6609,5469 Z"/>
 <path fill="none" stroke="rgb(255,66,14)" stroke-linejoin="round" d="M 6609,5469 L 6734,5594 6859,5469 6734,5344 6609,5469 Z"/>
 <path fill="rgb(255,66,14)" stroke="none" d="M 11660,7273 L 11785,7398 11910,7273 11785,7148 11660,7273 Z"/>
 <path fill="none" stroke="rgb(255,66,14)" stroke-linejoin="round" d="M 11660,7273 L 11785,7398 11910,7273 11785,7148 11660,7273 Z"/>
 <path fill="none" stroke="rgb(0,69,134)" stroke-width="80" stroke-linejoin="round" d="M 1312,5085 L 1681,4021 2051,4187 2421,4545 2667,5050 4516,5664 6734,7155 11785,7424"/>
 <path fill="rgb(0,69,134)" stroke="none" d="M 1187,4960 L 1187,5210 1437,5210 1437,4960 1187,4960 Z"/>
 <path fill="none" stroke="rgb(0,69,134)" stroke-linejoin="round" d="M 1187,4960 L 1187,5210 1437,5210 1437,4960 1187,4960 Z"/>
 <path fill="rgb(0,69,134)" stroke="none" d="M 1556,3896 L 1556,4146 1806,4146 1806,3896 1556,3896 Z"/>
 <path fill="none" stroke="rgb(0,69,134)" stroke-linejoin="round" d="M 1556,3896 L 1556,4146 1806,4146 1806,3896 1556,3896 Z"/>
 <path fill="rgb(0,69,134)" stroke="none" d="M 1926,4062 L 1926,4312 2176,4312 2176,4062 1926,4062 Z"/>
 <path fill="none" stroke="rgb(0,69,134)" stroke-linejoin="round" d="M 1926,4062 L 1926,4312 2176,4312 2176,4062 1926,4062 Z"/>
 <path fill="rgb(0,69,134)" stroke="none" d="M 2296,4421 L 2296,4670 2546,4670 2546,4421 2296,4421 Z"/>
 <path fill="none" stroke="rgb(0,69,134)" stroke-linejoin="round" d="M 2296,4421 L 2296,4670 2546,4670 2546,4421 2296,4421 Z"/>
 <path fill="rgb(0,69,134)" stroke="none" d="M 2542,4925 L 2542,5175 2792,5175 2792,4925 2542,4925 Z"/>
 <path fill="none" stroke="rgb(0,69,134)" stroke-linejoin="round" d="M 2542,4925 L 2542,5175 2792,5175 2792,4925 2542,4925 Z"/>
 <path fill="rgb(0,69,134)" stroke="none" d="M 4391,5539 L 4391,5789 4641,5789 4641,5539 4391,5539 Z"/>
 <path fill="none" stroke="rgb(0,69,134)" stroke-linejoin="round" d="M 4391,5539 L 4391,5789 4641,5789 4641,5539 4391,5539 Z"/>
 <path fill="rgb(0,69,134)" stroke="none" d="M 6609,7030 L 6609,7280 6859,7280 6859,7030 6609,7030 Z"/>
 <path fill="none" stroke="rgb(0,69,134)" stroke-linejoin="round" d="M 6609,7030 L 6609,7280 6859,7280 6859,7030 6609,7030 Z"/>
 <path fill="rgb(0,69,134)" stroke="none" d="M 11660,7299 L 11660,7549 11910,7549 11910,7299 11660,7299 Z"/>
 <path fill="none" stroke="rgb(0,69,134)" stroke-linejoin="round" d="M 11660,7299 L 11660,7549 11910,7549 11910,7299 11660,7299 Z"/>
 <text class="TextShape"><tspan class="TextParagraph" font-family="Liberation Sans, sans-serif" font-size="353px" font-weight="400"><tspan class="TextPosition" x="1219" y="8739"><tspan fill="rgb(0,0,0)" stroke="none">0</tspan></tspan></tspan></text>
 <text class="TextShape"><tspan class="TextParagraph" font-family="Liberation Sans, sans-serif" font-size="353px" font-weight="400"><tspan class="TextPosition" x="2359" y="8739"><tspan fill="rgb(0,0,0)" stroke="none">10</tspan></tspan></tspan></text>
 <text class="TextShape"><tspan class="TextParagraph" font-family="Liberation Sans, sans-serif" font-size="353px" font-weight="400"><tspan class="TextPosition" x="3591" y="8739"><tspan fill="rgb(0,0,0)" stroke="none">20</tspan></tspan></tspan></text>
 <text class="TextShape"><tspan class="TextParagraph" font-family="Liberation Sans, sans-serif" font-size="353px" font-weight="400"><tspan class="TextPosition" x="4824" y="8739"><tspan fill="rgb(0,0,0)" stroke="none">30</tspan></tspan></tspan></text>
 <text class="TextShape"><tspan class="TextParagraph" font-family="Liberation Sans, sans-serif" font-size="353px" font-weight="400"><tspan class="TextPosition" x="6056" y="8739"><tspan fill="rgb(0,0,0)" stroke="none">40</tspan></tspan></tspan></text>
 <text class="TextShape"><tspan class="TextParagraph" font-family="Liberation Sans, sans-serif" font-size="353px" font-weight="400"><tspan class="TextPosition" x="7288" y="8739"><tspan fill="rgb(0,0,0)" stroke="none">50</tspan></tspan></tspan></text>
 <text class="TextShape"><tspan class="TextParagraph" font-family="Liberation Sans, sans-serif" font-size="353px" font-weight="400"><tspan class="TextPosition" x="8521" y="8739"><tspan fill="rgb(0,0,0)" stroke="none">60</tspan></tspan></tspan></text>
 <text class="TextShape"><tspan class="TextParagraph" font-family="Liberation Sans, sans-serif" font-size="353px" font-weight="400"><tspan class="TextPosition" x="9753" y="8739"><tspan fill="rgb(0,0,0)" stroke="none">70</tspan></tspan></tspan></text>
 <text class="TextShape"><tspan class="TextParagraph" font-family="Liberation Sans, sans-serif" font-size="353px" font-weight="400"><tspan class="TextPosition" x="10985" y="8739"><tspan fill="rgb(0,0,0)" stroke="none">80</tspan></tspan></tspan></text>
 <text class="TextShape"><tspan class="TextParagraph" font-family="Liberation Sans, sans-serif" font-size="353px" font-weight="400"><tspan class="TextPosition" x="12218" y="8739"><tspan fill="rgb(0,0,0)" stroke="none">90</tspan></tspan></tspan></text>
 <text class="TextShape"><tspan class="TextParagraph" font-family="Liberation Sans, sans-serif" font-size="353px" font-weight="400"><tspan class="TextPosition" x="877" y="8292"><tspan fill="rgb(0,0,0)" stroke="none">0</tspan></tspan></tspan></text>
 <text class="TextShape"><tspan class="TextParagraph" font-family="Liberation Sans, sans-serif" font-size="353px" font-weight="400"><tspan class="TextPosition" x="321" y="7317"><tspan fill="rgb(0,0,0)" stroke="none">2000</tspan></tspan></tspan></text>
 <text class="TextShape"><tspan class="TextParagraph" font-family="Liberation Sans, sans-serif" font-size="353px" font-weight="400"><tspan class="TextPosition" x="321" y="6343"><tspan fill="rgb(0,0,0)" stroke="none">4000</tspan></tspan></tspan></text>
 <text class="TextShape"><tspan class="TextParagraph" font-family="Liberation Sans, sans-serif" font-size="353px" font-weight="400"><tspan class="TextPosition" x="321" y="5369"><tspan fill="rgb(0,0,0)" stroke="none">6000</tspan></tspan></tspan></text>
 <text class="TextShape"><tspan class="TextParagraph" font-family="Liberation Sans, sans-serif" font-size="353px" font-weight="400"><tspan class="TextPosition" x="321" y="4395"><tspan fill="rgb(0,0,0)" stroke="none">8000</tspan></tspan></tspan></text>
 <text class="TextShape"><tspan class="TextParagraph" font-family="Liberation Sans, sans-serif" font-size="353px" font-weight="400"><tspan class="TextPosition" x="136" y="3420"><tspan fill="rgb(0,0,0)" stroke="none">10000</tspan></tspan></tspan></text>
 <text class="TextShape"><tspan class="TextParagraph" font-family="Liberation Sans, sans-serif" font-size="353px" font-weight="400"><tspan class="TextPosition" x="136" y="2446"><tspan fill="rgb(0,0,0)" stroke="none">12000</tspan></tspan></tspan></text>
 <text class="TextShape"><tspan class="TextParagraph" font-family="Liberation Sans, sans-serif" font-size="353px" font-weight="400"><tspan class="TextPosition" x="136" y="1472"><tspan fill="rgb(0,0,0)" stroke="none">14000</tspan></tspan></tspan></text>
 <text class="TextShape"><tspan class="TextParagraph" font-family="Liberation Sans, sans-serif" font-size="353px" font-weight="400"><tspan class="TextPosition" x="136" y="498"><tspan fill="rgb(0,0,0)" stroke="none">16000</tspan></tspan></tspan></text>
 <path fill="none" stroke="rgb(0,69,134)" stroke-width="80" stroke-linejoin="round" d="M 13210,3752 L 14010,3752"/>
 <path fill="rgb(0,69,134)" stroke="none" d="M 13504,3647 L 13504,3858 13715,3858 13715,3647 13504,3647 Z"/>
 <path fill="none" stroke="rgb(0,69,134)" stroke-linejoin="round" d="M 13504,3647 L 13504,3858 13715,3858 13715,3647 13504,3647 Z"/>
 <path fill="none" stroke="rgb(255,66,14)" stroke-width="80" stroke-linejoin="round" d="M 13210,4250 L 14010,4250"/>
 <path fill="rgb(255,66,14)" stroke="none" d="M 13504,4250 L 13610,4356 13715,4250 13610,4145 13504,4250 Z"/>
 <path fill="none" stroke="rgb(255,66,14)" stroke-linejoin="round" d="M 13504,4250 L 13610,4356 13715,4250 13610,4145 13504,4250 Z"/>
 <path fill="none" stroke="rgb(255,211,32)" stroke-width="80" stroke-linejoin="round" d="M 13210,4747 L 14010,4747"/>
 <path fill="rgb(255,211,32)" stroke="none" d="M 13504,4642 L 13610,4853 13715,4642 13504,4642 Z"/>
 <path fill="none" stroke="rgb(255,211,32)" stroke-linejoin="round" d="M 13504,4642 L 13610,4853 13715,4642 13504,4642 Z"/>
 <path fill="none" stroke="rgb(87,157,28)" stroke-width="80" stroke-linejoin="round" d="M 13210,5245 L 14010,5245"/>
 <path fill="rgb(87,157,28)" stroke="none" d="M 13504,5351 L 13715,5351 13610,5140 13504,5351 Z"/>
 <path fill="none" stroke="rgb(87,157,28)" stroke-linejoin="round" d="M 13504,5351 L 13715,5351 13610,5140 13504,5351 Z"/>
 <text class="TextShape"><tspan class="TextParagraph" font-family="Liberation Sans, sans-serif" font-size="353px" font-weight="400"><tspan class="TextPosition" x="14110" y="3872"><tspan fill="rgb(0,0,0)" stroke="none">between</tspan></tspan></tspan></text>
 <text class="TextShape"><tspan class="TextParagraph" font-family="Liberation Sans, sans-serif" font-size="353px" font-weight="400"><tspan class="TextPosition" x="14110" y="4370"><tspan fill="rgb(0,0,0)" stroke="none">closeness</tspan></tspan></tspan></text>
 <text class="TextShape"><tspan class="TextParagraph" font-family="Liberation Sans, sans-serif" font-size="353px" font-weight="400"><tspan class="TextPosition" x="14110" y="4867"><tspan fill="rgb(0,0,0)" stroke="none">page</tspan></tspan></tspan></text>
 <text class="TextShape"><tspan class="TextParagraph" font-family="Liberation Sans, sans-serif" font-size="353px" font-weight="400"><tspan class="TextPosition" x="14110" y="5365"><tspan fill="rgb(0,0,0)" stroke="none">random</tspan></tspan></tspan></text>
</svg>