<?xml version="1.0" encoding="UTF-8"?>
<!DOCTYPE svg PUBLIC "-//W3C//DTD SVG 1.1//EN" "http://www.w3.org/Graphics/SVG/1.1/DTD/svg11.dtd">
<svg width="160mm" height="90mm" viewBox="0 0 16000 9000" version="1.1" xmlns="http://www.w3.org/2000/svg" stroke-width="28.222" stroke-linejoin="round" xml:space="preserve">
 <path fill="rgb(255,255,255)" stroke="none" d="M 8000,8999 L 0,8999 0,0 15999,0 15999,8999 8000,8999 Z"/>
 <path fill="none" stroke="rgb(179,179,179)" stroke-linejoin="round" d="M 7177,7191 L 1952,7191 1952,379 12401,379 12401,7191 7177,7191 Z"/>
 <path fill="none" stroke="rgb(179,179,179)" stroke-linejoin="round" d="M 12400,7190 L 1952,7190"/>
 <path fill="none" stroke="rgb(179,179,179)" stroke-linejoin="round" d="M 12400,6054 L 1952,6054"/>
 <path fill="none" stroke="rgb(179,179,179)" stroke-linejoin="round" d="M 12400,4919 L 1952,4919"/>
 <path fill="none" stroke="rgb(179,179,179)" stroke-linejoin="round" d="M 12400,3784 L 1952,3784"/>
 <path fill="none" stroke="rgb(179,179,179)" stroke-linejoin="round" d="M 12400,2649 L 1952,2649"/>
 <path fill="none" stroke="rgb(179,179,179)" stroke-linejoin="round" d="M 12400,1513 L 1952,1513"/>
 <path fill="none" stroke="rgb(179,179,179)" stroke-linejoin="round" d="M 12400,378 L 1952,378"/>
 <path fill="none" stroke="rgb(179,179,179)" stroke-linejoin="round" d="M 1952,7340 L 1952,7190"/>
 <path fill="none" stroke="rgb(179,179,179)" stroke-linejoin="round" d="M 1952,7340 L 1952,7190"/>
 <path fill="none" stroke="rgb(179,179,179)" stroke-linejoin="round" d="M 3113,7340 L 3113,7190"/>
 <path fill="none" stroke="rgb(179,179,179)" stroke-linejoin="round" d="M 3113,7340 L 3113,7190"/>
 <path fill="none" stroke="rgb(179,179,179)" stroke-linejoin="round" d="M 4274,7340 L 4274,7190"/>
 <path fill="none" stroke="rgb(179,179,179)" stroke-linejoin="round" d="M 4274,7340 L 4274,7190"/>
 <path fill="none" stroke="rgb(179,179,179)" stroke-linejoin="round" d="M 5435,7340 L 5435,7190"/>
 <path fill="none" stroke="rgb(179,179,179)" stroke-linejoin="round" d="M 5435,7340 L 5435,7190"/>
 <path fill="none" stroke="rgb(179,179,179)" stroke-linejoin="round" d="M 6596,7340 L 6596,7190"/>
 <path fill="none" stroke="rgb(179,179,179)" stroke-linejoin="round" d="M 6596,7340 L 6596,7190"/>
 <path fill="none" stroke="rgb(179,179,179)" stroke-linejoin="round" d="M 7757,7340 L 7757,7190"/>
 <path fill="none" stroke="rgb(179,179,179)" stroke-linejoin="round" d="M 7757,7340 L 7757,7190"/>
 <path fill="none" stroke="rgb(179,179,179)" stroke-linejoin="round" d="M 8917,7340 L 8917,7190"/>
 <path fill="none" stroke="rgb(179,179,179)" stroke-linejoin="round" d="M 8917,7340 L 8917,7190"/>
 <path fill="none" stroke="rgb(179,179,179)" stroke-linejoin="round" d="M 10078,7340 L 10078,7190"/>
 <path fill="none" stroke="rgb(179,179,179)" stroke-linejoin="round" d="M 10078,7340 L 10078,7190"/>
 <path fill="none" stroke="rgb(179,179,179)" stroke-linejoin="round" d="M 11239,7340 L 11239,7190"/>
 <path fill="none" stroke="rgb(179,179,179)" stroke-linejoin="round" d="M 11239,7340 L 11239,7190"/>
 <path fill="none" stroke="rgb(179,179,179)" stroke-linejoin="round" d="M 12400,7340 L 12400,7190"/>
 <path fill="none" stroke="rgb(179,179,179)" stroke-linejoin="round" d="M 12400,7340 L 12400,7190"/>
 <path fill="none" stroke="rgb(179,179,179)" stroke-linejoin="round" d="M 1952,7190 L 12400,7190"/>
 <path fill="none" stroke="rgb(179,179,179)" stroke-linejoin="round" d="M 1802,7190 L 1952,7190"/>
 <path fill="none" stroke="rgb(179,179,179)" stroke-linejoin="round" d="M 1802,7190 L 1952,7190"/>
 <path fill="none" stroke="rgb(179,179,179)" stroke-linejoin="round" d="M 1802,6054 L 1952,6054"/>
 <path fill="none" stroke="rgb(179,179,179)" stroke-linejoin="round" d="M 1802,6054 L 1952,6054"/>
 <path fill="none" stroke="rgb(179,179,179)" stroke-linejoin="round" d="M 1802,4919 L 1952,4919"/>
 <path fill="none" stroke="rgb(179,179,179)" stroke-linejoin="round" d="M 1802,4919 L 1952,4919"/>
 <path fill="none" stroke="rgb(179,179,179)" stroke-linejoin="round" d="M 1802,3784 L 1952,3784"/>
 <path fill="none" stroke="rgb(179,179,179)" stroke-linejoin="round" d="M 1802,3784 L 1952,3784"/>
 <path fill="none" stroke="rgb(179,179,179)" stroke-linejoin="round" d="M 1802,2649 L 1952,2649"/>
 <path fill="none" stroke="rgb(179,179,179)" stroke-linejoin="round" d="M 1802,2649 L 1952,2649"/>
 <path fill="none" stroke="rgb(179,179,179)" stroke-linejoin="round" d="M 1802,1513 L 1952,1513"/>
 <path fill="none" stroke="rgb(179,179,179)" stroke-linejoin="round" d="M 1802,1513 L 1952,1513"/>
 <path fill="none" stroke="rgb(179,179,179)" stroke-linejoin="round" d="M 1802,378 L 1952,378"/>
 <path fill="none" stroke="rgb(179,179,179)" stroke-linejoin="round" d="M 1802,378 L 1952,378"/>
 <path fill="none" stroke="rgb(179,179,179)" stroke-linejoin="round" d="M 1952,7190 L 1952,378"/>
 <path fill="none" stroke="rgb(87,157,28)" stroke-width="80" stroke-linejoin="round" d="M 1952,7190 L 2300,6609 2648,5410 2997,3986 3229,2870 4970,1606 7060,1537 11820,1523"/>
 <path fill="rgb(87,157,28)" stroke="none" d="M 1827,7315 L 2077,7315 1952,7065 1827,7315 Z"/>
 <path fill="none" stroke="rgb(87,157,28)" stroke-linejoin="round" d="M 1827,7315 L 2077,7315 1952,7065 1827,7315 Z"/>
 <path fill="rgb(87,157,28)" stroke="none" d="M 2175,6734 L 2425,6734 2300,6484 2175,6734 Z"/>
 <path fill="none" stroke="rgb(87,157,28)" stroke-linejoin="round" d="M 2175,6734 L 2425,6734 2300,6484 2175,6734 Z"/>
 <path fill="rgb(87,157,28)" stroke="none" d="M 2523,5535 L 2773,5535 2648,5285 2523,5535 Z"/>
 <path fill="none" stroke="rgb(87,157,28)" stroke-linejoin="round" d="M 2523,5535 L 2773,5535 2648,5285 2523,5535 Z"/>
 <path fill="rgb(87,157,28)" stroke="none" d="M 2872,4111 L 3122,4111 2997,3861 2872,4111 Z"/>
 <path fill="none" stroke="rgb(87,157,28)" stroke-linejoin="round" d="M 2872,4111 L 3122,4111 2997,3861 2872,4111 Z"/>
 <path fill="rgb(87,157,28)" stroke="none" d="M 3104,2995 L 3354,2995 3229,2745 3104,2995 Z"/>
 <path fill="none" stroke="rgb(87,157,28)" stroke-linejoin="round" d="M 3104,2995 L 3354,2995 3229,2745 3104,2995 Z"/>
 <path fill="rgb(87,157,28)" stroke="none" d="M 4845,1731 L 5095,1731 4970,1481 4845,1731 Z"/>
 <path fill="none" stroke="rgb(87,157,28)" stroke-linejoin="round" d="M 4845,1731 L 5095,1731 4970,1481 4845,1731 Z"/>
 <path fill="rgb(87,157,28)" stroke="none" d="M 6935,1662 L 7185,1662 7060,1412 6935,1662 Z"/>
 <path fill="none" stroke="rgb(87,157,28)" stroke-linejoin="round" d="M 6935,1662 L 7185,1662 7060,1412 6935,1662 Z"/>
 <path fill="rgb(87,157,28)" stroke="none" d="M 11695,1648 L 11945,1648 11820,1398 11695,1648 Z"/>
 <path fill="none" stroke="rgb(87,157,28)" stroke-linejoin="round" d="M 11695,1648 L 11945,1648 11820,1398 11695,1648 Z"/>
 <path fill="none" stroke="rgb(255,211,32)" stroke-width="80" stroke-linejoin="round" d="M 1952,7190 L 2300,6835 2648,6037 2997,4065 3229,2521 4970,1791 7060,1522 11820,1528"/>
 <path fill="rgb(255,211,32)" stroke="none" d="M 1827,7065 L 1952,7315 2077,7065 1827,7065 Z"/>
 <path fill="none" stroke="rgb(255,211,32)" stroke-linejoin="round" d="M 1827,7065 L 1952,7315 2077,7065 1827,7065 Z"/>
 <path fill="rgb(255,211,32)" stroke="none" d="M 2175,6710 L 2300,6960 2425,6710 2175,6710 Z"/>
 <path fill="none" stroke="rgb(255,211,32)" stroke-linejoin="round" d="M 2175,6710 L 2300,6960 2425,6710 2175,6710 Z"/>
 <path fill="rgb(255,211,32)" stroke="none" d="M 2523,5912 L 2648,6162 2773,5912 2523,5912 Z"/>
 <path fill="none" stroke="rgb(255,211,32)" stroke-linejoin="round" d="M 2523,5912 L 2648,6162 2773,5912 2523,5912 Z"/>
 <path fill="rgb(255,211,32)" stroke="none" d="M 2872,3940 L 2997,4190 3122,3940 2872,3940 Z"/>
 <path fill="none" stroke="rgb(255,211,32)" stroke-linejoin="round" d="M 2872,3940 L 2997,4190 3122,3940 2872,3940 Z"/>
 <path fill="rgb(255,211,32)" stroke="none" d="M 3104,2396 L 3229,2646 3354,2396 3104,2396 Z"/>
 <path fill="none" stroke="rgb(255,211,32)" stroke-linejoin="round" d="M 3104,2396 L 3229,2646 3354,2396 3104,2396 Z"/>
 <path fill="rgb(255,211,32)" stroke="none" d="M 4845,1666 L 4970,1916 5095,1666 4845,1666 Z"/>
 <path fill="none" stroke="rgb(255,211,32)" stroke-linejoin="round" d="M 4845,1666 L 4970,1916 5095,1666 4845,1666 Z"/>
 <path fill="rgb(255,211,32)" stroke="none" d="M 6935,1397 L 7060,1647 7185,1397 6935,1397 Z"/>
 <path fill="none" stroke="rgb(255,211,32)" stroke-linejoin="round" d="M 6935,1397 L 7060,1647 7185,1397 6935,1397 Z"/>
 <path fill="rgb(255,211,32)" stroke="none" d="M 11695,1403 L 11820,1653 11945,1403 11695,1403 Z"/>
 <path fill="none" stroke="rgb(255,211,32)" stroke-linejoin="round" d="M 11695,1403 L 11820,1653 11945,1403 11695,1403 Z"/>
 <path fill="none" stroke="rgb(255,66,14)" stroke-width="80" stroke-linejoin="round" d="M 1952,7190 L 2300,6777 2648,5416 2997,3979 3229,2493 4970,1795 7060,1831 11820,1527"/>
 <path fill="rgb(255,66,14)" stroke="none" d="M 1827,7190 L 1952,7315 2077,7190 1952,7065 1827,7190 Z"/>
 <path fill="none" stroke="rgb(255,66,14)" stroke-linejoin="round" d="M 1827,7190 L 1952,7315 2077,7190 1952,7065 1827,7190 Z"/>
 <path fill="rgb(255,66,14)" stroke="none" d="M 2175,6777 L 2300,6902 2425,6777 2300,6652 2175,6777 Z"/>
 <path fill="none" stroke="rgb(255,66,14)" stroke-linejoin="round" d="M 2175,6777 L 2300,6902 2425,6777 2300,6652 2175,6777 Z"/>
 <path fill="rgb(255,66,14)" stroke="none" d="M 2523,5416 L 2648,5541 2773,5416 2648,5291 2523,5416 Z"/>
 <path fill="none" stroke="rgb(255,66,14)" stroke-linejoin="round" d="M 2523,5416 L 2648,5541 2773,5416 2648,5291 2523,5416 Z"/>
 <path fill="rgb(255,66,14)" stroke="none" d="M 2872,3979 L 2997,4104 3122,3979 2997,3854 2872,3979 Z"/>
 <path fill="none" stroke="rgb(255,66,14)" stroke-linejoin="round" d="M 2872,3979 L 2997,4104 3122,3979 2997,3854 2872,3979 Z"/>
 <path fill="rgb(255,66,14)" stroke="none" d="M 3104,2493 L 3229,2618 3354,2493 3229,2368 3104,2493 Z"/>
 <path fill="none" stroke="rgb(255,66,14)" stroke-linejoin="round" d="M 3104,2493 L 3229,2618 3354,2493 3229,2368 3104,2493 Z"/>
 <path fill="rgb(255,66,14)" stroke="none" d="M 4845,1795 L 4970,1920 5095,1795 4970,1670 4845,1795 Z"/>
 <path fill="none" stroke="rgb(255,66,14)" stroke-linejoin="round" d="M 4845,1795 L 4970,1920 5095,1795 4970,1670 4845,1795 Z"/>
 <path fill="rgb(255,66,14)" stroke="none" d="M 6935,1831 L 7060,1956 7185,1831 7060,1706 6935,1831 Z"/>
 <path fill="none" stroke="rgb(255,66,14)" stroke-linejoin="round" d="M 6935,1831 L 7060,1956 7185,1831 7060,1706 6935,1831 Z"/>
 <path fill="rgb(255,66,14)" stroke="none" d="M 11695,1527 L 11820,1652 11945,1527 11820,1402 11695,1527 Z"/>
 <path fill="none" stroke="rgb(255,66,14)" stroke-linejoin="round" d="M 11695,1527 L 11820,1652 11945,1527 11820,1402 11695,1527 Z"/>
 <path fill="none" stroke="rgb(0,69,134)" stroke-width="80" stroke-linejoin="round" d="M 1952,7190 L 2300,6760 2648,6066 2997,4070 3229,2526 4970,1800 7060,1519 11820,1524"/>
 <path fill="rgb(0,69,134)" stroke="none" d="M 1827,7065 L 1827,7315 2077,7315 2077,7065 1827,7065 Z"/>
 <path fill="none" stroke="rgb(0,69,134)" stroke-linejoin="round" d="M 1827,7065 L 1827,7315 2077,7315 2077,7065 1827,7065 Z"/>
 <path fill="rgb(0,69,134)" stroke="none" d="M 2175,6635 L 2175,6885 2425,6885 2425,6635 2175,6635 Z"/>
 <path fill="none" stroke="rgb(0,69,134)" stroke-linejoin="round" d="M 2175,6635 L 2175,6885 2425,6885 2425,6635 2175,6635 Z"/>
 <path fill="rgb(0,69,134)" stroke="none" d="M 2523,5941 L 2523,6191 2773,6191 2773,5941 2523,5941 Z"/>
 <path fill="none" stroke="rgb(0,69,134)" stroke-linejoin="round" d="M 2523,5941 L 2523,6191 2773,6191 2773,5941 2523,5941 Z"/>
 <path fill="rgb(0,69,134)" stroke="none" d="M 2872,3945 L 2872,4195 3122,4195 3122,3945 2872,3945 Z"/>
 <path fill="none" stroke="rgb(0,69,134)" stroke-linejoin="round" d="M 2872,3945 L 2872,4195 3122,4195 3122,3945 2872,3945 Z"/>
 <path fill="rgb(0,69,134)" stroke="none" d="M 3104,2401 L 3104,2651 3354,2651 3354,2401 3104,2401 Z"/>
 <path fill="none" stroke="rgb(0,69,134)" stroke-linejoin="round" d="M 3104,2401 L 3104,2651 3354,2651 3354,2401 3104,2401 Z"/>
 <path fill="rgb(0,69,134)" stroke="none" d="M 4845,1675 L 4845,1925 5095,1925 5095,1675 4845,1675 Z"/>
 <path fill="none" stroke="rgb(0,69,134)" stroke-linejoin="round" d="M 4845,1675 L 4845,1925 5095,1925 5095,1675 4845,1675 Z"/>
 <path fill="rgb(0,69,134)" stroke="none" d="M 6935,1394 L 6935,1644 7185,1644 7185,1394 6935,1394 Z"/>
 <path fill="none" stroke="rgb(0,69,134)" stroke-linejoin="round" d="M 6935,1394 L 6935,1644 7185,1644 7185,1394 6935,1394 Z"/>
 <path fill="rgb(0,69,134)" stroke="none" d="M 11695,1399 L 11695,1649 11945,1649 11945,1399 11695,1399 Z"/>
 <path fill="none" stroke="rgb(0,69,134)" stroke-linejoin="round" d="M 11695,1399 L 11695,1649 11945,1649 11945,1399 11695,1399 Z"/>
 <text class="TextShape"><tspan class="TextParagraph" font-family="Liberation Sans" font-size="353px" font-weight="400"><tspan class="TextPosition" x="1859" y="7758"><tspan fill="rgb(0,0,0)" stroke="none">0</tspan></tspan></tspan></text>
 <text class="TextShape"><tspan class="TextParagraph" font-family="Liberation Sans" font-size="353px" font-weight="400"><tspan class="TextPosition" x="2928" y="7758"><tspan fill="rgb(0,0,0)" stroke="none">10</tspan></tspan></tspan></text>
 <text class="TextShape"><tspan class="TextParagraph" font-family="Liberation Sans" font-size="353px" font-weight="400"><tspan class="TextPosition" x="4089" y="7758"><tspan fill="rgb(0,0,0)" stroke="none">20</tspan></tspan></tspan></text>
 <text class="TextShape"><tspan class="TextParagraph" font-family="Liberation Sans" font-size="353px" font-weight="400"><tspan class="TextPosition" x="5250" y="7758"><tspan fill="rgb(0,0,0)" stroke="none">30</tspan></tspan></tspan></text>
 <text class="TextShape"><tspan class="TextParagraph" font-family="Liberation Sans" font-size="353px" font-weight="400"><tspan class="TextPosition" x="6411" y="7758"><tspan fill="rgb(0,0,0)" stroke="none">40</tspan></tspan></tspan></text>
 <text class="TextShape"><tspan class="TextParagraph" font-family="Liberation Sans" font-size="353px" font-weight="400"><tspan class="TextPosition" x="7572" y="7758"><tspan fill="rgb(0,0,0)" stroke="none">50</tspan></tspan></tspan></text>
 <text class="TextShape"><tspan class="TextParagraph" font-family="Liberation Sans" font-size="353px" font-weight="400"><tspan class="TextPosition" x="8733" y="7758"><tspan fill="rgb(0,0,0)" stroke="none">60</tspan></tspan></tspan></text>
 <text class="TextShape"><tspan class="TextParagraph" font-family="Liberation Sans" font-size="353px" font-weight="400"><tspan class="TextPosition" x="9894" y="7758"><tspan fill="rgb(0,0,0)" stroke="none">70</tspan></tspan></tspan></text>
 <text class="TextShape"><tspan class="TextParagraph" font-family="Liberation Sans" font-size="353px" font-weight="400"><tspan class="TextPosition" x="11055" y="7758"><tspan fill="rgb(0,0,0)" stroke="none">80</tspan></tspan></tspan></text>
 <text class="TextShape"><tspan class="TextParagraph" font-family="Liberation Sans" font-size="353px" font-weight="400"><tspan class="TextPosition" x="12216" y="7758"><tspan fill="rgb(0,0,0)" stroke="none">90</tspan></tspan></tspan></text>
 <text class="TextShape"><tspan class="TextParagraph" font-family="Liberation Sans" font-size="353px" font-weight="400"><tspan class="TextPosition" x="1517" y="7311"><tspan fill="rgb(0,0,0)" stroke="none">0</tspan></tspan></tspan></text>
 <text class="TextShape"><tspan class="TextParagraph" font-family="Liberation Sans" font-size="353px" font-weight="400"><tspan class="TextPosition" x="1332" y="6175"><tspan fill="rgb(0,0,0)" stroke="none">20</tspan></tspan></tspan></text>
 <text class="TextShape"><tspan class="TextParagraph" font-family="Liberation Sans" font-size="353px" font-weight="400"><tspan class="TextPosition" x="1332" y="5040"><tspan fill="rgb(0,0,0)" stroke="none">40</tspan></tspan></tspan></text>
 <text class="TextShape"><tspan class="TextParagraph" font-family="Liberation Sans" font-size="353px" font-weight="400"><tspan class="TextPosition" x="1332" y="3904"><tspan fill="rgb(0,0,0)" stroke="none">60</tspan></tspan></tspan></text>
 <text class="TextShape"><tspan class="TextParagraph" font-family="Liberation Sans" font-size="353px" font-weight="400"><tspan class="TextPosition" x="1332" y="2769"><tspan fill="rgb(0,0,0)" stroke="none">80</tspan></tspan></tspan></text>
 <text class="TextShape"><tspan class="TextParagraph" font-family="Liberation Sans" font-size="353px" font-weight="400"><tspan class="TextPosition" x="1146" y="1633"><tspan fill="rgb(0,0,0)" stroke="none">100</tspan></tspan></tspan></text>
 <text class="TextShape"><tspan class="TextParagraph" font-family="Liberation Sans" font-size="353px" font-weight="400"><tspan class="TextPosition" x="1146" y="498"><tspan fill="rgb(0,0,0)" stroke="none">120</tspan></tspan></tspan></text>
 <path fill="none" stroke="rgb(0,69,134)" stroke-width="80" stroke-linejoin="round" d="M 13210,3752 L 14010,3752"/>
 <path fill="rgb(0,69,134)" stroke="none" d="M 13504,3647 L 13504,3858 13715,3858 13715,3647 13504,3647 Z"/>
 <path fill="none" stroke="rgb(0,69,134)" stroke-linejoin="round" d="M 13504,3647 L 13504,3858 13715,3858 13715,3647 13504,3647 Z"/>
 <path fill="none" stroke="rgb(255,66,14)" stroke-width="80" stroke-linejoin="round" d="M 13210,4250 L 14010,4250"/>
 <path fill="rgb(255,66,14)" stroke="none" d="M 13504,4250 L 13610,4356 13715,4250 13610,4145 13504,4250 Z"/>
 <path fill="none" stroke="rgb(255,66,14)" stroke-linejoin="round" d="M 13504,4250 L 13610,4356 13715,4250 13610,4145 13504,4250 Z"/>
 <path fill="none" stroke="rgb(255,211,32)" stroke-width="80" stroke-linejoin="round" d="M 13210,4747 L 14010,4747"/>
 <path fill="rgb(255,211,32)" stroke="none" d="M 13504,4642 L 13610,4853 13715,4642 13504,4642 Z"/>
 <path fill="none" stroke="rgb(255,211,32)" stroke-linejoin="round" d="M 13504,4642 L 13610,4853 13715,4642 13504,4642 Z"/>
 <path fill="none" stroke="rgb(87,157,28)" stroke-width="80" stroke-linejoin="round" d="M 13210,5245 L 14010,5245"/>
 <path fill="rgb(87,157,28)" stroke="none" d="M 13504,5351 L 13715,5351 13610,5140 13504,5351 Z"/>
 <path fill="none" stroke="rgb(87,157,28)" stroke-linejoin="round" d="M 13504,5351 L 13715,5351 13610,5140 13504,5351 Z"/>
 <text class="TextShape"><tspan class="TextParagraph" font-family="Liberation Sans" font-size="353px" font-weight="400"><tspan class="TextPosition" x="14110" y="3872"><tspan fill="rgb(0,0,0)" stroke="none">between</tspan></tspan></tspan></text>
 <text class="TextShape"><tspan class="TextParagraph" font-family="Liberation Sans" font-size="353px" font-weight="400"><tspan class="TextPosition" x="14110" y="4370"><tspan fill="rgb(0,0,0)" stroke="none">closeness</tspan></tspan></tspan></text>
 <text class="TextShape"><tspan class="TextParagraph" font-family="Liberation Sans" font-size="353px" font-weight="400"><tspan class="TextPosition" x="14110" y="4867"><tspan fill="rgb(0,0,0)" stroke="none">page</tspan></tspan></tspan></text>
 <text class="TextShape"><tspan class="TextParagraph" font-family="Liberation Sans" font-size="353px" font-weight="400"><tspan class="TextPosition" x="14110" y="5365"><tspan fill="rgb(0,0,0)" stroke="none">random</tspan></tspan></tspan></text>
 <text class="TextShape"><tspan class="TextParagraph" font-family="Liberation Sans" font-size="318px" font-weight="400"><tspan class="TextPosition" x="5227" y="8405"><tspan fill="rgb(0,0,0)" stroke="none">% of humans have robots</tspan></tspan></tspan></text>
 <text class="TextShape" transform="translate(837,6191) rotate(-90) translate(-837,-6191)"><tspan class="TextParagraph" font-family="Liberation Sans" font-size="318px" font-weight="400"><tspan class="TextPosition" x="837" y="6191"><tspan fill="rgb(0,0,0)" stroke="none">% of humans using robot word</tspan></tspan></tspan></text>
</svg>