<?xml version="1.0" encoding="UTF-8"?>
<!DOCTYPE svg PUBLIC "-//W3C//DTD SVG 1.1//EN" "http://www.w3.org/Graphics/SVG/1.1/DTD/svg11.dtd">
<svg width="160mm" height="90mm" viewBox="0 0 16000 9000" version="1.1" xmlns="http://www.w3.org/2000/svg" stroke-width="28.222" stroke-linejoin="round" xml:space="preserve">
 <path fill="rgb(255,255,255)" stroke="none" d="M 8000,8999 L 0,8999 0,0 15999,0 15999,8999 8000,8999 Z"/>
 <path fill="none" stroke="rgb(179,179,179)" stroke-linejoin="round" d="M 6671,8172 L 941,8172 941,379 12401,379 12401,8172 6671,8172 Z"/>
 <path fill="none" stroke="rgb(179,179,179)" stroke-linejoin="round" d="M 12401,8171 L 941,8171"/>
 <path fill="none" stroke="rgb(179,179,179)" stroke-linejoin="round" d="M 12401,6872 L 941,6872"/>
 <path fill="none" stroke="rgb(179,179,179)" stroke-linejoin="round" d="M 12401,5573 L 941,5573"/>
 <path fill="none" stroke="rgb(179,179,179)" stroke-linejoin="round" d="M 12401,4275 L 941,4275"/>
 <path fill="none" stroke="rgb(179,179,179)" stroke-linejoin="round" d="M 12401,2976 L 941,2976"/>
 <path fill="none" stroke="rgb(179,179,179)" stroke-linejoin="round" d="M 12401,1677 L 941,1677"/>
 <path fill="none" stroke="rgb(179,179,179)" stroke-linejoin="round" d="M 12401,378 L 941,378"/>
 <path fill="none" stroke="rgb(179,179,179)" stroke-linejoin="round" d="M 941,8321 L 941,8171"/>
 <path fill="none" stroke="rgb(179,179,179)" stroke-linejoin="round" d="M 941,8321 L 941,8171"/>
 <path fill="none" stroke="rgb(179,179,179)" stroke-linejoin="round" d="M 2214,8321 L 2214,8171"/>
 <path fill="none" stroke="rgb(179,179,179)" stroke-linejoin="round" d="M 2214,8321 L 2214,8171"/>
 <path fill="none" stroke="rgb(179,179,179)" stroke-linejoin="round" d="M 3487,8321 L 3487,8171"/>
 <path fill="none" stroke="rgb(179,179,179)" stroke-linejoin="round" d="M 3487,8321 L 3487,8171"/>
 <path fill="none" stroke="rgb(179,179,179)" stroke-linejoin="round" d="M 4761,8321 L 4761,8171"/>
 <path fill="none" stroke="rgb(179,179,179)" stroke-linejoin="round" d="M 4761,8321 L 4761,8171"/>
 <path fill="none" stroke="rgb(179,179,179)" stroke-linejoin="round" d="M 6034,8321 L 6034,8171"/>
 <path fill="none" stroke="rgb(179,179,179)" stroke-linejoin="round" d="M 6034,8321 L 6034,8171"/>
 <path fill="none" stroke="rgb(179,179,179)" stroke-linejoin="round" d="M 7308,8321 L 7308,8171"/>
 <path fill="none" stroke="rgb(179,179,179)" stroke-linejoin="round" d="M 7308,8321 L 7308,8171"/>
 <path fill="none" stroke="rgb(179,179,179)" stroke-linejoin="round" d="M 8580,8321 L 8580,8171"/>
 <path fill="none" stroke="rgb(179,179,179)" stroke-linejoin="round" d="M 8580,8321 L 8580,8171"/>
 <path fill="none" stroke="rgb(179,179,179)" stroke-linejoin="round" d="M 9854,8321 L 9854,8171"/>
 <path fill="none" stroke="rgb(179,179,179)" stroke-linejoin="round" d="M 9854,8321 L 9854,8171"/>
 <path fill="none" stroke="rgb(179,179,179)" stroke-linejoin="round" d="M 11127,8321 L 11127,8171"/>
 <path fill="none" stroke="rgb(179,179,179)" stroke-linejoin="round" d="M 11127,8321 L 11127,8171"/>
 <path fill="none" stroke="rgb(179,179,179)" stroke-linejoin="round" d="M 12401,8321 L 12401,8171"/>
 <path fill="none" stroke="rgb(179,179,179)" stroke-linejoin="round" d="M 12401,8321 L 12401,8171"/>
 <path fill="none" stroke="rgb(179,179,179)" stroke-linejoin="round" d="M 941,8171 L 12401,8171"/>
 <path fill="none" stroke="rgb(179,179,179)" stroke-linejoin="round" d="M 791,8171 L 941,8171"/>
 <path fill="none" stroke="rgb(179,179,179)" stroke-linejoin="round" d="M 791,8171 L 941,8171"/>
 <path fill="none" stroke="rgb(179,179,179)" stroke-linejoin="round" d="M 791,6872 L 941,6872"/>
 <path fill="none" stroke="rgb(179,179,179)" stroke-linejoin="round" d="M 791,6872 L 941,6872"/>
 <path fill="none" stroke="rgb(179,179,179)" stroke-linejoin="round" d="M 791,5573 L 941,5573"/>
 <path fill="none" stroke="rgb(179,179,179)" stroke-linejoin="round" d="M 791,5573 L 941,5573"/>
 <path fill="none" stroke="rgb(179,179,179)" stroke-linejoin="round" d="M 791,4275 L 941,4275"/>
 <path fill="none" stroke="rgb(179,179,179)" stroke-linejoin="round" d="M 791,4275 L 941,4275"/>
 <path fill="none" stroke="rgb(179,179,179)" stroke-linejoin="round" d="M 791,2976 L 941,2976"/>
 <path fill="none" stroke="rgb(179,179,179)" stroke-linejoin="round" d="M 791,2976 L 941,2976"/>
 <path fill="none" stroke="rgb(179,179,179)" stroke-linejoin="round" d="M 791,1677 L 941,1677"/>
 <path fill="none" stroke="rgb(179,179,179)" stroke-linejoin="round" d="M 791,1677 L 941,1677"/>
 <path fill="none" stroke="rgb(179,179,179)" stroke-linejoin="round" d="M 791,378 L 941,378"/>
 <path fill="none" stroke="rgb(179,179,179)" stroke-linejoin="round" d="M 791,378 L 941,378"/>
 <path fill="none" stroke="rgb(179,179,179)" stroke-linejoin="round" d="M 941,8171 L 941,378"/>
 <path fill="none" stroke="rgb(87,157,28)" stroke-width="80" stroke-linejoin="round" d="M 941,8171 L 960,8143 980,8115 999,8087 1019,8059 1039,8031 1058,8003 1078,7975 1097,7947 1117,7919 1136,7891 1155,7863 1174,7835 1193,7807 1212,7779 1231,7751 1249,7723 1268,7695 1286,7667 1304,7639 1323,7610 1340,7582 1358,7553 1376,7525 1393,7496 1411,7467 1429,7438 1446,7408 1464,7378 1482,7348 1501,7317 1519,7286 1538,7254 1557,7221 1577,7188 1597,7154 1617,7119 1638,7084 1660,7047 1682,7010 1705,6972 1728,6933 1752,6893 1776,6852 1801,6811 1825,6770 1850,6728 1874,6687 1898,6646 1921,6605 1943,6565 1964,6526 1984,6488 2003,6451 2021,6416 2037,6382 2051,6350 2063,6319 2073,6291 2081,6265 2087,6242 2090,6221 2091,6203 2090,6185 2088,6169 2086,6153 2084,6137 2082,6120 2082,6101 2083,6081 2085,6057 2091,6031 2100,6001 2112,5967 2128,5928 2149,5883 2175,5833 2207,5775 2245,5711 2289,5638 2341,5558 2401,5468 2467,5371 2540,5266 2619,5155 2704,5038 2794,4916 2888,4790 2985,4662 3086,4531 3190,4399 3296,4266 3403,4133 3511,4002 3620,3872 3729,3745 3837,3621 3944,3502 4049,3388 4152,3280 4251,3179 4348,3086 4442,3000 4534,2921 4625,2848 4715,2782 4806,2721 4898,2666 4991,2615 5088,2569 5188,2528 5292,2490 5401,2455 5516,2423 5637,2394 5765,2367 5902,2342 6047,2318 6202,2295 6367,2272 6544,2250 6732,2227 6931,2205 7141,2181 7360,2158 7590,2135 7828,2111 8074,2087 8328,2063 8589,2038 8857,2014 9131,1989 9410,1965 9694,1940 9982,1915 10273,1890 10568,1865 10865,1840 11163,1814 11463,1789 11764,1764"/>
 <path fill="rgb(87,157,28)" stroke="none" d="M 816,8296 L 1066,8296 941,8046 816,8296 Z"/>
 <path fill="none" stroke="rgb(87,157,28)" stroke-linejoin="round" d="M 816,8296 L 1066,8296 941,8046 816,8296 Z"/>
 <path fill="rgb(87,157,28)" stroke="none" d="M 1198,7735 L 1448,7735 1323,7485 1198,7735 Z"/>
 <path fill="none" stroke="rgb(87,157,28)" stroke-linejoin="round" d="M 1198,7735 L 1448,7735 1323,7485 1198,7735 Z"/>
 <path fill="rgb(87,157,28)" stroke="none" d="M 1580,7097 L 1830,7097 1705,6847 1580,7097 Z"/>
 <path fill="none" stroke="rgb(87,157,28)" stroke-linejoin="round" d="M 1580,7097 L 1830,7097 1705,6847 1580,7097 Z"/>
 <path fill="rgb(87,157,28)" stroke="none" d="M 1962,6367 L 2212,6367 2087,6117 1962,6367 Z"/>
 <path fill="none" stroke="rgb(87,157,28)" stroke-linejoin="round" d="M 1962,6367 L 2212,6367 2087,6117 1962,6367 Z"/>
 <path fill="rgb(87,157,28)" stroke="none" d="M 2216,5683 L 2466,5683 2341,5433 2216,5683 Z"/>
 <path fill="none" stroke="rgb(87,157,28)" stroke-linejoin="round" d="M 2216,5683 L 2466,5683 2341,5433 2216,5683 Z"/>
 <path fill="rgb(87,157,28)" stroke="none" d="M 4126,3304 L 4376,3304 4251,3054 4126,3304 Z"/>
 <path fill="none" stroke="rgb(87,157,28)" stroke-linejoin="round" d="M 4126,3304 L 4376,3304 4251,3054 4126,3304 Z"/>
 <path fill="rgb(87,157,28)" stroke="none" d="M 6419,2375 L 6669,2375 6544,2125 6419,2375 Z"/>
 <path fill="none" stroke="rgb(87,157,28)" stroke-linejoin="round" d="M 6419,2375 L 6669,2375 6544,2125 6419,2375 Z"/>
 <path fill="rgb(87,157,28)" stroke="none" d="M 11639,1889 L 11889,1889 11764,1639 11639,1889 Z"/>
 <path fill="none" stroke="rgb(87,157,28)" stroke-linejoin="round" d="M 11639,1889 L 11889,1889 11764,1639 11639,1889 Z"/>
 <path fill="none" stroke="rgb(255,211,32)" stroke-width="80" stroke-linejoin="round" d="M 941,8171 L 960,8153 980,8135 999,8117 1019,8100 1039,8082 1058,8065 1078,8048 1097,8030 1117,8014 1136,7997 1155,7980 1174,7964 1193,7948 1212,7932 1231,7916 1249,7901 1268,7886 1286,7871 1304,7857 1323,7843 1340,7830 1358,7817 1376,7804 1393,7790 1411,7777 1429,7764 1446,7750 1464,7735 1482,7720 1501,7704 1519,7688 1538,7670 1557,7650 1577,7630 1597,7608 1617,7584 1638,7559 1660,7531 1682,7502 1705,7470 1728,7436 1752,7400 1776,7362 1801,7323 1825,7282 1850,7240 1874,7197 1898,7153 1921,7108 1943,7064 1964,7019 1984,6974 2003,6929 2021,6885 2037,6842 2051,6800 2063,6759 2073,6720 2081,6682 2087,6646 2090,6612 2091,6579 2090,6548 2088,6517 2086,6486 2084,6455 2082,6423 2082,6390 2083,6355 2085,6317 2091,6276 2100,6232 2112,6185 2128,6133 2149,6076 2175,6013 2207,5945 2245,5870 2289,5789 2341,5700 2401,5604 2467,5500 2540,5390 2619,5275 2704,5154 2794,5030 2888,4902 2985,4771 3086,4639 3190,4505 3296,4373 3403,4239 3511,4107 3620,3976 3729,3848 3837,3724 3944,3603 4049,3487 4152,3377 4251,3274 4348,3177 4442,3087 4534,3003 4625,2926 4715,2854 4806,2788 4898,2727 4991,2671 5088,2620 5188,2573 5292,2529 5401,2490 5516,2454 5637,2421 5765,2390 5902,2363 6047,2337 6202,2313 6367,2290 6544,2269 6732,2248 6931,2229 7141,2210 7360,2192 7590,2174 7828,2158 8074,2141 8328,2126 8589,2111 8857,2096 9131,2082 9410,2068 9694,2055 9982,2041 10273,2029 10568,2016 10865,2003 11163,1991 11463,1979 11764,1967"/>
 <path fill="rgb(255,211,32)" stroke="none" d="M 816,8046 L 941,8296 1066,8046 816,8046 Z"/>
 <path fill="none" stroke="rgb(255,211,32)" stroke-linejoin="round" d="M 816,8046 L 941,8296 1066,8046 816,8046 Z"/>
 <path fill="rgb(255,211,32)" stroke="none" d="M 1198,7718 L 1323,7968 1448,7718 1198,7718 Z"/>
 <path fill="none" stroke="rgb(255,211,32)" stroke-linejoin="round" d="M 1198,7718 L 1323,7968 1448,7718 1198,7718 Z"/>
 <path fill="rgb(255,211,32)" stroke="none" d="M 1580,7345 L 1705,7595 1830,7345 1580,7345 Z"/>
 <path fill="none" stroke="rgb(255,211,32)" stroke-linejoin="round" d="M 1580,7345 L 1705,7595 1830,7345 1580,7345 Z"/>
 <path fill="rgb(255,211,32)" stroke="none" d="M 1962,6521 L 2087,6771 2212,6521 1962,6521 Z"/>
 <path fill="none" stroke="rgb(255,211,32)" stroke-linejoin="round" d="M 1962,6521 L 2087,6771 2212,6521 1962,6521 Z"/>
 <path fill="rgb(255,211,32)" stroke="none" d="M 2216,5575 L 2341,5825 2466,5575 2216,5575 Z"/>
 <path fill="none" stroke="rgb(255,211,32)" stroke-linejoin="round" d="M 2216,5575 L 2341,5825 2466,5575 2216,5575 Z"/>
 <path fill="rgb(255,211,32)" stroke="none" d="M 4126,3149 L 4251,3399 4376,3149 4126,3149 Z"/>
 <path fill="none" stroke="rgb(255,211,32)" stroke-linejoin="round" d="M 4126,3149 L 4251,3399 4376,3149 4126,3149 Z"/>
 <path fill="rgb(255,211,32)" stroke="none" d="M 6419,2144 L 6544,2394 6669,2144 6419,2144 Z"/>
 <path fill="none" stroke="rgb(255,211,32)" stroke-linejoin="round" d="M 6419,2144 L 6544,2394 6669,2144 6419,2144 Z"/>
 <path fill="rgb(255,211,32)" stroke="none" d="M 11639,1842 L 11764,2092 11889,1842 11639,1842 Z"/>
 <path fill="none" stroke="rgb(255,211,32)" stroke-linejoin="round" d="M 11639,1842 L 11764,2092 11889,1842 11639,1842 Z"/>
 <path fill="none" stroke="rgb(255,66,14)" stroke-width="80" stroke-linejoin="round" d="M 941,8171 L 960,8160 980,8150 999,8140 1019,8130 1039,8119 1058,8107 1078,8096 1097,8083 1117,8070 1136,8056 1155,8041 1174,8026 1193,8009 1212,7991 1231,7972 1249,7951 1268,7930 1286,7906 1304,7881 1323,7855 1340,7827 1358,7797 1376,7766 1393,7733 1411,7700 1429,7665 1446,7629 1464,7593 1482,7555 1501,7518 1519,7480 1538,7442 1557,7403 1577,7365 1597,7327 1617,7289 1638,7252 1660,7215 1682,7180 1705,7144 1728,7110 1752,7077 1776,7045 1801,7014 1825,6983 1850,6953 1874,6924 1898,6895 1921,6867 1943,6839 1964,6811 1984,6784 2003,6757 2021,6731 2037,6704 2051,6678 2063,6651 2073,6625 2081,6598 2087,6571 2090,6544 2091,6517 2090,6488 2088,6459 2086,6428 2084,6396 2082,6361 2082,6325 2083,6285 2085,6244 2091,6199 2100,6151 2112,6099 2128,6043 2149,5983 2175,5919 2207,5850 2245,5776 2289,5697 2341,5612 2401,5522 2467,5426 2540,5326 2619,5222 2704,5116 2794,5007 2888,4896 2985,4785 3086,4673 3190,4562 3296,4454 3403,4346 3511,4241 3620,4139 3729,4042 3837,3950 3944,3863 4049,3782 4152,3708 4251,3642 4348,3584 4442,3534 4534,3491 4625,3455 4715,3424 4806,3398 4898,3376 4991,3358 5088,3343 5188,3330 5292,3319 5401,3309 5516,3299 5637,3288 5765,3277 5902,3263 6047,3247 6202,3228 6367,3205 6544,3178 6732,3146 6931,3108 7141,3066 7360,3020 7590,2969 7828,2915 8074,2856 8328,2795 8589,2730 8857,2663 9131,2593 9410,2520 9694,2446 9982,2369 10273,2291 10568,2212 10865,2132 11163,2051 11463,1969 11764,1887"/>
 <path fill="rgb(255,66,14)" stroke="none" d="M 816,8171 L 941,8296 1066,8171 941,8046 816,8171 Z"/>
 <path fill="none" stroke="rgb(255,66,14)" stroke-linejoin="round" d="M 816,8171 L 941,8296 1066,8171 941,8046 816,8171 Z"/>
 <path fill="rgb(255,66,14)" stroke="none" d="M 1198,7855 L 1323,7980 1448,7855 1323,7730 1198,7855 Z"/>
 <path fill="none" stroke="rgb(255,66,14)" stroke-linejoin="round" d="M 1198,7855 L 1323,7980 1448,7855 1323,7730 1198,7855 Z"/>
 <path fill="rgb(255,66,14)" stroke="none" d="M 1580,7144 L 1705,7269 1830,7144 1705,7019 1580,7144 Z"/>
 <path fill="none" stroke="rgb(255,66,14)" stroke-linejoin="round" d="M 1580,7144 L 1705,7269 1830,7144 1705,7019 1580,7144 Z"/>
 <path fill="rgb(255,66,14)" stroke="none" d="M 1962,6571 L 2087,6696 2212,6571 2087,6446 1962,6571 Z"/>
 <path fill="none" stroke="rgb(255,66,14)" stroke-linejoin="round" d="M 1962,6571 L 2087,6696 2212,6571 2087,6446 1962,6571 Z"/>
 <path fill="rgb(255,66,14)" stroke="none" d="M 2216,5612 L 2341,5737 2466,5612 2341,5487 2216,5612 Z"/>
 <path fill="none" stroke="rgb(255,66,14)" stroke-linejoin="round" d="M 2216,5612 L 2341,5737 2466,5612 2341,5487 2216,5612 Z"/>
 <path fill="rgb(255,66,14)" stroke="none" d="M 4126,3642 L 4251,3767 4376,3642 4251,3517 4126,3642 Z"/>
 <path fill="none" stroke="rgb(255,66,14)" stroke-linejoin="round" d="M 4126,3642 L 4251,3767 4376,3642 4251,3517 4126,3642 Z"/>
 <path fill="rgb(255,66,14)" stroke="none" d="M 6419,3178 L 6544,3303 6669,3178 6544,3053 6419,3178 Z"/>
 <path fill="none" stroke="rgb(255,66,14)" stroke-linejoin="round" d="M 6419,3178 L 6544,3303 6669,3178 6544,3053 6419,3178 Z"/>
 <path fill="rgb(255,66,14)" stroke="none" d="M 11639,1887 L 11764,2012 11889,1887 11764,1762 11639,1887 Z"/>
 <path fill="none" stroke="rgb(255,66,14)" stroke-linejoin="round" d="M 11639,1887 L 11764,2012 11889,1887 11764,1762 11639,1887 Z"/>
 <path fill="none" stroke="rgb(0,69,134)" stroke-width="80" stroke-linejoin="round" d="M 941,8171 L 960,8154 980,8137 999,8121 1019,8104 1039,8088 1058,8072 1078,8055 1097,8039 1117,8023 1136,8007 1155,7991 1174,7976 1193,7960 1212,7945 1231,7930 1249,7915 1268,7900 1286,7886 1304,7871 1323,7857 1340,7844 1358,7830 1376,7817 1393,7803 1411,7789 1429,7775 1446,7760 1464,7744 1482,7728 1501,7711 1519,7693 1538,7674 1557,7654 1577,7633 1597,7609 1617,7585 1638,7558 1660,7530 1682,7500 1705,7467 1728,7433 1752,7396 1776,7358 1801,7318 1825,7277 1850,7234 1874,7191 1898,7146 1921,7101 1943,7056 1964,7011 1984,6965 2003,6920 2021,6876 2037,6832 2051,6789 2063,6747 2073,6706 2081,6667 2087,6629 2090,6594 2091,6560 2090,6527 2088,6494 2086,6462 2084,6430 2082,6397 2082,6364 2083,6329 2085,6292 2091,6253 2100,6212 2112,6167 2128,6120 2149,6068 2175,6013 2207,5953 2245,5887 2289,5817 2341,5741 2401,5658 2467,5570 2540,5477 2619,5379 2704,5277 2794,5172 2888,5064 2985,4953 3086,4840 3190,4725 3296,4610 3403,4495 3511,4380 3620,4265 3729,4151 3837,4039 3944,3929 4049,3822 4152,3718 4251,3618 4348,3523 4442,3431 4534,3344 4625,3260 4715,3181 4806,3105 4898,3032 4991,2963 5088,2898 5188,2835 5292,2776 5401,2720 5516,2666 5637,2615 5765,2567 5902,2521 6047,2477 6202,2436 6367,2397 6544,2359 6732,2323 6931,2290 7141,2257 7360,2226 7590,2197 7828,2169 8074,2142 8328,2117 8589,2092 8857,2069 9131,2046 9410,2024 9694,2003 9982,1982 10273,1962 10568,1943 10865,1924 11163,1905 11463,1886 11764,1868"/>
 <path fill="rgb(0,69,134)" stroke="none" d="M 816,8046 L 816,8296 1066,8296 1066,8046 816,8046 Z"/>
 <path fill="none" stroke="rgb(0,69,134)" stroke-linejoin="round" d="M 816,8046 L 816,8296 1066,8296 1066,8046 816,8046 Z"/>
 <path fill="rgb(0,69,134)" stroke="none" d="M 1198,7732 L 1198,7982 1448,7982 1448,7732 1198,7732 Z"/>
 <path fill="none" stroke="rgb(0,69,134)" stroke-linejoin="round" d="M 1198,7732 L 1198,7982 1448,7982 1448,7732 1198,7732 Z"/>
 <path fill="rgb(0,69,134)" stroke="none" d="M 1580,7342 L 1580,7592 1830,7592 1830,7342 1580,7342 Z"/>
 <path fill="none" stroke="rgb(0,69,134)" stroke-linejoin="round" d="M 1580,7342 L 1580,7592 1830,7592 1830,7342 1580,7342 Z"/>
 <path fill="rgb(0,69,134)" stroke="none" d="M 1962,6504 L 1962,6754 2212,6754 2212,6504 1962,6504 Z"/>
 <path fill="none" stroke="rgb(0,69,134)" stroke-linejoin="round" d="M 1962,6504 L 1962,6754 2212,6754 2212,6504 1962,6504 Z"/>
 <path fill="rgb(0,69,134)" stroke="none" d="M 2216,5616 L 2216,5866 2466,5866 2466,5616 2216,5616 Z"/>
 <path fill="none" stroke="rgb(0,69,134)" stroke-linejoin="round" d="M 2216,5616 L 2216,5866 2466,5866 2466,5616 2216,5616 Z"/>
 <path fill="rgb(0,69,134)" stroke="none" d="M 4126,3493 L 4126,3743 4376,3743 4376,3493 4126,3493 Z"/>
 <path fill="none" stroke="rgb(0,69,134)" stroke-linejoin="round" d="M 4126,3493 L 4126,3743 4376,3743 4376,3493 4126,3493 Z"/>
 <path fill="rgb(0,69,134)" stroke="none" d="M 6419,2234 L 6419,2484 6669,2484 6669,2234 6419,2234 Z"/>
 <path fill="none" stroke="rgb(0,69,134)" stroke-linejoin="round" d="M 6419,2234 L 6419,2484 6669,2484 6669,2234 6419,2234 Z"/>
 <path fill="rgb(0,69,134)" stroke="none" d="M 11639,1743 L 11639,1993 11889,1993 11889,1743 11639,1743 Z"/>
 <path fill="none" stroke="rgb(0,69,134)" stroke-linejoin="round" d="M 11639,1743 L 11639,1993 11889,1993 11889,1743 11639,1743 Z"/>
 <text class="TextShape"><tspan class="TextParagraph" font-family="Liberation Sans, sans-serif" font-size="353px" font-weight="400"><tspan class="TextPosition" x="848" y="8739"><tspan fill="rgb(0,0,0)" stroke="none">0</tspan></tspan></tspan></text>
 <text class="TextShape"><tspan class="TextParagraph" font-family="Liberation Sans, sans-serif" font-size="353px" font-weight="400"><tspan class="TextPosition" x="2029" y="8739"><tspan fill="rgb(0,0,0)" stroke="none">10</tspan></tspan></tspan></text>
 <text class="TextShape"><tspan class="TextParagraph" font-family="Liberation Sans, sans-serif" font-size="353px" font-weight="400"><tspan class="TextPosition" x="3302" y="8739"><tspan fill="rgb(0,0,0)" stroke="none">20</tspan></tspan></tspan></text>
 <text class="TextShape"><tspan class="TextParagraph" font-family="Liberation Sans, sans-serif" font-size="353px" font-weight="400"><tspan class="TextPosition" x="4576" y="8739"><tspan fill="rgb(0,0,0)" stroke="none">30</tspan></tspan></tspan></text>
 <text class="TextShape"><tspan class="TextParagraph" font-family="Liberation Sans, sans-serif" font-size="353px" font-weight="400"><tspan class="TextPosition" x="5849" y="8739"><tspan fill="rgb(0,0,0)" stroke="none">40</tspan></tspan></tspan></text>
 <text class="TextShape"><tspan class="TextParagraph" font-family="Liberation Sans, sans-serif" font-size="353px" font-weight="400"><tspan class="TextPosition" x="7123" y="8739"><tspan fill="rgb(0,0,0)" stroke="none">50</tspan></tspan></tspan></text>
 <text class="TextShape"><tspan class="TextParagraph" font-family="Liberation Sans, sans-serif" font-size="353px" font-weight="400"><tspan class="TextPosition" x="8396" y="8739"><tspan fill="rgb(0,0,0)" stroke="none">60</tspan></tspan></tspan></text>
 <text class="TextShape"><tspan class="TextParagraph" font-family="Liberation Sans, sans-serif" font-size="353px" font-weight="400"><tspan class="TextPosition" x="9670" y="8739"><tspan fill="rgb(0,0,0)" stroke="none">70</tspan></tspan></tspan></text>
 <text class="TextShape"><tspan class="TextParagraph" font-family="Liberation Sans, sans-serif" font-size="353px" font-weight="400"><tspan class="TextPosition" x="10943" y="8739"><tspan fill="rgb(0,0,0)" stroke="none">80</tspan></tspan></tspan></text>
 <text class="TextShape"><tspan class="TextParagraph" font-family="Liberation Sans, sans-serif" font-size="353px" font-weight="400"><tspan class="TextPosition" x="12217" y="8739"><tspan fill="rgb(0,0,0)" stroke="none">90</tspan></tspan></tspan></text>
 <text class="TextShape"><tspan class="TextParagraph" font-family="Liberation Sans, sans-serif" font-size="353px" font-weight="400"><tspan class="TextPosition" x="506" y="8292"><tspan fill="rgb(0,0,0)" stroke="none">0</tspan></tspan></tspan></text>
 <text class="TextShape"><tspan class="TextParagraph" font-family="Liberation Sans, sans-serif" font-size="353px" font-weight="400"><tspan class="TextPosition" x="321" y="6993"><tspan fill="rgb(0,0,0)" stroke="none">20</tspan></tspan></tspan></text>
 <text class="TextShape"><tspan class="TextParagraph" font-family="Liberation Sans, sans-serif" font-size="353px" font-weight="400"><tspan class="TextPosition" x="321" y="5694"><tspan fill="rgb(0,0,0)" stroke="none">40</tspan></tspan></tspan></text>
 <text class="TextShape"><tspan class="TextParagraph" font-family="Liberation Sans, sans-serif" font-size="353px" font-weight="400"><tspan class="TextPosition" x="321" y="4395"><tspan fill="rgb(0,0,0)" stroke="none">60</tspan></tspan></tspan></text>
 <text class="TextShape"><tspan class="TextParagraph" font-family="Liberation Sans, sans-serif" font-size="353px" font-weight="400"><tspan class="TextPosition" x="321" y="3096"><tspan fill="rgb(0,0,0)" stroke="none">80</tspan></tspan></tspan></text>
 <text class="TextShape"><tspan class="TextParagraph" font-family="Liberation Sans, sans-serif" font-size="353px" font-weight="400"><tspan class="TextPosition" x="135" y="1797"><tspan fill="rgb(0,0,0)" stroke="none">100</tspan></tspan></tspan></text>
 <text class="TextShape"><tspan class="TextParagraph" font-family="Liberation Sans, sans-serif" font-size="353px" font-weight="400"><tspan class="TextPosition" x="135" y="498"><tspan fill="rgb(0,0,0)" stroke="none">120</tspan></tspan></tspan></text>
 <path fill="none" stroke="rgb(0,69,134)" stroke-width="80" stroke-linejoin="round" d="M 13210,3752 L 14010,3752"/>
 <path fill="rgb(0,69,134)" stroke="none" d="M 13504,3647 L 13504,3858 13715,3858 13715,3647 13504,3647 Z"/>
 <path fill="none" stroke="rgb(0,69,134)" stroke-linejoin="round" d="M 13504,3647 L 13504,3858 13715,3858 13715,3647 13504,3647 Z"/>
 <path fill="none" stroke="rgb(255,66,14)" stroke-width="80" stroke-linejoin="round" d="M 13210,4250 L 14010,4250"/>
 <path fill="rgb(255,66,14)" stroke="none" d="M 13504,4250 L 13610,4356 13715,4250 13610,4145 13504,4250 Z"/>
 <path fill="none" stroke="rgb(255,66,14)" stroke-linejoin="round" d="M 13504,4250 L 13610,4356 13715,4250 13610,4145 13504,4250 Z"/>
 <path fill="none" stroke="rgb(255,211,32)" stroke-width="80" stroke-linejoin="round" d="M 13210,4747 L 14010,4747"/>
 <path fill="rgb(255,211,32)" stroke="none" d="M 13504,4642 L 13610,4853 13715,4642 13504,4642 Z"/>
 <path fill="none" stroke="rgb(255,211,32)" stroke-linejoin="round" d="M 13504,4642 L 13610,4853 13715,4642 13504,4642 Z"/>
 <path fill="none" stroke="rgb(87,157,28)" stroke-width="80" stroke-linejoin="round" d="M 13210,5245 L 14010,5245"/>
 <path fill="rgb(87,157,28)" stroke="none" d="M 13504,5351 L 13715,5351 13610,5140 13504,5351 Z"/>
 <path fill="none" stroke="rgb(87,157,28)" stroke-linejoin="round" d="M 13504,5351 L 13715,5351 13610,5140 13504,5351 Z"/>
 <text class="TextShape"><tspan class="TextParagraph" font-family="Liberation Sans, sans-serif" font-size="353px" font-weight="400"><tspan class="TextPosition" x="14110" y="3872"><tspan fill="rgb(0,0,0)" stroke="none">between</tspan></tspan></tspan></text>
 <text class="TextShape"><tspan class="TextParagraph" font-family="Liberation Sans, sans-serif" font-size="353px" font-weight="400"><tspan class="TextPosition" x="14110" y="4370"><tspan fill="rgb(0,0,0)" stroke="none">closeness</tspan></tspan></tspan></text>
 <text class="TextShape"><tspan class="TextParagraph" font-family="Liberation Sans, sans-serif" font-size="353px" font-weight="400"><tspan class="TextPosition" x="14110" y="4867"><tspan fill="rgb(0,0,0)" stroke="none">page</tspan></tspan></tspan></text>
 <text class="TextShape"><tspan class="TextParagraph" font-family="Liberation Sans, sans-serif" font-size="353px" font-weight="400"><tspan class="TextPosition" x="14110" y="5365"><tspan fill="rgb(0,0,0)" stroke="none">random</tspan></tspan></tspan></text>
</svg>