<?xml version="1.0" encoding="UTF-8"?>
<!DOCTYPE svg PUBLIC "-//W3C//DTD SVG 1.1//EN" "http://www.w3.org/Graphics/SVG/1.1/DTD/svg11.dtd">
<svg width="188mm" height="116mm" viewBox="0 0 18800 11600" version="1.1" xmlns="http://www.w3.org/2000/svg" stroke-width="28.222" stroke-linejoin="round" xml:space="preserve">
 <path fill="rgb(255,255,255)" stroke="none" d="M 9445,11581 L 51,11581 51,0 18838,0 18838,11581 9445,11581 Z"/>
 <path fill="none" stroke="rgb(179,179,179)" stroke-linejoin="round" d="M 7521,9721 L 2057,9721 2057,430 12985,430 12985,9721 7521,9721 Z"/>
 <path fill="none" stroke="rgb(179,179,179)" stroke-linejoin="round" d="M 12985,9720 L 2057,9720"/>
 <path fill="none" stroke="rgb(179,179,179)" stroke-linejoin="round" d="M 12985,8171 L 2057,8171"/>
 <path fill="none" stroke="rgb(179,179,179)" stroke-linejoin="round" d="M 12985,6622 L 2057,6622"/>
 <path fill="none" stroke="rgb(179,179,179)" stroke-linejoin="round" d="M 12985,5075 L 2057,5075"/>
 <path fill="none" stroke="rgb(179,179,179)" stroke-linejoin="round" d="M 12985,3526 L 2057,3526"/>
 <path fill="none" stroke="rgb(179,179,179)" stroke-linejoin="round" d="M 12985,1977 L 2057,1977"/>
 <path fill="none" stroke="rgb(179,179,179)" stroke-linejoin="round" d="M 12985,429 L 2057,429"/>
 <path fill="none" stroke="rgb(179,179,179)" stroke-linejoin="round" d="M 2057,9870 L 2057,9720"/>
 <path fill="none" stroke="rgb(179,179,179)" stroke-linejoin="round" d="M 2057,9870 L 2057,9720"/>
 <path fill="none" stroke="rgb(179,179,179)" stroke-linejoin="round" d="M 3423,9870 L 3423,9720"/>
 <path fill="none" stroke="rgb(179,179,179)" stroke-linejoin="round" d="M 3423,9870 L 3423,9720"/>
 <path fill="none" stroke="rgb(179,179,179)" stroke-linejoin="round" d="M 4789,9870 L 4789,9720"/>
 <path fill="none" stroke="rgb(179,179,179)" stroke-linejoin="round" d="M 4789,9870 L 4789,9720"/>
 <path fill="none" stroke="rgb(179,179,179)" stroke-linejoin="round" d="M 6155,9870 L 6155,9720"/>
 <path fill="none" stroke="rgb(179,179,179)" stroke-linejoin="round" d="M 6155,9870 L 6155,9720"/>
 <path fill="none" stroke="rgb(179,179,179)" stroke-linejoin="round" d="M 7521,9870 L 7521,9720"/>
 <path fill="none" stroke="rgb(179,179,179)" stroke-linejoin="round" d="M 7521,9870 L 7521,9720"/>
 <path fill="none" stroke="rgb(179,179,179)" stroke-linejoin="round" d="M 8887,9870 L 8887,9720"/>
 <path fill="none" stroke="rgb(179,179,179)" stroke-linejoin="round" d="M 8887,9870 L 8887,9720"/>
 <path fill="none" stroke="rgb(179,179,179)" stroke-linejoin="round" d="M 10252,9870 L 10252,9720"/>
 <path fill="none" stroke="rgb(179,179,179)" stroke-linejoin="round" d="M 10252,9870 L 10252,9720"/>
 <path fill="none" stroke="rgb(179,179,179)" stroke-linejoin="round" d="M 11618,9870 L 11618,9720"/>
 <path fill="none" stroke="rgb(179,179,179)" stroke-linejoin="round" d="M 11618,9870 L 11618,9720"/>
 <path fill="none" stroke="rgb(179,179,179)" stroke-linejoin="round" d="M 12985,9870 L 12985,9720"/>
 <path fill="none" stroke="rgb(179,179,179)" stroke-linejoin="round" d="M 12985,9870 L 12985,9720"/>
 <path fill="none" stroke="rgb(179,179,179)" stroke-linejoin="round" d="M 2057,9720 L 12985,9720"/>
 <path fill="none" stroke="rgb(179,179,179)" stroke-linejoin="round" d="M 1907,9720 L 2057,9720"/>
 <path fill="none" stroke="rgb(179,179,179)" stroke-linejoin="round" d="M 1907,9720 L 2057,9720"/>
 <path fill="none" stroke="rgb(179,179,179)" stroke-linejoin="round" d="M 1907,8171 L 2057,8171"/>
 <path fill="none" stroke="rgb(179,179,179)" stroke-linejoin="round" d="M 1907,8171 L 2057,8171"/>
 <path fill="none" stroke="rgb(179,179,179)" stroke-linejoin="round" d="M 1907,6622 L 2057,6622"/>
 <path fill="none" stroke="rgb(179,179,179)" stroke-linejoin="round" d="M 1907,6622 L 2057,6622"/>
 <path fill="none" stroke="rgb(179,179,179)" stroke-linejoin="round" d="M 1907,5075 L 2057,5075"/>
 <path fill="none" stroke="rgb(179,179,179)" stroke-linejoin="round" d="M 1907,5075 L 2057,5075"/>
 <path fill="none" stroke="rgb(179,179,179)" stroke-linejoin="round" d="M 1907,3526 L 2057,3526"/>
 <path fill="none" stroke="rgb(179,179,179)" stroke-linejoin="round" d="M 1907,3526 L 2057,3526"/>
 <path fill="none" stroke="rgb(179,179,179)" stroke-linejoin="round" d="M 1907,1977 L 2057,1977"/>
 <path fill="none" stroke="rgb(179,179,179)" stroke-linejoin="round" d="M 1907,1977 L 2057,1977"/>
 <path fill="none" stroke="rgb(179,179,179)" stroke-linejoin="round" d="M 1907,429 L 2057,429"/>
 <path fill="none" stroke="rgb(179,179,179)" stroke-linejoin="round" d="M 1907,429 L 2057,429"/>
 <path fill="none" stroke="rgb(179,179,179)" stroke-linejoin="round" d="M 2057,9720 L 2057,429"/>
 <path fill="none" stroke="rgb(87,157,28)" stroke-width="80" stroke-linejoin="round" stroke-dasharray="158,158" d="M 2057,3373 L 5472,2794 8887,2607 12301,2163"/>
 <path fill="rgb(87,157,28)" stroke="none" d="M 1932,3498 L 2182,3498 1932,3248 2182,3248 1932,3498 Z"/>
 <path fill="none" stroke="rgb(87,157,28)" stroke-linejoin="round" d="M 1932,3498 L 2182,3498 1932,3248 2182,3248 1932,3498 Z"/>
 <path fill="rgb(87,157,28)" stroke="none" d="M 5347,2919 L 5597,2919 5347,2669 5597,2669 5347,2919 Z"/>
 <path fill="none" stroke="rgb(87,157,28)" stroke-linejoin="round" d="M 5347,2919 L 5597,2919 5347,2669 5597,2669 5347,2919 Z"/>
 <path fill="rgb(87,157,28)" stroke="none" d="M 8762,2732 L 9012,2732 8762,2482 9012,2482 8762,2732 Z"/>
 <path fill="none" stroke="rgb(87,157,28)" stroke-linejoin="round" d="M 8762,2732 L 9012,2732 8762,2482 9012,2482 8762,2732 Z"/>
 <path fill="rgb(87,157,28)" stroke="none" d="M 12176,2288 L 12426,2288 12176,2038 12426,2038 12176,2288 Z"/>
 <path fill="none" stroke="rgb(87,157,28)" stroke-linejoin="round" d="M 12176,2288 L 12426,2288 12176,2038 12426,2038 12176,2288 Z"/>
 <path fill="none" stroke="rgb(255,211,32)" stroke-width="80" stroke-linejoin="round" stroke-dasharray="51,51,51,51" d="M 2057,5003 L 5472,4096 8887,3503 12301,2834"/>
 <path fill="rgb(255,211,32)" stroke="none" d="M 1932,4878 L 1932,5128 2182,4878 2182,5128 1932,4878 Z"/>
 <path fill="none" stroke="rgb(255,211,32)" stroke-linejoin="round" d="M 1932,4878 L 1932,5128 2182,4878 2182,5128 1932,4878 Z"/>
 <path fill="rgb(255,211,32)" stroke="none" d="M 5347,3971 L 5347,4221 5597,3971 5597,4221 5347,3971 Z"/>
 <path fill="none" stroke="rgb(255,211,32)" stroke-linejoin="round" d="M 5347,3971 L 5347,4221 5597,3971 5597,4221 5347,3971 Z"/>
 <path fill="rgb(255,211,32)" stroke="none" d="M 8762,3378 L 8762,3628 9012,3378 9012,3628 8762,3378 Z"/>
 <path fill="none" stroke="rgb(255,211,32)" stroke-linejoin="round" d="M 8762,3378 L 8762,3628 9012,3378 9012,3628 8762,3378 Z"/>
 <path fill="rgb(255,211,32)" stroke="none" d="M 12176,2709 L 12176,2959 12426,2709 12426,2959 12176,2709 Z"/>
 <path fill="none" stroke="rgb(255,211,32)" stroke-linejoin="round" d="M 12176,2709 L 12176,2959 12426,2709 12426,2959 12176,2709 Z"/>
 <path fill="none" stroke="rgb(255,66,14)" stroke-width="80" stroke-linejoin="round" stroke-dasharray="158,158" d="M 2057,7828 L 5472,7158 8887,6376 12301,5540"/>
 <path fill="rgb(255,66,14)" stroke="none" d="M 1932,7828 L 2182,7953 2182,7703 1932,7828 Z"/>
 <path fill="none" stroke="rgb(255,66,14)" stroke-linejoin="round" d="M 1932,7828 L 2182,7953 2182,7703 1932,7828 Z"/>
 <path fill="rgb(255,66,14)" stroke="none" d="M 5347,7158 L 5597,7283 5597,7033 5347,7158 Z"/>
 <path fill="none" stroke="rgb(255,66,14)" stroke-linejoin="round" d="M 5347,7158 L 5597,7283 5597,7033 5347,7158 Z"/>
 <path fill="rgb(255,66,14)" stroke="none" d="M 8762,6376 L 9012,6501 9012,6251 8762,6376 Z"/>
 <path fill="none" stroke="rgb(255,66,14)" stroke-linejoin="round" d="M 8762,6376 L 9012,6501 9012,6251 8762,6376 Z"/>
 <path fill="rgb(255,66,14)" stroke="none" d="M 12176,5540 L 12426,5665 12426,5415 12176,5540 Z"/>
 <path fill="none" stroke="rgb(255,66,14)" stroke-linejoin="round" d="M 12176,5540 L 12426,5665 12426,5415 12176,5540 Z"/>
 <path fill="none" stroke="rgb(131,202,255)" stroke-width="80" stroke-linejoin="round" stroke-dasharray="158,158" d="M 2057,9308 L 5472,9146 8887,9077 12301,8875"/>
 <path fill="rgb(131,202,255)" stroke="none" d="M 1932,9183 L 1932,9433 2182,9308 1932,9183 Z"/>
 <path fill="none" stroke="rgb(131,202,255)" stroke-linejoin="round" d="M 1932,9183 L 1932,9433 2182,9308 1932,9183 Z"/>
 <path fill="rgb(131,202,255)" stroke="none" d="M 5347,9021 L 5347,9271 5597,9146 5347,9021 Z"/>
 <path fill="none" stroke="rgb(131,202,255)" stroke-linejoin="round" d="M 5347,9021 L 5347,9271 5597,9146 5347,9021 Z"/>
 <path fill="rgb(131,202,255)" stroke="none" d="M 8762,8952 L 8762,9202 9012,9077 8762,8952 Z"/>
 <path fill="none" stroke="rgb(131,202,255)" stroke-linejoin="round" d="M 8762,8952 L 8762,9202 9012,9077 8762,8952 Z"/>
 <path fill="rgb(131,202,255)" stroke="none" d="M 12176,8750 L 12176,9000 12426,8875 12176,8750 Z"/>
 <path fill="none" stroke="rgb(131,202,255)" stroke-linejoin="round" d="M 12176,8750 L 12176,9000 12426,8875 12176,8750 Z"/>
 <path fill="none" stroke="rgb(87,157,28)" stroke-width="80" stroke-linejoin="round" d="M 2057,3997 L 5472,3280 8887,2976 12301,2367"/>
 <path fill="rgb(87,157,28)" stroke="none" d="M 1932,4122 L 2182,4122 2057,3872 1932,4122 Z"/>
 <path fill="none" stroke="rgb(87,157,28)" stroke-linejoin="round" d="M 1932,4122 L 2182,4122 2057,3872 1932,4122 Z"/>
 <path fill="rgb(87,157,28)" stroke="none" d="M 5347,3405 L 5597,3405 5472,3155 5347,3405 Z"/>
 <path fill="none" stroke="rgb(87,157,28)" stroke-linejoin="round" d="M 5347,3405 L 5597,3405 5472,3155 5347,3405 Z"/>
 <path fill="rgb(87,157,28)" stroke="none" d="M 8762,3101 L 9012,3101 8887,2851 8762,3101 Z"/>
 <path fill="none" stroke="rgb(87,157,28)" stroke-linejoin="round" d="M 8762,3101 L 9012,3101 8887,2851 8762,3101 Z"/>
 <path fill="rgb(87,157,28)" stroke="none" d="M 12176,2492 L 12426,2492 12301,2242 12176,2492 Z"/>
 <path fill="none" stroke="rgb(87,157,28)" stroke-linejoin="round" d="M 12176,2492 L 12426,2492 12301,2242 12176,2492 Z"/>
 <path fill="none" stroke="rgb(255,211,32)" stroke-width="80" stroke-linejoin="round" d="M 2057,5527 L 5472,4832 8887,3995 12301,3143"/>
 <path fill="rgb(255,211,32)" stroke="none" d="M 1932,5402 L 2057,5652 2182,5402 1932,5402 Z"/>
 <path fill="none" stroke="rgb(255,211,32)" stroke-linejoin="round" d="M 1932,5402 L 2057,5652 2182,5402 1932,5402 Z"/>
 <path fill="rgb(255,211,32)" stroke="none" d="M 5347,4707 L 5472,4957 5597,4707 5347,4707 Z"/>
 <path fill="none" stroke="rgb(255,211,32)" stroke-linejoin="round" d="M 5347,4707 L 5472,4957 5597,4707 5347,4707 Z"/>
 <path fill="rgb(255,211,32)" stroke="none" d="M 8762,3870 L 8887,4120 9012,3870 8762,3870 Z"/>
 <path fill="none" stroke="rgb(255,211,32)" stroke-linejoin="round" d="M 8762,3870 L 8887,4120 9012,3870 8762,3870 Z"/>
 <path fill="rgb(255,211,32)" stroke="none" d="M 12176,3018 L 12301,3268 12426,3018 12176,3018 Z"/>
 <path fill="none" stroke="rgb(255,211,32)" stroke-linejoin="round" d="M 12176,3018 L 12301,3268 12426,3018 12176,3018 Z"/>
 <path fill="none" stroke="rgb(255,66,14)" stroke-width="80" stroke-linejoin="round" d="M 2057,7909 L 5472,7529 8887,6730 12301,5873"/>
 <path fill="rgb(255,66,14)" stroke="none" d="M 1932,7909 L 2057,8034 2182,7909 2057,7784 1932,7909 Z"/>
 <path fill="none" stroke="rgb(255,66,14)" stroke-linejoin="round" d="M 1932,7909 L 2057,8034 2182,7909 2057,7784 1932,7909 Z"/>
 <path fill="rgb(255,66,14)" stroke="none" d="M 5347,7529 L 5472,7654 5597,7529 5472,7404 5347,7529 Z"/>
 <path fill="none" stroke="rgb(255,66,14)" stroke-linejoin="round" d="M 5347,7529 L 5472,7654 5597,7529 5472,7404 5347,7529 Z"/>
 <path fill="rgb(255,66,14)" stroke="none" d="M 8762,6730 L 8887,6855 9012,6730 8887,6605 8762,6730 Z"/>
 <path fill="none" stroke="rgb(255,66,14)" stroke-linejoin="round" d="M 8762,6730 L 8887,6855 9012,6730 8887,6605 8762,6730 Z"/>
 <path fill="rgb(255,66,14)" stroke="none" d="M 12176,5873 L 12301,5998 12426,5873 12301,5749 12176,5873 Z"/>
 <path fill="none" stroke="rgb(255,66,14)" stroke-linejoin="round" d="M 12176,5873 L 12301,5998 12426,5873 12301,5749 12176,5873 Z"/>
 <path fill="none" stroke="rgb(0,132,209)" stroke-width="80" stroke-linejoin="round" d="M 2057,9243 L 5472,9076 8887,9005 12301,8751"/>
 <path fill="rgb(0,132,209)" stroke="none" d="M 1932,9118 L 1932,9368 2182,9368 2182,9118 1932,9118 Z"/>
 <path fill="none" stroke="rgb(0,132,209)" stroke-linejoin="round" d="M 1932,9118 L 1932,9368 2182,9368 2182,9118 1932,9118 Z"/>
 <path fill="rgb(0,132,209)" stroke="none" d="M 5347,8951 L 5347,9201 5597,9201 5597,8951 5347,8951 Z"/>
 <path fill="none" stroke="rgb(0,132,209)" stroke-linejoin="round" d="M 5347,8951 L 5347,9201 5597,9201 5597,8951 5347,8951 Z"/>
 <path fill="rgb(0,132,209)" stroke="none" d="M 8762,8880 L 8762,9130 9012,9130 9012,8880 8762,8880 Z"/>
 <path fill="none" stroke="rgb(0,132,209)" stroke-linejoin="round" d="M 8762,8880 L 8762,9130 9012,9130 9012,8880 8762,8880 Z"/>
 <path fill="rgb(0,132,209)" stroke="none" d="M 12176,8626 L 12176,8876 12426,8876 12426,8626 12176,8626 Z"/>
 <path fill="none" stroke="rgb(0,132,209)" stroke-linejoin="round" d="M 12176,8626 L 12176,8876 12426,8876 12426,8626 12176,8626 Z"/>
 <text class="TextShape"><tspan class="TextParagraph" font-family="Liberation Sans, sans-serif" font-size="353px" font-weight="400"><tspan class="TextPosition" x="1964" y="10288"><tspan fill="rgb(0,0,0)" stroke="none">0</tspan></tspan></tspan></text>
 <text class="TextShape"><tspan class="TextParagraph" font-family="Liberation Sans, sans-serif" font-size="353px" font-weight="400"><tspan class="TextPosition" x="3238" y="10288"><tspan fill="rgb(0,0,0)" stroke="none">10</tspan></tspan></tspan></text>
 <text class="TextShape"><tspan class="TextParagraph" font-family="Liberation Sans, sans-serif" font-size="353px" font-weight="400"><tspan class="TextPosition" x="4604" y="10288"><tspan fill="rgb(0,0,0)" stroke="none">20</tspan></tspan></tspan></text>
 <text class="TextShape"><tspan class="TextParagraph" font-family="Liberation Sans, sans-serif" font-size="353px" font-weight="400"><tspan class="TextPosition" x="5970" y="10288"><tspan fill="rgb(0,0,0)" stroke="none">30</tspan></tspan></tspan></text>
 <text class="TextShape"><tspan class="TextParagraph" font-family="Liberation Sans, sans-serif" font-size="353px" font-weight="400"><tspan class="TextPosition" x="7336" y="10288"><tspan fill="rgb(0,0,0)" stroke="none">40</tspan></tspan></tspan></text>
 <text class="TextShape"><tspan class="TextParagraph" font-family="Liberation Sans, sans-serif" font-size="353px" font-weight="400"><tspan class="TextPosition" x="8702" y="10288"><tspan fill="rgb(0,0,0)" stroke="none">50</tspan></tspan></tspan></text>
 <text class="TextShape"><tspan class="TextParagraph" font-family="Liberation Sans, sans-serif" font-size="353px" font-weight="400"><tspan class="TextPosition" x="10068" y="10288"><tspan fill="rgb(0,0,0)" stroke="none">60</tspan></tspan></tspan></text>
 <text class="TextShape"><tspan class="TextParagraph" font-family="Liberation Sans, sans-serif" font-size="353px" font-weight="400"><tspan class="TextPosition" x="11434" y="10288"><tspan fill="rgb(0,0,0)" stroke="none">70</tspan></tspan></tspan></text>
 <text class="TextShape"><tspan class="TextParagraph" font-family="Liberation Sans, sans-serif" font-size="353px" font-weight="400"><tspan class="TextPosition" x="12801" y="10288"><tspan fill="rgb(0,0,0)" stroke="none">80</tspan></tspan></tspan></text>
 <text class="TextShape"><tspan class="TextParagraph" font-family="Liberation Sans, sans-serif" font-size="353px" font-weight="400"><tspan class="TextPosition" x="1622" y="9841"><tspan fill="rgb(0,0,0)" stroke="none">0</tspan></tspan></tspan></text>
 <text class="TextShape"><tspan class="TextParagraph" font-family="Liberation Sans, sans-serif" font-size="353px" font-weight="400"><tspan class="TextPosition" x="1437" y="8292"><tspan fill="rgb(0,0,0)" stroke="none">20</tspan></tspan></tspan></text>
 <text class="TextShape"><tspan class="TextParagraph" font-family="Liberation Sans, sans-serif" font-size="353px" font-weight="400"><tspan class="TextPosition" x="1437" y="6743"><tspan fill="rgb(0,0,0)" stroke="none">40</tspan></tspan></tspan></text>
 <text class="TextShape"><tspan class="TextParagraph" font-family="Liberation Sans, sans-serif" font-size="353px" font-weight="400"><tspan class="TextPosition" x="1437" y="5195"><tspan fill="rgb(0,0,0)" stroke="none">60</tspan></tspan></tspan></text>
 <text class="TextShape"><tspan class="TextParagraph" font-family="Liberation Sans, sans-serif" font-size="353px" font-weight="400"><tspan class="TextPosition" x="1437" y="3646"><tspan fill="rgb(0,0,0)" stroke="none">80</tspan></tspan></tspan></text>
 <text class="TextShape"><tspan class="TextParagraph" font-family="Liberation Sans, sans-serif" font-size="353px" font-weight="400"><tspan class="TextPosition" x="1251" y="2097"><tspan fill="rgb(0,0,0)" stroke="none">100</tspan></tspan></tspan></text>
 <text class="TextShape"><tspan class="TextParagraph" font-family="Liberation Sans, sans-serif" font-size="353px" font-weight="400"><tspan class="TextPosition" x="1251" y="549"><tspan fill="rgb(0,0,0)" stroke="none">120</tspan></tspan></tspan></text>
 <path fill="none" stroke="rgb(0,132,209)" stroke-width="80" stroke-linejoin="round" d="M 13818,4002 L 15418,4002"/>
 <path fill="rgb(0,132,209)" stroke="none" d="M 14512,3897 L 14512,4108 14723,4108 14723,3897 14512,3897 Z"/>
 <path fill="none" stroke="rgb(0,132,209)" stroke-linejoin="round" d="M 14512,3897 L 14512,4108 14723,4108 14723,3897 14512,3897 Z"/>
 <path fill="none" stroke="rgb(255,66,14)" stroke-width="80" stroke-linejoin="round" d="M 13818,4455 L 15418,4455"/>
 <path fill="rgb(255,66,14)" stroke="none" d="M 14512,4455 L 14618,4561 14723,4455 14618,4350 14512,4455 Z"/>
 <path fill="none" stroke="rgb(255,66,14)" stroke-linejoin="round" d="M 14512,4455 L 14618,4561 14723,4455 14618,4350 14512,4455 Z"/>
 <path fill="none" stroke="rgb(255,211,32)" stroke-width="80" stroke-linejoin="round" d="M 13818,4908 L 15418,4908"/>
 <path fill="rgb(255,211,32)" stroke="none" d="M 14512,4803 L 14618,5014 14723,4803 14512,4803 Z"/>
 <path fill="none" stroke="rgb(255,211,32)" stroke-linejoin="round" d="M 14512,4803 L 14618,5014 14723,4803 14512,4803 Z"/>
 <path fill="none" stroke="rgb(87,157,28)" stroke-width="80" stroke-linejoin="round" d="M 13818,5361 L 15418,5361"/>
 <path fill="rgb(87,157,28)" stroke="none" d="M 14512,5467 L 14723,5467 14618,5256 14512,5467 Z"/>
 <path fill="none" stroke="rgb(87,157,28)" stroke-linejoin="round" d="M 14512,5467 L 14723,5467 14618,5256 14512,5467 Z"/>
 <path fill="none" stroke="rgb(131,202,255)" stroke-width="80" stroke-linejoin="round" stroke-dasharray="158,158" d="M 13818,6210 L 15418,6210"/>
 <path fill="rgb(131,202,255)" stroke="none" d="M 14512,6105 L 14512,6316 14723,6210 14512,6105 Z"/>
 <path fill="none" stroke="rgb(131,202,255)" stroke-linejoin="round" d="M 14512,6105 L 14512,6316 14723,6210 14512,6105 Z"/>
 <path fill="none" stroke="rgb(255,66,14)" stroke-width="80" stroke-linejoin="round" stroke-dasharray="158,158" d="M 13818,6663 L 15418,6663"/>
 <path fill="rgb(255,66,14)" stroke="none" d="M 14512,6663 L 14723,6769 14723,6558 14512,6663 Z"/>
 <path fill="none" stroke="rgb(255,66,14)" stroke-linejoin="round" d="M 14512,6663 L 14723,6769 14723,6558 14512,6663 Z"/>
 <path fill="none" stroke="rgb(255,211,32)" stroke-width="80" stroke-linejoin="round" stroke-dasharray="51,51,51,51" d="M 13818,7116 L 15418,7116"/>
 <path fill="rgb(255,211,32)" stroke="none" d="M 14512,7011 L 14512,7222 14723,7011 14723,7222 14512,7011 Z"/>
 <path fill="none" stroke="rgb(255,211,32)" stroke-linejoin="round" d="M 14512,7011 L 14512,7222 14723,7011 14723,7222 14512,7011 Z"/>
 <path fill="none" stroke="rgb(87,157,28)" stroke-width="80" stroke-linejoin="round" stroke-dasharray="158,158" d="M 13818,7569 L 15418,7569"/>
 <path fill="rgb(87,157,28)" stroke="none" d="M 14512,7675 L 14723,7675 14512,7464 14723,7464 14512,7675 Z"/>
 <path fill="none" stroke="rgb(87,157,28)" stroke-linejoin="round" d="M 14512,7675 L 14723,7675 14512,7464 14723,7464 14512,7675 Z"/>
 <text class="TextShape"><tspan class="TextParagraph" font-family="Liberation Sans, sans-serif" font-size="353px" font-weight="400"><tspan class="TextPosition" x="15518" y="4122"><tspan fill="rgb(0,0,0)" stroke="none">3% robots adjusted</tspan></tspan></tspan></text>
 <text class="TextShape"><tspan class="TextParagraph" font-family="Liberation Sans, sans-serif" font-size="353px" font-weight="400"><tspan class="TextPosition" x="15518" y="4575"><tspan fill="rgb(0,0,0)" stroke="none">6% robots adjusted</tspan></tspan></tspan></text>
 <text class="TextShape"><tspan class="TextParagraph" font-family="Liberation Sans, sans-serif" font-size="353px" font-weight="400"><tspan class="TextPosition" x="15518" y="5028"><tspan fill="rgb(0,0,0)" stroke="none">9% robots adjusted</tspan></tspan></tspan></text>
 <text class="TextShape"><tspan class="TextParagraph" font-family="Liberation Sans, sans-serif" font-size="353px" font-weight="400"><tspan class="TextPosition" x="15518" y="5481"><tspan fill="rgb(0,0,0)" stroke="none">11% robots </tspan></tspan><tspan class="TextPosition" x="15518" y="5877"><tspan fill="rgb(0,0,0)" stroke="none">adjusted</tspan></tspan></tspan></text>
 <text class="TextShape"><tspan class="TextParagraph" font-family="Liberation Sans, sans-serif" font-size="353px" font-weight="400"><tspan class="TextPosition" x="15518" y="6330"><tspan fill="rgb(0,0,0)" stroke="none">3% robots</tspan></tspan></tspan></text>
 <text class="TextShape"><tspan class="TextParagraph" font-family="Liberation Sans, sans-serif" font-size="353px" font-weight="400"><tspan class="TextPosition" x="15518" y="6783"><tspan fill="rgb(0,0,0)" stroke="none">6% robots</tspan></tspan></tspan></text>
 <text class="TextShape"><tspan class="TextParagraph" font-family="Liberation Sans, sans-serif" font-size="353px" font-weight="400"><tspan class="TextPosition" x="15518" y="7236"><tspan fill="rgb(0,0,0)" stroke="none">9% robots</tspan></tspan></tspan></text>
 <text class="TextShape"><tspan class="TextParagraph" font-family="Liberation Sans, sans-serif" font-size="353px" font-weight="400"><tspan class="TextPosition" x="15518" y="7689"><tspan fill="rgb(0,0,0)" stroke="none">11% robots</tspan></tspan></tspan></text>
 <text class="TextShape"><tspan class="TextParagraph" font-family="Liberation Sans, sans-serif" font-size="318px" font-weight="400"><tspan class="TextPosition" x="5107" y="10986"><tspan fill="rgb(0,0,0)" stroke="none">Starting point in % of humans</tspan></tspan></tspan></text>
 <text class="TextShape" transform="translate(701,7350) rotate(-90) translate(-701,-7350)"><tspan class="TextParagraph" font-family="Liberation Sans, sans-serif" font-size="318px" font-weight="400"><tspan class="TextPosition" x="701" y="7350"><tspan fill="rgb(0,0,0)" stroke="none">% of humans use robot word</tspan></tspan></tspan></text>
</svg>