<?xml version="1.0" encoding="UTF-8"?>
<!DOCTYPE svg PUBLIC "-//W3C//DTD SVG 1.1//EN" "http://www.w3.org/Graphics/SVG/1.1/DTD/svg11.dtd">
<svg width="119mm" height="116mm" viewBox="0 0 11900 11600" version="1.1" xmlns="http://www.w3.org/2000/svg" stroke-width="28.222" stroke-linejoin="round" xml:space="preserve">
 <path fill="rgb(255,255,255)" stroke="none" d="M 5961,11581 L 0,11581 0,0 11921,0 11921,11581 5961,11581 Z"/>
 <path fill="none" stroke="rgb(179,179,179)" stroke-linejoin="round" d="M 5324,9722 L 2426,9722 2426,430 8221,430 8221,9722 5324,9722 Z"/>
 <path fill="none" stroke="rgb(179,179,179)" stroke-linejoin="round" d="M 8221,9721 L 2426,9721"/>
 <path fill="none" stroke="rgb(179,179,179)" stroke-linejoin="round" d="M 8221,8791 L 2426,8791"/>
 <path fill="none" stroke="rgb(179,179,179)" stroke-linejoin="round" d="M 8221,7862 L 2426,7862"/>
 <path fill="none" stroke="rgb(179,179,179)" stroke-linejoin="round" d="M 8221,6933 L 2426,6933"/>
 <path fill="none" stroke="rgb(179,179,179)" stroke-linejoin="round" d="M 8221,6003 L 2426,6003"/>
 <path fill="none" stroke="rgb(179,179,179)" stroke-linejoin="round" d="M 8221,5075 L 2426,5075"/>
 <path fill="none" stroke="rgb(179,179,179)" stroke-linejoin="round" d="M 8221,4146 L 2426,4146"/>
 <path fill="none" stroke="rgb(179,179,179)" stroke-linejoin="round" d="M 8221,3216 L 2426,3216"/>
 <path fill="none" stroke="rgb(179,179,179)" stroke-linejoin="round" d="M 8221,2287 L 2426,2287"/>
 <path fill="none" stroke="rgb(179,179,179)" stroke-linejoin="round" d="M 8221,1358 L 2426,1358"/>
 <path fill="none" stroke="rgb(179,179,179)" stroke-linejoin="round" d="M 8221,428 L 2426,428"/>
 <path fill="none" stroke="rgb(179,179,179)" stroke-linejoin="round" d="M 2426,9871 L 2426,9721"/>
 <path fill="none" stroke="rgb(179,179,179)" stroke-linejoin="round" d="M 2426,9871 L 2426,9721"/>
 <path fill="none" stroke="rgb(179,179,179)" stroke-linejoin="round" d="M 3150,9871 L 3150,9721"/>
 <path fill="none" stroke="rgb(179,179,179)" stroke-linejoin="round" d="M 3150,9871 L 3150,9721"/>
 <path fill="none" stroke="rgb(179,179,179)" stroke-linejoin="round" d="M 3875,9871 L 3875,9721"/>
 <path fill="none" stroke="rgb(179,179,179)" stroke-linejoin="round" d="M 3875,9871 L 3875,9721"/>
 <path fill="none" stroke="rgb(179,179,179)" stroke-linejoin="round" d="M 4599,9871 L 4599,9721"/>
 <path fill="none" stroke="rgb(179,179,179)" stroke-linejoin="round" d="M 4599,9871 L 4599,9721"/>
 <path fill="none" stroke="rgb(179,179,179)" stroke-linejoin="round" d="M 5324,9871 L 5324,9721"/>
 <path fill="none" stroke="rgb(179,179,179)" stroke-linejoin="round" d="M 5324,9871 L 5324,9721"/>
 <path fill="none" stroke="rgb(179,179,179)" stroke-linejoin="round" d="M 6047,9871 L 6047,9721"/>
 <path fill="none" stroke="rgb(179,179,179)" stroke-linejoin="round" d="M 6047,9871 L 6047,9721"/>
 <path fill="none" stroke="rgb(179,179,179)" stroke-linejoin="round" d="M 6772,9871 L 6772,9721"/>
 <path fill="none" stroke="rgb(179,179,179)" stroke-linejoin="round" d="M 6772,9871 L 6772,9721"/>
 <path fill="none" stroke="rgb(179,179,179)" stroke-linejoin="round" d="M 7496,9871 L 7496,9721"/>
 <path fill="none" stroke="rgb(179,179,179)" stroke-linejoin="round" d="M 7496,9871 L 7496,9721"/>
 <path fill="none" stroke="rgb(179,179,179)" stroke-linejoin="round" d="M 8221,9871 L 8221,9721"/>
 <path fill="none" stroke="rgb(179,179,179)" stroke-linejoin="round" d="M 8221,9871 L 8221,9721"/>
 <path fill="none" stroke="rgb(179,179,179)" stroke-linejoin="round" d="M 2426,9721 L 8221,9721"/>
 <path fill="none" stroke="rgb(179,179,179)" stroke-linejoin="round" d="M 2276,9721 L 2426,9721"/>
 <path fill="none" stroke="rgb(179,179,179)" stroke-linejoin="round" d="M 2276,9721 L 2426,9721"/>
 <path fill="none" stroke="rgb(179,179,179)" stroke-linejoin="round" d="M 2276,8791 L 2426,8791"/>
 <path fill="none" stroke="rgb(179,179,179)" stroke-linejoin="round" d="M 2276,8791 L 2426,8791"/>
 <path fill="none" stroke="rgb(179,179,179)" stroke-linejoin="round" d="M 2276,7862 L 2426,7862"/>
 <path fill="none" stroke="rgb(179,179,179)" stroke-linejoin="round" d="M 2276,7862 L 2426,7862"/>
 <path fill="none" stroke="rgb(179,179,179)" stroke-linejoin="round" d="M 2276,6933 L 2426,6933"/>
 <path fill="none" stroke="rgb(179,179,179)" stroke-linejoin="round" d="M 2276,6933 L 2426,6933"/>
 <path fill="none" stroke="rgb(179,179,179)" stroke-linejoin="round" d="M 2276,6003 L 2426,6003"/>
 <path fill="none" stroke="rgb(179,179,179)" stroke-linejoin="round" d="M 2276,6003 L 2426,6003"/>
 <path fill="none" stroke="rgb(179,179,179)" stroke-linejoin="round" d="M 2276,5075 L 2426,5075"/>
 <path fill="none" stroke="rgb(179,179,179)" stroke-linejoin="round" d="M 2276,5075 L 2426,5075"/>
 <path fill="none" stroke="rgb(179,179,179)" stroke-linejoin="round" d="M 2276,4146 L 2426,4146"/>
 <path fill="none" stroke="rgb(179,179,179)" stroke-linejoin="round" d="M 2276,4146 L 2426,4146"/>
 <path fill="none" stroke="rgb(179,179,179)" stroke-linejoin="round" d="M 2276,3216 L 2426,3216"/>
 <path fill="none" stroke="rgb(179,179,179)" stroke-linejoin="round" d="M 2276,3216 L 2426,3216"/>
 <path fill="none" stroke="rgb(179,179,179)" stroke-linejoin="round" d="M 2276,2287 L 2426,2287"/>
 <path fill="none" stroke="rgb(179,179,179)" stroke-linejoin="round" d="M 2276,2287 L 2426,2287"/>
 <path fill="none" stroke="rgb(179,179,179)" stroke-linejoin="round" d="M 2276,1358 L 2426,1358"/>
 <path fill="none" stroke="rgb(179,179,179)" stroke-linejoin="round" d="M 2276,1358 L 2426,1358"/>
 <path fill="none" stroke="rgb(179,179,179)" stroke-linejoin="round" d="M 2276,428 L 2426,428"/>
 <path fill="none" stroke="rgb(179,179,179)" stroke-linejoin="round" d="M 2276,428 L 2426,428"/>
 <path fill="none" stroke="rgb(179,179,179)" stroke-linejoin="round" d="M 2426,9721 L 2426,428"/>
 <path fill="none" stroke="rgb(87,157,28)" stroke-width="80" stroke-linejoin="round" d="M 2426,8440 L 4237,8832 6047,8952 7858,9142"/>
 <path fill="rgb(87,157,28)" stroke="none" d="M 2301,8565 L 2551,8565 2426,8315 2301,8565 Z"/>
 <path fill="none" stroke="rgb(87,157,28)" stroke-linejoin="round" d="M 2301,8565 L 2551,8565 2426,8315 2301,8565 Z"/>
 <path fill="rgb(87,157,28)" stroke="none" d="M 4112,8957 L 4362,8957 4237,8707 4112,8957 Z"/>
 <path fill="none" stroke="rgb(87,157,28)" stroke-linejoin="round" d="M 4112,8957 L 4362,8957 4237,8707 4112,8957 Z"/>
 <path fill="rgb(87,157,28)" stroke="none" d="M 5923,9077 L 6172,9077 6047,8827 5923,9077 Z"/>
 <path fill="none" stroke="rgb(87,157,28)" stroke-linejoin="round" d="M 5923,9077 L 6172,9077 6047,8827 5923,9077 Z"/>
 <path fill="rgb(87,157,28)" stroke="none" d="M 7733,9267 L 7983,9267 7858,9017 7733,9267 Z"/>
 <path fill="none" stroke="rgb(87,157,28)" stroke-linejoin="round" d="M 7733,9267 L 7983,9267 7858,9017 7733,9267 Z"/>
 <path fill="none" stroke="rgb(255,211,32)" stroke-width="80" stroke-linejoin="round" d="M 2426,6443 L 4237,7573 6047,8387 7858,8640"/>
 <path fill="rgb(255,211,32)" stroke="none" d="M 2301,6318 L 2426,6568 2551,6318 2301,6318 Z"/>
 <path fill="none" stroke="rgb(255,211,32)" stroke-linejoin="round" d="M 2301,6318 L 2426,6568 2551,6318 2301,6318 Z"/>
 <path fill="rgb(255,211,32)" stroke="none" d="M 4112,7448 L 4237,7698 4362,7448 4112,7448 Z"/>
 <path fill="none" stroke="rgb(255,211,32)" stroke-linejoin="round" d="M 4112,7448 L 4237,7698 4362,7448 4112,7448 Z"/>
 <path fill="rgb(255,211,32)" stroke="none" d="M 5923,8262 L 6047,8512 6172,8262 5923,8262 Z"/>
 <path fill="none" stroke="rgb(255,211,32)" stroke-linejoin="round" d="M 5923,8262 L 6047,8512 6172,8262 5923,8262 Z"/>
 <path fill="rgb(255,211,32)" stroke="none" d="M 7733,8515 L 7858,8765 7983,8515 7733,8515 Z"/>
 <path fill="none" stroke="rgb(255,211,32)" stroke-linejoin="round" d="M 7733,8515 L 7858,8765 7983,8515 7733,8515 Z"/>
 <path fill="none" stroke="rgb(255,66,14)" stroke-width="80" stroke-linejoin="round" d="M 2426,2448 L 4237,3017 6047,4168 7858,5345"/>
 <path fill="rgb(255,66,14)" stroke="none" d="M 2301,2448 L 2426,2573 2551,2448 2426,2323 2301,2448 Z"/>
 <path fill="none" stroke="rgb(255,66,14)" stroke-linejoin="round" d="M 2301,2448 L 2426,2573 2551,2448 2426,2323 2301,2448 Z"/>
 <path fill="rgb(255,66,14)" stroke="none" d="M 4112,3017 L 4237,3142 4362,3017 4237,2892 4112,3017 Z"/>
 <path fill="none" stroke="rgb(255,66,14)" stroke-linejoin="round" d="M 4112,3017 L 4237,3142 4362,3017 4237,2892 4112,3017 Z"/>
 <path fill="rgb(255,66,14)" stroke="none" d="M 5923,4168 L 6047,4293 6172,4168 6047,4043 5923,4168 Z"/>
 <path fill="none" stroke="rgb(255,66,14)" stroke-linejoin="round" d="M 5923,4168 L 6047,4293 6172,4168 6047,4043 5923,4168 Z"/>
 <path fill="rgb(255,66,14)" stroke="none" d="M 7733,5345 L 7858,5470 7983,5345 7858,5220 7733,5345 Z"/>
 <path fill="none" stroke="rgb(255,66,14)" stroke-linejoin="round" d="M 7733,5345 L 7858,5470 7983,5345 7858,5220 7733,5345 Z"/>
 <path fill="none" stroke="rgb(0,69,134)" stroke-width="80" stroke-linejoin="round" d="M 2426,8340 L 4237,6291 6047,3818 7858,1502"/>
 <path fill="rgb(0,69,134)" stroke="none" d="M 2301,8215 L 2301,8465 2551,8465 2551,8215 2301,8215 Z"/>
 <path fill="none" stroke="rgb(0,69,134)" stroke-linejoin="round" d="M 2301,8215 L 2301,8465 2551,8465 2551,8215 2301,8215 Z"/>
 <path fill="rgb(0,69,134)" stroke="none" d="M 4112,6166 L 4112,6416 4362,6416 4362,6166 4112,6166 Z"/>
 <path fill="none" stroke="rgb(0,69,134)" stroke-linejoin="round" d="M 4112,6166 L 4112,6416 4362,6416 4362,6166 4112,6166 Z"/>
 <path fill="rgb(0,69,134)" stroke="none" d="M 5923,3693 L 5923,3943 6172,3943 6172,3693 5923,3693 Z"/>
 <path fill="none" stroke="rgb(0,69,134)" stroke-linejoin="round" d="M 5923,3693 L 5923,3943 6172,3943 6172,3693 5923,3693 Z"/>
 <path fill="rgb(0,69,134)" stroke="none" d="M 7733,1377 L 7733,1627 7983,1627 7983,1377 7733,1377 Z"/>
 <path fill="none" stroke="rgb(0,69,134)" stroke-linejoin="round" d="M 7733,1377 L 7733,1627 7983,1627 7983,1377 7733,1377 Z"/>
 <text class="TextShape"><tspan class="TextParagraph" font-family="Liberation Sans" font-size="353px" font-weight="400"><tspan class="TextPosition" x="2333" y="10289"><tspan fill="rgb(0,0,0)" stroke="none">0</tspan></tspan></tspan></text>
 <text class="TextShape"><tspan class="TextParagraph" font-family="Liberation Sans" font-size="353px" font-weight="400"><tspan class="TextPosition" x="2965" y="10289"><tspan fill="rgb(0,0,0)" stroke="none">10</tspan></tspan></tspan></text>
 <text class="TextShape"><tspan class="TextParagraph" font-family="Liberation Sans" font-size="353px" font-weight="400"><tspan class="TextPosition" x="3690" y="10289"><tspan fill="rgb(0,0,0)" stroke="none">20</tspan></tspan></tspan></text>
 <text class="TextShape"><tspan class="TextParagraph" font-family="Liberation Sans" font-size="353px" font-weight="400"><tspan class="TextPosition" x="4414" y="10289"><tspan fill="rgb(0,0,0)" stroke="none">30</tspan></tspan></tspan></text>
 <text class="TextShape"><tspan class="TextParagraph" font-family="Liberation Sans" font-size="353px" font-weight="400"><tspan class="TextPosition" x="5139" y="10289"><tspan fill="rgb(0,0,0)" stroke="none">40</tspan></tspan></tspan></text>
 <text class="TextShape"><tspan class="TextParagraph" font-family="Liberation Sans" font-size="353px" font-weight="400"><tspan class="TextPosition" x="5863" y="10289"><tspan fill="rgb(0,0,0)" stroke="none">50</tspan></tspan></tspan></text>
 <text class="TextShape"><tspan class="TextParagraph" font-family="Liberation Sans" font-size="353px" font-weight="400"><tspan class="TextPosition" x="6588" y="10289"><tspan fill="rgb(0,0,0)" stroke="none">60</tspan></tspan></tspan></text>
 <text class="TextShape"><tspan class="TextParagraph" font-family="Liberation Sans" font-size="353px" font-weight="400"><tspan class="TextPosition" x="7312" y="10289"><tspan fill="rgb(0,0,0)" stroke="none">70</tspan></tspan></tspan></text>
 <text class="TextShape"><tspan class="TextParagraph" font-family="Liberation Sans" font-size="353px" font-weight="400"><tspan class="TextPosition" x="8037" y="10289"><tspan fill="rgb(0,0,0)" stroke="none">80</tspan></tspan></tspan></text>
 <text class="TextShape"><tspan class="TextParagraph" font-family="Liberation Sans" font-size="353px" font-weight="400"><tspan class="TextPosition" x="1991" y="9842"><tspan fill="rgb(0,0,0)" stroke="none">0</tspan></tspan></tspan></text>
 <text class="TextShape"><tspan class="TextParagraph" font-family="Liberation Sans" font-size="353px" font-weight="400"><tspan class="TextPosition" x="1250" y="8912"><tspan fill="rgb(0,0,0)" stroke="none">10000</tspan></tspan></tspan></text>
 <text class="TextShape"><tspan class="TextParagraph" font-family="Liberation Sans" font-size="353px" font-weight="400"><tspan class="TextPosition" x="1250" y="7983"><tspan fill="rgb(0,0,0)" stroke="none">20000</tspan></tspan></tspan></text>
 <text class="TextShape"><tspan class="TextParagraph" font-family="Liberation Sans" font-size="353px" font-weight="400"><tspan class="TextPosition" x="1250" y="7054"><tspan fill="rgb(0,0,0)" stroke="none">30000</tspan></tspan></tspan></text>
 <text class="TextShape"><tspan class="TextParagraph" font-family="Liberation Sans" font-size="353px" font-weight="400"><tspan class="TextPosition" x="1250" y="6124"><tspan fill="rgb(0,0,0)" stroke="none">40000</tspan></tspan></tspan></text>
 <text class="TextShape"><tspan class="TextParagraph" font-family="Liberation Sans" font-size="353px" font-weight="400"><tspan class="TextPosition" x="1250" y="5195"><tspan fill="rgb(0,0,0)" stroke="none">50000</tspan></tspan></tspan></text>
 <text class="TextShape"><tspan class="TextParagraph" font-family="Liberation Sans" font-size="353px" font-weight="400"><tspan class="TextPosition" x="1250" y="4266"><tspan fill="rgb(0,0,0)" stroke="none">60000</tspan></tspan></tspan></text>
 <text class="TextShape"><tspan class="TextParagraph" font-family="Liberation Sans" font-size="353px" font-weight="400"><tspan class="TextPosition" x="1250" y="3336"><tspan fill="rgb(0,0,0)" stroke="none">70000</tspan></tspan></tspan></text>
 <text class="TextShape"><tspan class="TextParagraph" font-family="Liberation Sans" font-size="353px" font-weight="400"><tspan class="TextPosition" x="1250" y="2407"><tspan fill="rgb(0,0,0)" stroke="none">80000</tspan></tspan></tspan></text>
 <text class="TextShape"><tspan class="TextParagraph" font-family="Liberation Sans" font-size="353px" font-weight="400"><tspan class="TextPosition" x="1250" y="1478"><tspan fill="rgb(0,0,0)" stroke="none">90000</tspan></tspan></tspan></text>
 <text class="TextShape"><tspan class="TextParagraph" font-family="Liberation Sans" font-size="353px" font-weight="400"><tspan class="TextPosition" x="1065" y="548"><tspan fill="rgb(0,0,0)" stroke="none">100000</tspan></tspan></tspan></text>
 <path fill="none" stroke="rgb(0,69,134)" stroke-width="80" stroke-linejoin="round" d="M 8947,5043 L 9747,5043"/>
 <path fill="rgb(0,69,134)" stroke="none" d="M 9241,4938 L 9241,5149 9452,5149 9452,4938 9241,4938 Z"/>
 <path fill="none" stroke="rgb(0,69,134)" stroke-linejoin="round" d="M 9241,4938 L 9241,5149 9452,5149 9452,4938 9241,4938 Z"/>
 <path fill="none" stroke="rgb(255,66,14)" stroke-width="80" stroke-linejoin="round" d="M 8947,5541 L 9747,5541"/>
 <path fill="rgb(255,66,14)" stroke="none" d="M 9241,5541 L 9347,5647 9452,5541 9347,5436 9241,5541 Z"/>
 <path fill="none" stroke="rgb(255,66,14)" stroke-linejoin="round" d="M 9241,5541 L 9347,5647 9452,5541 9347,5436 9241,5541 Z"/>
 <path fill="none" stroke="rgb(255,211,32)" stroke-width="80" stroke-linejoin="round" d="M 8947,6038 L 9747,6038"/>
 <path fill="rgb(255,211,32)" stroke="none" d="M 9241,5933 L 9347,6144 9452,5933 9241,5933 Z"/>
 <path fill="none" stroke="rgb(255,211,32)" stroke-linejoin="round" d="M 9241,5933 L 9347,6144 9452,5933 9241,5933 Z"/>
 <path fill="none" stroke="rgb(87,157,28)" stroke-width="80" stroke-linejoin="round" d="M 8947,6536 L 9747,6536"/>
 <path fill="rgb(87,157,28)" stroke="none" d="M 9241,6642 L 9452,6642 9347,6431 9241,6642 Z"/>
 <path fill="none" stroke="rgb(87,157,28)" stroke-linejoin="round" d="M 9241,6642 L 9452,6642 9347,6431 9241,6642 Z"/>
 <text class="TextShape"><tspan class="TextParagraph" font-family="Liberation Sans" font-size="353px" font-weight="400"><tspan class="TextPosition" x="9847" y="5163"><tspan fill="rgb(0,0,0)" stroke="none">3% robots</tspan></tspan></tspan></text>
 <text class="TextShape"><tspan class="TextParagraph" font-family="Liberation Sans" font-size="353px" font-weight="400"><tspan class="TextPosition" x="9847" y="5661"><tspan fill="rgb(0,0,0)" stroke="none">6% robots</tspan></tspan></tspan></text>
 <text class="TextShape"><tspan class="TextParagraph" font-family="Liberation Sans" font-size="353px" font-weight="400"><tspan class="TextPosition" x="9847" y="6158"><tspan fill="rgb(0,0,0)" stroke="none">9% robots</tspan></tspan></tspan></text>
 <text class="TextShape"><tspan class="TextParagraph" font-family="Liberation Sans" font-size="353px" font-weight="400"><tspan class="TextPosition" x="9847" y="6656"><tspan fill="rgb(0,0,0)" stroke="none">11% robots</tspan></tspan></tspan></text>
 <text class="TextShape"><tspan class="TextParagraph" font-family="Liberation Sans" font-size="318px" font-weight="400"><tspan class="TextPosition" x="2817" y="10987"><tspan fill="rgb(0,0,0)" stroke="none">Starting point in % of humans</tspan></tspan></tspan></text>
 <text class="TextShape" transform="translate(837,7350) rotate(-90) translate(-837,-7350)"><tspan class="TextParagraph" font-family="Liberation Sans" font-size="318px" font-weight="400"><tspan class="TextPosition" x="837" y="7350"><tspan fill="rgb(0,0,0)" stroke="none">% of humans use robot word</tspan></tspan></tspan></text>
</svg>