<?xml version="1.0" encoding="UTF-8"?>
<!DOCTYPE svg PUBLIC "-//W3C//DTD SVG 1.1//EN" "http://www.w3.org/Graphics/SVG/1.1/DTD/svg11.dtd">
<svg width="119mm" height="116mm" viewBox="0 0 11900 11600" version="1.1" xmlns="http://www.w3.org/2000/svg" stroke-width="28.222" stroke-linejoin="round" xml:space="preserve">
 <path fill="rgb(255,255,255)" stroke="none" d="M 5961,11581 L 0,11581 0,0 11921,0 11921,11581 5961,11581 Z"/>
 <path fill="none" stroke="rgb(179,179,179)" stroke-linejoin="round" d="M 5045,9722 L 1870,9722 1870,430 8220,430 8220,9722 5045,9722 Z"/>
 <path fill="none" stroke="rgb(179,179,179)" stroke-linejoin="round" d="M 8220,9721 L 1870,9721"/>
 <path fill="none" stroke="rgb(179,179,179)" stroke-linejoin="round" d="M 8220,8172 L 1870,8172"/>
 <path fill="none" stroke="rgb(179,179,179)" stroke-linejoin="round" d="M 8220,6623 L 1870,6623"/>
 <path fill="none" stroke="rgb(179,179,179)" stroke-linejoin="round" d="M 8220,5075 L 1870,5075"/>
 <path fill="none" stroke="rgb(179,179,179)" stroke-linejoin="round" d="M 8220,3526 L 1870,3526"/>
 <path fill="none" stroke="rgb(179,179,179)" stroke-linejoin="round" d="M 8220,1977 L 1870,1977"/>
 <path fill="none" stroke="rgb(179,179,179)" stroke-linejoin="round" d="M 8220,429 L 1870,429"/>
 <path fill="none" stroke="rgb(179,179,179)" stroke-linejoin="round" d="M 1870,9871 L 1870,9721"/>
 <path fill="none" stroke="rgb(179,179,179)" stroke-linejoin="round" d="M 1870,9871 L 1870,9721"/>
 <path fill="none" stroke="rgb(179,179,179)" stroke-linejoin="round" d="M 2663,9871 L 2663,9721"/>
 <path fill="none" stroke="rgb(179,179,179)" stroke-linejoin="round" d="M 2663,9871 L 2663,9721"/>
 <path fill="none" stroke="rgb(179,179,179)" stroke-linejoin="round" d="M 3457,9871 L 3457,9721"/>
 <path fill="none" stroke="rgb(179,179,179)" stroke-linejoin="round" d="M 3457,9871 L 3457,9721"/>
 <path fill="none" stroke="rgb(179,179,179)" stroke-linejoin="round" d="M 4251,9871 L 4251,9721"/>
 <path fill="none" stroke="rgb(179,179,179)" stroke-linejoin="round" d="M 4251,9871 L 4251,9721"/>
 <path fill="none" stroke="rgb(179,179,179)" stroke-linejoin="round" d="M 5045,9871 L 5045,9721"/>
 <path fill="none" stroke="rgb(179,179,179)" stroke-linejoin="round" d="M 5045,9871 L 5045,9721"/>
 <path fill="none" stroke="rgb(179,179,179)" stroke-linejoin="round" d="M 5839,9871 L 5839,9721"/>
 <path fill="none" stroke="rgb(179,179,179)" stroke-linejoin="round" d="M 5839,9871 L 5839,9721"/>
 <path fill="none" stroke="rgb(179,179,179)" stroke-linejoin="round" d="M 6632,9871 L 6632,9721"/>
 <path fill="none" stroke="rgb(179,179,179)" stroke-linejoin="round" d="M 6632,9871 L 6632,9721"/>
 <path fill="none" stroke="rgb(179,179,179)" stroke-linejoin="round" d="M 7426,9871 L 7426,9721"/>
 <path fill="none" stroke="rgb(179,179,179)" stroke-linejoin="round" d="M 7426,9871 L 7426,9721"/>
 <path fill="none" stroke="rgb(179,179,179)" stroke-linejoin="round" d="M 8220,9871 L 8220,9721"/>
 <path fill="none" stroke="rgb(179,179,179)" stroke-linejoin="round" d="M 8220,9871 L 8220,9721"/>
 <path fill="none" stroke="rgb(179,179,179)" stroke-linejoin="round" d="M 1870,9721 L 8220,9721"/>
 <path fill="none" stroke="rgb(179,179,179)" stroke-linejoin="round" d="M 1720,9721 L 1870,9721"/>
 <path fill="none" stroke="rgb(179,179,179)" stroke-linejoin="round" d="M 1720,9721 L 1870,9721"/>
 <path fill="none" stroke="rgb(179,179,179)" stroke-linejoin="round" d="M 1720,8172 L 1870,8172"/>
 <path fill="none" stroke="rgb(179,179,179)" stroke-linejoin="round" d="M 1720,8172 L 1870,8172"/>
 <path fill="none" stroke="rgb(179,179,179)" stroke-linejoin="round" d="M 1720,6623 L 1870,6623"/>
 <path fill="none" stroke="rgb(179,179,179)" stroke-linejoin="round" d="M 1720,6623 L 1870,6623"/>
 <path fill="none" stroke="rgb(179,179,179)" stroke-linejoin="round" d="M 1720,5075 L 1870,5075"/>
 <path fill="none" stroke="rgb(179,179,179)" stroke-linejoin="round" d="M 1720,5075 L 1870,5075"/>
 <path fill="none" stroke="rgb(179,179,179)" stroke-linejoin="round" d="M 1720,3526 L 1870,3526"/>
 <path fill="none" stroke="rgb(179,179,179)" stroke-linejoin="round" d="M 1720,3526 L 1870,3526"/>
 <path fill="none" stroke="rgb(179,179,179)" stroke-linejoin="round" d="M 1720,1977 L 1870,1977"/>
 <path fill="none" stroke="rgb(179,179,179)" stroke-linejoin="round" d="M 1720,1977 L 1870,1977"/>
 <path fill="none" stroke="rgb(179,179,179)" stroke-linejoin="round" d="M 1720,429 L 1870,429"/>
 <path fill="none" stroke="rgb(179,179,179)" stroke-linejoin="round" d="M 1720,429 L 1870,429"/>
 <path fill="none" stroke="rgb(179,179,179)" stroke-linejoin="round" d="M 1870,9721 L 1870,429"/>
 <path fill="none" stroke="rgb(87,157,28)" stroke-width="80" stroke-linejoin="round" d="M 1870,2407 L 3854,2127 5839,2031 7823,1985"/>
 <path fill="rgb(87,157,28)" stroke="none" d="M 1745,2532 L 1995,2532 1870,2282 1745,2532 Z"/>
 <path fill="none" stroke="rgb(87,157,28)" stroke-linejoin="round" d="M 1745,2532 L 1995,2532 1870,2282 1745,2532 Z"/>
 <path fill="rgb(87,157,28)" stroke="none" d="M 3729,2252 L 3979,2252 3854,2002 3729,2252 Z"/>
 <path fill="none" stroke="rgb(87,157,28)" stroke-linejoin="round" d="M 3729,2252 L 3979,2252 3854,2002 3729,2252 Z"/>
 <path fill="rgb(87,157,28)" stroke="none" d="M 5714,2156 L 5963,2156 5839,1906 5714,2156 Z"/>
 <path fill="none" stroke="rgb(87,157,28)" stroke-linejoin="round" d="M 5714,2156 L 5963,2156 5839,1906 5714,2156 Z"/>
 <path fill="rgb(87,157,28)" stroke="none" d="M 7698,2110 L 7948,2110 7823,1860 7698,2110 Z"/>
 <path fill="none" stroke="rgb(87,157,28)" stroke-linejoin="round" d="M 7698,2110 L 7948,2110 7823,1860 7698,2110 Z"/>
 <path fill="none" stroke="rgb(255,211,32)" stroke-width="80" stroke-linejoin="round" d="M 1870,4036 L 3854,3094 5839,2392 7823,2291"/>
 <path fill="rgb(255,211,32)" stroke="none" d="M 1745,3911 L 1870,4161 1995,3911 1745,3911 Z"/>
 <path fill="none" stroke="rgb(255,211,32)" stroke-linejoin="round" d="M 1745,3911 L 1870,4161 1995,3911 1745,3911 Z"/>
 <path fill="rgb(255,211,32)" stroke="none" d="M 3729,2969 L 3854,3219 3979,2969 3729,2969 Z"/>
 <path fill="none" stroke="rgb(255,211,32)" stroke-linejoin="round" d="M 3729,2969 L 3854,3219 3979,2969 3729,2969 Z"/>
 <path fill="rgb(255,211,32)" stroke="none" d="M 5714,2267 L 5839,2517 5963,2267 5714,2267 Z"/>
 <path fill="none" stroke="rgb(255,211,32)" stroke-linejoin="round" d="M 5714,2267 L 5839,2517 5963,2267 5714,2267 Z"/>
 <path fill="rgb(255,211,32)" stroke="none" d="M 7698,2166 L 7823,2416 7948,2166 7698,2166 Z"/>
 <path fill="none" stroke="rgb(255,211,32)" stroke-linejoin="round" d="M 7698,2166 L 7823,2416 7948,2166 7698,2166 Z"/>
 <path fill="none" stroke="rgb(255,66,14)" stroke-width="80" stroke-linejoin="round" d="M 1870,8104 L 3854,7019 5839,5952 7823,4922"/>
 <path fill="rgb(255,66,14)" stroke="none" d="M 1745,8104 L 1870,8229 1995,8104 1870,7979 1745,8104 Z"/>
 <path fill="none" stroke="rgb(255,66,14)" stroke-linejoin="round" d="M 1745,8104 L 1870,8229 1995,8104 1870,7979 1745,8104 Z"/>
 <path fill="rgb(255,66,14)" stroke="none" d="M 3729,7019 L 3854,7144 3979,7019 3854,6894 3729,7019 Z"/>
 <path fill="none" stroke="rgb(255,66,14)" stroke-linejoin="round" d="M 3729,7019 L 3854,7144 3979,7019 3854,6894 3729,7019 Z"/>
 <path fill="rgb(255,66,14)" stroke="none" d="M 5714,5952 L 5839,6077 5963,5952 5839,5827 5714,5952 Z"/>
 <path fill="none" stroke="rgb(255,66,14)" stroke-linejoin="round" d="M 5714,5952 L 5839,6077 5963,5952 5839,5827 5714,5952 Z"/>
 <path fill="rgb(255,66,14)" stroke="none" d="M 7698,4922 L 7823,5047 7948,4922 7823,4797 7698,4922 Z"/>
 <path fill="none" stroke="rgb(255,66,14)" stroke-linejoin="round" d="M 7698,4922 L 7823,5047 7948,4922 7823,4797 7698,4922 Z"/>
 <path fill="none" stroke="rgb(0,69,134)" stroke-width="80" stroke-linejoin="round" d="M 1870,9706 L 3854,9652 5839,9557 7823,9326"/>
 <path fill="rgb(0,69,134)" stroke="none" d="M 1745,9581 L 1745,9831 1995,9831 1995,9581 1745,9581 Z"/>
 <path fill="none" stroke="rgb(0,69,134)" stroke-linejoin="round" d="M 1745,9581 L 1745,9831 1995,9831 1995,9581 1745,9581 Z"/>
 <path fill="rgb(0,69,134)" stroke="none" d="M 3729,9527 L 3729,9777 3979,9777 3979,9527 3729,9527 Z"/>
 <path fill="none" stroke="rgb(0,69,134)" stroke-linejoin="round" d="M 3729,9527 L 3729,9777 3979,9777 3979,9527 3729,9527 Z"/>
 <path fill="rgb(0,69,134)" stroke="none" d="M 5714,9432 L 5714,9682 5963,9682 5963,9432 5714,9432 Z"/>
 <path fill="none" stroke="rgb(0,69,134)" stroke-linejoin="round" d="M 5714,9432 L 5714,9682 5963,9682 5963,9432 5714,9432 Z"/>
 <path fill="rgb(0,69,134)" stroke="none" d="M 7698,9201 L 7698,9451 7948,9451 7948,9201 7698,9201 Z"/>
 <path fill="none" stroke="rgb(0,69,134)" stroke-linejoin="round" d="M 7698,9201 L 7698,9451 7948,9451 7948,9201 7698,9201 Z"/>
 <text class="TextShape"><tspan class="TextParagraph" font-family="Liberation Sans" font-size="353px" font-weight="400"><tspan class="TextPosition" x="1777" y="10289"><tspan fill="rgb(0,0,0)" stroke="none">0</tspan></tspan></tspan></text>
 <text class="TextShape"><tspan class="TextParagraph" font-family="Liberation Sans" font-size="353px" font-weight="400"><tspan class="TextPosition" x="2478" y="10289"><tspan fill="rgb(0,0,0)" stroke="none">10</tspan></tspan></tspan></text>
 <text class="TextShape"><tspan class="TextParagraph" font-family="Liberation Sans" font-size="353px" font-weight="400"><tspan class="TextPosition" x="3272" y="10289"><tspan fill="rgb(0,0,0)" stroke="none">20</tspan></tspan></tspan></text>
 <text class="TextShape"><tspan class="TextParagraph" font-family="Liberation Sans" font-size="353px" font-weight="400"><tspan class="TextPosition" x="4066" y="10289"><tspan fill="rgb(0,0,0)" stroke="none">30</tspan></tspan></tspan></text>
 <text class="TextShape"><tspan class="TextParagraph" font-family="Liberation Sans" font-size="353px" font-weight="400"><tspan class="TextPosition" x="4860" y="10289"><tspan fill="rgb(0,0,0)" stroke="none">40</tspan></tspan></tspan></text>
 <text class="TextShape"><tspan class="TextParagraph" font-family="Liberation Sans" font-size="353px" font-weight="400"><tspan class="TextPosition" x="5654" y="10289"><tspan fill="rgb(0,0,0)" stroke="none">50</tspan></tspan></tspan></text>
 <text class="TextShape"><tspan class="TextParagraph" font-family="Liberation Sans" font-size="353px" font-weight="400"><tspan class="TextPosition" x="6448" y="10289"><tspan fill="rgb(0,0,0)" stroke="none">60</tspan></tspan></tspan></text>
 <text class="TextShape"><tspan class="TextParagraph" font-family="Liberation Sans" font-size="353px" font-weight="400"><tspan class="TextPosition" x="7242" y="10289"><tspan fill="rgb(0,0,0)" stroke="none">70</tspan></tspan></tspan></text>
 <text class="TextShape"><tspan class="TextParagraph" font-family="Liberation Sans" font-size="353px" font-weight="400"><tspan class="TextPosition" x="8036" y="10289"><tspan fill="rgb(0,0,0)" stroke="none">80</tspan></tspan></tspan></text>
 <text class="TextShape"><tspan class="TextParagraph" font-family="Liberation Sans" font-size="353px" font-weight="400"><tspan class="TextPosition" x="1435" y="9842"><tspan fill="rgb(0,0,0)" stroke="none">0</tspan></tspan></tspan></text>
 <text class="TextShape"><tspan class="TextParagraph" font-family="Liberation Sans" font-size="353px" font-weight="400"><tspan class="TextPosition" x="1250" y="8293"><tspan fill="rgb(0,0,0)" stroke="none">20</tspan></tspan></tspan></text>
 <text class="TextShape"><tspan class="TextParagraph" font-family="Liberation Sans" font-size="353px" font-weight="400"><tspan class="TextPosition" x="1250" y="6744"><tspan fill="rgb(0,0,0)" stroke="none">40</tspan></tspan></tspan></text>
 <text class="TextShape"><tspan class="TextParagraph" font-family="Liberation Sans" font-size="353px" font-weight="400"><tspan class="TextPosition" x="1250" y="5195"><tspan fill="rgb(0,0,0)" stroke="none">60</tspan></tspan></tspan></text>
 <text class="TextShape"><tspan class="TextParagraph" font-family="Liberation Sans" font-size="353px" font-weight="400"><tspan class="TextPosition" x="1250" y="3646"><tspan fill="rgb(0,0,0)" stroke="none">80</tspan></tspan></tspan></text>
 <text class="TextShape"><tspan class="TextParagraph" font-family="Liberation Sans" font-size="353px" font-weight="400"><tspan class="TextPosition" x="1064" y="2097"><tspan fill="rgb(0,0,0)" stroke="none">100</tspan></tspan></tspan></text>
 <text class="TextShape"><tspan class="TextParagraph" font-family="Liberation Sans" font-size="353px" font-weight="400"><tspan class="TextPosition" x="1064" y="549"><tspan fill="rgb(0,0,0)" stroke="none">120</tspan></tspan></tspan></text>
 <path fill="none" stroke="rgb(0,69,134)" stroke-width="80" stroke-linejoin="round" d="M 8947,5043 L 9747,5043"/>
 <path fill="rgb(0,69,134)" stroke="none" d="M 9241,4938 L 9241,5149 9452,5149 9452,4938 9241,4938 Z"/>
 <path fill="none" stroke="rgb(0,69,134)" stroke-linejoin="round" d="M 9241,4938 L 9241,5149 9452,5149 9452,4938 9241,4938 Z"/>
 <path fill="none" stroke="rgb(255,66,14)" stroke-width="80" stroke-linejoin="round" d="M 8947,5541 L 9747,5541"/>
 <path fill="rgb(255,66,14)" stroke="none" d="M 9241,5541 L 9347,5647 9452,5541 9347,5436 9241,5541 Z"/>
 <path fill="none" stroke="rgb(255,66,14)" stroke-linejoin="round" d="M 9241,5541 L 9347,5647 9452,5541 9347,5436 9241,5541 Z"/>
 <path fill="none" stroke="rgb(255,211,32)" stroke-width="80" stroke-linejoin="round" d="M 8947,6038 L 9747,6038"/>
 <path fill="rgb(255,211,32)" stroke="none" d="M 9241,5933 L 9347,6144 9452,5933 9241,5933 Z"/>
 <path fill="none" stroke="rgb(255,211,32)" stroke-linejoin="round" d="M 9241,5933 L 9347,6144 9452,5933 9241,5933 Z"/>
 <path fill="none" stroke="rgb(87,157,28)" stroke-width="80" stroke-linejoin="round" d="M 8947,6536 L 9747,6536"/>
 <path fill="rgb(87,157,28)" stroke="none" d="M 9241,6642 L 9452,6642 9347,6431 9241,6642 Z"/>
 <path fill="none" stroke="rgb(87,157,28)" stroke-linejoin="round" d="M 9241,6642 L 9452,6642 9347,6431 9241,6642 Z"/>
 <text class="TextShape"><tspan class="TextParagraph" font-family="Liberation Sans" font-size="353px" font-weight="400"><tspan class="TextPosition" x="9847" y="5163"><tspan fill="rgb(0,0,0)" stroke="none">3% robots</tspan></tspan></tspan></text>
 <text class="TextShape"><tspan class="TextParagraph" font-family="Liberation Sans" font-size="353px" font-weight="400"><tspan class="TextPosition" x="9847" y="5661"><tspan fill="rgb(0,0,0)" stroke="none">6% robots</tspan></tspan></tspan></text>
 <text class="TextShape"><tspan class="TextParagraph" font-family="Liberation Sans" font-size="353px" font-weight="400"><tspan class="TextPosition" x="9847" y="6158"><tspan fill="rgb(0,0,0)" stroke="none">9% robots</tspan></tspan></tspan></text>
 <text class="TextShape"><tspan class="TextParagraph" font-family="Liberation Sans" font-size="353px" font-weight="400"><tspan class="TextPosition" x="9847" y="6656"><tspan fill="rgb(0,0,0)" stroke="none">11% robots</tspan></tspan></tspan></text>
 <text class="TextShape"><tspan class="TextParagraph" font-family="Liberation Sans" font-size="318px" font-weight="400"><tspan class="TextPosition" x="2817" y="10987"><tspan fill="rgb(0,0,0)" stroke="none">Starting point in % of humans</tspan></tspan></tspan></text>
 <text class="TextShape" transform="translate(837,7350) rotate(-90) translate(-837,-7350)"><tspan class="TextParagraph" font-family="Liberation Sans" font-size="318px" font-weight="400"><tspan class="TextPosition" x="837" y="7350"><tspan fill="rgb(0,0,0)" stroke="none">% of humans use robot word</tspan></tspan></tspan></text>
</svg>