<?xml version="1.0" encoding="UTF-8"?>
<!DOCTYPE svg PUBLIC "-//W3C//DTD SVG 1.1//EN" "http://www.w3.org/Graphics/SVG/1.1/DTD/svg11.dtd">
<svg width="119mm" height="116mm" viewBox="0 0 11900 11600" version="1.1" xmlns="http://www.w3.org/2000/svg" stroke-width="28.222" stroke-linejoin="round" xml:space="preserve">
 <path fill="rgb(255,255,255)" stroke="none" d="M 5961,11581 L 0,11581 0,0 11921,0 11921,11581 5961,11581 Z"/>
 <path fill="none" stroke="rgb(179,179,179)" stroke-linejoin="round" d="M 5138,9722 L 1870,9722 1870,430 8406,430 8406,9722 5138,9722 Z"/>
 <path fill="none" stroke="rgb(179,179,179)" stroke-linejoin="round" d="M 8406,9721 L 1870,9721"/>
 <path fill="none" stroke="rgb(179,179,179)" stroke-linejoin="round" d="M 8406,8393 L 1870,8393"/>
 <path fill="none" stroke="rgb(179,179,179)" stroke-linejoin="round" d="M 8406,7065 L 1870,7065"/>
 <path fill="none" stroke="rgb(179,179,179)" stroke-linejoin="round" d="M 8406,5739 L 1870,5739"/>
 <path fill="none" stroke="rgb(179,179,179)" stroke-linejoin="round" d="M 8406,4411 L 1870,4411"/>
 <path fill="none" stroke="rgb(179,179,179)" stroke-linejoin="round" d="M 8406,3084 L 1870,3084"/>
 <path fill="none" stroke="rgb(179,179,179)" stroke-linejoin="round" d="M 8406,1756 L 1870,1756"/>
 <path fill="none" stroke="rgb(179,179,179)" stroke-linejoin="round" d="M 8406,429 L 1870,429"/>
 <path fill="none" stroke="rgb(179,179,179)" stroke-linejoin="round" d="M 1870,9871 L 1870,9721"/>
 <path fill="none" stroke="rgb(179,179,179)" stroke-linejoin="round" d="M 1870,9871 L 1870,9721"/>
 <path fill="none" stroke="rgb(179,179,179)" stroke-linejoin="round" d="M 2687,9871 L 2687,9721"/>
 <path fill="none" stroke="rgb(179,179,179)" stroke-linejoin="round" d="M 2687,9871 L 2687,9721"/>
 <path fill="none" stroke="rgb(179,179,179)" stroke-linejoin="round" d="M 3504,9871 L 3504,9721"/>
 <path fill="none" stroke="rgb(179,179,179)" stroke-linejoin="round" d="M 3504,9871 L 3504,9721"/>
 <path fill="none" stroke="rgb(179,179,179)" stroke-linejoin="round" d="M 4321,9871 L 4321,9721"/>
 <path fill="none" stroke="rgb(179,179,179)" stroke-linejoin="round" d="M 4321,9871 L 4321,9721"/>
 <path fill="none" stroke="rgb(179,179,179)" stroke-linejoin="round" d="M 5138,9871 L 5138,9721"/>
 <path fill="none" stroke="rgb(179,179,179)" stroke-linejoin="round" d="M 5138,9871 L 5138,9721"/>
 <path fill="none" stroke="rgb(179,179,179)" stroke-linejoin="round" d="M 5955,9871 L 5955,9721"/>
 <path fill="none" stroke="rgb(179,179,179)" stroke-linejoin="round" d="M 5955,9871 L 5955,9721"/>
 <path fill="none" stroke="rgb(179,179,179)" stroke-linejoin="round" d="M 6771,9871 L 6771,9721"/>
 <path fill="none" stroke="rgb(179,179,179)" stroke-linejoin="round" d="M 6771,9871 L 6771,9721"/>
 <path fill="none" stroke="rgb(179,179,179)" stroke-linejoin="round" d="M 7588,9871 L 7588,9721"/>
 <path fill="none" stroke="rgb(179,179,179)" stroke-linejoin="round" d="M 7588,9871 L 7588,9721"/>
 <path fill="none" stroke="rgb(179,179,179)" stroke-linejoin="round" d="M 8406,9871 L 8406,9721"/>
 <path fill="none" stroke="rgb(179,179,179)" stroke-linejoin="round" d="M 8406,9871 L 8406,9721"/>
 <path fill="none" stroke="rgb(179,179,179)" stroke-linejoin="round" d="M 1870,9721 L 8406,9721"/>
 <path fill="none" stroke="rgb(179,179,179)" stroke-linejoin="round" d="M 1720,9721 L 1870,9721"/>
 <path fill="none" stroke="rgb(179,179,179)" stroke-linejoin="round" d="M 1720,9721 L 1870,9721"/>
 <path fill="none" stroke="rgb(179,179,179)" stroke-linejoin="round" d="M 1720,8393 L 1870,8393"/>
 <path fill="none" stroke="rgb(179,179,179)" stroke-linejoin="round" d="M 1720,8393 L 1870,8393"/>
 <path fill="none" stroke="rgb(179,179,179)" stroke-linejoin="round" d="M 1720,7065 L 1870,7065"/>
 <path fill="none" stroke="rgb(179,179,179)" stroke-linejoin="round" d="M 1720,7065 L 1870,7065"/>
 <path fill="none" stroke="rgb(179,179,179)" stroke-linejoin="round" d="M 1720,5739 L 1870,5739"/>
 <path fill="none" stroke="rgb(179,179,179)" stroke-linejoin="round" d="M 1720,5739 L 1870,5739"/>
 <path fill="none" stroke="rgb(179,179,179)" stroke-linejoin="round" d="M 1720,4411 L 1870,4411"/>
 <path fill="none" stroke="rgb(179,179,179)" stroke-linejoin="round" d="M 1720,4411 L 1870,4411"/>
 <path fill="none" stroke="rgb(179,179,179)" stroke-linejoin="round" d="M 1720,3084 L 1870,3084"/>
 <path fill="none" stroke="rgb(179,179,179)" stroke-linejoin="round" d="M 1720,3084 L 1870,3084"/>
 <path fill="none" stroke="rgb(179,179,179)" stroke-linejoin="round" d="M 1720,1756 L 1870,1756"/>
 <path fill="none" stroke="rgb(179,179,179)" stroke-linejoin="round" d="M 1720,1756 L 1870,1756"/>
 <path fill="none" stroke="rgb(179,179,179)" stroke-linejoin="round" d="M 1720,429 L 1870,429"/>
 <path fill="none" stroke="rgb(179,179,179)" stroke-linejoin="round" d="M 1720,429 L 1870,429"/>
 <path fill="none" stroke="rgb(179,179,179)" stroke-linejoin="round" d="M 1870,9721 L 1870,429"/>
 <path fill="none" stroke="rgb(87,157,28)" stroke-width="80" stroke-linejoin="round" d="M 1870,3582 L 3912,2696 5955,2059 7997,943"/>
 <path fill="rgb(87,157,28)" stroke="none" d="M 1745,3707 L 1995,3707 1870,3457 1745,3707 Z"/>
 <path fill="none" stroke="rgb(87,157,28)" stroke-linejoin="round" d="M 1745,3707 L 1995,3707 1870,3457 1745,3707 Z"/>
 <path fill="rgb(87,157,28)" stroke="none" d="M 3787,2821 L 4037,2821 3912,2571 3787,2821 Z"/>
 <path fill="none" stroke="rgb(87,157,28)" stroke-linejoin="round" d="M 3787,2821 L 4037,2821 3912,2571 3787,2821 Z"/>
 <path fill="rgb(87,157,28)" stroke="none" d="M 5830,2184 L 6079,2184 5955,1934 5830,2184 Z"/>
 <path fill="none" stroke="rgb(87,157,28)" stroke-linejoin="round" d="M 5830,2184 L 6079,2184 5955,1934 5830,2184 Z"/>
 <path fill="rgb(87,157,28)" stroke="none" d="M 7872,1068 L 8122,1068 7997,818 7872,1068 Z"/>
 <path fill="none" stroke="rgb(87,157,28)" stroke-linejoin="round" d="M 7872,1068 L 8122,1068 7997,818 7872,1068 Z"/>
 <path fill="none" stroke="rgb(255,211,32)" stroke-width="80" stroke-linejoin="round" d="M 1870,4997 L 3912,4265 5955,3508 7997,2766"/>
 <path fill="rgb(255,211,32)" stroke="none" d="M 1745,4872 L 1870,5122 1995,4872 1745,4872 Z"/>
 <path fill="none" stroke="rgb(255,211,32)" stroke-linejoin="round" d="M 1745,4872 L 1870,5122 1995,4872 1745,4872 Z"/>
 <path fill="rgb(255,211,32)" stroke="none" d="M 3787,4140 L 3912,4390 4037,4140 3787,4140 Z"/>
 <path fill="none" stroke="rgb(255,211,32)" stroke-linejoin="round" d="M 3787,4140 L 3912,4390 4037,4140 3787,4140 Z"/>
 <path fill="rgb(255,211,32)" stroke="none" d="M 5830,3383 L 5955,3633 6079,3383 5830,3383 Z"/>
 <path fill="none" stroke="rgb(255,211,32)" stroke-linejoin="round" d="M 5830,3383 L 5955,3633 6079,3383 5830,3383 Z"/>
 <path fill="rgb(255,211,32)" stroke="none" d="M 7872,2641 L 7997,2891 8122,2641 7872,2641 Z"/>
 <path fill="none" stroke="rgb(255,211,32)" stroke-linejoin="round" d="M 7872,2641 L 7997,2891 8122,2641 7872,2641 Z"/>
 <path fill="none" stroke="rgb(255,66,14)" stroke-width="80" stroke-linejoin="round" d="M 1870,6946 L 3912,6467 5955,5953 7997,5389"/>
 <path fill="rgb(255,66,14)" stroke="none" d="M 1745,6946 L 1870,7071 1995,6946 1870,6821 1745,6946 Z"/>
 <path fill="none" stroke="rgb(255,66,14)" stroke-linejoin="round" d="M 1745,6946 L 1870,7071 1995,6946 1870,6821 1745,6946 Z"/>
 <path fill="rgb(255,66,14)" stroke="none" d="M 3787,6467 L 3912,6592 4037,6467 3912,6342 3787,6467 Z"/>
 <path fill="none" stroke="rgb(255,66,14)" stroke-linejoin="round" d="M 3787,6467 L 3912,6592 4037,6467 3912,6342 3787,6467 Z"/>
 <path fill="rgb(255,66,14)" stroke="none" d="M 5830,5953 L 5955,6078 6079,5953 5955,5828 5830,5953 Z"/>
 <path fill="none" stroke="rgb(255,66,14)" stroke-linejoin="round" d="M 5830,5953 L 5955,6078 6079,5953 5955,5828 5830,5953 Z"/>
 <path fill="rgb(255,66,14)" stroke="none" d="M 7872,5389 L 7997,5514 8122,5389 7997,5264 7872,5389 Z"/>
 <path fill="none" stroke="rgb(255,66,14)" stroke-linejoin="round" d="M 7872,5389 L 7997,5514 8122,5389 7997,5264 7872,5389 Z"/>
 <path fill="none" stroke="rgb(0,69,134)" stroke-width="80" stroke-linejoin="round" d="M 1870,8595 L 3912,8311 5955,8206 7997,7963"/>
 <path fill="rgb(0,69,134)" stroke="none" d="M 1745,8470 L 1745,8720 1995,8720 1995,8470 1745,8470 Z"/>
 <path fill="none" stroke="rgb(0,69,134)" stroke-linejoin="round" d="M 1745,8470 L 1745,8720 1995,8720 1995,8470 1745,8470 Z"/>
 <path fill="rgb(0,69,134)" stroke="none" d="M 3787,8186 L 3787,8436 4037,8436 4037,8186 3787,8186 Z"/>
 <path fill="none" stroke="rgb(0,69,134)" stroke-linejoin="round" d="M 3787,8186 L 3787,8436 4037,8436 4037,8186 3787,8186 Z"/>
 <path fill="rgb(0,69,134)" stroke="none" d="M 5830,8081 L 5830,8331 6079,8331 6079,8081 5830,8081 Z"/>
 <path fill="none" stroke="rgb(0,69,134)" stroke-linejoin="round" d="M 5830,8081 L 5830,8331 6079,8331 6079,8081 5830,8081 Z"/>
 <path fill="rgb(0,69,134)" stroke="none" d="M 7872,7838 L 7872,8088 8122,8088 8122,7838 7872,7838 Z"/>
 <path fill="none" stroke="rgb(0,69,134)" stroke-linejoin="round" d="M 7872,7838 L 7872,8088 8122,8088 8122,7838 7872,7838 Z"/>
 <text class="TextShape"><tspan class="TextParagraph" font-family="Liberation Sans" font-size="353px" font-weight="400"><tspan class="TextPosition" x="1777" y="10289"><tspan fill="rgb(0,0,0)" stroke="none">0</tspan></tspan></tspan></text>
 <text class="TextShape"><tspan class="TextParagraph" font-family="Liberation Sans" font-size="353px" font-weight="400"><tspan class="TextPosition" x="2502" y="10289"><tspan fill="rgb(0,0,0)" stroke="none">10</tspan></tspan></tspan></text>
 <text class="TextShape"><tspan class="TextParagraph" font-family="Liberation Sans" font-size="353px" font-weight="400"><tspan class="TextPosition" x="3319" y="10289"><tspan fill="rgb(0,0,0)" stroke="none">20</tspan></tspan></tspan></text>
 <text class="TextShape"><tspan class="TextParagraph" font-family="Liberation Sans" font-size="353px" font-weight="400"><tspan class="TextPosition" x="4136" y="10289"><tspan fill="rgb(0,0,0)" stroke="none">30</tspan></tspan></tspan></text>
 <text class="TextShape"><tspan class="TextParagraph" font-family="Liberation Sans" font-size="353px" font-weight="400"><tspan class="TextPosition" x="4953" y="10289"><tspan fill="rgb(0,0,0)" stroke="none">40</tspan></tspan></tspan></text>
 <text class="TextShape"><tspan class="TextParagraph" font-family="Liberation Sans" font-size="353px" font-weight="400"><tspan class="TextPosition" x="5770" y="10289"><tspan fill="rgb(0,0,0)" stroke="none">50</tspan></tspan></tspan></text>
 <text class="TextShape"><tspan class="TextParagraph" font-family="Liberation Sans" font-size="353px" font-weight="400"><tspan class="TextPosition" x="6587" y="10289"><tspan fill="rgb(0,0,0)" stroke="none">60</tspan></tspan></tspan></text>
 <text class="TextShape"><tspan class="TextParagraph" font-family="Liberation Sans" font-size="353px" font-weight="400"><tspan class="TextPosition" x="7404" y="10289"><tspan fill="rgb(0,0,0)" stroke="none">70</tspan></tspan></tspan></text>
 <text class="TextShape"><tspan class="TextParagraph" font-family="Liberation Sans" font-size="353px" font-weight="400"><tspan class="TextPosition" x="8222" y="10289"><tspan fill="rgb(0,0,0)" stroke="none">80</tspan></tspan></tspan></text>
 <text class="TextShape"><tspan class="TextParagraph" font-family="Liberation Sans" font-size="353px" font-weight="400"><tspan class="TextPosition" x="1435" y="9842"><tspan fill="rgb(0,0,0)" stroke="none">0</tspan></tspan></tspan></text>
 <text class="TextShape"><tspan class="TextParagraph" font-family="Liberation Sans" font-size="353px" font-weight="400"><tspan class="TextPosition" x="1250" y="8514"><tspan fill="rgb(0,0,0)" stroke="none">10</tspan></tspan></tspan></text>
 <text class="TextShape"><tspan class="TextParagraph" font-family="Liberation Sans" font-size="353px" font-weight="400"><tspan class="TextPosition" x="1250" y="7186"><tspan fill="rgb(0,0,0)" stroke="none">20</tspan></tspan></tspan></text>
 <text class="TextShape"><tspan class="TextParagraph" font-family="Liberation Sans" font-size="353px" font-weight="400"><tspan class="TextPosition" x="1250" y="5859"><tspan fill="rgb(0,0,0)" stroke="none">30</tspan></tspan></tspan></text>
 <text class="TextShape"><tspan class="TextParagraph" font-family="Liberation Sans" font-size="353px" font-weight="400"><tspan class="TextPosition" x="1250" y="4531"><tspan fill="rgb(0,0,0)" stroke="none">40</tspan></tspan></tspan></text>
 <text class="TextShape"><tspan class="TextParagraph" font-family="Liberation Sans" font-size="353px" font-weight="400"><tspan class="TextPosition" x="1250" y="3204"><tspan fill="rgb(0,0,0)" stroke="none">50</tspan></tspan></tspan></text>
 <text class="TextShape"><tspan class="TextParagraph" font-family="Liberation Sans" font-size="353px" font-weight="400"><tspan class="TextPosition" x="1250" y="1876"><tspan fill="rgb(0,0,0)" stroke="none">60</tspan></tspan></tspan></text>
 <text class="TextShape"><tspan class="TextParagraph" font-family="Liberation Sans" font-size="353px" font-weight="400"><tspan class="TextPosition" x="1250" y="549"><tspan fill="rgb(0,0,0)" stroke="none">70</tspan></tspan></tspan></text>
 <path fill="none" stroke="rgb(0,69,134)" stroke-width="80" stroke-linejoin="round" d="M 8947,5043 L 9747,5043"/>
 <path fill="rgb(0,69,134)" stroke="none" d="M 9241,4938 L 9241,5149 9452,5149 9452,4938 9241,4938 Z"/>
 <path fill="none" stroke="rgb(0,69,134)" stroke-linejoin="round" d="M 9241,4938 L 9241,5149 9452,5149 9452,4938 9241,4938 Z"/>
 <path fill="none" stroke="rgb(255,66,14)" stroke-width="80" stroke-linejoin="round" d="M 8947,5541 L 9747,5541"/>
 <path fill="rgb(255,66,14)" stroke="none" d="M 9241,5541 L 9347,5647 9452,5541 9347,5436 9241,5541 Z"/>
 <path fill="none" stroke="rgb(255,66,14)" stroke-linejoin="round" d="M 9241,5541 L 9347,5647 9452,5541 9347,5436 9241,5541 Z"/>
 <path fill="none" stroke="rgb(255,211,32)" stroke-width="80" stroke-linejoin="round" d="M 8947,6038 L 9747,6038"/>
 <path fill="rgb(255,211,32)" stroke="none" d="M 9241,5933 L 9347,6144 9452,5933 9241,5933 Z"/>
 <path fill="none" stroke="rgb(255,211,32)" stroke-linejoin="round" d="M 9241,5933 L 9347,6144 9452,5933 9241,5933 Z"/>
 <path fill="none" stroke="rgb(87,157,28)" stroke-width="80" stroke-linejoin="round" d="M 8947,6536 L 9747,6536"/>
 <path fill="rgb(87,157,28)" stroke="none" d="M 9241,6642 L 9452,6642 9347,6431 9241,6642 Z"/>
 <path fill="none" stroke="rgb(87,157,28)" stroke-linejoin="round" d="M 9241,6642 L 9452,6642 9347,6431 9241,6642 Z"/>
 <text class="TextShape"><tspan class="TextParagraph" font-family="Liberation Sans" font-size="353px" font-weight="400"><tspan class="TextPosition" x="9847" y="5163"><tspan fill="rgb(0,0,0)" stroke="none">3% robots</tspan></tspan></tspan></text>
 <text class="TextShape"><tspan class="TextParagraph" font-family="Liberation Sans" font-size="353px" font-weight="400"><tspan class="TextPosition" x="9847" y="5661"><tspan fill="rgb(0,0,0)" stroke="none">6% robots</tspan></tspan></tspan></text>
 <text class="TextShape"><tspan class="TextParagraph" font-family="Liberation Sans" font-size="353px" font-weight="400"><tspan class="TextPosition" x="9847" y="6158"><tspan fill="rgb(0,0,0)" stroke="none">9% robots</tspan></tspan></tspan></text>
 <text class="TextShape"><tspan class="TextParagraph" font-family="Liberation Sans" font-size="353px" font-weight="400"><tspan class="TextPosition" x="9847" y="6656"><tspan fill="rgb(0,0,0)" stroke="none">11% robots</tspan></tspan></tspan></text>
 <text class="TextShape"><tspan class="TextParagraph" font-family="Liberation Sans" font-size="318px" font-weight="400"><tspan class="TextPosition" x="2817" y="10987"><tspan fill="rgb(0,0,0)" stroke="none">Starting point in % of humans</tspan></tspan></tspan></text>
 <text class="TextShape" transform="translate(837,7350) rotate(-90) translate(-837,-7350)"><tspan class="TextParagraph" font-family="Liberation Sans" font-size="318px" font-weight="400"><tspan class="TextPosition" x="837" y="7350"><tspan fill="rgb(0,0,0)" stroke="none">% of humans use robot word</tspan></tspan></tspan></text>
</svg>