<?xml version="1.0" encoding="UTF-8"?>
<!DOCTYPE svg PUBLIC "-//W3C//DTD SVG 1.1//EN" "http://www.w3.org/Graphics/SVG/1.1/DTD/svg11.dtd">
<svg width="119mm" height="116mm" viewBox="0 0 11900 11600" version="1.1" xmlns="http://www.w3.org/2000/svg" stroke-width="28.222" stroke-linejoin="round" xml:space="preserve">
 <path fill="rgb(255,255,255)" stroke="none" d="M 5961,11581 L 0,11581 0,0 11921,0 11921,11581 5961,11581 Z"/>
 <path fill="none" stroke="rgb(179,179,179)" stroke-linejoin="round" d="M 5045,9722 L 1870,9722 1870,430 8220,430 8220,9722 5045,9722 Z"/>
 <path fill="none" stroke="rgb(179,179,179)" stroke-linejoin="round" d="M 8220,9721 L 1870,9721"/>
 <path fill="none" stroke="rgb(179,179,179)" stroke-linejoin="round" d="M 8220,8172 L 1870,8172"/>
 <path fill="none" stroke="rgb(179,179,179)" stroke-linejoin="round" d="M 8220,6623 L 1870,6623"/>
 <path fill="none" stroke="rgb(179,179,179)" stroke-linejoin="round" d="M 8220,5075 L 1870,5075"/>
 <path fill="none" stroke="rgb(179,179,179)" stroke-linejoin="round" d="M 8220,3526 L 1870,3526"/>
 <path fill="none" stroke="rgb(179,179,179)" stroke-linejoin="round" d="M 8220,1977 L 1870,1977"/>
 <path fill="none" stroke="rgb(179,179,179)" stroke-linejoin="round" d="M 8220,429 L 1870,429"/>
 <path fill="none" stroke="rgb(179,179,179)" stroke-linejoin="round" d="M 1870,9871 L 1870,9721"/>
 <path fill="none" stroke="rgb(179,179,179)" stroke-linejoin="round" d="M 1870,9871 L 1870,9721"/>
 <path fill="none" stroke="rgb(179,179,179)" stroke-linejoin="round" d="M 2663,9871 L 2663,9721"/>
 <path fill="none" stroke="rgb(179,179,179)" stroke-linejoin="round" d="M 2663,9871 L 2663,9721"/>
 <path fill="none" stroke="rgb(179,179,179)" stroke-linejoin="round" d="M 3457,9871 L 3457,9721"/>
 <path fill="none" stroke="rgb(179,179,179)" stroke-linejoin="round" d="M 3457,9871 L 3457,9721"/>
 <path fill="none" stroke="rgb(179,179,179)" stroke-linejoin="round" d="M 4251,9871 L 4251,9721"/>
 <path fill="none" stroke="rgb(179,179,179)" stroke-linejoin="round" d="M 4251,9871 L 4251,9721"/>
 <path fill="none" stroke="rgb(179,179,179)" stroke-linejoin="round" d="M 5045,9871 L 5045,9721"/>
 <path fill="none" stroke="rgb(179,179,179)" stroke-linejoin="round" d="M 5045,9871 L 5045,9721"/>
 <path fill="none" stroke="rgb(179,179,179)" stroke-linejoin="round" d="M 5839,9871 L 5839,9721"/>
 <path fill="none" stroke="rgb(179,179,179)" stroke-linejoin="round" d="M 5839,9871 L 5839,9721"/>
 <path fill="none" stroke="rgb(179,179,179)" stroke-linejoin="round" d="M 6632,9871 L 6632,9721"/>
 <path fill="none" stroke="rgb(179,179,179)" stroke-linejoin="round" d="M 6632,9871 L 6632,9721"/>
 <path fill="none" stroke="rgb(179,179,179)" stroke-linejoin="round" d="M 7426,9871 L 7426,9721"/>
 <path fill="none" stroke="rgb(179,179,179)" stroke-linejoin="round" d="M 7426,9871 L 7426,9721"/>
 <path fill="none" stroke="rgb(179,179,179)" stroke-linejoin="round" d="M 8220,9871 L 8220,9721"/>
 <path fill="none" stroke="rgb(179,179,179)" stroke-linejoin="round" d="M 8220,9871 L 8220,9721"/>
 <path fill="none" stroke="rgb(179,179,179)" stroke-linejoin="round" d="M 1870,9721 L 8220,9721"/>
 <path fill="none" stroke="rgb(179,179,179)" stroke-linejoin="round" d="M 1720,9721 L 1870,9721"/>
 <path fill="none" stroke="rgb(179,179,179)" stroke-linejoin="round" d="M 1720,9721 L 1870,9721"/>
 <path fill="none" stroke="rgb(179,179,179)" stroke-linejoin="round" d="M 1720,8172 L 1870,8172"/>
 <path fill="none" stroke="rgb(179,179,179)" stroke-linejoin="round" d="M 1720,8172 L 1870,8172"/>
 <path fill="none" stroke="rgb(179,179,179)" stroke-linejoin="round" d="M 1720,6623 L 1870,6623"/>
 <path fill="none" stroke="rgb(179,179,179)" stroke-linejoin="round" d="M 1720,6623 L 1870,6623"/>
 <path fill="none" stroke="rgb(179,179,179)" stroke-linejoin="round" d="M 1720,5075 L 1870,5075"/>
 <path fill="none" stroke="rgb(179,179,179)" stroke-linejoin="round" d="M 1720,5075 L 1870,5075"/>
 <path fill="none" stroke="rgb(179,179,179)" stroke-linejoin="round" d="M 1720,3526 L 1870,3526"/>
 <path fill="none" stroke="rgb(179,179,179)" stroke-linejoin="round" d="M 1720,3526 L 1870,3526"/>
 <path fill="none" stroke="rgb(179,179,179)" stroke-linejoin="round" d="M 1720,1977 L 1870,1977"/>
 <path fill="none" stroke="rgb(179,179,179)" stroke-linejoin="round" d="M 1720,1977 L 1870,1977"/>
 <path fill="none" stroke="rgb(179,179,179)" stroke-linejoin="round" d="M 1720,429 L 1870,429"/>
 <path fill="none" stroke="rgb(179,179,179)" stroke-linejoin="round" d="M 1720,429 L 1870,429"/>
 <path fill="none" stroke="rgb(179,179,179)" stroke-linejoin="round" d="M 1870,9721 L 1870,429"/>
 <path fill="none" stroke="rgb(87,157,28)" stroke-width="80" stroke-linejoin="round" d="M 1870,3374 L 3854,2794 5839,2607 7823,2163"/>
 <path fill="rgb(87,157,28)" stroke="none" d="M 1745,3499 L 1995,3499 1870,3249 1745,3499 Z"/>
 <path fill="none" stroke="rgb(87,157,28)" stroke-linejoin="round" d="M 1745,3499 L 1995,3499 1870,3249 1745,3499 Z"/>
 <path fill="rgb(87,157,28)" stroke="none" d="M 3729,2919 L 3979,2919 3854,2669 3729,2919 Z"/>
 <path fill="none" stroke="rgb(87,157,28)" stroke-linejoin="round" d="M 3729,2919 L 3979,2919 3854,2669 3729,2919 Z"/>
 <path fill="rgb(87,157,28)" stroke="none" d="M 5714,2732 L 5963,2732 5839,2482 5714,2732 Z"/>
 <path fill="none" stroke="rgb(87,157,28)" stroke-linejoin="round" d="M 5714,2732 L 5963,2732 5839,2482 5714,2732 Z"/>
 <path fill="rgb(87,157,28)" stroke="none" d="M 7698,2288 L 7948,2288 7823,2038 7698,2288 Z"/>
 <path fill="none" stroke="rgb(87,157,28)" stroke-linejoin="round" d="M 7698,2288 L 7948,2288 7823,2038 7698,2288 Z"/>
 <path fill="none" stroke="rgb(255,211,32)" stroke-width="80" stroke-linejoin="round" d="M 1870,5003 L 3854,4096 5839,3503 7823,2834"/>
 <path fill="rgb(255,211,32)" stroke="none" d="M 1745,4878 L 1870,5128 1995,4878 1745,4878 Z"/>
 <path fill="none" stroke="rgb(255,211,32)" stroke-linejoin="round" d="M 1745,4878 L 1870,5128 1995,4878 1745,4878 Z"/>
 <path fill="rgb(255,211,32)" stroke="none" d="M 3729,3971 L 3854,4221 3979,3971 3729,3971 Z"/>
 <path fill="none" stroke="rgb(255,211,32)" stroke-linejoin="round" d="M 3729,3971 L 3854,4221 3979,3971 3729,3971 Z"/>
 <path fill="rgb(255,211,32)" stroke="none" d="M 5714,3378 L 5839,3628 5963,3378 5714,3378 Z"/>
 <path fill="none" stroke="rgb(255,211,32)" stroke-linejoin="round" d="M 5714,3378 L 5839,3628 5963,3378 5714,3378 Z"/>
 <path fill="rgb(255,211,32)" stroke="none" d="M 7698,2709 L 7823,2959 7948,2709 7698,2709 Z"/>
 <path fill="none" stroke="rgb(255,211,32)" stroke-linejoin="round" d="M 7698,2709 L 7823,2959 7948,2709 7698,2709 Z"/>
 <path fill="none" stroke="rgb(255,66,14)" stroke-width="80" stroke-linejoin="round" d="M 1870,7829 L 3854,7159 5839,6377 7823,5541"/>
 <path fill="rgb(255,66,14)" stroke="none" d="M 1745,7829 L 1870,7954 1995,7829 1870,7704 1745,7829 Z"/>
 <path fill="none" stroke="rgb(255,66,14)" stroke-linejoin="round" d="M 1745,7829 L 1870,7954 1995,7829 1870,7704 1745,7829 Z"/>
 <path fill="rgb(255,66,14)" stroke="none" d="M 3729,7159 L 3854,7284 3979,7159 3854,7034 3729,7159 Z"/>
 <path fill="none" stroke="rgb(255,66,14)" stroke-linejoin="round" d="M 3729,7159 L 3854,7284 3979,7159 3854,7034 3729,7159 Z"/>
 <path fill="rgb(255,66,14)" stroke="none" d="M 5714,6377 L 5839,6502 5963,6377 5839,6252 5714,6377 Z"/>
 <path fill="none" stroke="rgb(255,66,14)" stroke-linejoin="round" d="M 5714,6377 L 5839,6502 5963,6377 5839,6252 5714,6377 Z"/>
 <path fill="rgb(255,66,14)" stroke="none" d="M 7698,5541 L 7823,5666 7948,5541 7823,5416 7698,5541 Z"/>
 <path fill="none" stroke="rgb(255,66,14)" stroke-linejoin="round" d="M 7698,5541 L 7823,5666 7948,5541 7823,5416 7698,5541 Z"/>
 <path fill="none" stroke="rgb(0,69,134)" stroke-width="80" stroke-linejoin="round" d="M 1870,9309 L 3854,9147 5839,9078 7823,8876"/>
 <path fill="rgb(0,69,134)" stroke="none" d="M 1745,9184 L 1745,9434 1995,9434 1995,9184 1745,9184 Z"/>
 <path fill="none" stroke="rgb(0,69,134)" stroke-linejoin="round" d="M 1745,9184 L 1745,9434 1995,9434 1995,9184 1745,9184 Z"/>
 <path fill="rgb(0,69,134)" stroke="none" d="M 3729,9022 L 3729,9272 3979,9272 3979,9022 3729,9022 Z"/>
 <path fill="none" stroke="rgb(0,69,134)" stroke-linejoin="round" d="M 3729,9022 L 3729,9272 3979,9272 3979,9022 3729,9022 Z"/>
 <path fill="rgb(0,69,134)" stroke="none" d="M 5714,8953 L 5714,9203 5963,9203 5963,8953 5714,8953 Z"/>
 <path fill="none" stroke="rgb(0,69,134)" stroke-linejoin="round" d="M 5714,8953 L 5714,9203 5963,9203 5963,8953 5714,8953 Z"/>
 <path fill="rgb(0,69,134)" stroke="none" d="M 7698,8751 L 7698,9001 7948,9001 7948,8751 7698,8751 Z"/>
 <path fill="none" stroke="rgb(0,69,134)" stroke-linejoin="round" d="M 7698,8751 L 7698,9001 7948,9001 7948,8751 7698,8751 Z"/>
 <text class="TextShape"><tspan class="TextParagraph" font-family="Liberation Sans" font-size="353px" font-weight="400"><tspan class="TextPosition" x="1777" y="10289"><tspan fill="rgb(0,0,0)" stroke="none">0</tspan></tspan></tspan></text>
 <text class="TextShape"><tspan class="TextParagraph" font-family="Liberation Sans" font-size="353px" font-weight="400"><tspan class="TextPosition" x="2478" y="10289"><tspan fill="rgb(0,0,0)" stroke="none">10</tspan></tspan></tspan></text>
 <text class="TextShape"><tspan class="TextParagraph" font-family="Liberation Sans" font-size="353px" font-weight="400"><tspan class="TextPosition" x="3272" y="10289"><tspan fill="rgb(0,0,0)" stroke="none">20</tspan></tspan></tspan></text>
 <text class="TextShape"><tspan class="TextParagraph" font-family="Liberation Sans" font-size="353px" font-weight="400"><tspan class="TextPosition" x="4066" y="10289"><tspan fill="rgb(0,0,0)" stroke="none">30</tspan></tspan></tspan></text>
 <text class="TextShape"><tspan class="TextParagraph" font-family="Liberation Sans" font-size="353px" font-weight="400"><tspan class="TextPosition" x="4860" y="10289"><tspan fill="rgb(0,0,0)" stroke="none">40</tspan></tspan></tspan></text>
 <text class="TextShape"><tspan class="TextParagraph" font-family="Liberation Sans" font-size="353px" font-weight="400"><tspan class="TextPosition" x="5654" y="10289"><tspan fill="rgb(0,0,0)" stroke="none">50</tspan></tspan></tspan></text>
 <text class="TextShape"><tspan class="TextParagraph" font-family="Liberation Sans" font-size="353px" font-weight="400"><tspan class="TextPosition" x="6448" y="10289"><tspan fill="rgb(0,0,0)" stroke="none">60</tspan></tspan></tspan></text>
 <text class="TextShape"><tspan class="TextParagraph" font-family="Liberation Sans" font-size="353px" font-weight="400"><tspan class="TextPosition" x="7242" y="10289"><tspan fill="rgb(0,0,0)" stroke="none">70</tspan></tspan></tspan></text>
 <text class="TextShape"><tspan class="TextParagraph" font-family="Liberation Sans" font-size="353px" font-weight="400"><tspan class="TextPosition" x="8036" y="10289"><tspan fill="rgb(0,0,0)" stroke="none">80</tspan></tspan></tspan></text>
 <text class="TextShape"><tspan class="TextParagraph" font-family="Liberation Sans" font-size="353px" font-weight="400"><tspan class="TextPosition" x="1435" y="9842"><tspan fill="rgb(0,0,0)" stroke="none">0</tspan></tspan></tspan></text>
 <text class="TextShape"><tspan class="TextParagraph" font-family="Liberation Sans" font-size="353px" font-weight="400"><tspan class="TextPosition" x="1250" y="8293"><tspan fill="rgb(0,0,0)" stroke="none">20</tspan></tspan></tspan></text>
 <text class="TextShape"><tspan class="TextParagraph" font-family="Liberation Sans" font-size="353px" font-weight="400"><tspan class="TextPosition" x="1250" y="6744"><tspan fill="rgb(0,0,0)" stroke="none">40</tspan></tspan></tspan></text>
 <text class="TextShape"><tspan class="TextParagraph" font-family="Liberation Sans" font-size="353px" font-weight="400"><tspan class="TextPosition" x="1250" y="5195"><tspan fill="rgb(0,0,0)" stroke="none">60</tspan></tspan></tspan></text>
 <text class="TextShape"><tspan class="TextParagraph" font-family="Liberation Sans" font-size="353px" font-weight="400"><tspan class="TextPosition" x="1250" y="3646"><tspan fill="rgb(0,0,0)" stroke="none">80</tspan></tspan></tspan></text>
 <text class="TextShape"><tspan class="TextParagraph" font-family="Liberation Sans" font-size="353px" font-weight="400"><tspan class="TextPosition" x="1064" y="2097"><tspan fill="rgb(0,0,0)" stroke="none">100</tspan></tspan></tspan></text>
 <text class="TextShape"><tspan class="TextParagraph" font-family="Liberation Sans" font-size="353px" font-weight="400"><tspan class="TextPosition" x="1064" y="549"><tspan fill="rgb(0,0,0)" stroke="none">120</tspan></tspan></tspan></text>
 <path fill="none" stroke="rgb(0,69,134)" stroke-width="80" stroke-linejoin="round" d="M 8947,5043 L 9747,5043"/>
 <path fill="rgb(0,69,134)" stroke="none" d="M 9241,4938 L 9241,5149 9452,5149 9452,4938 9241,4938 Z"/>
 <path fill="none" stroke="rgb(0,69,134)" stroke-linejoin="round" d="M 9241,4938 L 9241,5149 9452,5149 9452,4938 9241,4938 Z"/>
 <path fill="none" stroke="rgb(255,66,14)" stroke-width="80" stroke-linejoin="round" d="M 8947,5541 L 9747,5541"/>
 <path fill="rgb(255,66,14)" stroke="none" d="M 9241,5541 L 9347,5647 9452,5541 9347,5436 9241,5541 Z"/>
 <path fill="none" stroke="rgb(255,66,14)" stroke-linejoin="round" d="M 9241,5541 L 9347,5647 9452,5541 9347,5436 9241,5541 Z"/>
 <path fill="none" stroke="rgb(255,211,32)" stroke-width="80" stroke-linejoin="round" d="M 8947,6038 L 9747,6038"/>
 <path fill="rgb(255,211,32)" stroke="none" d="M 9241,5933 L 9347,6144 9452,5933 9241,5933 Z"/>
 <path fill="none" stroke="rgb(255,211,32)" stroke-linejoin="round" d="M 9241,5933 L 9347,6144 9452,5933 9241,5933 Z"/>
 <path fill="none" stroke="rgb(87,157,28)" stroke-width="80" stroke-linejoin="round" d="M 8947,6536 L 9747,6536"/>
 <path fill="rgb(87,157,28)" stroke="none" d="M 9241,6642 L 9452,6642 9347,6431 9241,6642 Z"/>
 <path fill="none" stroke="rgb(87,157,28)" stroke-linejoin="round" d="M 9241,6642 L 9452,6642 9347,6431 9241,6642 Z"/>
 <text class="TextShape"><tspan class="TextParagraph" font-family="Liberation Sans" font-size="353px" font-weight="400"><tspan class="TextPosition" x="9847" y="5163"><tspan fill="rgb(0,0,0)" stroke="none">3% robots</tspan></tspan></tspan></text>
 <text class="TextShape"><tspan class="TextParagraph" font-family="Liberation Sans" font-size="353px" font-weight="400"><tspan class="TextPosition" x="9847" y="5661"><tspan fill="rgb(0,0,0)" stroke="none">6% robots</tspan></tspan></tspan></text>
 <text class="TextShape"><tspan class="TextParagraph" font-family="Liberation Sans" font-size="353px" font-weight="400"><tspan class="TextPosition" x="9847" y="6158"><tspan fill="rgb(0,0,0)" stroke="none">9% robots</tspan></tspan></tspan></text>
 <text class="TextShape"><tspan class="TextParagraph" font-family="Liberation Sans" font-size="353px" font-weight="400"><tspan class="TextPosition" x="9847" y="6656"><tspan fill="rgb(0,0,0)" stroke="none">11% robots</tspan></tspan></tspan></text>
 <text class="TextShape"><tspan class="TextParagraph" font-family="Liberation Sans" font-size="318px" font-weight="400"><tspan class="TextPosition" x="2817" y="10987"><tspan fill="rgb(0,0,0)" stroke="none">Starting point in % of humans</tspan></tspan></tspan></text>
 <text class="TextShape" transform="translate(837,7350) rotate(-90) translate(-837,-7350)"><tspan class="TextParagraph" font-family="Liberation Sans" font-size="318px" font-weight="400"><tspan class="TextPosition" x="837" y="7350"><tspan fill="rgb(0,0,0)" stroke="none">% of humans use robot word</tspan></tspan></tspan></text>
</svg>