<?xml version="1.0" encoding="UTF-8"?>
<!DOCTYPE svg PUBLIC "-//W3C//DTD SVG 1.1//EN" "http://www.w3.org/Graphics/SVG/1.1/DTD/svg11.dtd">
<svg width="119mm" height="116mm" viewBox="0 0 11900 11600" version="1.1" xmlns="http://www.w3.org/2000/svg" stroke-width="28.222" stroke-linejoin="round" xml:space="preserve">
 <path fill="rgb(255,255,255)" stroke="none" d="M 5961,11581 L 0,11581 0,0 11921,0 11921,11581 5961,11581 Z"/>
 <path fill="none" stroke="rgb(179,179,179)" stroke-linejoin="round" d="M 5138,9722 L 1870,9722 1870,430 8406,430 8406,9722 5138,9722 Z"/>
 <path fill="none" stroke="rgb(179,179,179)" stroke-linejoin="round" d="M 8406,9721 L 1870,9721"/>
 <path fill="none" stroke="rgb(179,179,179)" stroke-linejoin="round" d="M 8406,8393 L 1870,8393"/>
 <path fill="none" stroke="rgb(179,179,179)" stroke-linejoin="round" d="M 8406,7065 L 1870,7065"/>
 <path fill="none" stroke="rgb(179,179,179)" stroke-linejoin="round" d="M 8406,5739 L 1870,5739"/>
 <path fill="none" stroke="rgb(179,179,179)" stroke-linejoin="round" d="M 8406,4411 L 1870,4411"/>
 <path fill="none" stroke="rgb(179,179,179)" stroke-linejoin="round" d="M 8406,3084 L 1870,3084"/>
 <path fill="none" stroke="rgb(179,179,179)" stroke-linejoin="round" d="M 8406,1756 L 1870,1756"/>
 <path fill="none" stroke="rgb(179,179,179)" stroke-linejoin="round" d="M 8406,429 L 1870,429"/>
 <path fill="none" stroke="rgb(179,179,179)" stroke-linejoin="round" d="M 1870,9871 L 1870,9721"/>
 <path fill="none" stroke="rgb(179,179,179)" stroke-linejoin="round" d="M 1870,9871 L 1870,9721"/>
 <path fill="none" stroke="rgb(179,179,179)" stroke-linejoin="round" d="M 2687,9871 L 2687,9721"/>
 <path fill="none" stroke="rgb(179,179,179)" stroke-linejoin="round" d="M 2687,9871 L 2687,9721"/>
 <path fill="none" stroke="rgb(179,179,179)" stroke-linejoin="round" d="M 3504,9871 L 3504,9721"/>
 <path fill="none" stroke="rgb(179,179,179)" stroke-linejoin="round" d="M 3504,9871 L 3504,9721"/>
 <path fill="none" stroke="rgb(179,179,179)" stroke-linejoin="round" d="M 4321,9871 L 4321,9721"/>
 <path fill="none" stroke="rgb(179,179,179)" stroke-linejoin="round" d="M 4321,9871 L 4321,9721"/>
 <path fill="none" stroke="rgb(179,179,179)" stroke-linejoin="round" d="M 5138,9871 L 5138,9721"/>
 <path fill="none" stroke="rgb(179,179,179)" stroke-linejoin="round" d="M 5138,9871 L 5138,9721"/>
 <path fill="none" stroke="rgb(179,179,179)" stroke-linejoin="round" d="M 5955,9871 L 5955,9721"/>
 <path fill="none" stroke="rgb(179,179,179)" stroke-linejoin="round" d="M 5955,9871 L 5955,9721"/>
 <path fill="none" stroke="rgb(179,179,179)" stroke-linejoin="round" d="M 6771,9871 L 6771,9721"/>
 <path fill="none" stroke="rgb(179,179,179)" stroke-linejoin="round" d="M 6771,9871 L 6771,9721"/>
 <path fill="none" stroke="rgb(179,179,179)" stroke-linejoin="round" d="M 7588,9871 L 7588,9721"/>
 <path fill="none" stroke="rgb(179,179,179)" stroke-linejoin="round" d="M 7588,9871 L 7588,9721"/>
 <path fill="none" stroke="rgb(179,179,179)" stroke-linejoin="round" d="M 8406,9871 L 8406,9721"/>
 <path fill="none" stroke="rgb(179,179,179)" stroke-linejoin="round" d="M 8406,9871 L 8406,9721"/>
 <path fill="none" stroke="rgb(179,179,179)" stroke-linejoin="round" d="M 1870,9721 L 8406,9721"/>
 <path fill="none" stroke="rgb(179,179,179)" stroke-linejoin="round" d="M 1720,9721 L 1870,9721"/>
 <path fill="none" stroke="rgb(179,179,179)" stroke-linejoin="round" d="M 1720,9721 L 1870,9721"/>
 <path fill="none" stroke="rgb(179,179,179)" stroke-linejoin="round" d="M 1720,8393 L 1870,8393"/>
 <path fill="none" stroke="rgb(179,179,179)" stroke-linejoin="round" d="M 1720,8393 L 1870,8393"/>
 <path fill="none" stroke="rgb(179,179,179)" stroke-linejoin="round" d="M 1720,7065 L 1870,7065"/>
 <path fill="none" stroke="rgb(179,179,179)" stroke-linejoin="round" d="M 1720,7065 L 1870,7065"/>
 <path fill="none" stroke="rgb(179,179,179)" stroke-linejoin="round" d="M 1720,5739 L 1870,5739"/>
 <path fill="none" stroke="rgb(179,179,179)" stroke-linejoin="round" d="M 1720,5739 L 1870,5739"/>
 <path fill="none" stroke="rgb(179,179,179)" stroke-linejoin="round" d="M 1720,4411 L 1870,4411"/>
 <path fill="none" stroke="rgb(179,179,179)" stroke-linejoin="round" d="M 1720,4411 L 1870,4411"/>
 <path fill="none" stroke="rgb(179,179,179)" stroke-linejoin="round" d="M 1720,3084 L 1870,3084"/>
 <path fill="none" stroke="rgb(179,179,179)" stroke-linejoin="round" d="M 1720,3084 L 1870,3084"/>
 <path fill="none" stroke="rgb(179,179,179)" stroke-linejoin="round" d="M 1720,1756 L 1870,1756"/>
 <path fill="none" stroke="rgb(179,179,179)" stroke-linejoin="round" d="M 1720,1756 L 1870,1756"/>
 <path fill="none" stroke="rgb(179,179,179)" stroke-linejoin="round" d="M 1720,429 L 1870,429"/>
 <path fill="none" stroke="rgb(179,179,179)" stroke-linejoin="round" d="M 1720,429 L 1870,429"/>
 <path fill="none" stroke="rgb(179,179,179)" stroke-linejoin="round" d="M 1870,9721 L 1870,429"/>
 <path fill="none" stroke="rgb(87,157,28)" stroke-width="80" stroke-linejoin="round" d="M 1870,3413 L 3912,2729 5955,2287 7997,1588"/>
 <path fill="rgb(87,157,28)" stroke="none" d="M 1745,3538 L 1995,3538 1870,3288 1745,3538 Z"/>
 <path fill="none" stroke="rgb(87,157,28)" stroke-linejoin="round" d="M 1745,3538 L 1995,3538 1870,3288 1745,3538 Z"/>
 <path fill="rgb(87,157,28)" stroke="none" d="M 3787,2854 L 4037,2854 3912,2604 3787,2854 Z"/>
 <path fill="none" stroke="rgb(87,157,28)" stroke-linejoin="round" d="M 3787,2854 L 4037,2854 3912,2604 3787,2854 Z"/>
 <path fill="rgb(87,157,28)" stroke="none" d="M 5830,2412 L 6079,2412 5955,2162 5830,2412 Z"/>
 <path fill="none" stroke="rgb(87,157,28)" stroke-linejoin="round" d="M 5830,2412 L 6079,2412 5955,2162 5830,2412 Z"/>
 <path fill="rgb(87,157,28)" stroke="none" d="M 7872,1713 L 8122,1713 7997,1463 7872,1713 Z"/>
 <path fill="none" stroke="rgb(87,157,28)" stroke-linejoin="round" d="M 7872,1713 L 8122,1713 7997,1463 7872,1713 Z"/>
 <path fill="none" stroke="rgb(255,211,32)" stroke-width="80" stroke-linejoin="round" d="M 1870,4563 L 3912,3996 5955,3619 7997,3116"/>
 <path fill="rgb(255,211,32)" stroke="none" d="M 1745,4438 L 1870,4688 1995,4438 1745,4438 Z"/>
 <path fill="none" stroke="rgb(255,211,32)" stroke-linejoin="round" d="M 1745,4438 L 1870,4688 1995,4438 1745,4438 Z"/>
 <path fill="rgb(255,211,32)" stroke="none" d="M 3787,3871 L 3912,4121 4037,3871 3787,3871 Z"/>
 <path fill="none" stroke="rgb(255,211,32)" stroke-linejoin="round" d="M 3787,3871 L 3912,4121 4037,3871 3787,3871 Z"/>
 <path fill="rgb(255,211,32)" stroke="none" d="M 5830,3494 L 5955,3744 6079,3494 5830,3494 Z"/>
 <path fill="none" stroke="rgb(255,211,32)" stroke-linejoin="round" d="M 5830,3494 L 5955,3744 6079,3494 5830,3494 Z"/>
 <path fill="rgb(255,211,32)" stroke="none" d="M 7872,2991 L 7997,3241 8122,2991 7872,2991 Z"/>
 <path fill="none" stroke="rgb(255,211,32)" stroke-linejoin="round" d="M 7872,2991 L 7997,3241 8122,2991 7872,2991 Z"/>
 <path fill="none" stroke="rgb(255,66,14)" stroke-width="80" stroke-linejoin="round" d="M 1870,6242 L 3912,5875 5955,5555 7997,5223"/>
 <path fill="rgb(255,66,14)" stroke="none" d="M 1745,6242 L 1870,6367 1995,6242 1870,6117 1745,6242 Z"/>
 <path fill="none" stroke="rgb(255,66,14)" stroke-linejoin="round" d="M 1745,6242 L 1870,6367 1995,6242 1870,6117 1745,6242 Z"/>
 <path fill="rgb(255,66,14)" stroke="none" d="M 3787,5875 L 3912,6000 4037,5875 3912,5751 3787,5875 Z"/>
 <path fill="none" stroke="rgb(255,66,14)" stroke-linejoin="round" d="M 3787,5875 L 3912,6000 4037,5875 3912,5751 3787,5875 Z"/>
 <path fill="rgb(255,66,14)" stroke="none" d="M 5830,5555 L 5955,5680 6079,5555 5955,5430 5830,5555 Z"/>
 <path fill="none" stroke="rgb(255,66,14)" stroke-linejoin="round" d="M 5830,5555 L 5955,5680 6079,5555 5955,5430 5830,5555 Z"/>
 <path fill="rgb(255,66,14)" stroke="none" d="M 7872,5223 L 7997,5348 8122,5223 7997,5098 7872,5223 Z"/>
 <path fill="none" stroke="rgb(255,66,14)" stroke-linejoin="round" d="M 7872,5223 L 7997,5348 8122,5223 7997,5098 7872,5223 Z"/>
 <path fill="none" stroke="rgb(0,69,134)" stroke-width="80" stroke-linejoin="round" d="M 1870,7980 L 3912,7715 5955,7613 7997,7435"/>
 <path fill="rgb(0,69,134)" stroke="none" d="M 1745,7855 L 1745,8105 1995,8105 1995,7855 1745,7855 Z"/>
 <path fill="none" stroke="rgb(0,69,134)" stroke-linejoin="round" d="M 1745,7855 L 1745,8105 1995,8105 1995,7855 1745,7855 Z"/>
 <path fill="rgb(0,69,134)" stroke="none" d="M 3787,7590 L 3787,7840 4037,7840 4037,7590 3787,7590 Z"/>
 <path fill="none" stroke="rgb(0,69,134)" stroke-linejoin="round" d="M 3787,7590 L 3787,7840 4037,7840 4037,7590 3787,7590 Z"/>
 <path fill="rgb(0,69,134)" stroke="none" d="M 5830,7488 L 5830,7738 6079,7738 6079,7488 5830,7488 Z"/>
 <path fill="none" stroke="rgb(0,69,134)" stroke-linejoin="round" d="M 5830,7488 L 5830,7738 6079,7738 6079,7488 5830,7488 Z"/>
 <path fill="rgb(0,69,134)" stroke="none" d="M 7872,7310 L 7872,7560 8122,7560 8122,7310 7872,7310 Z"/>
 <path fill="none" stroke="rgb(0,69,134)" stroke-linejoin="round" d="M 7872,7310 L 7872,7560 8122,7560 8122,7310 7872,7310 Z"/>
 <text class="TextShape"><tspan class="TextParagraph" font-family="Liberation Sans, sans-serif" font-size="353px" font-weight="400"><tspan class="TextPosition" x="1777" y="10289"><tspan fill="rgb(0,0,0)" stroke="none">0</tspan></tspan></tspan></text>
 <text class="TextShape"><tspan class="TextParagraph" font-family="Liberation Sans, sans-serif" font-size="353px" font-weight="400"><tspan class="TextPosition" x="2502" y="10289"><tspan fill="rgb(0,0,0)" stroke="none">10</tspan></tspan></tspan></text>
 <text class="TextShape"><tspan class="TextParagraph" font-family="Liberation Sans, sans-serif" font-size="353px" font-weight="400"><tspan class="TextPosition" x="3319" y="10289"><tspan fill="rgb(0,0,0)" stroke="none">20</tspan></tspan></tspan></text>
 <text class="TextShape"><tspan class="TextParagraph" font-family="Liberation Sans, sans-serif" font-size="353px" font-weight="400"><tspan class="TextPosition" x="4136" y="10289"><tspan fill="rgb(0,0,0)" stroke="none">30</tspan></tspan></tspan></text>
 <text class="TextShape"><tspan class="TextParagraph" font-family="Liberation Sans, sans-serif" font-size="353px" font-weight="400"><tspan class="TextPosition" x="4953" y="10289"><tspan fill="rgb(0,0,0)" stroke="none">40</tspan></tspan></tspan></text>
 <text class="TextShape"><tspan class="TextParagraph" font-family="Liberation Sans, sans-serif" font-size="353px" font-weight="400"><tspan class="TextPosition" x="5770" y="10289"><tspan fill="rgb(0,0,0)" stroke="none">50</tspan></tspan></tspan></text>
 <text class="TextShape"><tspan class="TextParagraph" font-family="Liberation Sans, sans-serif" font-size="353px" font-weight="400"><tspan class="TextPosition" x="6587" y="10289"><tspan fill="rgb(0,0,0)" stroke="none">60</tspan></tspan></tspan></text>
 <text class="TextShape"><tspan class="TextParagraph" font-family="Liberation Sans, sans-serif" font-size="353px" font-weight="400"><tspan class="TextPosition" x="7404" y="10289"><tspan fill="rgb(0,0,0)" stroke="none">70</tspan></tspan></tspan></text>
 <text class="TextShape"><tspan class="TextParagraph" font-family="Liberation Sans, sans-serif" font-size="353px" font-weight="400"><tspan class="TextPosition" x="8222" y="10289"><tspan fill="rgb(0,0,0)" stroke="none">80</tspan></tspan></tspan></text>
 <text class="TextShape"><tspan class="TextParagraph" font-family="Liberation Sans, sans-serif" font-size="353px" font-weight="400"><tspan class="TextPosition" x="1435" y="9842"><tspan fill="rgb(0,0,0)" stroke="none">0</tspan></tspan></tspan></text>
 <text class="TextShape"><tspan class="TextParagraph" font-family="Liberation Sans, sans-serif" font-size="353px" font-weight="400"><tspan class="TextPosition" x="1435" y="8514"><tspan fill="rgb(0,0,0)" stroke="none">5</tspan></tspan></tspan></text>
 <text class="TextShape"><tspan class="TextParagraph" font-family="Liberation Sans, sans-serif" font-size="353px" font-weight="400"><tspan class="TextPosition" x="1250" y="7186"><tspan fill="rgb(0,0,0)" stroke="none">10</tspan></tspan></tspan></text>
 <text class="TextShape"><tspan class="TextParagraph" font-family="Liberation Sans, sans-serif" font-size="353px" font-weight="400"><tspan class="TextPosition" x="1250" y="5859"><tspan fill="rgb(0,0,0)" stroke="none">15</tspan></tspan></tspan></text>
 <text class="TextShape"><tspan class="TextParagraph" font-family="Liberation Sans, sans-serif" font-size="353px" font-weight="400"><tspan class="TextPosition" x="1250" y="4531"><tspan fill="rgb(0,0,0)" stroke="none">20</tspan></tspan></tspan></text>
 <text class="TextShape"><tspan class="TextParagraph" font-family="Liberation Sans, sans-serif" font-size="353px" font-weight="400"><tspan class="TextPosition" x="1250" y="3204"><tspan fill="rgb(0,0,0)" stroke="none">25</tspan></tspan></tspan></text>
 <text class="TextShape"><tspan class="TextParagraph" font-family="Liberation Sans, sans-serif" font-size="353px" font-weight="400"><tspan class="TextPosition" x="1250" y="1876"><tspan fill="rgb(0,0,0)" stroke="none">30</tspan></tspan></tspan></text>
 <text class="TextShape"><tspan class="TextParagraph" font-family="Liberation Sans, sans-serif" font-size="353px" font-weight="400"><tspan class="TextPosition" x="1250" y="549"><tspan fill="rgb(0,0,0)" stroke="none">35</tspan></tspan></tspan></text>
 <path fill="none" stroke="rgb(0,69,134)" stroke-width="80" stroke-linejoin="round" d="M 8947,5043 L 9747,5043"/>
 <path fill="rgb(0,69,134)" stroke="none" d="M 9241,4938 L 9241,5149 9452,5149 9452,4938 9241,4938 Z"/>
 <path fill="none" stroke="rgb(0,69,134)" stroke-linejoin="round" d="M 9241,4938 L 9241,5149 9452,5149 9452,4938 9241,4938 Z"/>
 <path fill="none" stroke="rgb(255,66,14)" stroke-width="80" stroke-linejoin="round" d="M 8947,5541 L 9747,5541"/>
 <path fill="rgb(255,66,14)" stroke="none" d="M 9241,5541 L 9347,5647 9452,5541 9347,5436 9241,5541 Z"/>
 <path fill="none" stroke="rgb(255,66,14)" stroke-linejoin="round" d="M 9241,5541 L 9347,5647 9452,5541 9347,5436 9241,5541 Z"/>
 <path fill="none" stroke="rgb(255,211,32)" stroke-width="80" stroke-linejoin="round" d="M 8947,6038 L 9747,6038"/>
 <path fill="rgb(255,211,32)" stroke="none" d="M 9241,5933 L 9347,6144 9452,5933 9241,5933 Z"/>
 <path fill="none" stroke="rgb(255,211,32)" stroke-linejoin="round" d="M 9241,5933 L 9347,6144 9452,5933 9241,5933 Z"/>
 <path fill="none" stroke="rgb(87,157,28)" stroke-width="80" stroke-linejoin="round" d="M 8947,6536 L 9747,6536"/>
 <path fill="rgb(87,157,28)" stroke="none" d="M 9241,6642 L 9452,6642 9347,6431 9241,6642 Z"/>
 <path fill="none" stroke="rgb(87,157,28)" stroke-linejoin="round" d="M 9241,6642 L 9452,6642 9347,6431 9241,6642 Z"/>
 <text class="TextShape"><tspan class="TextParagraph" font-family="Liberation Sans, sans-serif" font-size="353px" font-weight="400"><tspan class="TextPosition" x="9847" y="5163"><tspan fill="rgb(0,0,0)" stroke="none">3% robots</tspan></tspan></tspan></text>
 <text class="TextShape"><tspan class="TextParagraph" font-family="Liberation Sans, sans-serif" font-size="353px" font-weight="400"><tspan class="TextPosition" x="9847" y="5661"><tspan fill="rgb(0,0,0)" stroke="none">6% robots</tspan></tspan></tspan></text>
 <text class="TextShape"><tspan class="TextParagraph" font-family="Liberation Sans, sans-serif" font-size="353px" font-weight="400"><tspan class="TextPosition" x="9847" y="6158"><tspan fill="rgb(0,0,0)" stroke="none">9% robots</tspan></tspan></tspan></text>
 <text class="TextShape"><tspan class="TextParagraph" font-family="Liberation Sans, sans-serif" font-size="353px" font-weight="400"><tspan class="TextPosition" x="9847" y="6656"><tspan fill="rgb(0,0,0)" stroke="none">11% robots</tspan></tspan></tspan></text>
 <text class="TextShape"><tspan class="TextParagraph" font-family="Liberation Sans, sans-serif" font-size="318px" font-weight="400"><tspan class="TextPosition" x="2817" y="10987"><tspan fill="rgb(0,0,0)" stroke="none">Starting point in % of humans</tspan></tspan></tspan></text>
 <text class="TextShape" transform="translate(837,7350) rotate(-90) translate(-837,-7350)"><tspan class="TextParagraph" font-family="Liberation Sans, sans-serif" font-size="318px" font-weight="400"><tspan class="TextPosition" x="837" y="7350"><tspan fill="rgb(0,0,0)" stroke="none">% of humans use robot word</tspan></tspan></tspan></text>
</svg>